<svg width="297" height="106" viewBox="0 0 297 106" fill="none" xmlns="http://www.w3.org/2000/svg">
<path d="M0 105.994L285 106V1.00648L0 1V105.994ZM4.85818 5.81289L280.148 5.81878V101.181L4.85818 101.174V5.81289Z" fill="white"/>
<path d="M76.7425 28.0916V78.3238L80.6882 78.8423V81.785H61.131V78.8423L65.34 78.3238V55.4541H40.3482V78.3238L44.2085 78.8423V81.785H25V78.8423L28.8603 78.3238V28.0851L25 27.566V24.709H44.2085V27.566L40.3482 28.0851V49.5682H65.34V28.0851L61.131 27.566V24.709H80.6882V27.566L76.7425 28.0916ZM103.408 78.6714L107.084 79.1906V81.785H89.1068V79.1906L92.7957 78.6714V44.2813L89.1068 43.7692V41.1683H103.408V78.6714ZM114.896 79.2627L118.493 78.7637V27.7368L114.896 27.2307V24.709H129.19V78.7637L132.872 79.2627V81.785H114.896V79.2627ZM154.709 41.1683H164.353V44.9777H154.709V69.1416C154.709 75.3746 156.02 77.3713 161.725 77.3713C163.833 77.3713 165.677 77.3713 167.429 76.9379V79.7091C162.252 81.529 157.871 82.3106 154.182 82.3106C145.942 82.3106 144.012 78.5863 144.012 71.4794V44.9777H136.469V41.1683H144.275V32.6827L154.709 29.5626V41.1683ZM200.932 61.6079C200.932 48.7872 197.072 43.1585 190.84 43.1585C184.793 43.1585 180.927 48.5312 180.927 61.6079C180.927 74.5143 184.786 79.88 190.84 79.88C197.342 79.88 200.932 74.7769 200.932 61.6079ZM212.683 61.8704C212.683 74.5143 204.094 83 190.583 83C177.514 83 169.181 77.4564 169.181 61.8639C169.181 48.7872 177.778 40.0384 191.281 40.0384C204.614 40.0384 212.683 47.9269 212.683 61.8704ZM261.449 79.1906V81.785H243.472V79.1906L247.069 78.6714V55.5458C247.069 49.1354 244.704 46.2779 239.783 46.2779C237.504 46.2779 233.907 47.8347 231.279 49.654V78.6714L234.962 79.1906V81.785H216.899V79.1906L220.575 78.6714V44.5444L216.899 44.0252V41.1683H231.279V46.797C235.752 43.2436 240.047 40.3867 246.101 40.3867C254.17 40.3867 257.766 45.0694 257.766 54.2456V78.6714L261.449 79.1906ZM103.928 30.4294C103.928 33.589 101.333 36.1438 98.1379 36.1438C94.9364 36.1438 92.348 33.5825 92.348 30.4294C92.348 27.2703 94.9364 24.7155 98.1379 24.7155C101.333 24.709 103.928 27.2703 103.928 30.4294ZM297 3.68468C297 4.16861 296.905 4.64782 296.719 5.09494C296.533 5.54205 296.261 5.94831 295.918 6.2905C295.575 6.63268 295.167 6.90409 294.719 7.08921C294.27 7.27432 293.79 7.36952 293.305 7.36937C292.819 7.36952 292.339 7.27432 291.89 7.08921C291.442 6.90409 291.034 6.63268 290.691 6.2905C290.348 5.94831 290.076 5.54205 289.89 5.09494C289.704 4.64782 289.609 4.16861 289.609 3.68468C289.609 3.20076 289.704 2.72155 289.89 2.27443C290.076 1.82732 290.348 1.42106 290.691 1.07887C291.034 0.736687 291.442 0.465281 291.89 0.280164C292.339 0.095046 292.819 -0.000155188 293.305 1.89887e-07C293.79 -0.000155188 294.27 0.095046 294.719 0.280164C295.167 0.465281 295.575 0.736687 295.918 1.07887C296.261 1.42106 296.533 1.82732 296.719 2.27443C296.905 2.72155 297 3.20076 297 3.68468ZM290.413 3.67168C290.413 5.26096 291.717 6.55462 293.305 6.55462C294.885 6.55462 296.197 5.25387 296.197 3.67168C296.197 2.08889 294.885 0.788139 293.305 0.788139C291.717 0.788139 290.413 2.08889 290.413 3.67168ZM294.866 3.04731C294.866 3.59954 294.642 3.9472 294.135 4.09206L295.004 5.37921H294.214L293.423 4.1908C293.364 4.1908 293.298 4.2038 293.206 4.2038H292.521V5.37921H291.823V1.89792H293.364C294.425 1.90501 294.866 2.25918 294.866 3.04731ZM292.527 3.66517H293.391C293.963 3.66517 294.161 3.5008 294.161 3.09343C294.161 2.68606 293.963 2.52879 293.391 2.52879H292.527V3.66517Z" fill="white"/>
</svg>
