<svg width="278" height="68" viewBox="0 0 278 68" fill="none" xmlns="http://www.w3.org/2000/svg">
<path d="M143.205 37.9541L132.657 11.4348L122.171 37.7779C124.899 37.6921 127.659 37.6424 130.48 37.6424C134.835 37.6424 139.072 37.7486 143.205 37.9541ZM230.739 64.8415C208.136 55.0125 182.717 47.7334 152.848 45.2762L161.943 67.3643H154.904L145.926 44.7996C140.91 44.5218 135.765 44.366 130.491 44.366C126.751 44.366 123.079 44.4428 119.465 44.5896L110.402 67.3643H103.358L112.579 44.9554C80.8971 47.0333 53.9149 54.5405 30.2142 64.8347V63.4435C46.0327 54.615 61.6751 48.0247 78.5618 43.72V30.1623L59.543 0.966686H66.6099L81.7012 25.2252L96.7992 0.966686H103.857L84.8427 30.1623L84.8382 42.234C94.5023 40.1358 104.605 38.7491 115.407 38.0919L131.081 5.43368e-05H134.223L150.021 38.3945C160.624 39.2414 170.564 40.8021 180.093 43.0854V6.04605H164.554V0.966686H202.059V6.04605H186.527V44.7544C201.849 49.0343 216.224 55.2587 230.739 63.4571V64.8415ZM255.867 0.966686H218.367V6.04605H233.904V51.8258H240.333V6.04605H255.867V0.966686ZM40.5897 51.8258L34.1598 51.8326V26.7361H6.42994V51.8258H0V0.966686H6.42994V21.6613H34.1598V0.966686H40.5897V51.8258Z" fill="#2C2B2B"/>
<path d="M272.834 4.92684C272.527 4.74616 272.03 4.65808 271.348 4.65808H270.3V7.20341H271.409C271.935 7.20341 272.319 7.14695 272.583 7.04532C273.06 6.84431 273.308 6.48295 273.308 5.94994C273.308 5.44178 273.145 5.10301 272.834 4.92684ZM271.51 3.82696C272.371 3.82696 273.008 3.91052 273.416 4.07313C274.137 4.37577 274.496 4.97201 274.496 5.84831C274.496 6.4694 274.27 6.93239 273.818 7.23051C273.574 7.38635 273.245 7.4925 272.804 7.56251C273.362 7.64833 273.755 7.87644 274.013 8.24684C274.257 8.61723 274.385 8.98085 274.385 9.33543V9.84359C274.385 10.0085 274.392 10.1824 274.403 10.3608C274.415 10.546 274.433 10.6657 274.464 10.7312L274.507 10.817H273.362C273.355 10.7922 273.349 10.7718 273.342 10.7493C273.335 10.7244 273.335 10.6928 273.328 10.6657L273.299 10.4398V9.88425C273.299 9.08022 273.071 8.54722 272.637 8.28749C272.371 8.14069 271.923 8.06164 271.266 8.06164H270.3V10.817H269.062V3.82696H271.51ZM267.766 3.4656C266.697 4.53838 266.169 5.83476 266.169 7.34795C266.169 8.87244 266.695 10.1733 267.757 11.2484C268.82 12.3279 270.11 12.8609 271.63 12.8609C273.148 12.8609 274.439 12.3279 275.51 11.2484C276.569 10.1733 277.102 8.87244 277.102 7.34795C277.102 5.83476 276.569 4.53838 275.51 3.4656C274.433 2.39733 273.141 1.8598 271.63 1.8598C270.119 1.8598 268.836 2.39733 267.766 3.4656ZM276.133 11.8537C274.896 13.1071 273.396 13.7305 271.63 13.7305C269.866 13.7305 268.366 13.1071 267.124 11.8537C265.896 10.6047 265.281 9.10507 265.281 7.34118C265.281 5.59084 265.902 4.0912 267.147 2.84903C268.384 1.60911 269.88 0.988024 271.63 0.988024C273.396 0.988024 274.896 1.60911 276.133 2.84903C277.382 4.07991 278.003 5.58407 278.003 7.34118C278.003 9.09829 277.382 10.6024 276.133 11.8537Z" fill="#2C2B2B"/>
</svg>
