<svg width="1031" height="959" viewBox="0 0 1031 959" fill="none" xmlns="http://www.w3.org/2000/svg">
<path fill-rule="evenodd" clip-rule="evenodd" d="M0 0H1031V958.728H0V0ZM984.904 912.608V46.1022H46.0992V912.608H984.904ZM36.3945 36.3945H994.61V922.315H36.3945V36.3945ZM155.54 126.992H201.735V299.642H203.335C212.894 285.833 222.454 273.068 231.479 261.395L340.875 126.992H398.229L268.648 278.941L408.323 485.059H353.613L235.7 309.204L201.71 348.521V485.059H155.516V126.992H155.54ZM514.37 452.125C482.49 452.125 452.236 441.495 431.517 428.754L419.871 467.561C438.989 480.301 476.692 490.397 511.217 490.397C595.647 490.397 636.552 442.588 636.552 387.327C636.552 334.735 605.74 305.515 545.207 282.144C495.835 263.02 474.048 246.541 474.048 213.074C474.048 188.635 492.633 159.415 541.495 159.415C573.885 159.415 597.782 170.021 609.477 176.403L622.214 138.689C606.274 129.661 579.708 121.167 543.072 121.167C473.49 121.167 427.295 162.618 427.295 218.389C427.295 268.868 463.397 299.132 521.819 319.858C570.149 338.448 589.267 357.572 589.267 391.039C589.267 427.152 561.632 452.125 514.37 452.125ZM676.294 126.992H722.488V446.277H875.433V485.059H676.27V126.992H676.294ZM306.012 684.708C317.73 684.708 326.877 682.403 331.462 680.121L328.891 670.268C323.893 672.696 316.153 674.273 308.584 674.273C285.122 674.273 271.537 659.129 271.537 635.515C271.537 610.178 286.554 595.738 309.142 595.738C317.148 595.738 323.869 597.461 328.6 599.742L331.609 589.574C328.333 587.85 320.739 585.277 308.73 585.277C278.839 585.277 258.387 605.736 258.387 635.928C258.387 667.549 278.839 684.708 306.012 684.708ZM368.755 652.942L358.736 683.278H345.852L378.606 586.857H393.623L426.523 683.278H413.226L402.94 652.942H368.755ZM390.931 615.445L400.36 643.186H371.351L380.788 615.3C382.633 609.428 384.209 603.578 385.641 597.851H385.933L386.192 598.861L386.192 598.862C387.538 604.125 388.924 609.539 390.931 615.445ZM467.838 586.125C457.842 586.125 449.981 586.998 443.965 587.993V683.273H456.411V644.638C459.274 645.341 462.718 645.486 466.431 645.486C478.585 645.486 489.309 641.919 495.884 634.906C500.737 629.882 503.308 623.037 503.308 614.301C503.308 605.71 500.154 598.721 494.866 594.134C489.14 588.989 480.139 586.125 467.838 586.125ZM466.697 635.464C462.549 635.464 459.128 635.172 456.411 634.469V596.973C458.545 596.414 462.694 595.978 468.129 595.978C481.861 595.978 490.862 602.118 490.862 614.86C490.862 628.159 481.716 635.464 466.697 635.464ZM534.29 586.833V683.256H521.844V586.833H534.29ZM549.988 597.438H579.297V683.278H591.888V597.438H621.342V586.857H549.988V597.438ZM641.211 652.942L631.191 683.278H618.309L651.062 586.857H666.079L698.979 683.278H685.683L675.397 652.942H641.211ZM663.387 615.445L672.815 643.186H643.807L653.245 615.3C655.089 609.428 656.666 603.578 658.097 597.851H658.389L658.657 598.897L658.657 598.898C660.002 604.151 661.385 609.553 663.387 615.445ZM728.869 586.833H716.446V683.256H770.064V672.82H728.869V586.833ZM201.641 740.896C207.658 739.901 215.518 739.028 225.514 739.028C237.815 739.028 246.816 741.891 252.542 747.036C257.831 751.623 260.985 758.612 260.985 767.204C260.985 775.941 258.414 782.785 253.561 787.808C246.986 794.822 236.262 798.39 224.107 798.39C220.395 798.39 216.95 798.244 214.086 797.54V836.177H201.641V740.896ZM214.086 787.372C216.805 788.075 220.226 788.367 224.374 788.367C239.392 788.367 248.538 781.062 248.538 767.762C248.538 755.02 239.538 748.88 225.806 748.88C220.371 748.88 216.222 749.318 214.086 749.875V787.372ZM278.016 836.17L288.036 805.834H322.221L332.507 836.17H345.803L312.904 739.749H297.886L265.133 836.17H278.016ZM319.641 796.077L310.211 768.337C308.209 762.444 306.826 757.041 305.481 751.788L305.213 750.743H304.922C303.491 756.47 301.914 762.319 300.07 768.192L290.631 796.077H319.641ZM363.247 741.041C369.532 739.756 378.556 739.028 387.121 739.028C400.416 739.028 409.005 741.455 414.998 746.89C419.85 751.187 422.567 757.764 422.567 765.189C422.567 777.931 414.561 786.352 404.395 789.798V790.235C411.819 792.807 416.259 799.676 418.564 809.699C421.718 823.145 423.999 832.439 425.988 836.152H413.105C411.529 833.434 409.393 825.135 406.676 813.121C403.812 799.822 398.669 794.822 387.363 794.385H375.645V836.152H363.199V741.041H363.247ZM375.693 784.945H388.431C401.727 784.945 410.169 777.64 410.169 766.646C410.169 754.195 401.168 748.76 387.995 748.613C381.977 748.613 377.707 749.196 375.693 749.755V784.945ZM434.867 750.33H464.176V836.17H476.767V750.33H506.221V739.749H434.867V750.33ZM521.992 836.147V739.725H535.579L566.463 788.506C573.621 799.816 579.201 809.96 583.762 819.839L584.054 819.692C582.913 806.83 582.622 795.083 582.622 780.061V739.725H594.34V836.147H581.748L551.154 787.221C544.434 776.494 538.004 765.475 533.128 755.039L532.691 755.185C533.395 767.344 533.686 778.92 533.686 794.963V836.171H521.992V836.147ZM632.915 790.958H670.375V780.644H632.915V750.161H672.534V739.725H620.469V836.147H674.669V825.711H632.915V790.958ZM693.716 741.041C700 739.756 709.025 739.028 717.59 739.028C730.885 739.028 739.474 741.455 745.466 746.89C750.319 751.187 753.036 757.764 753.036 765.189C753.036 777.931 745.029 786.352 734.865 789.798V790.235C742.288 792.807 746.728 799.676 749.033 809.699C752.187 823.145 754.468 832.439 756.457 836.152H743.574C741.997 833.434 739.863 825.135 737.145 813.121C734.282 799.822 729.138 794.822 717.832 794.385H706.114V836.152H693.668V741.041H693.716ZM706.163 784.945H718.901C732.196 784.945 740.638 777.64 740.638 766.646C740.638 754.195 731.637 748.76 718.464 748.613C712.446 748.613 708.176 749.196 706.163 749.755V784.945ZM796.486 827.286C787.897 827.286 779.745 824.423 774.165 821.001L771.035 831.413C776.178 834.835 786.344 837.553 795.636 837.553C818.37 837.553 829.384 824.666 829.384 809.789C829.384 795.64 821.087 787.753 804.783 781.466C791.488 776.322 785.616 771.88 785.616 762.877C785.616 756.3 790.638 748.436 803.788 748.436C812.498 748.436 818.927 751.3 822.081 753.023L825.502 742.854C821.207 740.427 814.075 738.146 804.201 738.146C785.47 738.146 773.025 749.31 773.025 764.333C773.025 777.924 782.753 786.078 798.475 791.66C811.503 796.66 816.646 801.828 816.646 810.832C816.646 820.564 809.223 827.286 796.486 827.286ZM853.625 807.586H843.387V803.896H868.328V807.586H858.041V837.582H853.65V807.586H853.625ZM902.137 821.673L902.195 822.801L903.045 837.605H907.29L905.179 803.92H899.624L893.631 820.229C892.127 824.499 890.937 828.189 890.089 831.586H889.943C889.093 828.068 887.953 824.379 886.546 820.229L880.796 803.92H875.24L872.887 837.605H877.035L877.934 823.164C878.249 818.117 878.492 812.462 878.589 808.264H878.686C879.632 812.268 880.991 816.612 882.592 821.369L888.051 837.411H891.35L897.294 821.054C898.992 816.419 900.399 812.22 901.54 808.264H901.686C901.641 812.132 901.905 817.215 902.137 821.673Z" fill="#2C2B2B"/>
</svg>
