<svg width="220" height="50" viewBox="0 0 220 50" fill="none" xmlns="http://www.w3.org/2000/svg">
<g clip-path="url(#clip0_557_9)">
<path d="M21.08 46.38H17.47V9.86C17.47 4.2 19.05 2.84 25.47 2.44V1.45H0V2.42C6.45 2.82 8 4.2 8 9.83V40.37C8 46.02 6.42 47.39 0 47.78V48.78H39.1V28.6H38.1C36.26 44.42 30.16 46.38 21.08 46.38ZM50.45 11.18C53.06 11.18 55.45 9 55.45 6.18C55.45 3.5 53.09 1.18 50.45 1.18C49.1183 1.17991 47.8403 1.70477 46.8931 2.64076C45.9459 3.57676 45.4058 4.84843 45.39 6.18C45.39 9 47.63 11.18 50.45 11.18ZM175.58 42.37V0H175.38L161.52 3.94V4.8C165.99 4.8 167.37 6.18 167.37 9.4V42.37C167.37 46.37 166.58 47.37 162.05 47.83V48.82H180.71V47.82C176.37 47.37 175.58 46.38 175.58 42.37ZM54.51 42.37V16.17H54.31L40.4 20.11V21.03C45.06 21.03 46.32 22.42 46.32 25.56V42.37C46.32 46.37 45.46 47.37 40.99 47.83V48.82H59.65V47.82C55.45 47.37 54.52 46.38 54.52 42.37H54.51Z" fill="#2C2B2B"/>
<path d="M145.972 15.6996C137.972 15.6996 132.642 20.4996 129.362 28.6996L127.972 32.1896C124.962 39.7896 121.922 43.1596 116.602 43.1596C110.422 43.1596 106.412 38.4296 106.412 29.4396C106.412 22.7896 109.162 17.2296 114.622 17.2296C119.352 17.2296 122.362 21.2296 123.622 26.9496H124.542V17.3396C121.654 16.2202 118.579 15.6602 115.482 15.6896C105.752 15.6896 98.3419 23.1696 98.3419 33.8096C98.3419 42.8796 104.322 49.3896 112.932 49.3896C120.412 49.3896 124.872 44.4596 127.642 37.3796L129.342 33.0396C130.002 43.5596 136.552 49.4796 145.972 49.4796C155.762 49.4796 162.652 42.6396 162.652 32.5996C162.652 22.4596 155.762 15.6996 145.972 15.6996ZM145.972 47.9596C141.372 47.9596 138.492 42.4996 138.492 32.5796C138.492 22.5896 141.372 17.1996 145.972 17.1996C150.502 17.1996 153.452 22.5996 153.452 32.5796C153.452 42.4996 150.502 47.9596 145.972 47.9596ZM214.942 42.3696V26.7996C214.942 19.4496 210.872 15.8796 205.612 15.8796C201.082 15.8796 197.932 17.9296 195.292 21.5596V16.1696H195.092L181.232 20.1096V21.0296C185.632 21.0296 187.092 22.2196 187.092 25.4996V42.3696C187.092 46.3696 186.232 47.3696 181.762 47.8296V48.8196H199.692V47.8196C196.292 47.3696 195.292 46.3796 195.292 42.3696V23.1196C197.402 21.3396 199.432 20.4396 201.542 20.4396C204.692 20.4396 206.742 22.5496 206.742 26.9496V42.3896C206.742 46.3896 205.812 47.3896 202.402 47.8496V48.8396H220.002V47.8496C215.862 47.3696 214.942 46.3796 214.942 42.3696ZM93.8819 42.3696V26.7996C93.8819 19.4496 89.8119 15.8796 84.5519 15.8796C80.0219 15.8796 76.8719 17.9296 74.2319 21.5596V16.1696H74.0319L60.1719 20.1096V21.0296C64.5719 21.0296 66.0219 22.2196 66.0219 25.4996V42.3696C66.0219 46.3696 65.1719 47.3696 60.7019 47.8296V48.8196H78.6319V47.8196C75.2219 47.3696 74.2319 46.3796 74.2319 42.3696V23.1196C76.3419 21.3396 78.3719 20.4396 80.4819 20.4396C83.6219 20.4396 85.6719 22.5496 85.6719 26.9496V42.3896C85.6719 46.3896 84.7519 47.3896 81.3419 47.8496V48.8396H98.9419V47.8496C94.8019 47.3696 93.8819 46.3796 93.8819 42.3696Z" fill="#2C2B2B"/>
</g>
<defs>
<clipPath id="clip0_557_9">
<rect width="220" height="50" fill="white"/>
</clipPath>
</defs>
</svg>
