<svg width="773" height="181" viewBox="0 0 773 181" fill="none" xmlns="http://www.w3.org/2000/svg">
<path d="M75.4 141.3C69.1 149.2 58.9 154.6 44.9 154.6C25.7 154.6 13.5 144.4 13.5 127.8C13.5 105.2 35.2 98.5 53.4 98.5H73.5V96C73.5 83.6 65.2 78 54.3 78C44.2 78 35.3 82.5 27.5 89.7L16.9 80.5C23 67.4 38.8 56.1 59.8 56.1C84.9 56.1 101.3 69.6 101.3 95.4V152.4H75.4V141.3ZM53.8 137.6C64.6 137.6 73.4 130.6 73.4 120.7V112.8H57.4C45.4 112.8 39.4 117.1 39.4 125.2C39.5 132.7 45.2 137.6 53.8 137.6Z" fill="white"/>
<path d="M166.3 78.5C155.7 78.5 149.2 86.8 149.2 97.2V152.5H121V58.3H147.4V70.3C153.9 61.5 163.9 56.1 176.1 56.1C190.1 56.1 200.3 61.1 205.7 71.7C212.3 62.2 223.3 56.1 237 56.1C258.4 56.1 270.9 67.8 270.9 93.3V152.4H242.7V97.2C242.7 84.4 236.6 78.5 227.1 78.5C216.5 78.5 210 86.8 210 97.2V152.5H181.8V97.2C181.9 84.4 175.8 78.5 166.3 78.5Z" fill="white"/>
<path d="M286.5 105.2C286.5 76.1 308.4 56.2 338.1 56.2C369.5 56.2 388 79.7 384.6 108.7H314.7C316.9 124 328.7 132.4 342.9 132.4C354.6 132.4 365 127.6 373.6 119.8L384.7 127.2C380.7 136.4 364.6 154.7 338.2 154.7C309.1 154.6 286.5 135 286.5 105.2ZM358.7 94.6C358 82.6 350.8 73.4 338 73.4C327.2 73.4 317.7 80.1 315 94.6H358.7Z" fill="white"/>
<path d="M447.602 78.5C436.602 78.5 429.802 86.6 429.802 97V152.5H401.602V58.3H428.002V70.5C434.702 61.7 444.902 56.1 457.502 56.1C479.202 56.1 492.202 67.6 492.202 93.1V152.4H464.002V97C463.902 84.2 457.502 78.5 447.602 78.5Z" fill="white"/>
<path d="M526.4 13.6C535.4 13.6 542.6 21.1 542.6 29.9C542.6 38.7 535.4 46.2 526.4 46.2C517.4 46.2 510 38.7 510 29.9C510 21.1 517.4 13.6 526.4 13.6ZM512.2 58.3H540.4V152.4H512.2V58.3Z" fill="white"/>
<path d="M568.502 122.3V78.8H554.102V65.4L558.402 63.8C566.302 60 573.302 52.8 578.902 40.1L580.202 34.3H596.702V58.4H624.902V78.9H596.702V121C596.702 130 602.502 135.2 610.402 135.2C614.702 135.2 620.602 134.1 624.602 133L626.802 148.3C620.902 151.7 609.702 154.6 598.802 154.6C580.002 154.6 568.502 141.7 568.502 122.3Z" fill="white"/>
<path d="M654.698 13.6C663.698 13.6 670.898 21.1 670.898 29.9C670.898 38.7 663.698 46.2 654.698 46.2C645.698 46.2 638.398 38.7 638.398 29.9C638.398 21.1 645.698 13.6 654.698 13.6ZM640.498 58.3H668.698V152.4H640.498V58.3Z" fill="white"/>
<path d="M725.903 163.3C716.903 152.5 710.303 148.3 701.803 148.3C694.103 148.3 688.903 152.9 686.703 152.9C683.803 152.9 681.703 149.2 681.703 143.2C681.703 133.5 687.203 123.5 696.803 119.4L733.303 81.4H709.203L702.503 90.7C699.603 94.8 697.503 96.5 695.303 96.5C691.203 96.5 688.503 90.2 688.503 81.7C688.503 62 697.103 48.3 712.403 48.3C719.903 48.3 741.203 49.8 749.403 50.9C750.103 46.8 751.803 44.4 754.303 44.4C759.503 44.4 764.603 53.5 764.603 63C764.603 70.8 761.703 76.9 755.203 83.4L722.303 118.5C744.403 119.8 758.403 129.1 758.403 143.2C758.403 155.6 746.803 172.9 738.403 172.9C734.803 172.8 731.903 170.6 725.903 163.3Z" fill="white"/>
</svg>
