<svg enable-background="new 0 0 772.9 180.8" viewBox="0 0 772.9 180.8" xmlns="http://www.w3.org/2000/svg"><g fill="#5c8ef1"><path d="m75.4 141.3c-6.3 7.9-16.5 13.3-30.5 13.3-19.2 0-31.4-10.2-31.4-26.8 0-22.6 21.7-29.3 39.9-29.3h20.1v-2.5c0-12.4-8.3-18-19.2-18-10.1 0-19 4.5-26.8 11.7l-10.6-9.2c6.1-13.1 21.9-24.4 42.9-24.4 25.1 0 41.5 13.5 41.5 39.3v57h-25.9zm-21.6-3.7c10.8 0 19.6-7 19.6-16.9v-7.9h-16c-12 0-18 4.3-18 12.4.1 7.5 5.8 12.4 14.4 12.4z"/><path d="m166.3 78.5c-10.6 0-17.1 8.3-17.1 18.7v55.3h-28.2v-94.2h26.4v12c6.5-8.8 16.5-14.2 28.7-14.2 14 0 24.2 5 29.6 15.6 6.6-9.5 17.6-15.6 31.3-15.6 21.4 0 33.9 11.7 33.9 37.2v59.1h-28.2v-55.2c0-12.8-6.1-18.7-15.6-18.7-10.6 0-17.1 8.3-17.1 18.7v55.3h-28.2v-55.3c.1-12.8-6-18.7-15.5-18.7z"/><path d="m286.5 105.2c0-29.1 21.9-49 51.6-49 31.4 0 49.9 23.5 46.5 52.5h-69.9c2.2 15.3 14 23.7 28.2 23.7 11.7 0 22.1-4.8 30.7-12.6l11.1 7.4c-4 9.2-20.1 27.5-46.5 27.5-29.1-.1-51.7-19.7-51.7-49.5zm72.2-10.6c-.7-12-7.9-21.2-20.7-21.2-10.8 0-20.3 6.7-23 21.2z"/><path d="m447.6 78.5c-11 0-17.8 8.1-17.8 18.5v55.5h-28.2v-94.2h26.4v12.2c6.7-8.8 16.9-14.4 29.5-14.4 21.7 0 34.7 11.5 34.7 37v59.3h-28.2v-55.4c-.1-12.8-6.5-18.5-16.4-18.5z"/><path d="m526.4 13.6c9 0 16.2 7.5 16.2 16.3s-7.2 16.3-16.2 16.3-16.4-7.5-16.4-16.3 7.4-16.3 16.4-16.3zm-14.2 44.7h28.2v94.1h-28.2z"/><path d="m568.5 122.3v-43.5h-14.4v-13.4l4.3-1.6c7.9-3.8 14.9-11 20.5-23.7l1.3-5.8h16.5v24.1h28.2v20.5h-28.2v42.1c0 9 5.8 14.2 13.7 14.2 4.3 0 10.2-1.1 14.2-2.2l2.2 15.3c-5.9 3.4-17.1 6.3-28 6.3-18.8-0-30.3-12.9-30.3-32.3z"/><path d="m654.7 13.6c9 0 16.2 7.5 16.2 16.3s-7.2 16.3-16.2 16.3-16.3-7.5-16.3-16.3 7.3-16.3 16.3-16.3zm-14.2 44.7h28.2v94.1h-28.2z"/><path d="m725.9 163.3c-9-10.8-15.6-15-24.1-15-7.7 0-12.9 4.6-15.1 4.6-2.9 0-5-3.7-5-9.7 0-9.7 5.5-19.7 15.1-23.8l36.5-38h-24.1l-6.7 9.3c-2.9 4.1-5 5.8-7.2 5.8-4.1 0-6.8-6.3-6.8-14.8 0-19.7 8.6-33.4 23.9-33.4 7.5 0 28.8 1.5 37 2.6.7-4.1 2.4-6.5 4.9-6.5 5.2 0 10.3 9.1 10.3 18.6 0 7.8-2.9 13.9-9.4 20.4l-32.9 35.1c22.1 1.3 36.1 10.6 36.1 24.7 0 12.4-11.6 29.7-20 29.7-3.6-.1-6.5-2.3-12.5-9.6z"/></g></svg>