<svg width="173" height="32" viewBox="0 0 173 32" fill="none" xmlns="http://www.w3.org/2000/svg">
<g clip-path="url(#clip0_467_7)">
<path d="M14.9141 6.84854C15.8627 6.84854 16.678 6.50831 17.3598 5.82606C18.0121 5.17378 18.3386 4.37326 18.3386 3.42413C18.3386 2.47501 18.0047 1.66756 17.3377 1.00052C16.6706 0.333476 15.8627 0 14.9141 0C13.9654 0 13.1496 0.326365 12.4683 0.978196C11.786 1.66054 11.4453 2.47582 11.4453 3.42396C11.4453 4.37209 11.786 5.18098 12.4683 5.84811C13.1497 6.51515 13.9649 6.84854 14.9141 6.84854Z" fill="#141E23"/>
<path d="M5.35159 6.84854C6.30026 6.84854 7.115 6.50831 7.79734 5.82606C8.44918 5.17378 8.77608 4.37326 8.77608 3.42413C8.77608 2.47501 8.44224 1.66756 7.7752 1.00052C7.10816 0.333296 6.30026 0 5.35159 0C4.40291 0 3.58709 0.326365 2.90583 0.978196C2.22348 1.66054 1.88281 2.47582 1.88281 3.42396C1.88281 4.37209 2.22348 5.18098 2.90583 5.84811C3.58718 6.51515 4.40246 6.84854 5.35159 6.84854Z" fill="#141E23"/>
<path d="M114.337 9.14163V23.5948C114.337 25.0476 114.693 26.1149 115.404 26.7968C116.115 27.4791 117.033 27.8198 118.16 27.8198C119.435 27.8198 120.785 27.3747 122.208 26.4856C122.149 25.8338 122.118 25.3735 122.118 25.1066V16.1678C122.118 15.4864 122.058 14.7303 121.94 13.8997C121.821 13.0702 121.697 12.3731 121.562 11.8098C121.429 11.2466 121.295 10.7056 121.162 10.1867C121.028 9.66826 120.963 9.37934 120.963 9.31921V9.14145H128.567V24.5285C128.567 25.0922 128.603 25.6923 128.677 26.3294C128.751 26.9674 128.848 27.5681 128.966 28.1308C129.085 28.6945 129.189 29.1759 129.278 29.5762C129.367 29.9765 129.472 30.3698 129.59 30.7548L129.768 31.3771V31.5553H123.587C123.023 30.3698 122.623 29.0647 122.386 27.6414C120.548 30.5175 118.146 31.9555 115.181 31.9555C113.076 31.9555 111.327 31.3106 109.934 30.0207C108.54 28.7314 107.843 26.8857 107.843 24.4842V16.1677C107.843 15.4863 107.784 14.7302 107.666 13.8996C107.547 13.0701 107.42 12.373 107.287 11.8097C107.153 11.2466 107.021 10.7055 106.887 10.1866C106.754 9.66817 106.688 9.37925 106.688 9.31912V9.14136L114.337 9.14163Z" fill="#141E23"/>
<path d="M30.7169 9.1416V9.27499C30.2723 10.3423 30.0497 11.3949 30.0497 12.4322C30.0497 13.3819 30.2422 14.3158 30.6282 15.234L35.0304 25.4626L39.1668 15.2787C39.4927 14.4782 39.6557 13.6329 39.6557 12.7438C39.6557 11.647 39.4036 10.491 38.9 9.27499V9.1416H44.4144V9.31936L43.8359 10.2976C43.4504 10.9504 43.0202 11.7209 42.5466 12.6104C42.072 13.4995 41.6717 14.3301 41.3458 15.1006L34.77 31.2133C34.6859 31.4201 34.4845 31.5555 34.2615 31.5555H30.9887C30.7701 31.5555 30.5717 31.425 30.4851 31.2241L23.735 15.6342C23.2014 14.4192 22.5485 13.1594 21.7781 11.8543C21.0072 10.5502 20.4587 9.69055 20.1328 9.27499V9.1416H30.7169Z" fill="#141E23"/>
<path d="M58.2125 17.1505C58.343 17.1229 58.4354 17.0038 58.4305 16.8704C58.2744 12.5016 56.9871 10.6535 54.5689 10.6535C53.1156 10.6535 52.063 11.3801 51.4113 12.8329C50.759 14.2857 50.4331 16.0501 50.4331 18.1247V18.4594C50.4331 18.6317 50.5902 18.7617 50.76 18.7287L58.2125 17.1505ZM46.5197 11.9433C48.5942 9.89724 51.3226 8.87476 54.7023 8.87476C58.1115 8.87476 60.6616 9.93522 62.3512 12.0546C63.9078 14.0076 64.7479 16.3692 64.8704 19.1394C64.8881 19.5308 64.5745 19.8592 64.1831 19.8592H50.9523C50.7229 19.8592 50.5413 20.0601 50.5694 20.288C50.8426 22.5172 51.5161 24.2944 52.5898 25.6182C53.731 27.0268 55.3694 27.7307 57.504 27.7307C59.7864 27.7307 62.0993 26.8711 64.4417 25.1515L64.6194 25.2401C63.937 27.0493 62.7216 28.6277 60.9728 29.9766C59.2232 31.326 57.1038 32 54.6132 32C51.5894 32 48.9654 30.9849 46.7422 28.9536C44.5185 26.9233 43.4062 24.0694 43.4062 20.3929C43.4062 16.8354 44.4441 14.0188 46.5197 11.9433Z" fill="#141E23"/>
<path d="M66.3984 9.31954V9.14178H74.0031V13.0103C75.7818 10.2534 78.1833 8.875 81.2075 8.875C83.2821 8.875 85.0165 9.51945 86.4108 10.8092C87.804 12.0991 88.5006 13.9447 88.5006 16.3457V24.5289C88.5006 25.2112 88.5597 25.9669 88.6784 26.797C88.797 27.627 88.923 28.3241 89.057 28.8868C89.1899 29.4506 89.3238 29.992 89.4567 30.5099C89.5906 31.0293 89.657 31.3183 89.657 31.3774V31.5552H80.8517V31.3774C81.6221 28.2941 82.0081 26.0117 82.0081 24.5289V17.2353C82.0081 15.783 81.6448 14.7083 80.9181 14.0112C80.1915 13.3151 79.2654 12.9513 78.139 12.9218H78.0056C76.7005 12.9218 75.3664 13.4263 74.0032 14.4336V24.5289C74.0032 25.0921 74.0397 25.6927 74.1145 26.3297C74.1878 26.9678 74.2843 27.5679 74.4035 28.1311C74.5216 28.6943 74.6255 29.1758 74.7146 29.576C74.8037 29.9763 74.9072 30.3696 75.0258 30.7546L75.204 31.3773V31.5551H66.3986V31.3773C66.3986 31.3183 66.465 31.0293 66.5984 30.5098C66.7318 29.9919 66.8653 29.4504 66.9987 28.8867C67.1321 28.324 67.2581 27.6269 67.3768 26.7969C67.495 25.9668 67.5545 25.2111 67.5545 24.5288V16.168C67.5545 15.4861 67.4949 14.7305 67.3768 13.8999C67.2582 13.0704 67.1322 12.3733 66.9987 11.81C66.8652 11.2467 66.7318 10.7052 66.5984 10.1864C66.465 9.66796 66.3984 9.37913 66.3984 9.31954Z" fill="#141E23"/>
<path d="M138.829 9.14163V23.5948C138.829 25.0476 139.185 26.1149 139.897 26.7968C140.608 27.4791 141.527 27.8198 142.654 27.8198C143.928 27.8198 145.278 27.3747 146.701 26.4856C146.641 25.8338 146.612 25.3735 146.612 25.1066V16.1678C146.612 15.4864 146.552 14.7303 146.434 13.8997C146.315 13.0702 146.189 12.3731 146.056 11.8098C145.922 11.2466 145.789 10.7056 145.656 10.1867C145.522 9.66826 145.455 9.37934 145.455 9.31921V9.14145H153.06V24.5285C153.06 25.0922 153.097 25.6923 153.171 26.3294C153.245 26.9674 153.342 27.5681 153.46 28.1308C153.579 28.6945 153.683 29.1759 153.772 29.5762C153.861 29.9765 153.964 30.3698 154.083 30.7548L154.261 31.3771V31.5553H148.079C147.516 30.3698 147.115 29.0647 146.879 27.6414C145.04 30.5175 142.639 31.9555 139.674 31.9555C137.569 31.9555 135.82 31.3106 134.427 30.0207C133.033 28.7314 132.336 26.8857 132.336 24.4842V16.1677C132.336 15.4863 132.277 14.7302 132.159 13.8996C132.04 13.0701 131.914 12.373 131.78 11.8097C131.647 11.2465 131.514 10.7055 131.38 10.1866C131.247 9.66817 131.18 9.37925 131.18 9.31912V9.14136L138.829 9.14163Z" fill="#141E23"/>
<path d="M13.697 27.0189C12.8369 27.9385 11.8439 28.3979 10.7176 28.3979C9.53111 28.3979 8.58298 27.9829 7.87102 27.1524C7.12963 26.3524 6.75943 25.3146 6.75943 24.0395C6.75943 22.6162 7.22666 21.5346 8.16057 20.7932C9.09449 20.0523 10.2283 19.6816 11.5625 19.6816C11.9474 19.6816 12.3477 19.7111 12.7632 19.7702C13 19.8003 13.3116 19.815 13.6971 19.815L13.697 27.0189ZM22.9917 28.1753C22.5467 28.3831 22.1469 28.4865 21.791 28.4865C20.7237 28.4865 20.19 27.4792 20.19 25.4627V16.2571C20.19 14.0043 19.4929 12.2103 18.0997 10.8762C16.7059 9.54203 14.5984 8.7893 11.7848 8.6731C11.2492 8.65096 10.6663 8.63224 10.0396 8.62585C6.88634 8.68048 3.83943 9.17183 0.954974 10.0378C0.861907 10.0658 0.807273 10.1628 0.830944 10.2573L2.204 15.7667C2.27241 16.0419 2.61407 16.1369 2.81299 15.9356C3.45051 15.2901 4.4972 14.4044 6.13704 13.2776C8.50845 11.647 10.2572 10.8313 11.3845 10.8313C12.9255 10.8313 13.6969 12.5071 13.6969 15.8567V18.4807C12.6586 18.0957 11.4583 17.8731 10.0946 17.8136C9.67917 17.7841 9.27891 17.7688 8.89386 17.7688C6.64062 17.7688 4.66938 18.3325 2.97932 19.4589C0.992507 20.7931 0 22.6162 0 24.929C0 26.7969 0.637069 28.4353 1.91211 29.8433C3.1867 31.2518 4.93634 31.9553 7.15961 31.9553C10.1539 31.9553 12.4071 30.7703 13.9195 28.3978C14.5713 30.7102 16.1275 31.8666 18.5891 31.8666C19.8341 31.8666 20.8571 31.5329 21.6577 30.8657C22.4582 30.1987 22.9322 29.347 23.0804 28.3087L22.9917 28.1753Z" fill="#141E23"/>
<path d="M172.806 9.26214C172.829 9.16907 172.775 9.07258 172.684 9.04351C171.767 8.75351 170.903 8.60779 170.092 8.60779C169.025 8.60779 167.891 8.94891 166.69 9.63081C165.489 10.3132 164.429 11.5878 163.51 13.4556V9.14144H155.906V9.3192C155.906 9.37924 155.972 9.66825 156.106 10.1867C156.239 10.7056 156.373 11.2472 156.506 11.8098C156.639 12.3735 156.765 13.0706 156.884 13.9001C157.002 14.7302 157.062 15.4863 157.062 16.1682V24.5286C157.062 25.211 157.002 25.9671 156.884 26.7967C156.765 27.6272 156.64 28.3239 156.506 28.887C156.373 29.4507 156.246 29.9844 156.128 30.488C155.979 31.0216 155.906 31.3185 155.906 31.3776V31.5554H164.711V31.3776L164.533 30.7549C164.414 30.3699 164.311 29.9765 164.221 29.5763C164.133 29.176 164.029 28.6946 163.911 28.1309C163.792 27.5682 163.695 26.9675 163.621 26.33C163.547 25.693 163.51 25.0923 163.51 24.5286V14.6564C164.488 13.9746 165.504 13.6334 166.556 13.6334C167.609 13.6334 168.542 13.8485 169.358 14.2778C169.851 14.5382 170.324 14.8577 170.779 15.2329C170.986 15.4042 171.299 15.3043 171.364 15.0439L172.806 9.26214Z" fill="#141E23"/>
<path d="M105.641 26.8223C104.531 27.3984 103.448 27.6863 102.393 27.6863C100.348 27.6863 99.3252 26.5599 99.3252 24.3061V11.3727C99.3252 11.2211 99.4478 11.0985 99.5999 11.0985H104.851L105.338 9.14155H98.4225C98.6115 8.70582 98.7705 8.25489 98.9019 7.79261C98.9517 7.56814 99.0072 7.30865 99.0698 7.01036C99.1436 6.66033 99.2037 6.28671 99.25 5.88987C99.2953 5.50041 99.3174 5.13372 99.3184 4.78854L99.3188 1.82092H98.955C97.7494 3.42881 96.4354 4.8402 95.0116 6.0508C93.5288 7.31108 91.7205 8.40106 89.5859 9.31922V11.0984H92.558C92.7096 11.0984 92.8322 11.221 92.8322 11.3727V24.9289C92.8322 27.1526 93.3659 28.887 94.4332 30.1321C95.5005 31.3771 96.9681 31.9999 98.8359 31.9999C102.053 31.9999 104.347 30.2975 105.718 26.8917C105.737 26.8445 105.686 26.7987 105.641 26.8223Z" fill="#141E23"/>
</g>
<defs>
<clipPath id="clip0_467_7">
<rect width="173" height="32" fill="white"/>
</clipPath>
</defs>
</svg>
