<svg width="245" height="81" viewBox="0 0 245 81" fill="none" xmlns="http://www.w3.org/2000/svg">
<path d="M139.292 38.4855C140.295 37.3177 141.589 36.0529 143.137 35.8066C143.191 35.798 143.234 35.8567 143.208 35.9053C142.503 37.2316 140.563 38.2657 139.063 38.8206C139.133 38.6794 139.21 38.5682 139.292 38.4855ZM131.688 35.2242C135.267 27.3641 139.385 18.5806 144.583 11.8469H144.653C141.893 20.9186 137.424 27.7992 131.723 35.5063C131.592 35.4957 131.67 35.3086 131.688 35.2242ZM130.97 18.6862C131.97 16.1779 133.005 14.1158 136.215 9.65863C137.771 7.49775 139.006 7.0122 139.006 7.0122C139.099 7.33841 138.046 9.35777 137.89 9.65863C135.964 13.361 132.686 20.0789 130.647 23.6589C129.728 25.2153 128.799 26.7995 127.845 28.3814C128.644 24.9979 129.237 23.0299 130.97 18.6862ZM112.454 39.2085C111.21 40.6627 109.898 42.4951 108.092 43.1945C108.049 43.2113 108 43.1793 107.998 43.1327C107.906 41.0547 109.243 39.118 110.65 37.8002C110.652 37.7988 110.653 37.7974 110.655 37.796C111.09 37.4982 111.814 36.8301 112.278 37.3924C112.56 37.8927 112.867 38.7337 112.454 39.2085ZM61.5454 14.8384L59.519 15.2067C59.4968 15.2099 59.4862 15.1812 59.5054 15.1699C61.4358 14.0358 65.8605 10.7938 67.2721 8.9622C68.6677 7.15148 66.5823 11.4503 66.5743 11.4693C65.1787 14.8122 65.7368 13.9763 61.5454 14.8384ZM61.5766 25.6153L64.3413 19.2693L65.7589 16.2808C65.765 16.2676 65.7766 16.258 65.7908 16.2548C68.4372 15.6446 77.1713 15.0497 78.7161 17.4586C83.1513 24.3751 64.8739 25.9337 61.6154 25.6819C61.5829 25.6794 61.5637 25.6453 61.5766 25.6153ZM48.6841 51.7406C48.9537 50.5486 49.1637 49.2571 49.5271 48.1387C49.5504 48.122 49.5669 48.1101 49.5901 48.0934H50.4255L48.8123 51.7821C48.7794 51.8576 48.6659 51.8208 48.6841 51.7406ZM47.3166 46.7891C36.5914 46.8288 33.7918 46.4207 28.1952 46.2908C16.193 46.0122 14.0996 46.2908 8.3776 45.3158C8.35415 45.3117 8.33056 45.3094 8.30726 45.3063C5.627 44.9422 5.38821 42.3547 7.54024 40.7193C8.46468 40.0168 10.3979 38.655 11.1688 38.2122C17.4984 34.9505 23.2538 32.9199 29.749 30.739C32.0761 29.9576 36.3801 28.9964 42.3872 30.4168C43.9105 30.777 45.2775 31.6187 46.2881 32.812C46.8159 33.4351 47.2423 34.1393 47.5302 34.903C48.763 38.1717 48.7561 39.6461 48.342 43.1176C48.3414 43.1205 48.3409 43.1233 48.3403 43.1262C48.1105 44.0345 48.398 46.8052 47.3166 46.7891ZM94.1274 48.3051C81.591 56.3595 61.5783 58.3979 46.7705 59.6512C46.7243 59.6551 46.6885 59.6129 46.7008 59.5683C47.0319 58.3727 51.1964 49.1489 51.5424 48.1359C51.565 48.12 51.5803 48.1091 51.603 48.0933C53.1872 48.0935 94.4455 48.0934 94.4455 48.0934L94.1274 48.3051ZM98.8276 43.0802C98.8263 43.0847 98.825 43.0892 98.8238 43.0935C98.2844 44.5404 97.4202 45.7321 96.231 46.6684C96.2164 46.6735 96.2026 46.6781 96.1879 46.6833L52.188 46.7188C52.1733 46.7188 52.1636 46.7038 52.1694 46.6904C54.8194 40.6607 57.4056 34.6294 60.1965 28.6976C60.214 28.6841 60.2285 28.6725 60.2459 28.659C62.341 28.2506 64.5752 28.6832 66.3206 28.6481C66.3223 28.6481 66.3248 28.6483 66.3263 28.6483C75.5388 29.2819 85.8518 30.9117 93.7033 35.7528C96.1712 37.3107 99.5015 39.6967 98.8276 43.0802ZM130.074 49.0765C129.775 49.4081 129.013 50.1728 128.679 50.4693C127.423 51.5836 126.92 52.1686 126.585 51.7229C126.167 51.1658 126.296 50.3812 126.306 50.3301C126.585 48.9372 126.512 49.398 126.862 48.1455C126.887 48.1263 126.904 48.113 126.929 48.0938C127.987 48.0938 130.009 48.1015 131.051 48.1015C131.026 48.1302 130.426 48.687 130.074 49.0765ZM161.755 44.6193C161.639 44.9836 161.336 45.3158 160.778 45.4551C160.289 45.5769 160.171 45.6314 159.801 45.5943C159.103 45.4551 159.117 45.2078 159.242 45.0372C159.368 44.8666 159.898 44.4496 160.08 44.3408C160.46 44.113 161.574 43.7093 161.735 43.6513C161.745 43.6477 161.756 43.6544 161.757 43.665C161.77 43.7831 161.832 44.3767 161.755 44.6193ZM157.009 46.6854C154.333 46.6851 150.876 46.6845 148.035 46.6844C148.017 46.6927 147.997 46.6958 147.977 46.6964C147.146 46.7221 146.315 46.7402 145.485 46.6844C145.452 46.6822 145.419 46.6872 145.386 46.6844C145.337 46.709 145.283 46.6844 145.223 46.6844C145.151 46.6844 145.079 46.6844 145.007 46.6844C142.523 46.6843 137.285 46.7088 134.68 46.7086C134.624 46.7086 134.649 46.6157 134.68 46.5693C134.931 46.187 134.959 46.1515 135.517 45.4551L136.494 44.0622C136.913 44.8979 137.644 45.3804 138.029 45.5943C139.285 46.2908 141.937 46.3458 145.007 44.5351C145.262 44.3748 145.502 44.2162 145.724 44.0669C145.775 44.0328 145.84 44.0828 145.82 44.1408C145.716 44.4516 145.63 44.6114 145.566 44.74C145.381 45.1124 145.438 45.5631 145.714 45.8744C145.752 45.9169 145.795 45.9628 145.845 46.0122C146.065 46.2324 146.689 46.2908 146.822 46.2908C147.659 46.2908 147.574 46.0569 148.078 45.1765C149.752 42.2515 149.613 42.8086 150.311 41.8336C150.322 41.8203 151.694 40.3149 151.706 40.3015C152.823 39.0481 153.241 38.7693 154.437 37.6935C154.484 37.6512 154.556 37.6961 154.54 37.7573C153.807 40.486 154.845 41.7943 156.591 41.9705V41.9729C157.568 42.1122 158.126 42.1121 160.229 41.4773C160.34 41.4438 160.456 41.4401 160.508 41.5443C160.773 42.0842 160.917 42.2515 161.336 42.6693C161.315 42.8315 160.498 42.9479 159.94 43.0872C158.783 43.2315 156.126 44.124 157.856 46.6855C157.575 46.6855 157.292 46.6854 157.009 46.6854ZM244.307 46.7639C244.305 46.7577 244.302 46.7508 244.3 46.7444C243.816 45.775 242.791 46.1029 241.903 46.1543C241.901 46.1543 241.9 46.1543 241.898 46.1543C240.873 46.1306 239.854 46.3274 238.796 46.2603C238.793 46.2603 238.791 46.2603 238.789 46.2603C212.225 47.1659 220.151 46.5108 162.68 46.6858C162.66 46.6858 162.651 46.6602 162.666 46.6475C165.668 44.197 161.74 43.3627 166.363 41.857C166.853 41.5278 167.644 41.3871 168.082 41.0066C168.661 40.4814 168.21 39.3575 167.393 39.4197C166.82 39.3539 163.29 42.2515 163.15 41.8336C161.72 40.292 162.119 38.1529 163.429 36.8193C163.995 36.2437 164.481 36.1421 165.383 36.5408C166.623 37.0889 167.222 35.5569 167.058 35.1479C166.779 34.4515 166.081 34.1729 165.383 34.1729C164.964 34.1729 164.093 34.3265 163.848 34.4515L163.29 34.7301C163.252 34.7539 162.63 35.1241 162.592 35.1479C161.615 35.8443 161.336 36.4015 160.778 37.9336C160.773 37.9457 160.628 38.3827 160.327 39.2837C160.318 39.3095 160.291 39.3442 160.267 39.3577C159.103 40.0229 158.266 40.0229 157.568 39.8836C157.135 39.7973 157.009 39.7443 156.591 39.5186C155.639 38.9362 156.934 37.608 156.805 36.2998C156.802 36.2881 156.798 36.2764 156.795 36.2648C155.779 34.2742 154.51 34.9997 153.102 35.9836C152.533 36.3807 150.524 38.4487 150.729 38.0729C151.567 36.5408 152.933 35.1787 152.984 34.795C152.986 34.775 152.987 34.7551 152.989 34.7352C152.992 33.519 151.008 32.7078 150.391 33.9899C148.916 37.792 147.932 40.3058 145.007 42.3344C144.287 42.8337 142.774 43.7836 140.96 44.0622C139.029 44.3587 137.75 43.5049 138.21 41.5847C138.226 41.576 138.241 41.5682 138.257 41.5594C140.327 41.3069 143.927 38.7454 145.314 37.2008C145.316 37.1995 145.317 37.1979 145.319 37.1965C147.118 35.8228 146.123 33.0216 143.84 33.249C143.835 33.2501 143.829 33.2513 143.824 33.2524C140.861 34.1744 138.805 36.6592 137.12 39.2433C135.742 41.5021 133.94 44.0775 132.01 46.6838H131.267C129.971 46.6837 128.662 46.6837 127.337 46.6837C127.289 46.6837 127.254 46.637 127.268 46.5909C127.882 44.6519 128.542 42.6476 129.324 40.8348C129.34 40.7961 129.388 40.7845 129.423 40.8076C131.827 42.3736 137.447 30.7702 138.893 28.7385C138.894 28.737 138.895 28.7356 138.896 28.7341C142.293 22.7624 146.021 16.2553 147.866 9.63579C147.866 9.6291 147.867 9.62269 147.868 9.61601C147.849 8.27845 147.125 6.8984 145.536 7.5809C144.77 7.70849 144.63 7.99305 144.36 8.28249C144.062 8.68098 143.767 9.07669 143.47 9.47519C137.423 19.5777 132.59 30.3141 127.801 41.3238C127.074 43.0517 126.383 44.824 125.728 46.6408C125.705 46.6565 125.689 46.668 125.667 46.6837C125.416 46.6837 125.163 46.6837 124.911 46.6837C124.696 46.6837 122.391 46.6836 122.176 46.6836C122.127 46.6836 122.092 46.634 122.11 46.588C125.016 38.996 128.276 32.0406 131.671 24.8225C133.75 20.8174 135.95 16.9665 138.012 12.9771C138.027 12.9541 138.043 12.931 138.059 12.908L139.548 10.4967C140.388 9.05106 140.606 8.4559 141.089 6.85634C141.379 5.89791 141.454 4.85829 140.96 4.36577C140.402 3.80863 139.553 4.18317 139.021 4.44405C138.489 4.70493 138.431 5.20984 138.008 5.60541C134.122 9.24063 130.493 14.8122 128.679 20.2443C128.018 22.2233 127.423 24.2836 126.585 28.3229C126.218 30.0932 126.2 29.8904 125.819 31.6555C123.582 35.1628 120.424 38.6234 117.619 41.5551C117.497 41.6825 116.258 42.9072 115.281 43.2265C114.975 43.3265 114.164 43.3658 114.862 41.9729C115.924 39.8527 117.254 37.597 117.717 35.3018C117.718 35.2976 117.718 35.2936 117.718 35.2894C117.757 34.4144 116.82 33.826 116.065 33.7786C116.06 33.7787 116.055 33.7789 116.051 33.779C115.072 33.8974 114.484 35.3699 114.127 36.2058C114.107 36.2523 114.043 36.2552 114.017 36.2119C110.491 30.3433 105.064 40.1414 105.035 43.8978C104.941 45.7056 107.012 46.8513 108.462 45.8017C109.704 45.0639 110.539 43.6872 111.552 42.7049C111.603 42.656 111.669 42.7025 111.663 42.7724C111.513 44.8978 111.792 46.0122 113.443 46.2232C114.729 46.3877 115.979 45.3156 117.653 44.1399C119.747 42.1121 122.05 39.8771 123.863 37.3762C124.771 36.1228 125.092 36.1336 124.911 36.5408C123.564 39.5629 121.705 43.9441 120.437 46.6473C120.416 46.6606 120.4 46.6705 120.379 46.6837C119.707 46.6837 118.403 46.6836 117.723 46.6836C113.995 46.6834 107.735 46.6833 103.279 46.6833C103.232 46.6833 103.185 46.6833 103.139 46.6833C102.166 46.6833 101.227 46.6833 100.346 46.6833C100.288 46.6833 100.255 46.6168 100.29 46.5705C107.681 36.7188 91.2944 31.1901 83.6879 29.5652C77.3442 28.0457 71.1046 27.3267 64.1687 27.1851C65.3183 27.2085 82.9029 25.6765 82.3446 18.8515C82.0075 14.7282 75.7853 13.4193 69.2939 14.0084C68.8946 14.0446 68.4921 13.9901 68.0929 14.0259C67.5685 14.0729 67.1755 13.8694 67.4117 13.2801C67.7382 12.4651 67.511 12.8924 67.9134 12.1999C69.3908 9.3685 70.7705 6.35547 72.7533 4.01965C73.9811 2.56202 74.8338 0.476357 72.2346 0.00181078C72.2275 0.00111367 72.2202 0.000697109 72.2131 0C71.3527 0.00431867 70.389 0.689742 70.1215 1.44551L69.0082 4.01477C69.0085 4.01812 69.0078 4.02104 69.0061 4.02396C68.7288 4.52456 68.415 5.12293 68.0192 5.57101C65.0768 8.94883 60.9804 11.9917 56.7847 14.3506C55.3333 15.0911 53.5087 15.8899 52.0179 16.6062C52.0161 16.6069 52.0145 16.6076 52.0127 16.6083C51.3262 16.8412 50.517 17.182 50.7401 18.0739C50.7434 18.0825 50.747 18.0917 50.7504 18.1003C51.5784 19.6054 55.2022 17.3923 58.3402 17.0408L63.2249 16.2051C63.2374 16.2026 64.2062 16.0538 64.2018 16.0658C63.9049 16.8544 60.0349 25.7041 60.0349 25.7041L60.0145 25.751C59.7592 25.7496 59.4901 25.7698 59.332 25.7404C58.1803 25.6759 57.0005 25.4921 55.8417 25.4393C55.5263 25.4249 55.2158 25.361 54.9005 25.3437C50.8038 25.1193 49.9666 28.0443 52.1996 29.2979C54.4339 30.502 56.4655 29.6546 58.6282 28.9324L58.5108 29.2015L51.0107 46.7083C50.9854 46.7242 50.968 46.7352 50.9427 46.7511C50.6251 46.737 50.0831 46.7827 49.7856 46.7044C49.7642 46.6717 49.7511 46.6519 49.7298 46.6192C50.4718 42.1108 50.6636 41.2595 50.3853 35.9836C50.3558 35.4243 50.3804 35.9317 50.2457 34.7301C50.239 34.6704 49.9666 33.7551 49.5479 32.7801L48.8501 31.6656C48.0128 30.6906 47.5871 30.2575 46.6172 29.7158C45.9598 29.3488 44.4843 28.6523 43.826 28.4622C38.5227 26.9301 35.3126 27.6263 29.8901 29.1168C18.4064 32.2733 -21.7656 47.9703 15.4952 48.1015C30.3178 48.6022 32.691 48.0232 47.1626 48.1256C47.3898 48.1273 47.5613 48.3335 47.5183 48.5561C46.846 52.0381 45.7897 55.8573 44.7729 59.4825C44.6887 59.9728 44.3006 59.737 43.713 59.7997C41.4315 59.8305 39.4645 60.045 37.2588 59.9062C37.2517 59.9059 37.2447 59.9058 37.2376 59.9055C36.4238 59.8995 36.15 59.9408 34.7554 59.9078C34.745 59.9068 34.7347 59.9058 34.7244 59.9048C33.2954 59.8402 31.8952 60.2381 31.808 61.9405C31.8083 61.9472 31.8085 61.9543 31.8088 61.9611C32.1616 64.6914 35.2574 63.3445 37.1032 63.2377C37.1049 63.2375 37.1078 63.2372 37.1095 63.2371C39.3858 62.9024 41.4483 62.7074 43.7082 62.3557C43.7594 62.3478 43.8019 62.396 43.7872 62.4455C41.756 69.237 39.0704 74.7395 37.6745 79.2894C37.6736 79.2951 37.6727 79.3005 37.6718 79.3062C37.6536 80.0433 38.3918 80.6085 39.0498 80.6028C40.7103 80.5077 40.8251 77.419 41.5536 76.1684C41.556 76.1628 41.5582 76.1575 41.5606 76.152C43.0041 71.1009 44.5184 67.0935 45.8905 62.1397C45.9131 62.12 45.9301 62.105 45.9527 62.0854C47.9881 61.8197 50.0305 61.648 52.0509 61.2807C62.0153 60.0578 71.6501 58.5266 81.409 55.9214C98.4457 51.0435 95.4742 48.7274 103.279 48.1119C106.036 47.9076 111.188 47.9012 117.723 48.0575C118.013 48.0644 118.935 48.0715 119.236 48.0791C119.516 48.0862 119.684 48.3927 119.539 48.6317C119.05 49.4342 118.27 50.2757 118.918 51.0908C119.193 51.4306 119.612 51.5159 120.001 51.4111C120.009 51.408 120.017 51.4049 120.025 51.4019C121.944 50.3862 120.106 48.13 122.521 48.0225C123.195 48.0309 124.874 48.0494 125.114 48.0802C125.164 48.0866 125.194 48.1392 125.173 48.1848C123.807 51.1553 124.912 55.4999 127.981 53.3943C130.214 51.8622 132.586 49.0765 132.586 49.0765V49.072C132.909 48.7397 133.017 48.5985 133.375 48.1257C133.396 48.1144 133.414 48.1052 133.435 48.094C136.396 48.0848 142.202 48.0873 145.007 48.0926C148.899 48.0998 153.352 48.1122 157.009 48.1048C157.901 48.103 158.786 48.1001 159.666 48.0956C210.95 48.0973 227.511 48.1175 233.565 48.1289C235.725 48.219 238.399 48.2133 240.559 48.2702C241.878 48.3359 244.972 48.919 244.307 46.7639Z" fill="white"/>
</svg>
