<svg width="815" height="125" viewBox="0 0 815 125" fill="none" xmlns="http://www.w3.org/2000/svg">
<path d="M242.885 64.0639C249.96 66.2911 255.724 72.0554 255.724 81.2259C255.724 93.8026 244.85 100.877 231.488 100.877H202.273V29.085H232.143C245.505 29.085 254.021 36.6834 254.021 47.819C254.021 55.6795 249.698 61.0508 242.885 63.9329V64.0639ZM211.705 37.3385V60.6577H231.881C239.086 60.6577 244.588 56.7275 244.588 48.8671C244.588 41.1377 239.217 37.3385 232.012 37.3385H211.705ZM233.06 92.6235C240.396 92.6235 246.16 88.6933 246.16 80.7019C246.16 72.7104 240.658 68.7802 233.06 68.7802H211.705V92.6235H233.06Z" fill="#323C46"/>
<path d="M276.945 100.876V29.084H323.06V37.3375H286.247V60.6568H318.475V68.7792H286.247V92.6225H323.715V100.876H276.945Z" fill="#323C46"/>
<path d="M344.289 100.876V29.084H390.273V37.3375H353.591V60.6568H385.687V68.7792H353.591V92.6225H390.928V100.876H344.289Z" fill="#323C46"/>
<path d="M434.549 68.7792H420.925V100.876H411.492V29.084H420.925V60.6568H434.68L453.938 29.084H464.681L442.803 64.456L465.598 100.876H454.463L434.549 68.7792Z" fill="#323C46"/>
<path d="M484.203 100.876V29.084H530.187V37.3375H493.505V60.6568H525.601V68.7792H493.505V92.6225H530.842V100.876H484.203Z" fill="#323C46"/>
<path d="M551.406 100.876V29.084H597.52V37.3375H560.838V60.6568H592.935V68.7792H560.838V92.6225H598.175V100.876H551.406Z" fill="#323C46"/>
<path d="M647.048 29.084C661.72 29.084 672.856 37.3375 672.856 52.1413C672.856 66.9451 661.458 75.4606 646.786 75.4606H628.183V100.745H618.75V29.084H647.048ZM647.441 67.3381C656.48 67.3381 663.293 62.2289 663.293 52.4033C663.293 42.3158 656.349 37.3375 647.441 37.3375H628.183V67.3381H647.441Z" fill="#323C46"/>
<path d="M693.289 100.876V29.084H739.404V37.3375H702.722V60.6568H734.818V68.7792H702.722V92.6225H740.059V100.876H693.289Z" fill="#323C46"/>
<path d="M789.192 70.6133H770.065V100.745H760.633V29.084H789.848C803.079 29.084 812.905 36.6825 812.905 49.6522C812.905 59.2157 807.141 65.7661 798.494 68.5172L814.346 100.876H803.734L789.192 70.6133ZM770.065 62.4909H789.717C797.446 62.4909 803.472 58.4297 803.472 49.9142C803.472 41.3987 797.577 37.3375 789.848 37.3375H770.065V62.4909Z" fill="#323C46"/>
<path d="M0 62.2284L35.896 124.457H107.688L143.584 62.2284L107.688 0H35.896L0 62.2284ZM71.923 54.63L44.6735 7.59842H99.0415L71.923 54.63ZM65.3726 58.4292H11.0046L38.2541 11.2666L65.3726 58.4292ZM11.0046 66.0276H65.3726L38.1231 113.19L11.0046 66.0276ZM103.496 116.858H44.6735L75.1981 64.0625L105.592 11.3976L134.937 62.2284L103.496 116.858Z" fill="#323C46"/>
</svg>
