<svg width="459" height="81" viewBox="0 0 459 81" fill="none" xmlns="http://www.w3.org/2000/svg">
<path d="M59.2025 65.8802C56.6875 68.4002 52.7725 69.5152 47.1775 69.5152H9.6925V43.2152H47.1775C52.7725 43.2152 56.9675 44.3352 59.4875 46.8552C62.0025 49.3702 63.4025 52.4552 63.4025 56.3652C63.1225 60.2852 61.7225 63.6402 59.2025 65.8802ZM9.6975 10.4802H46.3475C49.1425 10.4802 51.6575 10.7652 53.3375 11.6002C55.2925 12.1602 56.6925 13.2802 58.0875 14.4002C59.2125 15.5202 60.0525 16.9202 60.6075 18.3152C61.1675 19.7152 61.1675 21.1152 61.1675 22.2352C61.1675 23.6352 60.8875 25.3102 60.6075 26.7102C60.3275 28.3902 59.4925 29.7902 58.3725 31.1852C57.2525 32.3052 55.5725 33.4252 53.6175 34.2652C51.6575 35.1052 49.1425 35.3852 46.3425 35.3852H9.6925V10.4852L9.6975 10.4802ZM61.1675 40.1402L51.9375 38.4602L60.8875 36.5052C65.3625 35.6652 68.4375 33.7052 70.3975 30.6302C72.6375 27.5502 73.4775 24.1952 73.4775 20.5552C73.4775 18.0352 72.9175 15.8002 72.0775 13.5602C71.2069 11.3448 69.872 9.34156 68.1625 7.6852C66.4825 6.0052 63.9625 4.6102 60.8875 3.7702C57.8125 2.6502 54.1775 2.0902 49.6975 2.0902H0.1875V58.8902L15.2925 77.9102H49.9825C54.7325 77.9102 58.6525 77.3502 62.0075 76.2302C65.0825 75.1152 67.8825 73.7152 69.8375 71.7552C71.7975 70.0752 73.1975 67.8402 74.0375 65.3202C74.9323 62.7067 75.4049 59.9674 75.4375 57.2052C75.4375 52.4552 74.3175 48.8152 72.0775 45.7352C70.1175 42.9352 66.2025 40.9802 61.1675 40.1402ZM173.893 3.2102V76.7902H237.948V68.9552H183.963V3.20519H173.893V3.2102ZM126.618 3.2102H116.553V76.7902H126.623L126.618 3.2102ZM250.253 3.2102V10.7602H283.263V76.7902H293.612V10.7652H326.618V3.2102H250.253ZM378.387 0.200195V80.2002H458.387V0.200195H378.387ZM384.372 23.9452V6.2502H398.373V23.9452H384.372ZM384.372 50.4802V29.9902H426.633V50.4202L384.372 50.4802ZM452.408 56.5302V74.2202H413.327V56.5302H452.408ZM452.408 29.9902V50.5452H432.613V29.9902H452.408ZM404.357 23.9402V6.2502H452.408V23.9452L404.357 23.9402ZM384.372 74.1602V56.5302H407.347V74.2202H384.372V74.1602Z" fill="white"/>
</svg>
