<?xml version="1.0" encoding="UTF-8"?><svg id="b" xmlns="http://www.w3.org/2000/svg" viewBox="0 0 1785.9325 269.9844"><g id="c"><path d="M196.0956,231.7476c-2.2809,15.2954-11.492,30.6508-27.0198,35.2002-5.176,1.5165-10.7852,2.0916-16.1192,1.1244-2.5106-.4552-6.986-2.7593-8.6649-2.8678-1.115-.072-7.1735,2.5476-9.5188,2.9352-22.9519,3.7936-39.4905-15.3322-42.752-36.3503-2.6956.3104-4.2302-1.1084-6.3902-2.3555-13.6624-7.8878-27.1255-21.0827-35.7452-34.2262-2.4224-3.6938-3.326-9.6208-8.7395-7.1477-4.3216,1.9743-10.1931,9.7795-13.0515,10.477-2.2526.5497-4.683-1.3699-4.8901-3.6513-.3125-3.4425,1.7857-12.3669,2.5463-16.2198.522-2.6444,3.4418-12.1901,3.0292-13.7878-.6671-2.5834-3.2654-3.3202-5.5679-2.237-1.6268.7653-3.9903,5.9664-7.6255,1.8918-1.9976-2.2391-.327-11.1387.157-14.3556.5433-3.6106,4.6769-12.7052-1.8856-12.4212-2.746.1188-4.9375,5.0318-8.2701,1.2946-1.5066-1.6896-1.1347-8.9414-.9839-11.4987.7199-12.2116,4.4433-26.0354,12.7233-35.2504,2.9253-3.2556,4.3892-2.3677,5.631-7.8628,3.1775-14.0612-2.0708-41.6493-15.5126-49.6735-3.2582-1.945-9.1682-2.4257-6.9657-7.7713.8587-2.084,11.7112-11.0175,14.1612-12.8242,42.1631-31.0933,72.3652,2.0484,90.8742,39.0002,1.2667,2.5289,2.9598,8.4909,5.0937,9.8997,2.2064,1.4566,4.4378-.1968,6.8729-.5794,10.9409-1.7189,13.586.6908,23.3302,1.3707,9.7789.6824,17.6154-3.3735,27.3799-1.882,3.2789.5009,8.6677,3.3426,10.8218.0518,18.5316-45.7423,55.9028-84.4177,102.5563-41.4157,1.1315,1.0429,5.49,5.055,6.0191,5.9752,2.9974,5.2131-3.257,6.1568-6.1795,7.8686-10.1738,5.9592-14.3667,18.5819-15.7737,29.7034-.691,5.4622-1.5682,14.5662-.4511,19.7958,1.4266,6.6784,6.6423,8.3379,10.2838,13.7052,5.9291,8.739,9.5908,27.5257,8.6134,37.8977-.1734,1.8405-.4667,3.859-2.4922,4.4993-4.3497,1.375-4.1089-2.0679-6.7679-2.3139-1.5807-.1462-3.4859.3255-4.0394,2.0149-.7104,2.1687,2.5252,13.5837,2.7753,17.2718.2454,3.619.6862,9.6503-4.7182,8.7432-2.3157-.3887-4.0774-6.0561-8.0331-3.0092-1.6086,1.2391-1.3339,2.2923-1.1118,4.1241,1.0366,8.5505,5.1889,18.0609,5.4108,27.1082.0716,2.9203-2.0876,5.4561-5.0565,4.5432-1.4565-.4478-8.6201-7.9182-11.4179-9.6025-1.6905-1.0177-2.8385-2.2096-4.9293-1.3104-1.725.7419-6.1186,8.9984-7.7254,11.275-7.7251,10.9449-20.9204,23.169-32.4455,30.0292-2.3491,1.3983-4.5179,3.2138-7.4353,2.8135ZM157.0767,68.34c-8.8618,1.9466-17.1267,1.7698-25.9924.0005,3.868,24.3861,7.0881,49.9378,1.6568,74.3549-.7804,3.5086-2.4268,10.3311-4.2303,13.2599-1.3264,2.154-4.8567,4.7263-6.6839,6.8105-19.2422,21.9487-32.4997,48.5952-21.1234,78.0854,5.5369,14.3529,18.9301,24.747,34.8958,21.1193,2.419-.5496,6.7759-3.2418,8.2419-3.302,2.0992-.0862,4.6666,1.9743,6.8493,2.6747,16.0396,5.1467,30.7545-4.9957,36.6262-19.6343,11.4112-28.449-.6745-55.91-19.482-77.4442-4.453-5.0986-7.1651-5.7297-9.7647-12.7251-6.713-18.0647-5.9715-42.9608-3.9857-61.9608.7426-7.1053,2.3758-14.1186,2.9922-21.2388ZM93.9569,133.9136c-2.2989.3584-5.8405,2.3542-7.6059,3.8892-7.009,6.0942-1.282,20.4594,7.3288,22.6281,5.091,1.2822,13.9187-2.7961,16.9041-6.9,2.0403-2.8047-.8306-8.2474-2.4125-11.0796-3.1777-5.6895-7.1675-9.6361-14.2145-8.5376ZM203.9133,138.9462c-2.6918-3.2652-9.3654-5.6951-13.5444-5.1084-6.1041.857-12.1921,10.8455-13.0908,16.4369-.5129,3.191,2.6682,5.0676,4.9371,6.6129,6.6086,4.5011,13.2581,6.1247,19.1138-.6049,3.4285-3.9401,6.1908-12.9616,2.5843-17.3365Z" fill="#030303"/><path d="M384.0497,6.1324l1.7243-.7749c32.8118.9912,66.3053-1.2266,99.0364.0016,34.8194,1.3066,74.0497,12.763,84.0732,50.3806,7.8649,29.5167-2.1787,60.4969-31.5171,72.6438l-10.3329,3.9056c26.5843,3.5938,48.4747,19.4554,53.3562,46.8566,9.3822,52.6648-28.4664,82.4582-76.6104,87.5494-38.108,4.0299-79.5172-.9567-118.0053,1.0296l-1.7243-.7749V6.1324ZM427.5441,116.8049c18.5547-.6971,37.7816.9243,56.2633.0206,22.2179-1.0864,42.9393-10.2781,44.2479-35.2219,1.3143-25.0525-16.4207-38.1072-39.7481-39.7671l-60.763.0209v74.9475ZM427.5441,231.2248c19.5795-.6465,39.7167.8677,59.2372-.0051,26.2707-1.1747,51.9722-10.7911,50.2727-41.7398-1.4896-27.1257-25.597-36.0905-49.2471-37.2204-19.8086-.9464-40.3796.7498-60.2627.0206v78.9447Z" fill="#030303"/><path d="M1580.394,267.6992h-35.4954l-4.5019-27.978c-.694-.802-4.6839,4.8982-5.2397,5.5008-33.8372,36.6883-96.6702,31.0893-127.2267-6.7661-29.5127-36.5623-27.969-102.2843,3.7286-137.1472,32.2594-35.4808,96.9168-39.0955,127.7404.0071V6.1324l.7499-.7495h39.4949l.7499.7495v261.5668ZM1477.8072,108.4606c-64.4925,5.7119-66.4861,118.3446-1.0874,126.6991,35.1803,4.4942,60.8815-21.0418,63.1742-55.1542,2.6763-39.8188-18.115-75.4393-62.0869-71.5449Z" fill="#030303"/><path d="M1305.4298,5.3829v35.9748h-32.7457c-1.3458,0-5.5003,1.4374-6.8554,2.1422-2.9745,1.547-5.0439,4.261-6.0423,7.4517-.5288,1.69-1.3504,6.5033-1.3504,8.1437v16.7383h111.4855v191.8656h-40.9947V112.0582l-.7499-.7495h-68.991l-.7499.7495v155.641h-40.2448l-.7499-.7495V111.3087h-32.9957v-35.4752h32.9957c.2191-16.4594-1.5215-34.4879,6.9133-49.3013,15.6151-27.4238,54.6608-20.0402,81.0753-21.1494Z" fill="#030303"/><path d="M1189.4449,232.2241v35.4752c-23.6806.4273-57.68,3.329-56.4976-29.9789-9.1464,12.219-19.7734,22.0831-34.3667,27.3546-24.7438,8.9382-62.3792,5.6513-82.8496-11.879-25.5433-21.8747-22.5774-66.5648,4.5784-85.8339,30.4384-21.5983,73.0299-13.4005,108.1434-15.0819v-17.2379c0-5.8509-5.853-15.4552-10.2635-19.2217-19.7439-16.8608-69.5318-12.3695-74.2255,18.4722h-39.9948c1.9397-22.0952,15.3461-39.9332,34.6593-50.0511,24.7228-12.9519,64.0166-14.2239,89.9574-4.2938,59.1309,22.6351,35.5562,93.8841,40.3665,142.5284.2978,3.0114,1.5762,6.5966,4.3185,8.1752.533.3068,4.0753,1.5727,4.4256,1.5727h11.7485ZM1128.4528,182.259l-54.2636-.0207c-15.2028.9951-31.6261,6.1078-34.1745,23.305-5.4996,37.1115,45.8303,38.5114,68.0954,24.0871,10.0239-6.494,20.3428-21.9082,20.3428-34.1307v-13.2407Z" fill="#030303"/><path d="M1784.8673,180.2604h-144.4812c-.4896,24.9636,13.1592,48.8288,38.4899,54.7168,21.8846,5.087,47.693-.5446,59.0831-21.4044,1.96-3.5895,2.7451-7.4002,4.6637-10.8281h39.7448c-5.166,38.9576-40.8039,64.8815-78.7191,66.9738-68.5562,3.7832-111.9195-42.6459-105.2539-110.6901,6.3465-64.7868,63.7759-99.078,125.3627-81.3283,45.6825,13.166,67.3995,56.9422,61.1099,102.5603ZM1743.8727,150.7811c-2.0551-20.1915-14.1681-36.6809-33.9965-42.2195-31.8631-8.9-64.1729,8.2954-67.9902,42.2195h101.9867Z" fill="#030303"/><path d="M685.9076,73.4824l7.8725-.1676c64.2498,1.9215,101.8834,52.1367,93.6457,114.6188-7.2405,54.9185-50.7908,84.6307-104.6856,81.7849-120.3601-6.3554-121.7373-191.0944,3.1674-196.2361ZM683.9106,108.4606c-64.5216,5.7155-66.7152,116.9984-2.0891,126.2013,34.7018,4.9416,60.5524-18.6221,64.6193-52.2148,4.931-40.7297-18.1079-77.9216-62.5302-73.9865Z" fill="#030303"/><path d="M846.4895,267.6992h-40.4947V75.8336h35.4954l4.0045,24.4827c5.551-5.9752,11.0417-11.3691,18.0349-15.6966,26.8535-16.6171,71.2844-15.0858,95.4524,5.9464,18.9438,16.4859,23.7852,40.4971,24.969,64.4826,1.8161,36.7984-.2966,74.0311.546,110.9272l-.7754,1.7233h-39.9948l-.7754-1.7233.0464-110.9687c-2.1408-23.7694-12.3181-42.8634-37.8295-46.1333-36.5309-4.6824-57.2861,22.1243-58.6996,56.1266l.0207,102.6988Z" fill="#030303"/><path d="M1348.3352.0214c35.181-1.244,34.7808,52.2549-2.1527,48.823-29.0402-2.6984-28.3483-47.7445,2.1527-48.823Z" fill="#030303"/><path d="M134.9819,209.3898c5.0293-.4038,17.9376-.3972,22.6253.572,8.7975,1.8188,12.234,6.5722,11.4888,15.5348-.6424,7.7266-12.8175,22.2495-20.781,22.7205-2.0374.1205-2.9861-.766-3.9814-.8033-1.0315-.0387-2.515.953-4.4916.8121-6.2309-.4441-17.282-12.5738-19.3503-18.1579-4.6127-12.4532,2.2233-19.6933,14.4903-20.6783Z" fill="#030303"/><path d="M99.5853,138.2932c-.0596,1.4434-1.5499,1.8627-1.892,3.3493-.8448,3.6707,2.4029,6.4203,5.5903,4.5857.982-.5652,1.2458-2.3047,2.0449-1.9376,2.8547,5.4405-1.4821,12.4888-7.4645,13.0088-16.12,1.4013-13.7556-22.7231,1.7213-19.0062Z" fill="#217bad"/><path d="M195.5591,138.3144c.281,1.6887-1.5908,1.8988-1.8962,3.8534-.4236,2.7114,2.5482,5.152,5.1757,4.1655,1.2163-.4567,1.9402-2.2581,3.0004-1.064,1.3303,5.5787-2.6486,11.6336-8.4939,12.0273-16.1155,1.0853-13.2809-23.5223,2.214-18.9822Z" fill="#030303"/></g></svg>