<svg width="115" height="24" viewBox="0 0 115 24" fill="none" xmlns="http://www.w3.org/2000/svg">
<path d="M8.03742 18.5621C12.191 18.5621 14.4026 16.6013 14.4026 13.3595C14.4026 11.3203 13.162 9.80392 11.3009 9.17647C13.0271 8.49673 14.079 7.00654 14.079 5.04575C14.079 2.19608 12.137 0 7.74074 0H0V18.5621H8.03742ZM8.01045 10.6144C10.0063 10.6144 11.1121 11.5556 11.1121 13.1503C11.1121 14.8235 10.0063 15.6863 7.98348 15.6863H3.20957V10.6144H8.01045ZM7.76771 2.87582C9.84449 2.87582 10.7885 3.84314 10.7885 5.30719C10.7885 6.98039 9.60175 7.71242 7.76771 7.71242H3.20957V2.87582H7.76771Z" fill="black"/>
<path d="M22.6819 18.8758C27.1592 18.8758 29.9642 15.6078 29.9642 11.7909C29.9642 7.97386 27.1592 4.67974 22.6819 4.67974C18.2317 4.67974 15.4267 7.97386 15.4267 11.7909C15.4267 15.6078 18.2317 18.8758 22.6819 18.8758ZM18.6363 11.7909C18.6363 9.15033 20.3624 7.42484 22.6819 7.42484C25.0284 7.42484 26.7546 9.15033 26.7546 11.7909C26.7546 14.4052 25.0284 16.1307 22.6819 16.1307C20.3624 16.1307 18.6363 14.4052 18.6363 11.7909Z" fill="black"/>
<path d="M37.927 18.8758C42.4042 18.8758 45.2092 15.6078 45.2092 11.7909C45.2092 7.97386 42.4042 4.67974 37.927 4.67974C33.4768 4.67974 30.6718 7.97386 30.6718 11.7909C30.6718 15.6078 33.4768 18.8758 37.927 18.8758ZM33.8813 11.7909C33.8813 9.15033 35.6075 7.42484 37.927 7.42484C40.2735 7.42484 41.9997 9.15033 41.9997 11.7909C41.9997 14.4052 40.2735 16.1307 37.927 16.1307C35.6075 16.1307 33.8813 14.4052 33.8813 11.7909Z" fill="black"/>
<path d="M59.0248 10.7712C59.0248 8.57516 60.2655 7.34641 62.1805 7.34641C64.1224 7.34641 64.8236 8.67974 64.8236 10.4314V18.5621H68.0332V10.0392C68.0332 6.95425 66.3071 4.67974 62.9356 4.67974C60.778 4.67974 59.2676 5.51634 58.1887 6.82353C57.4065 5.51634 56.0041 4.67974 53.9812 4.67974C51.7426 4.67974 50.394 5.72549 49.8007 6.79739V4.99346H46.8338V18.5621H50.0434V10.6667C50.0434 8.60131 51.2571 7.34641 53.1721 7.34641C55.087 7.34641 55.8153 8.6536 55.8153 10.4314V18.5621H59.0248V10.7712Z" fill="black"/>
<path d="M74.0155 8.31373V2.9281H78.7085C80.8393 2.9281 81.8102 4.02614 81.8102 5.64706C81.8102 7.26797 80.8393 8.31373 78.7085 8.31373H74.0155ZM74.0155 11.2418H78.6816C83.1318 11.2418 85.1007 8.81046 85.1007 5.64706C85.1007 2.48366 83.2397 0 78.6816 0H70.752V18.5621H74.0155V11.2418Z" fill="black"/>
<path d="M91.9063 18.8758C96.3835 18.8758 99.1885 15.6078 99.1885 11.7909C99.1885 7.97386 96.3835 4.67974 91.9063 4.67974C87.4561 4.67974 84.6511 7.97386 84.6511 11.7909C84.6511 15.6078 87.4561 18.8758 91.9063 18.8758ZM87.8606 11.7909C87.8606 9.15033 89.5868 7.42484 91.9063 7.42484C94.2528 7.42484 95.979 9.15033 95.979 11.7909C95.979 14.4052 94.2528 16.1307 91.9063 16.1307C89.5868 16.1307 87.8606 14.4052 87.8606 11.7909Z" fill="black"/>
<path d="M104.023 16.7843C104.805 17.9608 106.342 18.8758 108.5 18.8758C112.653 18.8758 115 15.6601 115 11.7909C115 7.89543 112.653 4.67974 108.5 4.67974C106.342 4.67974 104.697 5.54248 103.78 6.9281V4.99346H100.813V24H104.023V16.7843ZM103.915 11.7909C103.915 9.28105 105.398 7.37255 107.853 7.37255C110.28 7.37255 111.79 9.28105 111.79 11.7909C111.79 14.2222 110.28 16.1307 107.853 16.1307C105.398 16.1307 103.915 14.2222 103.915 11.7909Z" fill="black"/>
</svg>
