<svg width="115" height="24" viewBox="0 0 115 24" fill="none" xmlns="http://www.w3.org/2000/svg">
<g clip-path="url(#clip0_476_732)">
<path d="M8.03742 18.5621C12.191 18.5621 14.4026 16.6013 14.4026 13.3595C14.4026 11.3203 13.162 9.80392 11.3009 9.17647C13.0271 8.49673 14.079 7.00654 14.079 5.04575C14.079 2.19608 12.137 0 7.74074 0H0V18.5621H8.03742ZM8.01045 10.6144C10.0063 10.6144 11.1121 11.5556 11.1121 13.1503C11.1121 14.8235 10.0063 15.6863 7.98348 15.6863H3.20957V10.6144H8.01045ZM7.76771 2.87582C9.84449 2.87582 10.7885 3.84314 10.7885 5.30719C10.7885 6.98039 9.60175 7.71242 7.76771 7.71242H3.20957V2.87582H7.76771Z" fill="white"/>
<path d="M22.6849 18.8757C27.1622 18.8757 29.9672 15.6077 29.9672 11.7908C29.9672 7.97381 27.1622 4.67969 22.6849 4.67969C18.2347 4.67969 15.4297 7.97381 15.4297 11.7908C15.4297 15.6077 18.2347 18.8757 22.6849 18.8757ZM18.6393 11.7908C18.6393 9.15028 20.3654 7.42479 22.6849 7.42479C25.0314 7.42479 26.7576 9.15028 26.7576 11.7908C26.7576 14.4051 25.0314 16.1306 22.6849 16.1306C20.3654 16.1306 18.6393 14.4051 18.6393 11.7908Z" fill="white"/>
<path d="M37.9271 18.8757C42.4043 18.8757 45.2093 15.6077 45.2093 11.7908C45.2093 7.97381 42.4043 4.67969 37.9271 4.67969C33.4769 4.67969 30.6719 7.97381 30.6719 11.7908C30.6719 15.6077 33.4769 18.8757 37.9271 18.8757ZM33.8814 11.7908C33.8814 9.15028 35.6076 7.42479 37.9271 7.42479C40.2736 7.42479 41.9998 9.15028 41.9998 11.7908C41.9998 14.4051 40.2736 16.1306 37.9271 16.1306C35.6076 16.1306 33.8814 14.4051 33.8814 11.7908Z" fill="white"/>
<path d="M59.0269 10.7711C59.0269 8.57511 60.2676 7.34636 62.1826 7.34636C64.1245 7.34636 64.8257 8.67969 64.8257 10.4313V18.562H68.0353V10.0391C68.0353 6.9542 66.3092 4.67969 62.9377 4.67969C60.7801 4.67969 59.2697 5.51629 58.1908 6.82348C57.4086 5.51629 56.0062 4.67969 53.9833 4.67969C51.7447 4.67969 50.3961 5.72544 49.8028 6.79734V4.99341H46.8359V18.562H50.0455V10.6666C50.0455 8.60126 51.2592 7.34636 53.1742 7.34636C55.0891 7.34636 55.8174 8.65355 55.8174 10.4313V18.562H59.0269V10.7711Z" fill="white"/>
<path d="M74.0135 8.31373V2.9281H78.7065C80.8373 2.9281 81.8082 4.02614 81.8082 5.64706C81.8082 7.26797 80.8373 8.31373 78.7065 8.31373H74.0135ZM74.0135 11.2418H78.6796C83.1298 11.2418 85.0987 8.81046 85.0987 5.64706C85.0987 2.48366 83.2377 0 78.6796 0H70.75V18.5621H74.0135V11.2418Z" fill="white"/>
<path d="M91.9036 18.8757C96.3808 18.8757 99.1858 15.6077 99.1858 11.7908C99.1858 7.97381 96.3808 4.67969 91.9036 4.67969C87.4534 4.67969 84.6484 7.97381 84.6484 11.7908C84.6484 15.6077 87.4534 18.8757 91.9036 18.8757ZM87.8579 11.7908C87.8579 9.15028 89.5841 7.42479 91.9036 7.42479C94.2501 7.42479 95.9763 9.15028 95.9763 11.7908C95.9763 14.4051 94.2501 16.1306 91.9036 16.1306C89.5841 16.1306 87.8579 14.4051 87.8579 11.7908Z" fill="white"/>
<path d="M104.022 16.7842C104.804 17.9607 106.341 18.8757 108.499 18.8757C112.652 18.8757 114.999 15.66 114.999 11.7908C114.999 7.89538 112.652 4.67969 108.499 4.67969C106.341 4.67969 104.696 5.54243 103.779 6.92805V4.99341H100.812V23.9999H104.022V16.7842ZM103.914 11.7908C103.914 9.281 105.397 7.3725 107.852 7.3725C110.279 7.3725 111.789 9.281 111.789 11.7908C111.789 14.2221 110.279 16.1306 107.852 16.1306C105.397 16.1306 103.914 14.2221 103.914 11.7908Z" fill="white"/>
</g>
<defs>
<clipPath id="clip0_476_732">
<rect width="115" height="24" fill="white"/>
</clipPath>
</defs>
</svg>
