<svg class="navbar__brand-logo" fill="none" height="222" viewBox="0 0 1000 222" width="1000" xmlns="http://www.w3.org/2000/svg"><path clip-rule="evenodd" d="M0 111.227C0 50.2 49.744.727 111.107.727s111.106 49.473 111.106 110.5-49.744 110.5-111.106 110.5C49.744 221.727 0 172.255 0 111.227m146.57 11.158c16.333.927 30.322-11.488 31.254-27.732s-11.55-30.156-27.883-31.084c-16.333-.927-30.322 11.487-31.255 27.731-.932 16.245 11.55 30.157 27.884 31.085M50.505 99.197c5.065 0 9.317-3.77 9.899-8.782.624-5.437-3.303-10.364-8.77-10.993q-.578-.066-1.155-.068c-5.065 0-9.318 3.778-9.9 8.781-.624 5.438 3.303 10.364 8.77 10.994q.578.066 1.156.068m10.36 8.492c-.615 5.318 3.235 10.143 8.582 10.756.377.042.753.068 1.13.068 4.954 0 9.12-3.693 9.685-8.594.616-5.319-3.234-10.143-8.582-10.756a10 10 0 0 0-1.13-.068c-4.953 0-9.12 3.693-9.684 8.594m24.051 35.126c-5.347-.613-9.197-5.437-8.581-10.756.564-4.901 4.731-8.594 9.685-8.594.376 0 .753.026 1.13.068 5.347.612 9.197 5.438 8.58 10.755-.563 4.902-4.73 8.595-9.684 8.595q-.565-.002-1.13-.068M101.13 167.5c5.169 0 9.446-4.025 9.737-9.156.3-5.343-3.824-9.938-9.198-10.245-.188-.016-.375-.016-.563-.016h-.001c-5.168 0-9.446 4.024-9.737 9.155-.3 5.344 3.825 9.939 9.198 10.245.188.017.376.017.564.017m28.629-32.012c-.291 5.131-4.569 9.156-9.737 9.156-.188 0-.377 0-.565-.016-5.373-.307-9.496-4.902-9.189-10.246.292-5.131 4.569-9.155 9.737-9.155.189 0 .376 0 .564.016 5.373.307 9.497 4.902 9.19 10.245M373.573 110.999a55.2 55.2 0 0 0-11.476-18.43c-4.624-5.035-10.19-9.045-16.528-11.776-6.337-2.645-13.102-4.01-19.952-3.925-12.075-.426-23.807 3.755-32.799 11.605V34.545h-33.569v150.519h33.569v-8.789c9.078 7.85 20.809 12.032 32.799 11.605 6.85.171 13.615-1.195 19.867-3.839 6.337-2.731 11.989-6.656 16.613-11.605 10.02-10.411 14.987-23.721 14.987-40.019a55.5 55.5 0 0 0-3.511-21.418m-29.459 21.503c.342 7.167-2.227 14.25-7.108 19.625a22.9 22.9 0 0 1-8.392 5.718 24.7 24.7 0 0 1-9.934 1.792c-3.34 0-6.68-.683-9.848-1.963-3.169-1.365-5.994-3.243-8.306-5.717-2.484-2.56-4.54-5.632-5.824-8.96a28.1 28.1 0 0 1-1.799-10.58c-.171-3.584.514-7.168 1.799-10.496a25.7 25.7 0 0 1 5.824-8.959c2.397-2.475 5.137-4.352 8.306-5.717 3.168-1.28 6.508-1.962 9.933-1.962 3.341-.086 6.766.596 9.935 1.876 3.168 1.28 5.994 3.328 8.306 5.803 4.795 5.29 7.364 12.373 7.108 19.54m157.742-22.611a52.4 52.4 0 0 0-12.76-18.005c-11.132-10.24-25.776-15.785-40.763-15.53-15.242-.426-30.143 5.12-41.447 15.445a51.5 51.5 0 0 0-12.846 18.004c-2.997 6.826-4.367 14.25-4.11 21.674a51.6 51.6 0 0 0 4.025 21.844 51.1 51.1 0 0 0 12.845 18.089c11.218 10.325 26.119 15.871 41.448 15.445 15.158.34 29.802-5.206 40.848-15.445a51.95 51.95 0 0 0 12.76-18.089c2.912-6.826 4.282-14.336 4.025-21.76a50.8 50.8 0 0 0-4.025-21.672m-30.058 32.254c-1.371 3.328-3.34 6.399-5.824 8.958-2.312 2.476-5.052 4.438-8.049 5.888a25.6 25.6 0 0 1-9.763 1.963c-3.425 0-6.851-.683-10.019-1.963s-5.994-3.242-8.392-5.716c-2.484-2.56-4.54-5.632-5.824-8.96a28.1 28.1 0 0 1-1.798-10.58c-.172-3.584.428-7.254 1.798-10.582a27.45 27.45 0 0 1 5.995-8.958 23.3 23.3 0 0 1 8.307-5.718c3.168-1.365 6.508-1.962 9.933-1.962 3.34 0 6.595.682 9.677 1.962 2.998 1.28 5.738 3.242 8.05 5.632 2.569 2.56 4.624 5.632 5.909 8.96 1.284 3.412 1.969 6.996 1.798 10.58.086 3.584-.514 7.168-1.798 10.496m156.199 42.152h-33.569v-9.984c-4.196 4.266-9.162 7.68-14.729 9.898s-11.561 3.242-17.555 3.072c-5.566.256-11.048-.768-16.186-2.816a37.76 37.76 0 0 1-13.53-9.216c-7.451-8.02-11.218-18.6-11.218-31.656V79.087h33.398v57.255a21.56 21.56 0 0 0 5.052 14.933 17.1 17.1 0 0 0 5.824 4.352 16 16 0 0 0 7.193 1.45c3.082.17 6.08-.426 8.906-1.706s5.224-3.158 7.194-5.548c3.853-4.778 5.823-12.201 5.823-22.099V79.172h33.569zm124.687-64.252c0-13.142-3.683-23.636-11.219-31.657-3.768-4.01-8.392-7.168-13.701-9.13a38.8 38.8 0 0 0-16.185-2.73c-5.995-.172-11.99.852-17.556 3.156s-10.533 5.717-14.729 10.069V79.684h-33.57v104.953h33.57v-48.806c0-9.814 1.97-17.238 5.823-22.016 1.97-2.388 4.367-4.266 7.193-5.546s5.823-1.878 8.907-1.706a16 16 0 0 1 7.193 1.45 17.1 17.1 0 0 1 5.823 4.352 21.57 21.57 0 0 1 5.053 14.932v57.256h33.398zm94.199 19.88 30.83 6.742c-2.399 11.86-9.164 22.441-18.926 29.694-10.02 7.594-22.437 11.604-35.025 11.263-15.158.341-29.802-5.205-40.849-15.53-5.48-5.119-9.848-11.348-12.674-18.26a51.6 51.6 0 0 1-4.025-21.844 51.5 51.5 0 0 1 4.025-21.759 52.8 52.8 0 0 1 12.674-18.174c10.961-10.41 25.691-16.042 40.849-15.701 12.417-.17 24.491 3.67 34.425 11.093 9.763 7.167 16.614 17.492 19.354 29.267l-31.514 7.509c-.942-5.376-3.768-10.324-7.964-13.908-4.111-3.158-9.163-4.864-14.301-4.694-3.426-.17-6.766.427-9.934 1.707-3.169 1.28-5.995 3.243-8.307 5.632-4.709 5.205-7.194 11.946-6.937 18.943a26.9 26.9 0 0 0 6.937 19.028c2.312 2.474 5.224 4.352 8.392 5.632 3.169 1.28 6.509 1.877 9.934 1.706 11.904.171 19.525-5.973 23.036-18.346m75.79.683H1000l-.083-8.533c-.258-16.724-5.571-30.12-15.93-40.36a53.9 53.9 0 0 0-17.642-11.52 52.6 52.6 0 0 0-20.809-3.754c-7.367-.17-14.641 1.11-21.491 3.84-6.855 2.645-13.02 6.741-18.245 11.86-5.395 5.206-9.591 11.349-12.331 18.261s-4.11 14.25-3.853 21.673c-.257 7.424 1.113 14.762 3.853 21.674a54.6 54.6 0 0 0 12.331 18.345c5.225 5.12 11.39 9.13 18.153 11.775 6.767 2.731 14.051 4.011 21.325 3.84 11.307.256 22.439-2.56 32.117-8.276 9.244-5.803 16.436-14.421 20.377-24.575l-29.889-6.058c-4.447 8.021-11.896 12.116-22.43 12.116-5.396.085-10.626-1.877-14.558-5.461-4.282-3.925-7.108-9.13-8.222-14.847m.515-20.479c1.363-4.949 4.448-9.215 8.729-12.116a23.26 23.26 0 0 1 13.536-4.352c4.797-.085 9.419 1.365 13.268 4.181a22.43 22.43 0 0 1 7.965 12.287z" fill="currentColor" fill-rule="evenodd"></path></svg>