<svg width="320" height="71" viewBox="0 0 320 71" fill="none" xmlns="http://www.w3.org/2000/svg">
<path fill-rule="evenodd" clip-rule="evenodd" d="M0 35.5927C0 16.064 15.9181 0.232666 35.5542 0.232666C55.1904 0.232666 71.1082 16.064 71.1082 35.5927C71.1082 55.1213 55.1901 70.9527 35.5542 70.9527C15.9181 70.9527 0 55.1216 0 35.5927ZM46.9024 39.1632C52.129 39.4599 56.6054 35.4871 56.9037 30.289C57.2019 25.0909 53.2077 20.6391 47.9811 20.3421C42.7546 20.0455 38.2781 24.0179 37.9795 29.216C37.6813 34.4144 41.6755 38.8663 46.9024 39.1632ZM16.1616 31.7431C17.7824 31.7431 19.143 30.5367 19.3293 28.9328C19.529 27.193 18.2723 25.6163 16.5229 25.4151C16.3996 25.401 16.2764 25.3937 16.1533 25.3933C14.5325 25.3933 13.1715 26.6023 12.9853 28.2032C12.7856 29.9434 14.0422 31.5197 15.7917 31.7213C15.915 31.7354 16.0383 31.7426 16.1616 31.7431ZM19.4768 34.4605C19.28 36.1623 20.512 37.7063 22.223 37.9024C22.3437 37.9159 22.464 37.9242 22.5846 37.9242C24.1699 37.9242 25.503 36.7424 25.6838 35.1741C25.881 33.472 24.649 31.9283 22.9376 31.7322C22.8176 31.7181 22.6968 31.7108 22.576 31.7104C20.991 31.7104 19.6573 32.8922 19.4768 34.4605ZM27.1734 45.7008C25.4624 45.5047 24.2304 43.961 24.4275 42.2589C24.608 40.6906 25.9414 39.5088 27.5267 39.5088C27.647 39.5088 27.7677 39.5171 27.8883 39.5306C29.5994 39.7264 30.8314 41.2707 30.6339 42.9722C30.4538 44.5408 29.1203 45.7226 27.535 45.7226C27.4145 45.7222 27.294 45.7149 27.1734 45.7008ZM32.3616 53.6C34.0157 53.6 35.3843 52.312 35.4774 50.6701C35.5734 48.9603 34.2538 47.4899 32.5341 47.3917C32.4739 47.3866 32.4141 47.3866 32.3539 47.3866C30.7002 47.3866 29.3309 48.6743 29.2378 50.3162C29.1418 52.0263 30.4618 53.4967 32.1811 53.5946C32.2413 53.6 32.3014 53.6 32.3616 53.6ZM41.5229 43.3562C41.4298 44.9981 40.0608 46.2861 38.407 46.2861C38.3469 46.2861 38.2864 46.2861 38.2262 46.281C36.5069 46.1827 35.1875 44.7123 35.2858 43.0023C35.3792 41.3603 36.7478 40.0727 38.4016 40.0727C38.4621 40.0727 38.5219 40.0727 38.5821 40.0778C40.3014 40.176 41.6211 41.6464 41.5229 43.3562ZM119.543 35.5197C118.722 33.3301 117.473 31.3255 115.871 29.6221C114.391 28.0109 112.61 26.7277 110.582 25.8538C108.554 25.0074 106.389 24.5706 104.197 24.5978C100.333 24.4615 96.5792 25.7994 93.7018 28.3114V11.0544H82.9597V59.2205H93.7018V56.408C96.6067 58.92 100.361 60.2583 104.197 60.1216C106.389 60.1763 108.554 59.7392 110.555 58.8931C112.583 58.0192 114.391 56.7632 115.871 55.1795C119.077 51.848 120.667 47.5888 120.667 42.3735C120.747 40.0372 120.365 37.7081 119.543 35.5197ZM110.116 42.4007C110.226 44.6941 109.404 46.9607 107.842 48.6807C107.095 49.4839 106.177 50.1092 105.156 50.5104C104.148 50.9184 103.065 51.1136 101.978 51.0839C100.909 51.0839 99.84 50.8653 98.8262 50.4557C97.8122 50.0189 96.9082 49.4179 96.1683 48.6263C95.3734 47.8071 94.7155 46.824 94.3046 45.7591C93.897 44.678 93.7016 43.5285 93.729 42.3735C93.6742 41.2266 93.8934 40.0797 94.3046 39.0147C94.7181 37.9391 95.3531 36.9624 96.1683 36.1479C96.9354 35.3559 97.8122 34.7552 98.8262 34.3184C99.84 33.9088 100.909 33.6906 102.005 33.6906C103.074 33.6631 104.17 33.8813 105.184 34.2909C106.198 34.7005 107.102 35.3559 107.842 36.1479C109.376 37.8407 110.198 40.1072 110.116 42.4007ZM160.594 35.1651C159.657 32.9765 158.265 31.0125 156.511 29.4035C152.948 26.1267 148.262 24.3523 143.467 24.4339C138.589 24.2976 133.821 26.0723 130.204 29.3763C128.432 30.9764 127.03 32.9422 126.093 35.1376C125.134 37.3219 124.695 39.6976 124.778 42.0733C124.694 44.4692 125.134 46.8545 126.066 49.0634C126.995 51.2706 128.398 53.2467 130.176 54.8519C133.766 58.1559 138.534 59.9306 143.439 59.7943C148.29 59.9031 152.976 58.1283 156.511 54.8519C158.272 53.2381 159.665 51.2638 160.594 49.0634C161.526 46.8791 161.964 44.4759 161.882 42.1002C161.965 39.7221 161.526 37.3547 160.594 35.1651ZM150.975 45.4864C150.537 46.5514 149.907 47.5341 149.112 48.353C148.372 49.1453 147.495 49.7731 146.536 50.2371C145.546 50.649 144.484 50.8624 143.412 50.8653C142.316 50.8653 141.22 50.6467 140.206 50.2371C139.192 49.8275 138.288 49.1997 137.52 48.408C136.725 47.5888 136.068 46.6058 135.657 45.5408C135.249 44.4597 135.054 43.3102 135.081 42.1552C135.026 41.0083 135.218 39.8339 135.657 38.769C136.1 37.6961 136.752 36.7218 137.575 35.9024C138.317 35.1058 139.224 34.4812 140.233 34.0727C141.247 33.6359 142.316 33.4448 143.412 33.4448C144.481 33.4448 145.522 33.6631 146.508 34.0727C147.468 34.4823 148.345 35.1101 149.084 35.8749C149.907 36.6941 150.564 37.6771 150.975 38.7421C151.386 39.8339 151.605 40.9808 151.551 42.1277C151.578 43.2746 151.386 44.4215 150.975 45.4864ZM200.959 58.9751H190.217V55.7802C188.874 57.1453 187.285 58.2378 185.504 58.9475C183.722 59.6573 181.804 59.985 179.886 59.9306C178.105 60.0125 176.351 59.6848 174.707 59.0295C173.065 58.3749 171.587 57.3682 170.377 56.0803C167.993 53.5139 166.787 50.1283 166.787 45.9504V25.3079H177.475V43.6295C177.391 45.3693 177.968 47.0764 179.091 48.408C179.605 49.0005 180.241 49.4754 180.955 49.8007C181.676 50.1316 182.464 50.2904 183.257 50.2647C184.243 50.3191 185.202 50.1283 186.107 49.7187C187.011 49.3091 187.778 48.7082 188.409 47.9434C189.642 46.4144 190.272 44.0391 190.272 40.8717V25.3351H201.014L200.959 58.9751ZM240.859 38.4144C240.859 34.209 239.68 30.8509 237.269 28.2842C236.063 27.001 234.583 25.9904 232.884 25.3626C231.24 24.7054 229.474 24.4075 227.705 24.489C225.787 24.4339 223.868 24.7616 222.087 25.4989C220.306 26.2362 218.717 27.3283 217.374 28.721V25.4989H206.632V59.0839H217.374V43.4659C217.374 40.3255 218.004 37.9498 219.237 36.4208C219.868 35.6567 220.635 35.0557 221.539 34.6461C222.444 34.2365 223.403 34.0451 224.389 34.1002C225.182 34.0745 225.97 34.2333 226.691 34.5642C227.405 34.8895 228.04 35.3644 228.555 35.9568C229.677 37.2885 230.255 38.9954 230.172 40.7351V59.057H240.859V38.4144ZM271.003 44.776L280.868 46.9335C280.1 50.7287 277.936 54.1146 274.812 56.4355C271.605 58.8656 267.632 60.1488 263.604 60.0397C258.753 60.1488 254.067 58.3741 250.532 55.0701C248.779 53.432 247.381 51.4387 246.476 49.2269C245.545 47.018 245.105 44.6327 245.188 42.2368C245.108 39.85 245.548 37.4742 246.476 35.2739C247.402 33.0704 248.784 31.0882 250.532 29.4583C254.04 26.1271 258.753 24.3248 263.604 24.4339C267.577 24.3795 271.441 25.6083 274.62 27.9837C277.744 30.2771 279.936 33.5811 280.813 37.3491L270.729 39.752C270.427 38.0317 269.523 36.4483 268.18 35.3015C266.865 34.2909 265.248 33.745 263.604 33.7994C262.508 33.745 261.439 33.936 260.425 34.3456C259.411 34.7552 258.507 35.3834 257.767 36.1479C256.26 37.8135 255.465 39.9706 255.547 42.2096C255.465 44.451 256.262 46.6356 257.767 48.2986C258.507 49.0903 259.438 49.6912 260.452 50.1008C261.466 50.5104 262.535 50.7015 263.631 50.6467C267.44 50.7015 269.879 48.7354 271.003 44.776ZM295.255 44.9946H320L319.973 42.264C319.891 36.9123 318.191 32.6256 314.876 29.3488C313.255 27.7606 311.336 26.5079 309.23 25.6624C307.115 24.8154 304.85 24.4067 302.572 24.4611C300.214 24.4067 297.886 24.8163 295.694 25.6899C293.501 26.5363 291.528 27.8471 289.856 29.4851C288.13 31.1511 286.787 33.1168 285.91 35.3287C285.033 37.5405 284.595 39.8887 284.677 42.264C284.595 44.6397 285.033 46.9879 285.91 49.1997C286.811 51.4051 288.154 53.4028 289.856 55.0701C291.528 56.7085 293.501 57.9917 295.665 58.8381C297.83 59.712 300.161 60.1216 302.489 60.0669C306.107 60.1488 309.669 59.2477 312.766 57.4186C315.724 55.5616 318.026 52.8039 319.287 49.5546L309.723 47.616C308.3 50.1827 305.916 51.4931 302.545 51.4931C300.818 51.5203 299.145 50.8925 297.886 49.7456C296.516 48.4896 295.612 46.824 295.255 44.9946ZM295.42 38.4413C295.856 36.8576 296.844 35.4925 298.213 34.5642C299.477 33.6592 300.991 33.1723 302.545 33.1715C304.08 33.1443 305.559 33.6083 306.791 34.5095C308.056 35.498 308.954 36.8825 309.34 38.4413H295.42Z" fill="white"/>
</svg>
