<svg width="138" height="33" viewBox="0 0 138 33" fill="none" xmlns="http://www.w3.org/2000/svg">
<g clip-path="url(#clip0_705_201)">
<path d="M43.06 19.4999C42.68 16.1899 41.92 12.8699 40.56 9.88995C39.09 6.62995 36.8 3.70994 33.7 1.93994C30.27 0.0099448 25.75 -0.540055 21.94 0.559945C20.09 1.05994 18.4 1.99994 16.93 3.26994C14.86 5.03994 13.28 7.35994 12.19 9.89994C11.64 11.1699 11.2 12.4799 10.83 13.8199H4.94C4.96 13.7699 4.98 13.7099 5 13.6499C5.6 12.2699 6.36 10.8899 7.23 9.66994C8.1 8.45994 9.14 7.34994 10.28 6.40994C10.82 5.96994 11.37 5.57994 11.91 5.13994C12.56 4.58994 13.6 3.75994 12.4 2.53994C12.29 2.42994 12.18 2.42994 12.07 2.42994C8.84 3.24994 4.35 5.86995 1.83 13.7999H0.22C0.11 13.7999 0 13.9099 0 14.0199V14.8999C0 15.0699 0.16 15.2299 0.33 15.2299H1.43C0.76 17.7399 0.28 20.6899 0.05 24.1899C0.05 24.3599 0.16 24.5199 0.38 24.5199H2.56C2.72 24.5799 2.83 24.4099 2.83 24.2399C2.83 23.1399 2.88 22.0899 3.05 20.9799C3.21 19.8199 3.38 18.6599 3.7 17.5599C3.89 16.7799 4.13 16.0099 4.4 15.2399H10.48C9.97 17.5299 9.67 19.8699 9.52 22.1999C9.47 23.4099 9.41 24.6299 9.41 25.8399C9.41 26.1699 9.63 26.3899 9.95 26.3899H11.91C12.18 26.3899 12.45 26.1699 12.45 25.8399C12.48 22.7199 12.73 18.8499 13.62 15.2399H31.41C32.19 17.6199 32.75 20.5099 32.86 24.0199C32.86 24.2999 33.08 24.5699 33.4 24.5699H35.25C35.52 24.5699 35.79 24.3499 35.79 24.0199C35.79 22.6799 35.7 19.0099 34.56 15.2399H38.93C38.95 15.3099 38.98 15.3899 39 15.4599C40.03 18.7699 40.31 22.3599 40.25 25.8399C40.25 26.1699 40.47 26.3899 40.79 26.3899H42.8C43.07 26.3899 43.34 26.1699 43.34 25.8399C43.39 23.7399 43.29 21.5899 43.01 19.4899L43.06 19.4999ZM34.11 13.8099C32.8 10.3299 30.49 7.00994 26.41 5.63994C25.81 5.41994 25.43 6.18994 25.87 6.57994C27.43 7.86994 29.44 10.1299 30.92 13.8099H14.03C15.15 10.1499 17.02 6.91994 20.14 5.24994C23.95 3.25994 28.9 4.08994 32.5 6.29994C35.28 7.98994 37.26 10.7199 38.46 13.8099H34.1H34.11Z" fill="black"/>
<path d="M52.3125 22.9V4.71997C52.3125 3.51997 53.0525 2.71997 54.1325 2.71997H61.1125C65.7325 2.71997 68.2925 4.76997 68.2925 8.45997C68.2925 10.86 66.9625 12.45 64.5525 13.2C67.7025 13.95 69.1725 16.05 69.1725 18.64C69.1725 22.78 66.6625 24.83 61.1125 24.83H54.0825C53.0025 24.88 52.3125 24.08 52.3125 22.88V22.9ZM60.6725 12.36C63.1825 12.36 64.7525 11.01 64.7525 8.85997C64.7525 6.70997 63.3725 5.50997 60.6225 5.50997H55.6525V12.35H60.6625L60.6725 12.36ZM60.8225 22.05C64.2625 22.05 65.6425 21 65.6425 18.4C65.6425 16.05 64.0725 14.9 60.9225 14.9H55.6625V22.04H60.8225V22.05Z" fill="black"/>
<path d="M81.3213 10.21C81.3213 11.51 80.3912 12.01 80.3412 11.96C79.8512 11.56 79.2113 11.26 78.3213 11.26C75.7613 11.26 74.7313 13.86 74.7313 17.65V23.44C74.7313 24.69 74.0913 25.04 73.3013 25.04H72.9613C72.1213 25.04 71.5312 24.64 71.5312 23.44V8.60996C71.5312 8.50996 72.0713 8.20996 72.7113 8.20996C73.4513 8.20996 74.2812 8.55996 74.6312 9.85996C74.6812 10.21 74.7812 10.61 74.7812 11.11C75.4712 9.05996 76.8012 7.95996 78.8112 7.95996C80.3812 8.00996 81.3213 8.80996 81.3213 10.21Z" fill="black"/>
<path d="M84.7585 1.12988C85.9885 1.12988 86.6785 1.87988 86.6785 3.12988C86.6785 4.37988 85.9885 5.07988 84.7585 5.07988C83.5285 5.07988 82.8385 4.32988 82.8385 3.12988C82.7885 1.87988 83.4785 1.12988 84.7585 1.12988ZM83.0385 9.85988C83.0385 8.60988 83.6785 8.20988 84.5085 8.20988H84.8485C85.6885 8.20988 86.2785 8.60988 86.2785 9.85988V23.3899C86.2785 24.6399 85.6885 24.9899 84.8485 24.9899H84.5085C83.6685 24.9899 83.0385 24.5899 83.0385 23.3899V9.85988Z" fill="black"/>
<path d="M88.6875 16.65C88.6875 11.46 91.7875 7.96002 96.1575 7.96002C98.7175 7.96002 100.677 9.21002 101.567 10.66V1.67002C101.567 1.57002 102.107 1.27002 102.747 1.27002C103.777 1.27002 104.817 1.82002 104.817 4.17002V23.34C104.817 24.59 104.227 24.94 103.387 24.94H103.037C102.207 24.94 101.618 24.54 101.618 23.34V22.09C100.388 24.09 98.5675 25.29 96.0575 25.29C91.8275 25.34 88.6875 21.89 88.6875 16.65ZM101.618 14.21C100.778 12.11 99.2075 10.81 96.7475 10.81C93.7975 10.81 91.8275 13.16 91.8275 16.65C91.8275 20.14 93.8475 22.49 96.6975 22.49C99.3075 22.49 101.618 20.44 101.618 17.65V14.2V14.21Z" fill="black"/>
<path d="M106.002 27.5901C106.002 25.1901 108.162 23.6001 111.012 23.0501C110.622 22.7001 110.372 22.2001 110.372 21.5001C110.372 20.8001 110.712 20.2001 111.252 19.7001C108.742 18.9001 107.122 16.8001 107.122 14.2101C107.122 10.7601 109.972 7.97007 113.902 7.97007C115.282 7.97007 116.602 8.37007 117.682 8.97007L118.522 7.37007C119.062 6.47007 119.552 6.07007 120.392 6.07007C121.622 6.07007 122.162 7.42007 122.062 7.52007L119.362 10.4201C120.202 11.4701 120.742 12.7201 120.742 14.0701C120.742 17.5201 117.942 20.0601 113.912 20.0601H113.322C113.172 20.2601 113.172 20.4601 113.172 20.6601C113.172 21.7101 114.692 21.8101 117.452 22.5601C119.662 23.1601 122.072 24.3601 122.072 27.0501C122.072 30.2001 119.022 32.0901 113.812 32.0901C108.452 32.1401 105.992 30.6901 105.992 27.6001L106.002 27.5901ZM118.882 27.1901C118.882 25.8901 117.412 25.3901 115.692 24.9401L114.072 24.5401C111.372 24.6901 109.152 25.6901 109.152 27.4401C109.152 28.9401 110.772 29.7401 113.872 29.7401C117.022 29.7901 118.882 28.8401 118.882 27.1901ZM117.602 14.1601C117.602 11.9601 116.082 10.4201 113.862 10.4201C111.642 10.4201 110.222 11.9201 110.222 14.1601C110.222 16.4001 111.742 17.9101 113.962 17.9101C116.182 17.9101 117.602 16.4101 117.602 14.1601Z" fill="black"/>
<path d="M130.43 8.02002C135 8.02002 138 11.37 138 16.31V16.56C138 17.26 137.75 17.56 137.02 17.56H125.37C125.37 17.76 125.42 17.96 125.42 18.16C125.86 20.86 127.93 22.65 130.73 22.65C133.53 22.65 134.86 21.4 135.69 19.9C135.74 19.85 137.41 20.15 137.41 21.6C137.41 22.3 136.82 23.25 135.69 24C134.56 24.75 132.89 25.35 130.68 25.35C125.67 25.35 122.32 21.9 122.32 16.76C122.32 11.62 125.76 8.02002 130.43 8.02002ZM130.38 10.56C127.77 10.56 125.76 12.51 125.37 15.25H134.81C134.71 12.4 133.04 10.56 130.39 10.56H130.38Z" fill="black"/>
</g>
<defs>
<clipPath id="clip0_705_201">
<rect width="138" height="32.4" fill="white"/>
</clipPath>
</defs>
</svg>
