<svg width="254" height="50" viewBox="0 0 254 50" fill="none" xmlns="http://www.w3.org/2000/svg">
<path d="M219.922 47.7523V42.9489H226.207V5.13494H219.922V0.331543H231.828V47.7523H219.922Z" fill="black"/>
<path d="M202.402 43.6642C199.744 43.6642 197.632 42.9488 196.065 41.518C194.532 40.0531 193.766 38.1454 193.766 35.7948C193.766 33.4783 194.566 31.6387 196.167 30.276C197.803 28.8793 200.119 28.0617 203.117 27.8232L210.68 27.21V26.6479C210.68 25.4896 210.458 24.5698 210.015 23.8885C209.607 23.1731 209.01 22.6621 208.227 22.3555C207.443 22.0148 206.524 21.8445 205.468 21.8445C203.628 21.8445 202.214 22.2192 201.226 22.9687C200.238 23.6841 199.744 24.7061 199.744 26.0347H194.43C194.43 24.1951 194.89 22.611 195.81 21.2824C196.763 19.9197 198.092 18.8637 199.795 18.1142C201.533 17.3647 203.526 16.99 205.774 16.99C208.057 16.99 210.015 17.3988 211.651 18.2164C213.286 18.9999 214.546 20.1923 215.432 21.7934C216.318 23.3605 216.761 25.3193 216.761 27.6699V42.9999H211.293L210.833 39.2696C210.288 40.5641 209.232 41.6202 207.665 42.4378C206.132 43.2554 204.377 43.6642 202.402 43.6642ZM204.394 38.963C206.336 38.963 207.869 38.4179 208.993 37.3278C210.152 36.2377 210.731 34.7217 210.731 32.7799V31.4513L205.468 31.8601C203.526 32.0304 202.146 32.4392 201.328 33.0865C200.511 33.6997 200.102 34.5173 200.102 35.5393C200.102 36.6635 200.477 37.5152 201.226 38.0943C201.976 38.6734 203.032 38.963 204.394 38.963Z" fill="black"/>
<path d="M182.215 43V17.7566H188.45V43H182.215ZM185.281 12.6977C184.225 12.6977 183.323 12.34 182.573 11.6246C181.858 10.8752 181.5 9.9724 181.5 8.91633C181.5 7.86027 181.858 6.97453 182.573 6.25913C183.323 5.54373 184.225 5.18604 185.281 5.18604C186.337 5.18604 187.223 5.54373 187.939 6.25913C188.688 6.97453 189.063 7.86027 189.063 8.91633C189.063 9.9724 188.688 10.8752 187.939 11.6246C187.223 12.34 186.337 12.6977 185.281 12.6977Z" fill="black"/>
<path d="M177.997 17.6545V23.4288H175.698C173.415 23.4288 171.627 24.042 170.332 25.2684C169.038 26.4607 168.39 28.2833 168.39 30.7361V43.0001H162.156V17.8078H168.033L168.544 23.02H167.931C168.271 21.3507 169.072 19.9881 170.332 18.932C171.593 17.8759 173.228 17.3479 175.238 17.3479C175.681 17.3479 176.124 17.3649 176.566 17.399C177.009 17.4331 177.486 17.5182 177.997 17.6545Z" fill="black"/>
<path d="M145.002 43.6642C142.515 43.6642 140.3 43.1021 138.359 41.9779C136.451 40.8196 134.952 39.2526 133.862 37.2767C132.772 35.2668 132.227 32.9673 132.227 30.3782C132.227 27.7551 132.755 25.4385 133.811 23.4286C134.867 21.4187 136.349 19.8516 138.256 18.7274C140.164 17.5691 142.344 16.99 144.797 16.99C147.352 16.99 149.549 17.5351 151.389 18.6252C153.229 19.6813 154.642 21.1632 155.63 23.0709C156.652 24.9786 157.163 27.2611 157.163 29.9183V31.809L135.497 31.8601L135.599 27.8743H150.98C150.98 26.1369 150.418 24.7402 149.294 23.6841C148.204 22.628 146.722 22.1 144.848 22.1C143.383 22.1 142.14 22.4066 141.118 23.0198C140.13 23.633 139.381 24.5528 138.87 25.7792C138.359 27.0056 138.103 28.5045 138.103 30.276C138.103 33.0013 138.682 35.0624 139.84 36.4591C141.033 37.8558 142.787 38.5542 145.104 38.5542C146.807 38.5542 148.204 38.2306 149.294 37.5833C150.418 36.936 151.151 36.0162 151.491 34.8239H157.266C156.72 37.5833 155.358 39.7465 153.178 41.3136C151.031 42.8807 148.306 43.6642 145.002 43.6642Z" fill="black"/>
<path d="M114.086 17.7566H130.029V22.9688H114.086V17.7566ZM125.175 43H118.94V9.88721H125.175V43Z" fill="black"/>
<path d="M99.6891 43.6642C97.2022 43.6642 94.9879 43.1021 93.0461 41.9779C91.1383 40.8196 89.6394 39.2526 88.5493 37.2767C87.4591 35.2668 86.9141 32.9673 86.9141 30.3782C86.9141 27.7551 87.4421 25.4385 88.4982 23.4286C89.5542 21.4187 91.0361 19.8516 92.9439 18.7274C94.8516 17.5691 97.0319 16.99 99.4847 16.99C102.04 16.99 104.237 17.5351 106.077 18.6252C107.916 19.6813 109.33 21.1632 110.318 23.0709C111.34 24.9786 111.851 27.2611 111.851 29.9183V31.809L90.1845 31.8601L90.2867 27.8743H105.668C105.668 26.1369 105.106 24.7402 103.981 23.6841C102.891 22.628 101.409 22.1 99.5358 22.1C98.0709 22.1 96.8275 22.4066 95.8055 23.0198C94.8175 23.633 94.0681 24.5528 93.5571 25.7792C93.0461 27.0056 92.7906 28.5045 92.7906 30.276C92.7906 33.0013 93.3697 35.0624 94.528 36.4591C95.7203 37.8558 97.4747 38.5542 99.7913 38.5542C101.495 38.5542 102.891 38.2306 103.981 37.5833C105.106 36.936 105.838 36.0162 106.179 34.8239H111.953C111.408 37.5833 110.045 39.7465 107.865 41.3136C105.719 42.8807 102.994 43.6642 99.6891 43.6642Z" fill="black"/>
<path d="M69.3281 17.7567H85.1691V22.9689H69.3281V17.7567ZM85.2202 5.23719V10.5516C84.8796 10.5516 84.5219 10.5516 84.1471 10.5516C83.8065 10.5516 83.4488 10.5516 83.074 10.5516C81.507 10.5516 80.4509 10.9263 79.9058 11.6758C79.3948 12.4253 79.1393 13.4302 79.1393 14.6907V43.0001H72.9562V14.6907C72.9562 12.3742 73.331 10.5175 74.0804 9.12079C74.8299 7.68999 75.886 6.65096 77.2486 6.00369C78.6113 5.32236 80.1954 4.98169 82.0009 4.98169C82.5119 4.98169 83.04 4.99872 83.585 5.03279C84.1642 5.06686 84.7092 5.13499 85.2202 5.23719Z" fill="black"/>
<path d="M51.4484 43.6642C48.7912 43.6642 46.6791 42.9488 45.112 41.518C43.579 40.0531 42.8125 38.1454 42.8125 35.7948C42.8125 33.4783 43.6131 31.6387 45.2142 30.276C46.8494 28.8793 49.1659 28.0617 52.1638 27.8232L59.7266 27.21V26.6479C59.7266 25.4896 59.5052 24.5698 59.0623 23.8885C58.6535 23.1731 58.0573 22.6621 57.2738 22.3555C56.4903 22.0148 55.5705 21.8445 54.5144 21.8445C52.6748 21.8445 51.261 22.2192 50.2731 22.9687C49.2852 23.6841 48.7912 24.7061 48.7912 26.0347H43.4768C43.4768 24.1951 43.9367 22.611 44.8565 21.2824C45.8104 19.9197 47.139 18.8637 48.8423 18.1142C50.5797 17.3647 52.5726 16.99 54.821 16.99C57.1035 16.99 59.0623 17.3988 60.6975 18.2164C62.3327 18.9999 63.5932 20.1923 64.4789 21.7934C65.3646 23.3605 65.8075 25.3193 65.8075 27.6699V42.9999H60.3398L59.8799 39.2696C59.3348 40.5641 58.2788 41.6202 56.7117 42.4378C55.1787 43.2554 53.4243 43.6642 51.4484 43.6642ZM53.4413 38.963C55.3831 38.963 56.9161 38.4179 58.0403 37.3278C59.1986 36.2377 59.7777 34.7217 59.7777 32.7799V31.4513L54.5144 31.8601C52.5726 32.0304 51.1929 32.4392 50.3753 33.0865C49.5577 33.6997 49.1489 34.5173 49.1489 35.5393C49.1489 36.6635 49.5236 37.5152 50.2731 38.0943C51.0226 38.6734 52.0786 38.963 53.4413 38.963Z" fill="black"/>
<path d="M14.3594 30.3271C14.3594 27.738 14.8874 25.4385 15.9435 23.4286C17.0336 21.4187 18.5155 19.8516 20.3892 18.7274C22.2969 17.5691 24.4942 16.99 26.9811 16.99C30.4218 16.99 33.2323 17.8928 35.4126 19.6983C37.6269 21.4698 38.9044 23.8715 39.2451 26.9034H33.0109C32.6361 25.4726 31.9378 24.3995 30.9158 23.6841C29.9278 22.9346 28.6844 22.5599 27.1855 22.5599C25.8909 22.5599 24.7327 22.8835 23.7107 23.5308C22.7227 24.144 21.9562 25.0297 21.4112 26.188C20.8661 27.3463 20.5936 28.726 20.5936 30.3271C20.5936 31.9282 20.8491 33.3079 21.3601 34.4662C21.8711 35.6245 22.6035 36.5272 23.5574 37.1745C24.5453 37.7877 25.7036 38.0943 27.0322 38.0943C28.5992 38.0943 29.8938 37.7196 30.9158 36.9701C31.9718 36.2206 32.6702 35.1475 33.0109 33.7508H39.2962C39.0236 35.7267 38.3253 37.4641 37.2011 38.963C36.1109 40.4279 34.6972 41.5861 32.9598 42.4378C31.2224 43.2554 29.2465 43.6642 27.0322 43.6642C24.4772 43.6642 22.2458 43.1191 20.3381 42.029C18.4303 40.9048 16.9484 39.3548 15.8924 37.3789C14.8704 35.369 14.3594 33.0184 14.3594 30.3271Z" fill="black"/>
<path d="M6.09397 42.9489H12.3793V47.7523H0.421875V0.331543H12.3793V5.13494H6.09397V42.9489Z" fill="black"/>
<path d="M246.197 49.7601C245.157 49.7601 244.19 49.5668 243.297 49.1801C242.404 48.7935 241.617 48.2601 240.937 47.5801C240.27 46.8868 239.744 46.0801 239.357 45.1601C238.984 44.2268 238.797 43.2335 238.797 42.1801C238.797 41.1135 238.984 40.1268 239.357 39.2201C239.744 38.3001 240.27 37.5001 240.937 36.8201C241.617 36.1268 242.404 35.5868 243.297 35.2001C244.19 34.8135 245.157 34.6201 246.197 34.6201C247.237 34.6201 248.204 34.8135 249.097 35.2001C249.99 35.5868 250.777 36.1268 251.457 36.8201C252.137 37.5001 252.664 38.3001 253.037 39.2201C253.424 40.1268 253.617 41.1135 253.617 42.1801C253.617 43.2335 253.424 44.2268 253.037 45.1601C252.664 46.0801 252.137 46.8868 251.457 47.5801C250.777 48.2601 249.99 48.7935 249.097 49.1801C248.204 49.5668 247.237 49.7601 246.197 49.7601ZM246.197 48.2801C247.037 48.2801 247.81 48.1268 248.517 47.8201C249.224 47.5001 249.837 47.0668 250.357 46.5201C250.89 45.9735 251.304 45.3335 251.597 44.6001C251.89 43.8535 252.037 43.0468 252.037 42.1801C252.037 41.3135 251.89 40.5135 251.597 39.7801C251.304 39.0335 250.89 38.3868 250.357 37.8401C249.837 37.2801 249.224 36.8535 248.517 36.5601C247.81 36.2535 247.037 36.1001 246.197 36.1001C245.37 36.1001 244.604 36.2535 243.897 36.5601C243.19 36.8668 242.57 37.3001 242.037 37.8601C241.504 38.4068 241.09 39.0468 240.797 39.7801C240.504 40.5135 240.357 41.3135 240.357 42.1801C240.357 43.0468 240.504 43.8535 240.797 44.6001C241.09 45.3335 241.504 45.9735 242.037 46.5201C242.57 47.0668 243.19 47.5001 243.897 47.8201C244.604 48.1268 245.37 48.2801 246.197 48.2801ZM242.457 42.2001C242.457 41.4268 242.617 40.7401 242.937 40.1401C243.27 39.5401 243.724 39.0734 244.297 38.7401C244.87 38.4068 245.524 38.2401 246.257 38.2401C247.257 38.2401 248.084 38.5068 248.737 39.0401C249.39 39.5601 249.77 40.2668 249.877 41.1601H247.997C247.784 40.3201 247.224 39.9001 246.317 39.9001C245.73 39.9001 245.25 40.1135 244.877 40.5401C244.504 40.9535 244.317 41.5001 244.317 42.1801C244.317 42.8868 244.49 43.4468 244.837 43.8601C245.197 44.2735 245.67 44.4801 246.257 44.4801C247.204 44.4801 247.79 44.0601 248.017 43.2201H249.877C249.81 43.7934 249.61 44.3001 249.277 44.7401C248.944 45.1801 248.517 45.5268 247.997 45.7801C247.49 46.0201 246.91 46.1401 246.257 46.1401C245.51 46.1401 244.85 45.9801 244.277 45.6601C243.704 45.3268 243.257 44.8668 242.937 44.2801C242.617 43.6801 242.457 42.9868 242.457 42.2001Z" fill="black"/>
</svg>
