<svg width="254" height="50" viewBox="0 0 254 50" fill="none" xmlns="http://www.w3.org/2000/svg">
<path d="M219.922 47.4208V42.6174H226.207V4.8034H219.922V0H231.828V47.4208H219.922Z" fill="white"/>
<path d="M202.402 43.3326C199.744 43.3326 197.632 42.6172 196.065 41.1864C194.532 39.7216 193.766 37.8138 193.766 35.4632C193.766 33.1467 194.566 31.3071 196.167 29.9444C197.803 28.5477 200.119 27.7301 203.117 27.4916L210.68 26.8784V26.3163C210.68 25.1581 210.458 24.2383 210.015 23.5569C209.607 22.8415 209.01 22.3305 208.227 22.0239C207.443 21.6833 206.524 21.5129 205.468 21.5129C203.628 21.5129 202.214 21.8877 201.226 22.6371C200.238 23.3525 199.744 24.3745 199.744 25.7031H194.43C194.43 23.8635 194.89 22.2794 195.81 20.9508C196.763 19.5882 198.092 18.5321 199.795 17.7826C201.533 17.0332 203.526 16.6584 205.774 16.6584C208.057 16.6584 210.015 17.0672 211.651 17.8848C213.286 18.6684 214.546 19.8607 215.432 21.4618C216.318 23.0289 216.761 24.9877 216.761 27.3383V42.6683H211.293L210.833 38.938C210.288 40.2326 209.232 41.2886 207.665 42.1062C206.132 42.9238 204.377 43.3326 202.402 43.3326ZM204.394 38.6314C206.336 38.6314 207.869 38.0864 208.993 36.9962C210.152 35.9061 210.731 34.3901 210.731 32.4483V31.1197L205.468 31.5285C203.526 31.6989 202.146 32.1077 201.328 32.7549C200.511 33.3681 200.102 34.1857 200.102 35.2077C200.102 36.3319 200.477 37.1836 201.226 37.7627C201.976 38.3419 203.032 38.6314 204.394 38.6314Z" fill="white"/>
<path d="M182.215 42.6685V17.4251H188.45V42.6685H182.215ZM185.281 12.3662C184.225 12.3662 183.323 12.0085 182.573 11.2931C181.858 10.5436 181.5 9.64086 181.5 8.58479C181.5 7.52872 181.858 6.64299 182.573 5.92759C183.323 5.21219 184.225 4.85449 185.281 4.85449C186.337 4.85449 187.223 5.21219 187.939 5.92759C188.688 6.64299 189.063 7.52872 189.063 8.58479C189.063 9.64086 188.688 10.5436 187.939 11.2931C187.223 12.0085 186.337 12.3662 185.281 12.3662Z" fill="white"/>
<path d="M177.997 17.323V23.0973H175.698C173.415 23.0973 171.627 23.7105 170.332 24.9369C169.038 26.1292 168.39 27.9518 168.39 30.4046V42.6686H162.156V17.4763H168.033L168.544 22.6885H167.931C168.271 21.0192 169.072 19.6565 170.332 18.6005C171.593 17.5444 173.228 17.0164 175.238 17.0164C175.681 17.0164 176.124 17.0334 176.566 17.0675C177.009 17.1015 177.486 17.1867 177.997 17.323Z" fill="white"/>
<path d="M145.002 43.3326C142.515 43.3326 140.3 42.7705 138.359 41.6463C136.451 40.4881 134.952 38.921 133.862 36.9451C132.772 34.9352 132.227 32.6357 132.227 30.0466C132.227 27.4235 132.755 25.107 133.811 23.097C134.867 21.0871 136.349 19.52 138.256 18.3958C140.164 17.2376 142.344 16.6584 144.797 16.6584C147.352 16.6584 149.549 17.2035 151.389 18.2936C153.229 19.3497 154.642 20.8316 155.63 22.7393C156.652 24.6471 157.163 26.9295 157.163 29.5867V31.4774L135.497 31.5285L135.599 27.5427H150.98C150.98 25.8053 150.418 24.4086 149.294 23.3525C148.204 22.2965 146.722 21.7684 144.848 21.7684C143.383 21.7684 142.14 22.075 141.118 22.6882C140.13 23.3014 139.381 24.2212 138.87 25.4476C138.359 26.674 138.103 28.173 138.103 29.9444C138.103 32.6698 138.682 34.7308 139.84 36.1275C141.033 37.5243 142.787 38.2226 145.104 38.2226C146.807 38.2226 148.204 37.899 149.294 37.2517C150.418 36.6045 151.151 35.6847 151.491 34.4923H157.266C156.72 37.2517 155.358 39.415 153.178 40.982C151.031 42.5491 148.306 43.3326 145.002 43.3326Z" fill="white"/>
<path d="M114.086 17.4251H130.029V22.6373H114.086V17.4251ZM125.175 42.6685H118.94V9.55566H125.175V42.6685Z" fill="white"/>
<path d="M99.6891 43.3326C97.2022 43.3326 94.9879 42.7705 93.0461 41.6463C91.1383 40.4881 89.6394 38.921 88.5493 36.9451C87.4591 34.9352 86.9141 32.6357 86.9141 30.0466C86.9141 27.4235 87.4421 25.107 88.4982 23.097C89.5542 21.0871 91.0361 19.52 92.9439 18.3958C94.8516 17.2376 97.0319 16.6584 99.4847 16.6584C102.04 16.6584 104.237 17.2035 106.077 18.2936C107.916 19.3497 109.33 20.8316 110.318 22.7393C111.34 24.6471 111.851 26.9295 111.851 29.5867V31.4774L90.1845 31.5285L90.2867 27.5427H105.668C105.668 25.8053 105.106 24.4086 103.981 23.3525C102.891 22.2965 101.409 21.7684 99.5358 21.7684C98.0709 21.7684 96.8275 22.075 95.8055 22.6882C94.8175 23.3014 94.0681 24.2212 93.5571 25.4476C93.0461 26.674 92.7906 28.173 92.7906 29.9444C92.7906 32.6698 93.3697 34.7308 94.528 36.1275C95.7203 37.5243 97.4747 38.2226 99.7913 38.2226C101.495 38.2226 102.891 37.899 103.981 37.2517C105.106 36.6045 105.838 35.6847 106.179 34.4923H111.953C111.408 37.2517 110.045 39.415 107.865 40.982C105.719 42.5491 102.994 43.3326 99.6891 43.3326Z" fill="white"/>
<path d="M69.3281 17.4251H85.1691V22.6373H69.3281V17.4251ZM85.2202 4.90565V10.22C84.8796 10.22 84.5219 10.22 84.1471 10.22C83.8065 10.22 83.4488 10.22 83.074 10.22C81.507 10.22 80.4509 10.5948 79.9058 11.3442C79.3948 12.0937 79.1393 13.0987 79.1393 14.3591V42.6685H72.9562V14.3591C72.9562 12.0426 73.331 10.186 74.0804 8.78925C74.8299 7.35845 75.886 6.31941 77.2486 5.67215C78.6113 4.99081 80.1954 4.65015 82.0009 4.65015C82.5119 4.65015 83.04 4.66718 83.585 4.70125C84.1642 4.73531 84.7092 4.80345 85.2202 4.90565Z" fill="white"/>
<path d="M51.4484 43.3326C48.7912 43.3326 46.6791 42.6172 45.112 41.1864C43.579 39.7216 42.8125 37.8138 42.8125 35.4632C42.8125 33.1467 43.6131 31.3071 45.2142 29.9444C46.8494 28.5477 49.1659 27.7301 52.1638 27.4916L59.7266 26.8784V26.3163C59.7266 25.1581 59.5052 24.2383 59.0623 23.5569C58.6535 22.8415 58.0573 22.3305 57.2738 22.0239C56.4903 21.6833 55.5705 21.5129 54.5144 21.5129C52.6748 21.5129 51.261 21.8877 50.2731 22.6371C49.2852 23.3525 48.7912 24.3745 48.7912 25.7031H43.4768C43.4768 23.8635 43.9367 22.2794 44.8565 20.9508C45.8104 19.5882 47.139 18.5321 48.8423 17.7826C50.5797 17.0332 52.5726 16.6584 54.821 16.6584C57.1035 16.6584 59.0623 17.0672 60.6975 17.8848C62.3327 18.6684 63.5932 19.8607 64.4789 21.4618C65.3646 23.0289 65.8075 24.9877 65.8075 27.3383V42.6683H60.3398L59.8799 38.938C59.3348 40.2326 58.2788 41.2886 56.7117 42.1062C55.1787 42.9238 53.4243 43.3326 51.4484 43.3326ZM53.4413 38.6314C55.3831 38.6314 56.9161 38.0864 58.0403 36.9962C59.1986 35.9061 59.7777 34.3901 59.7777 32.4483V31.1197L54.5144 31.5285C52.5726 31.6989 51.1929 32.1077 50.3753 32.7549C49.5577 33.3681 49.1489 34.1857 49.1489 35.2077C49.1489 36.3319 49.5236 37.1836 50.2731 37.7627C51.0226 38.3419 52.0786 38.6314 53.4413 38.6314Z" fill="white"/>
<path d="M14.3594 29.9955C14.3594 27.4065 14.8874 25.107 15.9435 23.097C17.0336 21.0871 18.5155 19.52 20.3892 18.3958C22.2969 17.2376 24.4942 16.6584 26.9811 16.6584C30.4218 16.6584 33.2323 17.5612 35.4126 19.3667C37.6269 21.1382 38.9044 23.5399 39.2451 26.5718H33.0109C32.6361 25.141 31.9378 24.0679 30.9158 23.3525C29.9278 22.6031 28.6844 22.2283 27.1855 22.2283C25.8909 22.2283 24.7327 22.552 23.7107 23.1992C22.7227 23.8124 21.9562 24.6982 21.4112 25.8564C20.8661 27.0147 20.5936 28.3944 20.5936 29.9955C20.5936 31.5967 20.8491 32.9764 21.3601 34.1346C21.8711 35.2929 22.6035 36.1957 23.5574 36.8429C24.5453 37.4561 25.7036 37.7627 27.0322 37.7627C28.5992 37.7627 29.8938 37.388 30.9158 36.6385C31.9718 35.8891 32.6702 34.816 33.0109 33.4192H39.2962C39.0236 35.3951 38.3253 37.1325 37.2011 38.6314C36.1109 40.0963 34.6972 41.2546 32.9598 42.1062C31.2224 42.9238 29.2465 43.3326 27.0322 43.3326C24.4772 43.3326 22.2458 42.7876 20.3381 41.6974C18.4303 40.5732 16.9484 39.0232 15.8924 37.0473C14.8704 35.0374 14.3594 32.6868 14.3594 29.9955Z" fill="white"/>
<path d="M6.09397 42.6174H12.3793V47.4208H0.421875V0H12.3793V4.8034H6.09397V42.6174Z" fill="white"/>
<path d="M246.197 49.4286C245.157 49.4286 244.19 49.2352 243.297 48.8486C242.404 48.4619 241.617 47.9286 240.937 47.2486C240.27 46.5552 239.744 45.7486 239.357 44.8286C238.984 43.8952 238.797 42.9019 238.797 41.8486C238.797 40.7819 238.984 39.7952 239.357 38.8886C239.744 37.9686 240.27 37.1686 240.937 36.4886C241.617 35.7952 242.404 35.2552 243.297 34.8686C244.19 34.4819 245.157 34.2886 246.197 34.2886C247.237 34.2886 248.204 34.4819 249.097 34.8686C249.99 35.2552 250.777 35.7952 251.457 36.4886C252.137 37.1686 252.664 37.9686 253.037 38.8886C253.424 39.7952 253.617 40.7819 253.617 41.8486C253.617 42.9019 253.424 43.8952 253.037 44.8286C252.664 45.7486 252.137 46.5552 251.457 47.2486C250.777 47.9286 249.99 48.4619 249.097 48.8486C248.204 49.2352 247.237 49.4286 246.197 49.4286ZM246.197 47.9486C247.037 47.9486 247.81 47.7952 248.517 47.4886C249.224 47.1686 249.837 46.7352 250.357 46.1886C250.89 45.6419 251.304 45.0019 251.597 44.2686C251.89 43.5219 252.037 42.7152 252.037 41.8486C252.037 40.9819 251.89 40.1819 251.597 39.4486C251.304 38.7019 250.89 38.0552 250.357 37.5086C249.837 36.9486 249.224 36.5219 248.517 36.2286C247.81 35.9219 247.037 35.7686 246.197 35.7686C245.37 35.7686 244.604 35.9219 243.897 36.2286C243.19 36.5352 242.57 36.9686 242.037 37.5286C241.504 38.0752 241.09 38.7152 240.797 39.4486C240.504 40.1819 240.357 40.9819 240.357 41.8486C240.357 42.7152 240.504 43.5219 240.797 44.2686C241.09 45.0019 241.504 45.6419 242.037 46.1886C242.57 46.7352 243.19 47.1686 243.897 47.4886C244.604 47.7952 245.37 47.9486 246.197 47.9486ZM242.457 41.8686C242.457 41.0952 242.617 40.4086 242.937 39.8086C243.27 39.2086 243.724 38.7419 244.297 38.4086C244.87 38.0752 245.524 37.9086 246.257 37.9086C247.257 37.9086 248.084 38.1752 248.737 38.7086C249.39 39.2286 249.77 39.9352 249.877 40.8286H247.997C247.784 39.9886 247.224 39.5686 246.317 39.5686C245.73 39.5686 245.25 39.7819 244.877 40.2086C244.504 40.6219 244.317 41.1686 244.317 41.8486C244.317 42.5552 244.49 43.1152 244.837 43.5286C245.197 43.9419 245.67 44.1486 246.257 44.1486C247.204 44.1486 247.79 43.7286 248.017 42.8886H249.877C249.81 43.4619 249.61 43.9686 249.277 44.4086C248.944 44.8486 248.517 45.1952 247.997 45.4486C247.49 45.6886 246.91 45.8086 246.257 45.8086C245.51 45.8086 244.85 45.6486 244.277 45.3286C243.704 44.9952 243.257 44.5352 242.937 43.9486C242.617 43.3486 242.457 42.6552 242.457 41.8686Z" fill="white"/>
</svg>
