<svg width="133" height="23" viewBox="0 0 133 23" fill="none" xmlns="http://www.w3.org/2000/svg">
<g clip-path="url(#clip0_628_52)">
<path d="M58.024 9.8021C57.834 10.4521 57.537 11.1021 57.185 11.6701C56.833 12.2661 56.372 12.8351 55.858 13.2951C55.316 13.7821 54.721 14.1611 54.044 14.4321C53.313 14.7301 52.554 14.8651 51.796 14.8651C50.821 14.8921 49.874 14.7031 48.98 14.3241C48.168 13.9721 47.437 13.4572 46.841 12.8081C46.245 12.1311 45.785 11.3451 45.487 10.5061C45.162 9.5851 45 8.5831 45 7.6091C45 6.6071 45.162 5.5781 45.487 4.6301C45.785 3.7371 46.273 2.9241 46.895 2.2201C47.491 1.5431 48.222 0.975 49.061 0.5961C49.955 0.1901 50.93 0 51.905 0C52.744 0 53.556 0.162 54.314 0.487C55.018 0.785 55.641 1.191 56.183 1.733C56.697 2.2201 57.13 2.789 57.482 3.412C57.807 3.98 57.997 4.603 58.078 5.226H55.181C55.1 4.874 54.937 4.549 54.748 4.251C54.558 3.926 54.314 3.6551 54.044 3.412C53.773 3.168 53.448 2.951 53.096 2.816C52.717 2.6811 52.338 2.599 51.959 2.599C51.363 2.599 50.794 2.735 50.253 3.006C49.765 3.276 49.332 3.628 48.98 4.089C48.628 4.576 48.357 5.118 48.195 5.713C47.843 6.959 47.843 8.286 48.195 9.531C48.33 10.073 48.601 10.587 48.953 11.048C49.278 11.481 49.684 11.833 50.172 12.049C50.686 12.293 51.255 12.428 51.85 12.401C52.229 12.401 52.609 12.347 52.988 12.212C53.34 12.076 53.637 11.914 53.935 11.697C54.206 11.454 54.45 11.183 54.693 10.885C54.91 10.56 55.073 10.235 55.208 9.883H58.051L58.024 9.8021Z" fill="white"/>
<path d="M67.933 9.1796H63.899L65.902 4.7116C65.956 4.8466 66.011 4.9826 66.065 5.1176C66.2 5.4156 66.336 5.7136 66.444 5.9566C66.552 6.2006 66.688 6.4446 66.796 6.6876C66.85 6.7966 66.904 6.9046 66.931 7.0126L67.392 8.0417C67.419 8.0957 67.419 8.1237 67.446 8.1777C67.608 8.4757 67.771 8.8276 67.933 9.1796ZM67.202 0.568604H64.684L58.375 14.5676H61.489C61.597 14.3506 61.705 14.0796 61.841 13.8366C61.949 13.6196 62.03 13.4036 62.139 13.1866C62.355 12.7536 62.545 12.2926 62.707 11.9136C62.734 11.8596 62.734 11.8056 62.761 11.7516H69.016L70.262 14.5676H73.457L67.202 0.568604Z" fill="white"/>
<path d="M75.1953 0.568604H77.7943L84.5103 9.3145V0.568604H87.4343V14.5676H84.9973L78.1463 5.6316V14.5676H75.1953V0.568604Z" fill="white"/>
<path d="M98.6986 9.1796H94.6366L96.6406 4.7116L96.8036 5.1176C96.9386 5.4156 97.0736 5.7136 97.1826 5.9566C97.2906 6.2006 97.4256 6.4446 97.5346 6.6876C97.5886 6.7966 97.6426 6.9046 97.6696 7.0126L98.1296 8.0417C98.1576 8.0957 98.1576 8.1237 98.1846 8.1777C98.3736 8.4757 98.5366 8.8276 98.6986 9.1796ZM97.9676 0.568604H95.4496L89.1406 14.5676H92.2546C92.3626 14.3506 92.4706 14.0796 92.6066 13.8366C92.7146 13.6196 92.7956 13.4036 92.9046 13.1866C93.1206 12.7536 93.3106 12.2926 93.4726 11.9136C93.4996 11.8596 93.4996 11.8056 93.5266 11.7516H99.7816L101.028 14.5676H104.223L97.9676 0.568604Z" fill="white"/>
<path d="M108.632 6.60675V2.81575H111.746C112.693 2.81575 113.397 2.97875 113.804 3.35785C114.21 3.70985 114.426 4.19685 114.426 4.71185C114.453 5.22585 114.21 5.74085 113.776 6.06575C113.37 6.41785 112.693 6.60675 111.746 6.60675H108.632ZM114.318 0.595752C113.533 0.378752 112.72 0.270752 111.908 0.270752H105.68V14.5678H108.632V9.15175H111.042L114.778 14.5678H118.217L114.183 8.90875C115.13 8.63775 115.997 8.06875 116.592 7.28375C117.107 6.52575 117.405 5.63175 117.378 4.71175C117.378 4.08875 117.269 3.46575 117.053 2.89775C116.836 2.35575 116.484 1.89575 116.024 1.51675C115.509 1.08275 114.941 0.785752 114.318 0.595752Z" fill="white"/>
<path d="M123.825 14.5677V9.0707L117.922 0.568604H121.496L125.287 6.2007L129.159 0.568604H132.733L126.804 9.0707V14.5407H123.825V14.5677Z" fill="white"/>
<path d="M50.7954 17.8168H48.9004V22.5008H48.1694V17.8168H46.2734V17.1938H50.7954V17.8168Z" fill="white"/>
<path d="M57.5659 22.5283H53.5859V17.1943H57.5119V17.8173H54.3439V19.4142H57.1329V20.0372H54.3439V21.8782H57.5659V22.5283Z" fill="white"/>
<path d="M64.7976 21.0391C64.7166 21.2561 64.6356 21.4721 64.5266 21.6621C64.4186 21.8781 64.2556 22.0411 64.0666 22.2031C63.8766 22.3661 63.6606 22.5011 63.4166 22.5821C63.1456 22.691 62.8756 22.7181 62.6046 22.7181C62.2526 22.7181 61.9006 22.6641 61.5756 22.5011C61.2776 22.3662 61.0066 22.1761 60.7906 21.9331C60.5736 21.6621 60.4106 21.3641 60.3026 21.0661C60.1946 20.7141 60.1406 20.3351 60.1406 19.9561C60.1406 19.5771 60.1946 19.1981 60.3296 18.8191C60.4386 18.467 60.6006 18.1691 60.8446 17.8981C61.0606 17.6271 61.3316 17.4381 61.6566 17.2751C61.9816 17.1401 62.3336 17.0591 62.6856 17.0591C62.9836 17.0591 63.2816 17.1131 63.5516 17.2211C63.7956 17.3291 64.0126 17.4651 64.2286 17.6271C64.4186 17.7901 64.5536 17.9521 64.6896 18.1691C64.7976 18.3581 64.8786 18.5481 64.9056 18.7651H64.1206C64.0936 18.6291 64.0396 18.4671 63.9586 18.3581C63.8766 18.2232 63.7686 18.1151 63.6606 18.0061C63.5516 17.8981 63.3896 17.8171 63.2546 17.7901C63.0916 17.7361 62.9026 17.6812 62.7396 17.7081C62.4686 17.7081 62.2256 17.7631 61.9816 17.8981C61.7646 18.0061 61.5756 18.1691 61.4396 18.3851C61.2776 18.6021 61.1696 18.8461 61.0876 19.0891C61.0066 19.3601 60.9526 19.6581 60.9796 19.9561C60.9796 20.2271 61.0066 20.5251 61.0876 20.7951C61.1426 21.0391 61.2506 21.2561 61.4126 21.4721C61.5486 21.6621 61.7376 21.8241 61.9546 21.9051C62.1716 22.014 62.4416 22.0681 62.6856 22.0681C62.8476 22.0681 63.0106 22.0411 63.1996 21.9871C63.3626 21.9601 63.4976 21.8781 63.6066 21.7701C63.7146 21.6621 63.8226 21.5531 63.9316 21.4451C64.0126 21.3371 64.0936 21.2011 64.1476 21.0661L64.7976 21.0391Z" fill="white"/>
<path d="M72.0778 22.5283H71.3197V20.2543H68.4497V22.5283H67.7188V17.1943H68.4497V19.6042H71.3197V17.1943H72.0778V22.5283Z" fill="white"/>
<path d="M75.1641 17.1941H75.8681L78.7651 21.2011V17.1941H79.4961V22.5281H78.8461L75.8951 18.4671V22.5281H75.1641V17.1941Z" fill="white"/>
<path d="M85.7021 21.9054C85.4851 22.0134 85.2421 22.0684 84.9981 22.0684C84.7541 22.0684 84.5111 22.0134 84.2941 21.9054C84.0771 21.7974 83.9151 21.6343 83.7531 21.4454C83.5901 21.2284 83.4551 21.0124 83.3731 20.7414C83.2651 20.4704 83.2381 20.1724 83.2381 19.8744C83.2381 19.5764 83.2921 19.2794 83.3731 19.0084C83.4551 18.7644 83.5631 18.5204 83.7531 18.3044C83.8881 18.1144 84.0771 17.9524 84.2941 17.8444C84.7541 17.6274 85.2691 17.6274 85.7021 17.8444C85.9191 17.9524 86.0811 18.1144 86.2441 18.3044C86.4061 18.5204 86.5411 18.7374 86.6231 19.0084C86.7041 19.2794 86.7581 19.5764 86.7581 19.8744C86.7581 20.1724 86.7041 20.4704 86.6231 20.7414C86.5411 20.9844 86.4331 21.2284 86.2441 21.4454C86.0811 21.6344 85.9191 21.7704 85.7021 21.9054ZM86.0271 17.3024C85.7021 17.1404 85.3501 17.0584 84.9711 17.0854C84.6191 17.0854 84.2401 17.1404 83.9151 17.3024C83.5901 17.4374 83.3191 17.6274 83.1031 17.8984C82.8861 18.1684 82.7241 18.4664 82.6151 18.7914C82.5071 19.1434 82.4531 19.4954 82.4531 19.8744C82.4531 20.2534 82.5071 20.6054 82.6151 20.9574C82.6971 21.2824 82.8861 21.6074 83.1031 21.8514C83.3191 22.0954 83.5901 22.3114 83.9151 22.4474C84.2401 22.6094 84.5921 22.6904 84.9711 22.6634C85.3231 22.6634 85.7021 22.5824 86.0271 22.4474C86.3251 22.3114 86.5961 22.0954 86.8121 21.8514C87.0291 21.5804 87.1911 21.2824 87.3001 20.9574C87.4081 20.6053 87.4621 20.2534 87.4621 19.8744C87.4621 19.4954 87.4081 19.1434 87.3001 18.7914C87.1911 18.4664 87.0291 18.1684 86.8121 17.8984C86.6231 17.6274 86.3521 17.4104 86.0271 17.3024Z" fill="white"/>
<path d="M94.3635 22.5283H90.4375V17.1943H91.1685V21.9053H94.3635V22.5283Z" fill="white"/>
<path d="M100.081 21.9054C99.8644 22.0134 99.6214 22.0684 99.3774 22.0684C99.1334 22.0684 98.8904 22.0134 98.6734 21.9054C98.4564 21.7974 98.2944 21.6343 98.1314 21.4454C97.9694 21.2284 97.8344 21.0124 97.7524 20.7414C97.6444 20.4704 97.6174 20.1724 97.6174 19.8744C97.6174 19.5764 97.6714 19.2794 97.7524 19.0084C97.8344 18.7644 97.9424 18.5204 98.1314 18.3044C98.2674 18.1144 98.4564 17.9524 98.6734 17.8444C99.1334 17.6274 99.6484 17.6274 100.081 17.8444C100.298 17.9524 100.46 18.1144 100.623 18.3044C100.785 18.5204 100.92 18.7374 101.002 19.0084C101.083 19.2794 101.137 19.5764 101.137 19.8744C101.137 20.1724 101.083 20.4704 101.002 20.7414C100.92 20.9844 100.812 21.2284 100.623 21.4454C100.487 21.6344 100.298 21.7704 100.081 21.9054ZM100.433 17.3024C100.108 17.1404 99.7564 17.0584 99.3774 17.0854C99.0254 17.0854 98.6464 17.1404 98.3214 17.3024C98.0234 17.4374 97.7254 17.6544 97.5094 17.8984C97.2924 18.1684 97.1304 18.4664 97.0214 18.7914C96.9134 19.1434 96.8594 19.4954 96.8594 19.8744C96.8594 20.2534 96.9134 20.6054 97.0214 20.9574C97.1034 21.2824 97.2924 21.6074 97.5094 21.8514C97.7254 22.0954 97.9964 22.3114 98.2944 22.4474C98.6194 22.6094 98.9714 22.6904 99.3504 22.6634C99.7024 22.6634 100.081 22.5824 100.406 22.4474C100.704 22.3114 100.975 22.0954 101.191 21.8514C101.408 21.5804 101.57 21.2824 101.679 20.9574C101.787 20.6053 101.841 20.2534 101.841 19.8744C101.841 19.4954 101.787 19.1434 101.679 18.7914C101.57 18.4664 101.408 18.1684 101.191 17.8984C101.002 17.6274 100.731 17.4104 100.433 17.3024Z" fill="white"/>
<path d="M109.309 22.5283H108.659V21.9863C108.47 22.2033 108.253 22.3663 108.009 22.5013C107.711 22.6362 107.359 22.7183 107.035 22.7183C106.71 22.7183 106.385 22.6633 106.087 22.5283C105.789 22.4203 105.545 22.2303 105.329 22.0143C105.112 21.7703 104.95 21.4722 104.814 21.1473C104.679 20.7683 104.625 20.3893 104.625 20.0103C104.625 19.6043 104.679 19.1973 104.814 18.8183C104.922 18.4943 105.112 18.1693 105.329 17.8983C105.545 17.6543 105.816 17.4653 106.114 17.3293C106.412 17.1943 106.764 17.1133 107.089 17.1133C107.359 17.1133 107.603 17.1403 107.874 17.2213C108.091 17.3023 108.307 17.4103 108.524 17.5463C108.713 17.7083 108.876 17.8713 109.011 18.0873C109.147 18.2773 109.228 18.5213 109.282 18.7643H108.524C108.47 18.6023 108.415 18.4663 108.334 18.3043C108.253 18.1693 108.118 18.0603 107.982 17.9793C107.847 17.8983 107.711 17.8173 107.549 17.7623C107.387 17.7083 107.224 17.6813 107.035 17.7083C106.791 17.7083 106.574 17.7623 106.385 17.8713C106.168 17.9793 106.006 18.1413 105.843 18.3043C105.681 18.5213 105.545 18.7643 105.464 19.0083C105.356 19.3063 105.329 19.6313 105.329 19.9563C105.329 20.2543 105.356 20.5513 105.437 20.8223C105.491 21.0663 105.627 21.2823 105.789 21.4993C105.924 21.6893 106.114 21.8243 106.303 21.9053C106.52 22.0143 106.764 22.0683 106.98 22.0683C107.17 22.0683 107.387 22.0413 107.576 21.9863C107.739 21.9323 107.901 21.8243 108.036 21.7163C108.172 21.6073 108.253 21.4723 108.334 21.3373C108.415 21.2013 108.443 21.0393 108.443 20.8763V20.4433H106.791V19.8203H109.174V22.5283H109.309Z" fill="white"/>
<path d="M113.098 17.1941H112.367V22.5281H113.098V17.1941Z" fill="white"/>
<path d="M120.168 22.5283H116.188V17.1943H120.06V17.8173H116.919V19.4142H119.708V20.0372H116.919V21.8782H120.141V22.5283H120.168Z" fill="white"/>
<path d="M123.827 18.5752C123.827 18.7102 123.881 18.8462 123.962 18.9542C124.071 19.0622 124.179 19.1441 124.314 19.1982C124.477 19.2792 124.639 19.3332 124.829 19.3872C125.018 19.4412 125.208 19.4962 125.425 19.5772L126.02 19.7932C126.21 19.8752 126.372 19.9562 126.535 20.0912C126.67 20.2002 126.806 20.3352 126.887 20.4972C126.995 20.6872 127.022 20.8772 127.022 21.0932C127.022 21.3102 126.968 21.4992 126.887 21.6892C126.778 21.8782 126.643 22.0682 126.481 22.2032C126.291 22.3662 126.047 22.4742 125.831 22.5822C125.533 22.6912 125.235 22.7182 124.937 22.7182C124.612 22.7182 124.314 22.6642 124.017 22.5552C123.773 22.4742 123.556 22.3392 123.367 22.1762C123.204 22.0142 123.069 21.8512 122.988 21.6622C122.906 21.4722 122.852 21.2832 122.852 21.0932H123.529C123.583 21.3912 123.746 21.6622 123.989 21.8242C124.26 22.0142 124.585 22.0952 124.91 22.0952C125.1 22.0952 125.289 22.0682 125.479 22.0142C125.614 21.9602 125.777 21.8782 125.885 21.7972C125.993 21.7162 126.074 21.6082 126.129 21.4722C126.183 21.3642 126.21 21.2563 126.21 21.1202C126.21 20.9852 126.183 20.8222 126.074 20.7412C125.966 20.6332 125.858 20.5252 125.722 20.4702C125.587 20.4162 125.397 20.3352 125.208 20.2542C125.018 20.1732 124.829 20.1452 124.639 20.0642C124.45 19.9832 124.26 19.9292 124.071 19.8482C123.881 19.7932 123.719 19.6852 123.583 19.5772C123.448 19.4682 123.313 19.3332 123.231 19.1982C123.15 19.0352 123.096 18.8462 123.096 18.6562C123.096 18.4672 123.15 18.2502 123.231 18.0882C123.313 17.8982 123.448 17.7362 123.583 17.6002C123.746 17.4652 123.962 17.3562 124.179 17.2752C124.45 17.1942 124.721 17.1402 124.991 17.1672C125.262 17.1672 125.506 17.1942 125.777 17.2752C125.993 17.3292 126.183 17.4652 126.345 17.6002C126.508 17.7362 126.616 17.8982 126.697 18.0882C126.778 18.2772 126.833 18.4672 126.887 18.6562H126.183C126.129 18.4132 125.993 18.1962 125.804 18.0332C125.587 17.8712 125.289 17.7632 124.991 17.7902C124.829 17.7902 124.666 17.8172 124.504 17.8442C124.369 17.8982 124.233 17.9522 124.152 18.0602C124.071 18.1422 123.989 18.2232 123.935 18.3312C123.827 18.3582 123.8 18.4942 123.827 18.5752Z" fill="white"/>
<path d="M2.19581 1.73296H3.54881C9.26281 1.73296 14.7318 4.06195 18.7128 8.14995C19.0648 8.50205 19.3898 8.88095 19.7138 9.26095C19.8768 9.44995 20.0938 9.53096 20.3368 9.53096C20.5268 9.53096 20.7428 9.44995 20.8788 9.31495C21.2308 9.01695 21.2578 8.47496 20.9598 8.12296C20.6078 7.71696 20.2558 7.31096 19.8768 6.95896C17.7918 4.81996 15.3008 3.08696 12.5388 1.89596C9.69581 0.676955 6.63581 0.0539551 3.54881 0.0539551H2.19581C1.73481 0.0539551 1.38281 0.432955 1.38281 0.893955C1.38281 1.35396 1.73481 1.73296 2.19581 1.73296Z" fill="white"/>
<path d="M0.84 6.63398H3.385C5.632 6.63398 7.88 7.09398 9.965 7.98798C11.156 8.50198 12.293 9.15198 13.322 9.93698C13.458 10.0459 13.647 10.1 13.81 10.1C14.08 10.1 14.324 9.96498 14.487 9.74798C14.757 9.36898 14.676 8.85398 14.297 8.55698C13.16 7.71698 11.914 6.98598 10.615 6.41698C8.34 5.44298 5.876 4.92798 3.385 4.92798H0.84C0.379 4.92798 0 5.30698 0 5.76798C0 6.22798 0.379 6.60698 0.84 6.63398Z" fill="white"/>
<path d="M20.6061 6.28196C20.7961 6.28196 20.9851 6.22796 21.1201 6.09196C22.5561 4.98196 24.1531 4.08896 25.8321 3.38496C28.5131 2.24796 31.4101 1.67896 34.3071 1.67896H35.7691C36.2301 1.67896 36.5821 1.29996 36.5821 0.866955C36.5821 0.432955 36.2021 0.0539551 35.7691 0.0539551H34.3071C31.1661 0.0539551 28.0791 0.676955 25.1821 1.86796C23.3681 2.62696 21.6891 3.60096 20.1191 4.79296C19.7671 5.06396 19.6851 5.57796 19.9291 5.92996C19.9291 5.92996 19.9291 5.95695 19.9561 5.95695C20.1191 6.17395 20.3621 6.30896 20.6061 6.28196Z" fill="white"/>
<path d="M16.6771 8.2039C15.6211 9.3959 14.7001 10.7229 13.9151 12.1039C13.6981 12.4829 13.8341 12.9969 14.2401 13.2139H14.2671C14.4021 13.2949 14.5381 13.3219 14.6731 13.3219C14.9711 13.3219 15.2691 13.1599 15.4041 12.8889C16.1081 11.5889 16.9751 10.3709 17.9491 9.2609C18.2471 8.9089 18.1931 8.4209 17.8681 8.1229C17.5161 7.8249 17.0021 7.8519 16.6771 8.2039Z" fill="white"/>
<path d="M26.9724 6.38998C24.7524 7.31098 22.7484 8.61088 21.0424 10.289C20.5554 10.75 20.1224 11.264 19.6884 11.752C19.4184 12.104 19.4724 12.618 19.7974 12.889C20.1764 13.16 20.6904 13.105 20.9884 12.753C21.3674 12.293 21.7734 11.833 22.2074 11.4C23.7504 9.88298 25.5914 8.66498 27.5954 7.85198C29.6804 6.98598 31.9274 6.55298 34.2024 6.55298H36.8284C37.2894 6.55298 37.6414 6.20098 37.6414 5.73998C37.6414 5.27998 37.2894 4.92798 36.8284 4.92798H34.2294C31.7654 4.92798 29.3014 5.44298 26.9724 6.38998Z" fill="white"/>
<path d="M3.32744 11.1559H2.08144C4.05844 14.9469 7.28044 17.9249 11.2064 19.6309C11.3424 18.7919 11.5314 17.9519 11.7754 17.1129C11.9104 16.6799 12.3714 16.4359 12.8044 16.5439C13.2374 16.6529 13.5084 17.0859 13.3994 17.5459C13.1564 18.4399 12.9664 19.3329 12.8314 20.2269C13.6704 20.4979 14.5374 20.7139 15.4304 20.8769C14.2664 15.2719 9.25744 11.1559 3.32744 11.1559ZM37.6064 10.5599V10.6139C37.6064 10.6319 37.6248 10.6503 37.6614 10.6689C34.8184 17.2209 28.6984 21.6889 21.5774 22.6369C21.4684 22.6909 21.3604 22.718 21.2524 22.6909H21.1444C19.5464 22.8529 17.9484 22.8529 16.3784 22.6639H16.3514C13.1834 22.2849 10.1504 21.1749 7.49744 19.4139C4.22044 17.2749 1.64844 14.2429 0.105437 10.6689L0.0504375 10.5059C0.0504375 10.4249 0.0234375 10.3439 0.0234375 10.2619V10.1809C0.0234375 10.1539 0.0504375 10.1539 0.0504375 10.1269V9.96492H0.0774375L0.105437 9.93692V9.82892C0.105437 9.81092 0.114438 9.80192 0.132438 9.80192L0.159438 9.77492L0.186438 9.74792L0.213437 9.72092L0.240438 9.69392H0.348437C0.348437 9.69392 0.375437 9.69392 0.375437 9.66692C0.375437 9.66692 0.402437 9.66692 0.402437 9.63992C0.402437 9.61292 0.429437 9.61292 0.429437 9.61292C0.511437 9.58492 0.565437 9.55792 0.646437 9.53092C0.700437 9.53092 0.754437 9.50392 0.836437 9.50392H3.38144C6.84744 9.47692 10.2314 10.7229 12.8314 13.0239C14.4284 14.4319 15.6744 16.1919 16.4594 18.1689C16.6494 17.5729 16.8384 17.0319 17.0554 16.4629C17.2174 16.0299 17.6784 15.8129 18.1114 15.9759C18.1114 15.9759 18.1384 15.9759 18.1384 16.0029C18.5444 16.1379 18.7614 16.5979 18.6254 17.0049C18.6254 17.0229 18.6164 17.0409 18.5984 17.0589C18.0844 18.3579 17.7324 19.7119 17.5424 21.093C18.0034 21.12 18.4634 21.147 18.9234 21.147C19.3844 21.147 19.8444 21.12 20.3044 21.093C20.1154 19.5769 19.6814 18.088 19.0594 16.68C18.4904 15.353 17.7324 14.08 16.8384 12.943C16.5674 12.618 16.6224 12.104 16.9474 11.833L16.9744 11.806C17.3264 11.535 17.8404 11.589 18.1384 11.941C19.1134 13.187 19.9524 14.568 20.5754 16.03C20.8734 16.707 21.1164 17.438 21.3334 18.142C21.4964 17.709 21.7124 17.275 21.9024 16.8691C22.1184 16.4631 22.6334 16.3281 23.0394 16.517C23.4454 16.734 23.6084 17.221 23.3914 17.6C22.8764 18.602 22.4974 19.685 22.2814 20.795C23.1474 20.633 24.0144 20.416 24.8804 20.146C24.6094 18.331 24.1224 16.544 23.3644 14.838C23.0934 14.189 22.7684 13.566 22.4164 12.943C22.2004 12.537 22.3624 12.049 22.7414 11.833C23.1474 11.616 23.6354 11.779 23.8784 12.158C24.2574 12.808 24.6094 13.512 24.9074 14.189C25.6384 15.894 26.1534 17.682 26.4514 19.523C30.4044 17.844 33.6534 14.865 35.6304 11.048H34.3574C31.7314 11.048 29.1854 11.86 27.0464 13.403C26.6674 13.674 26.1534 13.593 25.8824 13.241C25.6114 12.889 25.6924 12.374 26.0454 12.104C28.4544 10.371 31.3524 9.42302 34.3304 9.45002H37.0654C37.1464 9.47702 37.2274 9.50402 37.2824 9.53102L37.3094 9.55802L37.3364 9.58502C37.3364 9.58502 37.3634 9.58502 37.3634 9.61202L37.3904 9.64002L37.4174 9.66702C37.4174 9.66702 37.4174 9.69402 37.4444 9.69402H37.4714L37.4984 9.72102C37.4984 9.72102 37.5254 9.72102 37.5254 9.74802L37.5524 9.77502L37.5794 9.80202L37.6064 9.82902V9.99202C37.6064 9.99202 37.6344 9.99202 37.6344 10.019V10.181C37.6344 10.208 37.6614 10.208 37.6614 10.235V10.56L37.6064 10.5599Z" fill="white"/>
</g>
<defs>
<clipPath id="clip0_628_52">
<rect width="132.733" height="22.8093" fill="white"/>
</clipPath>
</defs>
</svg>
