<svg width="1336" height="92" viewBox="0 0 1336 92" fill="none" xmlns="http://www.w3.org/2000/svg">
<path d="M784.698 25.6001L764.698 22.9001C763.398 22.7001 762.898 24.0001 763.598 25.1001L779.798 44.1001C779.998 44.3001 780.298 44.6001 780.498 44.5001L796.598 45.8001C796.998 45.8001 797.298 45.8001 797.698 45.4001L805.798 37.3001C805.998 37.1001 806.198 36.6001 806.198 36.2001L804.798 20.0001C804.798 19.6001 804.598 19.5001 804.298 19.1001L784.998 3.10006C784.298 2.40006 782.798 3.10006 782.998 4.40006L786.298 24.2001C786.398 25.1001 785.698 25.8001 784.698 25.6001Z" fill="#702A2A"/>
<path d="M828.798 25.6L848.798 22.9C850.098 22.7 850.598 24 849.898 25.1L833.698 44.1C833.498 44.3 833.198 44.6 832.998 44.5L816.998 45.8C816.598 45.8 816.298 45.8 815.898 45.4L807.798 37.3C807.598 37.1 807.398 36.6 807.398 36.2L808.798 20C808.798 19.6 808.998 19.5 809.298 19.1L828.598 2.99996C829.298 2.29996 830.798 2.99996 830.598 4.29996L827.298 24.1C827.198 25.1 827.898 25.8 828.798 25.6Z" fill="#702A2A"/>
<path d="M828.798 67.4L848.798 70.0999C850.098 70.2999 850.598 69 849.898 67.9L833.698 48.9C833.498 48.7 833.198 48.4 832.998 48.5L816.998 47.2C816.598 47.2 816.298 47.1999 815.898 47.5999L807.798 55.7C807.598 55.9 807.398 56.3999 807.398 56.7999L808.798 73C808.798 73.4 808.998 73.5 809.298 73.9L828.598 89.9C829.298 90.6 830.798 89.8999 830.598 88.5999L827.298 68.8C827.198 68 827.898 67.3 828.798 67.4Z" fill="#702A2A"/>
<path d="M784.698 67.4L764.698 70.0999C763.398 70.2999 762.898 69 763.598 67.9L779.798 48.9C779.998 48.7 780.298 48.4 780.498 48.5L796.598 47.2C796.998 47.2 797.298 47.1999 797.698 47.5999L805.798 55.7C805.998 55.9 806.198 56.3999 806.198 56.7999L804.898 73.0999C804.898 73.4999 804.698 73.6 804.398 74L784.998 90C784.298 90.7 782.798 89.9999 782.998 88.6999L786.298 68.9C786.398 68 785.698 67.3 784.698 67.4Z" fill="#702A2A"/>
<path d="M144 88.8C144 88.4 144.2 88 144.6 87.8L146.8 86.7C150.6 84.7 152.2 82.6 150.4 78.5L144.3 64.5C143.7 63.2 142.5 62.4 141.1 62.4H111.4C110 62.4 108.7 63.2 108.2 64.5L104.3 73.9C102 79.5 104.1 84.2 109.2 87.3C109.7 87.6 110 88.1 110 88.6C110 89.4 109.3 90 108.5 90H87.5C86.7 90 86 89.3 86 88.5C86 88 86.3 87.5 86.7 87.2C91.8 83.7 95.6 80.4 98.1 74.8L118.9 26.2C121.1 21.2 120.9 15.3 118.5 10.3L117.9 8.89998C117.4 7.79998 117.8 6.59998 118.8 5.99998L125.3 2.09998C126.5 1.39998 128 1.89998 128.6 3.09998L162.4 74.4C165.1 80.1 169.2 82.9 174.4 86.3C174.9 86.6 175.3 87.2 175.3 87.9C175.3 88.9 174.5 89.8 173.4 89.8H145.1C144.5 89.8 144 89.3 144 88.8ZM138.9 56.9C139.8 56.9 140.3 56 139.9 55.2L126.3 26.5C125.9 25.6 124.6 25.6 124.2 26.5L112 55.3C111.7 56.1 112.2 56.9 113.1 56.9H138.9Z" fill="#702A2A"/>
<path d="M614.102 88.7999C614.102 88.3999 614.302 87.9999 614.702 87.7999L616.902 86.6999C620.702 84.6999 622.302 82.5999 620.502 78.4999L614.402 64.4999C613.802 63.1999 612.602 62.3999 611.202 62.3999H581.502C580.102 62.3999 578.802 63.1999 578.302 64.4999L574.402 73.8999C572.102 79.4999 574.202 84.1999 579.302 87.2999C579.802 87.5999 580.102 88.0999 580.102 88.5999C580.102 89.3999 579.502 89.9999 578.602 89.9999H557.602C556.802 89.9999 556.102 89.2999 556.102 88.4999C556.102 87.9999 556.402 87.4999 556.802 87.1999C561.902 83.6999 565.702 80.3999 568.202 74.7999L589.002 26.0999C591.202 21.0999 591.002 15.1999 588.602 10.1999L588.002 8.79988C587.502 7.69988 587.902 6.49988 588.902 5.89988L595.402 1.99988C596.602 1.29988 598.102 1.79988 598.702 2.99988L632.502 74.2999C635.202 79.9999 639.302 82.7999 644.502 86.1999C645.002 86.4999 645.402 87.0999 645.402 87.7999C645.402 88.7999 644.602 89.6999 643.502 89.6999H615.202C614.602 89.7999 614.102 89.2999 614.102 88.7999ZM609.002 56.8999C609.902 56.8999 610.402 55.9999 610.002 55.1999L596.402 26.4999C596.002 25.5999 594.702 25.5999 594.302 26.4999L582.102 55.1999C581.802 55.9999 582.302 56.7999 583.202 56.7999H609.002V56.8999Z" fill="#702A2A"/>
<path d="M1023.3 88.8001C1023.3 88.4001 1023.5 88.0001 1023.9 87.8001L1026.1 86.7001C1029.9 84.7001 1031.5 82.6001 1029.7 78.6001L1023.5 64.7001C1023 63.4001 1021.7 62.6001 1020.3 62.6001H990.802C989.402 62.6001 988.102 63.4001 987.602 64.7001L983.702 74.0001C981.402 79.6001 983.502 84.2001 988.602 87.3001C989.102 87.6001 989.402 88.1001 989.402 88.6001C989.402 89.4001 988.702 90.0001 987.902 90.0001H967.102C966.302 90.0001 965.602 89.3001 965.602 88.5001C965.602 88.0001 965.902 87.5001 966.302 87.2001C971.402 83.7001 975.102 80.5001 977.602 74.9001L998.202 26.7001C1000.4 21.7001 1000.2 15.9001 997.802 10.9001L997.202 9.50007C996.702 8.40007 997.102 7.20007 998.102 6.60007L1004.5 2.70007C1005.7 2.00007 1007.2 2.50007 1007.8 3.70007L1041.3 74.4001C1044 80.1001 1048 82.8001 1053.2 86.2001C1053.8 86.5001 1054.1 87.1001 1054.1 87.8001C1054.1 88.8001 1053.3 89.7001 1052.2 89.7001H1024.1C1023.8 89.8001 1023.3 89.3001 1023.3 88.8001ZM1018.4 57.2001C1019.2 57.2001 1019.8 56.3001 1019.4 55.5001L1005.9 27.0001C1005.5 26.1001 1004.2 26.1001 1003.8 27.0001L991.702 55.5001C991.402 56.3001 991.902 57.1001 992.802 57.1001L1018.4 57.2001Z" fill="#702A2A"/>
<path d="M663.898 88.9C663.898 88.5 664.098 88.1 664.498 87.9L667.098 86.6C671.398 84.2 673.998 79.9 673.998 75V17.7C673.998 12.8 671.198 8.39995 667.098 6.09995L664.498 4.79995C664.098 4.59995 663.898 4.19995 663.898 3.79995C663.898 3.19995 664.398 2.69995 664.998 2.69995H694.898C695.498 2.69995 695.998 3.19995 695.998 3.79995C695.998 4.19995 695.798 4.59995 695.398 4.79995L692.798 6.09995C688.498 8.49995 685.898 12.8 685.898 17.7V79C685.898 82.2 688.498 84.7 691.598 84.7C702.998 84.7 712.798 80.4 721.098 72.5L726.098 67.7C726.298 67.5 726.498 67.4 726.798 67.4C727.498 67.4 727.898 68.1 727.698 68.7L722.198 85.3C721.198 88.2 718.498 90 715.598 90H664.998C664.398 90 663.898 89.5 663.898 88.9Z" fill="#702A2A"/>
<path d="M892.602 88.9C892.602 88.5 892.802 88.1 893.202 87.9L895.802 86.6C900.102 84.2 902.702 79.9 902.702 75V17.7C902.702 12.8 899.902 8.39995 895.802 6.09995L893.202 4.79995C892.802 4.59995 892.602 4.19995 892.602 3.79995C892.602 3.19995 893.102 2.69995 893.702 2.69995H923.602C924.202 2.69995 924.702 3.19995 924.702 3.79995C924.702 4.19995 924.502 4.59995 924.102 4.79995L921.502 6.09995C917.202 8.49995 914.602 12.8 914.602 17.7V79C914.602 82.2 917.202 84.7 920.302 84.7C931.702 84.7 941.502 80.4 949.802 72.5L954.802 67.7C955.002 67.5 955.202 67.4 955.502 67.4C956.202 67.4 956.602 68.1 956.402 68.7L951.002 85.3C950.002 88.2 947.302 90 944.402 90H893.902C893.102 90 892.602 89.5 892.602 88.9Z" fill="#702A2A"/>
<path d="M74.2 31.0999C73.6 31.3999 72.9 31.1999 72.6 30.5999C64.5 14.9999 56 7.0999 41.7 7.0999C23.8 7.0999 11.6 22.4999 11.6 41.7999C11.6 65.9999 28 80.3999 45.3 80.3999C55.7 80.3999 64.7 74.2999 71.4 67.0999C72.2 66.0999 73.6 66.0999 74.6 66.8999C75.6 67.6999 75.8 69.0999 75 70.0999C66 81.1999 56.2 89.8999 42.3 89.8999C20 90.1999 0 72.2999 0 46.7999C0 21.2999 19.4 1.8999 43.7 1.8999C53 1.8999 59.4 3.6999 67.8 6.5999C69.8 7.2999 71.2 8.9999 71.5 10.9999L74.8 29.8999C74.9 30.3999 74.7 30.8999 74.2 31.0999Z" fill="#702A2A"/>
<path d="M193.803 88.3C193.803 87.7 194.103 87.2 194.603 86.9C200.603 83.5 204.403 78.7 204.403 71.7V20.5C204.403 13.4 200.503 6.89995 194.303 3.29995C193.903 3.09995 193.703 2.69995 193.703 2.29995C193.703 1.69995 194.203 1.19995 194.803 1.19995H230.203C247.403 1.19995 263.403 7.19995 263.403 22.5C263.403 33.1 255.603 40.1 245.403 43.7C243.803 44.2 243.103 46.2 244.103 47.5L265.703 77.3C267.603 80 269.903 82.1 272.803 83.7L278.503 86.7C278.903 86.9 279.103 87.3 279.103 87.7C279.103 88.3 278.603 88.8 278.003 88.8H262.303C258.303 88.8 254.703 86.9 252.703 83.6L236.203 56.0999C232.003 49.8999 224.803 46.2999 217.003 46.2999V72C217.003 79.1 220.803 83.8 226.903 87.2C227.403 87.5 227.703 88 227.703 88.5C227.703 89.3 227.003 89.9 226.103 89.9H195.403C194.503 90 193.803 89.3 193.803 88.3ZM230.203 40.5C241.603 40.5 250.003 34.1 250.003 23.6C250.003 12.9 241.603 6.49995 230.203 6.49995H218.403C217.803 6.49995 217.203 6.99995 217.203 7.69995V39.2C217.203 39.8 217.703 40.4 218.403 40.4L230.203 40.5Z" fill="#702A2A"/>
<path d="M299.601 90.2001C298.501 90.2001 297.801 88.6001 298.701 87.8001C303.601 82.6001 305.201 75.6001 305.201 67.9001V24.9001C305.201 17.3001 303.601 10.2001 298.801 5.1001C298.001 4.3001 298.601 2.6001 299.701 2.6001H332.201C357.901 2.6001 378.901 19.7001 378.901 45.3001C378.901 70.9001 357.901 90.2001 332.201 90.2001H299.601ZM332.201 84.5001C352.601 84.5001 365.301 70.1001 365.301 46.2001C365.301 22.3001 352.601 7.9001 332.201 7.9001H323.401C320.101 7.9001 317.401 10.6001 317.401 13.9001V78.5001C317.401 81.8001 320.101 84.5001 323.401 84.5001H332.201Z" fill="#702A2A"/>
<path d="M1180.5 90C1179.4 90 1178.7 88.5 1179.6 87.6C1184.4 82.4 1186.1 75.4 1186.1 67.8V25C1186.1 17.5 1184.6 10.4 1179.7 5.30005C1178.9 4.50005 1179.5 2.80005 1180.6 2.80005H1213C1238.6 2.80005 1259.5 19.8 1259.5 45.3C1259.5 70.8 1238.6 90 1213 90H1180.5ZM1213 84.4C1233.3 84.4 1246 70.1 1246 46.3C1246 22.5 1233.3 8.20005 1213 8.20005H1204.2C1200.9 8.20005 1198.2 10.9 1198.2 14.2V78.5C1198.2 81.8 1200.9 84.5 1204.2 84.5H1213V84.4Z" fill="#702A2A"/>
<path d="M406.398 77.4001C406.398 81.5001 404.098 84.0001 400.598 85.9001L396.698 88.1001C396.298 88.3001 396.098 88.7001 396.098 89.1001C396.098 89.7001 396.598 90.2001 397.198 90.2001H428.398C428.998 90.2001 429.498 89.7001 429.498 89.1001C429.498 88.7001 429.298 88.3001 428.898 88.1001L424.798 85.9001C421.298 84.0001 418.998 81.6001 418.998 77.4001V15.4001C418.998 11.3001 421.298 8.8001 424.798 6.9001L429.098 4.6001C429.398 4.5001 429.498 4.2001 429.498 3.9001C429.498 3.2001 428.898 2.6001 428.198 2.6001H397.198C396.498 2.6001 395.898 3.2001 395.898 3.9001C395.898 4.2001 396.098 4.5001 396.298 4.6001L400.598 6.9001C404.098 8.8001 406.398 11.2001 406.398 15.4001V77.4001Z" fill="#702A2A"/>
<path d="M477.403 28.3C476.003 26.7 473.303 27.7 473.303 29.8V77.3C473.303 81.3 476.703 82.8 480.303 84.9L483.803 86.8C484.303 87.1 484.703 87.7 484.703 88.3C484.703 89.2 483.903 90 483.003 90H458.003C457.003 90 456.203 89.2 456.203 88.2C456.203 87.5 456.603 86.9 457.103 86.6L460.603 84.7C464.203 82.7 467.603 81.4 467.603 77.1V25.8C467.603 18.5 465.003 11.7 460.403 6.20005C459.603 5.20005 460.303 3.80005 461.503 3.80005H469.903C471.503 3.80005 473.003 4.50005 474.003 5.70005L524.403 63.7001C525.803 65.3001 528.503 64.3001 528.503 62.2001V17.7C528.503 13.7 525.103 9.80005 521.503 7.80005L517.903 5.80005C517.403 5.50005 517.103 5.00005 517.103 4.40005C517.103 3.50005 517.803 2.80005 518.703 2.80005H543.903C544.803 2.80005 545.603 3.60005 545.603 4.50005C545.603 5.10005 545.303 5.70005 544.703 6.00005L541.203 7.90005C537.603 9.90005 534.203 13.5 534.203 17.8V88.9C534.203 89.9 533.403 90.7 532.403 90.7C531.903 90.7 531.403 90.5 531.103 90.1L477.403 28.3Z" fill="#702A2A"/>
<path d="M1092.6 28.3C1091.2 26.7 1088.5 27.7 1088.5 29.8V77.3C1088.5 81.3 1091.8 82.8 1095.4 84.9L1098.9 86.8C1099.4 87.1 1099.8 87.7 1099.8 88.3C1099.8 89.2 1099 90 1098.1 90H1073.1C1072.1 90 1071.3 89.2 1071.3 88.2C1071.3 87.5 1071.7 86.9 1072.2 86.6L1075.7 84.7C1079.3 82.7 1082.6 81.4 1082.6 77.1V25.8C1082.6 18.5 1080 11.7 1075.4 6.20005C1074.6 5.20005 1075.3 3.80005 1076.5 3.80005H1084.9C1086.5 3.80005 1088 4.50005 1089 5.70005L1139.4 63.7001C1140.8 65.3001 1143.5 64.3001 1143.5 62.2001V17.7C1143.5 13.7 1140.1 9.80005 1136.5 7.80005L1132.9 5.80005C1132.4 5.50005 1132.1 5.00005 1132.1 4.40005C1132.1 3.50005 1132.8 2.80005 1133.7 2.80005H1158.9C1159.8 2.80005 1160.6 3.60005 1160.6 4.50005C1160.6 5.10005 1160.3 5.70005 1159.7 6.00005L1156.2 7.90005C1152.6 9.90005 1149.3 13.5 1149.3 17.8V88.9C1149.3 89.9 1148.5 90.7 1147.5 90.7C1147 90.7 1146.5 90.5 1146.2 90.1L1092.6 28.3Z" fill="#702A2A"/>
<path d="M1283.5 85.6999C1279.8 84.5999 1277.1 81.1999 1276.8 77.1999L1275.8 60.9999C1275.7 60.0999 1276.7 59.3999 1277.5 59.8999C1277.7 59.9999 1277.9 60.1999 1278 60.3999C1286.1 76.4999 1296.4 84.9999 1309.5 84.9999C1318.4 84.9999 1326.8 79.9999 1326.8 70.1999C1326.8 61.3999 1320.3 56.8999 1309.1 51.8999L1297.8 46.8999C1285.5 41.2999 1277.9 34.7999 1277.9 24.3999C1277.9 12.2999 1289.6 2.8999 1305.1 2.8999C1312.5 2.8999 1318.6 3.9999 1326.1 5.7999C1329 6.4999 1331.2 9.0999 1331.4 12.1999L1332.4 29.2999C1332.4 29.8999 1331.9 30.2999 1331.4 30.1999C1331.1 30.1999 1330.9 29.9999 1330.7 29.6999C1322.8 14.9999 1314.9 7.5999 1303.7 7.5999C1294.2 7.5999 1287.2 12.5999 1287.2 20.0999C1287.2 27.0999 1292.1 30.7999 1304.5 36.4999L1315.8 41.4999C1329 47.2999 1335.9 55.6999 1335.9 65.1999C1335.9 79.3999 1323.1 89.4999 1306.7 89.4999C1298.2 89.7999 1290.3 87.7999 1283.5 85.6999Z" fill="#702A2A"/>
</svg>
