<?xml version="1.0" encoding="UTF-8"?>
<svg id="Layer_1" xmlns="http://www.w3.org/2000/svg" version="1.1" viewBox="0 0 246 107">
  <!-- Generator: Adobe Illustrator 30.4.0, SVG Export Plug-In . SVG Version: 2.1.4 Build 226)  -->
  <defs>
    <style>
      .st0 {
        fill: #fff;
      }
    </style>
  </defs>
  <path class="st0" d="M26.2,39.1c-1.5,0-2.9.5-4.1,1.5-1.3,1-2.3,2.5-3.2,4.3-.9,1.9-1.6,4.1-2.1,6.8-.5,2.6-.7,5.5-.7,8.7s.4,6.1,1.2,8.6c.8,2.5,1.9,4.7,3.3,6.4s3.1,3.1,5,4,4,1.4,6.2,1.4,4.1-.3,5.9-1c1.8-.6,3.3-1.3,4.7-2.1,1.4-.8,2.5-1.5,3.4-2.2s1.5-1.1,1.8-1.3c.5-.2.9-.2,1.3,0,.3.3.3.8,0,1.4s-.6,1-1.1,1.8-1.2,1.7-2.1,2.7c-.9,1-1.9,2-3.2,3.1-1.2,1-2.7,2-4.3,2.9s-3.5,1.6-5.5,2.1-4.3.8-6.8.8c-3.9,0-7.4-.6-10.5-1.7s-5.8-2.8-8-4.9c-2.2-2.2-3.9-4.8-5.1-8-1.2-3.2-1.8-6.8-1.8-10.8s.4-6.7,1.3-9.5c.9-2.8,2.1-5.2,3.6-7.2,1.5-2.1,3.2-3.8,5.1-5.2,1.9-1.4,3.9-2.6,5.9-3.4,2-.9,4-1.5,5.9-1.9s3.7-.6,5.3-.6c2.5,0,4.9.2,7,.7s4,1.1,5.5,2c1.5.8,2.7,1.8,3.6,3,.9,1.1,1.3,2.4,1.3,3.7s-.2,2.1-.6,2.9c-.4.8-.9,1.4-1.5,1.9s-1.3.9-2.1,1.1c-.8.2-1.5.3-2.3.3s-2.2-.2-3.2-.6c-1-.4-1.8-1.1-2.4-2.1-.5-.7-.9-1.6-1.2-2.7-.3-1.1-.6-2.2-1-3.2s-.9-1.9-1.5-2.7c-.6-.7-1.6-1.1-2.8-1.1h-.2Z"/>
  <path class="st0" d="M68.2,58.1c-.6,0-.9.3-.9,1,0,3.8.3,7.1,1,9.8.7,2.7,1.7,5,2.9,6.7s2.9,3,4.8,3.8,4.2,1.2,6.7,1.2,3.7-.2,5.2-.6,2.8-.9,4-1.4c1.1-.5,2-1.1,2.7-1.5.7-.5,1.2-.8,1.6-1,.5-.2.9-.2,1.2,0s.3.8,0,1.4c0,.2-.4.7-.8,1.3-.4.7-1,1.4-1.7,2.3s-1.7,1.8-2.8,2.7-2.5,1.8-4,2.6c-1.5.8-3.3,1.4-5.3,1.9s-4.2.8-6.7.8c-3.7,0-7.1-.6-10.1-1.8-3-1.2-5.6-2.9-7.8-5.1-2.1-2.2-3.8-5-5-8.2s-1.8-6.8-1.8-10.9.7-8.3,2.2-11.7,3.4-6.3,5.7-8.6c2.4-2.3,5-4,8-5.2s6-1.8,9.1-1.8,5.5.4,7.7,1.2,4.1,1.8,5.8,3.1c1.6,1.3,3,2.7,4,4.3,1.1,1.6,1.9,3.2,2.6,4.7.7,1.6,1.1,3,1.4,4.4s.4,2.5.4,3.3,0,.6-.4.8c-.2,0-.6.2-1,.2h-28.9l.2.2ZM67.5,54.4c0,.5,0,.7.7.7h3.4c.9,0,1.9,0,2.9,0,1,0,2,0,3,0h3.8c.6,0,1.2-.3,1.9-.8.7-.5,1-1.3,1-2.5s0-2.3-.4-3.8c-.3-1.4-.8-2.8-1.4-4-.7-1.3-1.5-2.3-2.5-3.2s-2.2-1.3-3.7-1.3-2.2.3-3,.9c-.9.6-1.6,1.4-2.2,2.4s-1.1,2.1-1.5,3.3-.7,2.4-1,3.5-.5,2.2-.6,3.1c0,1-.2,1.7-.3,2.2h0v-.3Z"/>
  <path class="st0" d="M163.9,87.6c.3,0,.5.2.6.4.1.2.2.3.1.5,0,.2-.1.4-.3.5s-.4.2-.7.2h-28.1c-.3,0-.5,0-.7-.2-.2,0-.3-.3-.3-.5s0-.4.1-.5c.1-.2.3-.3.6-.4.3,0,.8-.2,1.5-.4s1.5-.6,2.2-1.1c.8-.5,1.4-1.2,2-2.1s.9-2.1.9-3.6v-24.2c0-1.6-.2-3.2-.4-4.9s-.6-3.2-1.3-4.5c-.7-1.4-1.6-2.5-2.9-3.4-1.3-.9-2.9-1.3-5-1.3s-3.8.4-5,1.3c-1.2.9-2.1,1.9-2.7,3.2s-.9,2.6-1.1,4.1-.2,2.7-.2,3.8v25.8c0,1.5.3,2.7.9,3.6s1.3,1.6,2,2.1c.8.5,1.5.9,2.2,1.1s1.2.3,1.5.4c.3,0,.5.2.6.4.1.2.2.3.1.5,0,.2-.1.4-.3.5s-.4.2-.7.2h-28.1c-.3,0-.5,0-.7-.2-.2,0-.3-.3-.3-.5s0-.4,0-.5c0-.2.3-.3.6-.4.3,0,.8-.2,1.5-.4s1.5-.6,2.2-1.1c.8-.5,1.4-1.2,2-2.1s.9-2.1.9-3.6v-31.2c0-.5-.2-.8-.7-.9,0,0-.3,0-.8-.2-.5,0-1-.2-1.6-.4-.6,0-1.1-.3-1.7-.4-.5,0-.8-.2-.9-.2-.5,0-.7-.4-.8-.8,0-.4.3-.7.8-.8,1.5-.3,3-.8,4.7-1.4,1.7-.6,3.4-1.2,5.1-2,1.7-.7,3.4-1.5,5-2.4,1.6-.8,3-1.7,4.3-2.6.3-.2.7-.3,1-.3s.5.3.5.8v4.8c.8-.7,1.7-1.4,2.7-2,1-.7,2.1-1.2,3.4-1.7s2.7-.9,4.2-1.2c1.6-.3,3.3-.4,5.1-.4,3.1,0,5.6.3,7.7,1,2.1.7,3.8,1.6,5.2,2.7,1.4,1.1,2.4,2.4,3.1,3.9.7,1.5,1.2,3,1.6,4.5.3,1.6.5,3.1.6,4.7v26.2c0,1.5.3,2.7.9,3.6.6.9,1.3,1.6,2,2.1.8.5,1.5.9,2.2,1.1s1.2.3,1.5.4h0l1.1.4Z"/>
  <path class="st0" d="M200.2,79.7c.7-.3,1.2-.3,1.5,0s.3.8,0,1.3c-.7,1.2-1.5,2.3-2.6,3.3-1,1-2.2,1.8-3.5,2.6-1.3.7-2.7,1.3-4.3,1.7-1.6.4-3.2.6-4.9.6s-3.7-.2-5.5-.7-3.5-1.4-4.9-2.6c-1.5-1.3-2.6-3-3.6-5.1-.9-2.1-1.4-4.9-1.4-8.2v-31.5c0-.3-.1-.4-.4-.4h-1.5c-.9,0-1.4,0-1.7-.2-.2,0-.3-.4-.3-.7s.2-1,.6-1.5c.4-.5,1-.8,1.6-.8h1.2c.3,0,.4,0,.4-.4v-13.4c0-.8.3-1.3,1-1.4.9-.2,1.9-.4,3-.8,1.1-.3,2.1-.7,3.2-1.1s2.2-.9,3.2-1.4c1.1-.5,2-1,2.9-1.6.4-.2.8-.3,1.1-.1.4.1.5.5.5,1.1v18.7c0,.3.1.4.4.4h10.5c.9,0,1.4,0,1.7.2.2,0,.3.4.3.7s-.3,1-.8,1.5-1.1.8-1.7.8h-10c-.3,0-.4,0-.4.4v34.5c0,1,.2,1.9.5,2.7s.8,1.4,1.4,2c.6.5,1.3.9,2,1.2.8.3,1.5.4,2.3.4,1.6,0,3.1-.2,4.5-.7s2.5-.9,3.2-1.3h0l.5-.3Z"/>
  <path class="st0" d="M206,84s0-.6-.3-1.6c-.2-1-.3-2.1-.5-3.3-.2-1.2-.4-2.3-.5-3.4-.2-1.1-.3-1.7-.3-2,0-.5,0-.8.4-.9.4,0,.7,0,.8.3,0,0,.3.5.7,1.2s1.1,1.5,1.9,2.5c.8,1,1.7,2,2.8,3.1s2.3,2.2,3.7,3.1c1.4,1,2.8,1.7,4.5,2.4,1.6.6,3.3.9,5.2.9s3.8-.6,5-1.7c1.2-1.2,1.8-2.7,1.8-4.6s-.1-2-.4-3c-.3-1-.8-1.9-1.7-2.9s-2.1-1.9-3.7-2.9c-1.6-1-3.8-1.9-6.4-2.9-2.5-.9-4.5-1.9-6.2-3.1-1.7-1.2-3-2.5-4.1-4-1-1.5-1.8-3.1-2.3-4.8s-.7-3.5-.7-5.4.3-3.1.8-4.8,1.5-3.4,2.8-4.9c1.4-1.5,3.2-2.8,5.6-3.8,2.4-1,5.4-1.5,9-1.5s4.5.2,6.4.6c2,.4,3.7.8,5.2,1.3s2.7.9,3.5,1.3c.9.4,1.4.6,1.5.7.2,0,.4.2.4.3,0,0,0,.2.1.4,0,0,0,.6.3,1.5.2,1,.4,2,.6,3.1.2,1.1.4,2.1.6,3.1.2.9.3,1.5.3,1.6,0,.4,0,.6-.4.8-.3.2-.6,0-.9-.3-.5-.7-1.3-1.8-2.5-3-1.1-1.3-2.5-2.5-4.1-3.8s-3.4-2.3-5.4-3.2-4-1.4-6.3-1.4-4,.6-5.1,1.8-1.6,2.7-1.6,4.5.1,1.8.4,2.6c.3.8.8,1.7,1.7,2.4.9.8,2.1,1.6,3.7,2.4,1.6.8,3.8,1.6,6.5,2.4,5.5,1.7,9.6,4,12.4,6.8,2.8,2.9,4.2,6.6,4.2,11.2s-.4,4.5-1.2,6.4c-.8,2-2,3.7-3.6,5.1s-3.7,2.6-6.3,3.4c-2.5.8-5.6,1.2-9.1,1.2s-5.6-.2-7.9-.6c-2.3-.4-4.2-.9-5.8-1.4s-2.8-1-3.7-1.5-1.4-.8-1.6-.9c0,0-.1-.2-.2-.3,0,0-.1-.3-.1-.5h.1Z"/>
</svg>