<svg width="142" height="30" viewBox="0 0 142 30" fill="none" xmlns="http://www.w3.org/2000/svg">
<g clip-path="url(#clip0_705_52)">
<path d="M0 14.6667C0 22.7675 6.56578 29.3333 14.6667 29.3333V22.8148C10.1672 22.8148 6.51853 19.1661 6.51853 14.6667C6.51853 10.1672 10.1672 6.51852 14.6667 6.51852V0C6.56578 0 0 6.56578 0 14.6667Z" fill="url(#paint0_linear_705_52)"/>
<path d="M18.2379 1.83998L18.3014 1.67049L18.1254 1.62486L16.7598 1.26308L16.5837 1.21582L16.5544 1.39508L15.7266 6.59523C15.9547 6.6262 16.1796 6.66531 16.4013 6.71417L18.2379 1.83998Z" fill="url(#paint1_linear_705_52)"/>
<path d="M18.5809 7.5404L22.0194 2.33208L22.1155 2.18704L21.9639 2.10068L20.7384 1.39667L20.587 1.3103L20.5103 1.46675L17.7188 7.12646C18.0154 7.24866 18.3039 7.3872 18.5809 7.5404Z" fill="url(#paint2_linear_705_52)"/>
<path d="M20.2872 8.81311L24.0711 5.71029L24.2113 5.59458L24.0825 5.46747L23.0803 4.47014L22.9515 4.34302L22.8375 4.48318L19.7266 8.31771C19.9205 8.47411 20.1079 8.64037 20.2872 8.81311Z" fill="url(#paint3_linear_705_52)"/>
<path d="M21.7454 10.7067L27.2585 7.94938L26.3719 6.42407L26.2269 6.52021L21.2109 9.8707C21.4048 10.1364 21.5825 10.4151 21.7438 10.7035L21.7454 10.7067Z" fill="url(#paint4_linear_705_52)"/>
<path d="M22.3281 12.0023C22.4096 12.2386 22.4813 12.4782 22.5416 12.7243L27.7173 11.8117L27.8966 11.7823L27.4321 10.0696L27.2627 10.1347L22.3298 12.0056L22.3281 12.0023Z" fill="url(#paint5_linear_705_52)"/>
<path d="M29.3333 15.3397L29.3301 13.9268V13.7524L29.1557 13.7638L22.7578 14.1648C22.7675 14.331 22.7741 14.4988 22.7741 14.6667C22.7741 14.8248 22.7692 14.9812 22.7594 15.136L29.159 15.5043L29.3333 15.5141V15.3397Z" fill="url(#paint6_linear_705_52)"/>
<path d="M22.537 16.6239C22.4751 16.8717 22.4034 17.1145 22.3203 17.3541L27.0804 19.2672L27.25 19.3308L27.2972 19.1548L27.659 17.7891L27.7062 17.6131L27.527 17.5838L22.537 16.6223V16.6239Z" fill="url(#paint7_linear_705_52)"/>
<path d="M21.764 18.5957C21.6043 18.8858 21.4267 19.1628 21.2344 19.4301L26.2732 22.7561L26.4182 22.8523L26.5046 22.7007L27.2086 21.4753L27.295 21.3237L27.1386 21.2472L21.7624 18.5957H21.764Z" fill="url(#paint8_linear_705_52)"/>
<path d="M20.3151 20.4958C20.1375 20.6701 19.9517 20.8364 19.7578 20.9928L22.8948 24.8159L23.0105 24.956L23.1376 24.8273L24.135 23.8251L24.2621 23.6964L24.122 23.5823L20.3151 20.4941V20.4958Z" fill="url(#paint9_linear_705_52)"/>
<path d="M18.6088 21.7734C18.3318 21.9299 18.045 22.07 17.75 22.1922L20.6556 28.0018L22.1809 27.1153L22.0848 26.9703L18.612 21.7734H18.6088Z" fill="url(#paint10_linear_705_52)"/>
<path d="M16.437 22.6096C16.217 22.6601 15.9921 22.7009 15.7656 22.7335L16.6244 27.9401L16.6537 28.1194L18.3665 27.6549L18.3013 27.4854L16.4353 22.6112L16.437 22.6096Z" fill="url(#paint11_linear_705_52)"/>
<path d="M141.831 14.2186H139.421V18.656C139.421 19.808 140.252 19.8293 141.831 19.744V22.24C137.969 22.6666 136.669 21.536 136.669 18.656V14.2186H134.812V11.5733H136.669V9.41867L139.421 8.58667V11.5733H141.831V14.2186Z" fill="#18181E"/>
<path d="M128.914 11.2746C131.176 11.2746 132.946 12.8533 132.946 15.6906V22.24H130.194V16.032C130.194 14.5813 129.32 13.8346 128.082 13.8346C126.738 13.8346 125.736 14.624 125.736 16.48V22.24H122.984V7.30664H125.736V12.768C126.376 11.808 127.485 11.2746 128.914 11.2746Z" fill="#18181E"/>
<path d="M117.381 11.5734H120.069V21.7281C120.069 25.2267 117.317 26.8054 114.501 26.8054C112.219 26.8054 110.384 25.9307 109.445 24.2027L111.792 22.8587C112.24 23.6907 112.944 24.352 114.587 24.352C116.315 24.352 117.381 23.4134 117.381 21.7281V20.5761C116.635 21.5787 115.483 22.1974 113.968 22.1974C110.939 22.1974 108.656 19.7441 108.656 16.7361C108.656 13.7494 110.939 11.2747 113.968 11.2747C115.483 11.2747 116.635 11.8934 117.381 12.8961V11.5734ZM114.395 19.6587C116.123 19.6587 117.381 18.4427 117.381 16.7361C117.381 15.0507 116.123 13.8347 114.395 13.8347C112.667 13.8347 111.408 15.0507 111.408 16.7361C111.408 18.4427 112.667 19.6587 114.395 19.6587Z" fill="#18181E"/>
<path d="M104.872 10.2933C103.955 10.2933 103.188 9.52536 103.188 8.60803C103.188 7.6907 103.955 6.90137 104.872 6.90137C105.811 6.90137 106.579 7.6907 106.579 8.60803C106.579 9.52536 105.811 10.2933 104.872 10.2933ZM103.507 22.24V11.5733H106.259V22.24H103.507Z" fill="#18181E"/>
<path d="M95.8109 14.6027C95.8109 16.1814 101.315 15.2001 101.315 19.1254C101.315 21.4294 99.3096 22.5387 97.0269 22.5387C94.8936 22.5387 93.3149 21.6427 92.5469 20.0001L94.9362 18.6561C95.2349 19.5307 95.9602 20.0427 97.0269 20.0427C97.9016 20.0427 98.4989 19.7441 98.4989 19.1254C98.4989 17.5681 92.9949 18.4214 92.9949 14.6667C92.9949 12.4907 94.8509 11.2747 97.0483 11.2747C98.7763 11.2747 100.27 12.0641 101.102 13.5361L98.7549 14.8161C98.4349 14.1334 97.8376 13.7281 97.0483 13.7281C96.3656 13.7281 95.8109 14.0267 95.8109 14.6027Z" fill="#18181E"/>
<path d="M87.6769 11.5734H90.4289V22.2401H87.6769V20.9814C86.9089 21.9414 85.7569 22.5387 84.1995 22.5387C81.3622 22.5387 79.0156 20.0854 79.0156 16.9067C79.0156 13.7281 81.3622 11.2747 84.1995 11.2747C85.7569 11.2747 86.9089 11.8721 87.6769 12.8321V11.5734ZM84.7115 19.9147C86.4182 19.9147 87.6769 18.6987 87.6769 16.9067C87.6769 15.1147 86.4182 13.8987 84.7115 13.8987C83.0262 13.8987 81.7675 15.1147 81.7675 16.9067C81.7675 18.6987 83.0262 19.9147 84.7115 19.9147Z" fill="#18181E"/>
<path d="M74.6895 13.4081C75.2442 11.9574 76.5882 11.3601 77.9322 11.3601V14.4321C76.5028 14.2614 74.6895 14.9014 74.6895 17.1414V22.2401H71.9375V11.5734H74.6895V13.4081Z" fill="#18181E"/>
<path d="M66.263 11.5734H69.0147V22.2401H66.263V20.9814C65.495 21.9414 64.343 22.5387 62.7856 22.5387C59.9483 22.5387 57.6016 20.0854 57.6016 16.9067C57.6016 13.7281 59.9483 11.2747 62.7856 11.2747C64.343 11.2747 65.495 11.8721 66.263 12.8321V11.5734ZM63.2976 19.9147C65.0043 19.9147 66.263 18.6987 66.263 16.9067C66.263 15.1147 65.0043 13.8987 63.2976 13.8987C61.6123 13.8987 60.3536 15.1147 60.3536 16.9067C60.3536 18.6987 61.6123 19.9147 63.2976 19.9147Z" fill="#18181E"/>
<path d="M52.4609 22.2401V6.66675H55.2129V22.2401H52.4609Z" fill="#18181E"/>
<path d="M43.7653 22.5387C39.2427 22.5387 36 19.1254 36 14.7734C36 10.4001 39.2427 7.00806 43.7653 7.00806C46.496 7.00806 48.9067 8.39473 50.1867 10.5281L47.648 12.0001C46.9227 10.6774 45.472 9.86672 43.7653 9.86672C40.8427 9.86672 38.9227 11.8934 38.9227 14.7734C38.9227 17.6321 40.8427 19.6587 43.7653 19.6587C45.472 19.6587 46.944 18.8481 47.648 17.5467L50.1867 19.0187C48.928 21.1521 46.5173 22.5387 43.7653 22.5387Z" fill="#18181E"/>
</g>
<defs>
<linearGradient id="paint0_linear_705_52" x1="26.0014" y1="6.26988" x2="32.361" y2="60.4042" gradientUnits="userSpaceOnUse">
<stop stop-color="#514FEE"/>
<stop offset="1" stop-color="#A8FFE5"/>
</linearGradient>
<linearGradient id="paint1_linear_705_52" x1="-717.953" y1="26.9638" x2="-686.123" y2="316.251" gradientUnits="userSpaceOnUse">
<stop stop-color="#514FEE"/>
<stop offset="1" stop-color="#A8FFE5"/>
</linearGradient>
<linearGradient id="paint2_linear_705_52" x1="-484.727" y1="23.3518" x2="-443.027" y2="274.837" gradientUnits="userSpaceOnUse">
<stop stop-color="#514FEE"/>
<stop offset="1" stop-color="#A8FFE5"/>
</linearGradient>
<linearGradient id="paint3_linear_705_52" x1="-538.931" y1="12.6447" x2="-458.506" y2="353.827" gradientUnits="userSpaceOnUse">
<stop stop-color="#514FEE"/>
<stop offset="1" stop-color="#A8FFE5"/>
</linearGradient>
<linearGradient id="paint4_linear_705_52" x1="-434.434" y1="-1.05561" x2="-322.082" y2="337.571" gradientUnits="userSpaceOnUse">
<stop stop-color="#514FEE"/>
<stop offset="1" stop-color="#A8FFE5"/>
</linearGradient>
<linearGradient id="paint5_linear_705_52" x1="-500.16" y1="-41.9849" x2="-259.693" y2="445.928" gradientUnits="userSpaceOnUse">
<stop stop-color="#514FEE"/>
<stop offset="1" stop-color="#A8FFE5"/>
</linearGradient>
<linearGradient id="paint6_linear_705_52" x1="-432.875" y1="-124.592" x2="20.1306" y2="391.956" gradientUnits="userSpaceOnUse">
<stop stop-color="#514FEE"/>
<stop offset="1" stop-color="#A8FFE5"/>
</linearGradient>
<linearGradient id="paint7_linear_705_52" x1="-516.94" y1="-112.119" x2="-288.992" y2="375.76" gradientUnits="userSpaceOnUse">
<stop stop-color="#514FEE"/>
<stop offset="1" stop-color="#A8FFE5"/>
</linearGradient>
<linearGradient id="paint8_linear_705_52" x1="-433.996" y1="-84.9406" x2="-320.208" y2="255.197" gradientUnits="userSpaceOnUse">
<stop stop-color="#514FEE"/>
<stop offset="1" stop-color="#A8FFE5"/>
</linearGradient>
<linearGradient id="paint9_linear_705_52" x1="-537.559" y1="-93.513" x2="-456.54" y2="248.069" gradientUnits="userSpaceOnUse">
<stop stop-color="#514FEE"/>
<stop offset="1" stop-color="#A8FFE5"/>
</linearGradient>
<linearGradient id="paint10_linear_705_52" x1="-482.139" y1="-73.0153" x2="-440.11" y2="178.428" gradientUnits="userSpaceOnUse">
<stop stop-color="#514FEE"/>
<stop offset="1" stop-color="#A8FFE5"/>
</linearGradient>
<linearGradient id="paint11_linear_705_52" x1="-713.162" y1="-86.9897" x2="-681.15" y2="201.641" gradientUnits="userSpaceOnUse">
<stop stop-color="#514FEE"/>
<stop offset="1" stop-color="#A8FFE5"/>
</linearGradient>
<clipPath id="clip0_705_52">
<rect width="142" height="30" fill="white"/>
</clipPath>
</defs>
</svg>
