<?xml version="1.0" encoding="UTF-8"?><svg id="b" xmlns="http://www.w3.org/2000/svg" viewBox="0 0 661.822 259.9624"><g id="c"><path d="M77.9802,201.6829l.6155,9.5605-18.5942-.0751c.8514-7.3883-.6006-14.9203-7.0869-18.7623-11.1529-6.6062-25.3869-2.5273-31.5473,8.88-4.9984,9.2556-5.2682,20.1628-1.2419,29.7751,4.5673,10.9038,15.4354,16.513,27.002,14.0471,7.8325-1.6698,14.517-9.1929,15.2293-17.009-.0237-.0361,2.3138.0018,3.112,0l14.4405-.0334-.6535,3.8032c-2.984,12.4891-10.4321,21.5835-22.7067,25.6807-21.3909,6.5674-44.1395-.8844-52.8819-21.8112-4.7597-11.3934-4.8721-24.1232-.4188-35.7143,5.655-14.7188,19.1843-23.9173,34.8777-24.7738,19.101-1.0424,35.6936,7.9169,39.8541,26.4326Z" fill="#fff"/><path d="M661.822,177.1319l-.0152,80.9309-15.781.0241-1.0348-5.7321c-7.1704,6.4096-14.6611,8.8995-24.3818,6.7937-6.9384-1.503-14.0351-7.0515-17.3037-15.0927-7.2571-17.8535-.8768-41.0376,17.4206-45.058,8.9846-1.9741,17.0579.3197,23.5032,6.3802l1.9027,1.7891.0578-30.0974,15.6324.0621ZM644.1619,239.5317c3.8548-6.6795,3.5983-14.9661-.1989-21.1985-2.904-4.7665-7.9623-6.6705-13.2512-6.374-4.5836.2569-9.5035,2.9782-11.8378,7.8585-2.7758,5.8034-2.8031,12.7638-.0112,18.5723,2.3347,4.8573,7.2926,7.5552,11.8498,7.8179,5.2226.301,10.4604-1.4972,13.4493-6.6762Z" fill="#fff"/><path d="M363.1157,177.0945l.1974,30.841c9.6622-12.1109,27.1384-12.9842,38.0353-1.9797,4.9687,5.0177,6.6593,11.6861,8.2337,18.2029l-.1351,10.346c-2.171,13.2287-10.4639,24.1198-24.361,25.2685-8.7726.7251-16.4031-2.55-21.5493-9.5557l-.4927,7.8999-15.5059-.0668-.0096-80.9588,15.5871.0028ZM389.0151,241.4918c5.7522-6.9152,5.6915-17.1055.7339-24.0153-5.2551-7.3245-17.0886-7.6298-22.6465-.5115-5.4033,6.9202-5.3566,17.3145.0158,24.2383,5.1401,6.6245,16.2575,7.0681,21.8968.2885Z" fill="#fff"/><path d="M324.0981,239.354l17.0765-.0542c-4.8071,19.8927-30.2622,25.7176-46.4458,16.164-9.3859-5.5408-13.4422-15.6209-13.4753-26.3875-.0344-11.1987,4.6457-21.7551,14.8244-27.0231,10.1129-5.2339,22.6202-5.0744,32.5798.5443,10.8379,6.1142,14.067,19.3174,9.7291,30.3654l-40.3405.0038c.4318,8.4,6.8611,14.0037,15.1773,13.2321,4.5569-.1962,8.5617-2.2822,10.8745-6.8448ZM323.3409,223.0428c.8978-7.2864-3.784-11.0396-9.5715-11.4543-7.725-1.1816-14.5415,3.4761-15.5645,11.5422l25.136-.0879Z" fill="#fff"/><path d="M474.2777,230.5187c-.315,17.8378-13.4022,29.1259-30.0262,29.4371-18.3287.343-31.1878-12.6698-31.1264-30.9208.0546-16.2503,10.4782-29.4278,27.2661-30.5856,8.9379-.6164,18.0202,1.4028,24.7801,7.6397,6.694,6.176,9.2745,14.9142,9.1065,24.4297ZM456.6365,236.9342c1.6785-4.9779,1.5833-10.6816.1605-15.3384-1.8289-5.9859-6.7519-9.3123-12.1704-9.6497-5.6962-.3547-10.9808,2.5693-13.3591,8.3652-2.0974,5.1114-2.1205,11.6274-.2482,16.7839,2.1274,5.8592,7.0862,9.1849,12.6537,9.1541,5.5365-.0307,10.8113-2.9324,12.9635-9.3151Z" fill="#fff"/><path d="M275.9737,220.9353l-15.4896-1.2389c.6384-2.7852-.7528-6.2852-3.5135-7.5024-7.558-3.3325-16.0319-.4889-15.9612,4.329.0197,1.3388,1.9822,4.1151,3.4269,4.4319l14.6767,3.2179c5.4715,1.1996,11.3003,2.7526,15.1587,6.7558,3.9728,4.1218,4.3131,9.8939,2.6997,15.2622-3.9269,13.0662-25.3186,16.7967-40.091,11.1297-8.3453-3.2014-13.5392-10.6654-12.5963-20.0487l14.9974,1.361c-.0373,2.2701,2.1904,6.5765,4.7267,7.477,10.2431,3.6365,18.9894-.9835,17.4814-5.3581-.3919-1.137-2.4682-3.1089-3.7555-3.3996l-18.0575-4.0783c-4.3818-.9896-9.7859-3.5221-12.3121-7.2622-5.7746-8.5495-1.7282-19.8431,7.4366-24.2529,10.0784-4.8494,22.2867-4.6503,32.1472.42,7.0539,3.6271,10.1654,10.479,9.0253,18.7569Z" fill="#fff"/><path d="M566.6901,212.0417c-6.0707,2.4025-9.3179,8.9326-9.3624,15.0482l-.2259,31.0012-15.5677-.0194.001-57.9594,15.4838-.0367.5953,8.5626c6.5134-9.9635,19.7153-13.9437,29.9507-6.841,4.871,3.3801,7.2275,10.5515,7.2688,16.5045l.2762,39.782-15.7642.0076-.1544-37.65c-.0096-2.3438-1.6893-5.7406-3.1155-7.0656-1.7498-1.6256-6.3492-2.5358-9.3857-1.3341Z" fill="#fff"/><path d="M193.1303,200.0792l-1.662,58.0317-14.6655-.026-.9281-7.86c-6.5918,8.7486-18.511,12.6461-28.125,6.1283-5.4059-3.665-8.1191-11.5818-8.1757-18.2281l-.3241-38.0292,15.728-.0052.2315,36.9749c.0197,3.1512,2.4814,7.0691,4.5642,8.2687,2.4014,1.3832,6.84,1.2146,9.4137-.2707,4.2197-2.4354,7.1882-7.8348,7.2182-12.9722l.187-31.9912,16.5379-.0211Z" fill="#fff"/><path d="M494.8918,200.0882l.2769,32.1711.5247,4.1699c.2998,2.3826,1.3509,6.2411,2.9566,7.7965,2.2037,2.1346,6.3221,2.4784,9.1016,1.6512,5.7889-1.7228,8.2076-7.714,8.8436-12.3425l.5852-4.2592.2839-29.1952,15.3339.0294.0199,57.9667-15.8141.0111-.8879-7.3536c-7.0038,8.2403-18.2759,11.9352-27.6303,5.8297-5.4605-3.564-8.2238-11.3903-8.2377-17.4284l-.09-39.0495,14.7338.0026Z" fill="#fff"/><path d="M102.8839,227.4229l-.1029,30.673-15.6098-.0259.0026-57.9576,15.516-.0347.6121,7.8589c3.51-5.3071,7.6996-8.8614,13.6175-9.506,5.6501-.6154,12.0366,1.3822,15.2079,6.687,4.5375,7.5902,3.4365,16.8361-.1628,24.5961l-16.4648.1025c4.4626-7.3972,4.6553-15.234-.385-17.3624-1.6769-.7081-5.7624-.2105-7.1861,1.3593-3.1053,3.4239-5.0275,8.4873-5.0447,13.61Z" fill="#fff"/><polygon points="218.1315 200.0765 216.4151 258.1174 201.5553 258.0657 201.5228 200.1116 218.1315 200.0765" fill="#fff"/><path d="M205.2414,174.8819c5.2594-2.4718,10.7876-.3295,12.9376,4.4988,1.9446,4.3672.5067,10.1436-4.641,12.4788-4.0516,1.8379-9.5362.6134-12.0293-3.5978-2.5313-4.2758-1.5636-10.8906,3.7327-13.3798Z" fill="#fff"/><path d="M428.2557,75.0327l-1.1411,1.0807-6.6835.056c-.3019.0025-1.7933.8224-1.3792.9349l-5.0306.8236-3.9258.9427-2.3639.5819-.0942.6752c-.7733-.1037-2.0051-.1016-2.5112.1158l-4.0419,1.7353-.5562.228-4.4453,1.8161-1.9327,1.1593-.8721.4151-4.0486,1.9278-3.6894,1.7524-3.4629,1.6414-1.9034,1.4728-2.848.91.4251.7551-2.5737.0089.0217-10.9543,1.0254-.088,5.0344-2.4166,3.2305-1.5538,2.9449-1.4664,2.7803-1.42,2.0291-1.0347,2.1294-1.0814,3.8101-1.9341,3.5803-1.0436,1.4783-.9875,2.751-.98,2.2534-.7925,2.9529-.8669,1.0374-.2062,2.7912-.5571,3.1686-.6326,2.7684-.5533,2.3033-.4635.7138-.0998,4.0368.0444c.379-.4575,1.2586-.8441,1.7581-.8724l2.2095-.125,1.6052-.015,4.6899.1874c-.2344.4178.9001-1.0832.899-1.3868l-.0441-11.7729c-.0027-.7343.4216-2.8362.7965-3.1452l-.1999-9.6428-1.9519-.0192-3.5608-.0358-2.4692-.0248-1.9247-.0193-3.4845.5905-2.2473.194-7.108,1.1079c-.2703-.0362-.7028-.123-.8978-.0789l-3.998.9047-3.9814,1.0848-2.9898,1.3162-1.8275.6917-2.0847.7598-2.9796,1.3411-3.2377,1.7496-5.8075,2.2107-2.0937.9354-1.9491.8735.3066,1.2807-2.6404.7729-3.6042,1.2441-3.4386,1.1365-.4154-4.9402.8323-6.1414c.4259.053.8545.0145,1.061-.1075l3.0827-1.8204,2.9058-1.1093,2.9669-1.892,2.0623-.9963,2.9268-1.2174,4.1791-1.9116,6.7374-3.0323,2.0773-.9224,2.0007-.033,1.7518-1.0585,2.2423-1.0096,1.1807-.144,4.7354-1.0558,1.121-.2371,3.0214-.481,3.9146-.5182,5.0223-.5283,10.0052.0343V1.0905s-.071-1.0624-.071-1.0624l-9.7585.0864c-.5107.0045-2.4813.592-2.3076.9522l-6.879-.0483-1.162.9272-4.9774.9838-3.9169,1.006-1.8132.2181-3.094,1.0181-4.1119,1.8174-.8237.3802-6.1436,2.842-2.8593,1.35-5.2264,2.5048c-.0983.4396-.239.842-.2424,1.0297l-5.6661,1.9985-.8726.3524-2.1542.7453-.0154.9465-1.7912-.002-.1815-18.6781-3.9091.2366-2.0587.1245-5.9874-.0339-2.0006.1854-6.1042,1.0598-.9425-.0618-4.0856,1.1221-3.7435.7294c-.1041-.0278-.185-.0294-.1981.0386l-1.7342.6501-1.1312.424c-.5074.0319-1.5972.0135-2.0596.2194l-4.0289,1.7943c-.2458.0319-.6527.0612-.8678.1622l-4.0912,1.9214-2.0214.971-.7123.222-2.1867.9897-2.4241,1.3196-4.6009,2.4089-1.1257.0735-3.0072,2.116-1.5231.8771-1.4284.2319c-.1841.4095-1.4702-1.8863-1.4681-2.4405l.059-15.357L300.5435,0c-.2989-.0118-1.9802,1.0988-1.3814.9628l-1.2327.0149-6.8111.9607-8.9996,2.0244-9.1864,3.2563-8.3878,3.8837-11.5423,5.83-6.73,2.9786-8.1074,2.8907-8.7823,1.9655-7.1944,1.2213-2.8647.2347-11.1398.3831-.0192,26.4658,11.2058-.488c.2574.0062.5103-.0003.7519-.0327l2.0443-.2739,12.1074-1.9417,6.9586-2.1128,4.9391-1.9869,9.0924-4.0745,9.0865-4.6476,7.1176-3.173.7364,10.729-2.0856.9646-10.0319,4.874-10.6953,5.1956-6.33,2.6617-6.8571,2.1272-10.1343,2.079-6.9301.8303-9.0975.455-1.8683.0912-.0027,26.3174,3.9243.0046,7.0916-.5352,7.1142-.886,9.8635-2.0529,9.1284-2.9346,6.9921-3.0501,9.1089-4.5984,10.8137-4.3799.053,9.9471-5.3456,2.7746-6.9691,3.4228-8.6594,4.1819-8.197,3.5096-9.0911,2.9203-5.9968,1.0714-8.8829,1.114-10.947.5933-.0044,26.4122,11.9052-.5455,6.9319-.8833,8.3226-1.7943,8.0097-2.5867,9.2725-3.8348,9.7193-5.0789,4.1605-2.1819,5.426-1.9151.3155,16.8927.7137,1.8939,4.2063-.0886,2.1795-.0456,4.5574-.0959,2.1974-.3729,2.1072-.3891,4.2547-.7831.8496-.0823,4.9328-.9192,1.1317-.4012,3.0029-1.0644,1.96-.6967,2.8726-1.0249,2.9937-1.0703,2.9642-1.0616,2.0226-.9283,2.0078-1.0094,1.9993-1.0058,2.0568-1.0345,2.9419-1.8791,2.028-1.0417,2.1019-.9893,4.9316-1.9333.9094-.3408.7295-.2714c.3159-.1294,1.3054,2.1443,1.3051,2.8344l-.0085,15.6891,15.8266-1.0626,7.8726-1.0175,1.2825-.1147,1.8887-.8714,2.1293-.7416,2.0875-.5061,1.9566-.6401,2.0612-.8535,2.8939-1.1995,4.0352-1.8315,2.9575-1.2219,2.0333-1.0115,2.0121-1.0422,1.9747-1.0229,3.9562-2.0484,3.1869-1.6495,2.6313-1.0587,3.1017-1.2472,1.2475-.6544,1.9564-.837,1.6365-.5407,3.0175-.9019,2.0807-.597,2.8628-.7207,2.2013-.6304,3.0085-.9308,2.3113-.2699,3.6864-.4295,2.9764-.3549,2.1709-.0119,8.8159-.043,1.168-2.9548-.1727-24.015-10.78-.0756ZM315.134,44.0106l4.0703-1.8647,2.0275-1.028,3.1385-1.6224.8457-.4197,1.9661-.9742,2.0291-1.0261,3.0944-1.5919,1.8931-1.3629,1.9393-.027.1049,10.9632-1.9689.9167-4.2024,1.9589-1.774.9407c-.0315-.0005-.062.0101-.0896.0475l-2.0775,1.1015-1.8722.9223c-.0401-.0055-.0781.0072-.1115.0549l-1.9801.9105c-.0345.0002-.0676.0103-.0975.0448l-6.0218,2.9974-3.7796,1.3283.1359-11.0157,2.7303-1.254ZM334.0367,83.7667l-2.8821,1.2112-3.9757,1.8844-2.1133,1.1072-1.0167.378-4.957,2.5908-1.9872,1.0414-1.9725,1.0335-1.9803,1.0425-1.5903-.1788.1912-10.7894,6.485-2.8217,5.0982-2.7728,2.0361-1.0246,2.7646-1.3904,1.2213-.6662,2.7666-1.1917,4.1137-1.0974-.0858,10.1187-2.116,1.5253Z" fill="#fff"/></g></svg>