<?xml version="1.0" encoding="UTF-8"?><svg id="b" xmlns="http://www.w3.org/2000/svg" viewBox="0 0 661.822 259.9624"><g id="c"><path d="M77.9802,201.6829l.6155,9.5605-18.5942-.0751c.8514-7.3883-.6006-14.9203-7.0869-18.7623-11.1529-6.6062-25.3869-2.5273-31.5473,8.88-4.9984,9.2556-5.2682,20.1628-1.2419,29.7751,4.5673,10.9038,15.4354,16.513,27.002,14.0471,7.8325-1.6698,14.517-9.1929,15.2293-17.009-.0237-.0361,2.3138.0018,3.112,0l14.4405-.0334-.6535,3.8032c-2.984,12.4891-10.4321,21.5835-22.7067,25.6807-21.3909,6.5674-44.1395-.8844-52.8819-21.8112-4.7597-11.3934-4.8721-24.1232-.4188-35.7143,5.655-14.7188,19.1843-23.9173,34.8777-24.7738,19.101-1.0424,35.6936,7.9169,39.8541,26.4326Z" fill="#2e2e2e"/><path d="M661.822,177.1319l-.0152,80.9309-15.781.0241-1.0348-5.7321c-7.1704,6.4096-14.6611,8.8995-24.3818,6.7937-6.9384-1.503-14.0351-7.0515-17.3037-15.0927-7.2571-17.8535-.8768-41.0376,17.4206-45.058,8.9846-1.9741,17.0579.3197,23.5032,6.3802l1.9027,1.7891.0578-30.0974,15.6324.0621ZM644.1619,239.5317c3.8548-6.6795,3.5983-14.9661-.1989-21.1985-2.904-4.7665-7.9623-6.6705-13.2512-6.374-4.5836.2569-9.5035,2.9782-11.8378,7.8585-2.7758,5.8034-2.8031,12.7638-.0112,18.5723,2.3347,4.8573,7.2926,7.5552,11.8498,7.8179,5.2226.301,10.4604-1.4972,13.4493-6.6762Z" fill="#2e2e2e"/><path d="M363.1157,177.0945l.1974,30.841c9.6622-12.1109,27.1384-12.9842,38.0353-1.9797,4.9687,5.0177,6.6593,11.6861,8.2337,18.2029l-.1351,10.346c-2.171,13.2287-10.4639,24.1198-24.361,25.2685-8.7726.7251-16.4031-2.55-21.5493-9.5557l-.4927,7.8999-15.5059-.0668-.0096-80.9588,15.5871.0028ZM389.0151,241.4918c5.7522-6.9152,5.6915-17.1055.7339-24.0153-5.2551-7.3245-17.0886-7.6298-22.6465-.5115-5.4033,6.9202-5.3566,17.3145.0158,24.2383,5.1401,6.6245,16.2575,7.0681,21.8968.2885Z" fill="#2e2e2e"/><path d="M324.0981,239.354l17.0765-.0542c-4.8071,19.8927-30.2622,25.7176-46.4458,16.164-9.3859-5.5408-13.4422-15.6209-13.4753-26.3875-.0344-11.1987,4.6457-21.7551,14.8244-27.0231,10.1129-5.2339,22.6202-5.0744,32.5798.5443,10.8379,6.1142,14.067,19.3174,9.7291,30.3654l-40.3405.0038c.4318,8.4,6.8611,14.0037,15.1773,13.2321,4.5569-.1962,8.5617-2.2822,10.8745-6.8448ZM323.3409,223.0428c.8978-7.2864-3.784-11.0396-9.5715-11.4543-7.725-1.1816-14.5415,3.4761-15.5645,11.5422l25.136-.0879Z" fill="#2e2e2e"/><path d="M474.2777,230.5187c-.315,17.8378-13.4022,29.1259-30.0262,29.4371-18.3287.343-31.1878-12.6698-31.1264-30.9208.0546-16.2503,10.4782-29.4278,27.2661-30.5856,8.9379-.6164,18.0202,1.4028,24.7801,7.6397,6.694,6.176,9.2745,14.9142,9.1065,24.4297ZM456.6365,236.9342c1.6785-4.9779,1.5833-10.6816.1605-15.3384-1.8289-5.9859-6.7519-9.3123-12.1704-9.6497-5.6962-.3547-10.9808,2.5693-13.3591,8.3652-2.0974,5.1114-2.1205,11.6274-.2482,16.7839,2.1274,5.8592,7.0862,9.1849,12.6537,9.1541,5.5365-.0307,10.8113-2.9324,12.9635-9.3151Z" fill="#2e2e2e"/><path d="M275.9737,220.9353l-15.4896-1.2389c.6384-2.7852-.7528-6.2852-3.5135-7.5024-7.558-3.3325-16.0319-.4889-15.9612,4.329.0197,1.3388,1.9822,4.1151,3.4269,4.4319l14.6767,3.2179c5.4715,1.1996,11.3003,2.7526,15.1587,6.7558,3.9728,4.1218,4.3131,9.8939,2.6997,15.2622-3.9269,13.0662-25.3186,16.7967-40.091,11.1297-8.3453-3.2014-13.5392-10.6654-12.5963-20.0487l14.9974,1.361c-.0373,2.2701,2.1904,6.5765,4.7267,7.477,10.2431,3.6365,18.9894-.9835,17.4814-5.3581-.3919-1.137-2.4682-3.1089-3.7555-3.3996l-18.0575-4.0783c-4.3818-.9896-9.7859-3.5221-12.3121-7.2622-5.7746-8.5495-1.7282-19.8431,7.4366-24.2529,10.0784-4.8494,22.2867-4.6503,32.1472.42,7.0539,3.6271,10.1654,10.479,9.0253,18.7569Z" fill="#2e2e2e"/><path d="M566.6901,212.0417c-6.0707,2.4025-9.3179,8.9326-9.3624,15.0482l-.2259,31.0012-15.5677-.0194.001-57.9594,15.4838-.0367.5953,8.5626c6.5134-9.9635,19.7153-13.9437,29.9507-6.841,4.871,3.3801,7.2275,10.5515,7.2688,16.5045l.2762,39.782-15.7642.0076-.1544-37.65c-.0096-2.3438-1.6893-5.7406-3.1155-7.0656-1.7498-1.6256-6.3492-2.5358-9.3857-1.3341Z" fill="#2e2e2e"/><path d="M193.1303,200.0792l-1.662,58.0317-14.6655-.026-.9281-7.86c-6.5918,8.7486-18.511,12.6461-28.125,6.1283-5.4059-3.665-8.1191-11.5818-8.1757-18.2281l-.3241-38.0292,15.728-.0052.2315,36.9749c.0197,3.1512,2.4814,7.0691,4.5642,8.2687,2.4014,1.3832,6.84,1.2146,9.4137-.2707,4.2197-2.4354,7.1882-7.8348,7.2182-12.9722l.187-31.9912,16.5379-.0211Z" fill="#2e2e2e"/><path d="M494.8918,200.0882l.2769,32.1711.5247,4.1699c.2998,2.3826,1.3509,6.2411,2.9566,7.7965,2.2037,2.1346,6.3221,2.4784,9.1016,1.6512,5.7889-1.7228,8.2076-7.714,8.8436-12.3425l.5852-4.2592.2839-29.1952,15.3339.0294.0199,57.9667-15.8141.0111-.8879-7.3536c-7.0038,8.2403-18.2759,11.9352-27.6303,5.8297-5.4605-3.564-8.2238-11.3903-8.2377-17.4284l-.09-39.0495,14.7338.0026Z" fill="#2e2e2e"/><path d="M102.8839,227.4229l-.1029,30.673-15.6098-.0259.0026-57.9576,15.516-.0347.6121,7.8589c3.51-5.3071,7.6996-8.8614,13.6175-9.506,5.6501-.6154,12.0366,1.3822,15.2079,6.687,4.5375,7.5902,3.4365,16.8361-.1628,24.5961l-16.4648.1025c4.4626-7.3972,4.6553-15.234-.385-17.3624-1.6769-.7081-5.7624-.2105-7.1861,1.3593-3.1053,3.4239-5.0275,8.4873-5.0447,13.61Z" fill="#2e2e2e"/><polygon points="218.1315 200.0765 216.4151 258.1174 201.5553 258.0657 201.5228 200.1116 218.1315 200.0765" fill="#2e2e2e"/><path d="M352.3492,104.0149c.1471-.2242,1.9065,1.5414,1.89,2.2331l-.3436,14.4337c-.076,3.1925.0922,4.812-1.8885,6.3967l-15.8266,1.0626.0085-15.6891c.0004-.6901-.9891-2.9638-1.305-2.8344l2.4437-1.1604,2.9377-1.2336,1.9456-.8201,1.0177-.2269,3.3202-1.0901,2.6847-.8792.9433-.0405,2.1723-.1516Z" fill="#303dbe"/><path d="M311.1442,20.8175l-.3209,5.4742-3.7367.5785-9.9042.1165-.0523-4.2783.2775-6.7016c.0406-.9807,1.0342-3.3686,1.2896-3.7727-.8484-1.7649-1.2893-3.8249-1.1767-5.8168l.4088-5.4396,1.2326-.0149,7.7639.5647,4.526,1.7842c-.0977.1613-1.516,2.4098-.7465,1.1894-2.1303-.5177-3.5008-.691-3.4338-.1153.0447.3837.2587,1.2037.5377,1.471l1.3842,1.3262-1.6803,2.4149c-.7707,1.1076,3.278,2.792,3.1639,4.2952-3.0847.1446-2.5732,1.1277-.2973,1.7917,1.0293,1.1302-.0968,2.1194-2.0844,1.9628-1.325-2.2473-.7873-1.3347.04.071l1.0299,2.7267c.1834.4855,1.1766.4754,1.7787.3723Z" fill="#01d4fe"/><path d="M205.2414,174.8819c5.2594-2.4718,10.7876-.3295,12.9376,4.4988,1.9446,4.3672.5067,10.1436-4.641,12.4788-4.0516,1.8379-9.5362.6134-12.0293-3.5978-2.5313-4.2758-1.5636-10.8906,3.7327-13.3798Z" fill="#2f2f2f"/><path d="M270.1191,46.0351l.3452,8.023.124,10.9761.2914,5.6909,1.343.318-.014,1.1908-10.8137,4.3799c-1.2454-1.3139-2.3158-4.5639-2.2223-6.5357l.6938-14.6342.2207-4.5347,10.0319-4.874Z" fill="#02defe"/><path d="M219.1198,101.1754l-1.4682,2.1706c.108.24.8578,1.0549.7562,1.4114l-.5929,2.0799,1.436,3.7989c.3298.8724-1.3439,2.4512-1.9734,3.0941l1.8757.8915c.3781.1797-.4582,1.5752-.568,1.4755-.6642-.3731-1.4747-.8919-1.5986-.5692l-.8994,2.3432,4.3574-.8357c-.4462,2.666-1.8913,5.5724-3.1349,6.8498l2.764,3.7501-11.9052.5456.0044-26.4122,10.947-.5933Z" fill="#01edfe"/><path d="M264.5446,11.1029l-1.176,11.6307-.3485,12.9505c-.0079.2947,1.2268,2.0463,1.3305,1.8303l-9.0865,4.6476-1.6149-.1492c-.3894-.0097-.4852-1.4062-.4599-1.8123l.3831-6.1386-.2268-7.7442-.3433-9.3849,11.5423-5.83Z" fill="#01e0fe"/><polygon points="236.2049 60.8935 236.3194 69.6674 236.1655 87.1969 226.302 89.2498 226.3192 68.5103 226.0706 62.9725 236.2049 60.8935" fill="#01e8fe"/><path d="M291.1184,1.9385l-.7591,7.3796.9132,9.3029c-.9126,1.5317-.9511,4.0592-.315,6.7912-.8112.0049-3.8722,2.2485-3.8348,3.7363l-2.0062.5693-3.9501,1.3429-1.7073-.1811c1.1589-2.3887,1.1342-7.2683.9899-10.7146l-.3862-9.222c-.0936-2.2343.8114-5.2245,2.0561-6.9802l8.9996-2.0243Z" fill="#01d8fe"/><path d="M262.3295,113.4574l-9.7193,5.0789c-.332-.2519-1.9094-.3663-1.9871-.8125l-.3895-2.235c-.2962-1.6995-.1683-3.5969.0916-5.6314.7787-6.0937-1.171-7.7518-.2689-11.3509l1.2314-5.9461,8.6594-4.182-.1815,6.9995.8478,2.4351-.8316,8.3683c-.2611,2.6276.5817,5.5659,2.5478,7.2762Z" fill="#01e1fe"/><path d="M280.708,68.2102l-.027.9483-2.4752.1705c-.8635.1816-2.3003.9785-3.111,1.4483l-2.8721.2659-1.343-.318-.2914-5.6909-.124-10.9761-.3452-8.023,2.0855-.9646,4.0508-1.758,3.1269-1.1817.6364,7.0295.4829,5.0574.3311,11.1252c.0104.3495-1.2785,1.5068-1.0548,1.7706l.9301,1.0967Z" fill="#01dbfe"/><path d="M261.395,76.6137l-9.1089,4.5985-3.0049-.2029c.3928-.6977,1.2222-2.1114,1.1941-2.7466l-.3925-8.8767-.6908-13.2813,10.6952-5.1956-.2207,4.5347-.6938,14.6342c-.0935,1.9718.9769,5.2218,2.2223,6.5357Z" fill="#01e1fe"/><path d="M238.165,22.8022l1.4438,2.1651c-1.0762,3.2343-.7066,7.4824-.5294,10.7529l.5285,9.7552-.3775,2.271c-.093.5596,1.4944.4787,2.0022.4771l-6.9586,2.1128-5.2135-.128.2061-8.9109.1984-8.5916-.0823-7.938,8.7824-1.9655Z" fill="#01e7fe"/><path d="M233.9996,98.9901l2.7811.2778-.3031,4.6929.0244,8.1609-1.174,12.8362-8.3226,1.7942c-.3191-.4508-.361-.7391-.2354-1.1087l.6342-1.8663c-.8574-1.706-.9179-4.5929-.0736-6.8216-.9473-3.2393-1.4414-7.2265-.7594-11.085l1.4315-5.8088,5.9968-1.0714Z" fill="#01e8fe"/><path d="M282.1187,3.9628c-1.2447,1.7557-2.1497,4.7459-2.0561,6.9802l.3862,9.222c.1443,3.4464.169,8.326-.9899,10.7146l-.4307.8877-2.9593,1.1261-2.8807.2793-2.5038-4.2632.6122-1.6351-1.0145-5.9231,2.8311.1147-.9233-5.9832-1.8279,2.9923.7938-4.2648.1993-4.4579c.8474-.232,1.4069-.2626,1.4853-.612l.0918-1.9212,9.1864-3.2564Z" fill="#01dbfe"/><path d="M272.9324,7.2192l-.0918,1.9212c-.0784.3494-.6379.38-1.4853.612l-.1993,4.4579-.7938,4.2648,1.8279-2.9923.9233,5.9832-2.8311-.1147,1.0145,5.9231-.6122,1.6351,2.5038,4.2632-1.72,1.1689-7.1176,3.173c-.1037.216-1.3384-1.5356-1.3305-1.8303l.3485-12.9505,1.176-11.6307,8.3877-3.8837Z" fill="#01defe"/><path d="M228.0027,100.0615l-1.4315,5.8088c-.682,3.8585-.1879,7.8457.7594,11.085-.8443,2.2287-.7838,5.1157.0736,6.8216l-.6342,1.8663c-.1256.3697-.0837.6579.2354,1.1087l-6.9319.8833-2.764-3.7501c1.2436-1.2773,2.6887-4.1838,3.1349-6.8498l-4.3574.8357.8994-2.3432c.1239-.3227.9344.1961,1.5986.5692.1098.0997.9461-1.2958.568-1.4755l-1.8757-.8915c.6295-.6429,2.3032-2.2217,1.9734-3.0941l-1.436-3.7989.5929-2.0799c.1016-.3565-.6482-1.1713-.7562-1.4114l1.4682-2.1706,8.8829-1.114Z" fill="#01ebfe"/><path d="M252.6102,118.5363l-9.2725,3.8348-.7215-6.0074.1859-8.1526.4162-3.5835c-.778-2.2942-1.0804-5.9472-.1278-8.5578l8.1971-3.5096-1.2314,5.9461c-.9021,3.5991,1.0475,5.2572.2689,11.3509-.26,2.0345-.3878,3.932-.0916,5.6314l.3895,2.235c.0778.4462,1.6552.5606,1.9871.8125Z" fill="#01e4fe"/><path d="M219.1406,63.8028l.0473,26.333-7.0916.5352-.2599-10.2495c.395-.3919,1.3649-1.3289.9666-1.3945l-2.4354-.4011,2.399-6.5934-.7872-4.3678c-.183-1.0155-1.1945-2.9409-1.9365-3.4071l9.0976-.455Z" fill="#01edfe"/><path d="M222.1882,25.989l-.287,7.275c.2054.5404,1.0029,1.9412.945,2.4854l-.67,6.2931c-.1555,1.4606.5478,4.2578,1.1571,5.5102l-1.1667,4.7252-2.0443.2739c-3.2766.439-8.2746-2.8158-7.4874-5.663l4.5021-3.4468-3.7129.532,1.9635-4.2872c.4821-1.0525-2.2542-2.0535-3.2477-6.0747-.0976-.395,1.3073-.337,1.6428-.1581l3.4005,1.8127-2.4448-3.6432,1.1357-4.0744,3.4496-1.3255,2.8647-.2347Z" fill="#01ecfe"/><path d="M297.9295.9777l-.4088,5.4396c-.1126,1.992.3282,4.0519,1.1767,5.8168-.2555.4041-1.249,2.792-1.2896,3.7727l-.2775,6.7016.0523,4.2783c-.6487.0076-2.2052.3676-2.0809,1.0545l-1.4989.0973-4.4164.5978-2.0636.412c-.0374-1.4878,3.0236-3.7314,3.8348-3.7363-.636-2.7319-.5976-5.2595.315-6.7912l-.9132-9.3029.7591-7.3796,6.8111-.9607Z" fill="#01d5fe"/><path d="M243.062,58.7663c.4579.4607.6704,1.9386.6609,2.4797l-.2902,16.4376-1.0767,6.5992,2.9379-.0206-9.1284,2.9346.1539-17.5295-.1145-8.7739,6.8571-2.1272Z" fill="#01e5fe"/><path d="M229.3826,24.7677l.0823,7.938-.1984,8.5916-.2061,8.9109,5.2135.128-12.1074,1.9417,1.1667-4.7252c-.6093-1.2525-1.3127-4.0497-1.1571-5.5102l.67-6.2931c.0579-.5441-.7396-1.945-.945-2.4854l.287-7.275,7.1944-1.2213Z" fill="#02eafe"/><path d="M253.0023,16.9329l.3433,9.3849.2268,7.7442-.3831,6.1386c-.0253.406.0705,1.8026.4599,1.8123l1.6149.1492-9.0924,4.0746.1007-26.3251,6.73-2.9786Z" fill="#01e3fe"/><path d="M246.2723,19.9115l-.1007,26.3251-4.9391,1.9869c-.5078.0016-2.0952.0825-2.0022-.4771l.3775-2.271-.5285-9.7552c-.1772-3.2705-.5467-7.5186.5294-10.7529l-1.4438-2.1651,8.1074-2.8907Z" fill="#01e5fe"/><polygon points="226.0706 62.9725 226.3192 68.5103 226.302 89.2498 219.1879 90.1358 219.1406 63.8028 226.0706 62.9725" fill="#01ebfe"/><path d="M219.3235,26.2237l-3.4496,1.3255-1.1357,4.0744,2.4448,3.6432-3.4005-1.8127c-.3355-.1789-1.7404-.2369-1.6428.1581.9935,4.0212,3.7298,5.0221,3.2477,6.0747l-1.9635,4.2872,3.7129-.532-4.5021,3.4468c-.7872,2.8472,4.2108,6.102,7.4874,5.663l-11.9577.5207.0192-26.4657,11.1397-.3831Z" fill="#02eefe"/><path d="M249.392,56.1046l.6908,13.2813.3925,8.8767c.0281.6352-.8012,2.0489-1.1941,2.7466l3.0049.2029-6.9922,3.0501-2.9379.0206,1.0767-6.5992.2902-16.4376c.0096-.5411-.203-2.0191-.6609-2.4797l6.33-2.6618Z" fill="#01e4fe"/><path d="M243.0906,96.0699c-.9526,2.6106-.6502,6.2636.1278,8.5578l-.4162,3.5835-.1859,8.1526.7215,6.0074-8.0097,2.5867,1.174-12.8362-.0244-8.1609.3031-4.6929-2.7811-.2778,9.0911-2.9202Z" fill="#02e6fe"/><path d="M266.9162,84.9555l-.2815,5.0082.204,6.9681.6594,1.6921c.1213.3114-.5247.9906-.7326,1.3361l-.0922,7.0003-.1833,4.3151-4.1605,2.182c-1.966-1.7103-2.8089-4.6487-2.5478-7.2762l.8316-8.3683-.8478-2.4351.1815-6.9995,6.9691-3.4228Z" fill="#01dffe"/><path d="M271.9787,108.6795l-.0627.6809-5.426,1.915.1833-4.3151.0922-7.0003c.2078-.3454.8539-1.0247.7326-1.3361l-.6594-1.6921-.204-6.9681.2815-5.0082,5.3456-2.7746.6751,4.0588c.0798.4797,1.2829,1.5343,1.0408,1.9501l-1.5201,2.6114,2.2088,2.7502c-.4919.9459-1.3912,3.3234-1.537,4.4122l-1.1507,10.7158Z" fill="#01ddfe"/><path d="M315.134,44.0106l-2.7303,1.254-1.0302-.3091.2114-7.1564-9.6494.2017,4.0266-1.4254,1.1245-9.7051,3.7367-.5785.3209-5.4742c.048-.8195,1.5365-2.0855,1.9897-2.5777l1.4284-.2319.5788,4.991-.007,21.0116Z" fill="#344efe"/><path d="M360.1676,103.33l-.0705.9896-.3119,6.5005.0946,15.2408-7.8726,1.0174c1.9807-1.5847,1.8125-3.2042,1.8885-6.3967l.3436-14.4337c.0165-.6917-1.743-2.4573-1.89-2.2331l-.034-.9272.8632.3468,6.9891-.1045Z" fill="#3b42c5"/><path d="M381.8573,79.0539l-.5989,1.553-5.0344,2.4166-1.0254.0879.1418-6.8957c2.7062-3.0968,2.9352-9.7388.2348-12.4066l.1873-7.5883,3.4386-1.1364,1.3098.2083c.345.048.0774,1.4812.1087,1.8656l.5679,6.9737.4703,10.8003.1993,4.1218Z" fill="#534cd3"/><path d="M394.1154,10.2112l1.5394-.0761c.3791-.0301.8881,1.6188.8911,2.1157l.0783,12.7111c.0255,4.1323-.1109,7.7279-1.2601,11.1229l-4.1792,1.9116.0711-26.4352,2.8592-1.35Z" fill="#6251dd"/><path d="M402.1015,33.0524l-6.7373,3.0324c1.1491-3.395,1.2855-6.9906,1.2601-11.1229l-.0783-12.7111c-.0031-.4969-.512-2.1458-.8911-2.1157l-1.5394.0761,6.1436-2.842,1.1966,5.9126-.4925,6.913,1.1385,12.8577Z" fill="#6955e2"/><polygon points="427.0371 1.0667 429.0909 1.0809 428.9612 6.123 429.1923 25.9675 429.169 27.0646 424.1467 27.5928 424.5334 22.9136 424.6017 11.9107 424.661 2.2902 420.2662 2.0189 418.9961 1.9456 420.1581 1.0184 427.0371 1.0667" fill="#8760f5"/><polygon points="424.1467 27.5928 420.2322 28.111 420.6134 9.1219 420.2662 2.0189 424.661 2.2902 424.6017 11.9107 424.5334 22.9136 424.1467 27.5928" fill="#825ef2"/><polygon points="316.0853 17.1309 319.1749 17.2007 319.2043 42.1458 315.134 44.0106 315.1411 22.999 314.5622 18.008 316.0853 17.1309" fill="#3058fe"/><path d="M427.1146,76.1134l-.0772,9.1205.0162,16.8991-2.9764.3549-.2861-2.7504-.2535-22.27-2.0911-.1735-2.3947-.1895c-.4141-.1125,1.0773-.9324,1.3792-.9349l6.6835-.056Z" fill="#865ff4"/><polygon points="375.1063 .4582 375.2878 19.1363 375.4197 26.0076 371.551 25.9795 371.4774 13.6144 371.1972 .6948 375.1063 .4582" fill="#02bcfe"/><path d="M210.043,64.2578c.7421.4662,1.7535,2.3917,1.9365,3.4071l.7872,4.3678-2.399,6.5934,2.4354.4011c.3983.0656-.5716,1.0026-.9666,1.3945l.2599,10.2495-3.9243-.0045.0028-26.3175,1.8683-.0913Z" fill="#02eefe"/><path d="M369.1384.8193l-.6615.3336-2.2093.2885-.1132,24.4319,2.7133.0534,2.6832.0528,3.8687.0281c.0078.4077-.8497,1.0523-1.2563,1.0551l-1.9884.0137-4.904.0341-2.9658.0213-1.1381.0072-.0162-26.3536,5.9874.0339Z" fill="#09acfe"/><path d="M377.7507,94.0568l.1016,17.9851.3623,7.2607-4.0352,1.8314-.0462-19.101c.3051-.0017,1.0304-.7593,1.0309-1.0642l.0129-6.9032,2.5737-.0089Z" fill="#4e4ad1"/><path d="M429.8259,38.1055c-.4648,2.4289-.3424,4.4385-.294,7.0018l.2444,18.9977c-.4994.0283-1.3791.415-1.758.8724l-4.0368-.0444c3.8326-1.5896,2.8819-4.8753,2.8001-8.5054l-.4402-17.7316,3.4845-.5905Z" fill="#8961f6"/><polygon points="401.763 71.0727 398.1827 72.1163 398.2273 46.0174 401.2069 44.6762 401.4768 53.426 401.5883 61.8364 401.763 71.0727" fill="#6955e2"/><path d="M380.3232,43.2114l-3.0827,1.8203-.1622-17.9954.0007-7.898.0154-.9464,2.1542-.7453c.726.6187,1.425,2.7226,1.4105,3.6927l-.1919,12.9177-.1441,9.1545Z" fill="#524bd3"/><path d="M391.1484,112.9557l-3.9562,2.0484.756-8.568.1956-13.9283c.0119-.8476-2.3382-3.1847-2.6039-3.2301l3.6894-1.7524c1.3113.8484,1.7467,3.1718,1.7582,5.2786l.1609,20.1518Z" fill="#5d50da"/><path d="M418.9961,1.9456l1.2701.0733.3472,7.103-.3812,18.9891-3.0215.4809-.2636-7.2156c-.0195-.4577,1.0087-1.8501.7981-2.257l-1.1766-2.2736,1.2664-9.4336.1201-4.4823-3.3156.4039-.6208-.4045,4.9774-.9838Z" fill="#7f5dee"/><path d="M381.1665,92.2428l-.4298,10.3095.4353,15.5284-2.9574,1.2219-.3623-7.2607-.1016-17.9851-.4251-.755,2.848-.91c.2439-.0758.7213-.1543.9929-.149Z" fill="#524bd3"/><path d="M414.0187,2.9294l.6208.4045.302,21.6623c-.105,1.3686.2813,3.0002,1.1482,3.8328l-4.7353,1.0558.7106-3.7341.1283-20.1192c.0027-.4248-.2341-1.7826-.6054-1.8424l-1.4861-.2537,3.9169-1.006Z" fill="#795beb"/><path d="M398.1827,72.1163l-3.81,1.9341c.3539-.9114.9235-3.6602.889-4.7989l-.4647-15.3316.1926-6.153,3.2377-1.7496-.0446,26.099Z" fill="#6553df"/><polygon points="391.185 37.9964 388.2582 39.2137 388.2268 14.3334 386.0297 14.066 391.2562 11.5612 391.185 37.9964" fill="#5d50da"/><path d="M356.2353,2.1377l.0154,24.6787,3.0029.2368,1.2074.0792-.2251,1.1984-4.129-.136-2.8913-.0054.0295-22.9226c.0069-.7919.6266-3.0058.8586-3.298l.9425.0617,1.189.1072Z" fill="#119afe"/><path d="M418.0795,103.1873l-3.0085.9308-.1195-7.2256.0698-15.6489.1715-3.2624,2.3663.5136c.5567.1208.7721,1.7843.7658,2.3828l-.1072,10.1611-.138,12.1486Z" fill="#7b5bed"/><path d="M340.0954,32.298l-2.7303.9425c-.3143.4362-1.2232-1.8532-1.2212-2.4452l.111-23.6865c.215-.101.6219-.1304.8678-.1622l2.0411.4723.0147,23.5521.917,1.3271Z" fill="#1f7bfe"/><path d="M410.0955,78.8707l2.9717.3183-.2996,6.9595.1022,18.6-2.8628.7207c-2.7946-1.4576,3.4765-4.6613-.6621-12.2683l1.1452-4.9876-.4288-5.1439c-.0543-.6514.2496-2.6991-.2761-2.934l-2.0535-.6829,2.3639-.5819Z" fill="#7659ea"/><polygon points="337.3277 108.4571 334.884 109.6175 334.1545 109.8889 334.0367 83.7667 336.1527 82.2414 337.0827 82.0542 337.3277 108.4571" fill="#2178fe"/><path d="M332.3057,35.4834l-3.0944,1.5919.2186-26.8521.7124-.222,1.5199.1328c.3745.0071.5302,1.4416.53,1.8478l.1136,23.5016Z" fill="#266ffe"/><polygon points="375.1742 38.0905 375.3472 51.2806 375.7626 56.2208 375.5753 63.8091 372.1877 64.126 372.1742 38.0906 375.1742 38.0905" fill="#02bcfe"/><path d="M394.3353,111.3062l-3.1869,1.6495-.1609-20.1518c-.0115-2.1069-.4469-4.4302-1.7582-5.2786l4.0486-1.9278.6479,9.0441-.009,8.7072.4185,7.9574Z" fill="#6151dc"/><path d="M419.0519,77.1044l2.3947.1895-.3894,5.0123-.6663,20.6112-2.3113.2699.138-12.1486.1072-10.1611c.0063-.5984-.209-2.2619-.7658-2.3828l-2.3663-.5136c-.2611-.0567-.9073-.1166-1.1714-.0532l5.0306-.8236Z" fill="#805ef0"/><polygon points="430.1716 76.0874 429.9762 100.9917 429.2246 102.1211 427.0537 102.133 427.0374 85.2339 427.1146 76.1134 430.1716 76.0874" fill="#8a61f6"/><path d="M331.1546,84.978l-.0612,23.2082c-.0018.3992.2435,1.7782.6232,1.8212l1.5286.2224-4.9316,1.9333.2137-6.3247-.1752-15.7002c-.0083-.7397-.7301-3.2568-1.1732-3.2759l3.9757-1.8844Z" fill="#276dfe"/><path d="M334.0367,83.7667l.1178,26.1222-.9093.3408-1.5286-.2224c-.3797-.0429-.625-1.4219-.6232-1.8212l.0612-23.2082,2.8821-1.2113Z" fill="#2472fe"/><path d="M313.1338,18.2399c-.4532.4922-1.9416,1.7582-1.9897,2.5777-.6021.1031-1.5953.1132-1.7787-.3723l-1.0299-2.7267c-.8273-1.4057-1.365-2.3182-.04-.071,1.9876.1565,3.1137-.8326,2.0844-1.9628-2.2759-.664-2.7874-1.6471.2973-1.7917.1141-1.5032-3.9346-3.1876-3.1639-4.2952l1.6803-2.4149-1.3842-1.3262c-.2789-.2673-.493-1.0872-.5377-1.471-.067-.5757,1.3035-.4024,3.4338.1153-.7696,1.2204.6488-1.0281.7465-1.1894l-4.526-1.7842-7.7639-.5647c-.5988.136,1.0825-.9746,1.3814-.9627l11.1812.4423-.059,15.357c-.0021.5542,1.284,2.8501,1.4681,2.4405Z" fill="#03d2fe"/><path d="M396.0827,84.023l3.3313.8402.0035,9.1604.0033,8.9147.6474,6.062-3.1018,1.2472-.2627-22.8363c.0044-.6664.0886-2.0034-.4341-2.0923l-2.1197-.1365,1.9326-1.1593Z" fill="#6754e0"/><path d="M277.9616,106.8946l2.2046.5483.0131,19.7014-.8483.8685-2.1795.0456-.857-16.9652c-.0318-.7539-.5815-2.9711-1.001-3.1786l2.6682-1.0201Z" fill="#5010fe"/><path d="M414.9672,63.0815l.0601,3.6009-2.7912.5571-.1994-15.7527.0536-10.663,2.1145.7191c.542.1388,1.0856,1.9716,1.0638,2.5876l-.3176,8.9581.0162,9.9929Z" fill="#785aeb"/><polygon points="424.0942 38.8901 423.6842 55.5652 423.2677 65.0329 420.9643 65.4964 421.0212 56.0924 420.9811 40.2495 418.3104 40.1754 416.9861 39.998 424.0942 38.8901" fill="#835ef2"/><path d="M394.9896,47.7669l-.1926,6.153.4647,15.3316c.0345,1.1387-.535,3.8875-.889,4.7989l-2.1294,1.0814.3186-7.1071-.0838-8.6233.077-9.2221-3.3729-.2017,5.8075-2.2107Z" fill="#6251dd"/><polygon points="404.1789 32.1301 402.1015 33.0524 400.9631 20.1948 401.4556 13.2818 400.259 7.3692 401.0827 6.9889 403.9949 7.2242 404.1789 32.1301" fill="#6c56e4"/><path d="M439.0358,75.1083l.1727,24.015-1.168,2.9548-8.8158.043.7516-1.1295,2.8188.0132,2.3807.0345,1.5306.0224c.3879.0057.3225-1.3869.3197-1.8918l-.0461-8.1024.1019-12.0281.0215-2.3512c.0055-.5972-1.3222-.6416-1.926-.6374l-2.9989.0209-2.0069.0156-3.057.026,1.1411-1.0808,10.78.0756Z" fill="#9465fd"/><polygon points="420.9643 65.4964 418.1959 66.0497 418.2183 52.8083 418.3104 40.1754 420.9811 40.2495 421.0212 56.0924 420.9643 65.4964" fill="#805df0"/><path d="M385.7874,15.0957l-.2881,16.141.6967,8.9734-2.9669,1.892-.4096-23.4236c-.1148-.6557-2.4298-1.889-2.6982-1.5843l5.6662-1.9985Z" fill="#584ed7"/><path d="M387.4339,77.5866l-2.9449,1.4664c.8337-2.3625,1.1203-5.2916,1.112-8.0978l-.0309-10.4554-.3856-4.9812.2613-2.4513-.3066-1.2807,2.7009.9075-.4063,24.8925Z" fill="#5a4fd8"/><path d="M407.6374,80.1278l.2889,25.9385-3.0175.9019.2174-26.7246c.5062-.2173,1.738-.2195,2.5112-.1158Z" fill="#7157e7"/><path d="M313.1519,94.0557l.0033,25.9955-2.9642,1.0616-.0478-19.0919c.3854-.4433,1.4502-2.0844,1.4464-2.8014l-.0281-5.3426,1.5903.1788Z" fill="#354dfe"/><path d="M426.3414,38.6961l.4402,17.7316c.0818,3.6302,1.0325,6.9158-2.8001,8.5054l-.7138.0998.4165-9.4677.4099-16.675,2.2472-.194Z" fill="#8660f3"/><path d="M383.229,42.1021l-2.9058,1.1094.1441-9.1545.1919-12.9177c.0144-.9701-.6845-3.074-1.4105-3.6927l.8726-.3524c.2684-.3046,2.5834.9286,2.6982,1.5843l.4096,23.4236Z" fill="#544cd5"/><path d="M345.3763,30.1928l-2.1894.884.0243-26.1439,1.1312-.4239c.3167-.1171,1.4368,2.2144,1.4308,2.9876l-.3969,22.6962Z" fill="#1a88fe"/><path d="M396.9666,110.2475l-2.6313,1.0587-.4185-7.9574.009-8.7072-.6479-9.0441.8722-.4151,2.1197.1365c.5226.0889.4385,1.4259.4341,2.0923l.2627,22.8363Z" fill="#6452df"/><path d="M410.1018,3.9354l1.4861.2537c.3713.0598.6081,1.4176.6054,1.8424l-.1283,20.1192-.7106,3.7341-1.1807.144-.4024-6.3063-.1807-14.4904c-.0166-1.3311-.5268-3.4696-1.5167-4.1586l.2146-.9201,1.8132-.2181Z" fill="#7659ea"/><polygon points="406.0476 43.1978 406.0291 48.1532 405.8245 61.9077 405.9923 69.105 403.2413 70.0851 403.5673 63.9052 403.657 48.83 403.2916 43.9165 405.1191 43.2248 406.0476 43.1978" fill="#6f57e5"/><polygon points="424.0773 102.4879 420.3909 102.9174 421.0571 82.3062 421.4466 77.2939 423.5377 77.4674 423.7912 99.7374 424.0773 102.4879" fill="#825ef2"/><path d="M275.2934,107.9147c.4195.2074.9692,2.4246,1.001,3.1786l.857,16.9652-4.2063.0886.4191-10.0004-.2084-9.4143,2.1375-.8176Z" fill="#5209fe"/><path d="M408.1089,41.9086l1.5048.2505c.3771.0413.7494,1.5241.758,2.072l.292,18.4947.535,4.7198-2.953.8669-.3103-13.9719.0265-9.0718.0051-1.7463c.0016-.5362-1.3903-.4086-1.9195-.3248l-.9286.0269,2.9898-1.3162Z" fill="#7459e8"/><path d="M324.3703,39.4954l-3.1386,1.6225.0231-23.189-2.1623-2.9139,1.1257-.0735,3.104.5236c1.7078.2881-.2378,5.1823.2115,9.1882.916,8.1667-.916,10.9061.8367,14.8422Z" fill="#2d60fe"/><path d="M382.0771,90.919l2.4524.2418c.619.0677,1.2252,2.1017,1.2192,2.846l-.1129,14.0995-.4183,7.9207-2.0122,1.0422-.1545-24.7898-1.8843-.0365c-.2716-.0053-.749.0733-.9929.149l1.9035-1.4729Z" fill="#574dd7"/><path d="M346.0766,3.8589c.0782-.4067,2.1202,1.1364,2.1186,1.8085l-.0518,22.2175.9872,1.3124,1.0351-.0384-.8317,1.0336-3.9576.0003.3969-22.6962c.006-.7732-1.1141-3.1047-1.4308-2.9876l1.7342-.6501Z" fill="#188cfe"/><path d="M299.3618,124.9691l-1.1317.4012c-.1922-.1562-.8795-1.0619-1.0629-1.3401l.0084-20.9668,3.0258.1398-.005,16.9864-.8345,4.7795Z" fill="#3f35fe"/><path d="M388.2582,39.2137l-2.0622.9963-.6967-8.9734.2881-16.141c.0033-.1877.1441-.5901.2424-1.0296l2.1971.2673.0313,24.8804Z" fill="#5b4fd8"/><path d="M387.1922,115.0041l-1.9747,1.0229.4183-7.9207.1129-14.0995c.006-.7443-.6002-2.7783-1.2192-2.846l-2.4524-.2418,3.4629-1.6413c.2657.0454,2.6158,2.3825,2.6039,3.2301l-.1956,13.9283-.756,8.568Z" fill="#5b4fd8"/><path d="M403.2722,107.5089l-1.9564.8371-.4057-19.8249-.3821-6.3141.5562-.228c.6081-.3947,2.7387,1.7095,2.7165,2.6667l-.3749,16.1317-.1536,6.7315Z" fill="#6c55e3"/><path d="M324.1836,114.1941l-2.9419,1.8791.6132-23.6361c-.3933-.6017-.867-1.4656-1.2476-1.4809l-1.5154-.0178,4.957-2.5908-.4237,4.8852.5585,20.9614Z" fill="#2e61fe"/><polygon points="363.151 .7854 363.1672 27.139 360.461 27.1324 359.2536 27.0532 359.9774 20.9084 360.9263 7.0261 361.1504 .9708 363.151 .7854" fill="#0ba8fe"/><polygon points="369.1739 102.0646 370.1739 102.0563 370.231 118.1513 369.2243 123.187 367.2677 123.8271 367.1741 102.082 369.1739 102.0646" fill="#4647cc"/><path d="M319.0919,90.9383l1.5154.0178c.3806.0153.8543.8792,1.2476,1.4809l-.6132,23.6361-2.0567,1.0346.5194-23.1784c.0179-.5932-.4619-2.3086-.901-2.2095l-1.6988.2599,1.9872-1.0414Z" fill="#2e5dfe"/><path d="M326.2116,113.1523l-2.028,1.0417-.5585-20.9614.4237-4.8852,1.0167-.378c.215-.0212.9067.9006,1.1032,1.1927l.0428,23.9901Z" fill="#2b65fe"/><path d="M365.1802,124.3332l-2.1293.7416-.7472-17.9311c-.058-1.3168,1.1376-4.0919,1.813-5.0613l1.0575.0165.006,22.2342Z" fill="#4144c9"/><polygon points="310.1432 102.0209 310.191 121.1128 307.1973 122.1831 307.2143 101.9086 310.1432 102.0209" fill="#3846fe"/><polygon points="287.2025 104.0919 289.1013 103.7948 288.4655 124.8667 288.193 127.1549 286.0858 127.544 286.3414 110.0048 285.0697 104.8853 287.2025 104.0919" fill="#4821fe"/><path d="M410.0069,105.4692l-2.0807.5971-.2889-25.9385.0942-.6752,2.0535.6829c.5258.235.2218,2.2826.2761,2.934l.4288,5.1439-1.1452,4.9876c4.1386,7.607-2.1325,10.8106.6621,12.2683Z" fill="#7458e8"/><path d="M385.4458,53.0673l-.2613,2.4513.3856,4.9812.0309,10.4554c.0083,2.8062-.2783,5.7353-1.112,8.0978l-3.2305,1.5539.5989-1.553c.2783.261,1.1124-.7141,1.3356-1.0213l-.3875-24.1924,2.6404-.7729Z" fill="#574ed6"/><path d="M389.1821,49.9776l3.3729.2017-.077,9.2221.0838,8.6233-.3186,7.1071-2.029,1.0347-.0369-23.7556c-.0005-.7652-2.6076-1.7196-3.089-1.4979l2.0937-.9354Z" fill="#6051dc"/><path d="M327.1789,86.8623c.4431.0191,1.1649,2.5361,1.1732,3.2759l.1752,15.7002-.2137,6.3247-2.1019.9893-.0428-23.9901c-.1965-.2921-.8881-1.2139-1.1032-1.1927l2.1133-1.1072Z" fill="#2969fe"/><path d="M414.0213,77.928c.2642-.0634.9103-.0035,1.1714.0532l-.1715,3.2624-.0698,15.6489.1195,7.2256-2.2013.6304-.1022-18.6.2996-6.9595-2.9717-.3183,3.9258-.9427Z" fill="#795bec"/><path d="M387.0884,50.9131c.4813-.2217,3.0885.7327,3.089,1.4979l.0369,23.7556-2.7804,1.42.4063-24.8925-2.7009-.9075,1.9491-.8735Z" fill="#5d50da"/><polygon points="371.1972 .6948 371.4774 13.6144 371.551 25.9795 368.8678 25.9267 368.8242 6.9105 368.477 1.1529 369.1384 .8193 371.1972 .6948" fill="#05b6fe"/><polygon points="327.1822 38.1015 325.2161 39.0757 325.2036 21.087 324.8191 12.5325 327.2432 11.213 327.3754 21.8845 327.3474 33.8924 327.1822 38.1015" fill="#2a68fe"/><polygon points="307.2143 101.9086 307.1973 122.1831 304.3248 123.208 304.1731 101.9471 307.2143 101.9086" fill="#3a42fe"/><path d="M342.1924,31.1778l-2.097,1.1201-.917-1.3271-.0147-23.5521-2.0411-.4723,4.0289-1.7942.0272,24.8102c.1357.2811.882,1.2963,1.0137,1.2153Z" fill="#1e81fe"/><polygon points="406.1796 32.097 404.1789 32.1301 403.9949 7.2242 401.0827 6.9889 405.1946 5.1715 406.2084 8.0578 406.1796 32.097" fill="#7057e5"/><path d="M337.3651,33.2405l-1.2271.8531-1.9393.027.0233-24.2216-2.0585-.8688,4.0912-1.9214-.111,23.6865c-.0019.592.907,2.8814,1.2212,2.4452Z" fill="#2377fe"/><polygon points="321.2318 41.1178 319.2043 42.1458 319.1749 17.2007 316.0853 17.1309 319.0925 15.0149 321.2548 17.9288 321.2318 41.1178" fill="#2f5dfe"/><path d="M292.4477,126.3717l-4.2547.7832.2725-2.2882.6358-21.0718,2.0442.612.0792,19.3101c.0026.6444.8981,2.8563,1.2229,2.6548Z" fill="#4725fe"/><polygon points="403.2916 43.9165 403.657 48.83 403.5673 63.9052 403.2413 70.0851 401.763 71.0727 401.5883 61.8364 401.4768 53.426 401.2069 44.6762 403.2916 43.9165" fill="#6c56e3"/><path d="M418.3104,40.1754l-.0921,12.6329-.0224,13.2414-3.1686.6326-.0601-3.6009c.7934-.2724,1.6888-3.5918,1.6559-4.7989l-.5348-18.3634c.1951-.0441.6275.0427.8978.0789l1.3243.1774Z" fill="#7d5cee"/><path d="M377.079,19.1383l-.0007,7.898.1622,17.9954c-.2065.1219-.6351.1605-1.061.1075l-.0725-6.9801c-2.573-2.7068-2.5786-7.3171-1.9436-11.0965.4065-.0028,1.2641-.6474,1.2563-1.0551l-.1319-6.8712,1.7912.002Z" fill="#4d4dd3"/><path d="M417.2107,28.5919l-1.121.2371c-.8669-.8326-1.2531-2.4642-1.1482-3.8328l-.302-21.6623,3.3156-.4039-.1201,4.4823-1.2664,9.4336,1.1766,2.2736c.2106.4069-.8176,1.7993-.7981,2.257l.2636,7.2156Z" fill="#7b5bed"/><path d="M332.1636,9.0302l2.0585.8688-.0233,24.2216-1.893,1.3628-.1136-23.5016c.0002-.4062-.1555-1.8407-.53-1.8478l-1.5199-.1328,2.0213-.971Z" fill="#2474fe"/><polygon points="315.1322 93.0133 315.1778 119.1229 313.1552 120.0512 313.1519 94.0557 315.1322 93.0133" fill="#3452fe"/><polygon points="300.639 101.8683 302.2042 101.9733 302.6829 119.9842 302.3648 123.9047 299.3618 124.9691 300.1963 120.1896 300.2014 103.2032 297.1755 103.0634 296.1745 103.0281 295.0922 102.9875 300.639 101.8683" fill="#3e3afe"/><polygon points="317.1047 91.9797 317.1856 118.1135 315.1778 119.1229 315.1322 93.0133 317.1047 91.9797" fill="#3155fe"/><polygon points="383.2053 117.0691 381.172 118.0807 380.7367 102.5523 381.1665 92.2428 383.0508 92.2793 383.2053 117.0691" fill="#554dd5"/><path d="M291.9074,103.1065l1.3507-.1336.5335,22.1432-.4942,1.1733-.8496.0823c-.3248.2015-1.2203-2.0104-1.2229-2.6548l-.0792-19.3101-2.0442-.612,2.806-.6884Z" fill="#442afe"/><path d="M319.185,117.1077l-1.9993,1.0058-.081-26.1337,1.6988-.2599c.4391-.0991.9188,1.6162.901,2.2095l-.5194,23.1784Z" fill="#2f58fe"/><path d="M408.2457,68.3126l-2.2534.7925-.1678-7.1973.2046-13.7546.0186-4.9553c.5292-.0838,1.921-.2114,1.9195.3248l-.0051,1.7463-.0265,9.0718.3103,13.9719Z" fill="#7158e7"/><polygon points="329.2113 37.0754 327.1822 38.1015 327.3474 33.8924 327.3754 21.8845 327.2432 11.213 329.4299 10.2232 329.2113 37.0754" fill="#286bfe"/><path d="M343.2111,4.9329l-.0243,26.1439-.9944.101c-.1317.081-.878-.9342-1.0137-1.2153l-.0272-24.8102c.4624-.2059,1.5523-.1875,2.0596-.2194Z" fill="#1c84fe"/><path d="M284.1209,104.9193l-.2325,22.9975-4.5574.096.8483-.8685,1.3856-.2565c.3499-.0648.6402-1.2809.6398-1.8015l-.0121-17.1135c-.0003-.4281-.188-1.7641-.5608-1.8093l-1.4762-.1074,1.2533-1.0395,2.7119-.0972Z" fill="#4b18fe"/><polygon points="374.1332 102.0331 374.1794 121.1341 371.2855 122.3335 371.5967 118.081 371.2237 102.0493 374.1332 102.0331" fill="#4a48cf"/><polygon points="286.0858 127.544 283.8884 127.9168 284.1209 104.9193 285.0697 104.8853 286.3414 110.0048 286.0858 127.544" fill="#4a1cfe"/><polygon points="401.3158 108.3459 400.0683 109.0003 399.4209 102.9383 399.4176 94.0236 399.4141 84.8632 396.0827 84.023 400.528 82.2069 400.9101 88.521 401.3158 108.3459" fill="#6955e2"/><polygon points="304.1731 101.9471 304.3248 123.208 302.3648 123.9047 302.6829 119.9842 302.2042 101.9733 304.1731 101.9471" fill="#3c3efe"/><path d="M382.8054,53.8402l.3875,24.1924c-.2232.3072-1.0572,1.2824-1.3356,1.0213l-.1993-4.1218-.4703-10.8003-.5679-6.9737c-.0313-.3844.2363-1.8176-.1087-1.8656l-1.3098-.2083,3.6042-1.2441Z" fill="#554dd5"/><path d="M404.9087,106.9682l-1.6365.5407.1536-6.7315.3749-16.1317c.0222-.9572-2.1084-3.0615-2.7165-2.6667l4.0419-1.7353-.2174,26.7246Z" fill="#6f56e5"/><polygon points="408.0739 5.0735 407.6965 11.9086 407.7561 18.0702 407.9314 31.0385 406.1796 32.097 406.2084 8.0578 405.1946 5.1715 408.2885 4.1535 408.0739 5.0735" fill="#7157e6"/><path d="M412.0903,40.8237l-.0536,10.663.1994,15.7527-1.0373.2062-.535-4.7198-.292-18.4947c-.0087-.548-.381-2.0307-.758-2.072l-1.5048-.2505,3.9814-1.0849Z" fill="#765aea"/><path d="M410.1737,30.0288l-2.2423,1.0097-.1752-12.9682-.0597-6.1616.3775-6.8351c.9899.689,1.5001,2.8275,1.5167,4.1586l.1807,14.4904.4024,6.3063Z" fill="#7358e8"/><path d="M350.0181,3.0908l-.268,18.2754-.6196,7.831-.9872-1.3124.0518-22.2175c.0016-.6721-2.0404-2.2152-2.1186-1.8085l3.9415-.768Z" fill="#1791fe"/><path d="M325.2161,39.0757l-.8457.4197c-1.7528-3.9361.0792-6.6755-.8367-14.8422-.4493-4.0059,1.4963-8.9001-.2115-9.1882l-3.104-.5236,4.6009-2.4089.3845,8.5544.0125,17.9887Z" fill="#2c64fe"/><polygon points="276.069 32.8933 276.2554 43.3125 272.2046 45.0705 271.4682 34.3415 273.1883 33.1726 276.069 32.8933" fill="#5208fe"/><polygon points="367.1741 102.082 367.2677 123.8271 365.1802 124.3332 365.1742 102.099 367.1741 102.082" fill="#4345ca"/><path d="M361.1504.9708l-.2241,6.0553-.9489,13.8823c-.2171-.7157-.9844-2.79-.954-3.7094l.49-14.8344-3.2781-.2268-1.189-.1072,6.1042-1.0598Z" fill="#0fa5fe"/><path d="M439.7325,38.2048l.1999,9.6428c-.3749.309-.7993,2.4109-.7965,3.1452l.0441,11.7729c.0011.3037-1.1334,1.8047-.899,1.3868l-.5004-25.9669,1.9519.0192Z" fill="#9668fc"/><path d="M354.1037,1.9688c-.232.2922-.8517,2.5061-.8586,3.298l-.0295,22.9226c-.92-1.7629-1.9469-5.7901-1.8632-7.9417l.6046-15.5363c.0175-.4488.1298-1.5733-.2309-1.5815l-1.708-.0391,4.0856-1.122Z" fill="#1596fe"/><path d="M362.1742,102.1136l1.9425-.0311c-.6753.9694-1.871,3.7445-1.813,5.0613l.7472,17.9311-1.8887.8714.0196-20.773-1.0847-.8537.0705-.9896.0917-1.2073,1.9149-.0092Z" fill="#3e44c7"/><polygon points="275.0948 70.7772 275.5504 77.6535 276.3412 80.5769 272.2618 82.1809 272.2087 72.2338 272.2227 71.043 275.0948 70.7772" fill="#520afe"/><polygon points="371.2855 122.3335 369.2243 123.187 370.231 118.1513 370.1739 102.0563 371.2237 102.0493 371.5967 118.081 371.2855 122.3335" fill="#4948cd"/><path d="M416.0883,39.9191l.5348,18.3634c.033,1.2071-.8625,4.5265-1.6559,4.7989l-.0162-9.9929.3176-8.9581c.0218-.616-.5218-2.4488-1.0638-2.5876l-2.1145-.7191,3.998-.9046Z" fill="#7b5ced"/><path d="M298.2301,125.3703l-4.9328.9192.4942-1.1733,2.1566-.4005-.2318-8.1807.4582-13.5069,1.001.0353-.0084,20.9668c.1835.2782.8707,1.1839,1.0629,1.3401Z" fill="#4331fe"/><polygon points="361.1622 125.9463 359.8797 126.061 359.7851 110.8201 360.0971 104.3196 361.1818 105.1733 361.1622 125.9463" fill="#3c43c5"/><polygon points="272.9452 128.147 272.2315 126.2531 271.916 109.3604 271.9787 108.6795 273.1559 108.7323 273.3643 118.1466 272.9452 128.147" fill="#5405fe"/><polygon points="376.1795 45.1392 375.3472 51.2806 375.1742 38.0905 376.1071 38.1592 376.1795 45.1392" fill="#14b9fa"/><path d="M439.1032.0281l.071,1.0625-3.1155.0328-2.9842-.0155-3.9836-.0269-2.0538-.0142c-.1737-.3602,1.7969-.9477,2.3075-.9522l9.7586-.0864Z" fill="#9367fb"/><polygon points="433.1453 26.1981 436.9295 25.9894 439.1742 26.0905 439.1742 27.0989 429.169 27.0646 429.1923 25.9675 433.1453 26.1981" fill="#9367fb"/><path d="M346.139,78.9878c-.5532,8.7002-.608,17.4672.4099,26.0985l-3.3202,1.0901-.0888-26.1688,2.9991-1.0198Z" fill="#1988fe"/><path d="M349.1269,78.0915l-.966,3.9687.0138,19.772c.0004.5389.7137,2.8274,1.059,2.375l-2.6847.8792c-1.0179-8.6314-.9631-17.3983-.4099-26.0985l2.9879-.8963Z" fill="#188cfd"/><path d="M340.1693,81.1455c-.4027.4893-.994,2.8706-.9944,3.9499l-.0077,19.631c-.0003.6621.7506,2.9312,1.0982,2.4972l-2.9377,1.2336-.245-26.4029,3.0866-.9087Z" fill="#1f7bfd"/><path d="M342.211,106.4034l-1.9456.8201c-.3476.434-1.0985-1.8351-1.0982-2.4972l.0077-19.631c.0004-1.0793.5918-3.4605.9944-3.9499l.9377-.2531.0666,21.2942c.0002.9914.638,3.5361,1.0374,4.2168Z" fill="#1d80fe"/><path d="M343.1399,80.0076l.0888,26.1688-1.0177.2269c-.3994-.6808-1.0372-3.2255-1.0374-4.2168l-.0666-21.2942,2.0329-.8847Z" fill="#1b83fe"/><path d="M350.177,104.1666l-.9433.0405c-.3454.4524-1.0586-1.8361-1.059-2.375l-.0138-19.772.966-3.9687,1.0174-.1218.0326,26.1969Z" fill="#1690fe"/><path d="M354.1715,76.9791l-1.2264,1.2275c-1.4576,1.5961-1.3462,5.7692-1.2387,8.6372l.6088,16.244.034.9272-2.1723.1516-.0326-26.1969,2.0975-.8792,1.9297-.1114Z" fill="#1494fe"/><path d="M297.1824,26.9868l9.9042-.1165-1.1245,9.7051-4.0266,1.4254-2.7636.1004-.0316-9.8043-1.9966-.1895-2.0422-.066c-.1243-.687,1.4323-1.0469,2.0809-1.0545Z" fill="#3d39fe"/><path d="M285.1164,29.7177l.3899,4.4459-.2018,6.1609-.5487.1429c-1.1189-1.1095-1.5335-3.8871-1.7108-6.2865l-.2291-3.1014c-.03-.4054-1.4163-.0715-1.6494-.0188l3.9501-1.3429Z" fill="#4a1bfe"/><polygon points="281.1663 31.0606 281.2163 41.2424 279.3823 42.1308 279.0283 31.7672 279.459 30.8795 281.1663 31.0606" fill="#4e14fe"/><polygon points="288.1742 40.1281 285.3045 40.3244 285.5063 34.1636 285.1164 29.7177 287.1226 29.1484 288.1742 40.1281" fill="#491efe"/><path d="M288.1742,40.1281l1.314-.0233c.6771.5717,1.3304.977,1.2055,1.5731l-.6524,3.112.6326,6.556.7877,2.352-.757,2.5808-1.5121,9.9172-2.03.5714-.9879.2728-3.1061.7792-2.3605.3907-.9301-1.0967c-.2237-.2638,1.0652-1.4211,1.0548-1.7706l-.3311-11.1252-.4829-5.0574-.6364-7.0295,1.8341-.8884,3.5394-.7751.5487-.1429,2.8697-.1963Z" fill="#01d8fe"/><polygon points="279.0283 31.7672 279.3823 42.1308 276.2554 43.3125 276.069 32.8933 279.0283 31.7672" fill="#500efe"/><path d="M280.681,69.1584l.4205,9.8532-1.2098.403-.7171-.0842c-.9336-.5405-1.3626-2.7551-1.3267-4.1003l.358-5.9012,2.4752-.1705Z" fill="#4e13fe"/><path d="M279.1745,79.3305l-2.8333,1.2465-.7908-2.9234-.4556-6.8763c.8107-.4697,2.2475-1.2666,3.111-1.4483l-.358,5.9012c-.0359,1.3452.3932,3.5598,1.3267,4.1003Z" fill="#520afe"/><polygon points="283.0685 67.8195 283.3342 78.3945 281.1015 79.0116 280.681 69.1584 280.708 68.2102 283.0685 67.8195" fill="#4d15fe"/><polygon points="293.6026 28.1386 293.1187 38.0711 293.1752 39.1928 289.4368 39.2201 289.1862 28.7364 293.6026 28.1386" fill="#4527fe"/><polygon points="289.1862 28.7364 289.4368 39.2201 289.4882 40.1048 288.1742 40.1281 287.1226 29.1484 289.1862 28.7364" fill="#4820fe"/><path d="M295.1015,28.0413l.5229,7.3409c.032.3975-.3181,1.8846-.6419,2.0506l-1.8639.6383.4839-9.9325,1.4989-.0973Z" fill="#422efe"/><path d="M281.409,105.0165l-1.2533,1.0395-2.1941.8385-2.6682,1.0201-2.1375.8176-1.1772-.0528,1.1507-10.7158c.1458-1.0888,1.0451-3.4663,1.537-4.4122l-2.2088-2.7502,1.5201-2.6114c.242-.4158-.961-1.4705-1.0408-1.9501l-.6751-4.0588,4.0795-1.604,2.8333-1.2465.7171.0842,2.3907,1.0921-3.438,1.7053c-.7191.3567.4093,2.0906.5506,2.8989l.6959,6.2987c.3793,3.4329.1296,7.3459-.615,10.7462l1.9331,2.8605Z" fill="#01dafe"/><path d="M299.1719,38.1011l2.7636-.1004,9.6494-.2017-.2114,7.1564.0109,12.2377.2615,7.0555-11.697-.1817-.7318-1.6743c-.266-.6086,1.7653-2.4456,1.7351-3.1091l-.588-12.9128-.5111-7.4006-3.6942.1222c.0649-.3669.6844-.8932,1.0577-.9089l1.9553-.0823Z" fill="#00d3fe"/><polygon points="312.2678 56.2802 311.3845 57.1931 311.3735 44.9554 312.4037 45.2646 312.2678 56.2802" fill="#05d2fe"/><path d="M356.1173,76.8721l.048,24.5211c.3346.2055,1.4777.7253,2.0115.7261l2.0825.0034-.0917,1.2073-6.9891.1045.4754-2.8031-.7087-22.4249,1.2264-1.2275,1.9458-.107Z" fill="#119bfe"/><path d="M353.1784,103.4345l-.8632-.3468-.6088-16.244c-.1075-2.868-.2189-7.0411,1.2387-8.6372l.7087,22.4249-.4754,2.8031Z" fill="#1396fd"/><path d="M375.3405,76.2157l-6.0534-1.3204-.0223-9.6723,6.3105-1.4139c2.7004,2.6678,2.4714,9.3098-.2348,12.4066Z" fill="#4b48cf"/><path d="M375.3405,76.2157l-.1418,6.8957-.0217,10.9543-.0129,6.9032c-.0006.3048-.7258,1.0625-1.0309,1.0642l-.3281-7.7396-.1-14.4834-.5212-3.7376,2.1566.1431Z" fill="#01bffe"/><polygon points="433.0745 1.1078 432.5786 14.2163 433.1453 26.1981 429.1923 25.9675 428.9612 6.123 429.0909 1.0809 433.0745 1.1078" fill="#8d63f8"/><polygon points="368.477 1.1529 368.8242 6.9105 368.8678 25.9267 366.1545 25.8734 366.2677 1.4414 368.477 1.1529" fill="#07b2fe"/><path d="M367.2711,27.1105l.5041,6.4584c.0775.8129-.1206,2.8495-.5732,3.3345l-1.0278,1.1874h-1s-3-.001-3-.001l.3879-7.1519,1.7433-3.8059,2.9658-.0213Z" fill="#4245ca"/><path d="M372.1751,27.0764l.7379,10.0207-5.711-.1937c.4526-.485.6507-2.5215.5732-3.3345l-.5041-6.4584,4.904-.0341Z" fill="#4648cd"/><path d="M374.1635,27.0627c-.635,3.7794-.6294,8.3897,1.9436,11.0965l-.9329-.0687h-3s-2,.0001-2,.0001h-2s-2,.0001-2,.0001l1.0278-1.1874,5.711.1937-.7379-10.0207,1.9884-.0137Z" fill="#484cd0"/><polygon points="363.1672 27.139 364.3053 27.1318 362.5621 30.9377 362.1742 38.0897 360.4554 38.0891 360.2359 28.3308 360.461 27.1324 363.1672 27.139" fill="#3b47c9"/><path d="M431.7506,38.1249l.0685,15.8666.0466,7.6493.1201,2.3393-2.2095.125-.2444-18.9977c-.0484-2.5633-.1708-4.5728.294-7.0018l1.9247.0194Z" fill="#8c62f8"/><path d="M359.9774,20.9084l-.7238,6.1449-3.0029-.2368-.0154-24.6787,3.2781.2268-.49,14.8344c-.0304.9195.737,2.9937.954,3.7094Z" fill="#0fa0fe"/><polygon points="360.2359 28.3308 360.4554 38.0891 359.1718 39.0884 358.1742 39.0895 357.1741 39.0905 355.2573 39.1344 356.1069 28.1948 360.2359 28.3308" fill="#3841c4"/><path d="M356.1069,28.1948l-.8496,10.9396-1.9669.7705-2.065.2685c.2797-.1627,1.3559-1.7412,1.334-2.3167l-.3573-8.7731,1.0136-.8943,2.8913.0054Z" fill="#3342c3"/><path d="M349.3339,30.1926l-.6123,6.6275c-.0344.372-1.2228,1.5304-.9745,1.8097l1.3549,1.5247-.306,1.1476-1.6285-.1561-3.0092.867-2.0954.8297-2.9384,1.1637-2.044.8113-.8374.2393-.1049-10.9632,1.2271-.8531,2.7303-.9425,2.097-1.1201.9944-.101,2.1894-.884,3.9576-.0003Z" fill="#2f3dbe"/><polygon points="350.1386 67.2002 349.9818 72.0457 349.1269 78.0915 346.139 78.9878 343.1399 80.0076 341.107 80.8924 340.1693 81.1455 337.0827 82.0542 336.1527 82.2414 336.2385 72.1228 336.248 71.2698 338.3504 70.3519 341.4128 69.3323 344.2665 68.2484 346.2414 67.8766 350.1386 67.2002" fill="#2f3dbe"/><polygon points="372.1742 38.0906 372.1877 64.126 370.1812 64.0752 370.1742 38.0906 372.1742 38.0906" fill="#04b8fe"/><polygon points="366.1741 64.0794 368.1741 64.0778 370.1812 64.0752 372.1877 64.126 375.5753 63.8091 369.2648 65.223 368.1439 65.1555 364.1761 65.0614 364.1736 64.08 366.1741 64.0794" fill="#4256d5"/><polygon points="432.1785 76.0718 432.3154 84.6479 432.795 101.0049 429.9762 100.9917 430.1716 76.0874 432.1785 76.0718" fill="#8c62f8"/><path d="M280.1557,106.056l1.4762.1074c.3727.0452.5604,1.3812.5608,1.8093l.0121,17.1135c.0004.5206-.2899,1.7367-.6398,1.8015l-1.3856.2565-.0131-19.7014-2.2046-.5483,2.1941-.8385Z" fill="#4e16fe"/><polygon points="435.1774 76.0509 435.1758 101.0394 432.795 101.0049 432.3154 84.6479 432.1785 76.0718 435.1774 76.0509" fill="#9064f9"/><path d="M435.1758,101.0394l.0016-24.9885c.6038-.0042,1.9315.0402,1.926.6374l-.0215,2.3512-.1019,12.0281.0461,8.1024c.0029.5049.0683,1.8975-.3197,1.8918l-1.5306-.0224Z" fill="#9265fb"/><path d="M303.1996,75.274l3.0026-.1025,4.3341-.2673c.2931.8312,1.1603,3.0303,1.1712,4.029l.0454,4.1543-.1912,10.7894.0281,5.3426c.0038.7171-1.0611,2.3582-1.4464,2.8014l-2.929-.1124-3.0412.0385-1.9689.0262-1.5652-.105c1.0757-.5633,1.7827-1.8367,2.2857-3.0633l1.8647-4.5465-1.3374-2.6798c-.3136-.6284.8969-1.8307,1.8064-2.9505l-3.1845-3.5093,1.7436-3.7017c-.4203-.4057-1.7507-1.4837-1.4409-1.8426l1.9306-2.2366-5.2773-1.418,4.1696-.6459Z" fill="#02d2fe"/><path d="M353.2156,28.1894l-1.0136.8943-2.0365.0752-1.0351.0384.6196-7.831.268-18.2754,1.708.0391c.3607.0083.2484,1.1327.2309,1.5815l-.6046,15.5363c-.0837,2.1515.9432,6.1788,1.8632,7.9417Z" fill="#1593fe"/><path d="M352.2021,29.0838l.3573,8.7731c.0219.5754-1.0543,2.1539-1.334,2.3167l-2.1234-.019-1.3549-1.5247c-.2482-.2793.9402-1.4377.9745-1.8097l.6123-6.6275.8317-1.0336,2.0365-.0752Z" fill="#313ebf"/><polygon points="371.1759 76.0863 371.2237 102.0493 370.1739 102.0563 369.1739 102.0646 369.1749 76.1001 371.1759 76.0863" fill="#05b6fe"/><path d="M369.1749,76.1001l-.001,25.9645-1.9998.0174c.0003.1959.2514-1.0194.2582-1.0224l-.0573-3.3223.2548-13.5738-.2033-8.0514,1.7485-.012Z" fill="#07b2fe"/><path d="M368.101,74.9811l1.1861-.0858,6.0534,1.3204-2.1566-.1431-2.008.0138-2.001.0137-1.7485.012c-.3566-.2198-1.0986.8587-1.2556,1.1478v22.6613c.157.2891.899,1.3676,1.2615,1.1384-.0067.0029-.2579,1.2183-.2582,1.0224l-1.9999.017-1.0575-.0165.0021-26.1793,3.9822-.922Z" fill="#09adfe"/><path d="M289.3066,76.9915l1.0195-.0445,2.0903-.0829c5.5561-.2203,1.1039,4.9382,4.3965,9.2652-.2645.3553-3.0465,2.5089-2.4475,3.3448l2.7115,3.7839-2.91,2.254c-.5307.411.9756,2.3886.8701,3.0515-.2198,1.3811-1.8515,3.4177-3.1297,4.5431l-2.806.6884-1.8988.2971c-.78-5.9988,2.3501-10.5631-1.2065-17.5733l.743-4.1435,1.5831-3.9375-2.1957-.4795.0322-.8756,1.0151-.0012,2.1328-.09Z" fill="#01d6fe"/><path d="M286.1265,77.9582l2.1957.4795-1.5831,3.9375-.743,4.1435c3.5567,7.0102.4265,11.5745,1.2065,17.5733l-2.1328.7934-.9488.0341-2.7119.0972-1.9331-2.8605c.7446-3.4003.9943-7.3133.615-10.7462l-.6959-6.2987c-.1413-.8083-1.2696-2.5423-.5506-2.8989l3.438-1.7053-2.3907-1.0921,1.2098-.403,2.2327-.6172,2.7922-.4363Z" fill="#01d9fe"/><path d="M294.1846,76.2812l3.8691-.4669.9762.1056,5.2773,1.418-1.9306,2.2366c-.3098.3589,1.0206,1.4369,1.4409,1.8426l-1.7436,3.7017,3.1845,3.5093c-.9094,1.1198-2.12,2.3221-1.8064,2.9505l1.3374,2.6798-1.8647,4.5465c-.5031,1.2265-1.21,2.5-2.2857,3.0633l-5.5468,1.1193-1.8341-.0146-1.3507.1336c1.2782-1.1254,2.9098-3.162,3.1297-4.5431.1055-.6629-1.4007-2.6405-.8701-3.0515l2.91-2.254-2.7115-3.7839c-.599-.8359,2.183-2.9895,2.4475-3.3448-3.2926-4.327,1.1596-9.4854-4.3965-9.2652l1.7681-.5829Z" fill="#01d4fe"/><polygon points="295.0922 102.9875 296.1745 103.0281 295.7163 116.535 295.9482 124.7156 293.7916 125.1161 293.2581 102.9729 295.0922 102.9875" fill="#432cfe"/><polygon points="373.1839 76.0725 373.7051 79.8102 373.8051 94.2935 374.1332 102.0331 371.2237 102.0493 371.1759 76.0863 373.1839 76.0725" fill="#03bbfe"/><polygon points="437.7806 38.1855 438.2809 64.1525 433.5911 63.965 433.9575 57.8062 434.0892 41.2378 434.2198 38.1498 437.7806 38.1855" fill="#9164fa"/><polygon points="362.0843 76.069 362.1742 102.1136 360.2593 102.1228 360.1657 77.1508 360.1726 76.0691 362.0843 76.069" fill="#0ca6fe"/><polygon points="364.1188 75.9031 364.1167 102.0825 362.1742 102.1136 362.0843 76.069 364.1188 75.9031" fill="#0aaafe"/><polygon points="434.2198 38.1498 434.0892 41.2378 433.9575 57.8062 433.5911 63.965 431.9859 63.9801 431.8657 61.6408 431.8191 53.9915 431.7506 38.1249 434.2198 38.1498" fill="#8e63f9"/><polygon points="439.1741 1.0905 439.1742 26.0905 436.9295 25.9894 436.384 16.7911 436.0613 7.3273 436.0586 1.1233 439.1741 1.0905" fill="#9465fc"/><polygon points="436.0586 1.1233 436.0613 7.3273 436.384 16.7911 436.9295 25.9894 433.1453 26.1981 432.5786 14.2163 433.0745 1.1078 436.0586 1.1233" fill="#9064f9"/><polygon points="352.2418 77.0905 350.1444 77.9697 349.1269 78.0915 349.9818 72.0457 350.1386 67.2002 351.8903 67.2695 352.2418 77.0905" fill="#3040c0"/><path d="M353.3468,66.1049l2.104.1469.3454,9.4803c.009.2481.2751,1.0113.3211,1.14l-1.9458.107-1.9297.1114-.3516-9.821-.5335-1.0852,1.99-.0795Z" fill="#3441c2"/><path d="M297.1437,28.1073l.0729,10.0761c-.3732.0157-.9927.542-1.0577.9089l-2.9837.1005-.0566-1.1217,1.8639-.6383c.3238-.166.6739-1.6531.6419-2.0506l-.5229-7.3409,2.0422.066Z" fill="#4130fe"/><polygon points="299.1719 38.1011 297.2166 38.1835 297.1437 28.1073 299.1403 28.2968 299.1719 38.1011" fill="#3f33fe"/><path d="M284.7557,40.4673l-3.5394.7751-.05-10.1818c.2331-.0527,1.6195-.3866,1.6494.0188l.2291,3.1014c.1773,2.3995.5919,5.1771,1.7108,6.2865Z" fill="#4c16fe"/><path d="M293.1752,39.1928l2.9837-.1005,3.6942-.1222.5111,7.4006.588,12.9128c.0302.6635-2.0012,2.5005-1.7351,3.1091l.7318,1.6743-.0112.8575-1.8105.0585-6.147.8032-.834.1197-1.9537.2901,1.5121-9.9172.757-2.5808-.7877-2.352-.6326-6.556.6524-3.112c.125-.5961-.5283-1.0014-1.2055-1.5731l-.0513-.8848,3.7384-.0273Z" fill="#01d4fe"/><polygon points="286.1746 67.0402 286.1587 77.0826 286.1265 77.9582 283.3342 78.3945 283.0685 67.8195 286.1746 67.0402" fill="#4a1cfe"/><polygon points="291.1463 65.9059 290.3261 76.947 289.3066 76.9915 288.1596 71.0975 287.1625 66.7674 289.1925 66.196 291.1463 65.9059" fill="#4623fe"/><polygon points="288.1596 71.0975 287.1738 77.0815 286.1587 77.0826 286.1746 67.0402 287.1625 66.7674 288.1596 71.0975" fill="#4820fe"/><path d="M316.0474,54.9519c.099.1291,1.7575-.1331,1.7861.2575l.2082,2.8383.7283,16.8308-.5321,5.3874-6.485,2.8217-.0454-4.1543c-.0109-.9987-.8781-3.1978-1.1712-4.029l-.2249-9.6367-4.0669-.1343-3.0999-.1009-3.2069-.1079.0112-.8575,11.697.1817-.2615-7.0555.8833-.9129,3.7796-1.3283Z" fill="#3253fe"/><path d="M322.0692,51.9546c.3592-.415,1.1001,1.8374,1.1007,2.3828l.1662,23.1556-5.0982,2.7728.5321-5.3874-.7283-16.8308-.2082-2.8383c-.0287-.3906-1.6872-.1284-1.7861-.2575l6.0218-2.9973Z" fill="#2e60fe"/><path d="M330.0716,47.9324c.3979-.1044,2.4901.9844,2.4792,1.6684l-.2387,14.8888-.1872,8.7305-2.7666,1.1917-.2073-23.0633c-.0016-.5567-.6231-2.8616-.9428-2.428l1.8636-.9881Z" fill="#266ffe"/><path d="M337.0803,44.8175l.087,22.7902c.0001.7968.8722,3.0396,1.1831,2.7442l-2.1025.9179-1.4893-1.0345-.0864-9.031-.3983-15.2308,1.9689-.9168.8374-.2393Z" fill="#2179fe"/><path d="M334.274,45.9735l.3983,15.2308.0864,9.031,1.4893,1.0345-.0094.853-4.1137,1.0974.1872-8.7305.2387-14.8888c.011-.684-2.0813-1.7728-2.4792-1.6684l4.2024-1.9589Z" fill="#2475fe"/><path d="M326.1305,50.022c.1385-.1924.8619,1.0214,1.0434,1.3124l.0157,20.606c.0005.7078.7635,3.0961.9473,3.1376l-2.7647,1.3904-.2131-23.1519c-.0012-.5297-.6899-2.7782-1.0124-2.3172l1.9838-.9773Z" fill="#2a67fe"/><path d="M324.1467,50.9993c.3225-.461,1.0112,1.7875,1.0124,2.3172l.2131,23.1519-2.0361,1.0246-.1662-23.1556c-.0005-.5454-.7414-2.7978-1.1007-2.3828l2.0776-.9553Z" fill="#2c64fe"/><path d="M328.208,48.9205c.3197-.4335.9413,1.8714.9428,2.428l.2073,23.0633-1.2213.6662c-.1838-.0415-.9468-2.4298-.9473-3.1376l-.0157-20.606c-.1815-.291-.9049-1.5048-1.0434-1.3124l2.0775-1.1015Z" fill="#286bfe"/><path d="M360.1657,77.1508l.0936,24.9719-2.0825-.0034-.3282-6.6866.1388-9.5612.0967-6.8108c.007-.4906.2625-1.8506.6371-1.898l1.4446-.0119Z" fill="#0ea1fd"/><path d="M358.3372,76.005l1.8354.0641-.0068,1.0817-1.4446.0119c-.3746.0473-.6301,1.4074-.6371,1.898l-.0967,6.8108-.1388,9.5612.3282,6.6866c-.5339-.0009-1.677-.5206-2.0115-.7261l-.048-24.5211c-.046-.1287-.312-.892-.3211-1.14l2.541.273Z" fill="#109efe"/><polygon points="369.2871 74.8953 368.101 74.9811 368.1439 65.1555 369.2648 65.223 369.2871 74.8953" fill="#424ace"/><path d="M362.1742,38.0897l3,.0011-1.1069.8956c.2167-.3573-1.906,1.0769-1.9056,1.7207l.0333,23.3744-2.0252-.2784-.0013-23.5673c-.141-.2624-.8851-1.339-.9967-1.1473l1.2836-.9994,1.7188.0006Z" fill="#0ca6fe"/><polygon points="366.1741 64.0794 364.1736 64.08 363.862 49.6873 364.0673 38.9864 365.1742 38.0908 366.1742 38.0907 366.1741 64.0794" fill="#09adfe"/><rect x="368.1741" y="38.0906" width="2.0035" height="25.9859" fill="#06b4fe"/><rect x="366.1741" y="38.0907" width="2" height="25.9879" fill="#07b1fe"/><path d="M357.1741,39.0905c-.266.129-.9863,2.4356-.9867,3.1979l.0608,22.9323c-.3167.0206-.809.7141-.7975,1.031l-2.104-.1469.2094-8.9803-.2658-17.2196,1.9669-.7705,1.9168-.0439Z" fill="#119bfe"/><path d="M362.195,64.0814l1.9786-.0014.0025.9814-1.9924-.0217-2.9957.016-1.0178.0398.0039-26.006.9976-.0011c.1116-.1917.8556.8849.9967,1.1473l.0013,23.5673,2.0252.2784Z" fill="#0ea2fe"/><path d="M358.1702,65.0955l-1.9219.1252-.0608-22.9323c.0004-.7623.7206-3.0689.9867-3.1979l1-.0011-.0039,26.006Z" fill="#0f9ffe"/><polygon points="353.2905 39.905 353.5563 57.1246 353.3468 66.1049 351.3568 66.1843 351.2254 40.1735 353.2905 39.905" fill="#1396fe"/><path d="M342.0628,42.8425l-.1108,24.826c-.2243-.0487,1.2551.2703,2.3145.5798l-2.8537,1.084c-.1054.4672-2.2417-1.1538-2.242-1.7366l-.0464-23.5895,2.9384-1.1637Z" fill="#1d81fe"/><path d="M348.796,41.302l-.2659,22.7909c-.0072.6137.746,2.1733,1.17,2.1566l1.6567-.0652.5335,1.0852-1.7517-.0693-3.8972.6765-.0734-22.7477c-.0012-1.0995.6064-3.5452.9994-3.983l1.6285.1561Z" fill="#178dfe"/><path d="M351.2254,40.1735l.1314,26.0109-1.6567.0652c-.4241.0167-1.1772-1.5429-1.17-2.1566l.2659-22.7909.306-1.1476,2.1234.019Z" fill="#1592fe"/><path d="M347.1675,41.1459c-.393.4378-1.0006,2.8835-.9994,3.983l.0734,22.7477-1.9749.3717-.1082-26.2355,3.0092-.867Z" fill="#1989fe"/><path d="M339.1244,44.0062l.0464,23.5895c.0003.5829,2.1366,2.2039,2.242,1.7366l-3.0624,1.0196c-.3109.2954-1.183-1.9474-1.1831-2.7442l-.087-22.7902,2.044-.8113Z" fill="#1f7cfe"/><path d="M344.1582,42.0129l.1082,26.2355c-1.0594-.3096-2.5388-.6285-2.3145-.5798l.1108-24.826,2.0954-.8297Z" fill="#1b85fd"/><polygon points="364.1761 65.0614 368.1439 65.1555 368.101 74.9811 364.1188 75.9031 362.0843 76.069 362.1837 65.0396 364.1761 65.0614" fill="#4044c9"/><polygon points="299.9377 64.9244 303.1446 65.0323 303.1996 75.274 299.0299 75.9199 298.0537 75.8143 298.1272 64.983 299.9377 64.9244" fill="#3d37fe"/><polygon points="310.5363 74.9042 306.2022 75.1715 306.2445 65.1333 310.3114 65.2675 310.5363 74.9042" fill="#3843fe"/><polygon points="306.2445 65.1333 306.2022 75.1715 303.1996 75.274 303.1446 65.0323 306.2445 65.1333" fill="#3941fe"/><path d="M367.4322,101.0596c-.3625.2292-1.1045-.8494-1.2615-1.1384v-22.6613c.157-.2891.899-1.3676,1.2556-1.1478l.2033,8.0514-.2548,13.5738.0573,3.3223Z" fill="#07b1fe"/><polygon points="294.1846 76.2812 292.4164 76.8641 290.3261 76.947 291.1463 65.9059 291.9802 65.7862 294.128 66.4559 294.1846 76.2812" fill="#432afe"/><polygon points="289.3066 76.9915 287.1738 77.0815 288.1596 71.0975 289.3066 76.9915" fill="#4722fe"/><polygon points="298.1272 64.983 298.0537 75.8143 294.1846 76.2812 294.128 66.4559 291.9802 65.7862 298.1272 64.983" fill="#412ffe"/><polygon points="362.1837 65.0396 362.0843 76.069 360.1726 76.0691 358.3372 76.005 358.613 71.6833 359.188 65.0557 362.1837 65.0396" fill="#3c44c7"/><path d="M358.1702,65.0955l1.0178-.0398-.5751,6.6277-.2758,4.3217-2.541-.273-.3454-9.4803c-.0115-.317.4808-1.0104.7975-1.031l1.9219-.1252Z" fill="#3744c6"/><path d="M364.0673,38.9864l-.2052,10.7009.3115,14.3927-1.9786.0014-.0333-23.3744c-.0004-.6437,2.1222-2.078,1.9056-1.7207Z" fill="#0ba8fd"/></g></svg>