<?xml version="1.0" encoding="UTF-8"?>
<svg id="Layer_1" xmlns="http://www.w3.org/2000/svg" version="1.1" viewBox="0 0 200 34">
  <!-- Generator: Adobe Illustrator 30.4.0, SVG Export Plug-In . SVG Version: 2.1.4 Build 226)  -->
  <defs>
    <style>
      .st0 {
        fill: #fff;
        fill-rule: evenodd;
      }
    </style>
  </defs>
  <g id="Artboard">
    <g id="Group-Copy">
      <path id="text" class="st0" d="M135.7,11.4c3,0,5.5,2.1,5.5,6.1v9h-4.4v-8.4c0-1.8-1.1-2.7-2.6-2.7s-2.7.9-2.7,3v8h-4.4v-14.7h4.4v1.4c.8-1.1,2.3-1.8,4.2-1.8h0ZM154.6,11.8h4.3v14c0,5-3.9,7-7.8,7s-5.6-1.1-7-3.6l3.8-2.2c.6,1,1.4,1.9,3.4,1.9s3.3-1.1,3.3-3.2v-1.4c-1,1.2-2.4,1.9-4.3,1.9-4.2,0-7.3-3.4-7.3-7.5s3.1-7.5,7.3-7.5,3.3.7,4.3,1.9v-1.5.2ZM151,22.3c2.1,0,3.6-1.4,3.6-3.4s-1.5-3.4-3.6-3.4-3.6,1.4-3.6,3.4,1.5,3.4,3.6,3.4ZM163.8,10.5c-1.4,0-2.7-1.2-2.7-2.7s1.2-2.7,2.7-2.7,2.7,1.2,2.7,2.7-1.2,2.7-2.7,2.7ZM161.6,26.5v-14.7h4.4v14.7h-4.4ZM177.4,11.4c3,0,5.5,2.1,5.5,6.1v9h-4.4v-8.4c0-1.8-1.1-2.7-2.6-2.7s-2.7.9-2.7,3v8h-4.4v-14.7h4.4v1.4c.8-1.1,2.3-1.8,4.2-1.8h0ZM189.4,21c.6,1.5,1.9,2.1,3.5,2.1s2.2-.5,2.8-1.1l3.5,2c-1.4,2-3.6,3-6.4,3-5,0-8.2-3.4-8.2-7.8s3.2-7.8,7.8-7.8,7.5,3.3,7.5,7.8,0,1.2-.2,1.8h-10.5.2ZM189.3,17.7c.4-1.5,1.5-2.3,3.2-2.3s2.7.6,3.1,2.3h-6.3ZM116.9,22h8.3v4.5h-13V5.9h12.8v4.5h-8.1v3.4h7.4v4.5h-7.4s0,3.7,0,3.7ZM68.1,20.9c.6,1.5,1.9,2.1,3.6,2.1s2.3-.5,2.9-1.1l3.6,2c-1.5,2-3.7,3-6.5,3-5.1,0-8.3-3.4-8.3-7.8s3.2-7.8,7.9-7.8,7.6,3.3,7.6,7.8,0,1.2-.2,1.8c0,0-10.6,0-10.6,0ZM68,17.5h6.3c-.5-1.7-1.8-2.3-3.1-2.3s-2.8.8-3.2,2.3ZM91.3,11.7h4.4v14.7h-4.4v-1.4c-1,1.1-2.4,1.8-4.4,1.8-3.9,0-7-3.4-7-7.8s3.2-7.8,7-7.8,3.4.7,4.4,1.8v-1.4h0ZM87.8,22.7c2,0,3.5-1.4,3.5-3.6s-1.5-3.6-3.5-3.6-3.5,1.4-3.5,3.6,1.5,3.6,3.5,3.6ZM98.4,26.5V9.4c0-2.4,1.5-3.6,4.4-3.6v20.7h-4.4ZM52,5.7c5.7,0,10,4.5,10,10.3s-4.3,10.3-10,10.3h-8.3V5.7h8.3ZM52,21.8c3.2,0,5.5-2.2,5.5-5.8s-2.2-5.8-5.5-5.8h-3.5v11.6h3.5Z"/>
      <path id="icon" class="st0" d="M16.6,15.9h0v-.6c.4-4.4,4-8.4,8.7-8s7.3,4.6,7.3,8.7-.2,1.6-.3,2.1c-.3-3.8-4.4-6.9-7.6-7.2-3-.3-6.9,1.8-8.1,5.2h0c.1-.1.3-.3.4-.4,3.4-2.9,8.8-3.2,11.9.5,3.1,3.7,1.9,8.4-1,11.4-.2.2-1.3,1-1.6,1.3,2.5-2.9,1.8-8-.3-10.4-1.9-2.3-6.1-3.6-9.4-2h0c.2.1.4.1.6.1,4.4.4,8.4,4,8,8.7-.4,4.8-4.6,7.3-8.7,7.3s-1.6-.2-2.1-.3c3.8-.3,6.9-4.4,7.2-7.6.3-3-1.8-6.9-5.2-8.1h-.1l.4.4c2.9,3.4,3.2,8.8-.5,11.9-3.7,3.1-8.4,1.9-11.4-1-.2-.2-1-1.3-1.3-1.6,2.9,2.5,8,1.8,10.4-.3,2.3-1.9,3.6-6.2,2-9.4h0v.6c-.4,4.4-4,8.4-8.7,8C2.4,24.8-.1,20.6-.1,16.5s.2-1.6.3-2.1c.3,3.8,4.4,6.9,7.6,7.2,3,.3,6.9-1.8,8.1-5.3h0c-.1.1-.3.3-.5.4-3.4,2.9-8.8,3.2-11.9-.5C.4,12.5,1.6,7.8,4.5,4.8c.2-.2,1.3-1,1.6-1.3-2.5,2.9-1.8,8,.3,10.4,2,2.3,6.2,3.6,9.5,2h-.6c-4.4-.4-8.4-4-8-8.7S12,0,16.1,0s1.6.2,2.1.3c-3.8.3-6.9,4.4-7.2,7.6-.3,3,1.9,6.9,5.3,8.1h0c-.1-.1-.3-.3-.4-.5-2.9-3.4-3.2-8.8.5-11.9,3.7-3.1,8.4-1.9,11.4,1,.2.2,1,1.3,1.3,1.6-2.9-2.5-8-1.8-10.4.3-2.3,2-3.6,6.2-2,9.5h-.1Z"/>
    </g>
  </g>
</svg>