<?xml version="1.0" encoding="UTF-8"?><svg id="b" xmlns="http://www.w3.org/2000/svg" viewBox="0 0 659.2273 174.1523"><g id="c"><polygon points="36.1989 171.9577 0 171.983 .0042 0 36.1864 .0265 36.1989 171.9577" fill="#080808"/><path d="M322.523,137.69c11.3577,18.0221,30.1156,16.5965,49.0763,9.8257l8.5433,15.6889c-27.9823,18.4316-68.4479,10.8177-81.3861-20.6753-5.7601-14.0209-4.187-29.3039,4.1702-42.5782,7.0553-11.2064,19.6751-19.9163,34.2877-21.5147,15.2464-1.6676,28.9575,4.0838,38.9756,15.7856,10.1091,11.8081,13.5703,27.8843,10.0549,43.4213l-63.7219.0467ZM362.6447,118.1752c-2.1157-8.3915-8.4012-15.5544-17.1373-17.1036-11.1854-1.9835-21.6304,6.1898-23.9829,17.0822l41.1202.0214Z" fill="#080808"/><path d="M648.1159,156.1827c-16.4282,20.0972-46.0233,22.4703-65.5253,6.0849-16.7717-14.0915-21.7399-37.1002-12.6358-56.79,6.6098-14.2954,19.8885-24.0793,34.0786-26.5231,16.4563-2.8342,32.4065,2.6629,43.0004,14.8358,15.6392,17.9703,16.4862,43.5481,1.0821,62.3924ZM629.0168,142.3387c8.8053-11.789,5.9914-28.4842-5.0039-37.3469-7.4463-6.002-16.6667-5.5006-24.1825.6985-9.2914,7.6638-11.8306,21.6628-6.7442,32.7838,3.2016,7,9.8963,11.3815,16.7799,12.1815,7.0933.8244,14.3762-1.9246,19.1507-8.3169Z" fill="#080808"/><path d="M428.0815,129.0184c.6876,8.5988,4.5424,15.286,11.8394,19.1728,10.3339,5.5045,22.716,1.9029,30.1675-7.5936l15.4436,15.6285c-16.0008,19.2557-44.1988,22.4193-63.9148,7.2924-11.5544-8.8651-18.0938-22.0728-18.6591-35.7357-.6135-14.8264,5.2549-28.4769,16.6059-38.3147,19.82-17.1779,50.084-14.741,66.7894,6.3483l-17.5848,13.8072c-6.3993-6.7444-15.6144-11.027-24.6598-7.8107-11.0827,3.9407-16.9709,15.4052-16.0273,27.2055Z" fill="#080808"/><path d="M556.3711,150.083l-.0497,20.8698c-8.7165,2.5092-16.9522,3.8075-25.9168,2.9208-12.9921-1.2852-23.012-11.4999-23.0867-24.9791l-.2531-45.6953-12.854-.0386.058-17.1058,12.7961-5.3735.0268-19.9727,24.9635-.0025.0562,20.1162,24.2425.0038-.0009,22.351-24.2979.0008.0544,36.4282c.0086,5.7936,3.7308,9.3774,8.8976,11.4941,4.904.2946,9.5014-.057,15.3639-1.0172Z" fill="#080808"/><path d="M132.7477,134.3285l-17.2968-15.7509c16.2455-20.1688,16.8879-44.1752-.2973-65.3769l14.8886-13.2218,10.2805-9.1444c22.1051,21.4555,28.9993,54.5606,18.0449,83.2664-3.8856,10.1821-9.881,18.574-17.4296,27.264l-8.1904-7.0365Z" fill="#fdc306"/><path d="M247.9925,170.8829l-25.0125.0822.0065-90.1207,22.5237-.0413,2.5562,11.9509c6.4127-9.4626,15.7761-14.9494,27.4797-14.3549l13.3235,2.004-2.2384,22.8841c-17.5101-6.4999-38.5542,3.5772-38.574,18.5457l-.0647,49.0501Z" fill="#080808"/><polygon points="179.6963 171.0809 179.6283 80.8438 204.565 80.5551 204.6258 170.967 179.6963 171.0809" fill="#080808"/><path d="M130.3548,150.7601c-24.8732,18.2763-48.7014,22.587-79.1179,20.7276l.0315-30.9454c10.4824-.1952,20.1974.0282,30.1706-1.7734,8.4436-1.5252,15.3307-5.8279,23.2037-9.9553l7.2771,5.3403,18.4349,16.6061Z" fill="#fdc306"/><path d="M109.3998,39.4949c-1.5526,1.2871-3.3162,2.7514-4.4917,3.242s-3.7324-1.3807-5.0438-2.1152c-15.5489-8.7098-30.6344-9.6-48.627-9.281l.0091-30.8986c29.9695-1.4301,54.2533,2.5026,78.9669,21.0487l-13.9042,12.2763-6.9093,5.7278Z" fill="#fdc306"/><path d="M203.9425,62.1933c-4.0493,6.9815-13.1311,8.1889-19.263,4.3648-6.3342-3.9503-8.0788-12.3979-4.4771-18.946,3.6183-6.5783,12.6029-9.1891,19.2886-4.7887,6.386,4.2032,8.5196,12.3561,4.4516,19.37Z" fill="#080808"/></g></svg>