<svg width="104" height="26" viewBox="0 0 104 26" fill="none" xmlns="http://www.w3.org/2000/svg">
<g clip-path="url(#clip0_706_594)">
<path d="M103.26 17.954L103.742 18.443C103.767 18.482 103.78 18.52 103.78 18.552V20.617C103.78 20.649 103.767 20.687 103.736 20.726L103.253 21.208C103.221 21.24 103.189 21.253 103.144 21.253H101.574C101.53 21.253 101.497 21.24 101.472 21.208L100.99 20.726C100.964 20.694 100.938 20.649 100.938 20.617V18.552C100.938 18.52 100.951 18.488 100.983 18.443L101.465 17.954C101.497 17.935 101.53 17.916 101.574 17.916H103.144C103.189 17.916 103.214 17.935 103.26 17.954ZM103.157 20.855L103.382 20.629C103.427 20.597 103.465 20.514 103.465 20.443V18.726C103.465 18.655 103.427 18.585 103.382 18.54L103.157 18.314C103.112 18.269 103.041 18.231 102.97 18.231H101.748C101.677 18.231 101.594 18.269 101.562 18.314L101.337 18.54C101.292 18.572 101.253 18.655 101.253 18.726V20.443C101.253 20.514 101.292 20.597 101.337 20.629L101.562 20.855C101.594 20.9 101.677 20.938 101.748 20.938H102.97C103.041 20.938 103.124 20.9 103.157 20.855ZM102.34 19.845H102.147C102.089 19.845 102.033 19.867 101.992 19.909C101.951 19.95 101.928 20.005 101.928 20.064V20.424C101.928 20.507 101.851 20.578 101.767 20.578C101.684 20.578 101.613 20.507 101.613 20.424V18.745C101.613 18.662 101.684 18.591 101.767 18.591H102.597C102.642 18.591 102.681 18.604 102.713 18.636L103.06 18.983C103.092 19.015 103.105 19.054 103.105 19.093V19.247C103.105 19.279 103.092 19.324 103.06 19.369L102.899 19.53C102.854 19.568 102.829 19.62 102.829 19.684C102.829 19.742 102.854 19.794 102.899 19.839L103.054 20.006C103.086 20.038 103.105 20.076 103.105 20.115V20.424C103.105 20.507 103.034 20.578 102.951 20.578C102.867 20.578 102.797 20.507 102.797 20.424V20.295C102.797 20.224 102.751 20.154 102.706 20.109L102.533 19.922C102.488 19.877 102.411 19.845 102.34 19.845ZM101.928 19.035V19.305C101.928 19.433 102.025 19.53 102.147 19.53H102.34C102.411 19.53 102.481 19.491 102.526 19.446L102.706 19.26C102.739 19.24 102.751 19.208 102.751 19.17C102.751 19.144 102.739 19.118 102.706 19.086L102.616 18.983C102.571 18.938 102.494 18.9 102.423 18.9H102.057C101.98 18.9 101.928 18.958 101.928 19.035ZM93.275 18.977V2.813H96.068V7.28H99.252V9.793H96.068V18.726H99.252V21.238H95.537L93.275 18.977ZM78.338 18.977V9.541L80.6 7.28H88.476L90.85 9.653L89.119 11.384L87.499 9.793H81.131V18.726H87.499L89.119 17.107L90.85 18.865L88.476 21.238H80.6L78.338 18.977ZM65.534 7.28H73.521L75.784 9.541V13.254L73.521 15.515H66.065V18.726H72.432L74.052 17.107L75.784 18.865L73.41 21.238H65.534L63.271 18.977V9.541L65.534 7.28ZM72.991 13.003V9.793H66.065V13.785H66.316L67.098 13.003H72.991ZM57.852 7.28H61.287V9.793H57.349L56.204 10.937V21.238H53.411V7.28H56.204V8.676H56.455L57.852 7.28ZM50.305 5.689H47.512V3.15H50.305V5.689ZM50.305 21.238H47.512V7.28H50.305V21.238ZM39.958 21.238H34.149L31.887 18.977V9.541L34.149 7.28H40.572L41.354 8.062H41.606V1.697H44.399V21.238H41.606V19.815H41.354L39.958 21.238ZM40.461 18.726L41.606 17.581V9.793H34.68V18.726H40.461ZM22.988 5.309V15.929L18.39 18.583L22.988 21.238L13.791 26.548L9.193 23.893L9.195 23.892L0 18.583V7.963L0.001 7.964L4.598 5.309L13.795 10.619L9.197 13.274L4.598 10.619V15.928L13.793 21.237L18.39 18.583V7.964L9.193 2.655L13.791 0L22.988 5.309Z" fill="white"/>
<path d="M22.988 5.309V15.929L18.39 18.583L22.988 21.238L13.791 26.548L9.193 23.893L9.195 23.892L0 18.583V7.963L0.001 7.964L4.598 5.309L13.795 10.619L9.197 13.274L4.598 10.619V15.928L13.793 21.237L18.39 18.583V7.964L9.193 2.655L13.791 0L22.988 5.309Z" fill="white"/>
</g>
<defs>
<clipPath id="clip0_706_594">
<rect width="104" height="26" fill="white"/>
</clipPath>
</defs>
</svg>
