<svg width="1122" height="179" viewBox="0 0 1122 179" fill="none" xmlns="http://www.w3.org/2000/svg">
<g clip-path="url(#clip0_468_75)">
<path fill-rule="evenodd" clip-rule="evenodd" d="M69.7188 43.1097H40.7135V134.823H69.7188C95.7031 134.823 116.849 114.313 116.849 88.9691C116.849 63.6253 95.7031 43.1097 69.7188 43.1097ZM0.53125 4.49512V174.047H69.7188C117.755 174.047 157.031 136.032 157.031 89.2712C157.031 42.5055 117.755 4.49512 69.7188 4.49512H0.53125Z" fill="white"/>
<path fill-rule="evenodd" clip-rule="evenodd" d="M432.563 174.047V58.1927C432.563 47.9375 441.021 39.7917 451.599 39.7917C462.172 39.7917 470.63 48.2396 470.63 58.1927V174.047H510.51V58.1927C510.51 47.9375 518.969 39.7917 529.542 39.7917C540.12 39.7917 548.578 48.2396 548.578 58.1927V174.047H588.458V58.1927C589.063 26.5156 562.474 0.875 529.844 0.875C514.74 0.875 501.146 6.30208 490.87 15.3542C480.297 6.30208 466.703 0.875 451.901 0.875C419.271 0.875 392.984 26.5156 392.984 58.1927V174.047H432.865H432.563Z" fill="white"/>
<path fill-rule="evenodd" clip-rule="evenodd" d="M930.758 43.4118H904.779C891.784 43.4118 881.211 53.6722 881.211 66.3389V115.818C881.211 149.912 852.815 177.365 817.768 177.365H792.086V138.448H817.768C830.758 138.448 841.029 128.188 841.029 115.818V66.3389C841.029 32.2503 869.43 4.49512 904.477 4.49512H930.456V43.4118H930.758Z" fill="white"/>
<path fill-rule="evenodd" clip-rule="evenodd" d="M662.474 101.641V4.49512H622.594V101.641C622.594 143.573 657.641 177.667 700.844 177.667C744.047 177.667 779.094 143.573 779.094 101.641V4.49512H739.214V101.641C739.214 122.157 721.995 138.745 701.146 138.745C680.302 138.745 663.078 122.157 663.078 101.641H662.474Z" fill="white"/>
<path fill-rule="evenodd" clip-rule="evenodd" d="M221.38 90.2708C221.38 117.724 244.042 139.745 272.141 139.745C300.234 139.745 322.896 117.724 322.896 90.2708C322.896 62.8125 300.234 40.7917 272.141 40.7917C244.042 40.7917 221.38 62.8125 221.38 90.2708ZM272.141 1.875C221.984 1.875 181.203 41.3958 181.203 90.2708C181.203 139.146 221.984 178.667 272.141 178.667C322.292 178.667 363.078 139.146 363.078 90.2708C363.078 41.3958 322.292 1.875 272.141 1.875Z" fill="white"/>
<path fill-rule="evenodd" clip-rule="evenodd" d="M979.997 90.2708C979.997 117.724 1002.66 139.745 1030.76 139.745C1058.85 139.745 1081.52 117.724 1081.52 90.2708C1081.52 62.8125 1058.85 40.7917 1030.76 40.7917C1002.66 40.7917 979.997 62.8125 979.997 90.2708ZM1030.76 1.875C980.601 1.875 939.82 41.3958 939.82 90.2708C939.82 139.146 980.601 178.667 1030.76 178.667C1080.91 178.667 1121.7 139.146 1121.7 90.2708C1121.7 41.3958 1080.91 1.875 1030.76 1.875Z" fill="white"/>
</g>
<defs>
<clipPath id="clip0_468_75">
<rect width="1122" height="179" fill="white"/>
</clipPath>
</defs>
</svg>
