<?xml version="1.0" encoding="UTF-8"?>
<svg id="Layer_1" xmlns="http://www.w3.org/2000/svg" version="1.1" viewBox="0 0 160 34">
  <!-- Generator: Adobe Illustrator 30.4.0, SVG Export Plug-In . SVG Version: 2.1.4 Build 226)  -->
  <defs>
    <style>
      .st0 {
        fill: #003335;
      }
    </style>
  </defs>
  <path class="st0" d="M158.1,14.6c-.7-1.6-1.6-3-2.8-4.3-1.2-1.2-2.7-2.2-4.5-2.9-1.7-.7-3.8-1.1-6-1.1s-4.2.4-5.9,1.1c-1.8.7-3.3,1.7-4.5,2.9-1.2,1.2-2.2,2.7-2.9,4.3-.7,1.6-1,3.3-1,5.1v1.1c0,1.8.3,3.4.9,5,.6,1.6,1.6,3,2.8,4.2,1.2,1.2,2.7,2.2,4.5,2.9,1.8.7,3.8,1.1,6.1,1.1s4.4-.4,6.1-1.1c1.8-.7,3.3-1.7,4.5-2.9,1.2-1.2,2.1-2.7,2.8-4.2.6-1.6.9-3.3.9-5v-1.1c0-1.8-.3-3.5-1-5.1h0ZM151,24.1c-.5,1.2-1.3,2.1-2.3,2.8-1,.7-2.3,1-3.8,1s-2.7-.3-3.8-1c-1.1-.7-1.9-1.6-2.4-2.8-.5-1.2-.8-2.5-.8-3.9s.3-2.9.8-4c.5-1.2,1.3-2.1,2.4-2.8,1.1-.7,2.3-1,3.7-1s2.7.3,3.8,1c1,.7,1.8,1.6,2.4,2.8.5,1.2.8,2.5.8,4s-.3,2.7-.8,3.9h0ZM22.3,33.8c3.3,0,7.1-.2,10.2-1.4,4.2-1.6,7.3-4.8,9-9.1.8-2,1.2-4.2,1.2-6.4,0-2.2-.4-4.4-1.2-6.5-.6-1.6-1.5-3.1-2.6-4.4-1.1-1.2-2.4-2.3-3.8-3.1-2.8-1.6-6.3-2.5-9.9-2.5s-.3,0-.4,0c-.8,0-1.7,0-2.8,0s-6.3,0-7.4,0h-2.2v2.8L2.2,1.7s0,0-.1,0c-.2,0-.3,0-.4,0-.3,0-.4,0-.6.3h0c-.4.5-.8,1-.9,1.1-.4.6,0,.9.2,1h0s10.5,7.2,10.5,7.2c-.2.5-.8,2.3-.7,4.7.2,2.6-.7,4.2-1.5,5.6-.1.2-.3.5-.4.7-.3.6-.3,1.3,0,1.9l2.3,4.6h0c.3.6,1.1.9,1.8,1v4.2h9.9s0,0,0,0ZM35.7,14.1c-.6-.4-1.5-1-2.4-1.1v.3c1.3.9,1.6,2.3,1.8,3.8.1,1.7-.2,3.5-1,5-1,1.9-3.7,5.1-10.4,5.1h-3.2c0-.5,0-1.1,0-1.6.3-2.3,1.2-3.4,2.1-4.5.8-1,1.5-1.4,2.1-1.8.5-.3,1-.7,1.5-1.3.8-1,.5-2,.4-2.1h0c0,0-1.1-.8-1.1-.8v.4c0,0,.2.8-.1,1.4-.4.8-1.4,1.3-2.3,1.8-.1,0-.2.1-.3.2-.2,0-2.5,1.1-3.8,2.7-1,1.2-1.6,3.6-1.7,3.8-.1.3-.4.4-.7.4h-2.1c-.3,0-.6-.1-.7-.3l-1.1-2.1c-.2-.4-.2-.7-.1-1,0-.1,1.3-2.3,1.6-4.4h0c0-.4,0-.8,0-1.1,0-.3,0-.5,0-.7,0-1.9,0-2.4.4-4.1.2-.7.7-1.5,1.3-2.3v-.2c.1,0-8.2-4-8.2-4-.1,0-.1-.1,0-.2,0,0,0,0,.2-.2,0,0,.1,0,.3,0l9.4,2.6h.2s.2.1.2.1h0s.4-.3.7-.5l.5-.3-1.4-.2v-1.8c0,0,0,0,.1,0l2.6,1.4h0c1.2-.4,2.5-.6,3.9-.6,3,0,6.1,1,8.1,2.6,0,0,0,0,0,0-.6,0-1.7-.1-2.6,0v.2c.1,0,1.4.2,2.7,1,1.1.7,2.5,1.9,3.3,4.2,0,0,0,0,0,0h0ZM122.3.1c0,0-.1-.2-.2-.1l-6.8,3.1s0,0,0,.1v4h-8.9V.1c0,0-.1-.2-.2-.1l-6.8,3.1s0,0,0,.1v19.8c0,2.6.3,4.7,1.1,6.2.7,1.5,1.9,2.6,3.5,3.2,1.6.7,3.7,1,6.3,1h3.4v-6.1h-3.3c-1.3,0-2.3-.3-2.9-1-.7-.7-1-1.7-1-3v-9h9v8.7c0,2.6.4,4.7,1.1,6.2.7,1.5,1.9,2.6,3.5,3.2,1.6.7,3.7,1,6.3,1h3.4v-6.1h-3.3c-1.3,0-2.3-.3-2.9-1-.7-.7-1-1.7-1-3v-9h7.3v-7.2h-7.3V.1ZM61.4,22.4c0,1.5-.5,2.7-1.4,3.6-.9.9-2.1,1.3-3.6,1.3s-2.6-.4-3.4-1.3c-.9-.9-1.3-2-1.3-3.5V7.2h-7.5v15c0,3.9.8,6.8,2.5,8.8.8,1,1.8,1.7,3,2.2,1.2.5,2.5.7,4,.7h.3c2,0,3.7-.4,5.1-1.3,1.3-.8,2.4-2.2,3-3.9.2-.5.4-1.1.5-1.7h.4v6.5h5.9V7.2h-7.5v15.2h0ZM91.5,8.2c-1.9-1.2-4.4-1.9-7.2-1.9s-4.1.4-5.8,1.1c-1.7.7-3.1,1.7-4.3,3-1.1,1.3-2,2.7-2.6,4.3-.6,1.6-.9,3.3-.9,5v1c0,1.7.3,3.3.9,4.9.6,1.6,1.5,3,2.7,4.3,1.2,1.3,2.6,2.3,4.3,3.1,1.7.7,3.7,1.1,6,1.1s4.2-.4,5.9-1.2c1.7-.8,3.1-1.8,4.3-3.2,1.1-1.3,1.8-2.7,2.2-4.4h-6.9c-.4.8-1,1.4-1.9,2-.9.6-2.2.8-3.7.8s-2.9-.3-4-1c-1-.7-1.8-1.6-2.2-2.8-.3-.7-.5-1.4-.6-2.2v-.2s19.7,0,19.7,0v-2.4c0-2.3-.5-4.5-1.6-6.5-1-2-2.5-3.6-4.5-4.8h0ZM77.8,18v-.2c.2-.7.4-1.4.6-1.9.5-1.2,1.3-2.1,2.2-2.7,1-.6,2.2-.9,3.6-.9s2.6.3,3.5.9c.9.6,1.6,1.5,2.1,2.6.2.6.4,1.3.5,2v.2s-12.6,0-12.6,0Z"/>
</svg>