<svg width="237" height="51" viewBox="0 0 237 51" fill="none" xmlns="http://www.w3.org/2000/svg">
<g clip-path="url(#clip0_468_580)">
<mask id="mask0_468_580" style="mask-type:luminance" maskUnits="userSpaceOnUse" x="0" y="0" width="237" height="51">
<path d="M237 0H0V51H237V0Z" fill="white"/>
</mask>
<g mask="url(#mask0_468_580)">
<path fill-rule="evenodd" clip-rule="evenodd" d="M12.3298 0C5.54807 0 0 5.71021 0 12.6901V38.3099C0 45.3189 5.51975 51 12.3298 51C19.1398 51 24.6595 45.3189 24.6595 38.3099V12.6901C24.6595 5.71021 19.1114 0 12.3298 0ZM11.2409 40.4897C10.4542 41.2994 9.42512 41.7043 8.39292 41.7043H4.36482V37.8694H8.39292C8.50306 37.8694 8.59118 37.7787 8.59118 37.6654C8.59118 34.8313 8.58803 16.1071 8.58803 13.2666C8.58803 13.001 8.19151 12.9913 8.19151 13.2731V31.4952C5.9383 31.4952 4.36167 29.7171 4.36167 27.5891V13.2731C4.36167 10.9702 6.14599 9.12403 8.38977 9.12403C10.6335 9.12403 12.4179 10.9896 12.4179 13.299C12.4179 16.0812 12.4179 34.7471 12.4179 37.5293C12.4179 38.65 12.0088 39.6929 11.2378 40.4897H11.2409ZM20.9398 37.7625H20.9335C20.9335 39.9391 19.2216 41.7011 17.1068 41.7011V23.3656C17.1068 23.2328 17.0061 23.1647 16.9054 23.1647H16.704V34.624H12.871V13.0593H12.8773C12.8773 10.8828 14.5893 9.12079 16.704 9.12079V19.2197C16.7701 19.2197 16.8362 19.2197 16.9054 19.2197C19.2688 19.2197 20.9398 21.1113 20.9398 23.4012C20.9398 27.5794 20.9398 27.6442 20.9398 37.7658V37.7625Z" fill="white"/>
<path d="M51.4398 30.8409C50.5021 31.8676 49.2118 32.3178 47.8932 32.3178C45.5771 32.3178 43.9375 30.9898 43.9375 28.5769C43.9375 28.0036 44.0256 27.372 44.1421 26.6788L44.8155 23.0901C45.2246 20.9784 45.6652 19.8933 46.3701 19.1386C47.3677 18.0536 48.9475 17.4512 50.9993 17.4512C53.7843 17.4512 55.3956 18.7791 55.3956 21.1921C55.3956 21.6747 55.3074 22.4002 55.191 23.0934L53.4633 32.2044C52.9944 34.7373 52.642 35.6118 51.8238 36.5187C50.7979 37.6653 49.0702 38.1479 47.1946 38.1479C46.9586 38.1479 46.4047 38.1187 45.9925 38.0572L46.4016 35.9454C46.8107 36.0069 47.2513 36.0361 47.5439 36.0361C48.5415 36.0361 49.4478 35.7057 50.0646 35.0417C50.4737 34.5883 50.886 33.8369 51.1503 32.4182L51.4398 30.8409ZM46.4268 26.5882C46.3103 27.1906 46.2505 27.7639 46.2505 28.0975C46.2505 29.5161 47.0719 30.0862 48.6831 30.0862C49.473 30.0862 50.3825 29.8465 51.144 29.0595C51.701 28.4862 52.022 27.7639 52.2864 26.3452L52.9032 23.1484C53.0196 22.546 53.0794 22.0634 53.0794 21.6715C53.0794 20.2528 52.2581 19.6795 50.6468 19.6795C49.6209 19.6795 48.7996 19.9225 48.1859 20.5541C47.6887 21.0658 47.3645 21.7589 47.1033 23.1776L46.4268 26.5882Z" fill="white"/>
<path d="M67.1804 17.6296L66.9443 19.4401C68.0584 18.1413 69.2888 17.4482 71.1046 17.4482H71.6616L71.221 19.7705H70.9C69.4052 19.7705 68.2629 20.1916 67.4132 21.0661C66.7681 21.7592 66.5038 22.5139 66.2426 23.9001L64.6596 32.3148H62.375L65.1285 17.6263H67.1804V17.6296Z" fill="white"/>
<path d="M89.5658 17.6296L86.7807 32.3181H84.7887L84.9932 30.718C84.2002 31.8031 82.6771 32.4962 81.1823 32.4962C78.6049 32.4962 77.2266 31.0776 77.2266 28.7876C77.2266 28.2435 77.3147 27.5504 77.4626 26.7374L78.136 23.0872C78.5168 21.0045 78.9291 19.9519 79.6906 19.1357C80.6882 18.0506 81.9753 17.4482 83.7345 17.4482C85.4936 17.4482 86.6076 18.1413 87.1646 19.2264L87.5737 17.6263H89.5658V17.6296ZM84.4394 29.2411C84.9964 28.6678 85.3174 27.9164 85.5817 26.5269L86.1671 23.4208C86.2835 22.7859 86.3433 22.245 86.3433 21.9114C86.3433 20.4636 85.3457 19.6798 83.9705 19.6798C82.9446 19.6798 82.1547 19.9227 81.5096 20.5543C80.9809 21.0952 80.6882 21.7592 80.4553 23.0256L79.7221 26.7957C79.6057 27.369 79.5459 27.9423 79.5459 28.2435C79.5459 29.5715 80.3074 30.2646 81.9785 30.2646C82.7683 30.2678 83.6747 30.0249 84.4394 29.2411Z" fill="white"/>
<path d="M99.7683 17.6299L101.027 28.6098L106.333 17.6299H108.794L101.352 32.3184H99.2428L97.3672 17.6299H99.7683Z" fill="white"/>
<path d="M119.218 17.6293L116.433 32.3178H114.148L116.934 17.6293H119.218ZM120.156 12.5928L119.715 14.9767H117.431L117.871 12.5928H120.156Z" fill="white"/>
<path d="M132.118 13.9795L131.445 17.6298H134.551L134.17 19.68H131.064L129.629 27.1911C129.541 27.6737 129.484 28.1854 129.484 28.4575C129.484 29.7239 130.186 30.2972 131.8 30.2972H132.181L131.772 32.4997H131.155C128.547 32.4997 127.168 31.081 127.168 28.911C127.168 28.5191 127.196 28.098 127.344 27.3109L128.779 19.68H126.523L126.904 17.6298H129.16L129.834 13.9795H132.118Z" fill="white"/>
<path d="M148.348 30.8087C147.382 31.8354 146.152 32.318 144.714 32.318C142.136 32.318 140.758 30.8994 140.758 28.6095C140.758 28.0653 140.846 27.3722 140.994 26.5592L142.665 17.6328H144.95L143.25 26.6208C143.134 27.1941 143.074 27.7673 143.074 28.0686C143.074 29.3965 143.836 30.0896 145.507 30.0896C146.3 30.0896 147.294 29.85 148.056 29.0629C148.613 28.4896 148.934 27.735 149.198 26.3487L150.838 17.6328H153.122L150.369 32.2014C149.9 34.7343 149.547 35.6088 148.729 36.5157C147.703 37.6622 145.976 38.1448 144.1 38.1448C143.864 38.1448 143.31 38.1157 142.898 38.0541L143.307 35.9424C143.716 36.0039 144.157 36.0331 144.449 36.0331C145.447 36.0331 146.353 35.7027 146.97 35.0387C147.379 34.5853 147.732 33.8338 148.024 32.4152L148.348 30.8087Z" fill="white"/>
<path d="M175.401 12.1689L174.083 19.1067C175.137 18.0216 176.459 17.4483 177.865 17.4483C180.267 17.4483 181.765 18.7148 181.765 21.0079C181.765 21.28 181.706 21.9731 181.589 22.6371L179.773 32.3182H177.488L179.216 23.1488C179.332 22.514 179.393 22.0929 179.393 21.7917C179.393 20.3731 178.427 19.68 176.992 19.68C175.994 19.68 175.055 20.0719 174.382 20.8265C173.856 21.3998 173.504 22.1545 173.268 23.4209L171.597 32.3182H169.312L173.123 12.1689H175.401Z" fill="white"/>
<path d="M201.542 17.6296L198.757 32.3181H196.765L196.97 30.718C196.177 31.8031 194.654 32.4962 193.159 32.4962C190.578 32.4962 189.203 31.0776 189.203 28.7876C189.203 28.2435 189.291 27.5504 189.436 26.7374L190.109 23.0872C190.49 21.0045 190.899 19.9519 191.664 19.1357C192.661 18.0506 193.949 17.4482 195.708 17.4482C197.467 17.4482 198.581 18.1413 199.138 19.2264L199.547 17.6263H201.542V17.6296ZM196.413 29.2411C196.97 28.6678 197.291 27.9164 197.555 26.5269L198.14 23.4208C198.257 22.7859 198.317 22.245 198.317 21.9114C198.317 20.4636 197.319 19.6798 195.944 19.6798C194.918 19.6798 194.128 19.9227 193.483 20.5543C192.957 21.0952 192.661 21.7592 192.429 23.0256L191.695 26.7957C191.579 27.369 191.519 27.9423 191.519 28.2435C191.519 29.5715 192.281 30.2646 193.952 30.2646C194.745 30.2678 195.651 30.0249 196.413 29.2411Z" fill="white"/>
<path d="M220.735 17.6293L218.975 26.8602C218.566 28.972 218.126 30.057 217.421 30.8117C216.423 31.8967 214.784 32.4991 212.732 32.4991C209.947 32.4991 208.336 31.2036 208.336 28.7582C208.336 28.1849 208.424 27.5501 208.54 26.8569L210.268 17.626H212.552L210.825 26.7954C210.708 27.3687 210.649 27.9128 210.649 28.2432C210.649 29.6618 211.47 30.2643 213.081 30.2643C214.107 30.2643 214.985 30.0214 215.602 29.3898C216.099 28.878 216.452 28.1849 216.716 26.7662L218.447 17.626H220.735V17.6293Z" fill="white"/>
<path d="M227.589 31.3818C227.003 30.8085 226.711 30.0538 226.711 29.0303C226.711 28.8781 226.739 28.5186 226.827 28.036H228.939C228.91 28.2465 228.879 28.457 228.879 28.6708C228.879 29.8757 229.552 30.4489 231.107 30.4489C231.84 30.4489 232.662 30.2384 233.247 29.6651C233.716 29.1825 233.92 28.6708 233.92 28.1266C233.92 27.3104 233.48 26.8894 231.431 26.0149C228.762 24.8683 228.001 23.9646 228.001 22.0342C228.001 20.9784 228.441 19.7119 229.231 18.899C230.109 17.9953 231.283 17.4512 233.099 17.4512C235.415 17.4512 236.998 18.656 236.998 20.8909C236.998 21.1014 236.938 21.6747 236.882 21.9468H234.773C234.801 21.7654 234.83 21.435 234.83 21.1921C234.801 20.1362 234.185 19.5338 232.926 19.5338C232.016 19.5338 231.315 19.835 230.846 20.3468C230.465 20.7387 230.289 21.2828 230.289 21.7654C230.289 22.5201 230.698 23.0318 232.838 23.9387C235.358 24.9946 236.208 25.8076 236.208 27.8287C236.208 28.8554 235.799 30.2125 234.978 31.0579C234.1 31.9615 232.693 32.5057 230.846 32.5057C229.436 32.4992 228.294 32.1073 227.589 31.3818Z" fill="white"/>
</g>
</g>
<defs>
<clipPath id="clip0_468_580">
<rect width="237" height="51" fill="white"/>
</clipPath>
</defs>
</svg>
