<svg aria-hidden="true" fill="none" height="100%" preserveaspectratio="xMidYMid meet" role="img" viewBox="0 0 237 51" width="100%" xmlns="http://www.w3.org/2000/svg">
<g clip-path="url(#clip0_7356_2474)">
<path clip-rule="evenodd" d="M12.3298 0C5.54807 0 0 5.71021 0 12.6901V38.3099C0 45.3189 5.51975 51 12.3298 51C19.1398 51 24.6595 45.3189 24.6595 38.3099V12.6901C24.6595 5.71021 19.1114 0 12.3298 0ZM11.2409 40.4897C10.4542 41.2994 9.42512 41.7043 8.39292 41.7043H4.36482V37.8694H8.39292C8.50306 37.8694 8.59118 37.7787 8.59118 37.6654C8.59118 34.8313 8.58803 16.1071 8.58803 13.2666C8.58803 13.001 8.19151 12.9913 8.19151 13.2731V31.4952C5.9383 31.4952 4.36167 29.7171 4.36167 27.5891V13.2731C4.36167 10.9702 6.14599 9.12403 8.38977 9.12403C10.6335 9.12403 12.4179 10.9896 12.4179 13.299C12.4179 16.0812 12.4179 34.7471 12.4179 37.5293C12.4179 38.65 12.0088 39.6929 11.2378 40.4897H11.2409ZM20.9398 37.7625H20.9335C20.9335 39.9391 19.2216 41.7011 17.1068 41.7011V23.3656C17.1068 23.2328 17.0061 23.1647 16.9054 23.1647H16.704V34.624H12.871V13.0593H12.8773C12.8773 10.8828 14.5893 9.12079 16.704 9.12079V19.2197C16.7701 19.2197 16.8362 19.2197 16.9054 19.2197C19.2688 19.2197 20.9398 21.1113 20.9398 23.4012C20.9398 27.5794 20.9398 27.6442 20.9398 37.7658V37.7625Z" fill="currentcolor" fill-rule="evenodd"></path>
<path d="M51.44 30.8409C50.5023 31.8676 49.212 32.3178 47.8934 32.3178C45.5773 32.3178 43.9377 30.9898 43.9377 28.5769C43.9377 28.0036 44.0258 27.372 44.1423 26.6788L44.8157 23.0901C45.2248 20.9784 45.6654 19.8933 46.3703 19.1386C47.3679 18.0536 48.9477 17.4512 50.9995 17.4512C53.7845 17.4512 55.3958 18.7791 55.3958 21.1921C55.3958 21.6747 55.3076 22.4002 55.1912 23.0934L53.4635 32.2044C52.9946 34.7373 52.6422 35.6118 51.824 36.5187C50.7981 37.6653 49.0704 38.1479 47.1948 38.1479C46.9588 38.1479 46.4049 38.1187 45.9927 38.0572L46.4018 35.9454C46.8109 36.0069 47.2515 36.0361 47.5441 36.0361C48.5417 36.0361 49.448 35.7057 50.0648 35.0417C50.4739 34.5883 50.8862 33.8369 51.1505 32.4182L51.44 30.8409ZM46.427 26.5882C46.3105 27.1906 46.2507 27.7639 46.2507 28.0975C46.2507 29.5161 47.0721 30.0862 48.6833 30.0862C49.4732 30.0862 50.3827 29.8465 51.1442 29.0595C51.7012 28.4862 52.0222 27.7639 52.2866 26.3452L52.9034 23.1484C53.0198 22.546 53.0796 22.0634 53.0796 21.6715C53.0796 20.2528 52.2583 19.6795 50.647 19.6795C49.6211 19.6795 48.7998 19.9225 48.1861 20.5541C47.6889 21.0658 47.3647 21.7589 47.1035 23.1776L46.427 26.5882Z" fill="black"></path>
<path d="M67.178 17.6294L66.9419 19.4399C68.056 18.1411 69.2864 17.448 71.1022 17.448H71.6592L71.2186 19.7703H70.8976C69.4028 19.7703 68.2605 20.1914 67.4108 21.0659C66.7657 21.759 66.5014 22.5137 66.2402 23.8999L64.6572 32.3146H62.3726L65.1261 17.6261H67.178V17.6294Z" fill="black"></path>
<path d="M89.5654 17.6294L86.7803 32.3179H84.7883L84.9928 30.7178C84.1998 31.8029 82.6767 32.496 81.1819 32.496C78.6045 32.496 77.2262 31.0774 77.2262 28.7874C77.2262 28.2433 77.3143 27.5502 77.4622 26.7372L78.1356 23.087C78.5164 21.0043 78.9287 19.9517 79.6902 19.1355C80.6878 18.0504 81.9749 17.448 83.7341 17.448C85.4932 17.448 86.6072 18.1411 87.1642 19.2262L87.5733 17.6261H89.5654V17.6294ZM84.439 29.2409C84.996 28.6676 85.317 27.9162 85.5813 26.5267L86.1667 23.4206C86.2831 22.7857 86.3429 22.2448 86.3429 21.9112C86.3429 20.4634 85.3453 19.6796 83.9701 19.6796C82.9442 19.6796 82.1543 19.9225 81.5092 20.5541C80.9805 21.095 80.6878 21.759 80.4549 23.0254L79.7217 26.7955C79.6053 27.3688 79.5455 27.9421 79.5455 28.2433C79.5455 29.5713 80.307 30.2644 81.9781 30.2644C82.7679 30.2676 83.6743 30.0247 84.439 29.2409Z" fill="black"></path>
<path d="M99.7646 17.6294L101.023 28.6093L106.329 17.6294H108.79L101.348 32.3179H99.2391L97.3635 17.6294H99.7646Z" fill="black"></path>
<path d="M119.222 17.6295L116.437 32.318H114.152L116.938 17.6295H119.222ZM120.16 12.593L119.719 14.9769H117.435L117.875 12.593H120.16Z" fill="black"></path>
<path d="M132.115 13.9792L131.442 17.6295H134.548L134.167 19.6797H131.061L129.626 27.1908C129.538 27.6734 129.481 28.1851 129.481 28.4572C129.481 29.7236 130.183 30.2969 131.797 30.2969H132.178L131.769 32.4994H131.152C128.544 32.4994 127.165 31.0807 127.165 28.9107C127.165 28.5188 127.193 28.0977 127.341 27.3106L128.776 19.6797H126.52L126.901 17.6295H129.157L129.831 13.9792H132.115Z" fill="black"></path>
<path d="M148.35 30.8085C147.384 31.8352 146.154 32.3178 144.716 32.3178C142.138 32.3178 140.76 30.8992 140.76 28.6093C140.76 28.0651 140.848 27.372 140.996 26.559L142.667 17.6326H144.952L143.252 26.6206C143.136 27.1939 143.076 27.7671 143.076 28.0684C143.076 29.3963 143.838 30.0894 145.509 30.0894C146.302 30.0894 147.296 29.8498 148.058 29.0627C148.615 28.4894 148.936 27.7348 149.2 26.3485L150.84 17.6326H153.124L150.371 32.2012C149.902 34.7341 149.549 35.6086 148.731 36.5155C147.705 37.662 145.978 38.1446 144.102 38.1446C143.866 38.1446 143.312 38.1155 142.9 38.0539L143.309 35.9422C143.718 36.0037 144.159 36.0329 144.451 36.0329C145.449 36.0329 146.355 35.7025 146.972 35.0385C147.381 34.5851 147.734 33.8336 148.026 32.415L148.35 30.8085Z" fill="black"></path>
<path d="M175.398 12.1687L174.08 19.1065C175.134 18.0214 176.456 17.4481 177.862 17.4481C180.264 17.4481 181.762 18.7146 181.762 21.0077C181.762 21.2798 181.702 21.9729 181.585 22.6369L179.77 32.318H177.485L179.213 23.1486C179.329 22.5138 179.389 22.0927 179.389 21.7915C179.389 20.3729 178.423 19.6798 176.988 19.6798C175.99 19.6798 175.052 20.0717 174.379 20.8263C173.853 21.3996 173.501 22.1543 173.265 23.4207L171.594 32.318H169.309L173.12 12.1687H175.398Z" fill="black"></path>
<path d="M201.54 17.6294L198.755 32.3179H196.763L196.968 30.7178C196.175 31.8029 194.652 32.496 193.157 32.496C190.576 32.496 189.201 31.0774 189.201 28.7874C189.201 28.2433 189.289 27.5502 189.434 26.7372L190.107 23.087C190.488 21.0043 190.897 19.9517 191.662 19.1355C192.659 18.0504 193.947 17.448 195.706 17.448C197.465 17.448 198.579 18.1411 199.136 19.2262L199.545 17.6261H201.54V17.6294ZM196.411 29.2409C196.968 28.6676 197.289 27.9162 197.553 26.5267L198.138 23.4206C198.255 22.7857 198.315 22.2448 198.315 21.9112C198.315 20.4634 197.317 19.6796 195.942 19.6796C194.916 19.6796 194.126 19.9225 193.481 20.5541C192.955 21.095 192.659 21.759 192.427 23.0254L191.693 26.7955C191.577 27.3688 191.517 27.9421 191.517 28.2433C191.517 29.5713 192.279 30.2644 193.95 30.2644C194.743 30.2676 195.649 30.0247 196.411 29.2409Z" fill="black"></path>
<path d="M220.737 17.6295L218.977 26.8604C218.568 28.9722 218.128 30.0572 217.423 30.8119C216.425 31.8969 214.786 32.4993 212.734 32.4993C209.949 32.4993 208.338 31.2038 208.338 28.7584C208.338 28.1851 208.426 27.5503 208.542 26.8571L210.27 17.6262H212.554L210.827 26.7956C210.71 27.3689 210.651 27.913 210.651 28.2434C210.651 29.662 211.472 30.2645 213.083 30.2645C214.109 30.2645 214.987 30.0216 215.604 29.39C216.101 28.8782 216.454 28.1851 216.718 26.7664L218.449 17.6262H220.737V17.6295Z" fill="black"></path>
<path d="M227.591 31.3818C227.005 30.8085 226.713 30.0538 226.713 29.0303C226.713 28.8781 226.741 28.5186 226.829 28.036H228.941C228.912 28.2465 228.881 28.457 228.881 28.6708C228.881 29.8757 229.554 30.4489 231.109 30.4489C231.842 30.4489 232.664 30.2384 233.249 29.6651C233.718 29.1825 233.922 28.6708 233.922 28.1266C233.922 27.3104 233.482 26.8894 231.433 26.0149C228.764 24.8683 228.003 23.9646 228.003 22.0342C228.003 20.9784 228.443 19.7119 229.233 18.899C230.111 17.9953 231.285 17.4512 233.101 17.4512C235.417 17.4512 237 18.656 237 20.8909C237 21.1014 236.94 21.6747 236.884 21.9468H234.775C234.803 21.7654 234.832 21.435 234.832 21.1921C234.803 20.1362 234.187 19.5338 232.928 19.5338C232.018 19.5338 231.317 19.835 230.848 20.3468C230.467 20.7387 230.291 21.2828 230.291 21.7654C230.291 22.5201 230.7 23.0318 232.84 23.9387C235.36 24.9946 236.21 25.8076 236.21 27.8287C236.21 28.8554 235.801 30.2125 234.98 31.0579C234.102 31.9615 232.695 32.5057 230.848 32.5057C229.438 32.4992 228.296 32.1073 227.591 31.3818Z" fill="black"></path>
</g>
<defs>
<clipPath id="clip0_7356_2474">
<rect fill="white" height="51" width="237"></rect>
</clipPath>
</defs>
</svg>