<svg width="934" height="210" viewBox="0 0 934 210" fill="none" xmlns="http://www.w3.org/2000/svg">
<g clip-path="url(#clip0_468_71)">
<path d="M190.13 94.33C187.914 76.2905 180.045 59.4153 167.65 46.1223C155.255 32.8293 138.971 23.8007 121.13 20.33L127.75 35C142.897 39.9951 156.009 49.7824 165.104 62.8845C174.2 75.9866 178.786 91.6922 178.17 107.63C178 111.728 177.495 115.805 176.66 119.82L190.29 113.66L209.48 105L190.13 94.33ZM94.33 19.35C76.2905 21.5661 59.4153 29.4354 46.1223 41.8302C32.8293 54.225 23.8007 70.5093 20.33 88.35L35 81.73C40.6453 64.5716 52.4186 50.0968 68.0676 41.075C83.7165 32.0531 102.142 29.1176 119.82 32.83L113.62 19.2L105 0L94.33 19.35ZM19.35 115.15C21.5647 133.19 29.4334 150.066 41.8285 163.359C54.2235 176.653 70.5087 185.681 88.35 189.15L81.73 174.49C64.5711 168.849 50.0951 157.078 41.0729 141.43C32.0506 125.782 29.1158 107.357 32.83 89.68L19.2 95.86L0 104.54L19.35 115.15ZM115.15 190.13C133.19 187.915 150.066 180.047 163.359 167.652C176.653 155.256 185.681 138.971 189.15 121.13L174.49 127.75C169.495 142.897 159.708 156.009 146.605 165.104C133.503 174.2 117.798 178.786 101.86 178.17C97.7656 178 93.6919 177.495 89.68 176.66L95.83 190.29L104.5 209.48L115.15 190.13Z" fill="#213F42"/>
<path d="M132.807 45.7099C100.707 30.2499 61.8069 43.92 46.0769 76.19C38.5608 91.7517 37.4962 109.652 43.1148 125.995C48.7335 142.338 60.5806 155.8 76.0769 163.45C84.93 167.864 94.6842 170.171 104.577 170.19C127.377 170.19 148.127 157.87 158.827 141.07L160.217 138.35L104.577 74L89.0769 99.26L76.6869 93.72L63.8069 113.35L61.8869 120.93L75.7969 107.34L87.1469 126L102.627 104.73L111.277 120.73L112.147 108.65L133.937 140.92C125.742 147.69 115.454 151.409 104.824 151.442C94.1947 151.474 83.8829 147.82 75.6469 141.1C66.8335 134.078 60.8669 124.098 58.8546 113.01C56.8424 101.923 58.9211 90.4821 64.7051 80.8113C70.489 71.1405 79.5852 63.8966 90.3053 60.4243C101.025 56.9519 112.641 57.4869 122.997 61.93C133.479 66.3733 141.944 74.5423 146.757 84.86C149.137 89.6777 150.564 94.9105 150.957 100.27L126.577 90.76L162.767 131L163.957 132.21L164.637 130.65C171.404 115.131 171.866 97.5872 165.925 81.7334C159.984 65.8796 148.106 52.9601 132.807 45.7099ZM933.177 49.6199L931.697 51.8499C919.997 74.1899 908.297 96.5233 896.597 118.85C895.82 120.304 895.425 121.931 895.447 123.58V160H870.197L870.047 157.13V123.13C870.08 121.112 869.599 119.119 868.647 117.34C857.247 95.5599 845.88 73.78 834.547 52L833.277 49.38H860.707L882.627 97.65L883.267 97.75L905.357 49.2599H930.437C931.347 49.2599 932.267 49.1699 933.177 49.1199V49.6199ZM490.307 49.2099H528.667C533.922 49.1396 539.16 49.8129 544.227 51.2099C552.985 53.6799 560.734 58.8648 566.359 66.0186C571.983 73.1723 575.193 81.926 575.527 91.0199C575.857 100.23 575.837 109.47 575.527 118.67C575.139 127.997 571.71 136.941 565.765 144.137C559.819 151.334 551.683 156.389 542.597 158.53C538.563 159.48 534.44 159.999 530.297 160.08L492.397 160.15C491.777 160.15 491.147 160.06 490.327 159.99L490.307 49.2099ZM515.857 140.65C521.587 140.45 527.207 140.56 532.747 139.97C539.167 139.28 543.657 135.39 546.747 129.85C548.967 125.783 550.126 121.223 550.117 116.59L550.067 92.8C549.96 89.4904 549.363 86.2149 548.297 83.08C545.957 76.23 541.397 71.3099 534.137 69.5999C528.137 68.1999 522.067 69.1699 515.867 68.9199L515.857 140.65ZM319.797 103.48V145.56L315.877 148.93C308.146 155.436 298.708 159.584 288.687 160.88C280.407 161.93 272.157 162.15 263.947 160.3C255.337 158.392 247.546 153.822 241.679 147.239C235.811 140.655 232.165 132.392 231.257 123.62C230.737 118.62 230.787 113.5 230.717 108.44C230.637 102.44 230.467 96.44 230.777 90.44C231.777 72.24 239.977 58.72 256.917 51.11C262.295 48.8386 268.079 47.6885 273.917 47.7299C280.455 47.5007 286.989 48.2661 293.297 50C306.777 53.94 314.627 63.18 318.027 76.5C318.697 79.15 318.967 81.8999 319.467 84.8399H295.337L294.417 81.07C291.777 70.6899 284.887 66.0699 273.077 67.6699C264.807 68.7499 260.277 74.5199 257.837 81.9599C256.828 85.115 256.276 88.3983 256.197 91.7099C255.977 100.38 256.057 109.05 256.147 117.71C256.127 122.233 257.1 126.704 258.997 130.81C261.997 137.06 266.757 141.11 273.767 141.89C279.276 142.619 284.88 142.016 290.107 140.13C291.51 139.514 292.879 138.823 294.207 138.06V120.12H277.167V103.48H319.797ZM400.997 49.3499H426.397L426.567 51.5499V122.66C426.567 131.94 424.137 140.54 417.787 147.66C412.04 154.011 404.399 158.338 395.997 160C383.137 162.8 370.327 162.58 357.997 157.39C346.297 152.46 338.607 143.92 336.117 131.2C335.652 129.036 335.394 126.833 335.347 124.62C335.274 100.093 335.25 75.56 335.277 51.02C335.277 50.56 335.337 50.0999 335.387 49.4199H360.777V120.44C360.751 122.93 360.952 125.417 361.377 127.87C362.697 134.87 366.827 139.37 373.797 141.16C378.719 142.474 383.908 142.412 388.797 140.98C395.727 138.98 399.937 133.7 400.577 126.23C400.785 123.749 400.888 121.26 400.887 118.77V53.1899L400.997 49.3499ZM617.757 92.8899H660.617V112.6H617.717V140.43H668.407V160.05H591.997V49.4399H668.657V68.9H617.757V92.8899ZM677.507 124.65H702.187L702.807 128.94C703.587 134.63 706.437 138.74 711.967 140.66C717.901 142.802 724.341 143.119 730.457 141.57C735.367 140.32 738.617 137.26 739.197 132.07C739.747 127.21 738.197 122.95 733.747 120.57C729.297 118.19 724.597 116.3 719.927 114.37L700.227 106.48C697.126 105.061 694.169 103.347 691.397 101.36C682.197 95.03 679.397 85.86 680.497 75.25C681.347 66.92 685.887 60.7399 692.637 56.0299C699.053 51.6381 706.477 48.9442 714.217 48.2C722.877 47.2 731.517 47.43 739.917 50.2C747.547 52.7 754.087 56.84 758.917 63.38C762.766 68.6688 764.657 75.1306 764.267 81.66H739.657C739.477 80.84 739.267 80.0599 739.127 79.2699C737.937 72.6799 733.777 68.94 727.487 67.47C723.414 66.5547 719.174 66.7062 715.177 67.91C712.49 68.6365 710.078 70.1433 708.247 72.2399C704.247 76.8999 704.947 83.24 710.057 86.65C712.126 88.0286 714.335 89.185 716.647 90.0999C722.547 92.4099 728.537 94.53 734.487 96.72C741.267 99.0767 747.667 102.408 753.487 106.61C760.967 112.23 764.387 119.87 764.747 129C765.277 142.16 759.247 151.36 747.497 157C740.897 160.15 733.877 161.35 726.617 161.64C718.783 162.105 710.933 161.087 703.477 158.64C696.477 156.24 690.127 152.83 685.077 147.32C679.327 141 677.257 133.35 677.507 124.65ZM804.417 140.49H851.997V160H778.997V49.3699H804.417V140.49ZM470.707 160.05H445.607V49.4399H470.707V160.05Z" fill="#406425"/>
</g>
<defs>
<clipPath id="clip0_468_71">
<rect width="933.18" height="209.48" fill="white"/>
</clipPath>
</defs>
</svg>
