<?xml version="1.0" encoding="UTF-8"?>
<svg id="Layer_2" xmlns="http://www.w3.org/2000/svg" version="1.1" viewBox="0 0 1793.1 325.4">
  <!-- Generator: Adobe Illustrator 30.4.0, SVG Export Plug-In . SVG Version: 2.1.4 Build 226)  -->
  <defs>
    <style>
      .st0 {
        fill: #fff;
      }
    </style>
  </defs>
  <g id="Layer_1-2">
    <g>
      <path class="st0" d="M681.3,135.6c-62.1-49.7-159.1,6.8-124.6,86.7,25.3,57.6,129.7,54.6,145.3-9.2l-28.9-3.9c-13.2,41.3-85.5,35.6-89.9-9.1h119.5c3.8-24.2-3.9-49.1-21.3-64.5h0ZM585.5,173.3c13-42,83-40.4,87.8,6-16.5,3.1-80.6-8.2-90.7,8.7.3-5.4,1.3-10.3,2.9-14.7h0Z"/>
      <path class="st0" d="M726.2,128.9c-17.8,14.8-6.3,111.3-9.4,132.3h31.2c1.5-11.5-3.4-101.6,2.8-109.7,7.8-5.4,48.4-1.5,58.1-2.9v-29.5c-18.9,1.8-69.8-6.2-82.7,9.7h0Z"/>
      <path class="st0" d="M985.6,117c-22.1-.5-39.3,15.2-46,35.2-6.2-44.3-71.1-46.5-87-6.1,0-1.1,0-25.8,0-26.9h-31.2v142.1h31.2c.9-18.9-2.7-67.6,4-84,5.1-21.6,33.5-41,48.5-19.7,10.7,15.4,4.2,84.1,5.9,103.7h31.2c.8-18.9-2.5-67.6,3.8-84,4.6-22.5,32.9-41,48.2-19.1,11.6,15.7,4.7,83.3,6.4,103.1h31.2c-5.1-42.8,20.8-144.2-46.2-144.3h0Z"/>
      <path class="st0" d="M1176.6,135.6c-62.1-49.7-159.1,6.8-124.6,86.7,25.3,57.6,129.7,54.6,145.3-9.2l-28.9-3.9c-13.2,41.3-85.5,35.5-89.9-9.1h119.5c3.8-24.3-3.8-49-21.3-64.5h0ZM1080.8,173.3c13-42,83-40.4,87.8,6-16.5,3.1-80.6-8.2-90.7,8.7.3-5.4,1.3-10.3,2.9-14.7h0Z"/>
      <path class="st0" d="M1263.3,229.1c-7.2-3.1-1.9-74.8-3.5-81.5h35v-29.6h-49.9c14-9.1,20.4-25.9,20.8-42.2l-31.6.3c.2,18.2-12.8,45.1-33.9,41.9v29.6h28.4c2.5,24.4-7,82.2,8.8,102.1,13.7,15.9,44.3,10.5,64.1,11.5v-29.6c-7.1-.7-32.4,2.1-38.2-2.6h0Z"/>
      <rect class="st0" x="1310.7" y="64" width="32" height="27.6"/>
      <rect class="st0" x="1311.3" y="119.2" width="30.9" height="142.1"/>
      <path class="st0" d="M1473.4,208.2c-15.1,45.7-93.4,31.9-88.9-18-4.3-51.4,77.7-63.2,89.7-15.9l28.8-4.5c-17-80-155.7-64-149.7,20.3-6.1,84.2,132.8,100.4,149.7,20.6l-29-4.1-.6,1.6h0Z"/>
      <polygon class="st0" points="499 148.5 413.7 148.5 413.7 63.7 381.6 63.7 381.6 261.2 413.7 261.2 413.7 176.4 499 176.4 499 261.2 531.1 261.2 531.1 63.7 499 63.7 499 148.5"/>
      <g>
        <path class="st0" d="M1620.7,63.7l-84.2,197.5h35.6l15-37.5h100.7l15,37.5h35.6l-83.9-197.5h-33.8,0ZM1676.6,195.9h-78.2l39.2-97.2,39,97.2Z"/>
        <rect class="st0" x="1761" y="63.7" width="32.1" height="197.5"/>
      </g>
    </g>
  </g>
  <g>
    <path class="st0" d="M307.1,61.8c-2.1-31.7-27-58-59-60.7h-13.1c-2.7.3-5.2-.5-7.7,0h-101.6C76.2,1.1,43.6-3.1,21.8,18.6-1,41.4,0,77.1,0,167.1h0v100.4c4.4,29.8,28.4,52.4,58.8,56.1,2.2.7,4.6,1.1,7.1,1.1h1.2,0,175.4c34.2-.3,61.8-28.5,64.7-62.5V61.8ZM261.8,259.3c0,8-9.4,17.3-16.8,17.5l-43.6,1-62.2.3,17.8-18.6,21-21.8,19.1-19.8,4.9-5,.4-.5.4-.4c5.6-6.7,7.2-15.7,4.4-23.9-1.5-4-3.5-5.9-5.7-8-8.9-8.5-23.6-8.3-32.1.6l-.7,1h0c0,.1,0,.1,0,.2v-.4l-21.7,22.4-21,21.9-20,20.9-19,19.8c-4.8,4.9-8.9,10.6-16.1,11.8-7.1,1.2-13.7-.4-18.9-5-4.5-4.1-7-9.6-7-16.7v-89.4s-.4,0-.4,0c0-.1,0-.2,0-.3-2.1-52.5-3.2-104.9,8.7-116.8,8-7.9,34.2-6.8,70.6-5.3,13.3.6,27.9,1.2,44.3,1.5l-11.1,11.7-21,21.9-19.9,20.9-10.8,11.5c.2.2-.7.7-.5.9-8.2,8.9-6.7,22.4,2.1,30.8,8.8,8.4,22.9,9.1,31.4.3l.4-.5,10.8-11.6,17.6-18.4,21-21.9,20-21,20.7-21.2c6.5-4,13.1-5.3,20.9-2,4.1,2.5,12.2,8,12.2,15.6v196Z"/>
    <polygon class="st0" points="67.1 324.6 67.1 324.6 67.1 324.6 67.1 324.6"/>
  </g>
</svg>