<svg width="745" height="202" viewBox="0 0 745 202" fill="none" xmlns="http://www.w3.org/2000/svg">
<path fill-rule="evenodd" clip-rule="evenodd" d="M201.6 0H72.9C32.6384 0 0 32.6384 0 72.9V201.6H128.7C168.962 201.6 201.6 168.962 201.6 128.7V0ZM79.445 50.4H85.493V85.7962H116.108V112.004H85.493V122.976C85.493 138.564 72.8567 151.2 57.269 151.2H51.221V78.624C51.221 63.0363 63.8573 50.4 79.445 50.4ZM116.108 112.004L116.107 151.2H122.155C137.743 151.2 150.379 138.564 150.379 122.976V50.4H144.331C128.743 50.4 116.107 63.0363 116.107 78.624L116.108 85.7962V112.004Z" fill="black"/>
<path d="M717.366 124.32L732.156 85.3682H744.302L713.961 163.992H702.571L711.521 139.42L689.517 85.3682H702.168L717.366 124.32Z" fill="black"/>
<path d="M383.356 111.576C383.356 113.256 383.474 115.155 383.709 117.271C383.944 119.354 384.482 121.37 385.322 123.319C386.195 125.234 387.472 126.814 389.152 128.057C390.866 129.3 393.167 129.922 396.057 129.922C397.603 129.922 399.132 129.67 400.644 129.166C402.155 128.662 403.517 127.805 404.727 126.595C405.969 125.352 406.96 123.655 407.699 121.505C408.439 119.354 408.808 116.633 408.808 113.34V85.3682H421.005V139.8H410.271V133.749C408.887 135.396 407.259 136.826 405.381 138.036C401.887 140.254 397.586 141.362 392.479 141.362C388.447 141.362 385.12 140.69 382.499 139.346C379.879 138.002 377.795 136.289 376.25 134.206C374.704 132.122 373.562 129.905 372.823 127.553C372.083 125.201 371.596 122.983 371.361 120.9C371.159 118.783 371.06 117.07 371.06 115.759V85.3682H383.356V111.576Z" fill="black"/>
<path fill-rule="evenodd" clip-rule="evenodd" d="M555.814 83.8564C560.652 83.8565 564.904 84.6455 568.565 86.2246C572.261 87.8038 575 90.3912 576.78 93.9863C577.755 95.9014 578.343 97.867 578.544 99.8828C578.746 101.866 578.847 104.033 578.847 106.385V139.8H568.212V132.473C566.176 135.128 563.892 137.168 561.358 138.59C558.099 140.405 554.016 141.312 549.111 141.312C545.18 141.312 541.853 140.573 539.132 139.094C536.41 137.582 534.344 135.583 532.932 133.097C531.555 130.61 530.866 127.872 530.866 124.882C530.866 122.261 531.303 119.909 532.176 117.826C533.05 115.709 534.394 113.894 536.208 112.382C538.023 110.837 540.375 109.577 543.264 108.602C545.448 107.897 548.002 107.258 550.925 106.688C553.882 106.117 557.074 105.595 560.501 105.125C562.593 104.82 564.741 104.501 566.943 104.172C566.727 101.317 565.909 99.1481 564.483 97.666C562.769 95.8853 559.88 94.9942 555.814 94.9941C553.361 94.9941 550.992 95.5656 548.708 96.708C546.423 97.8504 544.827 99.8165 543.92 102.605L532.832 99.127C534.176 94.5239 536.729 90.8278 540.492 88.0391C544.289 85.2503 549.397 83.8564 555.814 83.8564ZM566.774 114.135C564.672 114.469 562.783 114.774 561.106 115.054C558.486 115.49 556.234 115.91 554.353 116.314C552.472 116.683 550.808 117.103 549.363 117.574C547.952 118.078 546.759 118.666 545.784 119.338C544.81 120.01 544.054 120.782 543.516 121.656C543.012 122.53 542.76 123.555 542.76 124.73C542.76 126.074 543.097 127.267 543.769 128.309C544.441 129.317 545.415 130.124 546.692 130.729C548.002 131.333 549.615 131.635 551.53 131.635C554.285 131.635 556.637 131.148 558.586 130.174C560.535 129.199 562.08 128.006 563.223 126.595C564.399 125.184 565.188 123.857 565.592 122.614C566.23 121.068 566.583 119.304 566.65 117.322C566.71 116.123 566.75 115.06 566.774 114.135Z" fill="black"/>
<path d="M307.437 97.7666H341.808V67.2236H353.904V139.8H341.808V109.157H307.437V139.8H295.289V67.2236H307.437V97.7666Z" fill="black"/>
<path d="M498.064 84.0068C504.079 84.0069 508.682 85.8216 511.874 89.4502C515.099 93.0454 516.712 97.7833 516.712 103.663V139.8H504.566V106.738C504.566 103.008 503.642 100.102 501.794 98.0186C499.946 95.9018 497.443 94.8428 494.284 94.8428C492.335 94.8428 490.588 95.2969 489.043 96.2041C487.497 97.0777 486.271 98.388 485.363 100.135C484.456 101.849 484.003 103.898 484.003 106.284V139.8H471.907V106.889C471.907 103.092 470.983 100.135 469.135 98.0186C467.287 95.9018 464.767 94.8428 461.575 94.8428C458.483 94.8428 455.997 95.9018 454.115 98.0186C452.267 100.135 451.343 102.89 451.343 106.284V139.8H439.096V85.3682H449.831V91.2695C451.389 89.3148 453.304 87.7164 455.577 86.4766C458.567 84.8302 461.911 84.0068 465.607 84.0068C469.672 84.0069 473.066 84.8808 475.787 86.6279C478.226 88.1445 480.11 90.162 481.443 92.6787C483.155 90.0288 485.403 87.9451 488.187 86.4268C491.143 84.814 494.436 84.0068 498.064 84.0068Z" fill="black"/>
<path d="M624.526 83.8057C628.558 83.8057 631.885 84.4774 634.506 85.8213C637.126 87.1653 639.21 88.8797 640.755 90.9629C642.301 93.046 643.443 95.2634 644.182 97.6152C644.922 99.9672 645.392 102.202 645.594 104.318C645.829 106.402 645.946 108.098 645.946 109.409V139.8H633.649V113.592C633.649 111.878 633.531 109.98 633.296 107.897C633.061 105.815 632.506 103.814 631.633 101.899C630.793 99.9508 629.516 98.3545 627.802 97.1113C626.122 95.8682 623.838 95.2461 620.948 95.2461C619.402 95.2461 617.874 95.4989 616.362 96.0029C614.85 96.5069 613.472 97.38 612.229 98.623C611.019 99.8326 610.045 101.513 609.306 103.663C608.566 105.78 608.197 108.502 608.197 111.828V139.8H595.899V85.3682H606.735V91.4121C608.125 89.7813 609.753 88.3702 611.624 87.1826C615.118 84.9314 619.419 83.8057 624.526 83.8057Z" fill="black"/>
<path d="M676.285 139.8H664.138V65.7119H676.285V139.8Z" fill="black"/>
</svg>
