<?xml version="1.0" encoding="UTF-8"?>
<svg id="Layer_1" xmlns="http://www.w3.org/2000/svg" version="1.1" viewBox="0 0 745 202">
  <!-- Generator: Adobe Illustrator 29.8.2, SVG Export Plug-In . SVG Version: 2.1.1 Build 3)  -->
  <defs>
    <style>
      .st0 {
        fill-rule: evenodd;
      }

      .st0, .st1 {
        fill: #fff;
      }
    </style>
  </defs>
  <path class="st0" d="M201.6,0H72.9C32.6,0,0,32.6,0,72.9v128.7h128.7c40.3,0,72.9-32.6,72.9-72.9V0ZM79.4,50.4h6v35.4h30.6v26.2h-30.6v11c0,15.6-12.6,28.2-28.2,28.2h-6v-72.6c0-15.6,12.6-28.2,28.2-28.2ZM116.1,112v39.2s6,0,6,0c15.6,0,28.2-12.6,28.2-28.2V50.4h-6c-15.6,0-28.2,12.6-28.2,28.2v7.2s0,26.2,0,26.2Z"/>
  <path class="st1" d="M717.4,124.3l14.8-39h12.1l-30.3,78.6h-11.4l9-24.6-22-54.1h12.7l15.2,39Z"/>
  <path class="st1" d="M383.4,111.6c0,1.7.1,3.6.4,5.7.2,2.1.8,4.1,1.6,6,.9,1.9,2.1,3.5,3.8,4.7,1.7,1.2,4,1.9,6.9,1.9s3.1-.3,4.6-.8c1.5-.5,2.9-1.4,4.1-2.6,1.2-1.2,2.2-2.9,3-5.1.7-2.2,1.1-4.9,1.1-8.2v-28h12.2v54.4h-10.7v-6.1c-1.4,1.6-3,3.1-4.9,4.3-3.5,2.2-7.8,3.3-12.9,3.3s-7.4-.7-10-2c-2.6-1.3-4.7-3.1-6.2-5.1-1.5-2.1-2.7-4.3-3.4-6.7-.7-2.4-1.2-4.6-1.5-6.7-.2-2.1-.3-3.8-.3-5.1v-30.4h12.3v26.2Z"/>
  <path class="st0" d="M555.8,83.9c4.8,0,9.1.8,12.8,2.4,3.7,1.6,6.4,4.2,8.2,7.8,1,1.9,1.6,3.9,1.8,5.9.2,2,.3,4.2.3,6.5v33.4h-10.6v-7.3c-2,2.7-4.3,4.7-6.9,6.1-3.3,1.8-7.3,2.7-12.2,2.7s-7.3-.7-10-2.2c-2.7-1.5-4.8-3.5-6.2-6-1.4-2.5-2.1-5.2-2.1-8.2s.4-5,1.3-7.1c.9-2.1,2.2-3.9,4-5.4,1.8-1.5,4.2-2.8,7.1-3.8,2.2-.7,4.7-1.3,7.7-1.9,3-.6,6.1-1.1,9.6-1.6,2.1-.3,4.2-.6,6.4-1-.2-2.9-1-5-2.5-6.5-1.7-1.8-4.6-2.7-8.7-2.7-2.5,0-4.8.6-7.1,1.7-2.3,1.1-3.9,3.1-4.8,5.9l-11.1-3.5c1.3-4.6,3.9-8.3,7.7-11.1,3.8-2.8,8.9-4.2,15.3-4.2ZM566.8,114.1c-2.1.3-4,.6-5.7.9-2.6.4-4.9.9-6.8,1.3-1.9.4-3.5.8-5,1.3-1.4.5-2.6,1.1-3.6,1.8-1,.7-1.7,1.4-2.3,2.3-.5.9-.8,1.9-.8,3.1s.3,2.5,1,3.6c.7,1,1.6,1.8,2.9,2.4,1.3.6,2.9.9,4.8.9,2.8,0,5.1-.5,7.1-1.5,1.9-1,3.5-2.2,4.6-3.6,1.2-1.4,2-2.7,2.4-4,.6-1.5,1-3.3,1.1-5.3,0-1.2,0-2.3.1-3.2Z"/>
  <path class="st1" d="M307.4,97.8h34.4v-30.5h12.1v72.6h-12.1v-30.6h-34.4v30.6h-12.1v-72.6h12.1v30.5Z"/>
  <path class="st1" d="M498.1,84c6,0,10.6,1.8,13.8,5.4,3.2,3.6,4.8,8.3,4.8,14.2v36.1h-12.1v-33.1c0-3.7-.9-6.6-2.8-8.7-1.8-2.1-4.4-3.2-7.5-3.2s-3.7.5-5.2,1.4c-1.5.9-2.8,2.2-3.7,3.9-.9,1.7-1.4,3.8-1.4,6.1v33.5h-12.1v-32.9c0-3.8-.9-6.8-2.8-8.9-1.8-2.1-4.4-3.2-7.6-3.2s-5.6,1.1-7.5,3.2c-1.8,2.1-2.8,4.9-2.8,8.3v33.5h-12.2v-54.4h10.7v5.9c1.6-2,3.5-3.6,5.7-4.8,3-1.6,6.3-2.5,10-2.5,4.1,0,7.5.9,10.2,2.6,2.4,1.5,4.3,3.5,5.7,6.1,1.7-2.6,4-4.7,6.7-6.3,3-1.6,6.2-2.4,9.9-2.4Z"/>
  <path class="st1" d="M624.5,83.8c4,0,7.4.7,10,2,2.6,1.3,4.7,3.1,6.2,5.1,1.5,2.1,2.7,4.3,3.4,6.7.7,2.4,1.2,4.6,1.4,6.7.2,2.1.4,3.8.4,5.1v30.4h-12.3v-26.2c0-1.7-.1-3.6-.4-5.7-.2-2.1-.8-4.1-1.7-6-.8-1.9-2.1-3.5-3.8-4.8-1.7-1.2-4-1.9-6.9-1.9s-3.1.3-4.6.8-2.9,1.4-4.1,2.6c-1.2,1.2-2.2,2.9-2.9,5-.7,2.1-1.1,4.8-1.1,8.2v28h-12.3v-54.4h10.8v6c1.4-1.6,3-3,4.9-4.2,3.5-2.3,7.8-3.4,12.9-3.4Z"/>
  <path class="st1" d="M676.3,139.8h-12.1v-74.1h12.1v74.1Z"/>
</svg>