<svg width="330" height="68" viewBox="0 0 330 68" fill="none" xmlns="http://www.w3.org/2000/svg">
<g clip-path="url(#clip0_468_99)">
<path d="M0.5625 0.640137V54.0001H14.8825V33.1201H20.9625V54.0001H35.2825V0.640137H20.9625V21.5201H14.8825V0.640137H0.5625Z" fill="white"/>
<path d="M52.0794 13.04H39.3594V27.92C39.5994 35.04 39.9994 38.96 40.7194 41.12C42.4794 46.88 45.1994 51.2 48.7994 54V67.12H61.1994V54C64.4794 51.36 66.7994 47.92 68.7194 42.8C69.9194 39.6 70.2394 36.56 70.5594 27.92V13.04H57.8394V28.56C57.6794 39.68 57.5994 40 54.9594 44.56C52.3194 40 52.2394 39.68 52.0794 28.56V13.04Z" fill="white"/>
<path d="M74.0703 67.12H86.7903V49.68C89.9103 53.76 90.5503 54.08 95.3503 54.16H98.0703C103.43 54.08 105.35 51.6 105.19 45.36V23.44C104.87 14.24 103.75 12.8 96.3903 12.88H93.8303C90.0703 12.8 88.5503 13.84 86.7903 17.52V13.04H74.0703V67.12ZM86.7903 27.2C86.7903 24 87.6703 22.56 89.5903 22.56C91.5903 22.56 92.4703 24 92.4703 27.2V39.84C92.4703 42.96 91.5903 44.4799 89.6703 44.4799C87.6703 44.4799 86.7903 43.04 86.7903 39.84V27.2Z" fill="white"/>
<path d="M140.495 38.64V21.84C140.815 14.88 138.735 13.2 129.855 13.04H119.855C111.375 13.04 109.615 14.48 109.375 21.28V42.96V45.36C109.375 52.56 110.975 54 119.135 54H140.495V44.32H126.575C122.815 44.16 122.095 43.6 122.095 40.8V38.64H140.495ZM122.095 30.88V27.2C122.095 24.4 123.135 22.72 124.895 22.72C126.735 22.72 127.775 24.4 127.775 27.2V30.88H122.095Z" fill="white"/>
<path d="M144.695 13.04V54H157.415V23.36C161.495 24.64 163.175 25.28 166.935 27.12L167.895 13.28C166.935 12.88 166.455 12.8 165.655 12.8C161.975 12.8 159.815 14.24 157.415 18.32V13.04H144.695Z" fill="white"/>
<path d="M204.49 23.52H189.05C189.77 25.52 190.17 27.36 190.17 29.52V42.4H187.85C184.57 42.32 184.17 41.68 184.25 36.08V17.12C184.25 12.64 184.65 12.24 189.05 12.24H194.09C198.81 12.4 202.81 12.96 204.49 13.76V0.640015H184.41C171.29 0.560016 170.09 2.08002 169.93 19.44V35.44L170.01 39.6C169.85 53.2 170.81 54.16 184.41 54H190.33C202.97 54.24 204.65 52.8 204.49 42.16V23.52Z" fill="white"/>
<path d="M221.556 13.04H208.836V41.44C208.916 47.52 209.236 48.8 211.396 51.12C213.796 53.52 215.556 54 222.196 54H226.916C233.556 54 235.236 53.52 237.716 51.12C239.876 48.8 240.196 47.6 240.276 41.44V13.04H227.556V40.08C227.556 43.2 226.676 44.48 224.436 44.48C222.436 44.48 221.556 43.12 221.556 40.08V13.04Z" fill="white"/>
<path d="M275.807 38.64V21.84C276.127 14.88 274.048 13.2 265.168 13.04H255.168C246.688 13.04 244.927 14.48 244.688 21.28V42.96V45.36C244.688 52.56 246.288 54 254.448 54H275.807V44.32H261.888C258.128 44.16 257.408 43.6 257.408 40.8V38.64H275.807ZM257.408 30.88V27.2C257.408 24.4 258.448 22.72 260.208 22.72C262.048 22.72 263.087 24.4 263.087 27.2V30.88H257.408Z" fill="white"/>
<path d="M303.925 13.0399H288.245C281.765 12.8799 279.685 14.6399 279.685 20.3999V30.0799C279.605 37.9999 280.405 39.1199 286.005 39.1199H292.245V44.3199H279.685V53.9999H295.685C301.125 53.8399 301.285 53.7599 303.205 52.0799C304.725 50.5599 305.125 49.2799 305.365 44.4799V38.8799C305.605 29.2799 304.325 27.5999 296.885 27.5199H292.405V22.7199H303.925V13.0399Z" fill="white"/>
<path d="M329.373 54.0001V44.3201H326.013C324.013 44.3201 323.293 43.5201 323.293 41.4401V24.2401H329.373V14.5601H323.293V4.88013H310.573V14.5601H307.133V24.2401H310.573V44.3201C310.413 51.4401 312.653 53.9201 319.293 54.0001H329.373Z" fill="white"/>
</g>
<defs>
<clipPath id="clip0_468_99">
<rect width="330" height="68" fill="white"/>
</clipPath>
</defs>
</svg>
