<svg width="330" height="68" viewBox="0 0 330 68" fill="none" xmlns="http://www.w3.org/2000/svg">
<path d="M0.559998 0.640015V54H14.88V33.12H20.96V54H35.28V0.640015H20.96V21.52H14.88V0.640015H0.559998Z" fill="#48B75B"/>
<path d="M52.0781 13.04H39.3581V27.92C39.5981 35.04 39.9981 38.96 40.7181 41.12C42.4781 46.88 45.1981 51.2 48.7981 54V67.12H61.1981V54C64.4781 51.36 66.7981 47.92 68.7181 42.8C69.9181 39.6 70.2381 36.56 70.5581 27.92V13.04H57.8381V28.56C57.6781 39.68 57.5981 40 54.9581 44.56C52.3181 40 52.2381 39.68 52.0781 28.56V13.04Z" fill="#48B75B"/>
<path d="M74.07 67.12H86.79V49.68C89.91 53.76 90.55 54.08 95.35 54.16H98.07C103.43 54.08 105.35 51.6 105.19 45.36V23.44C104.87 14.24 103.75 12.8 96.39 12.88H93.83C90.07 12.8 88.55 13.84 86.79 17.52V13.04H74.07V67.12ZM86.79 27.2C86.79 24 87.67 22.56 89.59 22.56C91.59 22.56 92.47 24 92.47 27.2V39.84C92.47 42.96 91.59 44.48 89.67 44.48C87.67 44.48 86.79 43.04 86.79 39.84V27.2Z" fill="#48B75B"/>
<path d="M140.497 38.64V21.84C140.817 14.88 138.737 13.2 129.857 13.04H119.857C111.377 13.04 109.617 14.48 109.377 21.28V42.96V45.36C109.377 52.56 110.977 54 119.137 54H140.497V44.32H126.577C122.817 44.16 122.097 43.6 122.097 40.8V38.64H140.497ZM122.097 30.88V27.2C122.097 24.4 123.137 22.72 124.897 22.72C126.737 22.72 127.777 24.4 127.777 27.2V30.88H122.097Z" fill="#48B75B"/>
<path d="M144.695 13.04V54H157.415V23.36C161.495 24.64 163.175 25.28 166.935 27.12L167.895 13.28C166.935 12.88 166.455 12.8 165.655 12.8C161.975 12.8 159.815 14.24 157.415 18.32V13.04H144.695Z" fill="#48B75B"/>
<path d="M204.486 23.52H189.046C189.766 25.52 190.166 27.36 190.166 29.52V42.4H187.846C184.566 42.32 184.166 41.68 184.246 36.08V17.12C184.246 12.64 184.646 12.24 189.046 12.24H194.086C198.806 12.4 202.806 12.96 204.486 13.76V0.640015H184.406C171.286 0.560016 170.086 2.08002 169.926 19.44V35.44L170.006 39.6C169.846 53.2 170.806 54.16 184.406 54H190.326C202.966 54.24 204.646 52.8 204.486 42.16V23.52Z" fill="#48B75B"/>
<path d="M221.556 13.04H208.836V41.44C208.916 47.52 209.236 48.8 211.396 51.12C213.796 53.52 215.556 54 222.196 54H226.916C233.556 54 235.236 53.52 237.716 51.12C239.876 48.8 240.196 47.6 240.276 41.44V13.04H227.556V40.08C227.556 43.2 226.676 44.48 224.436 44.48C222.436 44.48 221.556 43.12 221.556 40.08V13.04Z" fill="#48B75B"/>
<path d="M275.809 38.64V21.84C276.129 14.88 274.049 13.2 265.169 13.04H255.169C246.689 13.04 244.929 14.48 244.689 21.28V42.96V45.36C244.689 52.56 246.289 54 254.449 54H275.809V44.32H261.889C258.129 44.16 257.409 43.6 257.409 40.8V38.64H275.809ZM257.409 30.88V27.2C257.409 24.4 258.449 22.72 260.209 22.72C262.049 22.72 263.089 24.4 263.089 27.2V30.88H257.409Z" fill="#48B75B"/>
<path d="M303.922 13.04H288.242C281.762 12.88 279.682 14.64 279.682 20.4V30.08C279.602 38 280.402 39.12 286.002 39.12H292.242V44.32H279.682V54H295.682C301.122 53.84 301.282 53.76 303.202 52.08C304.722 50.56 305.122 49.28 305.362 44.48V38.88C305.602 29.28 304.322 27.6 296.882 27.52H292.402V22.72H303.922V13.04Z" fill="#48B75B"/>
<path d="M329.371 54V44.32H326.011C324.011 44.32 323.291 43.52 323.291 41.44V24.24H329.371V14.56H323.291V4.88002H310.571V14.56H307.131V24.24H310.571V44.32C310.411 51.44 312.651 53.92 319.291 54H329.371Z" fill="#48B75B"/>
</svg>
