<svg width="579" height="221" viewBox="0 0 579 221" fill="none" xmlns="http://www.w3.org/2000/svg">
<g clip-path="url(#clip0_705_39)">
<path d="M257.273 56.7399H268.823V128.45H257.273V145.27H300.343V128.45H288.953V56.7399H300.343V39.9099H257.273V56.7399ZM396.223 129.62C405.263 119.59 409.843 106.31 409.843 92.8799C409.843 78.2699 405.103 64.1099 394.903 53.7799C384.243 43.0099 372.853 39.8999 358.053 39.8999H307.873V56.7299H319.423V128.44H307.873V145.26H357.753C373.283 145.26 385.723 141.42 396.233 129.62H396.223ZM381.123 117.82C374.173 125.78 365.433 127.11 355.373 127.11H339.543V57.7699H355.673C365.443 57.7699 373.283 58.7999 380.543 66.1799C387.063 73.1099 389.723 83.4399 389.723 92.8899C389.713 101.45 386.893 111.19 381.123 117.83V117.82ZM455.203 37.5799C434.183 37.5799 415.683 55.2799 415.683 76.2399C415.683 95.4199 429.893 113.28 450.173 113.28C453.573 113.28 456.533 112.25 459.493 110.77L433.143 145.73H457.563L485.833 103.23C491.603 94.5199 494.553 87.8899 494.553 77.2599C494.553 66.6299 490.563 56.0099 482.423 48.3399C475.163 41.6999 465.103 37.5699 455.183 37.5699L455.203 37.5799ZM455.203 96.2999C443.953 96.2999 435.223 87.2999 435.223 76.2299C435.223 65.16 444.403 56.8999 455.203 56.8999C466.003 56.8999 475.043 65.61 475.043 76.2299C475.033 87.29 466.453 96.2999 455.203 96.2999ZM578.123 107.37V77.8599C578.123 65.6099 575.893 56.9099 566.723 48.3499C559.463 41.5599 549.853 37.5799 539.783 37.5799C529.133 37.5799 518.923 42.1499 511.513 49.8299C503.383 58.2399 501.743 66.4999 501.743 77.8699V107.38C501.743 119.63 503.813 128.33 512.993 136.88C520.243 143.67 529.873 147.81 539.783 147.81C550.583 147.81 560.653 143.09 568.203 135.41C576.353 126.99 578.133 118.73 578.133 107.37H578.123ZM558.293 107.67C558.293 112.68 558.153 117.25 555.473 121.69C552.213 127.15 546.153 129.8 539.933 129.8C533.713 129.8 528.393 127.58 524.993 122.71C521.733 117.99 521.593 113.13 521.593 107.66V77.8499C521.593 72.8399 521.593 68.2699 524.413 63.8299C527.673 58.3699 533.733 55.5799 539.943 55.5799C545.723 55.5799 551.493 57.9399 554.743 62.8099C558.153 67.5399 558.293 72.3899 558.293 77.8599V107.66H558.303L558.293 107.67ZM287.193 165.41H259.093C258.393 165.41 257.893 165.98 257.893 166.61V173.49C257.893 174.12 258.393 174.69 259.093 174.69H268.143V208.38C268.143 209.01 268.713 209.58 269.343 209.58H276.933C277.563 209.58 278.133 209.01 278.133 208.38V174.69H287.183C287.883 174.69 288.383 174.12 288.383 173.49V166.61C288.393 165.98 287.883 165.41 287.193 165.41ZM347.593 179.03C347.593 171.53 341.393 165.41 333.793 165.41H314.873C314.173 165.41 313.673 165.98 313.673 166.61V208.36C313.673 208.99 314.173 209.56 314.873 209.56H322.393C323.023 209.56 323.593 208.99 323.593 208.36V192.28H327.953L336.363 209C336.483 209.26 336.863 209.57 337.373 209.57H345.783C346.853 209.57 347.293 208.56 346.853 207.74L338.183 191.72C343.713 189.51 347.573 184.84 347.573 179.04L347.593 179.03ZM332.983 184.27H323.613V174.43H332.983C335.573 174.43 337.793 176.58 337.793 179.22C337.793 181.86 335.583 184.27 332.983 184.27ZM391.933 165.48C391.743 165.1 391.303 164.78 390.853 164.78H390.223C389.773 164.78 389.333 165.09 389.143 165.48L369.333 207.93C368.953 208.75 369.453 209.57 370.413 209.57H377.373C378.643 209.57 379.333 208.82 379.653 208.06L381.933 203.01H399.143L401.423 207.99C401.993 209.19 402.503 209.56 403.633 209.56H410.653C411.603 209.56 412.113 208.74 411.733 207.92L391.913 165.47L391.933 165.48ZM385.743 194.43L390.483 184.03H390.553L395.363 194.43H385.753H385.743ZM471.513 165.41H463.103C462.603 165.41 462.153 165.79 462.023 166.1L451.583 189.13H451.203L440.763 166.1C440.633 165.79 440.193 165.41 439.683 165.41H431.273C430.323 165.41 429.813 166.23 430.193 167.05L449.933 209.5C450.123 209.88 450.503 210.2 451.013 210.2H451.643C452.143 210.2 452.523 209.89 452.713 209.5L472.573 167.05C472.963 166.23 472.463 165.41 471.503 165.41H471.513ZM524.163 165.41H497.973C497.273 165.41 496.773 165.98 496.773 166.61V208.36C496.773 208.99 497.273 209.56 497.973 209.56H524.163C524.863 209.56 525.363 208.99 525.363 208.36V201.48C525.363 200.85 524.863 200.28 524.163 200.28H506.643V191.76H521.063C521.693 191.76 522.263 191.26 522.263 190.56V183.68C522.263 183.05 521.693 182.48 521.063 182.48H506.643V174.67H524.163C524.863 174.67 525.363 174.1 525.363 173.47V166.59C525.363 165.96 524.853 165.39 524.163 165.39V165.41ZM577.803 200.29H562.753V166.6C562.753 165.97 562.183 165.4 561.553 165.4H554.023C553.333 165.4 552.823 165.97 552.823 166.6V208.35C552.823 208.98 553.323 209.55 554.023 209.55H577.813C578.513 209.55 579.013 208.98 579.013 208.35V201.47C579.013 200.85 578.503 200.28 577.813 200.28L577.803 200.29Z" fill="white"/>
<path d="M110.48 171.02C121.36 185.01 141.75 201.29 178.93 205.94C185.94 201.84 192.44 196.97 198.35 191.41C174.02 187.23 152.55 182.99 134.46 178.8C125.94 176.83 117.91 174.23 110.48 171.02ZM73.16 132.59C84.2 147.85 103.28 163.71 136.19 171.35C156.54 176.06 177.17 180.09 204.84 184.76C208.1 181.12 211.1 177.31 213.8 173.36C167.18 162.85 128.16 152.66 97.78 143.02C88.95 140.23 80.71 136.73 73.16 132.59ZM32.95 78.41C41.4 97.97 59.85 122.96 100.1 135.72C130.4 145.33 171.16 155.95 218.1 166.47C219.81 163.49 221.38 160.46 222.76 157.43C183.75 143.62 114.53 118.44 61.94 95.5C51.16 90.79 41.44 85.06 32.94 78.41H32.95ZM0 0C0.51 12.46 4.41 39.2 26.55 62.34C36.73 72.99 49.68 81.78 65.03 88.47C117.56 111.39 186.84 136.58 225.69 150.32C228.73 142.11 230.74 133.53 231.68 124.75C156.71 96.05 91.06 58.84 48.99 32.56C25.63 17.96 8.51 6.08 0 0Z" fill="white"/>
<path d="M97.22 164.11C80.12 153.96 67.28 140.21 58.99 123.19C39.33 108.25 29.14 90.16 23.85 75.36C19.3 87.4 17 100.08 17 113.17C17 172.46 65.38 220.69 124.85 220.69C139.64 220.69 154.24 217.65 167.69 211.83C124.63 203.34 105.29 179.16 97.22 164.11ZM124.86 5.66003C100.53 5.66003 76.97 13.87 57.95 28.89C99.41 54.54 161.76 89.43 232.63 116.8C232.67 115.54 232.71 114.34 232.71 113.18C232.71 53.89 184.32 5.66003 124.86 5.66003Z" fill="white"/>
</g>
<defs>
<clipPath id="clip0_705_39">
<rect width="579" height="221" fill="white"/>
</clipPath>
</defs>
</svg>
