<?xml version="1.0" encoding="UTF-8"?><svg id="b" xmlns="http://www.w3.org/2000/svg" viewBox="0 0 1614.2433 553.3059"><g id="c"><g id="d"><path d="M746.0046,553.3059c3.1236-9.4121,8.7931-17.3276,8.8721-26.7255l.4872-58.0031.1004-91.5877c.0057-5.2335-.3219-10.6562-1.9747-15.3096l-6.9847-19.666,26.0296-.3804,21.1977.3637.1569,21.635c6.3868-7.6923,11.5705-15.0263,20.2163-19.8389,17.5367-9.7616,39.9579-7.3502,55.35,5.5831,10.2838,8.6411,16.798,19.9059,20.4693,32.8291,8.7175,30.6857,6.0732,70.4497-15.0416,95.1931-10.5423,12.004-24.6164,19.0354-40.5574,19.4563-14.0886.3719-27.5405-3.1012-37.9058-12.7781l.3719,41.9845c.0835,9.4219,5.486,17.5999,8.469,27.217l-59.2561.0274ZM850.1886,444.262c2.6507-22.406,3.2098-53.4477-6.8773-72.939-5.7967-11.201-18.4887-17.1588-30.5604-13.2497-7.3268,2.3726-12.6558,7.9821-16.4086,14.6325v100.2197c8.3213,10.6338,22.44,14.5331,34.7493,8.7346,12.7136-5.9889,17.4136-23.1688,19.097-37.3981Z" fill="#186af6"/><path d="M1150.3339,221.0204c-21.1752,10.3748-46.0045,4.067-60.7181-13.6678-18.2523-22-21.6798-56.3773-15.9149-83.9323,2.7223-13.0123,7.907-24.411,15.8459-34.6856,19.4429-25.163,55.3447-30.3469,80.583-10.3378l.0438-34.1481c.0074-5.7604-1.0252-11.3596-2.5835-16.7762l-6.4145-16.4487,50.2649-.0974.337,8.6576.0551,171.9304c.001,3.0666.5883,6.9856,1.4939,9.5386l7.4453,20.9918-47.8902.0124-.235-21.1253c-6.711,8.2854-12.7413,15.399-22.3125,20.0885ZM1155.1121,206.1245c6.7411-3.158,11.5012-7.7109,15.0372-13.8782l-.0062-102.2336c-4.6421-5.2472-10.1756-9.6902-16.9884-11.1039-20.2941-4.2113-31.5853,12.5727-35.3749,31.9532-4.8193,24.6462-6.0171,64.2109,7.7236,84.5966,6.4529,9.5736,18.1958,14.0707,29.6087,10.666Z" fill="#040403"/><path d="M949.5325,113.8304l.0434,77.5153c.0038,6.7866,2.271,13.3121,4.4799,19.4438l4.0528,11.2502-58.5042.0168,6.776-19.1267c1.5716-4.4362,1.7617-9.7312,1.7591-14.6905l-.0469-88.1969c-.0027-5.1281-1.4388-10.3914-3.1037-14.8963l-5.5566-15.0354,48.7217.0103.1739,29.6343c6.4658-13.926,15.3873-26.1425,30.3167-31.1607,13.2113-4.4407,28.0115-2.6899,40.3381,3.559,14.2178,7.2076,22.3081,26.5352,22.4245,41.9792l.5521,73.2505c.0565,7.4904,1.0976,14.044,3.8212,20.813l5.5719,13.8478-59.9885.0059,5.9207-15.698c2.2367-5.9305,3.3821-12.3414,3.3769-18.9657l-.0548-70.1808c-.0061-7.7651-.9284-15.3376-4.7765-21.7656-4.1157-6.8749-11.3259-9.8088-18.7729-9.9345-15.2238-.257-22.571,14.0593-27.5247,28.3253Z" fill="#040403"/><path d="M217.127,435.6014c.0995-7.2502-1.325-13.6471-4.0082-19.7476l-7.8517-17.7107,53.4678-.0137-.0467,49.0552c-.0066,6.9702,1.1439,13.5819,3.2918,20.0447l3.5867,11.773-14.211,6.844c-21.8835,7.8832-44.4424,11.4784-67.9026,11.0706-20.7488-.3607-40.3234-7.6126-55.7665-21.4747-42.4789-38.1301-41.8782-118.1562-2.1171-155.5308,15.0097-14.1088,33.7618-22.1878,54.4504-23.4619,23.4288-1.4429,45.8209,2.0319,67.8836,9.0795l.3353,20.2543-.5062,11.3484-42.7234-27.1645c-5.7132-3.6326-11.1978-5.3832-18.1622-5.4237-22.427-.1305-32.6044,16.6202-37.7637,37.1573-4.5301,18.0325-5.294,36.1922-5.3364,54.916-.0544,23.9886,1.0157,51.3356,11.984,72.2994,13.9885,22.5198,37.2228,21.7958,61.3629,14.4624l.0331-47.7769Z" fill="#186af6"/><path d="M712.9834,466.8903c.0222,9.5662,5.9272,17.1508,8.0371,25.9478l-47.9309-.0248-.4352-29.745c-6.8754,16.2743-17.9206,28.9004-34.885,32.8049-11.7574,2.7061-24.3503.4799-34.8534-5.0568-17.0623-8.9943-22.8557-28.9112-22.8399-47.8368l.0404-48.5476-.8401-29.7873-8.603-22.5991,50.2802-.3373.0652,110.4755c.0036,6.0912,2.0946,12.3598,4.7642,17.4035,3.3886,6.4021,10.5291,9.1375,16.8245,9.5355,7.1882.4545,13.07-3.0706,17.9516-8.508,5.0711-6.126,8.4626-13.1168,10.649-21.0074l-.4071-82.4475c-.044-8.9091-5.8516-17.0088-7.7828-25.1945l18.6261-.3099,31.0493.2699.2898,124.9648Z" fill="#186af6"/><path d="M745.796,160.7476l-8.5469,24.8333c-2.3605,6.8584-1.4839,14.0979,2.5663,20.012l8.485,16.4838-35.1011-.1204,58.393-163.0376c1.5487-4.324,1.8039-8.2256,1.5565-12.472l-6.089-17.8782,44.6491-.0625,73.1274,193.5134-65.2729.0375,6.2397-17.4533c1.3924-4.7376,1.5951-9.7736-.1175-14.5433l-10.5273-29.3194-69.3624.0066ZM811.6208,151.4748l-32.0169-86.9077-30.3984,87.0392,62.4154-.1315Z" fill="#090808"/><path d="M389.8465,178.9744c-10.6801,29.4824-37.7372,46.8839-68.2895,47.0925-29.5159.2016-55.3677-15.5621-67.2767-42.6963-15.1786-34.5842-8.2645-80.1982,23.1125-103.4234,14.6186-10.8206,32.0467-14.7276,50.1566-13.4343,27.6718,1.9763,50.8374,18.3815,61.4019,44.2356,8.8289,21.6066,9.0174,45.8043.8951,68.2258ZM335.1423,212.7093c10.2049-7.7799,13.9792-24.3873,15.4195-37.361,2.2189-19.9871,2.3456-39.7317-.1766-59.6304-2.5057-19.768-9.4045-41.2513-30.024-40.9384-18.4671.2802-25.7545,20.7543-28.1945,38.7819-3.5467,26.2044-4.0304,67.531,7.6656,90.3904,6.6967,13.0885,23.2184,17.9758,35.31,8.7576Z" fill="#040403"/><path d="M545.8666,384.8657c13.8662,36.841,2.7893,86.3602-34.1188,104.3077-20.5374,9.9868-44.604,10.4332-65.6702,1.4934-15.6271-6.6317-27.3777-18.6565-34.6118-34.0781-19.5677-41.7141-5.5498-98.4134,39.3571-114.1851,19.3485-6.7954,40.7596-6.0488,59.5157,2.6302,16.978,7.8562,29.0156,22.5289,35.5281,39.8319ZM506.5905,448.7718c2.9775-24.5432,3.2525-56.6656-3.8705-79.8584-2.318-7.5475-6.1626-14.5499-12.6768-18.9962-11.7992-8.0538-27.1058-3.3649-33.9211,9.083-4.6489,8.4911-7.0705,17.7112-8.2833,27.6238-2.6197,21.4104-2.6046,42.8077.3694,64.1381,1.2437,8.92,3.7361,17.1462,7.7303,24.8489,4.5035,8.6849,12.7027,13.2652,22.0347,13.056,19.2811-.4322,26.3522-21.2233,28.6174-39.8952Z" fill="#186af6"/><path d="M124.3818,167.115c3.3123,5.9798,2.1637,12.7408-.2663,18.4471-3.01,7.0682-3.7207,14.7463.3351,21.5656,5.8001,9.7522,20.037,11.5916,31.4358,8.4514,6.4267-1.7705,11.3166-6.8532,13.2658-13.3659,2.398-8.0121,4.028-16.3325,4.0229-25.1675l-.0686-119.8276c-.0045-7.8157-4.6801-14.8805-7.4695-21.4673l-3.0462-7.1932,64.0068-.0121-4.4478,10.8416c-2.4068,5.8667-4.9045,12.0755-4.9175,18.7356l-.1917,98.3723c-.0481,24.6651-10.5975,50.249-32.8123,61.6533-14.6122,7.5014-31.2267,9.5775-47.1534,6.3872-24.4256-4.8927-40.7357-26.9146-37.4604-51.4796.7298-5.4739,5.1256-10.1415,9.2041-11.1457,6.0062-1.479,12.5394-.2546,15.5633,5.2048Z" fill="#040403"/><path d="M1438.6023,213.5165c21.1465.7046,32.245-12.8496,40.4455-31.4942l6.4758,3.1767c-10.5657,22.8777-24.0561,37.6394-50.0713,40.3138-14.4038,1.4807-28.4593-.1984-41.1579-7.4045-14.4217-8.1839-25.0265-21.1549-30.792-36.8318-12.9359-35.1739-6.3502-80.1772,24.308-103.0259,14.1077-10.514,31.4703-13.6983,48.7156-11.1734,37.9549,4.8143,50.2423,38.661,50.5505,73.9702l-88.3337-.0036c-.1058,19.6834,1.6875,40.3738,11.5724,56.7144,6.5279,9.9011,16.5814,15.3682,28.2871,15.7583ZM1431.3698,131.5883c10.8044-.8249,17.1918-9.6667,17.1282-19.5364-.0979-15.2041-2.7035-33.9838-17.7946-37.2102-26.8777-5.7463-31.4059,34.7213-32.0257,59.2425l32.692-2.4959Z" fill="#090808"/><path d="M622.4028,213.4962c21.9073,1.1534,32.241-12.4803,41.5845-31.5592l6.1369,3.4158c-10.3001,21.7889-23.2893,36.9684-48.5132,39.9876-15.3442,1.8367-30.4052.0161-43.8685-7.817-38.5622-22.4359-45.8252-82.2843-23.0064-119.9823,13.6683-22.5809,38.0759-34.1905,64.2523-30.7326,39.2294,3.9454,52.4925,37.7842,52.5531,74.2429l-88.1862-.0129c-.1741,18.9618,1.7644,41.6472,12.2369,57.7459,6.2889,9.1715,15.8318,14.1338,26.8104,14.7118ZM615.9753,131.6142c10.2248-.7683,16.8252-9.0985,17.0984-18.5591.4182-14.4816-2.3694-33.4367-15.84-37.6435-6.8822-2.1493-13.6347-1.4367-18.7781,3.1799-12.3682,11.1016-14.6712,37.6714-15.1418,55.4771l32.6615-2.4543Z" fill="#090808"/><path d="M1560.9926,225.7309c-19.6517,1.0237-37.96-1.8925-56.1003-7.3239l.0531-30.686,42.3028,28.6779c14.1418,3.2449,34.7524.3964,39.1283-12.4389,3.9439-11.568-1.4898-22.7836-11.3061-29.4426-25.3484-17.1953-72.438-21.8147-69.9337-64.227,1.7204-29.1366,24.533-43.1565,52.7178-43.9684,16.5366-.4948,32.8008,2.6494,48.6262,7.4407l-.2017,29.2623-39.5637-27.4172c-15.6821-2.9139-33.5459.2274-34.9777,16.6494-.6805,7.8055,2.164,14.7312,8.5685,19.5926,24.9274,18.9215,75.2812,23.0835,73.9097,66.1414-.9622,30.2084-23.1711,46.4552-53.2233,47.7397Z" fill="#090808"/><path d="M498.5304,218.7858c-23.1942,11.7261-58.8885,7.423-84.7521-.4609l.0238-30.6794,41.6596,27.8974c5.7469,3.8484,30.757,3.6665,38.3008-8.5051,5.7715-9.3121,2.7265-21.6517-5.2161-28.8125-18.2873-16.4871-55.4758-20.4584-69.3397-44.664-5.6426-9.8518-6.1436-21.1868-3.6383-32.216,3.1648-13.9326,13.0542-24.7087,26.3847-30.1107,12.4245-5.0348,25.5925-5.5178,39.0965-4.5227,11.9453,1.2384,23.1884,3.7603,34.6523,6.9653l-.1653,29.4404-40.1369-27.7234c-8.2614-1.5695-16.7012-.8945-24.423,2.1341-6.8044,2.6687-9.8249,8.7021-10.1564,15.6356-.3828,8.0063,2.495,14.3615,9.1388,19.2322,25.4989,18.694,75.4716,22.9275,73.2712,66.506-.8645,17.1222-9.0762,31.9849-24.6999,39.8836Z" fill="#090808"/><path d="M1246.8274,222.0504c2.4232-9.1585,7.8209-17.109,7.8956-26.3504l.4543-56.2386-.5783-44.1186c-.1139-8.6852-5.1167-16.1237-7.9134-25.1967l48.3738-.0184.2152,20.4162.25,18.6147c6.0572-13.1819,12.1861-25.0018,23.1267-34.0522,10.6346-8.7973,25.8924-11.977,32.9735-3.1595,3.0089,3.7468,3.4357,8.3709,2.7456,12.9901-.8813,5.8984-5.5373,9.8659-11.6999,8.2853l-12.8164-3.2871c-18.3943-4.7177-27.541,17.9185-32.9518,34.3676l-.1627,68.2635c-.0142,5.9542,1.989,11.6803,3.9381,17.0635l4.4951,12.4148-58.3452.0058Z" fill="#040403"/><path d="M300.1806,469.2448l.6322-21.1803.0364-41.1345.0745-12.8834-.0773-12.8929c-.2999-6.0956.7922-12.7036-1.1881-18.4276l-7.1774-20.7468,31.5712-.325,16.4952.2704.0923,40.3637c8.3393-20.2409,23.2073-45.1194,46.6298-43.6471,8.3768.4508,13.2096,6.9885,12.6189,15.1969-.2247,3.1224-.8226,6.2744-2.8465,8.2528-1.849,1.8075-5.8439,2.7802-8.5849,2.0896l-12.3613-3.1141c-19.6636-4.9537-28.2051,18.1408-34.2469,35.6039l.3722,69.3435c.0509,9.4866,5.4961,17.6355,8.0473,26.8212l-57.6341-.0163c2.572-7.9189,6.3413-15.1439,7.5462-23.574Z" fill="#186af6"/><path d="M962.7008,410.0456l-30.5135-62.4582c-3.5065-7.1774-6.3331-14.8695-5.7988-22.6175.8676-12.5808,8.7109-22.0219,20.2365-26.1375,20.0263-7.1512,45.3426-1.0551,51.6914,20.3806,1.9199,8.3605.3866,16.3209-2.9506,24.2529l-32.665,66.5797Z" fill="#186af6"/><path d="M72.5694,198.5102c-2.0678,22.3717-25.1294,30.0375-46.9969,26.0298-9.5771-1.7552-17.4888-7.2653-21.5604-14.6804-4.9495-9.014-5.3892-19.5919-.9311-28.8498l33.4469-69.4572,32.1946,66.2529c3.1708,6.5252,4.5032,13.6029,3.8468,20.7046Z" fill="#186af6"/><path d="M56.8671,92.1119c-10.9783,7.0706-24.6735,7.8189-36.1229,2.5262C7.5009,88.5162-.1714,75.0667.0424,61.017c.2084-13.7011,8.2834-27.1882,21.4507-32.8561,11.0091-4.739,23.544-4.0868,33.8274,1.9284,10.9312,6.3941,17.1801,18.1716,17.5993,30.1507.4319,12.3425-5.0212,24.7671-16.0527,31.8719ZM55.1746,59.9461c-1.0093-9.6258-8.0531-15.807-16.6669-16.9542-7.9288-1.0559-16.1506,3.8914-19.4268,11.8914-4.6603,11.3798,2.9673,23.3244,14.9244,25.0622,11.1468,1.62,22.4669-7.6236,21.1693-19.9994Z" fill="#186af6"/><path d="M996.4446,474.5119c-8.5169,21.0576-33.86,28.2895-53.0588,16.844-12.0083-7.1588-18.3613-20.728-16.9733-34.6712,1.3168-13.2271,9.8828-25.6628,23.0286-30.5211,14.0729-5.2009,29.2991-1.9662,39.3947,8.4005,10.0261,10.2954,13.438,25.5356,7.6089,39.9479ZM981.565,461.3473c.3805-9.7744-6.2308-17.0115-14.2851-19.1894-8.3706-2.2634-16.8553,2.0221-20.8718,8.9803-4.4335,7.6805-2.7699,17.3494,3.9853,23.103,5.6078,4.7763,13.465,5.9779,20.3323,2.8751,5.3887-2.4347,10.5546-8.4544,10.8393-15.769Z" fill="#186af6"/><path d="M1454.9394,32.7344l-51.9658,20.6173,33.224-45.8548c5.7701-7.9638,15.797-9.9982,24.0455-4.0857,4.7845,3.4296,6.3761,9.8507,5.5181,16.055-.6877,4.9725-4.5494,10.7796-10.8219,13.2682Z" fill="#090808"/><path d="M638.9672,33.19l-51.4552,20.1897,32.8396-45.4042c3.6491-4.4539,7.8702-7.7172,12.9801-7.8871,5.6648-.1883,11.3693,1.7674,14.5334,6.7236,6.251,9.7916,1.8783,21.071-8.8979,26.3779Z" fill="#090808"/></g></g></svg>