<svg width="156" height="38" viewBox="0 0 156 38" fill="none" xmlns="http://www.w3.org/2000/svg">
<path d="M46.905 10.1323L48.2278 9.13386C48.2881 9.08841 48.2881 8.99573 48.2274 8.95073C44.8015 6.3982 40.7372 5.04477 36.4425 5.04477C34.5424 5.04477 32.6994 5.32059 30.9509 5.83172C30.4645 5.9739 29.9394 5.83172 29.5808 5.47357L24.1077 0L18.6058 5.50146C18.2481 5.85917 17.7253 6.0009 17.2393 5.86052C15.5124 5.36243 13.6951 5.09291 11.8215 5.09291C7.52863 5.09291 3.46924 6.44634 0.0456132 8.99528C-0.0151292 9.04027 -0.0151292 9.13296 0.0451633 9.1784L1.3671 10.1759C1.40534 10.2047 1.45754 10.2052 1.49668 10.1777C4.5284 8.03689 8.07531 6.89629 11.8215 6.89629C12.9221 6.89629 14.0015 6.99933 15.0512 7.1946C15.7158 7.31789 15.9732 8.13318 15.4953 8.61147L14.1977 9.90911C13.8197 10.2866 13.4692 10.6857 13.1466 11.1033C12.8713 11.4596 12.4402 11.6594 11.9898 11.6468C11.934 11.6454 11.8778 11.6445 11.8215 11.6445C9.65731 11.6445 7.52863 12.1804 5.62987 13.1897C5.55652 13.2288 5.54888 13.3323 5.61502 13.3827L7.02514 14.4468C7.05709 14.4711 7.09938 14.4756 7.13583 14.4589C7.84449 14.1399 8.5842 13.8934 9.3428 13.7242C10.3786 13.4934 11.2515 14.4846 10.9779 15.51C10.838 16.0342 10.7322 16.5692 10.6629 17.1123C10.6575 17.1564 10.6778 17.2 10.7147 17.2238L12.2076 18.1921C12.2791 18.2385 12.3714 18.1903 12.3759 18.1053C12.4416 16.9296 12.7003 15.7876 13.1336 14.7172C13.4004 14.058 14.1082 13.6693 14.7943 13.8547C15.8724 14.1453 16.8875 14.5899 17.8143 15.1645C18.3957 15.5249 18.6269 16.2493 18.3507 16.8751C17.6636 18.431 17.1727 20.0922 16.9091 21.8299C16.9028 21.8713 16.9199 21.9136 16.9536 21.9388L18.4069 23.0353C18.4758 23.0875 18.5734 23.0439 18.5819 22.9579C18.7372 21.443 19.0814 19.9852 19.5912 18.6074C19.8517 17.9028 20.7912 17.7935 21.2177 18.4121C22.4839 20.2461 23.2308 22.4639 23.2308 24.8567C23.2308 29.8304 20.9455 34.1296 17.301 35.672C17.2654 35.6868 17.2416 35.7282 17.2416 35.7755V37.4245C17.2416 37.5001 17.3005 37.5559 17.3576 37.5352C19.8404 36.6196 21.8854 34.616 23.206 31.9879C23.5939 31.2162 24.6724 31.2162 25.0602 31.9879C26.3808 34.6151 28.4245 36.6187 30.9064 37.5343C30.9635 37.5555 31.0224 37.4997 31.0224 37.4241V35.775C31.0224 35.7278 30.9986 35.6864 30.963 35.6715C27.3194 34.1291 25.0346 29.8304 25.0346 24.8571C25.0346 24.8405 25.0314 24.8247 25.0314 24.8081H25.0332C25.0332 22.4315 25.7698 20.2277 27.0206 18.4009C27.4449 17.7813 28.384 17.8871 28.6472 18.5899C29.1619 19.9631 29.512 21.4164 29.6735 22.9269C29.6825 23.0124 29.7797 23.0556 29.8485 23.0038L31.2983 21.9096C31.332 21.8839 31.3491 21.8416 31.3428 21.8002C31.0719 20.0652 30.5734 18.4063 29.8796 16.8535C29.6006 16.2295 29.8283 15.5033 30.4083 15.1406C31.3221 14.5687 32.3228 14.1237 33.3851 13.8286C34.0492 13.6441 34.7813 13.9942 35.0449 14.6308C35.4989 15.726 35.7693 16.899 35.8368 18.1062C35.8418 18.1912 35.934 18.2394 36.0051 18.193L37.4985 17.2243C37.5354 17.2005 37.5556 17.1568 37.5502 17.1132C37.4755 16.5287 37.3586 15.9541 37.2024 15.3921C36.9212 14.3807 37.7986 13.4335 38.8249 13.654C39.6204 13.8245 40.3957 14.0796 41.1372 14.4139C41.1736 14.4306 41.2159 14.4256 41.2479 14.4018L42.6575 13.3377C42.7237 13.2877 42.716 13.1838 42.6431 13.1451C40.7435 12.1332 38.6085 11.5964 36.4416 11.5964C36.3516 11.5964 36.2616 11.5982 36.172 11.6013C35.7293 11.6175 35.3059 11.4155 35.0341 11.0659C34.7205 10.6623 34.3813 10.2758 34.0155 9.91001L32.6832 8.57773C32.2062 8.10079 32.4623 7.28819 33.125 7.1622C34.2017 6.95703 35.3104 6.84904 36.4416 6.84904C40.19 6.84904 43.7406 7.991 46.7745 10.135C46.8137 10.1624 46.8659 10.162 46.9041 10.1332L46.905 10.1323ZM24.1077 2.70236L26.9896 5.58425C27.6389 6.23352 27.5039 7.32823 26.707 7.78358C26.0848 8.13903 25.4832 8.52778 24.9041 8.94668C24.4249 9.29359 23.7747 9.29494 23.2938 8.94983C22.7169 8.53633 22.1181 8.15253 21.4985 7.80158C20.6976 7.34758 20.5599 6.25017 21.211 5.5991L24.1082 2.70191L24.1077 2.70236ZM14.7547 12.1359C14.9801 11.8596 15.2186 11.5915 15.4733 11.3363L17.795 9.01462C18.2175 8.59213 18.86 8.48729 19.4013 8.74151C20.0596 9.05062 20.6971 9.39888 21.3104 9.78313C22.0569 10.2511 22.2085 11.2607 21.6254 11.9213C21.224 12.3757 20.8429 12.8486 20.4843 13.339C20.0488 13.9339 19.238 14.0724 18.6067 13.6918C17.4296 12.9822 16.1347 12.4504 14.7556 12.1363L14.7547 12.1359ZM24.1239 20.2223C23.5745 18.8157 22.797 17.5231 21.8296 16.3969C21.4094 15.9078 21.3693 15.1969 21.741 14.6695C22.154 14.0837 22.6008 13.524 23.0791 12.9926C23.6236 12.3874 24.5891 12.3856 25.1358 12.989C25.6159 13.5186 26.065 14.0769 26.4803 14.661C26.8537 15.1865 26.8168 15.8965 26.3993 16.3874C25.4377 17.5177 24.6679 18.8139 24.1244 20.2218L24.1239 20.2223ZM32.7412 11.3363C32.9873 11.5825 33.2186 11.8398 33.4373 12.1057C32.0672 12.4261 30.7808 12.9602 29.6114 13.6711C28.9815 14.054 28.1702 13.919 27.732 13.326C27.3707 12.8364 26.9873 12.3645 26.5833 11.9109C25.997 11.2526 26.1451 10.2416 26.8902 9.77143C27.5003 9.38628 28.1347 9.03667 28.7903 8.72576C29.332 8.46884 29.9768 8.57323 30.4006 8.99708L32.7399 11.3368L32.7412 11.3363Z" fill="black"/>
<path d="M77.5232 21.8737C77.4314 27.1291 74.3299 30.1014 69.3248 30.0146C64.3196 29.9268 61.3243 26.8478 61.4161 21.5925C61.5079 16.3376 64.6094 13.3648 69.6145 13.4526C74.6197 13.5399 77.615 16.6188 77.5232 21.8737ZM63.3495 21.6262C63.2843 25.3572 65.5623 27.8319 69.3617 27.898C73.138 27.9642 75.5237 25.5709 75.5889 21.8395C75.6541 18.1086 73.3531 15.6334 69.5767 15.5678C65.7779 15.5016 63.4148 17.8949 63.3495 21.6262Z" fill="black"/>
<path d="M93.7073 22.6909C93.6214 27.6047 91.2569 30.0897 86.9343 30.0142C82.9302 29.944 80.2819 27.827 80.3773 22.3674L80.4497 18.2265C80.4771 16.6567 80.4321 15.3361 80.1172 13.8058L80.1212 13.5786L82.851 13.6263L82.847 13.8535C82.501 15.4175 82.4101 16.7134 82.3827 18.3057L82.3107 22.4236C82.2535 25.6996 83.5116 27.9291 86.9698 27.9894C90.3143 28.0479 91.7167 25.9332 91.7757 22.5433L91.8468 18.4709C91.8747 16.8781 91.8288 15.5804 91.5377 14.0052L91.5417 13.7779L94.2715 13.8256L94.2675 14.0529C93.8999 15.5485 93.8085 16.8668 93.7815 18.4133L93.7068 22.6904L93.7073 22.6909Z" fill="black"/>
<path d="M98.6019 22.9264L98.56 25.3147C98.5344 26.7707 98.5821 28.3572 98.8754 29.7966H96.1641H96.1681C96.5114 28.3914 96.6005 26.7374 96.6262 25.2814L96.7508 18.1377C96.7773 16.6133 96.7337 15.2247 96.4408 13.7404L96.4444 13.5356L102.246 13.6373C105.317 13.6909 108.018 15.3989 107.965 18.4252C107.925 20.7001 106.375 22.1521 104.317 22.7307L105.732 25.0763C106.614 26.7077 107.616 28.2272 108.885 29.7966H106.083L102.332 22.9912L98.6019 22.9264ZM98.6338 21.1064L101.887 21.1631C103.57 21.1923 105.946 20.6875 105.986 18.3896C106.025 16.1831 103.667 15.6414 101.984 15.6117L98.8444 15.5568C98.7386 16.4198 98.7008 17.2612 98.6851 18.171L98.6338 21.1064Z" fill="black"/>
<path d="M110.961 29.8656H110.965C111.309 28.4379 111.401 26.5968 111.427 25.1178L111.549 18.0883C111.575 16.6094 111.531 15.2433 111.26 13.8053L111.264 13.5776L113.698 13.6204L122.424 25.5655C122.656 25.8831 123.159 25.7239 123.166 25.3306L123.29 18.2026C123.316 16.7466 123.25 15.3122 122.977 14.01L122.981 13.7828L125.688 13.8296L125.684 14.0573C125.342 15.3936 125.248 16.8487 125.222 18.3277L125.021 29.8665H123.11L114.229 17.6546C113.997 17.3365 113.494 17.4957 113.487 17.8894L113.36 25.1529C113.334 26.6314 113.379 28.428 113.672 29.867H110.961V29.8656Z" fill="black"/>
<path d="M128.048 29.8652L128.052 29.4584C128.351 27.9385 128.469 26.4163 128.496 24.869L128.618 17.8625C128.642 16.5203 128.551 15.1988 128.278 13.8737L128.282 13.6465L138.406 13.8229L138.846 15.9925L138.842 16.2202C137.708 15.9727 136.527 15.8836 135.321 15.8625L130.589 15.7797L130.503 20.6935L136.489 20.6386L136.453 22.6634L130.474 22.3313L130.381 27.6321L134.658 27.7068C136.137 27.7324 137.527 27.6199 139.009 27.4413L139.005 27.6685L138.33 29.8638H128.047L128.048 29.8652Z" fill="black"/>
<path d="M151.352 16.5368C151.842 15.7943 152.202 14.7536 152.219 13.7754L155.654 13.8357L155.65 14.063C154.654 15.0695 153.885 16.103 153.23 17.1154L149.95 22.0198C149.223 23.1059 148.825 24.3788 148.802 25.6855C148.778 27.0735 148.918 28.3059 149.122 29.6747L149.118 29.8654H146.411L146.415 29.6274C146.666 28.2668 146.845 27.0398 146.868 25.6522C146.891 24.3451 146.538 23.0591 145.849 21.9478L142.742 16.9323C142.123 15.8969 141.414 14.8382 140.453 13.7975L140.457 13.5698L143.87 13.6297C143.852 14.6308 144.131 15.5685 144.64 16.4193L147.578 21.2058C147.735 21.4618 148.105 21.4681 148.27 21.2171L151.352 16.5368H151.352Z" fill="black"/>
<path d="M56.3349 13.7261L56.3309 13.9533C56.5757 15.5731 56.6602 17.259 56.6314 18.8973L56.5514 23.4926C56.5005 26.3816 55.7226 27.9384 52.9244 27.8894C51.4913 27.8647 50.042 27.4296 49.4103 27.1227V27.1245C49.4103 27.1245 49.4076 27.1232 49.4062 27.1227V29.2743C50.3093 29.6995 52.0002 29.9668 53.0926 29.9861C56.7097 30.0491 58.4083 27.9168 58.4843 23.5717L58.5644 18.9765C58.5936 17.3157 58.7367 15.6343 59.0382 14.0005L59.0422 13.7733L56.3349 13.7261Z" fill="black"/>
</svg>
