<?xml version="1.0" encoding="UTF-8"?>
<svg id="Layer_1" xmlns="http://www.w3.org/2000/svg" version="1.1" viewBox="0 0 213 31">
  <!-- Generator: Adobe Illustrator 29.8.2, SVG Export Plug-In . SVG Version: 2.1.1 Build 3)  -->
  <defs>
    <style>
      .st0 {
        fill: #fff;
      }
    </style>
  </defs>
  <path class="st0" d="M41.9.8c4.1,0,6.9,1.5,8.9,4.2h.1c0,.1,0,.2,0,.2V1.6h7.5v27.9h-7.5v-3.6h0c-2,2.7-4.7,4.3-8.6,4.4h-.2s-.2,0-.2,0c-7,0-12.6-6.1-12.6-14.7S34.9.8,41.9.8ZM98.4.8c4.1,0,6.9,1.5,8.9,4.2h.1c0,.1,0,.2,0,.2V1.6h7.5v27.9h-7.5v-3.6h0c-2,2.7-4.7,4.3-8.6,4.4h-.2s-.2,0-.2,0c-7,0-12.6-6.1-12.6-14.7S91.4.8,98.4.8ZM166.6.8c8.5,0,14.5,5.9,14.5,14.7s-6,14.7-14.5,14.7-14.5-5.9-14.5-14.7,6-14.7,14.5-14.7ZM181.9,1.6h8.9l6.4,9.4h.1l6.4-9.4h8.9l-9.7,13.8,9.8,14.1h-9l-6.3-9.5h-.1l-6.3,9.5h-9l9.8-14.1-9.7-13.8ZM7.9,1.6v9.5L18.6,1.6h11.3l-13.2,11.3,12.7,16.6h-9.4l-8.8-11.9-3.3,2.8v9H.3V1.6h7.6ZM76.1,1.6h7.4v6.3h-7.4v13.9c0,.8.3,1.2,1,1.2h0s0,0,0,0h5.6v6.3h-8c-3.8,0-6.3-2.5-6.4-6.4h0V7.9h-6.7V1.6h14.4ZM137.1,1.1c6.4,0,10.8,4.7,10.9,11.5v.2s0,16.6,0,16.6h-7.6V13.2c0-3.8-1.8-5.7-5.4-5.7s-6.2,2.7-6.2,7.4v.2s0,14.4,0,14.4h-7.6V1.6h7.5v3.9h0c1.4-2.7,4-4.2,8.1-4.3h.2s.2,0,.2,0ZM44,7.5c-4.2,0-7,3.1-7,8s2.8,8,7,8,7-3.1,7-8-2.8-8-7-8ZM100.5,7.5c-4.2,0-7,3.1-7,8s2.8,8,7,8,7-3.1,7-8-2.8-8-7-8ZM166.6,7.6c-4.2,0-6.9,3-6.9,7.9s2.7,7.9,6.9,7.9,6.9-3,6.9-7.9-2.7-7.9-6.9-7.9Z"/>
</svg>