<svg width="213" height="31" viewBox="0 0 213 31" fill="none" xmlns="http://www.w3.org/2000/svg">
<path d="M41.9149 0.789062C45.9769 0.789062 48.8119 2.27905 50.8389 4.96405L50.9409 5.10107L50.9879 5.16605V1.55405H58.4919V29.442H50.9879V25.83L50.9409 25.8961C48.9759 28.5731 46.2369 30.1031 42.3279 30.2021L42.1209 30.2061L41.9149 30.2081C34.8799 30.2081 29.3599 24.115 29.3599 15.498C29.3599 6.88105 34.8799 0.789062 41.9149 0.789062ZM98.4419 0.789062C102.503 0.789062 105.339 2.27905 107.365 4.96405L107.467 5.10107L107.515 5.16605V1.55405H115.019V29.442H107.515V25.83L107.467 25.8961C105.503 28.5731 102.763 30.1031 98.8539 30.2021L98.6469 30.2061L98.4419 30.2081C91.4059 30.2081 85.8859 24.115 85.8859 15.498C85.8859 6.88105 91.4059 0.789062 98.4419 0.789062ZM166.597 0.789062C175.1 0.789062 181.109 6.67205 181.109 15.498C181.109 24.325 175.1 30.2081 166.597 30.2081C158.094 30.2081 152.085 24.325 152.085 15.498C152.085 6.67205 158.094 0.789062 166.597 0.789062ZM181.948 1.55405H190.823L197.182 10.9041H197.321L203.679 1.55405H212.555L202.828 15.3891L212.662 29.442H203.623L197.32 19.9841H197.184L190.88 29.442H181.841L191.675 15.3891L181.948 1.55405ZM7.94894 1.55405V11.0361L18.6159 1.55405H29.9059L16.7319 12.8741L29.4289 29.442H20.0359L11.2539 17.5891L7.94894 20.4321V29.442H0.335938V1.55405H7.94894ZM76.1039 1.55405H83.4949V7.90106H76.1039V21.8401C76.1039 22.6521 76.4199 23.0411 77.0909 23.0901L77.1639 23.0941L77.243 23.0961H82.8429V29.442H74.8519C71.0819 29.442 68.551 26.9081 68.493 23.0701L68.4919 22.9341V7.90106H61.7529V1.55405H68.4919H76.1039ZM137.084 1.11707C143.506 1.11707 147.867 5.80905 147.954 12.666L147.955 12.8741V29.442H140.343V13.2021C140.343 9.37506 138.507 7.46405 134.965 7.46405C131.055 7.46405 128.769 10.1661 128.719 14.9011L128.718 15.0611V29.442H121.105V1.55405H128.609V5.45206L128.621 5.42905C130.033 2.78805 132.621 1.21707 136.686 1.12207L136.884 1.11807L137.084 1.11707ZM43.9799 7.46405C39.7899 7.46405 36.9719 10.532 36.9719 15.498C36.9719 20.465 39.7899 23.5331 43.9799 23.5331C48.1709 23.5331 50.9879 20.465 50.9879 15.498C50.9879 10.532 48.1709 7.46405 43.9799 7.46405ZM100.507 7.46405C96.3159 7.46405 93.4989 10.532 93.4989 15.498C93.4989 20.465 96.3159 23.5331 100.507 23.5331C104.697 23.5331 107.515 20.465 107.515 15.498C107.515 10.532 104.697 7.46405 100.507 7.46405ZM166.597 7.57306C162.446 7.57306 159.698 10.6 159.698 15.498C159.698 20.397 162.446 23.4241 166.597 23.4241C170.748 23.4241 173.497 20.397 173.497 15.498C173.497 10.6 170.748 7.57306 166.597 7.57306Z" fill="#2F2A57"/>
</svg>
