<svg version="1.1" id="Layer_1" xmlns:x="ns_extend;" xmlns:i="ns_ai;" xmlns:graph="ns_graphs;" xmlns="http://www.w3.org/2000/svg" xmlns:xlink="http://www.w3.org/1999/xlink" x="0px" y="0px" viewBox="0 0 319.5 50" style="enable-background:new 0 0 319.5 50;" xml:space="preserve">
 <style type="text/css">
  .st0{fill:#272A40;}
	.st1{fill:#04FE72;}
 </style>
 <metadata>
  <sfw xmlns="ns_sfw;">
   <slices>
   </slices>
   <sliceSourceBounds bottomLeftOrigin="true" height="50" width="319.5" x="-172.5" y="0">
   </sliceSourceBounds>
  </sfw>
 </metadata>
 <g>
  <path class="st0" d="M59.9,0.3h-8v48.8h27.7v-7.6H59.9V0.3z">
  </path>
  <path class="st0" d="M98.1,13.7c-2.4-0.1-4.9,0.3-7.1,1.2c-2.3,0.9-4.3,2.3-6,4c-1.7,1.7-3,3.7-3.9,5.9c-0.9,2.2-1.3,4.6-1.2,7
		c-0.1,2.4,0.4,4.8,1.2,7c0.9,2.2,2.2,4.3,3.9,6c3.5,3.4,8,5.1,13.6,5.1c6.7,0,11.8-2.5,15.2-7.5l-6.2-3.6c-1,1.4-2.3,2.5-3.9,3.3
		c-1.6,0.7-3.3,1.1-5,1c-5.7,0-10-2.9-11.1-8.1h27.5c0.2-1,0.3-2.1,0.3-3.1c0.1-4.8-1.7-9.4-4.9-12.9c-1.6-1.7-3.5-3.1-5.6-4
		C102.8,14.1,100.4,13.7,98.1,13.7z M87.6,29c0.4-2.5,1.7-4.7,3.6-6.2c1.9-1.6,4.4-2.4,6.9-2.2c4.9,0,8.9,2.9,9.9,8.5H87.6z">
  </path>
  <path class="st0" d="M138,13.7c-4.9,0-8.4,1.8-10.7,5.3v-4.4h-7.5v34.5h7.5V30.6c0-6.7,3.5-9.9,8.8-9.9c4.8,0,7.8,2.8,7.8,8v20.4
		h7.5V27.9C151.3,19.1,146,13.7,138,13.7z">
  </path>
  <path class="st0" d="M184.6,19.5c-2.8-3.9-6.9-5.8-12.1-5.8c-2.3,0-4.6,0.4-6.7,1.3c-2.1,0.9-4,2.2-5.5,3.9c-1.7,1.7-3,3.7-3.8,5.9
		c-0.9,2.2-1.3,4.6-1.2,7c-0.1,2.4,0.4,4.7,1.2,6.9c0.9,2.2,2.2,4.2,3.8,5.9c1.5,1.7,3.4,3,5.5,3.9c2.1,0.9,4.4,1.4,6.7,1.3
		c5.3,0,9.3-1.9,12.1-5.9v5h7.5v-49h-7.5V19.5z M181.5,39.8c-2.1,2-4.9,3.1-7.8,3.1c-2.9,0-5.7-1.1-7.8-3.1c-1-1-1.8-2.3-2.4-3.6
		c-0.5-1.4-0.8-2.8-0.8-4.3c0-1.5,0.2-2.9,0.7-4.2c0.5-1.4,1.3-2.6,2.4-3.6c2.1-2,4.9-3.2,7.8-3.2c2.9,0,5.7,1.1,7.8,3.2
		c1,1,1.8,2.3,2.4,3.6c0.5,1.4,0.8,2.8,0.7,4.2c0,1.5-0.2,2.9-0.8,4.3C183.3,37.5,182.5,38.7,181.5,39.8z">
  </path>
  <path class="st0" d="M250.3,13.7c-2.4,0-4.8,0.4-7,1.3c-2.2,0.9-4.2,2.2-5.9,3.9c-1.7,1.7-3,3.7-4,5.9c-0.9,2.2-1.4,4.6-1.4,7
		c0,2.4,0.4,4.8,1.4,7c0.9,2.2,2.3,4.2,4,5.9c1.7,1.7,3.7,3,5.9,3.9c2.2,0.9,4.6,1.4,7,1.3c2.4,0.1,4.8-0.4,7-1.3
		c2.2-0.9,4.2-2.2,5.9-4c1.7-1.7,3.1-3.7,4-5.9c0.9-2.2,1.4-4.6,1.3-7c0-2.4-0.4-4.8-1.3-7c-0.9-2.2-2.3-4.2-4-5.9
		c-1.7-1.7-3.7-3.1-5.9-4C255.1,14.1,252.7,13.7,250.3,13.7z M258,39.7c-2.1,2-4.8,3.1-7.7,3.1c-2.9,0-5.6-1.1-7.7-3.1
		c-1-1-1.8-2.2-2.4-3.5c-0.5-1.3-0.8-2.8-0.8-4.2c0-1.4,0.2-2.9,0.8-4.2c0.5-1.3,1.3-2.5,2.4-3.5c2.1-2,4.8-3.1,7.7-3.1
		c2.9,0,5.6,1.1,7.7,3.1c1,1,1.8,2.2,2.4,3.6s0.8,2.8,0.7,4.2c0,1.4-0.2,2.8-0.8,4.2C259.8,37.5,259,38.7,258,39.7z">
  </path>
  <path class="st0" d="M311.6,14.6l-6.8,23.8l-7.2-23.8h-7.1l-7.3,23.8l-6.7-23.8h-7.9l10.9,34.5h7.3l7.3-23.2l7.2,23.2h7.3
		l10.9-34.5H311.6z">
  </path>
  <path class="st1" d="M18.6,34.7c1,0,2-0.4,2.7-1.1c0.7-0.7,1.1-1.7,1.1-2.7v-19c0-1-0.4-2-1.1-2.7c-0.7-0.7-1.7-1.1-2.7-1.1
		c-1,0-2,0.4-2.7,1.1c-0.7,0.7-1.1,1.7-1.1,2.7v19c0,1,0.4,2,1.1,2.7C16.6,34.3,17.6,34.7,18.6,34.7z">
  </path>
  <path class="st1" d="M33.3,0.3c-1,0-2,0.4-2.7,1.1c-0.7,0.7-1.1,1.7-1.1,2.7v26.5c0,2.9-1.2,5.7-3.2,7.7c-2,2-4.8,3.2-7.7,3.2
		s-5.7-1.1-7.7-3.2c-2-2-3.2-4.8-3.2-7.7V20.6c0-1-0.4-2-1.1-2.7c-0.7-0.7-1.7-1.1-2.7-1.1c-1,0-2,0.4-2.7,1.1
		C0.4,18.6,0,19.6,0,20.6v10c0,4.9,2,9.6,5.4,13.1c3.5,3.5,8.2,5.4,13.1,5.4c4.9,0,9.7-1.9,13.1-5.4c3.5-3.5,5.4-8.2,5.4-13.1V4.1
		c0-1-0.4-2-1.1-2.7C35.3,0.7,34.4,0.3,33.3,0.3z">
  </path>
  <path class="st0" d="M227.5,0.1L227.5,0.1L215,0c-9.4,0.5-13.9,5.1-13.9,13.9v0.7h-5.3v7.2h5.3v27.3h7.5V21.8h6.4v-7.2h-6.4V14
		c0-4.6,2.3-7.1,7.1-7.4c1.1,0,4.4,0,4.4,0v42.5h7.4V8.6V0.1z">
  </path>
 </g>
</svg>