<?xml version="1.0" encoding="UTF-8"?>
<svg id="Layer_1" xmlns="http://www.w3.org/2000/svg" version="1.1" viewBox="0 0 320 50">
  <!-- Generator: Adobe Illustrator 30.4.0, SVG Export Plug-In . SVG Version: 2.1.4 Build 226)  -->
  <defs>
    <style>
      .st0 {
        fill: #fff;
      }
    </style>
  </defs>
  <path class="st0" d="M59.9.3h-8v48.8h27.7v-7.6h-19.7V.3Z"/>
  <path class="st0" d="M98.1,13.7c-2.4,0-4.9.3-7.1,1.2-2.3.9-4.3,2.3-6,4-1.7,1.7-3,3.7-3.9,5.9-.9,2.2-1.3,4.6-1.2,7,0,2.4.4,4.8,1.2,7,.9,2.2,2.2,4.3,3.9,6,3.5,3.4,8,5.1,13.6,5.1s11.8-2.5,15.2-7.5l-6.2-3.6c-1,1.4-2.3,2.5-3.9,3.3-1.6.7-3.3,1.1-5,1-5.7,0-10-2.9-11.1-8.1h27.5c.2-1,.3-2.1.3-3.1,0-4.8-1.7-9.4-4.9-12.9-1.6-1.7-3.5-3.1-5.6-4-2.1-.9-4.5-1.3-6.8-1.3ZM87.6,29c.4-2.5,1.7-4.7,3.6-6.2,1.9-1.6,4.4-2.4,6.9-2.2,4.9,0,8.9,2.9,9.9,8.5h-20.4Z"/>
  <path class="st0" d="M138,13.7c-4.9,0-8.4,1.8-10.7,5.3v-4.4h-7.5v34.5h7.5v-18.5c0-6.7,3.5-9.9,8.8-9.9s7.8,2.8,7.8,8v20.4h7.5v-21.2c-.1-8.8-5.4-14.2-13.4-14.2Z"/>
  <path class="st0" d="M184.6,19.5c-2.8-3.9-6.9-5.8-12.1-5.8s-4.6.4-6.7,1.3c-2.1.9-4,2.2-5.5,3.9-1.7,1.7-3,3.7-3.8,5.9-.9,2.2-1.3,4.6-1.2,7-.1,2.4.4,4.7,1.2,6.9.9,2.2,2.2,4.2,3.8,5.9,1.5,1.7,3.4,3,5.5,3.9,2.1.9,4.4,1.4,6.7,1.3,5.3,0,9.3-1.9,12.1-5.9v5h7.5V-.1h-7.5v19.6ZM181.5,39.8c-2.1,2-4.9,3.1-7.8,3.1s-5.7-1.1-7.8-3.1c-1-1-1.8-2.3-2.4-3.6-.5-1.4-.8-2.8-.8-4.3s.2-2.9.7-4.2c.5-1.4,1.3-2.6,2.4-3.6,2.1-2,4.9-3.2,7.8-3.2s5.7,1.1,7.8,3.2c1,1,1.8,2.3,2.4,3.6.5,1.4.8,2.8.7,4.2,0,1.5-.2,2.9-.8,4.3-.4,1.3-1.2,2.5-2.2,3.6Z"/>
  <path class="st0" d="M250.3,13.7c-2.4,0-4.8.4-7,1.3s-4.2,2.2-5.9,3.9c-1.7,1.7-3,3.7-4,5.9-.9,2.2-1.4,4.6-1.4,7s.4,4.8,1.4,7c.9,2.2,2.3,4.2,4,5.9,1.7,1.7,3.7,3,5.9,3.9,2.2.9,4.6,1.4,7,1.3,2.4,0,4.8-.4,7-1.3,2.2-.9,4.2-2.2,5.9-4,1.7-1.7,3.1-3.7,4-5.9.9-2.2,1.4-4.6,1.3-7,0-2.4-.4-4.8-1.3-7-.9-2.2-2.3-4.2-4-5.9-1.7-1.7-3.7-3.1-5.9-4-2.2-.7-4.6-1.1-7-1.1ZM258,39.7c-2.1,2-4.8,3.1-7.7,3.1s-5.6-1.1-7.7-3.1c-1-1-1.8-2.2-2.4-3.5-.5-1.3-.8-2.8-.8-4.2s.2-2.9.8-4.2c.5-1.3,1.3-2.5,2.4-3.5,2.1-2,4.8-3.1,7.7-3.1s5.6,1.1,7.7,3.1c1,1,1.8,2.2,2.4,3.6s.8,2.8.7,4.2c0,1.4-.2,2.8-.8,4.2-.5,1.2-1.3,2.4-2.3,3.4Z"/>
  <path class="st0" d="M311.6,14.6l-6.8,23.8-7.2-23.8h-7.1l-7.3,23.8-6.7-23.8h-7.9l10.9,34.5h7.3l7.3-23.2,7.2,23.2h7.3l10.9-34.5h-7.9Z"/>
  <path class="st0" d="M18.6,34.7c1,0,2-.4,2.7-1.1.7-.7,1.1-1.7,1.1-2.7V11.9c0-1-.4-2-1.1-2.7-.7-.7-1.7-1.1-2.7-1.1s-2,.4-2.7,1.1c-.7.7-1.1,1.7-1.1,2.7v19c0,1,.4,2,1.1,2.7.7.7,1.7,1.1,2.7,1.1Z"/>
  <path class="st0" d="M33.3.3c-1,0-2,.4-2.7,1.1-.7.7-1.1,1.7-1.1,2.7v26.5c0,2.9-1.2,5.7-3.2,7.7s-4.8,3.2-7.7,3.2-5.7-1.1-7.7-3.2c-2-2-3.2-4.8-3.2-7.7v-10c0-1-.4-2-1.1-2.7-.7-.7-1.7-1.1-2.7-1.1s-2,.4-2.7,1.1c-.8.7-1.2,1.7-1.2,2.7v10c0,4.9,2,9.6,5.4,13.1,3.5,3.5,8.2,5.4,13.1,5.4s9.7-1.9,13.1-5.4c3.5-3.5,5.4-8.2,5.4-13.1V4.1c0-1-.4-2-1.1-2.7-.6-.7-1.5-1.1-2.6-1.1Z"/>
  <path class="st0" d="M227.5.1h-12.5c-9.4.4-13.9,5-13.9,13.8v.7h-5.3v7.2h5.3v27.3h7.5v-27.3h6.4v-7.2h-6.4v-.6c0-4.6,2.3-7.1,7.1-7.4h4.4v42.5h7.4V.1Z"/>
</svg>