<svg width="95" height="25" viewBox="0 0 95 25" fill="none" xmlns="http://www.w3.org/2000/svg">
<path d="M88.3146 18.6904C84.5162 18.6904 82 16.074 82 11.9518C82 7.80494 84.492 5.18848 88.2904 5.18848C91.1937 5.18848 93.3228 6.62013 94.097 9.80431L91.7502 10.4214C91.3147 8.49608 90.1534 7.45937 88.2904 7.45937C85.9436 7.45937 84.4678 9.0638 84.4678 11.9518C84.4678 14.8151 85.9436 16.4195 88.2904 16.4195C90.2744 16.4195 91.4599 15.3088 91.8228 13.26L94.1938 13.8771C93.589 16.9626 91.5325 18.6904 88.3146 18.6904Z" fill="black"/>
<path d="M78.4799 18.4189L78.4745 5.18777H80.9423L80.9478 18.4189H78.4799ZM78.4688 3.78361V1.40576H80.9347V3.78361H78.4688Z" fill="black"/>
<path d="M69.6842 24.1559C66.532 24.1559 64.7422 22.5797 64.7422 20.4255C64.7422 19.3221 65.1696 18.3764 66.0779 17.6671C64.6087 17.0366 63.9141 15.8807 63.9141 14.5934C63.9141 13.3587 64.582 12.3867 65.5971 11.7562C65.2231 11.152 65.0094 10.4163 65.0094 9.60196C65.0094 6.92235 67.1732 5.18848 70.4322 5.18848C71.7144 5.18848 72.8631 5.45119 73.7447 5.95033C74.2351 6.2058 74.3813 6.38389 74.3813 6.38389L74.727 6.70163C74.727 6.70163 74.869 6.80484 75.0536 7.07997C75.5879 7.76301 75.8817 8.62994 75.8817 9.60196C75.8817 12.2553 73.6912 13.9629 70.4322 13.9629C69.0164 13.9629 67.7876 13.6214 66.8526 13.0434C66.4519 13.3324 66.2115 13.7528 66.2115 14.2782C66.2115 15.3027 67.0396 15.9332 68.776 15.9332H72.9165C76.3359 15.9332 77.8051 17.6671 77.8051 20.0052C77.8051 22.7636 75.3742 24.1559 72.596 24.1559H69.6842ZM70.4322 11.8087C72.222 11.8087 73.344 11.0206 73.344 9.60196C73.344 8.15707 72.222 7.34268 70.4322 7.34268C68.6424 7.34268 67.5204 8.15707 67.5204 9.57569C67.5204 10.9681 68.6424 11.8087 70.4322 11.8087ZM67.1732 19.9526C67.1732 21.1611 68.1081 21.8967 69.7376 21.8967H72.7028C74.4392 21.8967 75.2673 21.056 75.2673 20.0052C75.2673 18.7442 74.3323 18.14 72.8364 18.14H68.8027L68.1883 18.1137C67.4136 18.5866 67.1732 19.2433 67.1732 19.9526Z" fill="black"/>
<path d="M66.0738 17.7426C65.5657 18.0141 63.4383 18.5423 62.8093 18.5423C61.3576 18.5423 60.3173 17.8265 60.0754 16.3455C59.1318 17.9746 57.7285 18.6904 56.0107 18.6904C53.7849 18.6904 52.43 17.3328 52.43 15.3581C52.43 13.4328 53.4945 12.0752 56.5188 11.2607L60.027 10.298V10.1746C60.027 8.37266 59.1318 7.38532 57.3172 7.38532C55.8414 7.38532 54.7526 8.15051 54.2204 9.60684L51.9219 8.98975C52.9381 6.34861 54.8978 5.18848 57.4624 5.18848C60.5592 5.18848 62.4464 7.18785 62.4464 10.0511V15.3828C62.4464 16.148 62.8093 16.4936 63.4625 16.4936C63.898 16.4936 65.7592 15.9654 66.0738 15.8173V17.7426ZM54.8252 15.1853C54.8252 16.1233 55.4785 16.7157 56.5672 16.7157C57.8737 16.7157 59.0592 15.9259 60.027 13.9512V12.2727L56.9785 13.1119C55.4301 13.5316 54.8252 14.198 54.8252 15.1853Z" fill="black"/>
<path d="M32.9453 18.4189V5.18848H35.4131V7.48405C35.9454 6.22519 37.2519 5.18848 39.1148 5.18848C40.9778 5.18848 42.2359 6.10178 42.7681 7.82962C43.4939 6.22519 44.873 5.18848 46.8086 5.18848C49.3006 5.18848 50.8732 6.86697 50.8732 10.1005V18.4189H48.4054V10.5201C48.4054 8.34798 47.6553 7.38532 46.0343 7.38532C44.5343 7.38532 43.131 8.57013 43.131 11.1619V18.4189H40.6633V10.5448C40.6633 8.39735 39.9132 7.38532 38.2922 7.38532C36.7922 7.38532 35.4131 8.64418 35.4131 11.236V18.4189H32.9453Z" fill="black"/>
<path fill-rule="evenodd" clip-rule="evenodd" d="M24.7944 19.5188C24.7944 22.4324 22.4324 24.7944 19.5188 24.7944H5.27558C2.36196 24.7944 0 22.4324 0 19.5188V5.27559C0 2.36196 2.36196 0 5.27559 0H19.5188C22.4324 0 24.7944 2.36196 24.7944 5.27559V19.5188ZM12.3784 5.90936C11.7623 6.88552 10.9413 7.78075 9.97248 8.57749C8.0315 10.1737 5.42854 11.4462 2.43493 12.3048V12.4312C5.45857 13.3182 8.08208 14.6268 10.0212 16.2627C10.9542 17.0501 11.7452 17.9295 12.3403 18.8855C12.9442 17.928 13.7473 17.0493 14.6914 16.2644C16.6546 14.6324 19.3072 13.3361 22.3603 12.4692V12.3866C19.3443 11.5109 16.7243 10.2176 14.7777 8.59959C13.8098 7.79499 12.9903 6.89255 12.3784 5.90936Z" fill="#1C1A38"/>
</svg>
