<svg width="675" height="125" viewBox="0 0 675 125" fill="none" xmlns="http://www.w3.org/2000/svg">
<path d="M329.998 35.5999C321.398 35.5999 315.798 40.3 312.998 46.4C309.898 39.6 303.898 35.5999 296.498 35.5999C289.098 35.5999 283.098 40.2 280.598 46V37.0999H275.798C272.098 37.0999 269.198 40.1 269.198 43.7V88H281.398V61C281.398 51.5 286.098 45.4 292.798 45.4C299.498 45.4 302.798 50.6 302.798 59.4V88H314.998V61C314.998 51.5 319.698 45.4 326.498 45.4C333.298 45.4 336.398 50.6 336.398 59.4V88H348.598V57C348.598 43.7 340.898 35.5 329.998 35.5V35.5999ZM386.198 35.5999C371.398 35.5999 358.998 47.0999 358.998 62.5999C358.998 78.0999 371.398 89.7 386.198 89.7C400.998 89.7 413.498 77.9999 413.498 62.5999C413.498 47.1999 401.198 35.5999 386.198 35.5999ZM386.198 79C377.598 79 370.798 72.3999 370.798 62.5999C370.798 52.7999 377.598 46.2999 386.198 46.2999C394.798 46.2999 401.598 52.6999 401.598 62.5999C401.598 72.4999 395.098 79 386.198 79ZM452.398 35.5999C447.698 35.5999 443.598 36.8 440.398 38.9V49.0999C442.898 47.1999 446.098 46.2 449.898 46.2C459.298 46.2 465.298 52.5 465.298 62.5C465.298 72.5 459.298 78.6 449.998 78.6C440.698 78.6 434.698 71.9999 434.698 62.0999V11.7H429.298C425.998 11.7 423.298 14.4 423.298 17.7V61.2C423.298 78.4 433.798 89.7 449.898 89.7C465.998 89.7 477.098 78.1 477.098 62.4C477.098 46.7 466.498 35.5999 452.398 35.5999ZM486.898 37.2H499.098V88.1H486.898V37.2ZM493.098 13.4C488.498 13.4 485.398 15.9 485.398 20.9C485.398 25.9 488.598 28.1 493.098 28.1C497.598 28.1 500.798 25.5 500.798 20.9C500.798 16.3 497.698 13.4 493.098 13.4ZM527.098 75.9V11.7H514.898V77.3C514.898 84.6 519.298 89.7 526.698 89.7C534.098 89.7 531.198 89.1 532.498 88.2V78.7C531.898 79.1 531.198 79.2 530.198 79.2C528.398 79.2 527.098 78.2 527.098 75.8V75.9ZM552.498 13.4C547.898 13.4 544.798 15.9 544.798 20.9C544.798 25.9 547.998 28.1 552.498 28.1C556.998 28.1 560.198 25.5 560.198 20.9C560.198 16.3 557.098 13.4 552.498 13.4ZM546.298 37.2H558.498V88.1H546.298V37.2ZM650.898 37.2L637.898 75.3L624.698 37.2H611.698L632.598 90.8C630.398 96.8 627.098 99.2 622.298 99.2C617.498 99.2 617.098 98.4 615.498 97.4V107.9C616.998 109 619.898 110.1 623.798 110.1C632.098 110.1 637.898 105.6 641.498 96.4L662.798 37.2H650.998H650.898ZM587.598 37.2V21.4H575.598V37.2H568.598V47.9H575.598V69.5999C575.598 82.1999 582.398 89.8 593.698 89.8C604.998 89.8 599.898 89.2 601.598 88.3V77.4C600.398 77.9 597.998 78.4 595.798 78.4C590.098 78.4 587.498 75.1999 587.498 69.5999V47.9H601.598V37.2H587.498H587.598ZM236.498 16.9L220.498 61.5L204.398 16.9H182.898L210.898 88.1L201.898 113.3H222.498L258.098 16.9H236.498Z" fill="#36903F"/>
<path d="M151.197 16.9L122.497 88.1H143.997L160.097 43.3L176.197 88.1H197.697L168.997 16.9H151.197ZM12.2969 88.1L41.0969 16.9H58.8969L76.7969 61.4L94.7969 16.9H112.597L125.097 48L114.697 74L103.697 43.3L87.5969 88.1H65.9969L49.9969 43.3L33.8969 88.1H12.2969Z" fill="#36903F"/>
</svg>
