<?xml version="1.0" encoding="UTF-8"?>
<svg id="Layer_1" xmlns="http://www.w3.org/2000/svg" version="1.1" viewBox="0 0 675 125">
  <!-- Generator: Adobe Illustrator 30.4.0, SVG Export Plug-In . SVG Version: 2.1.4 Build 226)  -->
  <defs>
    <style>
      .st0 {
        fill: #fff;
      }
    </style>
  </defs>
  <path class="st0" d="M330,35.6c-8.6,0-14.2,4.7-17,10.8-3.1-6.8-9.1-10.8-16.5-10.8s-13.4,4.6-15.9,10.4v-8.9h-4.8c-3.7,0-6.6,3-6.6,6.6v44.3h12.2v-27c0-9.5,4.7-15.6,11.4-15.6s10,5.2,10,14v28.6h12.2v-27c0-9.5,4.7-15.6,11.5-15.6s9.9,5.2,9.9,14v28.6h12.2v-31c0-13.3-7.7-21.5-18.6-21.5h0ZM386.2,35.6c-14.8,0-27.2,11.5-27.2,27s12.4,27.1,27.2,27.1,27.3-11.7,27.3-27.1-12.3-27-27.3-27ZM386.2,79c-8.6,0-15.4-6.6-15.4-16.4s6.8-16.3,15.4-16.3,15.4,6.4,15.4,16.3-6.5,16.4-15.4,16.4ZM452.4,35.6c-4.7,0-8.8,1.2-12,3.3v10.2c2.5-1.9,5.7-2.9,9.5-2.9,9.4,0,15.4,6.3,15.4,16.3s-6,16.1-15.3,16.1-15.3-6.6-15.3-16.5V11.7h-5.4c-3.3,0-6,2.7-6,6v43.5c0,17.2,10.5,28.5,26.6,28.5s27.2-11.6,27.2-27.3-10.6-26.8-24.7-26.8ZM486.9,37.2h12.2v50.9h-12.2v-50.9ZM493.1,13.4c-4.6,0-7.7,2.5-7.7,7.5s3.2,7.2,7.7,7.2,7.7-2.6,7.7-7.2-3.1-7.5-7.7-7.5ZM527.1,75.9V11.7h-12.2v65.6c0,7.3,4.4,12.4,11.8,12.4s4.5-.6,5.8-1.5v-9.5c-.6.4-1.3.5-2.3.5-1.8,0-3.1-1-3.1-3.4h0ZM552.5,13.4c-4.6,0-7.7,2.5-7.7,7.5s3.2,7.2,7.7,7.2,7.7-2.6,7.7-7.2-3.1-7.5-7.7-7.5ZM546.3,37.2h12.2v50.9h-12.2v-50.9ZM650.9,37.2l-13,38.1-13.2-38.1h-13l20.9,53.6c-2.2,6-5.5,8.4-10.3,8.4s-5.2-.8-6.8-1.8v10.5c1.5,1.1,4.4,2.2,8.3,2.2,8.3,0,14.1-4.5,17.7-13.7l21.3-59.2h-11.9ZM587.6,37.2v-15.8h-12v15.8h-7v10.7h7v21.7c0,12.6,6.8,20.2,18.1,20.2s6.2-.6,7.9-1.5v-10.9c-1.2.5-3.6,1-5.8,1-5.7,0-8.3-3.2-8.3-8.8v-21.7h14.1v-10.7h-14.1.1ZM236.5,16.9l-16,44.6-16.1-44.6h-21.5l28,71.2-9,25.2h20.6l35.6-96.4h-21.6Z"/>
  <path class="st0" d="M151.2,16.9l-28.7,71.2h21.5l16.1-44.8,16.1,44.8h21.5l-28.7-71.2h-17.8ZM12.3,88.1L41.1,16.9h17.8l17.9,44.5,18-44.5h17.8l12.5,31.1-10.4,26-11-30.7-16.1,44.8h-21.6l-16-44.8-16.1,44.8H12.3Z"/>
</svg>