<?xml version="1.0" encoding="UTF-8"?>
<svg id="Layer_1" xmlns="http://www.w3.org/2000/svg" version="1.1" viewBox="0 0 141 32">
  <!-- Generator: Adobe Illustrator 30.4.0, SVG Export Plug-In . SVG Version: 2.1.4 Build 226)  -->
  <defs>
    <style>
      .st0 {
        fill: #fff;
      }
    </style>
  </defs>
  <path class="st0" d="M50.4,25.5V6.9h4.2v2.4c1.1-1.9,3.4-2.9,5.5-2.9s4.6,1.1,5.6,3.3c1.4-2.4,3.6-3.3,6-3.3s6.6,2.1,6.6,7.1v12h-4.3v-11.3c0-2.2-1.1-3.8-3.6-3.8s-3.8,1.8-3.8,4.1v11h-4.3v-11.3c0-2.1-1.1-3.8-3.6-3.8s-3.8,1.7-3.8,4.1v11h-4.5Z"/>
  <path class="st0" d="M100.3,20.2c-1,3.2-3.9,5.9-8.4,5.9s-9.5-3.7-9.5-9.9,4.4-9.8,9-9.8,9.1,3.8,9.1,9.6,0,1.3,0,1.4h-13.6c0,2.8,2.3,4.8,5.1,4.8s4-1.4,4.7-3.2c0,0,3.7,1.2,3.7,1.2ZM96,14.2c0-2.2-1.5-4.1-4.6-4.1s-4.4,2.1-4.5,4.1c0,0,9.1,0,9.1,0Z"/>
  <path class="st0" d="M121.5,20.2c-1,3.2-3.9,5.9-8.4,5.9s-9.5-3.7-9.5-9.9,4.4-9.8,9-9.8,9.1,3.8,9.1,9.6,0,1.3,0,1.4h-13.6c0,2.8,2.3,4.8,5.1,4.8s4-1.4,4.7-3.2c0,0,3.7,1.2,3.7,1.2ZM117.3,14.2c0-2.2-1.5-4.1-4.6-4.1s-4.4,2.1-4.5,4.1c0,0,9.1,0,9.1,0Z"/>
  <path class="st0" d="M125,25.5v-3.9l9.4-10.8h-9.2v-3.9h14.8v3.7l-9.5,10.9h9.7v3.9h-15.2Z"/>
  <path class="st0" d="M9.9,5C9.9,2.2,7.7,0,5,0S0,2.2,0,5v22c0,2.8,2.2,5,5,5s5-2.2,5-5V5h-.1Z"/>
  <path class="st0" d="M23.9,5c0-2.8-2.2-5-5-5s-5,2.2-5,5v12c0,2.8,2.2,5,5,5s5-2.2,5-5V5Z"/>
  <path class="st0" d="M36.8,4.5c0-2.5-2-4.5-4.5-4.5s-4.5,2-4.5,4.5v23c0,2.5,2,4.5,4.5,4.5s4.5-2,4.5-4.5V4.5Z"/>
</svg>