<svg width="141" height="32" viewBox="0 0 141 32" fill="none" xmlns="http://www.w3.org/2000/svg">
<g clip-path="url(#clip0_468_121)">
<mask id="mask0_468_121" style="mask-type:luminance" maskUnits="userSpaceOnUse" x="50" y="6" width="91" height="21">
<path d="M140.155 6.35474H50.4141V26.0699H140.155V6.35474Z" fill="white"/>
</mask>
<g mask="url(#mask0_468_121)">
<path d="M50.4141 25.4979V6.9266H54.6375V9.29369C55.7013 7.38731 58.0353 6.40234 60.1312 6.40234C62.5764 6.40234 64.704 7.5144 65.6884 9.67497C67.1332 7.22844 69.3085 6.40234 71.706 6.40234C75.0562 6.40234 78.2635 8.53114 78.2635 13.456V25.4979H73.9924V14.1709C73.9924 11.9944 72.881 10.3581 70.4041 10.3581C68.0859 10.3581 66.5617 12.185 66.5617 14.4727V25.4979H62.227V14.1709C62.227 12.0421 61.1632 10.3581 58.6387 10.3581C56.2729 10.3581 54.7963 12.1056 54.7963 14.4727V25.4979H50.4141Z" fill="black"/>
<path d="M100.253 20.1919C99.2689 23.4327 96.3315 26.0699 91.8699 26.0699C86.8367 26.0699 82.375 22.416 82.375 16.1249C82.375 10.2469 86.7255 6.37061 91.4094 6.37061C97.1254 6.37061 100.476 10.1516 100.476 16.0137C100.476 16.7445 100.396 17.3482 100.365 17.4276H86.8049C86.9161 20.2554 89.1231 22.273 91.8699 22.273C94.5373 22.273 95.9028 20.8591 96.5221 19.0322L100.253 20.1919ZM96.0298 14.1709C95.9505 11.9944 94.5056 10.0563 91.4571 10.0563C88.6785 10.0563 87.0748 12.1851 86.9161 14.1709H96.0298Z" fill="black"/>
<path d="M121.48 20.1919C120.495 23.4327 117.558 26.0699 113.096 26.0699C108.063 26.0699 103.602 22.416 103.602 16.1249C103.602 10.2469 107.952 6.37061 112.636 6.37061C118.352 6.37061 121.702 10.1516 121.702 16.0137C121.702 16.7445 121.623 17.3482 121.591 17.4276H108.031C108.143 20.2554 110.35 22.273 113.096 22.273C115.764 22.273 117.129 20.8591 117.749 19.0322L121.48 20.1919ZM117.256 14.1709C117.177 11.9944 115.732 10.0563 112.684 10.0563C109.905 10.0563 108.301 12.1851 108.143 14.1709H117.256Z" fill="black"/>
<path d="M124.992 25.4981V21.6377L134.407 10.8031H125.182V6.92676H139.964V10.6601L130.438 21.6059H140.155V25.4981H124.992Z" fill="black"/>
</g>
<mask id="mask1_468_121" style="mask-type:luminance" maskUnits="userSpaceOnUse" x="0" y="0" width="37" height="32">
<path d="M36.7795 0H0V32H36.7795V0Z" fill="white"/>
</mask>
<g mask="url(#mask1_468_121)">
<path d="M9.94041 5.00711C9.94041 2.24176 7.71517 0 4.9702 0C2.22524 0 0 2.24176 0 5.00711V26.9929C0 29.7582 2.22524 32 4.9702 32C7.71517 32 9.94041 29.7582 9.94041 26.9929V5.00711Z" fill="#40B49A"/>
<path d="M23.8545 5.00711C23.8545 2.24176 21.6293 0 18.8843 0C16.1394 0 13.9141 2.24176 13.9141 5.00711V16.9929C13.9141 19.7582 16.1394 22 18.8843 22C21.6293 22 23.8545 19.7582 23.8545 16.9929V5.00711Z" fill="#3B457D"/>
<path d="M36.7823 4.5064C36.7823 2.01758 34.7796 0 32.3091 0C29.8386 0 27.8359 2.01758 27.8359 4.5064V27.4936C27.8359 29.9824 29.8386 32 32.3091 32C34.7796 32 36.7823 29.9824 36.7823 27.4936V4.5064Z" fill="#F7B500"/>
</g>
</g>
<defs>
<clipPath id="clip0_468_121">
<rect width="141" height="32" fill="white"/>
</clipPath>
</defs>
</svg>
