<svg width="1212" height="430" viewBox="0 0 1212 430" fill="none" xmlns="http://www.w3.org/2000/svg">
<g clip-path="url(#clip0_468_621)">
<path d="M1200.16 140.24H1126.73V424.932H1200.16V140.24Z" fill="white"/>
<path d="M1163.45 0C1190.53 0 1211.6 21.0661 1211.6 48.151C1211.6 74.634 1190.53 96.302 1163.45 96.302C1136.96 96.302 1115.3 74.6341 1115.3 48.151C1115.3 21.0661 1136.96 0 1163.45 0Z" fill="white"/>
<path d="M930.516 140.24H857.086V424.932H930.516V140.24Z" fill="white"/>
<path d="M893.799 0C920.884 0 941.95 21.0661 941.95 48.151C941.95 74.634 920.884 96.302 893.799 96.302C867.316 96.302 845.648 74.6341 845.648 48.151C845.648 21.0661 867.316 0 893.799 0Z" fill="white"/>
<path d="M1047.28 326.223V24.0754H973.852V341.872C973.852 398.449 1004.55 429.747 1052.1 429.747C1076.77 429.747 1090.62 423.127 1090.62 423.127V356.317C1079.18 361.132 1047.28 360.53 1047.28 326.223Z" fill="white"/>
<path d="M0 424.932H83.6623L116.766 185.381H119.775C140.24 253.395 194.41 293.721 259.413 293.721C324.417 293.721 378.587 253.395 399.051 185.381H402.06L435.164 424.932H518.827L455.027 24.0754H369.559C369.559 24.0754 355.715 104.728 347.289 133.017C333.446 179.964 311.176 219.689 259.414 219.689C207.651 219.689 185.381 179.964 171.538 133.017C163.112 104.728 149.268 24.0754 149.268 24.0754H63.8001L0 424.932Z" fill="white"/>
<path fill-rule="evenodd" clip-rule="evenodd" d="M676.522 133.619C754.166 133.619 819.169 193.808 819.169 280.479V306.36H607.907C612.722 331.64 642.214 362.938 686.754 362.938C735.507 362.938 763.796 335.251 763.796 335.251L799.307 388.819C799.19 388.928 755.278 429.747 686.754 429.747C601.286 429.747 534.477 364.142 534.477 281.684C534.477 198.623 595.268 133.619 676.522 133.619ZM676.521 199.827C630.176 199.827 609.712 229.921 607.906 255.2H746.942C745.739 230.523 723.469 199.827 676.521 199.827Z" fill="white"/>
</g>
<defs>
<clipPath id="clip0_468_621">
<rect width="1211.6" height="429.747" fill="white"/>
</clipPath>
</defs>
</svg>
