<svg width="500" height="64" viewBox="0 0 500 64" fill="none" xmlns="http://www.w3.org/2000/svg">
<path fill-rule="evenodd" clip-rule="evenodd" d="M499.641 39.1041C500.518 44.9046 500.052 51.9528 495.233 56.1507C490.414 60.3485 483.976 61.685 477.876 62.5667C470.933 63.5649 463.874 63.5649 456.881 63.5649H456.653C441.238 63.4678 425.867 61.8879 410.754 58.8457L412.102 47.2836C428.577 49.84 442.906 51.5369 459.132 51.5369C465.809 51.5369 472.68 51.3539 479.19 49.9953C484.17 48.9583 486.582 46.3408 486.222 42.7197C485.822 38.6715 481.724 37.9673 478.203 37.812C474.16 37.6512 435.997 36.5421 435.997 36.5421C428.117 36.1872 415.479 35.8434 411.907 26.943C409.834 21.7691 410.183 14.183 413.61 9.69122C417.647 4.40644 425.871 2.68182 433.379 1.69474C440.274 0.825216 447.219 0.404874 454.169 0.435929C470.046 0.435929 484.929 2.80382 495.682 4.78908V4.87226L494.124 16.318C479.855 13.7116 466.341 12.0979 451.657 12.0979C444.975 12.0979 438.243 12.2199 431.499 13.6451C428.139 14.3605 424.429 16.2681 424.845 20.3828C425.25 24.3145 429.342 24.9965 432.864 25.1463C436.867 25.3237 474.804 26.3496 474.804 26.3496C483.998 26.8154 497.889 27.4975 499.641 39.1041ZM54.0567 48.0211L91.9983 0.862925H108.135V63.1656H93.8893V19.9724L62.3082 59.2284C57.8275 64.7738 50.2969 64.7738 45.8605 59.2284L14.2517 19.9724V63.1656H0V0.862925H16.115L54.0567 48.0211ZM227.34 0.862925V13.4621H158.715V25.7119H224.511V38.3166H158.715V50.5664H230.129L228.033 63.1656H144.463V0.862925H227.34ZM364.888 63.149H349.716L322.543 14.0055L295.371 63.149H280.248L254.257 0.862925H268.952L288.86 48.5368L312.312 6.53588C314.418 2.87591 318.331 0.612827 322.554 0.612827C326.777 0.612827 330.691 2.87591 332.797 6.53588L356.243 48.5534L376.14 0.862925H390.852L364.888 63.149Z" fill="black"/>
</svg>
