<?xml version="1.0" encoding="UTF-8"?><svg id="b" xmlns="http://www.w3.org/2000/svg" viewBox="0 0 135.9632 17.1913"><g id="c"><path d="M8.5951.0033C4.0644.0033.3518,3.5109.0264,7.9574c1.1156-.88,2.5226-1.4068,4.0535-1.4068,3.6258,0,6.5637,2.9375,6.5637,6.5628v4.0778h6.5482v-8.5956C17.1918,3.8487,13.3428.0002,8.5951.0002v.0031Z" fill="#fff"/><path d="M4.0783,9.0357c-2.253,0-4.0783,1.8251-4.0783,4.0778v4.0778h8.1566v-4.0778c0-2.2527-1.8253-4.0778-4.0783-4.0778Z" fill="#fff"/><path d="M36.8214.2773h1.9661v16.914h-.7058l-10.587-12.7548v12.4775h-1.9662V0h.7058l10.5871,12.78V.2773Z" fill="#fff"/><path d="M53.9402,11.3684h-9.7048c.2269,2.4199,2.0922,4.0332,4.5121,4.0332,1.3864,0,2.6467-.5546,3.7559-1.6637l1.1343,1.3108c-1.2856,1.3359-2.9745,2.1426-4.9154,2.1426-3.6551,0-6.5035-2.798-6.5035-6.4026,0-3.5542,2.7728-6.4279,6.2766-6.4279,3.1761,0,5.596,2.2939,5.596,5.5456,0,.4789-.0504.9579-.1512,1.462ZM44.311,9.6543h7.789c-.0252-2.193-1.6132-3.529-3.655-3.529s-3.7055,1.4116-4.134,3.529Z" fill="#fff"/><path d="M56.3421,14.7966l1.2352-1.2856c1.1847,1.21,2.1426,1.8906,3.529,1.8906,1.336,0,2.3442-.6554,2.3442-1.7393,0-.9831-.6301-1.3612-2.1426-1.9662l-1.1847-.5041c-2.0418-.8319-3.0501-1.7645-3.0501-3.403,0-2.1426,1.7897-3.4282,4.134-3.4282,1.7141,0,3.1005.731,4.1088,1.941l-1.1848,1.2099c-.8318-.8318-1.8905-1.3612-3.0248-1.3612-1.21,0-2.0418.5546-2.0418,1.5376,0,.7814.5041,1.1595,1.9914,1.7897l1.1343.4789c2.2938.9831,3.2517,1.941,3.2517,3.6299,0,1.1343-.4285,2.0417-1.2603,2.6719-.8319.6302-1.8402.9327-3.0501.9327-2.0418,0-3.7055-.9831-4.7894-2.3947Z" fill="#fff"/><path d="M75.6534,15.2755v1.6385c-.7814.1765-1.462.2773-2.0418.2773-2.5459,0-4.134-1.2856-4.134-3.9828v-6.8311h-2.067v-1.7393h2.067V1.2856h1.941v3.3525h3.8315v1.7393h-3.8315v6.7051c0,1.7393.9074,2.3443,2.5963,2.3443.4789,0,1.0083-.0504,1.6385-.1513Z" fill="#fff"/><path d="M96.4709,9.4779v7.7134h-1.9409v-7.4613c0-1.9914-1.0839-3.3021-2.8988-3.3021-1.8402,0-3.1509,1.3864-3.1509,3.1257v7.6378h-1.941v-7.4613c0-1.9914-1.1343-3.3021-2.924-3.3021-1.8401,0-3.1257,1.3612-3.1257,3.3021v7.4613h-1.941V4.9154h1.815v1.2856c.8822-1.0083,2.1426-1.5628,3.655-1.5628,1.7897,0,3.0753.7814,3.7811,2.1174.9074-1.2856,2.3947-2.1174,4.2096-2.1174,2.8232,0,4.4616,1.9158,4.4616,4.8398Z" fill="#fff"/><path d="M111.4194,11.3684h-9.7048c.2269,2.4199,2.0922,4.0332,4.5121,4.0332,1.3864,0,2.6467-.5546,3.7559-1.6637l1.1343,1.3108c-1.2856,1.3359-2.9745,2.1426-4.9154,2.1426-3.6551,0-6.5035-2.798-6.5035-6.4026,0-3.5542,2.7728-6.4279,6.2766-6.4279,3.1761,0,5.596,2.2939,5.596,5.5456,0,.4789-.0504.9579-.1512,1.462ZM101.7902,9.6543h7.7891c-.0253-2.193-1.6133-3.529-3.6551-3.529s-3.7054,1.4116-4.134,3.529Z" fill="#fff"/><path d="M125.1392,9.4779v7.7134h-1.9408v-7.4865c0-1.9409-1.1595-3.2769-3.0501-3.2769s-3.2265,1.3612-3.2265,3.2769v7.4865h-1.9409V4.9154h1.8149v1.3108c.9074-1.0083,2.2434-1.5881,3.7811-1.5881,2.8484,0,4.5623,1.941,4.5623,4.8398Z" fill="#fff"/><path d="M135.9632,15.2755v1.6385c-.781.1765-1.462.2773-2.042.2773-2.545,0-4.133-1.2856-4.133-3.9828v-6.8311h-2.067v-1.7393h2.067V1.2856h1.94v3.3525h3.832v1.7393h-3.832v6.7051c0,1.7393.908,2.3443,2.597,2.3443.479,0,1.008-.0504,1.638-.1513Z" fill="#fff"/></g></svg>