<svg width="112" height="63" viewBox="0 0 112 63" fill="none" xmlns="http://www.w3.org/2000/svg">
<g clip-path="url(#clip0_266_579)">
<path d="M62.7647 51.9667C59.835 51.9667 57.9977 49.9833 57.9977 47.4049V4.95867C57.9977 2.22049 55.7741 0 53.0322 0C50.29 0 48.0664 2.22049 48.0664 4.95867V47.4049C48.0664 50.143 50.29 52.3635 53.0322 52.3635C55.5001 52.3635 57.5012 54.2477 57.5012 57.0742C57.5012 59.9494 59.836 62.2808 62.715 62.2808C65.5941 62.2808 67.929 59.9494 67.929 57.0742C67.929 54.1992 65.6944 51.9667 62.7647 51.9667Z" fill="white"/>
<path fill-rule="evenodd" clip-rule="evenodd" d="M34.4517 25.8932C31.9789 25.8932 29.9926 24 29.9926 21.1736C29.9926 18.2479 27.8078 15.8678 24.8283 15.8678C21.8489 15.8678 19.5647 18.5455 19.5647 21.1736C19.5647 23.8017 17.4791 25.6859 15.0956 25.6859C12.7121 25.6859 10.6265 23.8512 10.6265 21.2232C10.6265 18.2479 8.14368 15.8678 5.16427 15.8678C2.18489 15.8678 0 18.2975 0 21.2232C0 24.2479 2.33485 26.3801 5.21394 26.3801C7.74642 26.3801 9.83001 28.3586 9.83001 30.9391C9.83001 33.5195 7.79708 35.3058 5.3629 35.3058C2.62088 35.3058 0.397251 37.3279 0.397251 40.0661C0.397251 40.0661 0.397251 57.7188 0.414134 57.7121C0.414134 60.2975 2.75197 62.2809 5.3629 62.2809C7.97385 62.2809 10.3117 60.2975 10.3117 57.7121L10.3405 40.0661C10.3286 38.0827 12.7121 36.1091 15.0847 36.1091L15.0956 36.0992C17.9359 36.0735 20.2599 33.8182 20.2599 30.843C20.2599 28.4334 22.1728 26.4695 24.5646 26.3832H24.8313C27.3121 26.3832 29.1981 28.4123 29.1981 30.843V57.3222C29.1981 60.0604 31.4217 62.2809 34.1636 62.2809C36.9058 62.2809 39.1294 60.0604 39.1294 57.3222V30.843C39.1294 28.2009 36.9256 25.8932 34.4517 25.8932ZM24.8283 26.3801L24.6887 26.3804C24.7021 26.3801 24.7155 26.3801 24.7289 26.3801H24.8283Z" fill="white"/>
<path d="M111.627 30.4464C111.627 33.1845 109.443 35.405 106.165 35.405C103.494 35.405 101.595 36.7428 101.503 39.0991C101.595 41.4555 103.494 42.7932 106.165 42.7932C109.443 42.7932 111.627 45.0138 111.627 47.7519V57.3718C111.627 60.1099 109.404 62.3305 106.662 62.3305C103.92 62.3305 101.696 60.1099 101.696 57.3718C101.696 57.3718 101.698 50.3305 101.698 47.8482C101.698 45.3659 99.6951 43.3882 97.2272 43.3882H90.2753C87.8074 43.3882 85.8042 45.3659 85.8042 47.8482C85.8042 50.3305 85.8063 57.3718 85.8063 57.3718C85.8063 60.1099 83.5827 62.3305 80.8405 62.3305C78.0986 62.3305 75.875 60.1099 75.875 57.3718V47.7519C75.875 45.0138 78.0598 42.7932 81.3372 42.7932C84.0096 42.7932 85.9076 41.4555 85.9998 39.0991C85.9076 36.7428 84.0085 35.405 81.3372 35.405C78.0598 35.405 75.875 33.1845 75.875 30.4464V20.9256C75.875 18.1874 78.0986 15.9669 80.8405 15.9669C83.5827 15.9669 85.8063 18.1874 85.8063 20.9256C85.8063 20.9256 85.8042 27.8677 85.8042 30.35C85.8042 32.8323 87.8074 34.7108 90.2753 34.7108H97.2272C99.6951 34.7108 101.698 32.8323 101.698 30.35C101.698 27.8677 101.696 20.9256 101.696 20.9256C101.696 18.1874 103.92 15.9669 106.662 15.9669C109.404 15.9669 111.627 18.1874 111.627 20.9256V30.4464Z" fill="white"/>
</g>
<defs>
<clipPath id="clip0_266_579">
<rect width="112" height="62.3304" fill="white"/>
</clipPath>
</defs>
</svg>
