<svg width="112" height="64" viewBox="0 0 112 64" fill="none" xmlns="http://www.w3.org/2000/svg">
<g clip-path="url(#clip0_266_579)">
<path d="M62.7647 52.7967C59.835 52.7967 57.9977 50.8132 57.9977 48.2348V5.78863C57.9977 3.05045 55.7741 0.829956 53.0322 0.829956C50.29 0.829956 48.0664 3.05045 48.0664 5.78863V48.2348C48.0664 50.973 50.29 53.1935 53.0322 53.1935C55.5001 53.1935 57.5012 55.0777 57.5012 57.9041C57.5012 60.7794 59.836 63.1108 62.715 63.1108C65.5941 63.1108 67.929 60.7794 67.929 57.9041C67.929 55.0291 65.6944 52.7967 62.7647 52.7967Z" fill="black"/>
<path fill-rule="evenodd" clip-rule="evenodd" d="M34.4517 26.7232C31.9789 26.7232 29.9926 24.83 29.9926 22.0035C29.9926 19.0779 27.8078 16.6978 24.8283 16.6978C21.8489 16.6978 19.5647 19.3754 19.5647 22.0035C19.5647 24.6316 17.4791 26.5159 15.0956 26.5159C12.7121 26.5159 10.6265 24.6812 10.6265 22.0531C10.6265 19.0779 8.14368 16.6978 5.16427 16.6978C2.18489 16.6978 0 19.1275 0 22.0531C0 25.0779 2.33485 27.2101 5.21394 27.2101C7.74642 27.2101 9.83001 29.1885 9.83001 31.769C9.83001 34.3495 7.79708 36.1358 5.3629 36.1358C2.62088 36.1358 0.397251 38.1579 0.397251 40.896C0.397251 40.896 0.397251 58.5488 0.414134 58.542C0.414134 61.1274 2.75197 63.1108 5.3629 63.1108C7.97385 63.1108 10.3117 61.1274 10.3117 58.542L10.3405 40.896C10.3286 38.9126 12.7121 36.9391 15.0847 36.9391L15.0956 36.9292C17.9359 36.9035 20.2599 34.6482 20.2599 31.6729C20.2599 29.2633 22.1728 27.2994 24.5646 27.2132H24.8313C27.3121 27.2132 29.1981 29.2423 29.1981 31.6729V58.1522C29.1981 60.8903 31.4217 63.1108 34.1636 63.1108C36.9058 63.1108 39.1294 60.8903 39.1294 58.1522V31.6729C39.1294 29.0309 36.9256 26.7232 34.4517 26.7232ZM24.8283 27.2101L24.6887 27.2103C24.7021 27.2101 24.7155 27.2101 24.729 27.2101H24.8283Z" fill="black"/>
<path d="M111.627 31.2763C111.627 34.0144 109.443 36.235 106.165 36.235C103.494 36.235 101.595 37.5727 101.503 39.9291C101.595 42.2854 103.494 43.6232 106.165 43.6232C109.443 43.6232 111.627 45.8437 111.627 48.5818V58.2018C111.627 60.9399 109.404 63.1604 106.662 63.1604C103.92 63.1604 101.696 60.9399 101.696 58.2018C101.696 58.2018 101.698 51.1605 101.698 48.6782C101.698 46.1959 99.6951 44.2182 97.2271 44.2182H90.2753C87.8074 44.2182 85.8042 46.1959 85.8042 48.6782C85.8042 51.1605 85.8063 58.2018 85.8063 58.2018C85.8063 60.9399 83.5827 63.1604 80.8405 63.1604C78.0986 63.1604 75.875 60.9399 75.875 58.2018V48.5818C75.875 45.8437 78.0598 43.6232 81.3372 43.6232C84.0096 43.6232 85.9076 42.2854 85.9998 39.9291C85.9076 37.5727 84.0085 36.235 81.3372 36.235C78.0598 36.235 75.875 34.0144 75.875 31.2763V21.7555C75.875 19.0174 78.0986 16.7969 80.8405 16.7969C83.5827 16.7969 85.8063 19.0174 85.8063 21.7555C85.8063 21.7555 85.8042 28.6976 85.8042 31.18C85.8042 33.6623 87.8074 35.5408 90.2753 35.5408H97.2271C99.6951 35.5408 101.698 33.6623 101.698 31.18C101.698 28.6976 101.696 21.7555 101.696 21.7555C101.696 19.0174 103.92 16.7969 106.662 16.7969C109.404 16.7969 111.627 19.0174 111.627 21.7555V31.2763Z" fill="black"/>
</g>
<defs>
<clipPath id="clip0_266_579">
<rect width="112" height="62.3304" fill="white" transform="translate(0 0.829956)"/>
</clipPath>
</defs>
</svg>
