<svg width="73" height="24" viewBox="0 0 73 24" fill="none" xmlns="http://www.w3.org/2000/svg">
<mask id="mask0_468_7" style="mask-type:luminance" maskUnits="userSpaceOnUse" x="0" y="2" width="73" height="20">
<path d="M73 2.26672H0V21.7334H73V2.26672Z" fill="white"/>
</mask>
<g mask="url(#mask0_468_7)">
<path d="M3.84961 12.683V21.249H0V6.42659H3.84961V7.94704C4.31611 7.37384 4.90918 6.91664 5.58222 6.61137C6.26089 6.30112 7.00341 6.146 7.811 6.146C9.29499 6.146 10.4778 6.62506 11.3583 7.58318C12.2378 8.54131 12.678 9.83706 12.678 11.4716V21.249H8.8273V12.5985C8.8273 11.6769 8.6311 10.9732 8.23649 10.485C7.8418 9.99565 7.27031 9.75155 6.51753 9.75155C5.74761 9.75155 5.11 10.0196 4.60584 10.5545C4.10169 11.0906 3.84961 11.8001 3.84961 12.683Z" fill="url(#paint0_linear_468_7)"/>
<path d="M22.0243 21.1932C21.3651 21.5023 20.6396 21.6574 19.8526 21.6574C18.3675 21.6574 17.1755 21.1749 16.2767 20.2088C15.3791 19.2427 14.9297 17.9538 14.9297 16.341V6.55322H18.7793V15.4695C18.7793 16.3512 18.9766 17.0208 19.3713 17.4805C19.7648 17.9401 20.3374 18.1694 21.0902 18.1694C21.4461 18.1761 21.7993 18.107 22.1264 17.9666C22.4534 17.8261 22.7468 17.6176 22.987 17.355C23.5003 16.8098 23.757 16.1071 23.757 15.2448V6.55322H27.6077V21.3483H23.7581V19.829C23.2898 20.408 22.6972 20.8742 22.0243 21.1932Z" fill="url(#paint1_linear_468_7)"/>
<path d="M34.1516 2.67505V5.53232H30.0625V2.67505H34.1516Z" fill="url(#paint2_linear_468_7)"/>
<path d="M34.1505 6.552V21.2478H30.2656V6.552H34.1505Z" fill="url(#paint3_linear_468_7)"/>
<path d="M42.7873 21.3961C42.2205 21.4349 41.7836 21.4532 41.4779 21.4532V21.4543C39.8959 21.4543 38.7552 21.1349 38.0572 20.4962C37.358 19.8586 37.0078 18.8366 37.0078 17.4313V6.48703L37.0192 3.92633L40.8152 2.26672V6.48703H43.7671V9.77773H40.8152V16.6146C40.8152 17.1393 40.9395 17.5089 41.187 17.7256C41.4357 17.9412 41.9193 18.0495 42.6356 18.0495C42.8289 18.05 43.0221 18.0451 43.2151 18.0347C43.3805 18.0256 43.6291 18.0028 43.9599 17.9651L42.7873 21.3961Z" fill="url(#paint4_linear_468_7)"/>
<path fill-rule="evenodd" clip-rule="evenodd" d="M55.8898 20.5225C54.7412 21.2787 53.409 21.6574 51.8954 21.6574C50.8118 21.6574 49.8114 21.4681 48.8955 21.0905C47.9979 20.7249 47.1935 20.1628 46.5413 19.4458C45.9048 18.7465 45.42 17.923 45.0836 16.9786C44.7471 16.0319 44.5783 15.003 44.5783 13.8875C44.5716 12.868 44.7426 11.8552 45.0836 10.8945C45.4024 9.98858 45.8979 9.15503 46.5413 8.44212C47.1843 7.71279 47.9783 7.13208 48.8681 6.74031C49.7647 6.34337 50.7274 6.1449 51.7562 6.1449C53.8105 6.1449 55.4473 6.82928 56.6609 8.20145C57.8757 9.57136 58.4836 11.3724 58.4836 13.6023V14.7658H48.3355C48.4655 15.9007 48.8533 16.7892 49.4989 17.4314C50.1434 18.0747 50.9521 18.3964 51.9239 18.3964C52.7075 18.3964 53.3759 18.207 53.928 17.8295C54.4789 17.4508 54.8667 16.9124 55.0914 16.2121L58.3992 17.404C57.8757 18.7272 57.0396 19.7663 55.8898 20.5225ZM48.4632 12.0648H54.5987V12.0636C54.5793 11.2002 54.3123 10.5078 53.7956 9.98767C53.2801 9.46638 52.5911 9.20634 51.7277 9.20634C50.9213 9.20634 50.2323 9.45269 49.6597 9.94318C49.0871 10.4337 48.6891 11.1409 48.4632 12.0648Z" fill="url(#paint5_linear_468_7)"/>
<path fill-rule="evenodd" clip-rule="evenodd" d="M70.4056 20.5225C69.2558 21.2787 67.9235 21.6574 66.4099 21.6574C65.3263 21.6574 64.326 21.4681 63.4101 21.0905C62.5124 20.7249 61.708 20.1628 61.0558 19.4458C60.4194 18.7465 59.9346 17.923 59.5981 16.9786C59.2616 16.0319 59.094 15.003 59.094 13.8875C59.0869 12.8681 59.2575 11.8553 59.5981 10.8945C59.9169 9.98858 60.4124 9.15503 61.0558 8.44212C61.6988 7.71279 62.4928 7.13208 63.3827 6.74031C64.2793 6.34337 65.2419 6.1449 66.2708 6.1449C68.3262 6.1449 69.9607 6.82928 71.1752 8.20145C72.3905 9.57136 72.9982 11.3724 72.9982 13.6023V14.7658H62.85C62.9812 15.9007 63.369 16.7892 64.0135 17.4314C64.6591 18.0747 65.4666 18.3964 66.4385 18.3964C67.2232 18.3964 67.8916 18.207 68.4437 17.8295C68.9946 17.4508 69.3813 16.9124 69.6068 16.2121L72.9147 17.404C72.3905 18.7272 71.5542 19.7663 70.4056 20.5225ZM62.9789 12.0648H69.1132V12.0636C69.0938 11.2002 68.8269 10.5078 68.3114 9.98767C67.7947 9.46638 67.1057 9.20634 66.2423 9.20634C65.4359 9.20634 64.7469 9.45269 64.1743 9.94318C63.6029 10.4337 63.2036 11.1409 62.9789 12.0648Z" fill="url(#paint6_linear_468_7)"/>
<path d="M54.8005 2.67493V4.95618H48.4609V2.67493H54.8005Z" fill="url(#paint7_linear_468_7)"/>
</g>
<defs>
<linearGradient id="paint0_linear_468_7" x1="6.339" y1="6.146" x2="13.8284" y2="12.7304" gradientUnits="userSpaceOnUse">
<stop stop-color="#6D3DCC"/>
<stop offset="1" stop-color="#3D3DCC"/>
</linearGradient>
<linearGradient id="paint1_linear_468_7" x1="21.2687" y1="6.55323" x2="28.7585" y2="13.1375" gradientUnits="userSpaceOnUse">
<stop stop-color="#6D3DCC"/>
<stop offset="1" stop-color="#3D3DCC"/>
</linearGradient>
<linearGradient id="paint2_linear_468_7" x1="32.107" y1="2.67505" x2="33.4261" y2="4.65224" gradientUnits="userSpaceOnUse">
<stop stop-color="#6D3DCC"/>
<stop offset="1" stop-color="#3D3DCC"/>
</linearGradient>
<linearGradient id="paint3_linear_468_7" x1="32.2081" y1="6.55201" x2="35.9872" y2="7.59832" gradientUnits="userSpaceOnUse">
<stop stop-color="#6D3DCC"/>
<stop offset="1" stop-color="#3D3DCC"/>
</linearGradient>
<linearGradient id="paint4_linear_468_7" x1="40.4839" y1="2.26673" x2="46.8485" y2="4.68194" gradientUnits="userSpaceOnUse">
<stop stop-color="#6D3DCC"/>
<stop offset="1" stop-color="#3D3DCC"/>
</linearGradient>
<linearGradient id="paint5_linear_468_7" x1="51.5308" y1="6.14491" x2="59.2717" y2="13.4123" gradientUnits="userSpaceOnUse">
<stop stop-color="#6D3DCC"/>
<stop offset="1" stop-color="#3D3DCC"/>
</linearGradient>
<linearGradient id="paint6_linear_468_7" x1="66.0459" y1="6.14491" x2="73.7866" y2="13.4117" gradientUnits="userSpaceOnUse">
<stop stop-color="#6D3DCC"/>
<stop offset="1" stop-color="#3D3DCC"/>
</linearGradient>
<linearGradient id="paint7_linear_468_7" x1="51.6307" y1="2.67493" x2="52.3317" y2="4.71532" gradientUnits="userSpaceOnUse">
<stop stop-color="#6D3DCC"/>
<stop offset="1" stop-color="#3D3DCC"/>
</linearGradient>
</defs>
</svg>
