<svg width="941" height="353" viewBox="0 0 941 353" fill="none" xmlns="http://www.w3.org/2000/svg">
<path d="M110.663 129.619C114.428 129.37 119.24 129.818 123.037 130.131C263.562 141.708 259.313 339.702 117.019 352.537C88.0358 353.413 57.7428 344.297 35.2551 325.414C-8.961 288.287 -10.9267 213.871 25.6519 170.756C48.5872 143.723 75.7761 132.48 110.663 129.619ZM130.546 342.868C149.594 341.084 161.673 336.253 174.523 321.644C221.505 268.236 169.712 131.176 95.5831 138.499L95.3305 138.525C40.0681 141.403 27.7058 199.873 35.9968 244.75C44.3206 289.803 75.8731 343.903 127.963 343.132C128.622 343.122 129.919 343.014 130.546 342.868Z" fill="white"/>
<path d="M778.771 129.165L779.047 129.156C801.116 128.456 827.244 137.346 843.153 152.821C858.097 167.362 866.01 185.592 866.586 206.356C858.219 206.389 849.008 205.779 840.196 205.757C792.824 205.52 745.452 205.753 698.085 206.456C697.953 214.327 697.269 222.162 697.307 230.091C697.532 279.023 727.822 320.762 779 324.532C808.513 326.706 830.197 319.56 853.082 300.449C857.502 296.544 862.049 291.712 866.277 287.487L870.036 291.649C866.788 296.113 863.014 300.384 859.368 304.543C835.4 331.872 807.847 351.319 769.864 352.549C742.869 353.171 716.708 343.169 697.011 324.696C653.947 284.158 657.088 207.335 696.641 165.44C718.105 142.907 747.66 129.854 778.771 129.165ZM699.561 200.57L748.822 200.628C755.385 200.588 762.266 200.102 768.697 200.209C789.772 200.314 810.852 200.241 831.927 199.99C829.963 194.845 829.494 189.342 827.46 184.189C816.252 155.805 794.31 137.071 763.072 137.607C746.9 138.092 731.422 144.396 720.416 156.322C707.689 170.106 703.63 183.156 699.561 200.57Z" fill="white"/>
<path d="M305.518 0.022267C312.435 -0.390677 311.551 5.01617 311.572 9.9031C311.915 86.9297 311.801 163.966 311.762 240.994L311.678 276.854C311.632 293.174 310.614 315.53 315.624 331.122C317.614 337.317 323.229 339.972 328.71 342.383C328.831 343.889 329.109 346.724 328.369 347.975C326.104 348.171 323.163 348.171 320.874 348.06C302.015 347.15 282.691 348.92 263.969 348.613C262.632 348.624 262.223 348.693 260.987 348.15C260.015 346.833 259.809 346.624 259.75 345.011C261.032 341.045 266.75 339.697 269.854 336.194C274.506 330.945 276.082 321.588 276.69 314.841C277.829 302.221 277.444 288.84 277.43 276.143L277.41 217.872L277.416 115.214C277.417 96.4666 277.497 77.6473 277.294 58.9148C277.195 49.7038 276.191 36.4358 268.695 29.9959C266.417 28.0387 263.306 27.2121 260.665 24.6858C260.164 23.4431 259.974 21.5117 260.455 21.1912C269.883 14.9157 296.686 4.92016 305.518 0.022267Z" fill="white"/>
<path d="M441.333 132.433C454.949 132.856 469.487 132.192 483.17 132.423C487.346 132.493 498.273 131.995 501.695 132.837C508.562 138.29 497.462 138.734 495.817 143.276C493.993 148.322 495.878 153.58 497.462 158.398C500.579 167.864 504.751 176.821 508.571 185.977L528.756 233.756C536.546 252.498 544.45 271.194 552.465 289.842C554.082 293.649 561.878 314.162 564.132 315.258C565.107 314.391 566.486 309.554 567.029 308.054C569.434 301.53 571.871 295.021 574.351 288.525C587.851 253.703 601.154 218.794 614.462 183.821C618.01 174.501 625.562 152.281 617.471 143.473C615.714 141.561 609.939 139.878 608.303 136.337C608.321 134.612 608.153 135.254 609.09 133.739C612.32 132.486 645.775 132.745 651.1 133.364C652.29 133.503 653.054 134.5 653.621 135.567C653.406 138.659 651.718 139.248 649.164 140.247C634.951 146.15 625.979 172.973 620.706 186.646L608.129 219.294L558.245 348.622C552.306 348.601 546.362 348.644 540.423 348.751C537.859 344.871 534.278 335.336 532.356 330.692L520.225 301.583L483.175 212.597C473.818 190.319 465.512 165.102 450.831 145.961C447.667 141.836 437.604 137.644 441.333 132.433Z" fill="white"/>
<path d="M406.934 128.863C408.849 129.861 409.421 130.667 410.81 132.263C411.472 137.017 411.251 145.192 411.247 150.211L411.208 179.054L411.152 277.004C411.164 294.768 409.547 316.797 416.227 333.514C418.063 338.109 431.398 342.235 427.865 347.714C422.844 348.438 410.189 348.038 404.559 348.013C390.977 347.948 377.395 347.97 363.814 348.076C362.354 348.139 361.8 348.261 360.582 347.458C359.486 345.809 359.628 346.477 359.671 344.684C361.631 340.661 364.685 340.068 368.042 337.753C372.093 334.959 374.437 327.239 375.231 322.628C377.315 310.528 377.079 298.124 377.094 285.876L377.117 249.44L377.097 204.987C377.012 190.325 379.649 163.328 363.634 156.655C360.397 155.307 358.736 150.651 360.745 149.586C372.944 143.123 395.602 134.478 406.934 128.863Z" fill="white"/>
<path d="M882.3 22.0449C886.448 22.0573 890.203 22.0708 894.352 22.3462C897.609 29.7923 901.627 41.8712 904.509 49.8553C909.539 63.802 914.953 78.2794 919.547 92.3246C908.442 91.7329 906.928 93.3822 904.289 81.4482C903.844 79.4281 902.311 75.7435 901.523 73.6718L895.612 73.6324C888.633 73.5963 881.648 73.6249 874.669 73.7177C872.836 80.1416 870.469 85.2584 868.969 92.1417C866.588 92.235 859.083 92.5749 857.531 91.025C858.637 85.7882 866.55 65.2493 868.669 59.3266L877.228 35.2847C878.494 31.7384 880.617 25.1766 882.3 22.0449ZM878.072 64.3243L888.23 64.2877C891.445 64.2624 895.308 64.3351 898.467 64.1574C897.277 61.2868 888.619 35.4976 888.661 35.5372C886.477 38.7788 880.012 59.0064 878.072 64.3243Z" fill="white"/>
<path d="M389.956 54.8989C403.105 54.1132 414.429 64.0758 415.327 77.2194C416.225 90.3629 406.362 101.774 393.229 102.785C379.935 103.808 368.356 93.7966 367.447 80.4927C366.538 67.1888 376.647 55.6941 389.956 54.8989Z" fill="white"/>
<path d="M929.804 22.0547L939.69 22.2072C941.082 44.0115 939.165 67.3713 940.065 89.3556C940.116 90.6753 939.971 91.2572 939.071 92.1301C936.282 92.1756 931.28 92.5657 929.054 91.2089C928.304 86.485 929.007 24.9576 929.804 22.0547Z" fill="white"/>
</svg>
