<?xml version="1.0" encoding="UTF-8"?>
<svg id="Layer_1" xmlns="http://www.w3.org/2000/svg" version="1.1" viewBox="0 0 136 21">
  <!-- Generator: Adobe Illustrator 30.4.0, SVG Export Plug-In . SVG Version: 2.1.4 Build 226)  -->
  <defs>
    <style>
      .st0 {
        fill: #fff;
      }
    </style>
  </defs>
  <g id="LOgo">
    <path id="Vector" class="st0" d="M136,8.7l-7.3-.6,3.1-6.7-2.6-1.5-4,6-4-6-2.6,1.5,3.1,6.7-7.3.6v3l7.2.5-3.1,6.7,2.6,1.5,4.1-6.2,4.1,6.2,2.6-1.5-3.1-6.7,7.2-.5v-3Z"/>
    <g id="Orderful-Logotype">
      <path class="st0" d="M10.2,21C2.8,21,0,16.2,0,10.8S2.8.5,10.2.5s10.2,5,10.2,10.3-2.8,10.2-10.2,10.2ZM4.6,10.8c0,4.2,1.3,6.6,5.6,6.6s5.6-2.3,5.6-6.6-1.3-6.6-5.6-6.6-5.6,2.3-5.6,6.6Z"/>
      <path class="st0" d="M30.4,5.6h1v4.2h-1.4c-2.9,0-3.9,1.6-3.9,4.9v5.8h-4.3V5.9h4.2v3.1c.7-2.1,2-3.4,4.5-3.4Z"/>
      <path class="st0" d="M44.2,0h4.3v20.5h-4.3v-2.2c-1,1.7-2.7,2.6-5.2,2.6-4.8,0-6.7-3.6-6.7-7.8s2-7.8,6.7-7.8,4.2,1,5.2,2.7V0ZM40.3,17.6c2.7,0,3.9-1.4,3.9-4.4s-1.2-4.4-3.9-4.4-3.7,1.3-3.7,4.4,1,4.4,3.7,4.4Z"/>
      <path class="st0" d="M57.8,18c1.9,0,2.9-.8,3.3-1.9h4.1c-.4,2.3-2.3,4.9-7.5,4.9s-7.9-3.7-7.9-7.8,2.5-7.8,7.9-7.8,7.6,3.6,7.6,7.7,0,.8,0,1.2h-11.1c.3,2.8,1.6,3.7,3.7,3.7ZM57.8,8.3c-2.1,0-3.3.8-3.6,3.3h7c-.1-2.2-1.2-3.3-3.4-3.3Z"/>
      <path class="st0" d="M75.5,5.6h1v4.2h-1.4c-2.9,0-3.9,1.6-3.9,4.9v5.8h-4.3V5.9h4.2v3.1c.7-2.1,2-3.4,4.5-3.4Z"/>
      <path class="st0" d="M80,20.5v-11.4h-2.6v-2.1l2.6-1.3v-1.3c0-2.8,1.4-4.5,5-4.5h3.7v3.1h-5v2.7h4.2v3.3h-3.6v11.4h-4.3Z"/>
      <path class="st0" d="M100,5.9h4.3v14.6h-4.3v-2.8c-.9,2-2.5,3.3-5.2,3.3-3.8,0-5.5-2.3-5.5-6.2V5.9h4.3v8.3c0,2.3,1,3.3,2.9,3.3s3.5-1.6,3.5-4.9v-6.6Z"/>
      <path class="st0" d="M106,20.5V0h4.3v20.5h-4.3Z"/>
    </g>
  </g>
</svg>