<?xml version="1.0" encoding="UTF-8"?>
<svg id="Layer_1" xmlns="http://www.w3.org/2000/svg" version="1.1" viewBox="0 0 153 36">
  <!-- Generator: Adobe Illustrator 30.4.0, SVG Export Plug-In . SVG Version: 2.1.4 Build 226)  -->
  <defs>
    <style>
      .st0 {
        fill: #fff;
      }
    </style>
  </defs>
  <path class="st0" d="M5.4.2c3.6,0,4.8,1.7,4.8,3.9s-1.3,4.1-4.9,4.1H1.7v5.1H0V.2h5.4ZM1.7,7.8h3.3c2.2,0,3.4-1.1,3.4-3.6S7.3.7,5.1.7H1.7v7.2Z"/>
  <path class="st0" d="M26.7,10h-6.8l-1.6,3.5h-.5L23.8.1h.5l5.7,13.3h-1.8l-1.5-3.5ZM20.1,9.5h6.4l-3.1-7.4-3.3,7.4Z"/>
  <path class="st0" d="M44.5.2c3.5,0,4.5,1.8,4.5,3.7s-1.5,3.4-3.5,3.7l4.6,5.9h-2l-4.3-5.6h-3.2v5.6h-1.7V.2h5.6ZM47.2,3.9c0-2.4-1-3.3-3-3.3h-3.5v6.7h3.5c1.9,0,3.1-1.2,3.1-3.5Z"/>
  <path class="st0" d="M66.4,10h-6.8l-1.6,3.5h-.5L63.5.1h.5l5.6,13.3h-1.8l-1.5-3.5ZM59.7,9.5h6.4l-3.1-7.4-3.3,7.4Z"/>
  <path class="st0" d="M83.3.2c5.5,0,7.9,2.4,7.9,6.6s-1.9,6.5-7.9,6.5h-4.6V.2h4.6ZM83.6,13c3.9,0,5.7-1.7,5.7-6.1s-2.3-6.3-5.8-6.3h-3.1v12.3h3.3Z"/>
  <path class="st0" d="M102.3,6.4h6v.4h-6v6.1h8.4v.4h-10.1V.2h9.7v.4h-8v5.8h0Z"/>
  <path class="st0" d="M125.2.2c3.5,0,4.5,1.8,4.5,3.7s-1.5,3.4-3.5,3.7l4.6,5.9h-2l-4.3-5.6h-3.2v5.6h-1.7V.2h5.6ZM127.8,3.9c0-2.4-1-3.3-3-3.3h-3.5v6.7h3.5c1.9,0,3.1-1.2,3.1-3.5Z"/>
  <path class="st0" d="M138.9,7.1c0-3.8,2.5-7.1,7.1-7.1s7,2.6,7,6.7-2.6,6.9-7,6.9c-3.8,0-7.1-2.3-7.1-6.6ZM151.2,6.8c0-3.7-1.5-6.3-5.1-6.3s-5.3,2.5-5.3,6.5,1.7,6.3,5.2,6.3c3.4,0,5.2-2.3,5.2-6.4Z"/>
  <path class="st0" d="M29.8,29.9h-2v-1h5.2v1h-2v5.9h-1.1v-5.9h0Z"/>
  <path class="st0" d="M35.8,32.4c0-2.1,1.6-3.5,3.6-3.5s3.6,1.5,3.6,3.5-1.6,3.5-3.6,3.5-3.6-1.4-3.6-3.5ZM41.9,32.4c0-1.4-1-2.6-2.5-2.6s-2.5,1.1-2.5,2.6,1,2.6,2.5,2.6,2.5-1.1,2.5-2.6Z"/>
  <path class="st0" d="M46.3,29h1.9c2.2,0,3.7,1.4,3.7,3.5s-1.5,3.4-3.7,3.4h-1.9v-6.9ZM48.2,34.9c1.8,0,2.7-1,2.7-2.5s-.8-2.5-2.7-2.5h-.8v5h.8Z"/>
  <path class="st0" d="M55,32.4c0-2.1,1.6-3.5,3.6-3.5s3.6,1.5,3.6,3.5-1.6,3.5-3.6,3.5-3.6-1.4-3.6-3.5ZM61.1,32.4c0-1.4-1-2.6-2.5-2.6s-2.5,1.1-2.5,2.6,1,2.6,2.5,2.6,2.5-1.1,2.5-2.6Z"/>
  <path class="st0" d="M65,34.6l.9-.5c.3.5.7,1,1.6,1s1.2-.4,1.2-1-.4-.9-1.2-1.2l-.4-.2c-1-.4-1.6-1-1.6-2s.8-1.7,1.9-1.7,1.6.3,1.9,1.1l-.8.5c-.2-.4-.6-.7-1.1-.7s-.9.3-.9.8.3.8,1,1.1l.4.2c1.2.5,1.8,1.1,1.8,2.2s-1,1.9-2.2,1.9c-1.4,0-2.1-.7-2.5-1.4Z"/>
  <path class="st0" d="M76.8,34.6l.9-.5c.3.5.7,1,1.6,1s1.2-.4,1.2-1-.4-.9-1.2-1.2l-.4-.2c-1-.4-1.6-1-1.6-2s.8-1.7,1.9-1.7,1.6.3,1.9,1.1l-.8.5c-.2-.4-.6-.7-1.1-.7s-.9.3-.9.8.3.8,1,1.1l.4.2c1.2.5,1.8,1.1,1.8,2.2s-1,1.9-2.2,1.9c-1.4,0-2.1-.7-2.5-1.4Z"/>
  <path class="st0" d="M87.4,28.9h.1l3.1,6.9h-1.1l-.4-1h-3.2l-.4,1h-1l2.9-6.9ZM88.6,34l-.9-2.2c-.2-.4-.3-1-.3-1,0,0-.1.6-.3,1l-.9,2.2h2.4Z"/>
  <path class="st0" d="M95.3,31.9c-.3-.3-.6-.8-.6-.8,0,0,0,.6,0,1v3.8h-1v-7h.1l3.8,4.1c.2.3.6.8.6.8,0,0,0-.6,0-1v-3.8h1v6.9h-.1l-3.8-4Z"/>
  <path class="st0" d="M104.5,29.9h-2v-1h5.2v1h-2.1v5.9h-1.1v-5.9Z"/>
  <path class="st0" d="M110.5,32.4c0-2.1,1.6-3.5,3.6-3.5s3.6,1.5,3.6,3.5-1.6,3.5-3.6,3.5-3.6-1.4-3.6-3.5ZM116.6,32.4c0-1.4-1-2.6-2.5-2.6s-2.5,1.1-2.5,2.6,1,2.6,2.5,2.6,2.5-1.1,2.5-2.6Z"/>
  <path class="st0" d="M120.5,34.6l.9-.5c.3.5.7,1,1.6,1s1.2-.4,1.2-1-.4-.9-1.2-1.2l-.4-.2c-1-.4-1.6-1-1.6-2s.8-1.7,1.9-1.7,1.6.3,1.9,1.1l-.8.5c-.2-.4-.6-.7-1.1-.7s-.9.3-.9.8.3.8,1,1.1l.4.2c1.2.5,1.8,1.1,1.8,2.2s-1,1.9-2.2,1.9c-1.4,0-2.2-.7-2.5-1.4Z"/>
</svg>