<svg width="157" height="38" viewBox="0 0 157 38" fill="none" xmlns="http://www.w3.org/2000/svg">
<g clip-path="url(#clip0_705_226)">
<path d="M49.8327 0.148438L27.8594 37.8092H36.1864L39.589 32.006H62.6606L66.0632 37.8092H74.3973L52.4097 0.148438H49.8327ZM43.6592 25.0859L51.1248 12.3627L58.5904 25.0859H43.652H43.6592Z" fill="white"/>
<path d="M138.747 18.272H113.709V0.0283203H105.992V37.8092H113.709V25.2062H138.747V37.8092H146.464V0.0283203H138.747V18.272Z" fill="white"/>
<path d="M33.3942 13.1261C33.3942 6.77158 31.9657 0 14.8594 0H0V37.8092H7.70966V25.3333H14.8522C26.7972 25.3333 33.387 22.3929 33.387 13.1332L33.3942 13.1261ZM13.7324 18.3992H7.70966V6.92708H13.7324C22.6265 6.92708 25.7778 7.30171 25.7778 13.2816C25.7778 18.9293 17.3503 18.4063 13.7324 18.4063V18.3992Z" fill="white"/>
<path d="M65.4141 6.96955H79.7638V37.8163H87.4734V6.96955H101.723L101.744 0.0354004H65.4356L65.4141 6.96955Z" fill="white"/>
<path d="M155.357 34.2467C155.357 33.5822 154.948 33.25 154.122 33.25H152.766V36.7701H153.311V35.2292H153.864L154.812 36.7701H155.465L154.503 35.215C154.948 35.1514 155.364 34.8828 155.364 34.2537L155.357 34.2467ZM153.311 34.7768V33.7094H154.036C154.603 33.7094 154.819 33.872 154.819 34.2254C154.819 34.699 154.553 34.7768 153.907 34.7768H153.311Z" fill="white"/>
<path d="M153.939 31.9846C152.259 31.9846 150.852 33.2782 150.852 34.9817C150.852 36.6852 152.259 37.9999 153.939 37.9999C155.619 37.9999 157.011 36.7064 157.011 34.9817C157.011 33.257 155.611 31.9846 153.939 31.9846ZM153.939 37.5122C152.525 37.5122 151.448 36.4236 151.448 34.9817C151.448 33.5397 152.525 32.4724 153.939 32.4724C155.353 32.4724 156.415 33.568 156.415 34.9817C156.415 36.3954 155.339 37.5122 153.939 37.5122Z" fill="white"/>
</g>
<defs>
<clipPath id="clip0_705_226">
<rect width="157" height="38" fill="white"/>
</clipPath>
</defs>
</svg>
