<?xml version="1.0" encoding="UTF-8"?><svg id="a" xmlns="http://www.w3.org/2000/svg" viewBox="0 0 97 27"><g id="b"><path d="M86.1754,13.3582v3.5737h-1.1797c-1.747,0-2.2916.481-2.2916,2.1077v5.1774h-3.1085v-7.8676c.5264.2948,1.0887.507,1.6646.507.6962,0,1.1266-.2841,1.3848-.5285v.9019h.2213c.5001-2.7458,1.5267-3.8716,3.3091-3.8716ZM6.694,24.5378c-1.8607,0-2.8645-.962-3.3864-3.2533h-.1985v5.1804H0v-13.1072h3.1086v2.9325h.1985c.5219-2.2908,1.5939-3.2304,3.4546-3.2304,2.5867,0,3.9255,2.1306,3.9255,5.6584,0,3.666-1.3838,5.8196-3.9932,5.8196ZM7.6241,18.7417c0-1.8098-.6805-2.8637-2.2462-2.8637-1.4297,0-2.2689.985-2.2689,2.7724v.206c0,1.7639.8397,2.8637,2.2689,2.8637,1.5429,0,2.2462-1.0998,2.2462-2.9784ZM15.2987,13.0603c1.8607-.023,2.8873.9391,3.4092,3.2533h.199v-2.9554h3.0858v10.8593h-3.0858v-2.9325h-.2213c-.5218,2.2908-1.5939,3.2533-3.4318,3.2533-2.6094,0-3.9482-2.1536-3.9482-5.6819-.0006-3.6655,1.4059-5.8191,3.9931-5.7961ZM18.9064,18.9253v-.2061c0-1.7639-.8624-2.8636-2.2689-2.8636-1.5656,0-2.2689,1.1227-2.2689,3.0013,0,1.7869.6811,2.8637,2.2689,2.8637,1.4065-.0005,2.2689-1.0085,2.2689-2.7953ZM32.9694,22.2577v-8.9h-3.0863v4.9637c0,1.2599-.726,1.9929-1.9739,1.9929-1.2933,0-1.7925-.8708-1.7925-1.9929v-4.9637h-3.1085v5.8573c0,2.3597.9983,3.9175,3.3354,3.9175,1.7243,0,2.8797-.8707,3.3788-3.3446h.1612v2.5157c0,1.237-.4537,2.1307-2.2239,2.1307-1.7511,0-3.2157-.6744-3.826-1.06l-1.1781,2.4979c.8093.4106,2.7508,1.1278,5.0723,1.1278,3.2444,0,5.2415-1.6037,5.2415-4.7423ZM97,22.2577v-8.9h-3.0858v4.9637c0,1.2599-.726,1.9929-1.9739,1.9929-1.2933,0-1.7924-.8708-1.7924-1.9929v-4.9637h-3.1086v5.8573c0,2.3597.9983,3.9175,3.3354,3.9175,1.7243,0,2.8797-.8707,3.3788-3.3446h.1612v2.5157c0,1.237-.4537,2.1307-2.2239,2.1307-1.7511,0-3.2157-.6744-3.826-1.06l-1.1781,2.4979c.8093.4106,2.7508,1.1278,5.0723,1.1278,3.2444,0,5.241-1.6037,5.241-4.7423ZM48.8531,24.217h-3.1085v-13.7479h3.1085v5.9359h.1759c.4991-2.4974,1.6394-3.3447,3.3636-3.3447,2.3371,0,3.3127,1.5578,3.3127,3.8945v7.2627h-3.0858v-6.369c0-1.1227-.4992-1.9705-1.7925-1.9705-1.2479,0-1.9739.733-1.9739,1.9705v6.3685ZM56.4681,19.0166c0-3.7573,2.0648-5.9563,5.5594-5.9563,3.3126,0,4.9237,2.1306,4.9237,5.0861,0,.481,0,.8478-.0455,1.4435h-7.3517c.2041,1.5579,1.021,2.2455,2.473,2.2455,1.4297,0,1.9061-.7101,2.1557-1.5579l2.6776.756c-.5219,1.9705-1.9289,3.4824-4.8788,3.4824-3.244-.0011-5.5134-1.8797-5.5134-5.4993ZM59.5767,17.8255h4.5383c-.091-1.4435-.7942-2.1765-2.1785-2.1765-1.361,0-2.1557.6412-2.3598,2.1765ZM67.6525,18.7876c0-3.6196,2.1784-5.7273,5.582-5.7273,3.3808,0,5.5593,2.1077,5.5593,5.7273,0,3.5742-2.1103,5.7502-5.5593,5.7502-3.4718,0-5.582-2.176-5.582-5.7502ZM70.761,18.7646c0,1.7639.8624,2.9096,2.4508,2.9096,1.6111,0,2.4962-1.1457,2.4962-2.9096,0-1.7409-.9079-2.8636-2.4735-2.8636-1.5884,0-2.4735,1.1227-2.4735,2.8636ZM44.665,24.1741c-.7331.2239-1.2807.3637-2.3826.3637-2.4962,0-3.5395-1.6726-3.5395-3.7344v-4.8341h-1.2479v-2.6116h1.2479v-2.4163h3.0858v2.4163h2.8363v2.6116h-2.8363v4.2384c0,.8707.3178,1.2828,1.2479,1.2828.4764,0,1.021-.1601,1.407-.2519l.1814,2.9355ZM74.6577,6.3598c0-2.0715,1.4186-3.4018,3.8123-4.6887,2.1784-1.1712,4.4397-1.671,6.6334-1.671,4.8676,0,6.2135,2.7356,6.2135,5.3758,0,2.8626-1.4262,5.1004-4.2453,5.9196-1.794.5213-4.0487.9396-4.2533,2.679-.1839,1.5598-.7699,2.125-1.5581,2.125-2.3896,0-6.6025-5.4329-6.6025-9.7396ZM80.7308,13.3036c.3966,0,.436-.4198.4663-.9855.0783-1.4547.4072-1.9404,2.1683-2.8039,1.5025-.7366,2.5569-1.9536,2.5569-3.082s-.5825-2.2806-2.231-2.2806c-1.1403,0-2.2704.3392-3.5355.9477-1.3574.6524-2.1633,1.3757-2.1633,2.4984-.0005,2.2837,1.9592,5.7058,2.7383,5.7058Z" fill="#600075"/></g></svg>