<?xml version="1.0" encoding="UTF-8"?>
<svg id="a" xmlns="http://www.w3.org/2000/svg" version="1.1" viewBox="0 0 97 27">
  <!-- Generator: Adobe Illustrator 29.8.1, SVG Export Plug-In . SVG Version: 2.1.1 Build 2)  -->
  <defs>
    <style>
      .st0 {
        fill: #fff;
      }
    </style>
  </defs>
  <g id="b">
    <path class="st0" d="M86.2,13.4v3.6h-1.2c-1.7,0-2.3.5-2.3,2.1v5.2h-3.1v-7.9c.5.3,1.1.5,1.7.5s1.1-.3,1.4-.5v.9h.2c.5-2.7,1.5-3.9,3.3-3.9h0ZM6.7,24.5c-1.9,0-2.9-1-3.4-3.3h-.2v5.2H0v-13.1h3.1v2.9h.2c.5-2.3,1.6-3.2,3.5-3.2s3.9,2.1,3.9,5.7-1.4,5.8-4,5.8ZM7.6,18.7c0-1.8-.7-2.9-2.2-2.9s-2.3,1-2.3,2.8v.2c0,1.8.8,2.9,2.3,2.9s2.2-1.1,2.2-3ZM15.3,13.1c1.9,0,2.9.9,3.4,3.3h.2v-3h3.1v10.9h-3.1v-2.9h-.2c-.5,2.3-1.6,3.3-3.4,3.3-2.6,0-3.9-2.2-3.9-5.7,0-3.7,1.4-5.8,4-5.8ZM18.9,18.9v-.2c0-1.8-.9-2.9-2.3-2.9s-2.3,1.1-2.3,3,.7,2.9,2.3,2.9c1.4,0,2.3-1,2.3-2.8ZM33,22.3v-8.9h-3.1v5c0,1.3-.7,2-2,2s-1.8-.9-1.8-2v-5h-3.1v5.9c0,2.4,1,3.9,3.3,3.9s2.9-.9,3.4-3.3h.2v2.5c0,1.2-.5,2.1-2.2,2.1s-3.2-.7-3.8-1.1l-1.2,2.5c.8.4,2.8,1.1,5.1,1.1s5.2-1.6,5.2-4.7ZM97,22.3v-8.9h-3.1v5c0,1.3-.7,2-2,2s-1.8-.9-1.8-2v-5h-3.1v5.9c0,2.4,1,3.9,3.3,3.9s2.9-.9,3.4-3.3h.2v2.5c0,1.2-.5,2.1-2.2,2.1s-3.2-.7-3.8-1.1l-1.2,2.5c.8.4,2.8,1.1,5.1,1.1s5.2-1.6,5.2-4.7h0ZM48.9,24.2h-3.1v-13.7h3.1v5.9h.2c.5-2.5,1.6-3.3,3.4-3.3s3.3,1.6,3.3,3.9v7.3h-3.1v-6.4c0-1.1-.5-2-1.8-2s-2,.7-2,2v6.4ZM56.5,19c0-3.8,2.1-6,5.6-6s4.9,2.1,4.9,5.1,0,.8,0,1.4h-7.4c.2,1.6,1,2.2,2.5,2.2s1.9-.7,2.2-1.6l2.7.8c-.5,2-1.9,3.5-4.9,3.5-3.2,0-5.5-1.9-5.5-5.5ZM59.6,17.8h4.5c0-1.4-.8-2.2-2.2-2.2s-2.2.6-2.4,2.2ZM67.7,18.8c0-3.6,2.2-5.7,5.6-5.7s5.6,2.1,5.6,5.7-2.1,5.8-5.6,5.8-5.6-2.2-5.6-5.8ZM70.8,18.8c0,1.8.9,2.9,2.5,2.9s2.5-1.1,2.5-2.9-.9-2.9-2.5-2.9-2.5,1.1-2.5,2.9ZM44.7,24.2c-.7.2-1.3.4-2.4.4-2.5,0-3.5-1.7-3.5-3.7v-4.8h-1.2v-2.6h1.2v-2.4h3.1v2.4h2.8v2.6h-2.8v4.2c0,.9.3,1.3,1.2,1.3s1-.2,1.4-.3c0,0,.2,2.9.2,2.9ZM74.7,6.4c0-2.1,1.4-3.4,3.8-4.7C80.6.5,82.9,0,85.1,0,90,0,91.3,2.7,91.3,5.4s-1.4,5.1-4.2,5.9c-1.8.5-4,.9-4.3,2.7-.2,1.6-.8,2.1-1.6,2.1-2.4,0-6.6-5.4-6.6-9.7h0ZM80.7,13.3c.4,0,.4-.4.5-1,0-1.5.4-1.9,2.2-2.8,1.5-.7,2.6-2,2.6-3.1s-.6-2.3-2.2-2.3-2.3.3-3.5.9c-1.4.7-2.2,1.4-2.2,2.5,0,2.3,2,5.7,2.7,5.7h0Z"/>
  </g>
</svg>