<svg width="2942" height="639" viewBox="0 0 2942 639" fill="none" xmlns="http://www.w3.org/2000/svg">
<g clip-path="url(#clip0_513_11)">
<path d="M118.6 411V639H0V109.6H118.4V219.4C119 219.5 119.5 219.7 120.1 219.8C120.9 217.4 121.7 215 122.4 212.5C128.4 190.1 136.5 168.6 149.8 149.4C170.4 119.8 199.2 104 234.4 99.3C260.7 95.8 286.6 97.5 311.6 107.1C343.5 119.4 365.7 142.2 381.2 172.1C396.8 202 403.5 234.3 406.9 267.5C410.8 306.8 410 346 403.4 385C397.4 419.9 386.7 453.1 364.8 481.8C340.8 513.4 308.4 529 269.6 532.4C244.1 534.6 219.1 532 195.5 521.1C164.9 507.1 146.4 482.1 134 452C129.3 440.5 126.1 428.3 122.2 416.4C121.6 414.4 121 412.5 120.4 410.5C119.8 410.6 119.2 410.7 118.6 410.9V411ZM293.8 313.7C290.7 295.7 289.2 277.4 284.3 260.1C276.8 233.6 260 214.3 232 208.1C221 205.6 209.4 204.8 198.1 205.2C164.4 206.2 136.5 227.5 126.6 259.7C115.5 295.7 115.6 331.9 126.6 367.9C137.7 404.7 167.4 426.3 205.7 426.4C246.2 426.4 274.2 406.3 284.7 367.2C289.3 350 290.9 331.9 293.9 313.8L293.8 313.7Z" fill="black"/>
<path d="M851.7 316C851.6 351.7 846.5 387.5 831.1 421.4C807.2 473.8 767.3 508.1 712 523.2C652.2 539.5 592.9 537.6 535.4 512.2C492.3 493.1 461.6 461.1 444.4 417.9C417.1 349.4 416.7 279.7 445.2 211.4C468.4 155.8 511.7 121.7 569.6 106.9C628.1 91.9 686 94.2 741.7 119.1C785.7 138.8 815.8 172.4 834.1 216.6C847.1 248.1 852.1 281.2 851.7 316.2V316ZM733.1 314.7C733.1 310.3 733.3 305.9 733.1 301.5C731.6 276.1 724.3 252.5 707 233.4C687.7 212.1 662.7 204.9 634.5 205.8C595.4 207 565.7 226.8 552.6 263.7C540 298.8 540.9 334.5 553.9 369.4C562.7 393.1 579.1 410.3 603.5 418.9C622 425.4 640.9 426.2 660 422.4C687.6 416.9 708.1 401.9 720.6 376.6C730.2 357.1 733.9 336.3 733.2 314.7H733.1Z" fill="black"/>
<path d="M2939.8 345.7H2658.1C2660.6 361 2663.9 375.5 2671.1 388.8C2681.5 408.4 2697.5 420.8 2718.7 426.3C2740.3 431.9 2762.1 432.3 2783.9 426.8C2808.7 420.6 2823.8 404.2 2832.3 380.8C2833.3 377.9 2834.3 375 2835.5 371.4C2869.7 380.9 2903.7 390.4 2938.1 400C2924.5 449.7 2898.1 488.5 2851.4 511.7C2820.8 526.9 2787.9 531.6 2754.2 532C2716.7 532.4 2680.3 526.9 2645.9 510.9C2598.2 488.6 2565.8 452.3 2551.4 402C2531.6 333.4 2535.2 265.6 2566.3 200.6C2586.3 158.8 2619.1 129.5 2662.6 113.6C2718.7 93 2775.8 91.3 2832.4 111.2C2883.2 129.1 2914.9 166.1 2931 216.9C2942.3 252.6 2942.7 289.5 2941 326.5C2940.7 332.6 2940.2 338.7 2939.8 345.8V345.7ZM2659.5 278H2832.9C2832.1 271.7 2831.7 266 2830.6 260.5C2825.4 232.9 2812.2 211.4 2784.5 201.2C2771 196.3 2756.9 195.8 2742.9 196.3C2692.9 198.1 2665.6 225.7 2659.5 278Z" fill="black"/>
<path d="M1437.3 520.7H1319.1C1319.1 518.1 1319.1 515.8 1319.1 513.5C1319.1 437.5 1319.3 361.5 1318.9 285.6C1318.9 274.1 1317.4 262.3 1314.7 251.1C1308.7 226 1292.4 210.9 1266.8 206.4C1247.1 202.9 1227.7 204.4 1209.7 213.8C1184.6 226.9 1174.8 249.2 1174.7 276.3C1174.5 354.5 1174.7 432.7 1174.7 510.8C1174.7 517.6 1171.2 521 1164.2 521C1130.6 521 1096.9 521 1063.3 521H1055.5C1055.3 518.6 1055.1 516.7 1055.1 514.8C1055.1 382.6 1055.1 250.4 1055.1 118.2C1055.1 111.8 1058.4 108.6 1065 108.6C1098.6 108.6 1132.3 108.6 1165.9 108.6C1174.5 108.6 1174.6 108.7 1174.6 117.5C1174.6 147.4 1174.6 177.2 1174.6 207.1C1174.6 210 1175.2 212.9 1175.5 216C1181.2 200.4 1185.8 185 1192.3 170.5C1208.1 135.4 1233.7 110.3 1272.1 102C1312 93.4 1351.3 95 1386.5 119.3C1409.7 135.3 1422.1 158.7 1429.3 185.2C1435.2 207 1437 229.3 1437.1 251.7C1437.1 339.1 1437.1 426.5 1437.1 513.9V520.6L1437.3 520.7Z" fill="black"/>
<path d="M886.297 44.9C886.297 11.9 907.297 0 946.197 0C985.097 0 1006.5 12 1006.5 44.9C1006.5 77.8 986.797 89.8 946.197 89.8C905.597 89.8 886.297 78.2 886.297 44.9Z" fill="black"/>
<path d="M1722.7 445.2L1790.7 377.2C1799 368.9 1812.5 368.9 1820.9 377.2L1851.4 407.7L1888.9 445.2C1897.2 453.5 1897.2 467 1888.9 475.4L1820.9 543.4C1812.6 551.7 1799.1 551.7 1790.7 543.4L1722.7 475.4C1714.4 467.1 1714.4 453.6 1722.7 445.2Z" fill="#8B6FFE"/>
<path d="M946.298 121.9C920.398 121.9 901.798 118.1 887.398 109.7V520.6H1005.6V109.5H1003.9C989.198 117.9 970.698 121.8 946.198 121.8L946.298 121.9Z" fill="black"/>
<path d="M1624.6 208.2H1733.1V109.5H1624.6V6.8H1506.3V110.1H1459V208.3H1506.6V218C1506.6 270.4 1506.5 322.8 1506.6 375.2C1506.6 389.6 1507 404.2 1508.6 418.5C1511.6 446.6 1521.3 472.3 1540.5 493.5C1563.9 519.4 1594.4 530.3 1628.4 532.4C1658.4 534.3 1687.8 531.5 1716.6 524C1721.6 522.7 1723.2 516.5 1719.6 512.9L1701 494.3C1682.3 475.6 1682.3 445.1 1701 426.4C1705.6 421.8 1701.6 414.1 1695.2 415.2C1684.6 417 1673.8 417.9 1662.8 417.1C1640.6 415.5 1627.7 403.3 1625.6 381.2C1625.1 376 1624.7 370.7 1624.7 365.5C1624.7 315.5 1624.7 265.5 1624.7 215.6V208.4L1624.6 208.2Z" fill="black"/>
<path d="M2498.6 248.7C2498.6 223.8 2495.9 199.1 2487.3 175.3C2474.6 140 2451.3 115.6 2414.8 105.3C2386.1 97.2 2357 96.9 2327.9 104.4C2296.6 112.5 2273.8 131.1 2258.5 159.2C2248.1 178.3 2241.5 198.8 2236.9 219.9C2236.3 222.7 2235.6 225.5 2234.9 228.3C2233.3 226.4 2233.2 224.7 2232.8 223.1C2229.8 207.8 2228.2 192.1 2223.6 177.3C2212.7 142.4 2190.4 117.7 2154.9 106.2C2129.6 98 2103.8 97.2 2077.8 101.5C2049.8 106.1 2026.1 118.6 2008.1 140.9C1990.3 163 1980.2 188.6 1973.8 215.9C1973.3 218.2 1972.7 220.5 1972.1 222.8C1971.6 222.8 1971.2 222.6 1970.7 222.5V110.8H1851.4V369L1908.6 426.2C1927.3 444.9 1927.3 475.4 1908.6 494.1L1904.5 498.2L1889.3 513.4C1885.7 517 1888.2 523.2 1893.4 523.2H1970.8V515.1C1970.8 462.9 1970.8 410.7 1970.8 358.5C1970.8 330.5 1970.2 302.5 1971.2 274.6C1972.2 245.7 1984.4 222.9 2012.7 212.1C2032.1 204.7 2052.2 203.9 2072.4 210C2092.2 215.9 2105.1 229.4 2110.4 248.8C2113.7 260.7 2115.1 273.5 2115.2 285.9C2115.6 362.3 2115.4 438.8 2115.4 515.2V523.1H2234V514.9C2234 459.8 2234 404.8 2234 349.7C2234 324.6 2233.3 299.4 2234.4 274.4C2235.7 245.6 2248 223 2276.3 212.1C2291.5 206.2 2307.6 205.1 2323.8 207.3C2352.3 211.3 2371.3 228.6 2376.9 256.7C2378.8 266.1 2379.6 275.9 2379.7 285.5C2379.9 362.2 2379.8 438.8 2379.8 515.5V523.4H2498.7V517.6C2498.7 427.9 2498.9 338.3 2498.6 248.6V248.7Z" fill="black"/>
</g>
<defs>
<clipPath id="clip0_513_11">
<rect width="2941.7" height="639" fill="white"/>
</clipPath>
</defs>
</svg>
