<?xml version="1.0" encoding="UTF-8"?>
<svg id="Layer_1" xmlns="http://www.w3.org/2000/svg" xmlns:xlink="http://www.w3.org/1999/xlink" version="1.1" viewBox="0 0 2942 639">
  <!-- Generator: Adobe Illustrator 30.4.0, SVG Export Plug-In . SVG Version: 2.1.4 Build 226)  -->
  <defs>
    <style>
      .st0 {
        fill: none;
      }

      .st1 {
        fill: #fff;
      }

      .st2 {
        clip-path: url(#clippath);
      }
    </style>
    <clipPath id="clippath">
      <rect class="st0" width="2941.7" height="639"/>
    </clipPath>
  </defs>
  <g class="st2">
    <g>
      <path class="st1" d="M118.6,411v228H0V109.6h118.4v109.8c.6.1,1.1.3,1.7.4.8-2.4,1.6-4.8,2.3-7.3,6-22.4,14.1-43.9,27.4-63.1,20.6-29.6,49.4-45.4,84.6-50.1,26.3-3.5,52.2-1.8,77.2,7.8,31.9,12.3,54.1,35.1,69.6,65,15.6,29.9,22.3,62.2,25.7,95.4,3.9,39.3,3.1,78.5-3.5,117.5-6,34.9-16.7,68.1-38.6,96.8-24,31.6-56.4,47.2-95.2,50.6-25.5,2.2-50.5-.4-74.1-11.3-30.6-14-49.1-39-61.5-69.1-4.7-11.5-7.9-23.7-11.8-35.6-.6-2-1.2-3.9-1.8-5.9-.6.1-1.2.2-1.8.4h0ZM293.8,313.7c-3.1-18-4.6-36.3-9.5-53.6-7.5-26.5-24.3-45.8-52.3-52-11-2.5-22.6-3.3-33.9-2.9-33.7,1-61.6,22.3-71.5,54.5-11.1,36-11,72.2,0,108.2,11.1,36.8,40.8,58.4,79.1,58.5,40.5,0,68.5-20.1,79-59.2,4.6-17.2,6.2-35.3,9.2-53.4h-.1Z"/>
      <path class="st1" d="M851.7,316c0,35.7-5.2,71.5-20.6,105.4-23.9,52.4-63.8,86.7-119.1,101.8-59.8,16.3-119.1,14.4-176.6-11-43.1-19.1-73.8-51.1-91-94.3-27.3-68.5-27.7-138.2.8-206.5,23.2-55.6,66.5-89.7,124.4-104.5,58.5-15,116.4-12.7,172.1,12.2,44,19.7,74.1,53.3,92.4,97.5,13,31.5,18,64.6,17.6,99.6v-.2h0ZM733.1,314.7c0-4.4.2-8.8,0-13.2-1.5-25.4-8.8-49-26.1-68.1-19.3-21.3-44.3-28.5-72.5-27.6-39.1,1.2-68.8,21-81.9,57.9-12.6,35.1-11.7,70.8,1.3,105.7,8.8,23.7,25.2,40.9,49.6,49.5,18.5,6.5,37.4,7.3,56.5,3.5,27.6-5.5,48.1-20.5,60.6-45.8,9.6-19.5,13.3-40.3,12.6-61.9h0,0Z"/>
      <path class="st1" d="M2939.8,345.7h-281.7c2.5,15.3,5.8,29.8,13,43.1,10.4,19.6,26.4,32,47.6,37.5,21.6,5.6,43.4,6,65.2.5,24.8-6.2,39.9-22.6,48.4-46,1-2.9,2-5.8,3.2-9.4,34.2,9.5,68.2,19,102.6,28.6-13.6,49.7-40,88.5-86.7,111.7-30.6,15.2-63.5,19.9-97.2,20.3-37.5.4-73.9-5.1-108.3-21.1-47.7-22.3-80.1-58.6-94.5-108.9-19.8-68.6-16.2-136.4,14.9-201.4,20-41.8,52.8-71.1,96.3-87,56.1-20.6,113.2-22.3,169.8-2.4,50.8,17.9,82.5,54.9,98.6,105.7,11.3,35.7,11.7,72.6,10,109.6-.3,6.1-.8,12.2-1.2,19.3h0ZM2659.5,278h173.4c-.8-6.3-1.2-12-2.3-17.5-5.2-27.6-18.4-49.1-46.1-59.3-13.5-4.9-27.6-5.4-41.6-4.9-50,1.8-77.3,29.4-83.4,81.7h0Z"/>
      <path class="st1" d="M1437.3,520.7h-118.2v-7.2c0-76,.2-152-.2-227.9,0-11.5-1.5-23.3-4.2-34.5-6-25.1-22.3-40.2-47.9-44.7-19.7-3.5-39.1-2-57.1,7.4-25.1,13.1-34.9,35.4-35,62.5-.2,78.2,0,156.4,0,234.5s-3.5,10.2-10.5,10.2h-108.7c-.2-2.4-.4-4.3-.4-6.2V118.2c0-6.4,3.3-9.6,9.9-9.6h100.9c8.6,0,8.7,0,8.7,8.9v89.6c0,2.9.6,5.8.9,8.9,5.7-15.6,10.3-31,16.8-45.5,15.8-35.1,41.4-60.2,79.8-68.5,39.9-8.6,79.2-7,114.4,17.3,23.2,16,35.6,39.4,42.8,65.9,5.9,21.8,7.7,44.1,7.8,66.5v268.9h.2,0Z"/>
      <path class="st1" d="M886.3,44.9c0-33,21-44.9,59.9-44.9s60.3,12,60.3,44.9-19.7,44.9-60.3,44.9-59.9-11.6-59.9-44.9Z"/>
      <path class="st1" d="M1722.7,445.2l68-68c8.3-8.3,21.8-8.3,30.2,0l30.5,30.5,37.5,37.5c8.3,8.3,8.3,21.8,0,30.2l-68,68c-8.3,8.3-21.8,8.3-30.2,0l-68-68c-8.3-8.3-8.3-21.8,0-30.2Z"/>
      <path class="st1" d="M946.3,121.9c-25.9,0-44.5-3.8-58.9-12.2v410.9h118.2V109.5h-1.7c-14.7,8.4-33.2,12.3-57.7,12.3h.1Z"/>
      <path class="st1" d="M1624.6,208.2h108.5v-98.7h-108.5V6.8h-118.3v103.3h-47.3v98.2h47.6v166.9c0,14.4.4,29,2,43.3,3,28.1,12.7,53.8,31.9,75,23.4,25.9,53.9,36.8,87.9,38.9,30,1.9,59.4-.9,88.2-8.4,5-1.3,6.6-7.5,3-11.1l-18.6-18.6c-18.7-18.7-18.7-49.2,0-67.9,4.6-4.6.6-12.3-5.8-11.2-10.6,1.8-21.4,2.7-32.4,1.9-22.2-1.6-35.1-13.8-37.2-35.9-.5-5.2-.9-10.5-.9-15.7v-157.3h0Z"/>
      <path class="st1" d="M2498.6,248.7c0-24.9-2.7-49.6-11.3-73.4-12.7-35.3-36-59.7-72.5-70-28.7-8.1-57.8-8.4-86.9-.9-31.3,8.1-54.1,26.7-69.4,54.8-10.4,19.1-17,39.6-21.6,60.7-.6,2.8-1.3,5.6-2,8.4-1.6-1.9-1.7-3.6-2.1-5.2-3-15.3-4.6-31-9.2-45.8-10.9-34.9-33.2-59.6-68.7-71.1-25.3-8.2-51.1-9-77.1-4.7-28,4.6-51.7,17.1-69.7,39.4-17.8,22.1-27.9,47.7-34.3,75-.5,2.3-1.1,4.6-1.7,6.9-.5,0-.9-.2-1.4-.3v-111.7h-119.3v258.2l57.2,57.2c18.7,18.7,18.7,49.2,0,67.9l-4.1,4.1-15.2,15.2c-3.6,3.6-1.1,9.8,4.1,9.8h77.4v-164.7c0-28-.6-56,.4-83.9,1-28.9,13.2-51.7,41.5-62.5,19.4-7.4,39.5-8.2,59.7-2.1,19.8,5.9,32.7,19.4,38,38.8,3.3,11.9,4.7,24.7,4.8,37.1.4,76.4.2,152.9.2,229.3v7.9h118.6v-173.4c0-25.1-.7-50.3.4-75.3,1.3-28.8,13.6-51.4,41.9-62.3,15.2-5.9,31.3-7,47.5-4.8,28.5,4,47.5,21.3,53.1,49.4,1.9,9.4,2.7,19.2,2.8,28.8.2,76.7.1,153.3.1,230v7.9h118.9v-5.8c0-89.7.2-179.3,0-269h-.1Z"/>
    </g>
  </g>
</svg>