<svg width="81" height="26" viewBox="0 0 81 26" fill="none" xmlns="http://www.w3.org/2000/svg">
<path d="M74.8061 11.7005C74.8061 8.8339 72.4717 6.5027 69.6012 6.5027H58.6708V25.2147H52.9453V3.64393C52.9453 2.06381 54.2257 0.785156 55.808 0.785156H69.6012C75.6389 0.785156 80.5316 5.67106 80.5316 11.7005V25.2147H74.8061V11.7005Z" fill="#FF2FB6"/>
<path d="M50.0809 0.785156H44.3555V25.2147H50.0809V0.785156Z" fill="#FF2FB6"/>
<path d="M33.4263 25.2147C37.8817 25.2147 41.4939 21.6074 41.4939 17.1581V8.84169C41.4939 4.39241 37.8817 0.785156 33.4263 0.785156H10.9304C4.89266 0.785156 0 5.67106 0 11.7005V25.2147H5.72546V11.7005C5.72546 8.8339 8.05988 6.5027 10.9304 6.5027H33.4263C34.7171 6.5027 35.7685 7.55265 35.7685 8.84169V17.1581C35.7685 18.4472 34.7171 19.4971 33.4263 19.4971H23.0163C21.7255 19.4971 20.6741 18.4472 20.6741 17.1581C20.6741 15.8691 21.7255 14.8191 23.0163 14.8191H33.166V9.10158H23.0163C18.5609 9.10158 14.9486 12.7088 14.9486 17.1581C14.9486 21.6074 18.5609 25.2147 23.0163 25.2147H33.4263Z" fill="#FF2FB6"/>
</svg>
