<svg width="185" height="16" viewBox="0 0 185 16" fill="none" xmlns="http://www.w3.org/2000/svg">
<g clip-path="url(#clip0_705_48)">
<path d="M35.7856 0.36648V2.67295H27.5518V6.51931H34.9465V8.70138H27.5518V12.5881H36.0462V14.8979H24.9453V0.363118H35.782L35.7856 0.36648ZM47.5257 2.27957C46.8723 2.25604 46.226 2.40734 45.6583 2.71666C45.1762 2.99908 44.8977 3.50341 44.9299 4.03464C44.9049 4.57259 45.1798 5.08701 45.6583 5.38625C46.1439 5.69893 47.1793 6.03515 48.7611 6.39491C50.3429 6.75466 51.5319 7.25899 52.3281 7.91126C53.1315 8.56353 53.5314 9.52176 53.5314 10.7893C53.5671 11.9862 53.003 13.126 52.0103 13.8724C50.9927 14.6626 49.6609 15.0559 48.0148 15.0559C45.6011 15.0559 43.4588 14.2725 41.5914 12.7058L43.2267 10.8566C44.787 12.1308 46.4045 12.7696 48.0827 12.7696C48.9182 12.7696 49.5859 12.5982 50.0786 12.2586C50.5535 11.956 50.832 11.4483 50.8178 10.907C50.8392 10.3892 50.575 9.89832 50.1215 9.60245C49.6573 9.29313 48.8611 9.00734 47.7292 8.75181C46.858 8.56689 45.9975 8.33154 45.1584 8.04239C44.5871 7.84065 44.0515 7.55823 43.573 7.20184C42.659 6.54957 42.2055 5.551 42.2055 4.20948C42.2055 2.86796 42.7268 1.82904 43.7694 1.1028C44.8085 0.376567 46.0939 0.0134488 47.6221 0.0100866C48.6218 0.0100866 49.6109 0.16811 50.5571 0.467346C51.4712 0.746409 52.3245 1.1835 53.0672 1.75843L51.6818 3.60764C51.1391 3.17392 50.5071 2.84778 49.8287 2.64942C49.086 2.40734 48.3076 2.27957 47.5221 2.27621H47.5292L47.5257 2.27957ZM71.2272 3.79256C69.142 1.7786 65.7178 1.7349 63.579 3.69842C63.5469 3.72868 63.5112 3.75894 63.4791 3.79256C62.44 4.78441 61.8687 6.12593 61.8973 7.51788C61.8687 8.90983 62.44 10.2547 63.4791 11.2432C65.5643 13.2572 68.9885 13.3009 71.1273 11.3373C71.1594 11.3071 71.1951 11.2768 71.2272 11.2432C72.2663 10.2514 72.8376 8.90983 72.809 7.51788C72.834 6.12593 72.2663 4.78105 71.2272 3.79256ZM73.1375 12.8873C71.5772 14.323 69.649 15.0391 67.3532 15.0391C65.0573 15.0391 63.1292 14.323 61.5688 12.8873C60.0049 11.4517 59.2194 9.66969 59.2194 7.53469C59.2194 5.3997 59.9977 3.61437 61.5581 2.17198C63.1184 0.736322 65.0466 0.0201732 67.3424 0.0201732C69.6383 0.0201732 71.5665 0.73296 73.1268 2.1619C74.6871 3.59756 75.4691 5.38625 75.4691 7.53469C75.4691 9.68314 74.6871 11.4651 73.1268 12.8873H73.1375ZM94.5361 5.08365C94.5361 7.4809 93.4256 8.99053 91.2011 9.6159L95.2395 14.8946H91.926L88.2411 10.0093H84.8205V14.8946H82.214V0.363118H87.9519C90.3049 0.363118 91.9902 0.736322 93.0078 1.47937C94.0219 2.22578 94.5325 3.42272 94.5325 5.07692V5.08365H94.5361ZM88.0697 7.7835C89.5408 7.7835 90.5406 7.56832 91.0726 7.13795C91.6046 6.70759 91.8653 6.0217 91.8653 5.0702C91.8653 4.1187 91.5939 3.46979 91.0476 3.11676C90.5013 2.76373 89.5337 2.5889 88.134 2.5889H84.8276V7.7835H88.0733H88.0697ZM107.58 2.60907V14.8946H104.977V2.61243H100.299V0.36648H112.264V2.61243H107.583L107.58 2.60907ZM123.844 0.363118C126.182 0.363118 127.893 0.786755 128.967 1.63067C130.042 2.47458 130.578 3.77911 130.578 5.54427C130.578 7.3027 130.031 8.59379 128.935 9.4108C127.839 10.2278 126.161 10.6346 123.901 10.6313H121.155V14.8946H118.559V0.363118H123.847H123.844ZM124.176 8.40887C125.618 8.40887 126.6 8.14998 127.125 7.62884C127.65 7.10769 127.91 6.34784 127.918 5.34254C127.918 4.3406 127.589 3.62782 126.929 3.2109C126.268 2.79399 125.233 2.58553 123.815 2.5889H121.155V8.40887H124.179H124.176ZM139.294 11.5895L137.747 14.8946H134.966L141.764 0.363118H144.546L151.344 14.8946H148.563L147.017 11.5895H139.29H139.294ZM145.96 9.32339L143.157 3.3353L140.354 9.32339H145.96ZM161.617 2.27621C160.963 2.25268 160.317 2.40397 159.749 2.7133C159.267 2.99572 158.989 3.50005 159.021 4.03128C158.996 4.56923 159.271 5.08365 159.749 5.38288C160.235 5.69557 161.27 6.03179 162.852 6.39155C164.434 6.7513 165.627 7.25563 166.434 7.9079C167.233 8.56017 167.637 9.51839 167.637 10.7859C167.669 11.9829 167.101 13.126 166.109 13.8691C165.091 14.6592 163.759 15.0526 162.113 15.0526C159.699 15.0526 157.557 14.2692 155.69 12.7024L157.321 10.8532C158.882 12.1275 160.499 12.7663 162.177 12.7663C163.017 12.7663 163.681 12.5948 164.173 12.2552C164.648 11.9526 164.927 11.4449 164.912 10.9036C164.934 10.3858 164.67 9.89496 164.216 9.59909C163.752 9.28976 162.956 9.00398 161.824 8.74845C160.949 8.56353 160.085 8.32817 159.242 8.03902C158.678 7.83729 158.15 7.55487 157.675 7.19847C156.761 6.54957 156.304 5.551 156.307 4.20611C156.307 2.85787 156.829 1.82231 157.864 1.09944C158.903 0.373204 160.189 0.0100866 161.717 0.0067244C162.717 0.0067244 163.709 0.161386 164.655 0.463984C165.573 0.739684 166.423 1.18013 167.169 1.75507L165.784 3.60428C165.241 3.17056 164.609 2.84442 163.931 2.64605C163.188 2.40397 162.41 2.27621 161.624 2.27285H161.617V2.27621ZM178.984 2.27285C178.331 2.24931 177.684 2.40061 177.12 2.70993C176.638 2.99236 176.36 3.49669 176.392 4.02792C176.367 4.56923 176.642 5.08029 177.12 5.37952C177.606 5.69221 178.638 6.02843 180.22 6.38818C181.801 6.74794 182.994 7.25227 183.797 7.90454C184.597 8.5568 185.001 9.51503 185.001 10.7826C185.036 11.9795 184.472 13.1227 183.476 13.8691C182.462 14.6592 181.13 15.0526 179.48 15.0526C177.067 15.0526 174.924 14.2692 173.057 12.7024L174.692 10.8532C176.253 12.1275 177.87 12.7663 179.548 12.7663C180.387 12.7663 181.052 12.5948 181.548 12.2552C182.019 11.9526 182.298 11.4449 182.287 10.9036C182.305 10.3858 182.044 9.89496 181.594 9.59909C181.13 9.28976 180.334 9.00398 179.198 8.74845C178.324 8.56353 177.46 8.32817 176.617 8.03902C176.053 7.83729 175.524 7.55151 175.049 7.19847C174.139 6.54621 173.682 5.54763 173.682 4.19939C173.682 2.85115 174.2 1.81559 175.239 1.09272C176.274 0.36648 177.56 0.0033622 179.091 0C180.091 0 181.08 0.158023 182.026 0.457259C182.944 0.73296 183.797 1.17341 184.54 1.74835L183.155 3.59756C182.612 3.16383 181.98 2.8377 181.301 2.63933C180.559 2.39389 179.777 2.26612 178.988 2.26276L178.984 2.27285Z" fill="white"/>
<path fill-rule="evenodd" clip-rule="evenodd" d="M0 10.7118C3.57773 7.59842 7.76246 6.93606 10.7118 7.8405C14.0039 8.84916 15.4928 13.5462 18.2957 13.4352C20.0346 13.3646 19.2062 10.342 17.9386 11.4145C17.9386 11.4145 18.6992 9.05425 20.5023 10.3487C21.8163 11.2935 21.7378 13.5428 20.9201 14.6422C19.2705 16.8613 15.4928 16.0947 13.9824 14.2455C12.6613 12.6249 11.7794 11.2565 10.3333 10.1201C9.46206 9.43418 8.21236 9.1215 6.83411 9.07779V14.9078H4.22758V9.27952C2.66723 9.55186 1.14973 10.073 0 10.7118ZM4.22758 7.05038C4.58464 6.9327 4.94884 6.82847 5.31661 6.74106C5.81292 6.62338 6.31994 6.53596 6.83411 6.4788V2.5921H10.1476C11.5473 2.5921 12.5185 2.7703 13.0648 3.12333C13.6111 3.47636 13.8825 4.12863 13.8825 5.08013C13.8825 6.03163 13.6182 6.72088 13.0862 7.15125C12.9255 7.28237 12.722 7.39332 12.4721 7.4841C13.2076 7.938 13.8432 8.52302 14.4323 9.13831C15.8463 8.35491 16.5533 7.00667 16.5533 5.09358C16.5533 3.44274 16.0462 2.24243 15.0286 1.49602C14.011 0.746251 12.3257 0.373047 9.96909 0.373047H4.22758V7.0571V7.05038Z" fill="white"/>
</g>
<defs>
<clipPath id="clip0_705_48">
<rect width="185" height="16" fill="white"/>
</clipPath>
</defs>
</svg>
