<?xml version="1.0" encoding="UTF-8"?>
<svg id="Layer_1" xmlns="http://www.w3.org/2000/svg" version="1.1" viewBox="0 0 990 256">
  <!-- Generator: Adobe Illustrator 30.4.0, SVG Export Plug-In . SVG Version: 2.1.4 Build 226)  -->
  <defs>
    <style>
      .st0 {
        fill: #fff;
      }
    </style>
  </defs>
  <path class="st0" d="M122.5,57l-3.8,8.4c-9.1-5.2-19.4-7.8-29.9-7.6-13,0-25.7,4.4-35.8,12.6-10.2,7.8-18.4,17.9-24,29.5-5.6,11.2-8.4,28.6-8.4,52.2v101.4H0V51.5h20.6v44.6c6.4-13.5,16.4-25,28.8-33.2,12.2-8.9,26.8-13.7,41.9-13.9,10.9-.3,21.7,2.5,31.1,8"/>
  <path class="st0" d="M385.5,156.7h-177.2c0,15.1,3,30,9.1,43.8,5.8,13.5,15.3,25.2,27.4,33.7,12.2,8.7,26.9,13,44,13,15.8.2,31.3-3.7,45.1-11.2,13.8-7.5,25.5-18.4,34-31.7l7.2,5c-9.4,14.2-22.1,25.9-37,34.1-15,8.4-32,12.7-49.2,12.6-18.3.1-36.2-4.7-52-13.9-15.6-9-28.6-22-37.7-37.7-9.1-15.8-13.9-33.7-13.9-52s4.8-36.2,13.9-52c9-15.6,22-28.6,37.7-37.7,15.8-9.2,33.7-14,52-13.9,17.8-.3,35.2,4.5,50.3,13.9,14.6,9.2,26.6,22.1,34.5,37.5,8.4,16.1,12.6,34,12.4,52.2l-.4,4.2ZM244.5,70.7c-12,8.5-21.4,20.1-27.1,33.7-6,13.7-9.1,28.6-9,43.5h154c-.6-25.2-6.7-46.6-18.5-64-11.8-17.4-30.3-26.1-55.6-26.1-17.1,0-31.7,4.3-43.8,12.8"/>
  <path class="st0" d="M514.2,248.2c-12.7-5.1-24.2-12.8-33.9-22.5l6.3-6.3c8.8,8.8,19.2,15.8,30.7,20.6,11.5,4.8,23.8,7.2,36.2,7.2,10.7.2,21.3-2,30.9-6.5,7.8-3.5,14.7-8.9,20-15.6,4.5-6,6.7-11.6,6.7-16.6.2-6.4-2-12.7-6.1-17.7-4.7-5.3-10.3-9.6-16.6-12.8-7-3.8-18.7-9.3-34.9-16.6-2.2-1.1-10.9-4.9-26.1-11.4s-26.9-14-35.1-22.7c-8.3-8.7-12.4-18.1-12.4-28.2,0-9.6,3.8-18.8,10.5-25.7,7.7-8,17.2-14.2,27.8-17.9,24.4-9.2,51.3-8.7,75.3,1.5,12.4,5.2,23.7,12.8,33.3,22.3l-6.3,6.3c-8.6-8.9-18.9-15.9-30.3-20.6-11.5-4.8-23.8-7.2-36.2-7.2-13.5,0-24.7,2.8-33.7,8.4-9,5.6-14.7,11.6-17.3,18.1-1.1,3-1.7,6.1-1.7,9.3,0,6.7,2.9,13,8.8,18.7,5.9,5.8,12.7,10.7,20,14.5,7.4,3.9,17.6,8.8,30.5,14.7l8.4,3.8c15.1,6.7,27,12.3,35.6,16.8,8,4.1,15.2,9.6,21.3,16.2,5.4,5.9,8.5,13.6,8.4,21.7,0,8.4-3.7,17-11.2,25.7-8.2,9.3-18.3,16.7-29.7,21.7-12.4,5.8-25.9,8.7-39.6,8.6-13.6,0-27.2-2.6-39.8-7.8"/>
  <path class="st0" d="M732.1,55.7V0h20.6v55.7h66.5v8.8h-66.5v109c-.2,10.6.6,21.3,2.3,31.8,1.1,7.5,3.9,14.6,8.2,20.8,9.3,12.9,23.3,19.4,42.1,19.4,8.5,0,16.9-.9,25.3-2.5l2.5,8.4c-5.6,1.7-11.4,2.9-17.3,3.4-6.6.8-13.2,1.2-19.8,1.3-9-.2-17.9-1.9-26.3-5-9.4-3.2-17.7-9-23.8-16.8-9.3-11.5-13.9-31.4-13.9-59.7V55.7Z"/>
  <path class="st0" d="M986.1,255.8c.5,0,1.1-.1,1.6-.3.5-.2.9-.5,1.3-1,.4-.4.6-.9.8-1.4.2-.5.2-1.1.2-1.6-1.1-9.2-5.5-17.6-12.4-23.8-6.9-6.1-15.8-9.5-25.1-9.5s-18.2,3.4-25.1,9.5c-6.9,6.1-11.3,14.6-12.4,23.8,0,.5,0,1.1.2,1.6.2.5.4,1,.8,1.4.4.4.8.7,1.3,1,.5.2,1,.3,1.6.3h67.1Z"/>
</svg>