<?xml version="1.0" encoding="UTF-8"?>
<svg id="b" xmlns="http://www.w3.org/2000/svg" version="1.1" viewBox="0 0 126.7 54">
  <!-- Generator: Adobe Illustrator 29.8.1, SVG Export Plug-In . SVG Version: 2.1.1 Build 2)  -->
  <defs>
    <style>
      .st0 {
        fill: #fff;
      }
    </style>
  </defs>
  <g id="c">
    <path class="st0" d="M124.6,29.9H43.7V2.1h80.9v27.8ZM124.6,51.9H43.7v-19.8h80.9v19.8ZM41.6,51.9H2.1V2.1h39.5v49.8ZM0,54h126.7V0H0v54Z"/>
    <path class="st0" d="M56.5,15.5c.4,0,.7,0,1.1,0,.4,0,.7-.2,1-.3.3-.1.5-.4.7-.6s.3-.6.3-1,0-.7-.3-.9c-.2-.2-.4-.4-.6-.6-.3-.1-.6-.2-.9-.3-.3,0-.7,0-1,0h-2.2s0,3.9,0,3.9M52,9.4h4.8c.7,0,1.3,0,1.9.2.6.1,1.2.4,1.6.7.5.3.9.7,1.2,1.3.3.5.4,1.1.4,1.9,0,1-.3,1.9-.9,2.5-.6.6-1.3,1.1-2.3,1.3l3.7,6.2h-3s-3.2-6-3.2-6h-1.8s0,6,0,6h-2.5s0-14.1,0-14.1h0Z"/>
    <path class="st0" d="M66.4,16.4c0,.8.1,1.4.3,2.1.2.6.6,1.2,1,1.6.4.5.9.8,1.5,1.1.6.3,1.2.4,1.9.4s1.4-.1,1.9-.4c.6-.3,1.1-.6,1.5-1.1.4-.5.8-1,1-1.6.2-.6.3-1.3.3-2.1,0-.7-.1-1.4-.3-2-.2-.6-.6-1.2-1-1.6-.4-.5-.9-.8-1.5-1.1-.6-.3-1.2-.4-2-.4s-1.4.1-2,.4c-.6.3-1.1.6-1.5,1.1-.4.5-.7,1-1,1.6-.2.6-.3,1.3-.3,2M63.7,16.4c0-1.1.2-2.1.6-3,.4-.9.9-1.7,1.6-2.3.7-.6,1.4-1.1,2.4-1.5.9-.3,1.9-.5,3-.5,1.1,0,2.1.2,3,.5.9.3,1.7.8,2.4,1.5.7.6,1.2,1.4,1.6,2.3.4.9.6,1.9.6,3,0,1.1-.2,2.1-.6,3-.4.9-.9,1.7-1.6,2.3-.7.7-1.5,1.2-2.4,1.5-.9.4-1.9.5-3,.5-1.1,0-2.1-.2-3-.5-.9-.4-1.7-.9-2.4-1.5-.7-.7-1.2-1.4-1.6-2.3-.4-.9-.6-1.9-.6-3"/>
    <path class="st0" d="M83.1,16.4c0,.8.1,1.4.3,2.1.2.6.6,1.2,1,1.6.4.5.9.8,1.5,1.1.6.3,1.2.4,1.9.4s1.4-.1,1.9-.4c.6-.3,1.1-.6,1.5-1.1s.8-1,1-1.6c.2-.6.3-1.3.3-2.1s-.1-1.4-.3-2c-.2-.6-.6-1.2-1-1.6-.4-.5-.9-.8-1.5-1.1-.6-.3-1.2-.4-2-.4s-1.4.1-2,.4c-.6.3-1.1.6-1.5,1.1-.4.5-.7,1-1,1.6-.2.6-.3,1.3-.3,2M80.4,16.4c0-1.1.2-2.1.6-3,.4-.9.9-1.7,1.6-2.3.7-.6,1.4-1.1,2.4-1.5.9-.3,1.9-.5,3-.5,1.1,0,2.1.2,3,.5.9.3,1.7.8,2.4,1.5.7.6,1.2,1.4,1.6,2.3.4.9.6,1.9.6,3,0,1.1-.2,2.1-.6,3-.4.9-.9,1.7-1.6,2.3-.7.7-1.5,1.2-2.4,1.5-.9.4-1.9.5-3,.5-1.1,0-2.1-.2-3-.5s-1.7-.9-2.4-1.5c-.7-.7-1.2-1.4-1.6-2.3-.4-.9-.6-1.9-.6-3"/>
    <polyline class="st0" points="100 11.6 95.7 11.6 95.7 9.4 106.8 9.4 106.8 11.6 102.5 11.6 102.5 23.5 100 23.5"/>
    <path class="st0" d="M115.5,12.4c-.3-.3-.6-.6-1.1-.9-.5-.2-1-.3-1.4-.3s-.6,0-.9.1c-.3,0-.6.2-.8.3-.2.2-.4.4-.6.6-.2.2-.2.5-.2.9,0,.3,0,.6.2.8.1.2.3.4.5.6.2.2.5.3.8.4.3.1.7.2,1.1.4.4.1.9.3,1.4.5.5.2.9.4,1.3.7.4.3.7.7,1,1.2.3.5.4,1,.4,1.7,0,.8-.1,1.4-.4,2-.3.6-.6,1-1.1,1.4-.5.4-1,.6-1.6.8-.6.2-1.3.3-1.9.3s-1.8-.2-2.7-.5-1.6-.8-2.1-1.5l1.8-1.7c.3.5.8.9,1.4,1.1.6.3,1.1.4,1.7.4.3,0,.6,0,.9-.1.3,0,.6-.2.8-.4.2-.2.4-.4.6-.6.2-.3.2-.6.2-1,0-.4,0-.7-.3-.9-.2-.2-.4-.5-.7-.6-.3-.2-.6-.3-1-.5-.4-.1-.8-.3-1.2-.4-.4-.1-.8-.3-1.3-.5s-.8-.4-1.1-.7c-.3-.3-.6-.7-.8-1.1-.2-.4-.3-1-.3-1.7s.1-1.3.4-1.8c.3-.5.7-.9,1.2-1.3.5-.3,1-.6,1.6-.8.6-.2,1.2-.2,1.9-.2s1.4.1,2.2.4c.7.3,1.4.6,1.9,1.1"/>
    <polyline class="st0" points="51.8 39.5 53 39.5 55.4 43.4 55.4 43.4 55.4 39.5 56.3 39.5 56.3 44.7 55.2 44.7 52.7 40.7 52.7 40.7 52.7 44.7 51.8 44.7"/>
    <path class="st0" d="M60.2,42.7l-.8-2.1-.8,2.1M59.1,39.5h.8s2.2,5.2,2.2,5.2h-1l-.5-1.2h-2.2s-.5,1.2-.5,1.2h-1s2.2-5.2,2.2-5.2h0Z"/>
    <polyline class="st0" points="63.2 40.3 61.6 40.3 61.6 39.5 65.7 39.5 65.7 40.3 64.1 40.3 64.1 44.7 63.2 44.7"/>
    <path class="st0" d="M70.4,42.8c0,.3,0,.6-.2.8-.1.3-.3.5-.4.6-.2.2-.4.3-.7.4-.3,0-.5.1-.8.1s-.6,0-.8-.1c-.3,0-.5-.2-.7-.4-.2-.2-.3-.4-.4-.6-.1-.3-.2-.5-.2-.8v-3.3s.9,0,.9,0v3.3c0,.2,0,.3,0,.5,0,.1.1.3.2.4,0,.1.2.2.4.3.1,0,.3.1.6.1s.4,0,.6-.1c.1,0,.3-.2.4-.3,0-.1.2-.3.2-.4,0-.1,0-.3,0-.5v-3.3h.9"/>
    <path class="st0" d="M73.2,41.7c.1,0,.3,0,.4,0,.1,0,.2,0,.4-.1.1,0,.2-.1.3-.2,0,0,.1-.2.1-.4s0-.3,0-.3-.1-.2-.2-.2c0,0-.2,0-.3-.1-.1,0-.2,0-.4,0h-.8v1.5M71.5,39.5h1.8c.2,0,.5,0,.7,0,.2,0,.4.1.6.3.2.1.3.3.4.5.1.2.2.4.2.7,0,.4-.1.7-.3.9-.2.2-.5.4-.9.5l1.4,2.3h-1.1l-1.2-2.2h-.7v2.2h-.9v-5.2Z"/>
    <path class="st0" d="M78.9,42.7l-.8-2.1-.8,2.1M77.7,39.5h.8l2.2,5.2h-1l-.5-1.2h-2.2l-.5,1.2h-1s2.2-5.2,2.2-5.2Z"/>
    <polyline class="st0" points="81.2 39.5 82.2 39.5 82.2 43.9 84.4 43.9 84.4 44.7 81.2 44.7"/>
    <polyline class="st0" points="86.6 39.5 87.5 39.5 87.5 41.8 87.6 41.8 89.7 39.5 91 39.5 88.5 41.9 91.1 44.7 89.8 44.7 87.6 42.1 87.5 42.1 87.5 44.7 86.6 44.7"/>
    <rect class="st0" x="91.6" y="39.5" width=".9" height="5.2"/>
    <polyline class="st0" points="94.7 40.3 93.2 40.3 93.2 39.5 97.2 39.5 97.2 40.3 95.7 40.3 95.7 44.7 94.7 44.7"/>
    <path class="st0" d="M101.3,40.7c-.1-.2-.3-.3-.5-.4-.2,0-.4-.1-.6-.1s-.5,0-.7.1c-.2,0-.4.2-.6.4-.2.2-.3.4-.4.6,0,.2-.1.5-.1.8s0,.5.1.8c0,.2.2.4.4.6.2.2.3.3.6.4.2,0,.5.1.7.1s.5,0,.7-.2c.2-.1.4-.3.5-.4l.7.5c-.2.3-.5.5-.8.7-.3.2-.7.2-1.2.2s-.8,0-1.1-.2c-.3-.1-.6-.3-.9-.6-.2-.2-.4-.5-.6-.9-.1-.3-.2-.7-.2-1.1s0-.8.2-1.1c.1-.3.3-.6.6-.9.2-.2.5-.4.9-.5.3-.1.7-.2,1.1-.2s.3,0,.5,0,.4,0,.5.1c.2,0,.3.1.5.2.1,0,.3.2.4.4"/>
    <polyline class="st0" points="102.7 39.5 103.6 39.5 103.6 41.6 106 41.6 106 39.5 106.9 39.5 106.9 44.7 106 44.7 106 42.4 103.6 42.4 103.6 44.7 102.7 44.7"/>
    <polyline class="st0" points="108.1 39.5 111.5 39.5 111.5 40.3 109 40.3 109 41.6 111.4 41.6 111.4 42.4 109 42.4 109 43.9 111.6 43.9 111.6 44.7 108.1 44.7"/>
    <polyline class="st0" points="112.5 39.5 113.7 39.5 116.1 43.4 116.1 43.4 116.1 39.5 117.1 39.5 117.1 44.7 115.9 44.7 113.4 40.7 113.4 40.7 113.4 44.7 112.5 44.7"/>
    <path class="st0" d="M32.8,13.6c-1.8.2-3.6,0-5.3.6-.4.2-.7.3-1,.5-.6.4-1.2.9-1.6,1.6-.5,1-.4,2.3-1.3,3,0,0-.4.3-.4.3-.8.6-.9-.4-.9-.4v-1c0-1,.6-1.7,1.4-2.4,1.1-1.1,1.9-3,1.7-4.6-.3-2.9-3.2-4.3-3.7-7h0c0,0,0,0,0,0h0c0,0,0,0,0,0h0s0,0,0,0h0c-.5,2.8-3.4,4.1-3.7,7.1-.2,1.6.6,3.5,1.7,4.6.8.7,1.4,1.4,1.4,2.4v1s-.1,1-.9.4c0,0-.4-.3-.4-.3-.9-.7-.8-2.1-1.3-3-.4-.7-.9-1.2-1.6-1.6-.3-.2-.7-.4-1-.5-1.7-.7-3.5-.4-5.3-.6-1.3-.2-2.4-.6-2.9-1.9.6,1.5.7,3.2,1.5,4.7,1.5,2.8,3.5,4.4,6.7,4.2,1,0,1.9-.5,2.8-.6,0,0,1.8-.1,2.5,4v11.4h0c-.3,0-.5.2-.7.4-.4.5-.6,1.2-.7,1.8-.1.6-.2,1.2-.5,1.8-.1.3-.2.5-.4.8-.2.3-.5.7-.9.9,0,0,1.2.3,2.4-2.5.1-.3.2-.5.3-.8,0-.3.4-.3.5,0l.2,3.6c-.2,0-.3.2-.4.3-.3.3-.4.8-.5,1.2,0,.4-.2.8-.3,1.2,0,.2-.2.3-.3.5-.1.2-.3.5-.6.6,0,0,.8.2,1.6-1.7,0-.2.1-.4.2-.5,0-.2.3-.2.4,0l.3,7.2h0l.3-7.2c0-.1.3-.1.4,0,0,.2.1.4.2.5.8,1.9,1.6,1.7,1.6,1.7-.3,0-.5-.3-.6-.6,0-.2-.2-.3-.3-.5-.2-.4-.2-.8-.3-1.2,0-.4-.2-.9-.5-1.2-.1-.1-.3-.3-.4-.3l.2-3.6c0-.2.4-.2.5,0,0,.3.2.5.3.8,1.2,2.8,2.4,2.5,2.4,2.5-.4-.1-.7-.5-.9-.9-.1-.2-.3-.5-.4-.8-.2-.6-.4-1.2-.5-1.8-.1-.6-.3-1.3-.7-1.8-.2-.2-.4-.4-.7-.4h0v-11.4c.7-4.1,2.4-4,2.5-4,.9.2,1.8.6,2.8.6,3.2.1,5.2-1.5,6.7-4.2.8-1.5.9-3.1,1.5-4.7-.5,1.3-1.6,1.8-2.9,1.9"/>
  </g>
</svg>