<?xml version="1.0" encoding="UTF-8"?><svg id="b" xmlns="http://www.w3.org/2000/svg" viewBox="0 0 126.658 53.9699"><g id="c"><path d="M124.599,29.9189H43.7131V2.0767h80.8859v27.8422ZM124.599,51.8929H43.7131v-19.843h80.8859v19.843ZM41.59,51.8929H2.0591V2.0757h39.5309v49.8172ZM0,53.9699h126.658V0H0v53.9699Z" fill="#142f40"/><path d="M56.472,15.4769c.355,0,.709-.027,1.064-.08.355-.052.6721-.1511.9551-.2971.281-.145.515-.354.699-.625s.276-.618.276-1.042c0-.384-.085-.697-.257-.943-.169-.244-.387-.44-.648-.586-.264-.145-.561-.244-.896-.298-.334-.052-.659-.079-.974-.079l-2.246-.001v3.95M51.967,9.4209l4.842.002c.657,0,1.293.0701,1.9091.209.618.139,1.166.368,1.645.6851.479.318.862.735,1.15,1.251.289.516.434,1.145.434,1.886-.002,1.019-.288,1.85-.8591,2.49-.5699.642-1.348,1.075-2.332,1.299l3.718,6.235-2.993-.001-3.2271-5.956-1.811-.001-.001,5.955-2.481-.001.006-14.053Z" fill="#142f40"/><path d="M66.374,16.4119c0,.755.114,1.447.344,2.075.229.629.5569,1.175.9839,1.638.426.464.931.825,1.515,1.082.584.259,1.231.388,1.939.388.709,0,1.3589-.128,1.949-.386.591-.258,1.1-.618,1.526-1.081.427-.464.755-1.009.985-1.637.23-.629.345-1.32.345-2.074.001-.728-.114-1.403-.343-2.025-.23-.6219-.554-1.164-.974-1.6279-.42-.4631-.925-.827-1.516-1.093-.59-.264-1.246-.397-1.968-.397s-1.375.1309-1.959.396c-.584.265-1.087.629-1.506,1.0909-.421.464-.746,1.006-.975,1.6281-.231.6219-.345,1.296-.346,2.0229M63.677,16.4119c0-1.125.188-2.141.562-3.046.375-.906.8929-1.677,1.5569-2.312.662-.635,1.45-1.124,2.3621-1.468.912-.344,1.907-.516,2.983-.515,1.089,0,2.093.173,3.012.5161.918.3459,1.712.834,2.381,1.4709.67.636,1.191,1.406,1.565,2.313.373.906.56,1.923.56,3.0471-.001,1.099-.188,2.1-.563,3.007-.374.905-.896,1.687-1.566,2.341-.669.655-1.464,1.164-2.382,1.527-.919.364-1.923.546-3.012.544-1.077,0-2.071-.182-2.983-.545-.912-.365-1.699-.875-2.361-1.53-.663-.655-1.181-1.436-1.555-2.342-.373-.908-.56-1.909-.56-3.008" fill="#142f40"/><path d="M83.088,16.4189c0,.754.114,1.446.344,2.074.229.629.5571,1.175.9841,1.638.426.464.931.824,1.515,1.082.584.259,1.23.388,1.939.388s1.359-.128,1.948-.386c.591-.258,1.1-.618,1.527-1.081s.7549-1.009.9849-1.637c.229-.629.345-1.32.345-2.075,0-.727-.114-1.402-.343-2.024-.23-.622-.555-1.164-.974-1.628-.42-.463-.925-.827-1.516-1.092-.59-.265-1.2469-.398-1.968-.398-.722,0-1.375.132-1.959.396-.584.2651-1.088.6281-1.506,1.091-.421.4641-.746,1.006-.975,1.6281-.232.621-.345,1.296-.346,2.024M80.391,16.4179c0-1.124.188-2.1401.561-3.046.375-.906.8931-1.677,1.557-2.312.663-.635,1.45-1.124,2.363-1.468.912-.344,1.907-.516,2.983-.515,1.088,0,2.093.173,3.012.517.917.345,1.712.834,2.381,1.47.67.635,1.191,1.407,1.563,2.313.375.906.562,1.922.561,3.047,0,1.098-.188,2.1-.563,3.007-.373.906-.895,1.686-1.566,2.341-.668.655-1.463,1.164-2.382,1.527-.918.364-1.9219.546-3.012.545-1.076,0-2.07-.183-2.982-.547-.912-.364-1.699-.874-2.361-1.529-.663-.655-1.181-1.436-1.556-2.343-.373-.906-.5601-1.908-.559-3.007" fill="#142f40"/><polyline points="100 11.6219 95.728 11.6208 95.729 9.4369 106.754 9.4409 106.753 11.6239 102.481 11.6229 102.477 23.4919 99.996 23.4909" fill="#142f40"/><path d="M115.474,12.3818c-.263-.344-.634-.632-1.113-.864-.478-.231-.961-.348-1.446-.348-.29,0-.579.0369-.866.1089-.29.073-.552.185-.788.337-.237.153-.43.35-.582.595-.15.245-.225.54-.2271.884,0,.317.066.588.197.813.132.225.312.417.541.577.23.158.509.297.837.416.329.12.69.239,1.082.358.447.146.9091.312,1.3881.496.479.187.918.432,1.3199.735.4.306.728.689.983,1.152.256.464.384,1.039.383,1.727,0,.754-.138,1.413-.413,1.975-.277.562-.644,1.029-1.103,1.399-.461.37-.999.648-1.616.833-.6171.185-1.267.277-1.947.277-.907,0-1.793-.169-2.659-.507-.866-.338-1.575-.837-2.125-1.499l1.772-1.667c.341.476.798.854,1.369,1.132.57.278,1.131.417,1.681.417.289.001.584-.035.887-.109.302-.072.575-.194.816-.366.2429-.172.4409-.387.593-.645.15-.258.225-.579.225-.963.002-.37-.084-.678-.2549-.923-.17-.245-.4-.457-.688-.635-.2891-.179-.6301-.334-1.025-.467-.394-.132-.807-.271-1.239-.418-.42-.132-.841-.291-1.261-.476-.42-.185-.796-.431-1.13-.735-.336-.304-.607-.678-.818-1.122-.209-.443-.314-.996-.314-1.657,0-.715.148-1.33.4431-1.846.296-.5161.6829-.942,1.1619-1.28.479-.337,1.025-.588,1.636-.7531.609-.166,1.23-.248,1.859-.248.709,0,1.428.127,2.155.378.729.252,1.362.629,1.9,1.132" fill="#142f40"/><polyline points="51.783 39.4939 53 39.4939 55.396 43.3899 55.4109 43.3899 55.412 39.4949 56.33 39.4949 56.329 44.6979 55.162 44.6969 52.715 40.6769 52.701 40.6769 52.7 44.6969 51.781 44.6959" fill="#142f40"/><path d="M60.25,42.7149l-.794-2.116-.81,2.115M59.085,39.4959l.7949.001,2.22,5.203h-1.049l-.481-1.19-2.237-.001-.466,1.19-1.0291-.001,2.2471-5.202Z" fill="#142f40"/><polyline points="63.217 40.3069 61.636 40.3049 61.636 39.4959 65.717 39.4979 65.717 40.3069 64.135 40.3069 64.134 44.6999 63.216 44.6999" fill="#142f40"/><path d="M70.424,42.7919c0,.314-.054.596-.161.849-.107.252-.253.466-.437.642-.185.177-.404.313-.656.407-.253.096-.528.144-.824.144s-.571-.048-.823-.144c-.253-.095-.473-.231-.659-.408-.187-.176-.333-.391-.438-.643-.104-.252-.156-.535-.156-.849l.001-3.292.918.001-.001,3.255c0,.152.02.303.058.452.039.149.103.283.194.401.089.117.208.213.356.286.148.074.332.11.55.11.219,0,.402-.036.551-.11.1479-.073.267-.168.3569-.286.09-.117.1541-.251.1931-.401.0389-.148.059-.299.059-.451l.001-3.255h.918" fill="#142f40"/><path d="M73.186,41.7429c.131,0,.2631-.011.394-.029.131-.019.249-.057.354-.11.104-.056.1901-.131.258-.233.0681-.1.1021-.228.1021-.385,0-.142-.031-.258-.094-.349-.063-.091-.144-.164-.241-.217-.097-.054-.207-.09-.331-.109-.124-.02-.244-.031-.361-.031h-.831v1.463M71.518,39.4999l1.793.002c.243,0,.479.026.707.077.228.051.431.135.608.253.178.118.3199.273.427.464.1069.191.1599.424.1599.698-.001.377-.106.685-.3179.922-.2111.238-.499.398-.864.48l1.377,2.309h-1.108l-1.194-2.205h-.671v2.204h-.919l.002-5.204Z" fill="#142f40"/><path d="M78.885,42.7209l-.794-2.116-.81,2.116M77.72,39.5039h.7949l2.22,5.203h-1.049l-.481-1.191h-2.2369l-.467,1.189h-1.0281l2.2471-5.201Z" fill="#142f40"/><polyline points="81.247 39.5039 82.165 39.5039 82.164 43.8839 84.357 43.8839 84.357 44.7089 81.245 44.7069" fill="#142f40"/><polyline points="86.618 39.5069 87.5359 39.5069 87.5359 41.7549 87.5569 41.7549 89.715 39.5069 90.954 39.5089 88.541 41.9089 91.113 44.7109 89.823 44.7109 87.5569 42.0999 87.535 42.0999 87.535 44.7089 86.616 44.7089" fill="#142f40"/><rect x="91.639" y="39.5079" width=".918" height="5.203" fill="#142f40"/><polyline points="94.736 40.3179 93.155 40.3169 93.155 39.5089 97.236 39.5099 97.236 40.3189 95.654 40.3179 95.653 44.7119 94.7339 44.7119" fill="#142f40"/><path d="M101.338,40.7309c-.136-.186-.313-.32-.532-.407-.218-.086-.4319-.129-.641-.129-.266,0-.509.048-.729.146-.218.098-.407.232-.564.405-.1591.171-.28.371-.366.601-.084.232-.127.48-.127.75,0,.284.041.544.124.78.082.234.2.436.353.605.153.17.3359.3.55.395.214.093.454.138.721.138.277,0,.522-.054.736-.165.214-.11.387-.255.518-.437l.736.523c-.229.288-.5081.512-.839.671-.329.16-.715.238-1.158.238-.403,0-.773-.066-1.112-.202-.336-.135-.627-.323-.87-.566-.243-.243-.432-.531-.569-.866-.135-.337-.202-.707-.202-1.115,0-.416.071-.792.214-1.126.144-.337.341-.622.591-.857.25-.234.546-.416.886-.543.341-.1281.709-.191,1.107-.191.166,0,.338.016.518.048s.352.081.517.147c.165.067.322.148.467.247.146.097.269.215.371.353" fill="#142f40"/><polyline points="102.687 39.5119 103.605 39.5129 103.605 41.6149 106.017 41.6159 106.018 39.5139 106.936 39.5139 106.934 44.7159 106.016 44.7159 106.017 42.4089 103.604 42.4079 103.604 44.7149 102.685 44.7149" fill="#142f40"/><polyline points="108.073 39.5139 111.491 39.5159 111.491 40.3239 108.991 40.3229 108.991 41.6459 111.3589 41.6469 111.3589 42.4249 108.99 42.4239 108.99 43.8939 111.62 43.8949 111.62 44.7179 108.071 44.7169" fill="#142f40"/><polyline points="112.518 39.5159 113.735 39.5169 116.132 43.4109 116.146 43.4109 116.148 39.5169 117.066 39.5179 117.064 44.7199 115.898 44.7199 113.45 40.6989 113.436 40.6989 113.435 44.7189 112.516 44.7189" fill="#142f40"/><path d="M32.816,13.6409c-1.806.231-3.621-.078-5.34.641-.36.151-.71.329-1.04.539-.6349.406-1.201.938-1.566,1.607-.521.953-.377,2.318-1.298,3.05-.03.026-.421.341-.421.341-.7921.607-.892-.417-.892-.417v-1.024c0-.991.597-1.679,1.353-2.418,1.1429-1.119,1.8929-3.023,1.742-4.638-.276-2.944-3.246-4.331-3.723-7.04v-.05c-.001-.009-.003-.017-.004-.026v.051h-.001v-.051c-.001.009-.0031.017-.0051.026v.05c-.476,2.709-3.446,4.096-3.722,7.04-.152,1.615.599,3.519,1.743,4.638.7551.739,1.352,1.427,1.352,2.418v1.024s-.1,1.024-.892.417c0,0-.391-.315-.422-.341-.92-.732-.775-2.097-1.297-3.05-.365-.669-.931-1.201-1.566-1.607-.33-.21-.6799-.388-1.041-.539-1.718-.719-3.534-.41-5.339-.641-1.263-.161-2.361-.606-2.896-1.9189.628,1.543.7239,3.209,1.522,4.6899,1.483,2.757,3.468,4.356,6.715,4.25.972-.032,1.892-.472,2.794-.65.0159-.003,1.761-.136,2.451,3.977v11.364h.009c-.275.017-.518.245-.679.442-.425.518-.5961,1.172-.7341,1.809-.135.627-.25,1.197-.489,1.785-.1069.264-.23.524-.3789.77-.209.343-.4921.712-.8931.852,0,0,1.236.305,2.426-2.464.113-.265.22-.532.284-.811.079-.346.407-.336.465-.099l.173,3.637c-.182.016-.341.166-.447.296-.286.348-.4.7849-.493,1.213-.09.419-.167.802-.326,1.196-.072.177-.155.35-.254.514-.14.231-.33.478-.599.572,0,0,.828.202,1.625-1.652.075-.177.147-.357.191-.543.051-.225.327-.224.376-.075l.342,7.195h.01l.343-7.197c.05-.147.324-.147.376.077.043.186.114.366.191.543.796,1.854,1.624,1.652,1.624,1.652-.2679-.094-.458-.341-.598-.572-.0989-.164-.183-.337-.2549-.514-.159-.394-.236-.777-.326-1.196-.093-.428-.207-.865-.492-1.213-.1069-.13-.2659-.28-.448-.2941l.1741-3.6389c.058-.237.386-.247.465.099.064.279.17.546.285.811,1.189,2.769,2.426,2.464,2.426,2.464-.402-.14-.685-.509-.895-.852-.148-.246-.2711-.506-.379-.77-.239-.588-.353-1.158-.488-1.785-.138-.637-.308-1.291-.734-1.809-.162-.197-.404-.425-.679-.442h.009v-11.364c.69-4.113,2.435-3.98,2.451-3.977.902.178,1.822.618,2.793.65,3.248.106,5.233-1.493,6.716-4.25.798-1.481.894-3.147,1.522-4.6899-.535,1.313-1.634,1.7579-2.896,1.9189" fill="#142f40"/></g></svg>