<svg width="482" height="131" viewBox="0 0 482 131" fill="none" xmlns="http://www.w3.org/2000/svg">
<g clip-path="url(#clip0_705_25)">
<mask id="mask0_705_25" style="mask-type:luminance" maskUnits="userSpaceOnUse" x="0" y="0" width="482" height="131">
<path d="M482 0H0V131H482V0Z" fill="white"/>
</mask>
<g mask="url(#mask0_705_25)">
<path d="M481.046 74.9467H380.806C382.693 83.9987 389.474 92.3479 397.211 97.1965C407.941 103.916 422.82 104.306 433.979 98.3424C437.338 96.5465 440.203 94.0451 443.061 91.5775L462.955 111.629C455.377 119.273 446.076 125.183 435.688 128.217C383.91 143.34 336.722 94.2666 354.778 43.2861C369.953 0.435516 425.307 -14.2934 459.603 16.0817C476.225 30.8033 485.049 52.7185 481.046 74.9467ZM448.276 46.5361C448.427 46.3941 447.218 44.574 447.027 44.2948C441.986 36.9544 433.466 31.0922 424.712 29.2746C408.676 25.9475 393.064 32.6065 384.664 46.5337H448.278L448.276 46.5361Z" fill="black"/>
<path d="M481.046 74.9467H380.806C382.693 83.9987 389.474 92.3479 397.211 97.1965C407.941 103.916 422.82 104.306 433.979 98.3424C437.338 96.5465 440.203 94.0451 443.061 91.5775L462.955 111.629C455.377 119.273 446.076 125.183 435.688 128.217C383.91 143.34 336.722 94.2666 354.778 43.2861C369.953 0.435516 425.307 -14.2934 459.603 16.0817C476.225 30.8033 485.049 52.7185 481.046 74.9467ZM448.276 46.5361C448.427 46.3941 447.218 44.574 447.027 44.2948C441.986 36.9544 433.466 31.0922 424.712 29.2746C408.676 25.9475 393.064 32.6065 384.664 46.5337H448.278L448.276 46.5361Z" fill="black"/>
<path d="M204.748 65.4952C204.748 101.667 175.399 130.99 139.195 130.99C102.99 130.99 73.6406 101.667 73.6406 65.4952C73.6406 29.323 102.99 0 139.195 0C175.399 0 204.748 29.323 204.748 65.4952ZM176.322 65.4928C176.322 45.0076 159.701 28.3985 139.195 28.3985C118.689 28.3985 102.067 45.0052 102.067 65.4928C102.067 85.9803 118.689 102.587 139.195 102.587C159.701 102.587 176.322 85.9803 176.322 65.4928Z" fill="black"/>
<path d="M204.748 65.4952C204.748 101.667 175.399 130.99 139.195 130.99C102.99 130.99 73.6406 101.667 73.6406 65.4952C73.6406 29.323 102.99 0 139.195 0C175.399 0 204.748 29.323 204.748 65.4952ZM176.322 65.4928C176.322 45.0076 159.701 28.3985 139.195 28.3985C118.689 28.3985 102.067 45.0052 102.067 65.4928C102.067 85.9803 118.689 102.587 139.195 102.587C159.701 102.587 176.322 85.9803 176.322 65.4928Z" fill="black"/>
<path d="M245.985 0.074707L277.795 64.838L310.322 0.074707H343.213L277.795 130.803L212.718 0.806577C212.47 0.563423 212.827 0.074707 212.976 0.074707H245.988H245.985Z" fill="black"/>
<path d="M245.985 0.074707L277.795 64.838L310.322 0.074707H343.213L277.795 130.803L212.718 0.806577C212.47 0.563423 212.827 0.074707 212.976 0.074707H245.988H245.985Z" fill="black"/>
<path d="M28.7574 130.8H0.685397C0.485399 130.8 0.258895 130.218 0.311906 129.97C1.10226 107.778 -0.702541 84.9043 0.326364 62.7917C1.83961 30.2812 26.8562 3.2261 59.4824 0.317882C60.8511 0.195101 64.0511 -0.0817576 65.2751 0.0626905C65.5185 0.0915801 66.1065 0.171027 66.1065 0.435848V28.1217C66.1065 28.7019 63.4318 28.4347 62.8559 28.4853C44.3934 30.0886 29.6827 44.9186 28.7478 63.5019L28.7574 130.8Z" fill="black"/>
<path d="M28.7574 130.8H0.685397C0.485399 130.8 0.258895 130.218 0.311906 129.97C1.10226 107.778 -0.702541 84.9043 0.326364 62.7917C1.83961 30.2812 26.8562 3.2261 59.4824 0.317882C60.8511 0.195101 64.0511 -0.0817576 65.2751 0.0626905C65.5185 0.0915801 66.1065 0.171027 66.1065 0.435848V28.1217C66.1065 28.7019 63.4318 28.4347 62.8559 28.4853C44.3934 30.0886 29.6827 44.9186 28.7478 63.5019L28.7574 130.8Z" fill="black"/>
</g>
</g>
<defs>
<clipPath id="clip0_705_25">
<rect width="482" height="131" fill="white"/>
</clipPath>
</defs>
</svg>
