<?xml version="1.0" encoding="UTF-8"?><svg id="b" xmlns="http://www.w3.org/2000/svg" viewBox="0 0 1494.8828 598.7358"><g id="c"><path d="M234.756,435.4957c81.2308,106.8683,236.1469,120.0884,333.9693,28.8199,45.311-42.2753,72.0259-101.557,71.9368-164.8396l66.1738-66.309c37.979,165.3699-70.4452,328.9806-236.2519,360.317-165.8913,31.3524-326.8997-80.9175-352.1394-250.1075l74.766.0751c6.6173,33.414,20.9187,64.9075,41.5454,92.0442Z" fill="#454345"/><path d="M551.0116,119.3572c-110.1847-82.804-264.2608-49.5221-332.3346,68.0629l-81.7658.0705C170.0805,103.7397,242.2593,39.1347,324.9048,13.7414c98.2607-30.1912,200.2034-9.815,278.659,53.0793l-52.5522,52.5365Z" fill="#454345"/><path d="M901.5475,330.8297l.2573-33.2531c.0305-3.941,6.0857-5.35,9.3327-5.0879,12.5423,1.0123,24.9039-3.0819,31.2635-14.0016,4.2503-7.2979,3.7293-16.2838-.8108-23.7036-3.6835-6.0199-11.2289-12.0007-19.7805-12.0604l-44.6882-.3123.0171,150.3529c.0004,3.71-3.7352,6.4668-6.7747,6.4665l-34.1621-.0032c-3.3488-.0003-6.559-2.7028-6.5591-6.4315l-.0048-186.1987c-.0001-4.056,2.7787-6.9258,6.9472-6.9251l82.6114.0122c8.911.0013,17.5434,1.057,25.8738,2.7919,25.4163,5.2934,42.3931,25.3036,46.7454,50.1934,5.5688,31.8466-10.2153,62.4513-40.9806,74.8007l43.4664,63.2503c2.2789,3.3161-.9451,8.344-4.0028,8.4968l-39.2199.0075c-4.0163.0008-8.8467-2.3057-11.2313-5.8419l-36.1593-53.6212c-1.2752-1.891-2.162-6.173-2.1407-8.9319Z" fill="#464446"/><path d="M1143.5642,395.8808c-35.5462,14.2238-83.7998,10.3364-110.9053-18.1406-10.965-11.5198-16.0625-26.4059-14.9761-42.2036.1515-2.203,3.1281-4.6667,5.3599-4.667l36.1032-.0055c4.7204-.0007,7.373,3.1465,7.7064,7.6647.6939,9.4024,7.6251,17.2103,16.7208,20.2449,15.4387,5.1509,41.6045,4.9557,46.9102-9.0363,2.1597-5.6955,2.7465-12.0354-1.3912-16.7054-3.733-4.2133-9.9563-6.8462-15.5555-8.2851l-31.0099-7.9688c-13.3273-3.4248-25.7705-8.4187-37.4575-15.3846-14.9467-8.909-23.7766-23.6802-24.6844-41.0683-.5881-11.2652.8666-22.3718,6.6809-32.1212,7.7219-12.9481,19.6343-21.8049,34.0525-27.0313,29.7849-10.7965,63.965-7.7394,90.6697,9.1882,15.8491,10.0464,24.1952,26.7066,23.2329,44.9432-.1498,2.8395-2.1304,5.8168-5.0948,5.8246l-35.0185.0911c-7.5049.0195-4.4867-18.433-25.9943-23.8147-17.8878-4.4759-38.6015.6114-39.5174,14.5587-.8257,12.5734,17.1782,19.3508,30.5762,23.49l43.4596,13.4262c10.1765,3.1439,19.0039,9.1502,25.8042,17.1113,8.523,9.9777,10.9363,22.3057,10.9942,35.1515.1116,24.7707-13.4216,45.4371-36.6658,54.7383Z" fill="#454345"/><path d="M1206.1362,366.5264c-.005-5.3726,3.0285-9.5126,6.6821-12.658l66.9898-57.6717c15.0573-12.9629,32.809-31.9129,22.7305-49.4281-6.9834-12.1362-29.0644-14.4854-42.4598-3.0998-17.5961,14.9562-4.7465,32.0387-18.7425,32.0485l-27.1125.019c-4.0272.0028-7.8899-1.6594-8.0373-6.6237-.9294-31.2868,12.2639-58.4475,42.5448-68.9845,28.5369-9.9302,60.7943-5.456,83.4318,15.0176,25.9207,23.4431,25.5805,60.8411,3.6532,86.9378l-20.544,20.4527-38.2802,33.8759,65.5422.2352c4.0081.0144,6.5815,3.7965,6.5636,7.4098l-.1432,29.0142c-.0182,3.6943-3.4466,6.172-7.1067,6.1721l-129.7598.0057c-2.8975.0001-5.9235-2.4127-5.9261-5.2441l-.0256-27.4785Z" fill="#454345"/><path d="M416.1148,306.9223l2.2,4.5314,31.5451,31.4202,17.2253,16.7361,8.4078,8.5655,7.8811,8.0968,14.3876,14.2049-83.1064,83.0336-84.4492-84.3683,1.0118-.2254c.4943.0306,1.957.1217,2.3057-.3091l1.6443-2.0314,6.8696-6.6829,8.6407-9.9801c1.2493-.2691,3.2018-1.6268,4.165-2.5968l24.4023-24.5748,3.0507-3.0525,14.1489-14.0298c.4233-.4198.8804-1.688,1.0693-2.1254l3.3501-1.9521,10.8138-11.2086,2.856-2.9586,1.5807-.4927Z" fill="#3c74b3"/><path d="M1382.8896,364.6077c-.0076-4.7748,2.8376-7.9867,7.2673-7.9981l27.4035-.0703-.0085-80.8959-27.641-.2016c-4.0899-.0298-6.8763-3.2708-7.0085-7.0794l-.0213-27.1632c-.0016-2.0061.9349-5.3,2.2086-6.3553,1.4329-1.1872,5.6718-2.0552,7.6657-1.7804,11.7556,1.6198,22.5837-4.1412,23.8367-15.9851l1.1388-10.7636c.3528-3.3344,2.761-6.6121,6.5379-6.6148l33.3772-.0236c4.4185-.0031,7.207,3.3615,7.2074,7.8444l.0111,148.9005,22.7436.2154c4.4402.0421,7.2813,3.1576,7.2748,7.5018l-.0418,28.0057c-.0059,3.9372-2.8477,7.0999-7.071,7.0999l-97.7849-.0009c-4.0724,0-7.0457-3.3064-7.0517-7.0752l-.0439-27.5604Z" fill="#454345"/><path d="M413.3987,305.7428l-1.8698,1.674-143.7498-.1379-18.1916,1.343-.6298-1.2018,76.9033-76.7361c.6897-.6882,1.6697-2.7427,1.93-3.4032l2.8976-1.9007-162.9578-.026.01-.9719,164.3143-.0289,81.3437,81.3894Z" fill="#4da59e"/><path d="M167.7407,224.3823l-.01.9719c-.1055-.0224-.9462-.1867-1.1862-.1175-1.0133.2919-2.2313,1.2676-3.5261,2.5615l-79.5455,79.7736-3.3436-2.5334-14.2136-13.9152-7.0062-7.0379-40.9478-40.9156L0,224.4827l167.7407-.1004Z" fill="#d7de55"/><path d="M746.7564,141.6807l-12.0909-11.5041-7.5526-7.5017-59.8862-59.8731c-1.3171-1.3168-2.3301-3.6656-3.5346-4.038l166.1244-.0874-83.0601,83.0044Z" fill="#d23487"/><polygon points="579.8333 308.5195 497.7616 390.477 483.374 376.2721 475.493 368.1754 467.0852 359.6099 449.8599 342.8738 418.3148 311.4537 416.1148 306.9223 576.3067 307.2796 579.8333 308.5195" fill="#58a7d6"/><path d="M662.3217,224.7133c.0911.3603-1.0002,2.4037-1.6124,3.0003l-10.9942,10.7155-2.224,2.1702-.8259.8142-2.1779,2.1934-1.8052,1.8151-2.1693,2.1787-1.8273,1.834-2.1858,2.1735-2.8537,2.8015-1.1392,1.1524-1.8323,1.8535-2.1605,2.1858-1.7939,1.8031-5.2073,5.1639-.8322.8215-2.1789,2.1383-.8485.8445-1.1558,1.1634-1.8188,1.8198-2.2012,2.1658-.8217.805-1.1989,1.173-.8241.8219-1.1498,1.1949-.7933.8324-3.1805,3.181-1.827,1.8227-1.168,1.1632-.7545.8882c-.611-.2209-2.0451-.104-2.1478.469l-.0024,1.7289-.9199.7694-1.165,1.1649-2.828,2.8242-2.1728,2.1682-.8118.8051-3.1909,3.1471-.848.8352-2.0965,2.2254-.8753.991-5.1543.8535-13.6177-13.6511-14.5035-14.3498-7.4712-7.6322-7.1124-6.822-11.4196-11.47-6.0926-6.1005-16.959-16.807-3.1155-4.2368,1.1337-1.3671c-.1023.7725,2.2728,1.6303,3.1428,1.6329l17.0876.0496,142.7023.0812Z" fill="#e79841"/><path d="M745.5346,142.7969l-81.8553,81.8445-5.2436-5.0057c-.5463-5.4695-5.5375-5.4999-11.4791-11.6276l-6.9587-7.1767c-3.5461-3.6572-7.322-6.6171-10.4066-10.5983-3.6607-2.8255-6.355-6.0895-9.6179-9.3908l-15.8796-16.0661-15.0209-15.8824c-2.4003-2.538-3.9428-4.8659-6.6421-7.4604l159.8066-.084c.9736-.0005,3.3542.5516,3.2971,1.4475Z" fill="#d95241"/><path d="M582.4308,141.4334c2.6994,2.5945,4.2418,4.9224,6.6421,7.4604l15.0209,15.8824,15.8796,16.0661c3.2629,3.3013,5.9572,6.5653,9.6179,9.3908,3.0846,3.9812,6.8605,6.9411,10.4066,10.5983l6.9587,7.1767c5.9416,6.1278,10.9328,6.1582,11.4791,11.6276l5.2436,5.0057-1.3575.0719-142.7023-.0812-17.0876-.0496c-.87-.0025-3.245-.8603-3.1428-1.6329l80.6423-80.558,1.7651.2397.6344-1.1979Z" fill="#dc673d"/><polygon points="583.7009 304.5326 579.8333 308.5195 576.3067 307.2796 416.1148 306.9223 423.1959 298.8443 435.6736 286.4597 465.7348 256.4785 479.7204 242.4127 491.622 230.4371 498.2553 224.3167 501.3708 228.5535 518.3298 245.3605 524.4224 251.461 535.842 262.931 542.9543 269.753 550.4255 277.3852 564.929 291.735 578.5466 305.3861 583.7009 304.5326" fill="#ecb35b"/><path d="M746.7564,141.6807l-1.2218,1.1162c.0571-.8959-2.3235-1.448-3.2971-1.4475l-159.8066.084-.6344,1.1979-.4375-1.4956,82.3332-82.3719c1.2044.3724,2.2175,2.7211,3.5346,4.038l59.8862,59.8731,7.5526,7.5017,12.0909,11.5041Z" fill="#ae3436"/><path d="M166.5445,225.2366l2.0824,2.4306,75.2287,75.2576,2.8393,4.6264-163.2219.0204,79.5455-79.7736c1.2948-1.2938,2.5127-2.2696,3.5261-2.5615Z" fill="#9ac257"/><path d="M327.7909,227.2809c-.2603.6605-1.2403,2.7151-1.93,3.4032l-76.9033,76.7361-2.2628.1311-2.8393-4.6264-75.2287-75.2576,5.6503-1.2716,149.1821-.0479,4.3317.9331Z" fill="#429150"/><path d="M600.7594,287.4041l-2.1503,2.1979.0024-1.7289c.1027-.573,1.5368-.6898,2.1478-.469Z" fill="#ecb35b"/><path d="M612.4772,275.5219l2.2012-2.1658-2.2012,2.1658Z" fill="#ecb35b"/><path d="M604.509,283.53l3.1805-3.181-3.1805,3.181Z" fill="#ecb35b"/><path d="M601.5139,286.5159l1.168-1.1632-1.168,1.1632Z" fill="#ecb35b"/><path d="M608.4827,279.5166l1.1498-1.1949-1.1498,1.1949Z" fill="#ecb35b"/><path d="M596.5242,291.5364l1.165-1.1649-1.165,1.1649Z" fill="#ecb35b"/><path d="M591.5234,296.5288l2.1728-2.1682-2.1728,2.1682Z" fill="#ecb35b"/><path d="M587.5208,300.481l3.1909-3.1471-3.1909,3.1471Z" fill="#ecb35b"/><path d="M584.5762,303.5416l2.0965-2.2254-2.0965,2.2254Z" fill="#ecb35b"/><path d="M618.5016,269.5283l2.1789-2.1383-2.1789,2.1383Z" fill="#ecb35b"/><path d="M621.5128,266.5685l5.2073-5.1639-5.2073,5.1639Z" fill="#ecb35b"/><path d="M628.514,259.6015l2.1605-2.1858-2.1605,2.1858Z" fill="#ecb35b"/><path d="M632.5068,255.5623l1.1392-1.1524-1.1392,1.1524Z" fill="#ecb35b"/><path d="M636.4997,251.6084l2.1858-2.1735-2.1858,2.1735Z" fill="#ecb35b"/><path d="M640.5129,247.6009l2.1693-2.1787-2.1693,2.1787Z" fill="#ecb35b"/><path d="M610.4567,277.4998l1.1989-1.173-1.1989,1.173Z" fill="#ecb35b"/><path d="M644.4874,243.607l2.1779-2.1934-2.1779,2.1934Z" fill="#ecb35b"/><path d="M616.4972,271.5363l1.1558-1.1634-1.1558,1.1634Z" fill="#ecb35b"/><path d="M647.4912,240.5994l2.224-2.1702-2.224,2.1702Z" fill="#ecb35b"/><polygon points="581.7964 142.6313 580.0313 142.3916 581.3589 141.1356 581.7964 142.6313" fill="#d95241"/><path d="M327.7909,227.2809l-4.3317-.9331-149.1821.0479-5.6503,1.2716-2.0824-2.4306c.24-.0691,1.0807.0951,1.1862.1175l162.9578.026-2.8976,1.9007Z" fill="#3d844d"/><path d="M413.3987,305.7428l-1.8698,1.674-143.7498-.1379-18.1916,1.3431,38.425,38.3122,2.4266,2.4227,39.767,39.7855,1.0117-.2254c.4943.0306,1.957.1217,2.3057-.3091l1.6443-2.0314,6.8696-6.6829,8.6406-9.9801c1.2493-.2691,3.2019-1.6268,4.165-2.5967l24.4023-24.5748,3.0507-3.0525,14.1489-14.0298c.4233-.4197.8804-1.688,1.0693-2.1254l3.3502-1.9521,10.8138-11.2086,2.856-2.9586-1.1355-1.6721Z" fill="#57a7da"/></g></svg>