<svg width="143" height="20" viewBox="0 0 143 20" fill="none" xmlns="http://www.w3.org/2000/svg">
<g clip-path="url(#clip0_468_172)">
<path d="M25.3975 20.3008C25.3777 20.3075 25.357 20.3108 25.3369 20.3164C25.362 20.3094 25.3874 20.3036 25.4121 20.2949L25.3975 20.3008ZM12.4062 4.0625C12.4516 4.04149 12.5045 4.04196 12.5498 4.0625L35.5107 14.4863L25.0947 19.3457C25.0485 19.3672 24.9952 19.3674 24.9492 19.3457L2.41406 8.69922L12.4062 4.0625ZM22.6436 19.3623L0.0576172 8.69238L22.6436 19.3623Z" fill="white"/>
<path d="M0.0078125 19.0126V8.64844L12.6465 14.607L0.904534 19.6055C0.479529 19.7864 0.0078125 19.4745 0.0078125 19.0126Z" fill="white"/>
<path d="M37.9134 14.4761V4.19439C37.9134 3.72817 37.4335 3.41627 37.0075 3.60552L25.2891 8.81046L37.9134 14.4761Z" fill="white"/>
<path d="M54.4495 8.50654L52.8988 8.51849C51.8809 8.51849 51.0857 8.80124 50.5131 9.36675C49.9485 9.93225 49.6662 10.7845 49.6662 11.9235V17.6821H45.9922V5.29272H48.9505L49.2367 6.46356C49.6344 6.12903 50.1155 5.85026 50.6801 5.62725C51.2527 5.40423 51.9246 5.29272 52.696 5.29272H54.4495V8.50654Z" fill="white"/>
<path d="M62.8221 14.8984C63.2277 14.8984 63.5895 14.8466 63.9076 14.743C64.2336 14.6395 64.508 14.4683 64.7307 14.2293C64.9613 13.9824 65.1362 13.6598 65.2555 13.2616C65.3827 12.8633 65.4464 12.3655 65.4464 11.7682V5.29272H69.1442V11.8876C69.1442 13.0187 68.9852 13.9784 68.6671 14.7669C68.349 15.5475 67.9076 16.1847 67.343 16.6785C66.7784 17.1644 66.1104 17.5188 65.339 17.7418C64.5676 17.9648 63.7287 18.0763 62.8221 18.0763C61.9155 18.0763 61.0766 17.9648 60.3052 17.7418C59.5338 17.5188 58.8658 17.1644 58.3012 16.6785C57.7366 16.1847 57.2952 15.5475 56.9771 14.7669C56.659 13.9784 56.5 13.0187 56.5 11.8876V5.29272H60.1978V11.7682C60.1978 12.3576 60.2575 12.8554 60.3768 13.2616C60.496 13.6598 60.667 13.9824 60.8897 14.2293C61.1203 14.4683 61.3986 14.6395 61.7247 14.743C62.0507 14.8466 62.4165 14.8984 62.8221 14.8984Z" fill="white"/>
<path d="M85.0374 17.6821H81.3276V11.123C81.3276 10.5495 81.2679 10.0677 81.1487 9.67736C81.0294 9.28708 80.8624 8.97645 80.6477 8.74547C80.433 8.50652 80.1745 8.33528 79.8723 8.23174C79.5781 8.12819 79.252 8.07642 78.8942 8.07642C78.4409 8.07642 78.0314 8.16403 77.6655 8.33926C77.2997 8.50652 76.9856 8.74149 76.7232 9.04415C76.4687 9.33885 76.2739 9.69329 76.1387 10.1075C76.0035 10.5217 75.9359 10.9717 75.9359 11.4575V17.6821H72.25V5.2927H75.2202L75.4468 6.23654C75.7013 6.05335 75.9836 5.8821 76.2938 5.72281C76.6039 5.55554 76.93 5.41218 77.2719 5.2927C77.6139 5.17323 77.9638 5.07765 78.3216 5.00597C78.6874 4.93429 79.0572 4.89844 79.431 4.89844C80.417 4.89844 81.264 5.04181 81.9717 5.32855C82.6795 5.60732 83.26 6.01352 83.7133 6.54717C84.1666 7.07285 84.5006 7.71402 84.7153 8.47068C84.93 9.22734 85.0374 10.0836 85.0374 11.0394V17.6821Z" fill="white"/>
<path d="M106.765 5.29272L102.423 17.6821H99.119L96.7572 10.908L94.4192 17.6821H91.115L86.7969 5.29272H90.7452L93.1428 12.7359H93.1786L95.445 5.35246H98.1051L100.359 12.7359H100.407L102.793 5.29272H106.765Z" fill="white"/>
<path d="M108.892 5.29264H112.602V17.682H108.892V5.29264ZM108.57 1.95935C108.57 1.69651 108.622 1.44562 108.725 1.20668C108.829 0.96773 108.976 0.760643 109.167 0.585417C109.365 0.402225 109.6 0.258858 109.87 0.155315C110.141 0.0517716 110.443 0 110.777 0C111.111 0 111.413 0.0517716 111.683 0.155315C111.954 0.258858 112.184 0.402225 112.375 0.585417C112.574 0.760643 112.725 0.96773 112.829 1.20668C112.932 1.44562 112.984 1.69651 112.984 1.95935C112.984 2.23016 112.932 2.48503 112.829 2.72398C112.725 2.95496 112.574 3.15806 112.375 3.33329C112.184 3.50852 111.95 3.6479 111.671 3.75145C111.401 3.85499 111.099 3.90676 110.765 3.90676C110.439 3.90676 110.141 3.85499 109.87 3.75145C109.6 3.6479 109.369 3.50852 109.178 3.33329C108.988 3.1501 108.836 2.94301 108.725 2.71203C108.622 2.47309 108.57 2.22219 108.57 1.95935Z" fill="white"/>
<path d="M118.986 13.8112C119.017 14.1855 119.208 14.4882 119.558 14.7191C119.916 14.9501 120.365 15.0656 120.906 15.0656C121.606 15.0656 122.111 14.974 122.421 14.7908C122.731 14.6076 122.886 14.3488 122.886 14.0143C122.886 13.8151 122.815 13.6558 122.672 13.5364C122.528 13.4089 122.318 13.2974 122.039 13.2018C121.761 13.1063 121.419 13.0187 121.014 12.939C120.608 12.8594 120.139 12.7598 119.606 12.6403C119.367 12.5925 119.105 12.5368 118.819 12.4731C118.532 12.4014 118.246 12.3098 117.96 12.1983C117.681 12.0788 117.411 11.9354 117.149 11.7682C116.886 11.5929 116.652 11.3779 116.445 11.123C116.246 10.8681 116.087 10.5655 115.968 10.215C115.848 9.85657 115.789 9.43841 115.789 8.96052C115.789 8.3313 115.9 7.76579 116.123 7.26401C116.353 6.75426 116.699 6.32814 117.161 5.98565C117.622 5.63519 118.202 5.36837 118.902 5.18518C119.602 4.99402 120.425 4.89844 121.371 4.89844C122.143 4.89844 122.835 4.99801 123.447 5.19713C124.067 5.39625 124.592 5.679 125.021 6.04538C125.451 6.41177 125.777 6.84983 126 7.35958C126.23 7.86137 126.346 8.41493 126.346 9.02026L122.648 9.00831C122.624 8.70564 122.481 8.44679 122.218 8.23174C121.956 8.00872 121.586 7.89721 121.109 7.89721C120.544 7.89721 120.127 8.00075 119.856 8.20784C119.586 8.41493 119.455 8.65387 119.463 8.92468C119.463 9.08397 119.507 9.21938 119.594 9.33089C119.689 9.43443 119.833 9.52602 120.023 9.60567C120.222 9.67736 120.473 9.74107 120.775 9.79683C121.077 9.85258 121.439 9.90834 121.86 9.96409C122.513 10.0756 123.133 10.211 123.721 10.3703C124.31 10.5217 124.827 10.7367 125.272 11.0155C125.725 11.2863 126.083 11.6447 126.346 12.0907C126.608 12.5288 126.739 13.0864 126.739 13.7634C126.739 14.5041 126.592 15.1493 126.298 15.6988C126.004 16.2404 125.59 16.6904 125.057 17.0489C124.532 17.4073 123.904 17.6701 123.173 17.8374C122.441 18.0126 121.638 18.1002 120.763 18.1002C119.809 18.1002 118.99 17.9728 118.306 17.7179C117.63 17.463 117.073 17.1325 116.636 16.7263C116.198 16.3121 115.876 15.8502 115.67 15.3404C115.463 14.8227 115.359 14.309 115.359 13.7992L118.986 13.8112Z" fill="white"/>
<path d="M128.617 11.4934C128.617 10.5854 128.784 9.73311 129.118 8.93662C129.452 8.13217 129.921 7.43127 130.525 6.8339C131.138 6.23654 131.861 5.76661 132.696 5.42412C133.539 5.07367 134.47 4.89844 135.488 4.89844C136.514 4.89844 137.448 5.07367 138.291 5.42412C139.142 5.76661 139.869 6.23654 140.474 6.8339C141.086 7.43127 141.559 8.13217 141.893 8.93662C142.235 9.73311 142.406 10.5854 142.406 11.4934C142.406 11.7483 142.394 11.9474 142.37 12.0907C142.355 12.2341 142.335 12.3775 142.311 12.5208H132.279C132.382 12.9111 132.541 13.2616 132.756 13.5722C132.979 13.8828 133.233 14.1497 133.519 14.3727C133.814 14.5877 134.128 14.755 134.462 14.8745C134.804 14.9939 135.154 15.0537 135.512 15.0537C136.092 15.0537 136.597 14.9302 137.026 14.6833C137.456 14.4364 137.782 14.1218 138.005 13.7395H141.989C141.806 14.2811 141.527 14.8147 141.154 15.3404C140.78 15.8581 140.319 16.3201 139.77 16.7263C139.221 17.1325 138.585 17.4591 137.861 17.706C137.146 17.9529 136.355 18.0763 135.488 18.0763C134.478 18.0763 133.551 17.9051 132.708 17.5626C131.865 17.2121 131.142 16.7382 130.537 16.1409C129.933 15.5435 129.46 14.8466 129.118 14.0501C128.784 13.2456 128.617 12.3934 128.617 11.4934ZM135.512 7.82553C134.74 7.82553 134.088 8.02067 133.555 8.41094C133.022 8.80122 132.637 9.31496 132.398 9.95214H138.482C138.251 9.32292 137.885 8.81317 137.384 8.42289C136.883 8.02465 136.259 7.82553 135.512 7.82553Z" fill="white"/>
</g>
<defs>
<clipPath id="clip0_468_172">
<rect width="143" height="20" fill="white"/>
</clipPath>
</defs>
</svg>
