<?xml version="1.0" encoding="UTF-8"?>
<svg id="Layer_1" xmlns="http://www.w3.org/2000/svg" xmlns:xlink="http://www.w3.org/1999/xlink" version="1.1" viewBox="0 0 143 20">
  <!-- Generator: Adobe Illustrator 30.4.0, SVG Export Plug-In . SVG Version: 2.1.4 Build 226)  -->
  <defs>
    <style>
      .st0 {
        mask: url(#mask);
      }

      .st1 {
        fill: url(#linear-gradient2);
      }

      .st2 {
        fill: url(#linear-gradient1);
      }

      .st3 {
        fill: url(#linear-gradient);
      }

      .st4 {
        fill: #bababa;
      }
    </style>
    <mask id="mask" x="0" y="3" width="37.9" height="17.3" maskUnits="userSpaceOnUse">
      <g id="a">
        <path class="st4" d="M37.9,3.2v10.4c0,.5-.3,1-.8,1.2l-10.4,4.6c-1.1.5-2.4.5-3.6,0l-10.6-4.7L0,20v-10.4c0-.5.3-1,.8-1.2L10.8,3.8c1.1-.5,2.4-.5,3.5,0l10.9,4.9,12.6-5.6Z"/>
      </g>
    </mask>
    <linearGradient id="linear-gradient" x1="14.9" y1="12.9" x2="30.9" y2="3.3" gradientTransform="translate(0 22) scale(1 -1)" gradientUnits="userSpaceOnUse">
      <stop offset="0" stop-color="#6c42e4"/>
      <stop offset=".9" stop-color="#3ba1ff"/>
    </linearGradient>
    <linearGradient id="linear-gradient1" x1="1.4" y1="12" x2="6.7" y2="4.5" gradientTransform="translate(0 22) scale(1 -1)" gradientUnits="userSpaceOnUse">
      <stop offset="0" stop-color="#ffa53c"/>
      <stop offset=".7" stop-color="#ff5924"/>
    </linearGradient>
    <linearGradient id="linear-gradient2" x1="31.9" y1="14.8" x2="34.9" y2="6.6" gradientTransform="translate(0 22) scale(1 -1)" gradientUnits="userSpaceOnUse">
      <stop offset="0" stop-color="#3ba1ff"/>
      <stop offset="1" stop-color="#1fe1ca"/>
    </linearGradient>
  </defs>
  <g class="st0">
    <g>
      <path class="st3" d="M12,3.2c.3-.1.7-.1,1,0l24.9,11.3-12.4,5.8c-.3.1-.7.1-1,0L0,8.7,12,3.2Z"/>
      <path class="st2" d="M0,19v-10.4l12.6,6L.9,19.6c-.3.1-.7,0-.8-.3,0,0,0-.2,0-.3"/>
      <path class="st1" d="M37.9,14.5V4.2c0-.4-.3-.6-.6-.6,0,0-.2,0-.3,0l-11.7,5.2,12.6,5.7Z"/>
    </g>
  </g>
  <path d="M54.5,8.5h-1.6c-1,0-1.8.3-2.4.9-.6.6-.8,1.4-.8,2.6v5.8h-3.7V5.3h3l.3,1.2c.4-.4.9-.6,1.4-.8.6-.2,1.2-.3,2-.3h1.8v3.2ZM62.8,14.9c.4,0,.7,0,1.1-.2.3-.1.6-.3.8-.5.2-.2.4-.6.5-1,.1-.4.2-.9.2-1.5v-6.5h3.7v6.6c0,1.1-.2,2.1-.5,2.9-.3.8-.8,1.4-1.3,1.9-.6.5-1.3.9-2,1.1-.8.2-1.7.3-2.5.3-.9,0-1.7-.1-2.5-.3-.7-.2-1.4-.6-2-1.1-.6-.5-1-1.1-1.3-1.9-.3-.8-.5-1.7-.5-2.9v-6.6h3.7v6.5c0,.6,0,1.1.2,1.5.1.4.3.7.5,1,.2.2.5.4.8.5.3.1.7.2,1.1.2M85,17.7h-3.7v-6.6c0-.6,0-1.1-.2-1.4-.1-.4-.3-.7-.5-.9-.2-.2-.5-.4-.8-.5-.3-.1-.6-.2-1-.2-.5,0-.9,0-1.2.3-.4.2-.7.4-.9.7-.3.3-.4.6-.6,1.1-.1.4-.2.9-.2,1.4v6.2h-3.7V5.3h3l.2.9c.3-.2.5-.4.8-.5.3-.2.6-.3,1-.4.3-.1.7-.2,1.1-.3.4,0,.7-.1,1.1-.1,1,0,1.8.1,2.5.4.7.3,1.3.7,1.7,1.2.5.5.8,1.2,1,1.9.2.8.3,1.6.3,2.6v6.6ZM106.8,5.3l-4.3,12.4h-3.3l-2.4-6.8-2.3,6.8h-3.3l-4.3-12.4h3.9l2.4,7.4h0l2.3-7.4h2.7l2.3,7.4h0l2.4-7.4h4ZM108.9,5.3h3.7v12.4h-3.7V5.3ZM108.6,2c0-.3,0-.5.2-.8.1-.2.3-.4.4-.6.2-.2.4-.3.7-.4C110.1,0,110.4,0,110.8,0s.6,0,.9.2c.3.1.5.2.7.4.2.2.3.4.5.6.1.2.2.5.2.8s0,.5-.2.8c-.1.2-.3.4-.5.6-.2.2-.4.3-.7.4-.3.1-.6.2-.9.2-.3,0-.6,0-.9-.2-.3,0-.5-.2-.7-.4-.2-.2-.3-.4-.5-.6-.1-.2-.2-.5-.2-.8M119,13.8c0,.4.2.7.6.9.4.2.8.3,1.3.3.7,0,1.2,0,1.5-.3s.5-.4.5-.8c0-.2,0-.4-.2-.5-.1-.1-.4-.2-.6-.3-.3-.1-.7-.2-1-.3-.4,0-.9-.2-1.4-.3-.3,0-.5-.1-.8-.2-.3,0-.6-.2-.9-.3-.3-.1-.6-.3-.8-.4-.3-.2-.5-.4-.7-.6-.2-.3-.4-.6-.5-.9-.1-.4-.2-.8-.2-1.3,0-.6.1-1.2.3-1.7.2-.5.6-.9,1-1.3.5-.4,1-.6,1.7-.8.7-.2,1.5-.3,2.5-.3s1.5,0,2.1.3c.6.2,1.1.5,1.6.8.4.4.8.8,1,1.3.2.5.3,1.1.3,1.7h-3.7c0-.3-.2-.6-.4-.8-.3-.2-.6-.3-1.1-.3s-1,.1-1.3.3c-.3.2-.4.4-.4.7,0,.2,0,.3.1.4,0,.1.2.2.4.3.2,0,.5.1.8.2.3,0,.7.1,1.1.2.7.1,1.3.2,1.9.4.5.1,1.1.4,1.6.6.5.3.8.6,1.1,1.1.3.4.4,1,.4,1.7s-.1,1.4-.4,1.9c-.3.5-.7,1-1.2,1.4-.5.4-1.2.6-1.9.8-.8.2-1.6.3-2.4.3-1,0-1.8-.1-2.5-.4-.7-.3-1.2-.6-1.7-1-.4-.4-.7-.9-1-1.4-.2-.5-.3-1-.3-1.5h3.6ZM128.6,11.5c0-.9.2-1.8.5-2.6.3-.8.8-1.5,1.4-2.1.6-.6,1.4-1.1,2.2-1.4.8-.4,1.8-.5,2.8-.5s2,.2,2.8.5c.8.3,1.6.8,2.2,1.4.6.6,1.1,1.3,1.4,2.1.3.8.5,1.7.5,2.6,0,.3,0,.5,0,.6,0,.1,0,.3,0,.4h-10c.1.4.3.7.5,1.1.2.3.5.6.8.8.3.2.6.4.9.5.3.1.7.2,1.1.2.6,0,1.1-.1,1.5-.4.4-.2.7-.5,1-.9h4c-.4,1.2-1.2,2.2-2.2,3-.6.4-1.2.8-1.9,1-.7.2-1.5.4-2.4.4s-1.9-.2-2.8-.5c-.8-.3-1.5-.8-2.2-1.4-.6-.6-1.1-1.3-1.4-2.1-.3-.8-.5-1.7-.5-2.6M135.5,7.8c-.8,0-1.4.2-2,.6-.5.4-.9.9-1.2,1.5h6.1c-.2-.6-.6-1.1-1.1-1.5-.5-.4-1.1-.6-1.9-.6"/>
</svg>