<svg width="199" height="40" viewBox="0 0 199 40" fill="none" xmlns="http://www.w3.org/2000/svg">
<g clip-path="url(#clip0_7586_2862)">
<mask id="mask0_7586_2862" style="mask-type:luminance" maskUnits="userSpaceOnUse" x="0" y="0" width="199" height="40">
<path d="M198.02 0H0V40H198.02V0Z" fill="white"/>
</mask>
<g mask="url(#mask0_7586_2862)">
<path d="M23.5244 25.88C23.5244 31.76 18.6244 35.08 11.2444 35.08C6.82438 35.08 2.84438 33.94 -0.015625 32.12L2.36438 25.28C3.42438 26.9 4.66438 28.24 6.50438 29.52C8.32438 30.78 10.7844 31.22 13.2444 30.74C15.2244 30.36 16.6844 28.82 16.6844 26.4C16.6844 24.68 15.8644 23.08 13.4044 21.64L6.10438 17.4C2.16438 15.04 0.00437495 12.06 0.00437495 8.8C0.00437495 2.92 5.36438 0 12.2844 0C16.7044 0 20.6844 1.14 23.5444 2.96L21.1444 9.8C20.0844 8.18 18.8444 6.84 17.0044 5.56C15.1844 4.3 12.7244 3.86 10.2644 4.34C8.28438 4.72 6.82438 6.34 6.82438 8.26C6.82438 9.98 8.06438 11.44 10.5044 12.86L17.8244 17.12C21.9444 19.5 23.5244 22.3 23.5244 25.88Z" fill="#273549"/>
<path d="M158.143 32.5975L149.303 17.9175C154.583 17.0575 158.503 13.3775 158.503 9.1775C158.503 3.3575 153.623 0.4375 146.603 0.4375H131.883C132.103 1.5175 132.263 2.4575 132.363 3.2775C132.463 4.0975 132.503 4.9375 132.503 5.7975V29.2575C132.503 30.1175 132.443 30.9575 132.363 31.7775C132.263 32.5975 132.103 33.5575 131.883 34.6175H139.463C139.243 33.5575 139.083 32.5975 138.983 31.7775C138.883 30.9575 138.843 30.1175 138.843 29.2575V19.0375C142.023 19.0375 143.783 19.6975 145.503 22.5375L153.063 35.0775C155.283 38.7775 158.343 39.9975 162.623 39.9975C165.543 39.9975 167.623 38.5575 168.443 36.7175C166.143 37.3975 161.003 37.3575 158.143 32.5975ZM143.223 15.3175H138.763V4.1575H143.223C148.743 4.1575 151.703 6.2375 151.703 9.7575C151.703 13.2575 148.723 15.3175 143.223 15.3175Z" fill="#273549"/>
<path d="M197.403 29.26V5.8C197.403 4.94 197.463 4.1 197.543 3.28C197.643 2.46 197.803 1.5 198.023 0.44H190.443C190.663 1.52 190.823 2.46 190.923 3.28C191.023 4.1 191.063 4.94 191.063 5.8V6.06C189.523 2.92 185.323 0 180.363 0C170.563 0 163.703 6.88 164.103 17.54C164.503 28.2 170.543 35.08 180.363 35.08C185.163 35.08 189.403 32.1 191.063 28.98V29.28C191.063 30.14 191.003 30.98 190.923 31.8C190.823 32.62 190.663 33.58 190.443 34.64H198.023C197.803 33.56 197.643 32.62 197.543 31.8C197.463 30.96 197.403 30.12 197.403 29.26ZM180.963 30.46C174.083 30.46 170.883 24.58 170.883 17.3C170.883 10.04 174.083 4.14 180.963 4.14C187.843 4.14 191.043 10.02 191.043 17.3C191.063 24.56 187.863 30.46 180.963 30.46Z" fill="#273549"/>
<path d="M125.927 31.7975C125.547 30.9775 125.207 30.1175 124.907 29.2575L114.847 0.4375H104.747L94.6869 29.2575C94.3869 30.1175 94.0469 30.9775 93.6669 31.7975C93.2869 32.6175 92.7269 33.5975 92.0469 34.6175H99.9669C100.007 33.4575 100.127 32.5975 100.307 31.7775C100.507 30.9575 100.747 30.1175 101.047 29.2575L103.047 23.5175C107.307 23.6975 110.667 24.5975 114.047 26.5975L115.847 21.4575L118.567 29.2575C118.867 30.1175 119.107 30.9575 119.307 31.7775C119.507 32.5975 119.607 33.4575 119.667 34.6175H127.587C126.867 33.5975 126.307 32.6375 125.927 31.7975ZM104.347 19.7775L109.807 4.1375L115.247 19.7775H104.347Z" fill="#273549"/>
<path d="M75.2256 4.1575V15.3375H88.8456L86.4456 22.1775C83.1856 19.9975 79.4256 19.0575 75.2256 19.0575V29.2975C75.2256 30.1575 75.2856 30.9775 75.3656 31.8175C75.4656 32.6375 75.6256 33.5975 75.8456 34.6575H68.2656C68.4856 33.5975 68.6456 32.6375 68.7456 31.8175C68.8456 30.9975 68.8856 30.1575 68.8856 29.2975V5.7975C68.8856 4.9375 68.8256 4.1175 68.7456 3.2775C68.6456 2.4575 68.4856 1.4975 68.2656 0.4375H94.0456L91.6656 7.2775C86.0856 4.7775 81.8856 4.1575 75.2256 4.1575Z" fill="#273549"/>
<path d="M52.6228 31.7775C52.5228 32.5975 52.3628 33.5575 52.1428 34.6175H59.7228C59.5028 33.5575 59.3428 32.5975 59.2428 31.7775C59.1428 30.9575 59.1028 30.1175 59.1028 29.2575V14.2975C59.1028 4.2775 54.4628 0.4375 44.9828 0.4375H33.0628L35.4628 7.2775C38.7228 5.0975 42.4828 4.1575 46.6828 4.1575C50.5028 4.1575 52.7428 6.2375 52.7428 9.3775V10.3975L40.3028 12.5775C33.4628 13.7775 29.8828 17.9575 29.8828 24.4975C29.8828 31.0375 34.8828 35.0775 40.6628 35.0775C46.4228 35.0775 51.1628 32.4175 52.7428 28.0975V29.2775C52.7628 30.1175 52.7028 30.9575 52.6228 31.7775ZM42.7828 30.2575C39.1628 30.2575 36.7428 27.7375 36.7428 24.4975C36.7428 20.7575 38.9428 17.8775 43.4628 16.6575L52.7628 14.1975V18.0375C52.7628 25.0775 47.9228 30.2575 42.7828 30.2575Z" fill="#273549"/>
</g>
</g>
<defs>
<clipPath id="clip0_7586_2862">
<rect width="199" height="40" fill="white"/>
</clipPath>
</defs>
</svg>
