<svg width="200" height="40" viewBox="0 0 200 40" fill="none" xmlns="http://www.w3.org/2000/svg">
<path d="M24.5205 25.88C24.5205 31.76 19.6205 35.08 12.2405 35.08C7.82047 35.08 3.84047 33.94 0.980469 32.12L3.36047 25.28C4.42047 26.9 5.66047 28.24 7.50047 29.52C9.32047 30.78 11.7805 31.22 14.2405 30.74C16.2205 30.36 17.6805 28.82 17.6805 26.4C17.6805 24.68 16.8605 23.08 14.4005 21.64L7.10047 17.4C3.16047 15.04 1.00047 12.06 1.00047 8.8C1.00047 2.92 6.36047 0 13.2805 0C17.7005 0 21.6805 1.14 24.5405 2.96L22.1405 9.8C21.0805 8.18 19.8405 6.84 18.0005 5.56C16.1805 4.3 13.7205 3.86 11.2605 4.34C9.28047 4.72 7.82047 6.34 7.82047 8.26C7.82047 9.98 9.06047 11.44 11.5005 12.86L18.8205 17.12C22.9405 19.5 24.5205 22.3 24.5205 25.88Z" fill="white"/>
<path d="M159.143 32.5995L150.303 17.9195C155.583 17.0595 159.503 13.3795 159.503 9.17945C159.503 3.35945 154.623 0.439453 147.603 0.439453H132.883C133.103 1.51945 133.263 2.45945 133.363 3.27945C133.463 4.09945 133.503 4.93945 133.503 5.79945V29.2595C133.503 30.1195 133.443 30.9595 133.363 31.7795C133.263 32.5995 133.103 33.5595 132.883 34.6195H140.463C140.243 33.5595 140.083 32.5995 139.983 31.7795C139.883 30.9595 139.843 30.1195 139.843 29.2595V19.0395C143.023 19.0395 144.783 19.6995 146.503 22.5395L154.063 35.0795C156.283 38.7795 159.343 39.9995 163.623 39.9995C166.543 39.9995 168.623 38.5595 169.443 36.7195C167.143 37.3995 162.003 37.3595 159.143 32.5995ZM144.223 15.3195H139.763V4.15945H144.223C149.743 4.15945 152.703 6.23945 152.703 9.75945C152.703 13.2595 149.723 15.3195 144.223 15.3195Z" fill="white"/>
<path d="M198.403 29.26V5.8C198.403 4.94 198.463 4.1 198.543 3.28C198.643 2.46 198.803 1.5 199.023 0.44H191.443C191.663 1.52 191.823 2.46 191.923 3.28C192.023 4.1 192.063 4.94 192.063 5.8V6.06C190.523 2.92 186.323 0 181.363 0C171.563 0 164.703 6.88 165.103 17.54C165.503 28.2 171.543 35.08 181.363 35.08C186.163 35.08 190.403 32.1 192.063 28.98V29.28C192.063 30.14 192.003 30.98 191.923 31.8C191.823 32.62 191.663 33.58 191.443 34.64H199.023C198.803 33.56 198.643 32.62 198.543 31.8C198.463 30.96 198.403 30.12 198.403 29.26ZM181.963 30.46C175.083 30.46 171.883 24.58 171.883 17.3C171.883 10.04 175.083 4.14 181.963 4.14C188.843 4.14 192.043 10.02 192.043 17.3C192.063 24.56 188.863 30.46 181.963 30.46Z" fill="white"/>
<path d="M126.919 31.7995C126.539 30.9795 126.199 30.1195 125.899 29.2595L115.839 0.439453H105.739L95.6791 29.2595C95.3791 30.1195 95.0391 30.9795 94.6591 31.7995C94.2791 32.6195 93.7191 33.5995 93.0391 34.6195H100.959C100.999 33.4595 101.119 32.5995 101.299 31.7795C101.499 30.9595 101.739 30.1195 102.039 29.2595L104.039 23.5195C108.299 23.6995 111.659 24.5995 115.039 26.5995L116.839 21.4595L119.559 29.2595C119.859 30.1195 120.099 30.9595 120.299 31.7795C120.499 32.5995 120.599 33.4595 120.659 34.6195H128.579C127.859 33.5995 127.299 32.6395 126.919 31.7995ZM105.339 19.7795L110.799 4.13945L116.239 19.7795H105.339Z" fill="white"/>
<path d="M76.2217 4.15945V15.3395H89.8417L87.4417 22.1795C84.1817 19.9995 80.4217 19.0595 76.2217 19.0595V29.2995C76.2217 30.1595 76.2817 30.9795 76.3617 31.8195C76.4617 32.6395 76.6217 33.5995 76.8417 34.6595H69.2617C69.4817 33.5995 69.6417 32.6395 69.7417 31.8195C69.8417 30.9995 69.8817 30.1595 69.8817 29.2995V5.79945C69.8817 4.93945 69.8217 4.11945 69.7417 3.27945C69.6417 2.45945 69.4817 1.49945 69.2617 0.439453H95.0417L92.6617 7.27945C87.0817 4.77945 82.8817 4.15945 76.2217 4.15945Z" fill="white"/>
<path d="M53.6228 31.7795C53.5228 32.5995 53.3628 33.5595 53.1428 34.6195H60.7228C60.5028 33.5595 60.3428 32.5995 60.2428 31.7795C60.1428 30.9595 60.1028 30.1195 60.1028 29.2595V14.2995C60.1028 4.27945 55.4628 0.439453 45.9828 0.439453H34.0628L36.4628 7.27945C39.7228 5.09945 43.4828 4.15945 47.6828 4.15945C51.5028 4.15945 53.7428 6.23945 53.7428 9.37945V10.3995L41.3028 12.5795C34.4628 13.7795 30.8828 17.9595 30.8828 24.4995C30.8828 31.0395 35.8828 35.0795 41.6628 35.0795C47.4228 35.0795 52.1628 32.4195 53.7428 28.0995V29.2795C53.7628 30.1195 53.7028 30.9595 53.6228 31.7795ZM43.7828 30.2595C40.1628 30.2595 37.7428 27.7395 37.7428 24.4995C37.7428 20.7595 39.9428 17.8795 44.4628 16.6595L53.7628 14.1995V18.0395C53.7628 25.0795 48.9228 30.2595 43.7828 30.2595Z" fill="white"/>
</svg>
