<?xml version="1.0" encoding="UTF-8"?>
<svg id="blue_x5F_white_x5F_edge" xmlns="http://www.w3.org/2000/svg" xmlns:xlink="http://www.w3.org/1999/xlink" version="1.1" viewBox="0 0 294.5 78">
  <!-- Generator: Adobe Illustrator 30.4.0, SVG Export Plug-In . SVG Version: 2.1.4 Build 226)  -->
  <defs>
    <style>
      .st0 {
        fill: url(#linear-gradient2);
      }

      .st1 {
        fill: url(#linear-gradient1);
      }

      .st2 {
        fill: url(#linear-gradient);
      }

      .st3 {
        fill: #fff;
      }

      .st4 {
        display: none;
      }
    </style>
    <linearGradient id="linear-gradient" x1="170.2" y1="1189.9" x2="197.2" y2="1189.9" gradientTransform="translate(0 -1153.5)" gradientUnits="userSpaceOnUse">
      <stop offset="0" stop-color="#194f90"/>
      <stop offset="1" stop-color="#009ade"/>
    </linearGradient>
    <linearGradient id="linear-gradient1" x1="156.3" y1="1189.9" x2="183.3" y2="1189.9" gradientTransform="translate(0 -1153.5)" gradientUnits="userSpaceOnUse">
      <stop offset="0" stop-color="#194f90"/>
      <stop offset="1" stop-color="#009ade"/>
    </linearGradient>
    <linearGradient id="linear-gradient2" x1=".9" y1="1189.9" x2="69.7" y2="1189.9" gradientTransform="translate(0 -1153.5)" gradientUnits="userSpaceOnUse">
      <stop offset="0" stop-color="#194f90"/>
      <stop offset="1" stop-color="#009ade"/>
    </linearGradient>
  </defs>
  <g class="st4">
    <path class="st3" d="M89.1,66.9c1.2,0,2,.4,2.8,1.1,0,0,0,.2,0,.3l-.7.7c0,0-.2,0-.3,0-.5-.4-1.1-.7-1.8-.7-1.5,0-2.6,1.3-2.6,2.7s1.1,2.7,2.6,2.7,1.3-.3,1.8-.7c0,0,.2,0,.3,0l.7.8c0,0,0,.2,0,.3-.8.8-1.8,1.1-2.9,1.1-2.4,0-4.2-1.9-4.2-4.2,0-2.2,1.9-4.1,4.3-4.1Z"/>
    <path class="st3" d="M113.5,66.9c2.4,0,4.2,1.9,4.2,4.2s-1.9,4.2-4.2,4.2-4.2-1.9-4.2-4.2,1.9-4.2,4.2-4.2ZM113.5,73.9c1.5,0,2.7-1.2,2.7-2.7s-1.2-2.7-2.7-2.7-2.7,1.2-2.7,2.7,1.2,2.7,2.7,2.7Z"/>
    <path class="st3" d="M136.6,67.1c0,0,.1-.2.2-.2h.2c.1,0,.2,0,.2,0l2.6,5.5h0l2.6-5.5c0,0,.1,0,.2,0h.2c.1,0,.2,0,.2.2l1.4,7.9c0,.2-.1.3-.2.3h-1.1c-.1,0-.2,0-.2-.2l-.7-4.4h0l-2.1,4.6c0,0-.1,0-.2,0h-.2c-.1,0-.2,0-.2,0l-2.1-4.6h0l-.7,4.4c0,0-.1.2-.2.2h-1.1c-.2,0-.2,0-.2-.3l1.4-7.9h0Z"/>
    <path class="st3" d="M162.4,67.3c0,0,.1-.2.2-.2h2.8c1.4,0,2.6,1.2,2.6,2.6s-1.2,2.6-2.6,2.6h-1.5v2.7c0,0-.1.2-.2.2h-1.1c-.1,0-.2,0-.2-.2v-7.7h0ZM165.3,70.9c.7,0,1.2-.5,1.2-1.2s-.6-1.1-1.2-1.1h-1.4v2.4h1.4Z"/>
    <path class="st3" d="M185.7,67.3c0,0,.1-.2.2-.2h1.1c.1,0,.2,0,.2.2v4.8c0,1,.7,1.8,1.7,1.8s1.7-.8,1.7-1.8v-4.8c0,0,.1-.2.2-.2h1.1c.1,0,.2,0,.2.2v4.9c0,1.8-1.4,3.2-3.3,3.2s-3.3-1.4-3.3-3.2l.2-4.9h0Z"/>
    <path class="st3" d="M211.8,68.5h-1.8c-.1,0-.2,0-.2-.2v-1c0,0,.1-.2.2-.2h5.1c.1,0,.2,0,.2.2v1c0,0-.1.2-.2.2h-1.8v6.6c0,0-.1.2-.2.2h-1.1c-.1,0-.2,0-.2-.2v-6.6h0Z"/>
    <path class="st3" d="M233,67.3c0,0,.1-.2.2-.2h1.1c.1,0,.2,0,.2.2v7.7c0,0-.1.2-.2.2h-1.1c-.1,0-.2,0-.2-.2v-7.7Z"/>
    <path class="st3" d="M253.1,67.2c0,0,.1-.2.2-.2h.3l4.9,5.2h0v-4.9c0,0,.1-.2.2-.2h1.1c.1,0,.2,0,.2.2v7.9c0,0-.1.2-.2.2h-.3l-4.9-5.4h0v5.1c0,0-.1.2-.2.2h-1.1c-.1,0-.2,0-.2-.2v-7.9h0Z"/>
    <path class="st3" d="M282.3,66.9c1.1,0,2.1.4,2.9,1.1.1,0,.1.2,0,.3l-.7.8c-.1,0-.2,0-.3,0-.5-.4-1.1-.7-1.8-.7-1.5,0-2.6,1.3-2.6,2.7s1.2,2.7,2.6,2.7,1.2-.2,1.4-.3v-1h-.9c-.1,0-.2,0-.2-.2v-.9c0,0,.1-.2.2-.2h2.3c.1,0,.2,0,.2.2v3c0,0,0,.2-.1.2,0,0-1.2.8-2.9.8s-4.2-1.9-4.2-4.2c0-2.4,1.8-4.3,4.1-4.3h0Z"/>
    <polygon class="st2" points="189.1 14.6 197.2 14.6 178.3 58.2 170.2 58.2 189.1 14.6"/>
    <polygon class="st1" points="175.2 14.6 183.4 14.6 164.5 58.2 156.3 58.2 175.2 14.6"/>
    <path class="st3" d="M148.7,46.8c-2.6,2.7-6.1,4.4-10.1,4.6-8.3.4-15.4-6-15.8-14.3s6-15.4,14.3-15.8c4.9-.3,9.3,1.9,12.3,5.3l5.4-4.1c-4.2-5.2-10.8-8.3-18-7.9-12,.6-21.3,10.9-20.7,22.9.6,12,10.9,21.3,22.9,20.7,6.2-.3,11.7-3.2,15.4-7.6l-5.7-3.8h0Z"/>
    <polygon class="st3" points="200.7 25.1 215 58.4 207.1 58.4 192.7 25.1 200.7 25.1"/>
    <polygon class="st3" points="249.1 51.3 229.3 51.3 229.3 14.7 222.2 14.7 222.2 58.4 224 58.4 229.3 58.4 249.1 58.4 249.1 51.3"/>
    <path class="st3" d="M99.4,33c-5.8-2.2-7.7-3.8-7.7-6.9s3.5-5.1,6.9-5.1,5.2.7,6.8,1.5l2.6-5.9c-1.6-.8-4.6-1.8-9.2-1.8-8.6,0-14.5,4.9-14.5,12s3.7,9.6,11.7,12.4c5.4,2,7.3,3.8,7.3,7.1s-3,5.9-7.8,5.9-6.5-.9-9.1-2.4l-2.6,5.9h0c2.5,1.6,7.1,2.7,11.2,2.7s8.9-1.3,11.7-3.7c2.6-2.2,4-5.4,4-8.9,0-6-3.4-9.8-11.4-12.8h0Z"/>
    <polygon class="st3" points="263.3 21.8 285.5 21.8 285.5 14.7 263.3 14.7 258.1 14.7 256.2 14.7 256.2 58.4 258.1 58.4 263.3 58.4 285.5 58.4 285.5 51.3 263.3 51.3 263.3 45.8 263.3 40.3 263.3 40.3 278.2 40.3 278.2 33.2 263.3 33.2 263.3 31.3 263.3 21.8"/>
    <path class="st0" d="M35.3,2C16.3,2,.9,17.4.9,36.4s15.4,34.4,34.4,34.4,34.4-15.4,34.4-34.4c0-18.9-15.4-34.3-34.4-34.4h0Z"/>
    <polygon class="st3" points="15.4 58.2 34.1 14.9 42.1 14.9 23.4 58.2 15.4 58.2"/>
    <polygon class="st3" points="37.1 58.2 29.1 58.2 47.8 14.9 55.9 14.9 37.1 58.2"/>
  </g>
  <g>
    <path class="st3" d="M88.1,67c1.2,0,2,.4,2.8,1.1,0,0,0,.2,0,.3l-.7.7c0,0-.2,0-.3,0-.5-.4-1.1-.7-1.8-.7-1.5,0-2.6,1.2-2.6,2.7s1.1,2.7,2.6,2.7,1.3-.3,1.8-.7c0,0,.2,0,.3,0l.7.7c0,0,0,.2,0,.3-.8.8-1.8,1.1-2.8,1.1-2.3,0-4.2-1.8-4.2-4.2s1.8-4,4.2-4Z"/>
    <path class="st3" d="M112.3,67c2.3,0,4.2,1.9,4.2,4.2s-1.9,4.2-4.2,4.2-4.2-1.8-4.2-4.2c0-2.4,1.8-4.2,4.2-4.2ZM112.3,73.8c1.5,0,2.7-1.2,2.7-2.7s-1.2-2.7-2.7-2.7-2.7,1.2-2.7,2.7c0,1.5,1.2,2.7,2.7,2.7Z"/>
    <path class="st3" d="M135.1,67.1c0,0,.1-.2.2-.2h.2c.1,0,.2,0,.2,0l2.6,5.5h0l2.6-5.5c0,0,.1,0,.2,0h.2c.1,0,.2,0,.2.2l1.4,7.8c0,.2-.1.3-.2.3h-1.1c-.1,0-.2,0-.2-.2l-.7-4.4h0l-2,4.6c0,0-.1,0-.2,0h-.2c-.1,0-.2,0-.2,0l-2.1-4.6h0l-.7,4.4c0,0-.1.2-.2.2h-1c-.2,0-.2,0-.2-.3l1.2-7.8h0Z"/>
    <path class="st3" d="M160.7,67.3c0,0,.1-.2.2-.2h2.7c1.4,0,2.6,1.2,2.6,2.6s-1.2,2.6-2.6,2.6h-1.5v2.7c0,0-.1.2-.2.2h-1.1c-.1,0-.2,0-.2-.2v-7.7h.1ZM163.6,70.8c.7,0,1.2-.5,1.2-1.2s-.5-1.1-1.2-1.1h-1.3v2.3s1.3,0,1.3,0Z"/>
    <path class="st3" d="M183.7,67.3c0,0,.1-.2.2-.2h1.1c.1,0,.2,0,.2.2v4.7c0,1,.7,1.8,1.7,1.8s1.7-.8,1.7-1.8v-4.8c0,0,.1-.2.2-.2h1.1c.1,0,.2,0,.2.2v4.8c0,1.8-1.4,3.2-3.2,3.2s-3.2-1.4-3.2-3.2v-4.7h0Z"/>
    <path class="st3" d="M209.6,68.5h-1.8c-.1,0-.2,0-.2-.2v-1c0,0,.1-.2.2-.2h5.1c.1,0,.2,0,.2.2v1c0,0-.1.2-.2.2h-1.8v6.5c0,0-.1.2-.2.2h-1.1c-.1,0-.2,0-.2-.2v-6.5h0Z"/>
    <path class="st3" d="M230.6,67.3c0,0,.1-.2.2-.2h1.1c.1,0,.2,0,.2.2v7.7c0,0-.1.2-.2.2h-1.1c-.1,0-.2,0-.2-.2v-7.7Z"/>
    <path class="st3" d="M250.6,67.2c0,0,.1-.2.2-.2h.3l4.8,5.1h0v-4.8c0,0,0-.2.2-.2h1.1c.1,0,.2,0,.2.2v7.8c0,0-.1.2-.2.2h-.3l-4.9-5.3h0v5c0,0-.1.2-.2.2h-1.1c-.1,0-.2,0-.2-.2v-7.8h0Z"/>
    <path class="st3" d="M279.4,67c1,0,2,.4,2.8,1.1.1,0,.1.2,0,.3l-.7.8c-.1,0-.2,0-.3,0-.5-.4-1.1-.7-1.8-.7-1.5,0-2.6,1.2-2.6,2.7s1.1,2.7,2.6,2.7,1.1-.2,1.4-.3v-1h-.8c-.1,0-.2,0-.2-.2v-.9c0,0,.1-.2.2-.2h2.2c.1,0,.2,0,.2.2v3c0,0,0,.2-.1.2,0,0-1.2.8-2.9.8s-4.2-1.8-4.2-4.2,1.9-4.3,4.2-4.3h0Z"/>
    <polygon class="st3" points="187.1 15.1 195.2 15.1 176.4 58.3 168.4 58.3 187.1 15.1"/>
    <polygon class="st3" points="173.4 15.1 181.5 15.1 162.7 58.3 154.7 58.3 173.4 15.1"/>
    <path class="st3" d="M147.1,47c-2.5,2.7-6.1,4.4-10,4.6-8.2.4-15.2-5.9-15.7-14.1-.4-8.2,5.9-15.2,14.1-15.7,4.8-.3,9.2,1.8,12.1,5.3l5.4-4.1c-4.2-5.1-10.7-8.2-17.8-7.9-11.9.6-21.1,10.8-20.5,22.7s10.8,21.1,22.7,20.5c6.1-.3,11.6-3.2,15.3-7.5l-5.6-3.8h0Z"/>
    <polygon class="st3" points="198.6 25.6 212.8 58.5 204.9 58.5 190.7 25.6 198.6 25.6"/>
    <polygon class="st3" points="246.5 51.4 226.9 51.4 226.9 15.2 219.9 15.2 219.9 58.5 221.7 58.5 226.9 58.5 246.5 58.5 246.5 51.4"/>
    <path class="st3" d="M98.3,33.3c-5.8-2.2-7.6-3.8-7.6-6.8s3.4-5,6.9-5,5.2.7,6.7,1.5l2.5-5.9c-1.6-.8-4.6-1.8-9.1-1.8-8.5,0-14.4,4.9-14.4,11.8s3.7,9.5,11.6,12.3c5.3,2,7.2,3.8,7.2,7s-3,5.8-7.7,5.8-6.4-.9-9-2.4l-2.5,5.9h0c2.5,1.6,7.1,2.7,11.1,2.7s8.8-1.3,11.6-3.7c2.5-2.2,3.9-5.3,3.9-8.8,0-5.8-3.4-9.6-11.3-12.6h0Z"/>
    <polygon class="st3" points="260.6 22.3 282.6 22.3 282.6 15.2 260.6 15.2 255.4 15.2 253.6 15.2 253.6 58.5 255.4 58.5 260.6 58.5 282.6 58.5 282.6 51.4 260.6 51.4 260.6 46.1 260.6 40.6 260.6 40.5 275.4 40.5 275.4 33.5 260.6 33.5 260.6 31.6 260.6 22.3"/>
    <path class="st3" d="M34.8,2.7C15.9,2.7.7,17.9.7,36.7s15.3,34.1,34.1,34.1,34-15.2,34.1-34c-.1-18.8-15.3-34.1-34.1-34.1ZM15.1,58.3L33.6,15.4h8l-18.6,42.9h-7.9ZM36.6,58.3h-8L47.2,15.4h8l-18.6,42.9Z"/>
    <g>
      <polygon class="st3" points="287.6 19.5 286.9 19.5 286.9 15.8 285.5 15.8 285.5 15.1 289 15.1 289 15.8 287.6 15.8 287.6 19.5"/>
      <polygon class="st3" points="293.8 19.5 293.1 19.5 293.1 16.4 291.8 18.4 291.7 18.4 291.6 18.3 290.3 16.4 290.3 19.5 289.6 19.5 289.6 15.1 290.3 15.1 290.3 15.2 291.7 17.3 293.2 15.1 293.8 15.1 293.8 19.5"/>
    </g>
  </g>
</svg>