<?xml version="1.0" encoding="UTF-8"?>
<svg id="Layer_1" xmlns="http://www.w3.org/2000/svg" xmlns:xlink="http://www.w3.org/1999/xlink" version="1.1" viewBox="0 0 294.5 83.8">
  <!-- Generator: Adobe Illustrator 30.4.0, SVG Export Plug-In . SVG Version: 2.1.4 Build 226)  -->
  <defs>
    <style>
      .st0 {
        fill: url(#linear-gradient2);
      }

      .st1 {
        fill: url(#linear-gradient1);
      }

      .st2 {
        fill: url(#linear-gradient3);
      }

      .st3 {
        fill: url(#linear-gradient5);
      }

      .st4 {
        fill: url(#linear-gradient4);
      }

      .st5 {
        fill: url(#linear-gradient);
      }

      .st6 {
        fill: #696969;
      }

      .st7 {
        fill: #fff;
      }

      .st8 {
        display: none;
      }
    </style>
    <linearGradient id="linear-gradient" x1="168" y1="-495.8" x2="192.5" y2="-495.8" gradientTransform="translate(0 -456) scale(1 -1)" gradientUnits="userSpaceOnUse">
      <stop offset="0" stop-color="#194f90"/>
      <stop offset="1" stop-color="#009ade"/>
    </linearGradient>
    <linearGradient id="linear-gradient1" x1="155.4" y1="-495.8" x2="179.9" y2="-495.8" gradientTransform="translate(0 -456) scale(1 -1)" gradientUnits="userSpaceOnUse">
      <stop offset="0" stop-color="#194f90"/>
      <stop offset="1" stop-color="#009ade"/>
    </linearGradient>
    <linearGradient id="linear-gradient2" x1="14.6" y1="-495.8" x2="76.9" y2="-495.8" gradientTransform="translate(0 -456) scale(1 -1)" gradientUnits="userSpaceOnUse">
      <stop offset="0" stop-color="#194f90"/>
      <stop offset="1" stop-color="#009ade"/>
    </linearGradient>
    <linearGradient id="linear-gradient3" x1="168.3" y1="493.6" x2="195" y2="493.6" gradientTransform="translate(0 -454)" gradientUnits="userSpaceOnUse">
      <stop offset="0" stop-color="#194f90"/>
      <stop offset="1" stop-color="#009ade"/>
    </linearGradient>
    <linearGradient id="linear-gradient4" x1="154.6" y1="493.6" x2="181.3" y2="493.6" gradientTransform="translate(0 -454)" gradientUnits="userSpaceOnUse">
      <stop offset="0" stop-color="#194f90"/>
      <stop offset="1" stop-color="#009ade"/>
    </linearGradient>
    <linearGradient id="linear-gradient5" x1="1" y1="493.6" x2="69" y2="493.6" gradientTransform="translate(0 -454)" gradientUnits="userSpaceOnUse">
      <stop offset="0" stop-color="#194f90"/>
      <stop offset="1" stop-color="#009ade"/>
    </linearGradient>
  </defs>
  <g id="blue_x5F_grey">
    <g class="st8">
      <path class="st6" d="M94.5,67.4c1.1,0,1.8.3,2.6,1,0,0,0,.2,0,.3l-.7.7c0,0-.2,0-.3,0-.4-.4-1-.6-1.6-.6-1.4,0-2.4,1.1-2.4,2.5s1,2.5,2.4,2.5,1.2-.2,1.6-.6.2,0,.3,0l.7.7c0,0,0,.2,0,.3-.7.7-1.6,1-2.6,1-2.1,0-3.8-1.7-3.8-3.8s1.7-3.9,3.8-4Z"/>
      <path class="st6" d="M116.7,67.4c2.1,0,3.8,1.7,3.8,3.8s-1.7,3.8-3.8,3.8-3.8-1.7-3.8-3.8,1.6-3.8,3.8-3.8ZM116.7,73.7c1.3,0,2.4-1.1,2.4-2.4s-1.1-2.5-2.4-2.5-2.4,1.1-2.4,2.5,1,2.4,2.4,2.4Z"/>
      <path class="st6" d="M137.6,67.6c0,0,.1-.2.2-.2h.2q.1,0,.2,0l2.3,5h0l2.3-5c0,0,.1,0,.2,0h.2c.1,0,.2,0,.2.2l1.2,7.2c0,.2-.1.2-.2.2h-1c-.1,0-.2,0-.2-.2l-.6-4h0l-1.9,4.2c0,0-.1,0-.2,0h-.2c-.1,0-.1,0-.2,0l-1.9-4.2h0l-.6,4c0,0-.1.2-.2.2h-1c-.1,0-.2,0-.2-.2l1.4-7.2h0Z"/>
      <path class="st6" d="M161,67.8c0,0,.1-.2.2-.2h2.5c1.3,0,2.4,1.1,2.4,2.3s-1.1,2.4-2.4,2.4h-1.3v2.5c0,0-.1.2-.2.2h-1c-.1,0-.2,0-.2-.2v-7h0ZM163.6,71c.6,0,1.1-.5,1.1-1.1s-.5-1-1.1-1h-1.2v2.1h1.2Z"/>
      <path class="st6" d="M182.1,67.8c0,0,.1-.2.2-.2h1c.1,0,.2,0,.2.2v4.3c0,.9.6,1.6,1.5,1.6s1.6-.7,1.6-1.6v-4.4c0,0,.1-.2.2-.2h1c.1,0,.2,0,.2.2v4.4c0,1.6-1.3,2.9-3,2.9s-3-1.3-3-2.9v-4.3h.1Z"/>
      <path class="st6" d="M205.7,68.8h-1.6c-.1,0-.2,0-.2-.2v-.9c0,0,.1-.2.2-.2h4.6c.1,0,.2,0,.2.2v.9c0,0-.1.2-.2.2h-1.6v6c0,0-.1.2-.2.2h-1c-.1,0-.2,0-.2-.2v-6h0Z"/>
      <path class="st6" d="M224.9,67.8c0,0,.1-.2.2-.2h1c.1,0,.2,0,.2.2v7c0,0-.1.2-.2.2h-1c-.1,0-.2,0-.2-.2v-7Z"/>
      <path class="st6" d="M243.2,67.6c0,0,.1-.2.2-.2h.3l4.4,4.7h0v-4.4c0,0,.1-.2.2-.2h1c.1,0,.2,0,.2.2v7.2c0,0-.1.2-.2.2h-.3l-4.4-4.9h0v4.6c0,0-.1.2-.2.2h-1c-.1,0-.2,0-.2-.2v-7.2h0Z"/>
      <path class="st6" d="M269.6,67.4c1,0,1.9.4,2.6,1,.1,0,.1.2,0,.3l-.7.7c-.1,0-.2,0-.3,0-.5-.4-1-.6-1.6-.6-1.3,0-2.4,1.1-2.4,2.5s1,2.4,2.4,2.4,1-.2,1.3-.3v-.9h-.9c-.1,0-.2,0-.2-.2v-.8c0,0,.1-.2.2-.2h2c.1,0,.2,0,.2.2v2.7q0,0-.1.2s-1.1.7-2.6.7-3.8-1.7-3.8-3.8,1.8-3.8,3.9-3.9h0Z"/>
      <polygon class="st5" points="185.1 20 192.5 20 175.4 59.6 168 59.6 185.1 20"/>
      <polygon class="st1" points="172.6 20 179.9 20 162.8 59.6 155.4 59.6 172.6 20"/>
      <path class="st6" d="M148.5,49.2c-2.3,2.4-5.6,4-9.2,4.2-7.5.4-13.9-5.4-14.3-12.9s5.4-13.9,12.9-14.3c4.4-.2,8.4,1.7,11.1,4.8l4.9-3.8c-3.8-4.7-9.8-7.5-16.3-7.2-10.9.6-19.3,9.8-18.7,20.8.6,10.9,9.8,19.3,20.7,18.7,5.6-.3,10.6-2.9,14-6.8l-5.1-3.5h0Z"/>
      <polygon class="st6" points="195.6 29.6 208.6 59.7 201.4 59.7 188.4 29.6 195.6 29.6"/>
      <polygon class="st6" points="239.5 53.3 221.5 53.3 221.5 20.1 215.1 20.1 215.1 59.7 216.8 59.7 221.5 59.7 239.5 59.7 239.5 53.3"/>
      <path class="st6" d="M103.9,36.7c-5.3-2-7-3.5-7-6.2s3.2-4.6,6.3-4.6,4.7.7,6.2,1.3l2.3-5.4c-1.5-.7-4.2-1.6-8.3-1.6-7.8,0-13.2,4.4-13.2,10.8s3.4,8.7,10.6,11.2c4.9,1.8,6.6,3.5,6.6,6.4s-2.7,5.3-7.1,5.3-5.9-.8-8.2-2.2l-2.3,5.4h0c2.3,1.5,6.4,2.5,10.2,2.5s8.1-1.2,10.6-3.4c2.3-2,3.6-4.9,3.6-8,0-5.3-3.2-8.8-10.4-11.5h0Z"/>
      <polygon class="st6" points="252.4 26.6 272.5 26.6 272.5 20.1 252.4 20.1 247.6 20.1 245.9 20.1 245.9 59.7 247.6 59.7 252.4 59.7 272.5 59.7 272.5 53.3 252.4 53.3 252.4 48.3 252.4 43.3 252.4 43.3 265.9 43.3 265.9 36.8 252.4 36.8 252.4 35.1 252.4 26.6"/>
      <path class="st0" d="M45.8,8.6c-17.2,0-31.2,13.9-31.2,31.2s13.9,31.2,31.2,31.2,31.1-14,31.1-31.2-13.9-31.1-31.1-31.2h0Z"/>
      <polygon class="st7" points="27.7 59.5 44.7 20.3 52 20.3 35 59.5 27.7 59.5"/>
      <polygon class="st7" points="47.5 59.5 40.2 59.5 57.1 20.3 64.4 20.3 47.5 59.5"/>
    </g>
  </g>
  <g id="Layer_2">
    <g>
      <g>
        <path class="st6" d="M88.1,69.8c1.2,0,2.1.3,2.8,1.1s.1.2,0,.3l-.8.8c-.1.1-.2.1-.3,0-.4-.4-1.1-.7-1.7-.7-1.5,0-2.6,1.2-2.6,2.7s1.1,2.7,2.6,2.7,1.3-.2,1.7-.7.2-.1.3,0l.8.8c.1.1.1.2,0,.3-.8.8-1.7,1.1-2.8,1.1-2.3,0-4.1-1.9-4.1-4.1s1.9-4.4,4.1-4.4Z"/>
        <path class="st6" d="M112.2,69.8c2.3,0,4.1,1.9,4.1,4.1s-1.9,4.1-4.1,4.1-4.1-1.9-4.1-4.1,1.9-4.1,4.1-4.1ZM112.2,76.6c1.4,0,2.6-1.2,2.6-2.6s-1.2-2.7-2.6-2.7-2.6,1.2-2.6,2.7,1.2,2.6,2.6,2.6Z"/>
        <path class="st6" d="M135,69.9c0-.1.1-.2.2-.2h.2q.1,0,.2.1l2.5,5.5h0l2.5-5.5c0-.1.1-.1.2-.1h.2c.1,0,.2.1.2.2l1.3,7.9c0,.2-.1.2-.2.2h-1.1c-.1,0-.2-.1-.2-.2l-.7-4.4h0l-2.1,4.6c0,.1-.1.1-.2.1h-.2c-.1,0-.1-.1-.2-.1l-2.1-4.6h0l-.7,4.4c0,.1-.1.2-.2.2h-1.1c-.1,0-.2-.1-.2-.2l1.5-7.9h0Z"/>
        <path class="st6" d="M160.5,70.1c0-.1.1-.2.2-.2h2.7c1.4,0,2.6,1.2,2.6,2.5s-1.2,2.6-2.6,2.6h-1.4v2.7c0,.1-.1.2-.2.2h-1.1c-.1,0-.2-.1-.2-.2v-7.6h0ZM163.5,73.6c.7,0,1.2-.5,1.2-1.2s-.5-1.1-1.2-1.1h-1.3v2.3h1.3Z"/>
        <path class="st6" d="M183.6,70.1c0-.1.1-.2.2-.2h1.1c.1,0,.2.1.2.2v4.7c0,1,.7,1.7,1.6,1.7s1.7-.8,1.7-1.7v-4.8c0-.1.1-.2.2-.2h1.1c.1,0,.2.1.2.2v4.8c0,1.7-1.4,3.2-3.3,3.2s-3.3-1.4-3.3-3.2v-4.7h.1Z"/>
        <path class="st6" d="M209.4,71.3h-1.7c-.1,0-.2-.1-.2-.2v-1c0-.1.1-.2.2-.2h5c.1,0,.2.1.2.2v1c0,.1-.1.2-.2.2h-1.7v6.5c0,.1-.1.2-.2.2h-1.1c-.1,0-.2-.1-.2-.2v-6.5h0Z"/>
        <path class="st6" d="M230.3,70.1c0-.1.1-.2.2-.2h1.1c.1,0,.2.1.2.2v7.6c0,.1-.1.2-.2.2h-1.1c-.1,0-.2-.1-.2-.2v-7.6Z"/>
        <path class="st6" d="M250.2,70c0-.1.1-.2.2-.2h.3l4.8,5.1h0v-4.8c0-.1.1-.2.2-.2h1.1c.1,0,.2.1.2.2v7.9c0,.1-.1.2-.2.2h-.3l-4.8-5.3h0v5c0,.1-.1.2-.2.2h-1.1c-.1,0-.2-.1-.2-.2v-7.9h0Z"/>
        <path class="st6" d="M279.1,69.8c1.1,0,2.1.4,2.8,1.1.1.1.1.2,0,.3l-.8.8c-.1.1-.2.1-.3,0-.5-.4-1.1-.7-1.7-.7-1.4,0-2.6,1.2-2.6,2.7s1.1,2.6,2.6,2.6,1.1-.2,1.4-.3v-1h-1c-.1,0-.2-.1-.2-.2v-.9c0-.1.1-.2.2-.2h2.2c.1,0,.2.1.2.2v2.9q0,.1-.1.2s-1.2.8-2.8.8-4.1-1.9-4.1-4.1,1.9-4.3,4.3-4.3h0Z"/>
        <polygon class="st2" points="186.9 18.1 195 18.1 176.2 61.2 168.3 61.2 186.9 18.1"/>
        <polygon class="st4" points="173.3 18.1 181.3 18.1 162.6 61.2 154.5 61.2 173.3 18.1"/>
        <path class="st6" d="M147,49.9c-2.5,2.6-6.1,4.4-10,4.6-8.2.4-15.2-5.9-15.6-14.1s5.9-15.2,14.1-15.6c4.8-.2,9.2,1.9,12.1,5.2l5.3-4.1c-4.1-5.1-10.7-8.2-17.8-7.9-11.9.7-21,10.7-20.4,22.7.7,11.9,10.7,21,22.6,20.4,6.1-.3,11.6-3.2,15.3-7.4l-5.6-3.8h0Z"/>
        <polygon class="st6" points="198.4 28.5 212.6 61.3 204.7 61.3 190.5 28.5 198.4 28.5"/>
        <polygon class="st6" points="246.3 54.3 226.6 54.3 226.6 18.2 219.6 18.2 219.6 61.3 221.5 61.3 226.6 61.3 246.3 61.3 246.3 54.3"/>
        <path class="st6" d="M98.4,36.2c-5.8-2.2-7.6-3.8-7.6-6.8s3.5-5,6.9-5,5.1.8,6.8,1.4l2.5-5.9c-1.6-.8-4.6-1.7-9.1-1.7-8.5,0-14.4,4.8-14.4,11.8s3.7,9.5,11.6,12.2c5.3,2,7.2,3.8,7.2,7s-2.9,5.8-7.7,5.8-6.4-.9-8.9-2.4l-2.5,5.9h.1c2.5,1.6,7,2.7,11.1,2.7s8.8-1.3,11.6-3.7c2.5-2.2,3.9-5.3,3.9-8.7-.1-5.8-3.5-9.6-11.3-12.5h0Z"/>
        <polygon class="st6" points="260.3 25.2 282.2 25.2 282.2 18.2 260.3 18.2 255.1 18.2 253.2 18.2 253.2 61.3 255.1 61.3 260.3 61.3 282.2 61.3 282.2 54.3 260.3 54.3 260.3 49 260.3 43.4 260.3 43.4 274.9 43.4 274.9 36.4 260.3 36.4 260.3 34.5 260.3 25.2"/>
        <path class="st3" d="M34.9,5.7C16.2,5.7.9,20.9.9,39.7s15.3,33.9,34,33.9,33.9-15.2,34-33.9c0-18.8-15.2-34-34-34q.1,0,0,0h0Z"/>
        <polygon class="st7" points="15.3 61.1 33.8 18.3 41.8 18.3 23.3 61.1 15.3 61.1"/>
        <polygon class="st7" points="36.9 61.1 28.8 61.1 47.4 18.3 55.3 18.3 36.9 61.1"/>
      </g>
      <g>
        <polygon class="st6" points="287.1 22.5 286.5 22.5 286.5 18.8 285.1 18.8 285.1 18.1 288.6 18.1 288.6 18.8 287.1 18.8 287.1 22.5"/>
        <polygon class="st6" points="293.4 22.5 292.7 22.5 292.7 19.3 291.4 21.3 291.2 21.3 291.2 21.3 289.9 19.3 289.9 22.5 289.2 22.5 289.2 18.1 289.9 18.1 289.9 18.1 291.3 20.3 292.7 18.1 293.4 18.1 293.4 22.5"/>
      </g>
    </g>
  </g>
</svg>