<?xml version="1.0" encoding="UTF-8"?>
<svg id="Layer_1" xmlns="http://www.w3.org/2000/svg" xmlns:xlink="http://www.w3.org/1999/xlink" version="1.1" viewBox="0 0 190.1 34.1">
  <!-- Generator: Adobe Illustrator 30.4.0, SVG Export Plug-In . SVG Version: 2.1.4 Build 226)  -->
  <defs>
    <style>
      .st0 {
        fill: none;
      }

      .st1 {
        fill: #ffe600;
      }

      .st2 {
        fill: #00ffe0;
      }

      .st3 {
        fill: #0b1419;
      }

      .st4 {
        clip-path: url(#clippath);
      }
    </style>
    <clipPath id="clippath">
      <rect class="st0" x=".5" y=".5" width="189.6" height="33.2"/>
    </clipPath>
  </defs>
  <g class="st4">
    <g>
      <path class="st1" d="M48.5,16.3c0,7.3-6.6,13.3-14.7,13.3s-14.7-6-14.7-13.3,6.6-13.3,14.7-13.3,14.7,6,14.7,13.3Z"/>
      <path class="st2" d="M17.3.5H.5v16.6c0,5.3,2.6,10.1,6.5,13.1h0c0,0,0,.1,0,.1,2.8,2.1,6.4,3.4,10.2,3.4,9.3,0,16.8-7.4,16.8-16.6S26.6.5,17.3.5Z"/>
      <path class="st3" d="M94.6,10.4c-2.1,0-3.6.8-4.5,2v-7.8c0-.3-.2-.4-.5-.4h-3.3c-.3,0-.5.2-.5.4v19.9c0,.3.2.4.5.4h2.9c.3,0,.5-.2.5-.4v-1.6c1.1,1.5,2.6,2.4,4.8,2.4,4.1,0,6.9-3.2,6.9-7.5s-2.8-7.5-6.9-7.5h0ZM93.8,21.7c-2.2,0-3.7-1.5-3.7-3.8s1.5-3.8,3.7-3.8,3.8,1.5,3.8,3.8-1.6,3.8-3.8,3.8Z"/>
      <path class="st3" d="M22.3,25.5c2.9,0,5.5-1.5,5.5-4.4,0-2.2-1.4-3.4-3.3-4.1l-2.1-.8c-.8-.3-1.4-.7-1.4-1.4s.5-1.1,1.4-1.1,1.7.4,2.7,1.2c.3.2.5.2.7,0l1.3-1.5c.2-.2.2-.4,0-.6-1.2-1.4-3-2.2-4.9-2.2-2.7,0-5.1,1.6-5.1,4.3s1.3,3.2,3.2,3.9l1.8.7c1.1.4,1.5.8,1.5,1.5s-.7,1.2-1.6,1.2-2.2-.5-3.4-1.4c-.2-.2-.5-.2-.7.1l-1.1,1.4c-.2.3-.2.6,0,.8,1.2,1.3,3,2.4,5.5,2.4h0Z"/>
      <path class="st3" d="M44.3,17.4c0-3.6-2.6-6.8-7-6.8s-7.5,3.2-7.5,7.4,3.2,7.5,8,7.5,3.9-.6,5.2-1.8c.3-.2.3-.4.2-.6l-1.1-1.5c-.2-.2-.3-.2-.5-.1-1.2.7-2.3.9-3.4.9-2.4,0-3.9-1-4.3-2.8h8.9c1.3,0,1.6-.8,1.6-2.2h0ZM37.4,13.9c1.8,0,3.1.9,3.3,2.8h-6.9c.3-1.9,1.7-2.8,3.6-2.8h0Z"/>
      <path class="st3" d="M55.7,10.6c-2.2,0-3.6,1.1-4.4,2.5v-1.7c-.1-.4-.3-.5-.6-.5h-3.1c-.3,0-.5.2-.5.4v13.4c0,.3.2.4.5.4h3.2c.3,0,.5-.2.5-.4v-7.4c0-2,1.1-3.1,2.9-3.1s2.7,1.1,2.7,3.1v7.4c0,.3.2.4.5.4h3.2c.3,0,.5-.2.5-.4v-8.3c0-3.7-2.2-5.9-5.3-5.9h0Z"/>
      <path class="st3" d="M69.4,25.5c2.9,0,5.5-1.5,5.5-4.4,0-2.2-1.4-3.4-3.3-4.1l-2.1-.8c-.8-.3-1.4-.7-1.4-1.4s.5-1.1,1.4-1.1,1.7.4,2.7,1.2c.3.2.5.2.7,0l1.3-1.5c.2-.2.2-.4,0-.6-1.2-1.4-3-2.2-4.9-2.2-2.7,0-5.1,1.6-5.1,4.3s1.3,3.2,3.2,3.9l1.8.7c1.1.4,1.5.8,1.5,1.5s-.7,1.2-1.6,1.2-2.2-.5-3.4-1.4c-.2-.2-.5-.2-.7.1l-1.1,1.4c-.2.3-.2.6,0,.8,1.2,1.3,3,2.4,5.5,2.4h0Z"/>
      <path class="st3" d="M80,8.4c1.3,0,2.3-1,2.3-2.2s-1-2.2-2.3-2.2-2.3,1-2.3,2.2,1,2.2,2.3,2.2ZM78.4,25.2h3.3c.3,0,.5-.2.5-.4v-13.4c0-.3-.2-.4-.5-.4h-3.3c-.3,0-.5.2-.5.4v13.4c0,.3.2.4.5.4Z"/>
      <path class="st3" d="M104.5,25.2h3.3c.3,0,.5-.2.5-.4V4.8c0-.3-.2-.4-.5-.4h-3.3c-.3,0-.5.2-.5.4v19.9c0,.3.2.4.5.4Z"/>
      <path class="st3" d="M125.6,17.4c0-3.6-2.6-6.8-7-6.8s-7.5,3.2-7.5,7.4,3.2,7.5,8,7.5,3.9-.6,5.2-1.8c.3-.2.3-.4.2-.6l-1.1-1.5c-.2-.2-.3-.2-.5-.1-1.2.7-2.3.9-3.4.9-2.4,0-3.9-1-4.3-2.8h8.9c1.3,0,1.6-.8,1.6-2.2h0ZM118.6,13.9c1.8,0,3.1.9,3.3,2.8h-6.9c.3-1.9,1.7-2.8,3.6-2.8h0Z"/>
      <path class="st3" d="M131.3,25.3h.8c.1,0,.2,0,.3-.2l2.3-6.5,2.3,6.5c0,.1.2.2.3.2h.8c.1,0,.2,0,.3-.2l2.6-7.5c0-.2,0-.3-.2-.3h-.7c-.1,0-.2,0-.2.2l-2.2,6.5-2.2-6.5c0-.1-.2-.2-.3-.2h-.8c-.1,0-.2,0-.3.2l-2.2,6.5-2.2-6.5c0-.1-.1-.2-.3-.2h-.7c-.2,0-.2,0-.2.3l2.6,7.5c0,.1.2.2.3.2h0Z"/>
      <path class="st3" d="M149.8,20.9c0-1.9-1.4-3.8-3.7-3.8s-4,1.8-4,4.1,1.6,4.2,4.2,4.2,2.1-.3,2.9-1c.1-.1.2-.2,0-.3l-.3-.4c0,0-.2,0-.2,0-.6.5-1.3.8-2.3.8-1.9,0-3-1.2-3.2-2.8h6c.5,0,.6-.2.6-.8h0ZM146.1,18.1c1.6,0,2.7,1.1,2.7,2.7h-5.6c.1-1.6,1.3-2.7,2.9-2.7Z"/>
      <path class="st3" d="M159.4,17.3h-.7c-.1,0-.2,0-.2.2v1.3c-.6-1.1-1.7-1.8-3.1-1.8-2.3,0-3.9,1.8-3.9,4.2s1.6,4.2,3.9,4.2,2.5-.7,3.1-1.7v1.3c0,.1,0,.2.2.2h.7c.1,0,.2,0,.2-.2v-7.5c0-.1,0-.2-.2-.2h0ZM155.6,24.4c-1.7,0-2.9-1.2-2.9-3.1s1.2-3.1,2.9-3.1,2.9,1.3,2.9,3.1-1.2,3.1-2.9,3.1Z"/>
      <path class="st3" d="M165.4,18.3c.1,0,.2,0,.2-.2v-.5c0-.1,0-.2-.2-.2h-1.3v-1.9c0-.1,0-.2-.2-.2h-.7c-.1,0-.2,0-.2.2v1.9h-1c-.1,0-.2,0-.2.2v.5c0,.1,0,.2.2.2h1v5.5c0,1.2.6,1.7,1.7,1.7s1,0,1-.4v-.5c0-.2,0-.2-.3-.2-.1,0-.4,0-.5,0-.5,0-.7-.2-.7-.9v-5.3h1.4Z"/>
      <path class="st3" d="M171.4,17.1c-1.3,0-2.2.6-2.6,1.5v-4.7c0-.1,0-.2-.2-.2h-.7c-.1,0-.2,0-.2.2v11.2c0,.1,0,.2.2.2h.7c.1,0,.2,0,.2-.2v-4.6c0-1.4,1-2.3,2.3-2.3s2.1.9,2.1,2.3v4.6c0,.1,0,.2.2.2h.8c.1,0,.2,0,.2-.2v-4.7c0-2.1-1.2-3.3-2.9-3.3h0Z"/>
      <path class="st3" d="M184.1,20.9c0-1.9-1.4-3.8-3.7-3.8s-4,1.8-4,4.1,1.6,4.2,4.2,4.2,2.1-.3,2.9-1c.1-.1.2-.2,0-.3l-.3-.4c0,0-.2,0-.2,0-.6.5-1.3.8-2.3.8-1.9,0-3-1.2-3.2-2.8h6c.5,0,.6-.2.6-.8h0ZM180.4,18.1c1.6,0,2.7,1.1,2.7,2.7h-5.6c.1-1.6,1.3-2.7,2.9-2.7Z"/>
      <path class="st3" d="M189.9,17.3c-.1,0-.4-.2-.7-.2-1,0-1.5.6-1.8,1.3v-.9c0-.2,0-.2-.3-.2h-.7c-.1,0-.2,0-.2.2v7.5c0,.1,0,.2.2.2h.7c.1,0,.2,0,.2-.2v-4.7c0-.9.4-2.2,1.8-2.2s.4,0,.6,0c.2,0,.3,0,.3-.2v-.6c0-.1,0-.2-.1-.3h0,0Z"/>
    </g>
  </g>
</svg>