<svg width="783" height="106" viewBox="0 0 783 106" fill="none" xmlns="http://www.w3.org/2000/svg">
<path d="M768.984 89.1729V16.8267H783.001V89.1729H768.984Z" fill="white"/>
<path d="M747.663 89.1729L741.788 73.1535H713.858L707.984 89.1729H693.555L721.279 16.8267H734.368L762.092 89.1729H747.663ZM718.29 61.2681H737.46L727.875 35.2234L718.29 61.2681Z" fill="white"/>
<path d="M613.367 89.1728V37.0836H626.353V44.9383C628.071 42.3201 630.338 40.2186 633.155 38.6339C636.041 37.0491 639.27 36.2568 642.843 36.2568C648.546 36.2568 653.115 37.9793 656.55 41.4244C660.055 44.8694 661.807 49.4169 661.807 55.0668V89.1728H648.821V58.1674C648.821 55.0668 647.928 52.5864 646.141 50.7261C644.355 48.7968 641.95 47.8322 638.927 47.8322C634.942 47.8322 631.85 49.4514 629.651 52.6897C627.453 55.9281 626.353 60.4756 626.353 66.3322V89.1728H613.367Z" fill="white"/>
<path d="M595.983 82.4548C590.898 87.4848 584.405 89.9998 576.504 89.9998C568.602 89.9998 562.109 87.4848 557.025 82.4548C551.941 77.3564 549.398 70.9141 549.398 63.1283C549.398 55.3424 551.941 48.9346 557.025 43.9048C562.109 38.8061 568.602 36.2568 576.504 36.2568C584.405 36.2568 590.898 38.8061 595.983 43.9048C601.067 48.9346 603.609 55.3424 603.609 63.1283C603.609 70.9141 601.067 77.3564 595.983 82.4548ZM566.301 74.497C568.912 77.322 572.313 78.7344 576.504 78.7344C580.695 78.7344 584.062 77.2875 586.604 74.3937C589.215 71.4998 590.52 67.7447 590.52 63.1283C590.52 58.5119 589.215 54.7568 586.604 51.8629C584.062 48.9691 580.695 47.5221 576.504 47.5221C572.313 47.5221 568.912 48.9691 566.301 51.8629C563.758 54.6879 562.487 58.443 562.487 63.1283C562.487 67.8136 563.758 71.6031 566.301 74.497Z" fill="white"/>
<path d="M544.243 88.6559C541.769 89.5519 538.987 89.9999 535.895 89.9999C530.398 89.9999 525.966 88.4839 522.6 85.4529C519.233 82.4209 517.55 77.9766 517.55 72.12V48.039H508.789V37.0837H517.55V21.7876H530.535V37.0837H543.624V48.039H530.535V70.8798C530.535 73.2913 531.119 75.1861 532.287 76.5641C533.524 77.8733 535.173 78.5278 537.234 78.5278C539.639 78.5278 541.666 78.1144 543.315 77.2876L544.243 88.6559Z" fill="white"/>
<path d="M504.511 61.3713C504.511 63.4383 504.442 65.1609 504.305 66.5389H465.759C466.309 70.4663 467.786 73.5324 470.191 75.7372C472.596 77.9421 475.653 79.0445 479.364 79.0445C482.387 79.0445 484.929 78.3555 486.99 76.9774C489.051 75.5994 490.426 73.6357 491.113 71.0864L503.274 74.3937C501.831 79.2856 498.98 83.1098 494.72 85.8658C490.46 88.6218 485.272 89.9998 479.157 89.9998C470.981 89.9998 464.523 87.3468 459.782 82.0418C455.109 76.6674 452.773 70.3629 452.773 63.1283C452.773 55.8248 455.006 49.5203 459.472 44.2149C464.007 38.9095 470.328 36.2568 478.436 36.2568C486.681 36.2568 493.071 38.8061 497.606 43.9048C502.209 48.9346 504.511 54.7568 504.511 61.3713ZM466.068 57.0305H490.597C490.254 53.7922 489.051 51.1739 486.99 49.1758C484.929 47.1776 482.077 46.1786 478.436 46.1786C475.207 46.1786 472.493 47.1087 470.294 48.9691C468.164 50.8294 466.756 53.5166 466.068 57.0305Z" fill="white"/>
<path d="M429.992 89.173V16H442.978V89.173H429.992Z" fill="white"/>
<path d="M407.364 89.173L391.389 66.229L385.308 72.2235V89.173H372.219V16H385.308V55.5838L404.89 37.0838H421.38L400.252 57.6508L423.029 89.173H407.364Z" fill="white"/>
<path d="M338.048 89.9998C330.284 89.9998 323.929 87.5198 318.982 82.5588C314.104 77.5287 311.664 71.0519 311.664 63.1283C311.664 55.2046 314.104 48.7624 318.982 43.8015C323.929 38.7717 330.284 36.2568 338.048 36.2568C344.713 36.2568 350.21 37.876 354.538 41.1143C358.936 44.3527 361.581 48.7279 362.474 54.24L349.798 56.7205C349.317 53.9644 348.046 51.7596 345.984 50.1059C343.992 48.3834 341.484 47.5221 338.461 47.5221C334.407 47.5221 331.178 48.9346 328.773 51.7596C326.368 54.5845 325.166 58.3741 325.166 63.1283C325.166 67.8825 326.368 71.6721 328.773 74.497C331.178 77.322 334.407 78.7344 338.461 78.7344C341.484 78.7344 343.957 77.9765 345.881 76.4607C347.874 74.876 349.179 72.6711 349.798 69.8462L362.474 72.43C361.512 77.8732 358.833 82.1798 354.435 85.3488C350.107 88.4498 344.644 89.9998 338.048 89.9998Z" fill="white"/>
<path d="M278.89 36.2568C285.83 36.2568 291.361 38.1171 295.483 41.8378C299.674 45.4896 301.77 50.6916 301.77 57.4439V89.1728H289.196V81.6278C287.754 84.1778 285.589 86.2098 282.704 87.7258C279.886 89.2418 276.863 89.9998 273.634 89.9998C268.55 89.9998 264.393 88.5528 261.163 85.6588C257.934 82.6958 256.32 78.9756 256.32 74.497C256.32 64.5752 264.049 58.7875 279.509 57.1339L289.196 56.2037V55.687C289.196 52.7242 288.269 50.416 286.414 48.7624C284.559 47.0398 282.051 46.1786 278.89 46.1786C276.073 46.1786 273.703 47.0054 271.779 48.659C269.924 50.3126 268.859 52.5175 268.584 55.2735L257.041 53.2065C257.866 48.1078 260.305 44.0082 264.358 40.9076C268.481 37.8071 273.325 36.2568 278.89 36.2568ZM276.52 80.3881C280.436 80.3881 283.528 79.0789 285.795 76.4607C288.063 73.8424 289.196 70.5696 289.196 66.6423V65.5054L279.302 66.6423C275.936 67.0557 273.359 67.9169 271.573 69.2261C269.786 70.5352 268.893 72.1544 268.893 74.0836C268.893 75.9439 269.58 77.4598 270.954 78.6311C272.329 79.8024 274.184 80.3881 276.52 80.3881Z" fill="white"/>
<path d="M197.5 89.173V16H210.485V45.1452C214.058 39.2197 219.555 36.257 226.975 36.257C232.816 36.257 237.488 37.9795 240.992 41.4246C244.565 44.8696 246.351 49.4171 246.351 55.067V89.173H233.365V58.2709C233.365 55.0326 232.438 52.4832 230.583 50.6229C228.727 48.7626 226.22 47.8324 223.059 47.8324C219.074 47.8324 215.982 49.486 213.783 52.7933C211.585 56.0317 210.485 60.6136 210.485 66.5391V89.173H197.5Z" fill="white"/>
<path d="M160.827 90C153.681 90 147.463 87.864 142.173 83.592C136.951 79.2514 133.893 73.8082 133 67.2626L145.471 63.4385C146.02 67.7104 147.772 71.2244 150.727 73.9804C153.75 76.6676 157.288 78.0112 161.342 78.0112C165.121 78.0112 168.144 77.1844 170.412 75.5307C172.679 73.8771 173.813 71.6723 173.813 68.9162C173.813 66.5047 172.851 64.5065 170.927 62.9218C169.072 61.2682 166.736 60.0624 163.919 59.3045C161.102 58.4777 158.01 57.513 154.643 56.4106C151.345 55.2393 148.288 53.9991 145.471 52.6899C142.654 51.3119 140.283 49.2104 138.359 46.3855C136.504 43.4916 135.577 39.9776 135.577 35.8436C135.577 30.1248 137.947 25.405 142.688 21.6843C147.497 17.8948 153.475 16 160.621 16C167.492 16 173.4 17.6881 178.347 21.0642C183.294 24.4404 186.318 28.8501 187.417 34.2933L174.843 39.4609C174.088 35.9469 172.439 33.1564 169.896 31.0894C167.423 29.0223 164.331 27.9888 160.621 27.9888C157.185 27.9888 154.471 28.7123 152.479 30.1592C150.486 31.5372 149.49 33.432 149.49 35.8436C149.49 37.5661 150.177 39.013 151.551 40.1844C152.994 41.3557 154.849 42.2858 157.117 42.9749C159.384 43.6639 161.892 44.3529 164.64 45.0419C167.388 45.662 170.137 46.5233 172.885 47.6257C175.633 48.6592 178.141 49.9683 180.409 51.5531C182.676 53.1378 184.497 55.3771 185.871 58.2709C187.314 61.1648 188.035 64.6099 188.035 68.6061C188.035 75.014 185.527 80.1816 180.512 84.109C175.565 88.036 169.003 90 160.827 90Z" fill="white"/>
<path fill-rule="evenodd" clip-rule="evenodd" d="M52.3896 0.00331119C54.6233 -0.0176888 56.8715 0.0584049 59.0917 0.311905C70.7787 1.64622 81.8671 7.00531 90.2519 15.2279C100.533 25.3113 105.89 38.8319 105.998 53.1508C106.082 64.1901 102.845 74.4226 96.4804 83.4535C94.9084 85.6844 93.1577 87.8797 91.2373 89.8217C83.6591 97.4876 74.1708 102.81 63.582 104.967C60.6169 105.571 57.6086 105.956 54.579 105.978C43.8788 106.271 33.5323 103.593 24.4814 97.848C21.9103 96.216 19.4154 94.3615 17.1845 92.2865C6.54025 82.3866 0.520748 69.3845 0.0302216 54.8529C-0.445921 40.7442 4.72037 26.9437 14.3818 16.6488C23.9029 6.50366 37.4855 0.479024 51.3671 0.0277253C51.7079 0.0138349 52.0487 0.0065124 52.3896 0.00331119ZM29.2958 59.7416L22.3076 71.2504L20.7187 73.8588L60.3945 73.8617L53.0156 61.4223C52.9019 61.6203 52.7853 61.822 52.666 62.0267C52.3783 62.5201 52.0975 62.9902 51.8242 63.4486C51.2969 64.3329 50.7949 65.1755 50.3124 66.0629L49.6542 67.2738L32.5966 67.2758L38.3925 57.6254C38.5103 57.4316 38.6464 57.1999 38.7919 56.9525C39.0539 56.5075 39.347 56.0085 39.622 55.5775L47.3037 42.6937L47.3105 42.683L49.497 38.9691C49.5873 38.8126 49.6877 38.6314 49.7968 38.435C50.1647 37.7735 50.6328 36.9313 51.1503 36.2211L53.1171 33.5228L54.9589 36.308C55.6092 37.2918 56.1943 38.326 56.7324 39.2767C56.8602 39.5026 56.9855 39.7241 57.1083 39.9389L59.9179 44.7621L75.9189 71.5053C76.0831 71.7834 76.244 72.0599 76.4033 72.3324C76.7108 72.8591 77.0122 73.3732 77.3134 73.8666C78.3862 73.8684 79.4465 73.86 80.5185 73.8519C81.5684 73.8439 82.6297 73.8363 83.7255 73.8373C84.2673 73.8378 84.7911 73.8436 85.3027 73.85C85.2637 73.7881 85.2237 73.7256 85.1845 73.6635C84.8513 73.1348 84.5135 72.5978 84.1718 72.0473L84.1621 72.0316L79.7939 64.8695L57.957 28.4975L57.9531 28.4916L56.3447 25.8285C56.3447 25.8285 56.3419 25.8244 56.3408 25.8226C56.294 25.7464 56.2292 25.6452 56.1542 25.5277C56.1509 25.5225 56.1478 25.5164 56.1445 25.5111L49.915 25.5101L29.2958 59.7416Z" fill="white"/>
</svg>
