<?xml version="1.0" encoding="UTF-8"?>
<svg id="Layer_1" xmlns="http://www.w3.org/2000/svg" version="1.1" viewBox="0 0 1060 378">
  <!-- Generator: Adobe Illustrator 30.4.0, SVG Export Plug-In . SVG Version: 2.1.4 Build 226)  -->
  <defs>
    <style>
      .st0 {
        fill: #fff;
      }
    </style>
  </defs>
  <path class="st0" d="M134,294.5c-19,0-36.9-2.4-53.7-7.3-16.8-5.1-32-12.6-45.5-22.4-13.3-9.8-24.7-22.1-34.1-37l41.1-40.2c6.5,11.4,14.6,21.1,24.4,29.3,10,7.9,20.9,13.8,32.5,17.9,11.7,3.8,23.3,5.7,35,5.7s15.2-1.2,20.3-3.7c5.4-2.4,9.5-5.7,12.2-9.8,2.7-4.1,4.1-8.4,4.1-13s-2.2-10.6-6.5-13.8c-4.3-3.5-10.8-6.6-19.5-9.4l-40.2-13c-12.2-4.1-23.3-9.3-33.3-15.9-9.8-6.8-17.5-15-23.2-24.8-5.7-9.8-8.5-21-8.5-33.7,0-18.2,4.6-33.6,13.8-46.3,9.5-12.7,22.4-22.5,38.6-29.3,16.5-6.8,35.4-10.2,56.5-10.2s51.5,5,70.7,15c19.2,9.8,35.1,23.6,47.6,41.5l-42.7,39c-5.7-9.5-12.6-17.2-20.7-23.2-7.9-6.2-16.5-10.8-26-13.8-9.5-3-19.1-4.5-28.9-4.5s-14.9,1.1-20.3,3.3c-5.4,2.2-9.5,5.1-12.2,8.9-2.4,3.5-3.7,7.7-3.7,12.6s2.6,10.4,7.7,15c5.4,4.3,12.5,7.9,21.1,10.6l40.2,13c20.3,6.5,35.8,15.4,46.3,26.8,10.6,11.1,15.9,25.7,15.9,43.9s-4.9,34.3-14.6,47.6c-9.5,13.3-22.5,23.4-39,30.5-16.5,7-35,10.6-55.3,10.6ZM312.7,293.7c-24.4,0-41.6-6.6-51.6-19.9-9.8-13.5-11.9-31.6-6.5-54.1L305.3.6h69.1l-50.4,218.3c-2.4,8.9-2,15.7,1.2,20.3,3.3,4.3,9.2,6.5,17.9,6.5s6.1-.1,8.5-.4c2.4-.3,4.5-.7,6.1-1.2l-12.2,44.7c-4.3,1.9-9.1,3.1-14.2,3.7-5.1.8-11.4,1.2-18.7,1.2ZM433.5,293.7c-13.6,0-25.7-3.1-36.6-9.3-10.6-6.5-19-15.7-25.2-27.6-6-12.2-8.9-27.1-8.9-44.7s2.3-32.1,6.9-47.6c4.6-15.4,11.2-29.3,19.9-41.5,8.9-12.5,19.5-22.2,31.7-29.3,12.5-7.3,26.4-11,41.9-11s17.5,1.6,25.6,4.9c8.4,3.3,15.4,8.3,21.1,15,6,6.8,10,15.7,12.2,26.8l9.8-42.7h69.1l-47.2,203.2h-62.6l6.9-38.2c-6.5,13-15.4,23.3-26.8,30.9-11.4,7.3-24,11-37.8,11ZM463.6,243.3c6.8,0,13-2.2,18.7-6.5s10.6-10,14.6-17.1c4.3-7.3,7.6-15.2,9.8-23.6,2.4-8.7,3.7-17.2,3.7-25.6s-1.4-14.1-4.1-19.5c-2.4-5.7-6-10-10.6-13s-10.2-4.5-16.7-4.5-14.4,2.3-20.3,6.9c-6,4.3-11,10-15,17.1-4.1,7-7.2,14.8-9.3,23.2-2.2,8.1-3.3,16-3.3,23.6s1.2,15.2,3.7,21.1c2.4,5.7,6,10.2,10.6,13.4,4.9,3,11,4.5,18.3,4.5ZM581.1,290l47.2-203.2h61.4l-10.2,64.6-3.7-5.7c5.7-20.3,15.7-35.9,30.1-46.7,14.4-10.8,31-16.3,50-16.3s26.8,3.3,36.6,9.8c10,6.2,16.9,15.2,20.7,26.8,4.1,11.7,4.2,25.7.4,42.3l-30.1,128.4h-69.1l28-119.9c2.4-10.8,1.5-19.2-2.8-25.2-4.3-6.2-11.4-9.3-21.1-9.3s-13.8,1.8-19.5,5.3c-5.4,3.3-10.2,8.3-14.2,15-3.8,6.5-6.8,14.6-8.9,24.4l-25.6,109.8h-69.1ZM894.6,377.4c-12.2,0-24-1.5-35.4-4.5-11.1-3-21-7.6-29.7-13.8-8.7-6.2-15.6-14.1-20.7-23.6-5.1-9.2-7.9-20.1-8.1-32.5l69.5-7.3c.5,11.4,3,20.3,7.3,26.8,4.6,6.8,13,10.2,25.2,10.2s12.9-1.5,18.3-4.5c5.7-3,10.6-7.9,14.6-14.6,4.3-6.8,7.7-16,10.2-27.6l15-65h3.7c-4.3,20.6-12.6,36.4-24.8,47.6-12.2,10.8-27.4,16.3-45.5,16.3s-25.7-3.1-36.6-9.4c-10.8-6.5-19.4-15.7-25.6-27.6-6.2-12.2-9.3-26.6-9.3-43.1s2.3-31.6,6.9-45.9c4.9-14.6,11.7-27.6,20.3-39,8.7-11.7,19.1-20.7,31.3-27.2s25.9-9.8,41.1-9.8,20.3,2.3,29.3,6.9c9.2,4.6,16.7,11.8,22.4,21.5,6,9.5,8.8,21.7,8.5,36.6l-8.1,10.2,16.3-71.1h69.1l-44.7,193.5c-5.7,24.1-14,43.2-24.8,57.3-10.6,14.1-23.8,24.3-39.8,30.5-16,6.2-34.6,9.3-55.7,9.3ZM924.7,234.7c8.9,0,16.7-3.1,23.2-9.3,6.8-6.2,11.9-14.2,15.4-24,3.8-10,5.7-20.6,5.7-31.7s-1.4-13.7-4.1-19.1c-2.4-5.4-6.1-9.6-11-12.6-4.6-3-10.2-4.5-16.7-4.5-9.8,0-18.2,3.3-25.2,9.8-6.8,6.2-12.1,14.2-15.9,24-3.5,9.5-5.3,19.2-5.3,29.3s2.8,20.6,8.5,27.6,14.1,10.6,25.2,10.6Z"/>
</svg>