<svg width="1060" height="378" viewBox="0 0 1060 378" fill="none" xmlns="http://www.w3.org/2000/svg">
<path d="M133.953 294.471C114.984 294.471 97.0987 292.032 80.2972 287.155C63.4958 282.006 48.3203 274.554 34.7708 264.798C21.4922 255.042 10.1106 242.712 0.625945 227.808L41.6811 187.565C48.1848 198.947 56.3146 208.703 66.0702 216.832C76.0969 224.691 86.9365 230.653 98.5891 234.718C110.242 238.512 121.894 240.409 133.547 240.409C141.948 240.409 148.722 239.189 153.871 236.75C159.291 234.311 163.356 231.06 166.066 226.995C168.776 222.93 170.131 218.594 170.131 213.987C170.131 208.025 167.963 203.418 163.627 200.167C159.291 196.644 152.787 193.527 144.116 190.817L103.873 177.81C91.6789 173.745 80.5682 168.461 70.5416 161.957C60.7859 155.182 53.0627 146.917 47.3719 137.161C41.6811 127.406 38.8356 116.159 38.8356 103.423C38.8356 85.2665 43.4425 69.82 52.6562 57.0834C62.1409 44.3469 75.0129 34.5912 91.2724 27.8164C107.803 21.0416 126.637 17.6543 147.774 17.6543C175.686 17.6543 199.262 22.6676 218.503 32.6942C237.743 42.4499 253.596 56.2704 266.061 74.1558L223.38 113.179C217.69 103.694 210.779 95.9706 202.65 90.0088C194.791 83.776 186.119 79.1692 176.634 76.1883C167.15 73.2074 157.53 71.7169 147.774 71.7169C139.644 71.7169 132.869 72.8009 127.45 74.9688C122.03 77.1367 117.965 80.1176 115.255 83.9115C112.816 87.4344 111.597 91.6347 111.597 96.5126C111.597 101.932 114.171 106.946 119.32 111.553C124.74 115.888 131.785 119.411 140.457 122.121L180.699 135.129C201.024 141.633 216.47 150.575 227.039 161.957C237.607 173.067 242.892 187.701 242.892 205.857C242.892 224.285 238.014 240.138 228.258 253.416C218.774 266.695 205.766 276.857 189.236 283.903C172.705 290.948 154.278 294.471 133.953 294.471ZM312.664 293.658C288.275 293.658 271.067 287.019 261.041 273.741C251.285 260.191 249.117 242.17 254.537 219.678L305.348 0.581838H374.45L324.046 218.865C321.607 227.808 322.014 234.582 325.265 239.189C328.517 243.525 334.479 245.693 343.151 245.693C346.403 245.693 349.248 245.558 351.687 245.287C354.126 245.016 356.158 244.609 357.784 244.067L345.59 288.781C341.254 290.677 336.512 291.897 331.363 292.439C326.214 293.252 319.981 293.658 312.664 293.658ZM433.48 293.658C419.93 293.658 407.736 290.542 396.896 284.309C386.327 277.805 377.927 268.592 371.694 256.668C365.732 244.474 362.751 229.569 362.751 211.955C362.751 195.695 365.055 179.842 369.661 164.396C374.268 148.949 380.908 135.129 389.579 122.934C398.522 110.469 409.091 100.713 421.285 93.6672C433.751 86.3504 447.707 82.692 463.153 82.692C472.096 82.692 480.632 84.318 488.762 87.5699C497.163 90.8218 504.208 95.8351 509.899 102.61C515.861 109.385 519.926 118.327 522.094 129.438L531.849 86.7569H600.952L553.8 290H491.201L498.111 251.79C491.607 264.798 482.665 275.096 471.283 282.683C459.901 290 447.3 293.658 433.48 293.658ZM463.56 243.254C470.334 243.254 476.567 241.086 482.258 236.75C487.949 232.414 492.827 226.724 496.892 219.678C501.227 212.361 504.479 204.502 506.647 196.102C509.086 187.43 510.306 178.894 510.306 170.493C510.306 162.905 508.951 156.402 506.241 150.982C503.802 145.291 500.279 140.955 495.672 137.974C491.065 134.993 485.51 133.503 479.006 133.503C471.418 133.503 464.644 135.806 458.682 140.413C452.72 144.749 447.707 150.44 443.642 157.486C439.577 164.531 436.461 172.254 434.293 180.655C432.125 188.785 431.041 196.644 431.041 204.231C431.041 212.361 432.26 219.407 434.699 225.369C437.138 231.06 440.661 235.531 445.268 238.783C450.146 241.764 456.243 243.254 463.56 243.254ZM581.101 290L628.253 86.7569H689.633L679.471 151.388L675.812 145.697C681.503 125.373 691.53 109.791 705.892 98.9515C720.255 88.1118 736.921 82.692 755.89 82.692C770.523 82.692 782.718 85.9439 792.474 92.4477C802.5 98.6805 809.411 107.623 813.205 119.276C817.269 130.928 817.405 145.02 813.611 161.55L783.531 290H714.428L742.476 170.087C744.915 159.247 743.966 150.846 739.631 144.884C735.295 138.652 728.249 135.535 718.493 135.535C711.176 135.535 704.673 137.297 698.982 140.82C693.562 144.071 688.82 149.085 684.755 155.86C680.961 162.363 677.98 170.493 675.812 180.249L650.204 290H581.101ZM894.635 377.395C882.441 377.395 870.652 375.904 859.271 372.923C848.16 369.942 838.269 365.335 829.597 359.103C820.926 352.87 814.015 345.011 808.867 335.526C803.718 326.313 801.008 315.473 800.737 303.008L870.246 295.691C870.788 307.072 873.227 316.015 877.563 322.519C882.17 329.294 890.57 332.681 902.765 332.681C909.54 332.681 915.637 331.191 921.057 328.21C926.748 325.229 931.625 320.351 935.69 313.576C940.026 306.801 943.413 297.588 945.852 285.935L960.892 220.897H964.551C960.215 241.493 951.95 257.346 939.755 268.456C927.56 279.296 912.385 284.716 894.229 284.716C880.679 284.716 868.484 281.599 857.645 275.366C846.805 268.863 838.269 259.649 832.036 247.725C825.803 235.531 822.687 221.168 822.687 204.638C822.687 188.378 824.99 173.067 829.597 158.705C834.475 144.071 841.25 131.064 849.922 119.682C858.593 108.03 869.026 98.9515 881.221 92.4477C893.416 85.9439 907.101 82.692 922.276 82.692C932.845 82.692 942.6 84.9955 951.543 89.6023C960.757 94.2092 968.209 101.39 973.9 111.146C979.862 120.631 982.707 132.825 982.436 147.73L974.306 157.892L990.566 86.7569H1059.67L1014.96 280.244C1009.26 304.363 1001 323.467 990.159 337.559C979.591 351.65 966.312 361.813 950.324 368.045C934.335 374.278 915.772 377.395 894.635 377.395ZM924.715 234.718C933.658 234.718 941.381 231.601 947.885 225.369C954.66 219.136 959.808 211.142 963.331 201.386C967.125 191.359 969.022 180.791 969.022 169.68C969.022 162.363 967.667 155.995 964.957 150.575C962.518 145.155 958.86 140.955 953.982 137.974C949.375 134.993 943.82 133.503 937.316 133.503C927.56 133.503 919.16 136.755 912.114 143.258C905.339 149.491 900.055 157.485 896.261 167.241C892.738 176.726 890.977 186.482 890.977 196.508C890.977 207.89 893.822 217.103 899.513 224.149C905.204 231.195 913.604 234.718 924.715 234.718Z" fill="url(#paint0_linear_4882_1219)"/>
<defs>
<linearGradient id="paint0_linear_4882_1219" x1="123.5" y1="91.5" x2="1115" y2="361.5" gradientUnits="userSpaceOnUse">
<stop stop-color="#E874FF"/>
<stop offset="1" stop-color="#47BBFF"/>
</linearGradient>
</defs>
</svg>
