<?xml version="1.0" encoding="UTF-8"?><svg id="b" xmlns="http://www.w3.org/2000/svg" viewBox="0 0 135.5247 61.6675"><g id="c"><g id="d"><path d="M.0008,61.146l.0037-3.9187,2.1779.1351c.0856.7819.4103,1.453,1.0752,1.784,1.0294.5125,2.3382.4628,3.3557-.0373.3156-.1551.6275-.8712.5523-1.1775-.0753-.3065-.5985-.7956-.9065-.8714l-3.3389-.8221c-1.4325-.3527-2.4074-1.3699-2.9121-2.6938l-.0081-1.0549c.9076-2.6146,4.0271-3.5665,6.5063-2.3434.8216-.2332,1.6037-.2898,2.4703-.2614l-.0246,3.8654-2.0005-.037c-.064-.374-.1802-.9953-.3742-1.2206-.7008-.8143-2.5131-1.33-3.6734-.5617-.3497.2315-.6572.9338-.5636,1.2728.0812.294.6176.7593.9614.8231l3.3125.615c1.7148.3184,2.8466,1.4527,2.9511,3.0733.0969,1.5032-.7138,2.8639-2.3064,3.43-1.3067.4645-3.1836.5921-4.3232-.043l-.5198-.2897c-.0924-.0515-.2469.4969-.3529.4966L.0008,61.146Z" fill="#4a4a4a"/><path d="M71.6946,30.9848c-4.7822,1.9152-10.4883.1699-13.5945-3.8368-4.2674-5.5047-3.0265-13.4617,2.8321-17.3787,4.2723-2.8564,9.8302-2.6009,13.8552.53,3.9755,3.0925,5.6099,8.2282,4.0367,13.2703l1.2457,8.7778-8.3752-1.3626ZM71.3169,27.5734l4.8158.8158-.7279-5.2436c1.5874-3.7235.4162-7.8969-2.6592-10.2674-2.992-2.3061-7.3241-2.3584-10.3532-.1176-3.1174,2.3061-4.2668,6.3896-2.962,10.0512,1.636,4.591,7.1569,7.1099,11.8866,4.7617Z" fill="#cb5699"/><path d="M93.6212,60.305l-.2383,1.0256-5.6775.0003-.0045-2.7093,1.9953-.1008v-10.9139s-1.9973-.0801-1.9973-.0801l.0104-2.6424,5.726-.0066.0032,6.1812c1.1841-1.2018,2.3226-1.7408,3.8329-1.4659,1.8573.338,3.517,1.8096,3.9622,3.6799.4709,1.9782.4464,4.1241-.5499,5.8115-1.5243,2.5816-4.6652,3.2202-7.0625,1.2203ZM97.333,53.6013c-.4117-.7166-1.2892-1.1577-1.981-1.0776-1.8715.2167-2.5808,3.0638-1.4558,5.1626.3702.6907,1.3052,1.0001,2.0643.8552,1.8601-.3551,2.2667-3.3838,1.3725-4.9401Z" fill="#4a4a4a"/><path d="M81.1704,61.3389l-.3295-.8043c-1.0218.7664-2.3032,1.0206-3.6349.8897-1.7192-.1689-3.0463-1.3945-3.3467-2.9395-.3184-1.6377.5911-3.2362,2.1584-3.9687,1.5944-.7452,3.3297-.5034,4.9685.0068.1948-1.2421-.4337-2.1248-1.225-2.4405-.9803-.3911-1.7678.0161-2.761.4858-.7367.3484-2.1095-.0838-3.0833-.3391,1.3534-2.6601,4.8636-3.1029,7.8122-2.406,1.3295.3142,2.7913,1.4272,2.8096,2.8703l.0739,5.8468,1.921.0753v2.7129s-5.3633.0106-5.3633.0106ZM81.1774,57.3961c-.7441-.7273-1.674-1.2898-2.46-1.1564-.8764.1487-1.4807.9535-1.378,1.6369.0938.6241.7644,1.2972,1.4504,1.2235,1.0373-.1115,1.8916-.5508,2.3876-1.7039Z" fill="#4a4a4a"/><path d="M120.1532,57.7811l2.9646.9468c-.7147.9273-1.4614,1.8491-2.5441,2.2771-3.207,1.2679-7.3693.5077-8.8697-2.6361-.9341-1.9573-.723-4.4344.4656-6.1047,1.2653-1.7781,3.0487-2.6991,5.0317-2.7283,3.7885-.0557,6.1809,2.8451,6.0814,6.8091l-8.5091.0066c.0403,1.3725.8577,2.2729,1.9754,2.617,1.1572.3563,2.4195.0677,3.4041-1.1874ZM119.4743,54.3c-.07-1.2996-1.0529-2.3299-2.2838-2.312-1.251.0182-2.3192.9729-2.2558,2.3146l4.5395-.0026Z" fill="#4a4a4a"/><path d="M129.0783,61.2982c-.617-.1871-.7624-.0975-1.2606-.0712l-2.3888.1262-.0138-4.0121,2.6621-.0022c.2731,1.346,1.3441,1.7222,2.6262,1.7278.6748.0029,1.6507-.3186,1.7068-1.0846.1115-1.5225-6.9997-.7236-7.4071-4.5001-.132-1.2238.3382-2.3065,1.3389-2.993,1.6208-1.1121,3.4172-.9832,5.2451-.4524l3.1034-.1832.0207,3.3133-2.5079.0386c-1.1737-1.7771-4.1212-1.4231-4.1567-.3661-.0063.1867.4154.5764.6194.6199l3.5206.7497c1.1027.2348,2.2462.787,2.8387,1.7189.6894,1.0844.6323,2.3591.0305,3.5205-1.0187,1.9659-3.6779,2.5471-5.9774,1.8499Z" fill="#4a4a4a"/><polygon points="102.6607 61.3318 102.6532 58.6242 104.4392 58.5075 104.4391 47.6146 102.6557 47.5257 102.6488 44.8858 108.0902 44.8848 108.0865 58.4967 109.7092 58.6256 109.7246 61.328 102.6607 61.3318" fill="#4a4a4a"/><path d="M22.7069,57.158c-.5115,2.3813-2.4206,3.9456-4.3648,4.3307-2.5158.4983-4.6548-.2257-6.2555-2.2833-1.5789-2.0295-1.5865-5.3624.0835-7.3939,1.3708-1.6675,3.3358-2.484,5.4142-2.2608,3.7199.3995,5.9841,3.5968,5.1226,7.6073ZM19.7358,53.1866c-.9151-1.1622-2.0517-1.6557-3.4513-1.4209-1.0625.1782-2.1252.9874-2.6004,2.2309-.6624,1.7332-.2418,3.8405,1.3783,4.8273,1.6432,1.001,3.6285.4991,4.6709-.8264,1.0963-1.3941,1.1508-3.3526.0026-4.8109Z" fill="#4a4a4a"/><path d="M52.2122,60.0562c-1.4735,1.3986-3.7113,1.9434-5.6265.8617-1.9278-1.0889-2.3479-3.9176-.7834-5.4766,1.7262-1.7202,4.2391-1.5694,6.2669-.418.0685-.7425.155-2.0904-.2918-2.6468-1.1699-1.4464-3.6207-1.2583-4.5329.3825l-2.2639-.5745c1.1426-2.0016,3.0678-2.738,5.3028-2.6789,1.5725.0416,3.6674.8382,3.9016,2.6258.3054,2.3315.1386,4.6315.1539,7.0647l1.8827.0404.0004,2.0935-3.8747-.0011-.1352-1.2727ZM51.9728,58.4727c.2593-.2321.2082-1.297-.0499-1.5439-.6951-.6651-2.3672-1.2786-3.4086-.9436-1.138.3661-1.6043,1.3599-1.3459,2.3728.2053.8044,1.1215,1.4353,2.1615,1.2903.8602-.12,1.9365-.5431,2.6428-1.1755Z" fill="#4a4a4a"/><path d="M71.9944,60.8347c-1.357.6312-2.956.9191-4.4478.2898-.6781-.286-1.3119-1.4547-1.3172-2.2317l-.0431-6.3827-1.4446-.0499.069-2.5963c.4945.0607,1.3174.0044,1.3424-.2966l.1236-1.4896,3.6435-2.719.055,4.5174,1.9673.0044.0094,2.5857-1.9976.0446.0284,5.7364c.4899.3848,1.316.3086,1.9311.0538l.0804,2.5336Z" fill="#4a4a4a"/><path d="M27.3838,53.3531c-.975,1.7674-.6641,4.271,1.0161,5.5214,1.7762,1.3218,4.4283.5136,5.2566-1.553l2.0349.9158c-.7027.9258-1.3334,2.0011-2.4162,2.6367-1.8429,1.0817-4.6663,1.1056-6.3748-.227-2.846-2.2198-3.3186-6.4006-1.1428-9.0472,1.8536-2.2547,4.922-2.8099,7.2638-1.0814l.3896-.6614,1.8053.018.0099,4.3421-2.0481.0188c-.1502-1.3301-.9551-2.3054-2.2928-2.5378-1.4296-.2483-2.7139.2275-3.5014,1.655Z" fill="#4a4a4a"/><polygon points="57.5262 61.3336 57.5088 59.2639 59.612 59.1848 59.6107 46.9613 57.5146 46.8828 57.5153 44.8932 61.8764 44.8718 61.875 59.1706 63.5761 59.2495 63.5856 61.3267 57.5262 61.3336" fill="#4a4a4a"/><polygon points="37.4454 61.3377 37.4414 59.2302 39.2038 59.1917 39.2004 51.9453 37.4375 51.819 37.4427 49.8884 41.4136 49.8815 41.4174 59.1928 43.2608 59.2462 43.2586 61.3193 37.4454 61.3377" fill="#4a4a4a"/><path d="M55.2725,10.6042l-2.7452-2.5173c-.203-.1861-.2236-.959-.0057-1.1847l1.8033-1.8676c.1678-.1738.6529-.4401.8783-.4277.2704.0149.6957.3469.9069.577l2.1365,2.3278-2.9741,3.0925Z" fill="#cb5699"/><path d="M83.0314,7.4031l-3.1424,3.2113-3.0974-3.0987,2.178-2.2909.687-.6016c.1679-.147.7998.138.9699.3125l2.4048,2.4675Z" fill="#cb5699"/><path d="M55.2518,34.245c-.154.1624-.7555.4046-.9238.2741l-.7075-.5487c-.9028-.7001-1.3983-1.4131-2.1101-2.3505,1.0578-1.1583,1.7936-1.8956,2.9747-2.9707,1.3014.9026,2.1149,1.7872,3.0801,3.1556l-2.3134,2.4402Z" fill="#cb5699"/><path d="M69.6793,38.5526c.0101.404-.7431.841-1.1652.8213l-3.3252-.155.0364-4.4145,4.3608.0326.0932,3.7155Z" fill="#cb5699"/><path d="M48.8506,21.6679c-.3348.0152-.9669-.5264-.9587-.8539l.086-3.4572c.5537-.2237,1.4434-.3898,1.9808-.342l2.4408.2172-.0287,4.2758-3.5202.1601Z" fill="#cb5699"/><path d="M87.1836,21.4854c-1.5844.2556-2.9168.2587-4.4514.0074l-.082-3.3112c-.0063-.256.1923-.8164.4043-.9256s.7836-.2396,1.0221-.2217l3.0629.2293.0441,4.2217Z" fill="#cb5699"/><path d="M69.8923,3.9262c-.0115.5098-1.3311.6941-1.8488.6568l-2.6231-.189.0101-4.2337c2.4782-.1015,4.5598-.5824,4.5278.8356l-.066,2.9303Z" fill="#cb5699"/><path d="M39.51,44.834c.7701-.3745,1.6138-.1907,1.975.6144.2145.4781.0769,1.3839-.5316,1.7644-.5403.3379-1.446.1454-1.8986-.4251-.4203-.5298-.2622-1.6049.4552-1.9537Z" fill="#4a4a4a"/></g></g></svg>