<svg width="163" height="163" viewBox="0 0 163 163" fill="none" xmlns="http://www.w3.org/2000/svg">
<path d="M58.5 9.1405H104C114.389 9.1405 121.632 9.1475 127.27 9.6085C132.802 10.0605 135.979 10.903 138.387 12.1295C143.546 14.7585 147.742 18.9535 150.37 24.113C151.597 26.5205 152.44 29.6985 152.892 35.23C153.353 40.8685 153.359 48.1105 153.359 58.5V74.1405H162.5V58.5C162.5 38.023 162.5 27.7845 158.515 19.9635C155.009 13.084 149.416 7.4905 142.536 3.985C134.715 0 124.477 0 104 0H58.5C38.023 0 27.7845 0 19.9635 3.985C13.084 7.4905 7.4905 13.084 3.985 19.9635C0 27.7845 0 38.023 0 58.5V74.1405H9.1405V58.5C9.1405 48.1105 9.1475 40.8685 9.6085 35.23C10.0605 29.6985 10.903 26.5205 12.1295 24.113C14.7585 18.9535 18.9535 14.7585 24.113 12.1295C26.5205 10.903 29.6985 10.0605 35.23 9.6085C40.8685 9.1475 48.1105 9.1405 58.5 9.1405ZM9.1405 88.3595H0V104C0 124.477 0 134.715 3.985 142.536C7.4905 149.416 13.084 155.009 19.9635 158.515C27.7845 162.5 38.023 162.5 58.5 162.5H104C124.477 162.5 134.715 162.5 142.536 158.515C149.416 155.009 155.009 149.416 158.515 142.536C162.5 134.715 162.5 124.477 162.5 104V88.3595H153.359V104C153.359 114.389 153.353 121.632 152.892 127.27C152.44 132.802 151.597 135.979 150.37 138.387C147.742 143.546 143.546 147.742 138.387 150.37C135.979 151.597 132.802 152.44 127.27 152.892C121.632 153.353 114.389 153.359 104 153.359H58.5C48.1105 153.359 40.8685 153.353 35.23 152.892C29.6985 152.44 26.5205 151.597 24.113 150.37C18.9535 147.742 14.7585 143.546 12.1295 138.387C10.903 135.979 10.0605 132.802 9.6085 127.27C9.1475 121.632 9.1405 114.389 9.1405 104V88.3595Z" fill="white"/>
<path d="M52.0522 74.1406C36.6697 74.1406 29.7422 68.3191 29.7422 57.5561V57.0076H37.6512V57.5561C37.6512 64.4201 41.9612 67.3861 52.2707 67.3861C60.7252 67.3861 64.5432 65.2991 64.5432 60.6311C64.4887 56.1281 61.6527 54.8651 54.2342 53.6571L44.1422 51.9551C36.6692 50.7471 31.3787 47.2321 31.3787 39.8736C31.3787 31.3066 38.1972 26.9136 50.7977 26.9136C64.2162 26.9136 71.0347 32.0761 71.0347 41.3566V41.9061H63.1797V41.3566C63.1797 36.1396 59.6887 33.6681 50.9062 33.6681C43.1062 33.6681 39.2877 35.6456 39.2877 39.5996C39.2877 43.2786 42.9427 44.9806 48.6702 45.8591L58.9247 47.5066C67.3797 48.7696 72.3982 52.0096 72.3982 60.0821C72.3982 70.0216 66.3437 74.1406 52.0522 74.1406Z" fill="white"/>
<path d="M29.7422 89.375H39.4467L51.0702 119.031L62.6937 89.375H72.3982V134.57H64.2837V105.899L52.9347 134.57H49.2057L37.8567 105.899V134.57H29.7422V89.375Z" fill="white"/>
<path d="M112.262 74.1406C96.8221 74.1406 88.1406 63.3226 88.1406 50.4726C88.1406 37.7321 96.8221 26.9136 112.262 26.9136C127.702 26.9136 136.384 37.7321 136.384 50.4726C136.384 63.3226 127.702 74.1406 112.262 74.1406ZM96.1076 50.4726C96.1076 59.3136 100.998 67.1116 112.262 67.1116C123.526 67.1116 128.416 59.3136 128.416 50.4726C128.416 41.7961 123.526 33.9426 112.262 33.9426C100.998 33.9426 96.1076 41.7961 96.1076 50.4726Z" fill="white"/>
<path d="M112.262 135.586C96.8221 135.586 88.1406 124.768 88.1406 111.917C88.1406 99.1774 96.8221 88.3589 112.262 88.3589C127.702 88.3589 136.384 99.1774 136.384 111.917C136.384 124.768 127.702 135.586 112.262 135.586ZM96.1076 111.917C96.1076 120.759 100.998 128.557 112.262 128.557C123.526 128.557 128.416 120.759 128.416 111.917C128.416 103.241 123.526 95.3884 112.262 95.3884C100.998 95.3884 96.1076 103.241 96.1076 111.917Z" fill="white"/>
</svg>
