<?xml version="1.0" encoding="UTF-8"?><svg id="b" xmlns="http://www.w3.org/2000/svg" viewBox="0 0 382.3856 95.7634"><g id="c"><path d="M211.8484,32.9034l12.2354-.0123-.0101-10.9817-11.209-.0075c-.3026.0682-1.1037-.2734-1.0642-.5694l.6707-5.0219c.6981-5.2272,6.5427-6.5536,11.6101-5.66l-.0125-10.279-2.5775-.3621-5.5968-.0097c-2.7273.2149-5.3065.8653-7.7517,2.1593-3.9758,2.1042-6.8157,5.8-7.8256,10.1617l-.8155,3.5224-.5839,6.0328-8.8403.0518.0003,10.9561,8.9604.0355.006,41.8787,1.1986.1678,11.6013-.0626.0044-42.0002ZM244.5548,74.3778l-.0059-72.6764-12.7998.0076.0008,73.2406,11.9898.0218c.2379.0004.6077-.2658.8152-.5936ZM382.3824,14.8532l.0023-11.6206h-13.0256s.004,11.6436.004,11.6436l13.0194-.023ZM76.5851,74.575c.4481-.119.7824-.528.8418-1.0068l.0044-9.3726-.3327-.514c-.0525-.0811-.3289.0865-.4258.1125l-1.9128.5124c-2.3626.6329-4.5713.6166-6.9806-.1056-1.2829-.3846-2.7282-1.644-2.732-3.3278l-.0622-27.9355,12.4416-.062-.0184-10.9573-12.402-.0325-.035-15.6204-12.9368.0096.0038,15.2252-.8367.4075-8.0136.0052.0002,10.9563,8.8435.0841.0189,25.4032.2431,3.4111.5205,2.5801c1.7224,6.6736,7.4472,10.9887,14.2179,11.2928,1.4605.0656,2.7706.2593,4.2264.0143l3.4388-.5786,1.8877-.5014ZM15.7637,75.6285c1.5995.094,2.9515.3131,4.3891.0036,7.759-.1256,15.9194-4.3363,17.6298-12.2175.5252-2.42.3953-4.6198-.0035-7.0952-.8052-4.9975-4.0016-9.4469-8.6507-11.5534-5.427-2.459-10.8721-2.9903-14.6697-5.3875-1.0538-.6652-1.5223-1.7018-1.547-2.7802-.0765-3.3381,3.664-4.0624,6.9134-4.3891,1.3241-.1331,2.6525-.1615,3.964-.0153l3.4904.3892,1.794.3862,3.7952,1.1986,1.2683.3538-.0039-9.735c-4.4492-2.2923-8.8957-3.6605-13.8403-3.6871-6.6855-.195-14.027,2.0146-17.8661,7.5797C.5278,31.4318.0284,34.6041.0006,37.9113c-.0589,7.0057,4.1597,11.4942,10.5812,13.7126l3.1176,1.077c3.0311,1.0471,6.1055,1.7814,8.9408,3.2681,1.7857.9363,2.7314,2.3702,2.5017,4.4259-.1758,1.5729-1.0003,3.104-2.6932,3.5724-2.8521.7891-5.9183,1.0192-8.8858.5314l-2.4818-.408-1.8654-.4548-4.2116-1.6252-3.5705-1.9713.0224,11.4052c4.4992,2.4763,9.1912,3.8833,14.3077,4.1839ZM154.6,92.5291l1.5176-1.1085c4.1556-3.88,6.7152-9.7314,8.7432-15.1187l19.4768-54.3544-12.8904-.0389-11.235,35.4775c-.1449.1713-.5231.5316-.5713.3818l-.1963-.6108-11.3659-35.2558-12.8326.0003c-.1488,0-.4384.0809-.5174.1702s-.0951.4943-.0472.6203l18.7239,49.2815c-1.8484,5.0625-5.7858,13.9872-11.5508,12.6643l-2.7723-.6361-1.7997-.387-.0057,10.6497c6.2535,2.1867,11.8278,2.2784,17.323-1.7354ZM361.0528,74.1373l-3.0816-4.4064-5.624-8.0139-5.4612-7.7669-4.8904-6.9867,10.0927-14.2493,7.0853-9.9706.2886-.4788c.0701-.1162-.4408-.3915-.5258-.3682l-13.5458.0095-10.575,14.9092-10.4765-14.9079-15.7529.0792,18.3214,26.182-4.6682,6.6131-8.363,11.8647-5.7298,8.2582,13.2705.0675c.4463.0023.9463-.3993,1.207-.7675l6.8102-9.6198,4.6107-6.3386,11.7991,16.7244,14.8395-.0099c.1305-.0327.6508-.1215.6114-.2471-.0296-.0942-.1669-.4688-.2421-.5762ZM370.2751,74.975l12.1105-.0779-.0029-52.9797-11.8254-.0261c-.5494-.0012-.9506.2195-.9785.8301l.0012,51.6157c0,.2382.4367.6395.6952.6378Z" fill="#fff"/><path d="M129.9194,41.2389l-.5448-3.8758c-.8969-6.3813-5.5264-12.1279-11.6434-14.4257-3.124-1.1735-6.376-1.7427-9.7769-1.8253-6.092-.1481-11.9962.5874-17.804,2.7213l.0342,10.5062,4.7514-1.4409c2.9322-.7263,5.7926-1.1501,8.7766-1.1229l4.254.0389c2.4001.022,4.8337.9927,6.5721,2.7458,1.8146,1.83,2.5912,4.6069,2.202,7.0657-1.6431-.3566-2.9022-.4095-4.3874-.5327l-2.3728-.1968c-1.46-.1211-2.7656-.1188-4.2264.0046l-2.2087.1866-3.0607.3701-4.1665,1.0734c-2.7547.9257-5.4943,2.1675-7.3927,4.3936-1.7717,2.0775-3.1979,4.3809-3.7356,7.1808-.4909,2.5568-.4209,5.2773.0769,7.6848.6417,3.1035,2.1439,5.5673,4.2249,7.8143,2.4117,2.6041,5.4995,4.2672,8.9514,5.0865l1.4728.3495,5.0443.6013,4.8712.0527c2.5742-.1923,4.9525-.4508,7.4935-1.188,5.9457-1.725,10.6536-6.356,12.147-12.4475.2263-.9232.4841-2.1382.4821-3.1182l-.0345-17.7025ZM116.9348,57.8892c-.025,2.5652-1.6844,4.5352-3.9517,5.5114-.6476.2292-1.57.7339-2.3058.7329l-6.2659-.0081-1.8485-.5035c-3.1221-1.1537-4.9594-3.9698-4.8334-7.2691-.2578-5.9178,5.8332-7.1387,11.2307-7.0675,2.7495.0363,5.3541-.0355,8.0521.6428l-.0775,7.9612Z" fill="#fff"/><path d="M304.0364,44.5985l-.6849-4.8923c-.8846-4.5255-2.913-8.63-5.9584-12.0502-2.5851-2.9031-5.7278-4.7844-9.5107-5.7397l-3.8314-.7276-7.5317.001-3.8459.717c-5.0739,1.183-9.2288,4.3414-11.8005,8.8405-1.7166,3.003-2.8389,6.1415-3.467,9.5689l-.6792,5.9361-.0043,5.4212c.2183,4.2889,1.0502,8.3073,2.7597,12.2529,3.0264,6.9852,11.2002,11.6185,18.5902,11.7072l5.0817.061,5.0035-.4498c4.4948-.7973,8.7549-2.0598,12.7996-4.2435l-.027-10.3881c-3.4531,1.4494-6.4037,2.5508-9.8675,3.257l-2.5466.3934c-2.9999.4634-5.8914.7501-8.9013.1923-2.5314-.4691-5.1626-1.1072-7.0448-3.0186-2.0417-2.0733-2.9005-5.0995-2.9266-8.0855l33.6705-.0098c.3938-.0001.6338-.6659.6483-.9427l.0894-1.7151-.0151-6.0857ZM290.0914,44.3267l-20.3809-.0065c-.1188-1.5327.0954-2.8426.4732-4.2227l.4325-1.58c.7662-2.799,3.2299-5.6949,6.0726-6.441,3.7495-.9841,7.6904-.4514,10.2667,2.5773,2.0504,2.5912,3.2245,5.5506,3.5969,8.8318l.1703.5274c.0353.1094-.4865.3136-.6313.3136Z" fill="#fff"/></g></svg>