<svg width="120" height="24" viewBox="0 0 120 24" fill="none" xmlns="http://www.w3.org/2000/svg">
<path d="M11.7289 8.10192C12.0409 8.10192 12.1829 8.48692 11.9489 8.69192L1.16093 18.1039C0.884932 18.3449 0.471932 18.0269 0.640932 17.6969L3.87193 11.3319H1.97993C1.92229 11.3319 1.86563 11.317 1.81536 11.2889C1.76509 11.2607 1.72288 11.22 1.69279 11.1709C1.66269 11.1217 1.64571 11.0657 1.64346 11.0081C1.6412 10.9505 1.65376 10.8933 1.67993 10.8419L5.63093 3.06192C5.65881 3.00641 5.7017 2.95983 5.75473 2.92748C5.80777 2.89513 5.86881 2.8783 5.93093 2.87892H12.2469C12.5299 2.87892 12.6889 3.21292 12.5039 3.43392L8.60093 8.09992H11.7319L11.7299 8.10392H11.7289V8.10192Z" fill="white"/>
<path d="M85.8643 6.62901C82.7223 6.62901 79.2383 9.19701 79.2383 13.347C79.2383 16.396 81.3933 18.185 83.9843 18.185C86.4383 18.185 87.7473 17.212 88.1963 16.825C88.2405 16.7869 88.2737 16.7377 88.2927 16.6826C88.3117 16.6274 88.3157 16.5682 88.3043 16.511L87.9743 14.877C87.9677 14.8427 87.9524 14.8107 87.9298 14.784C87.9073 14.7573 87.8782 14.7369 87.8455 14.7246C87.8128 14.7124 87.7775 14.7087 87.743 14.7141C87.7084 14.7194 87.6758 14.7335 87.6483 14.755C87.2073 15.094 86.2283 15.708 84.9483 15.708C83.3673 15.708 82.3123 14.608 82.3123 12.888C82.3123 10.549 83.9863 9.08201 85.8203 9.08201C87.1453 9.08201 87.9223 9.65901 88.3093 10.042C88.3322 10.0648 88.3601 10.0818 88.3909 10.0917C88.4216 10.1016 88.4542 10.1041 88.486 10.0991C88.5179 10.094 88.5481 10.0815 88.5742 10.0625C88.6004 10.0436 88.6216 10.0187 88.6363 9.99001L89.5243 8.25101C89.555 8.19071 89.5663 8.1224 89.5566 8.05545C89.5469 7.98849 89.5168 7.92617 89.4703 7.87701C89.0733 7.45301 88.1263 6.62701 85.8673 6.62701L85.8643 6.62901ZM96.5573 6.62901C92.9333 6.62901 89.7923 9.33501 89.7923 13.301C89.7923 16.281 91.8093 18.185 94.7223 18.185C98.3443 18.185 101.486 15.525 101.486 11.535C101.486 8.57701 99.4703 6.62901 96.5573 6.62901ZM95.1123 15.755C93.5763 15.755 92.8183 14.562 92.8183 13.025C92.8183 10.848 94.1023 8.99001 96.1893 8.99001C97.6793 8.99001 98.4823 10.16 98.4823 11.742C98.4823 13.897 97.1073 15.755 95.1123 15.755ZM116.554 6.62901C114.949 6.62901 113.619 7.38601 112.702 8.73901C112.428 7.27101 111.602 6.62901 110.25 6.62901C107.656 6.62901 106.558 8.50901 106.558 8.50901C106.581 8.18701 106.627 7.86701 106.627 7.49901C106.627 7.36101 106.616 7.22301 106.61 7.06901C106.607 7.00595 106.58 6.94643 106.535 6.90283C106.489 6.85924 106.428 6.83494 106.365 6.83501H103.996C103.963 6.83504 103.929 6.84205 103.898 6.8556C103.867 6.86914 103.84 6.88893 103.817 6.91371C103.794 6.9385 103.776 6.96776 103.765 6.99964C103.754 7.03153 103.75 7.06535 103.752 7.09901C103.764 7.24901 103.776 7.40301 103.761 7.54501C103.761 7.95801 103.716 8.32501 103.646 8.82901L102.247 17.649C102.242 17.684 102.244 17.7199 102.253 17.754C102.263 17.7882 102.28 17.8199 102.303 17.8469C102.326 17.8739 102.354 17.8956 102.387 17.9105C102.419 17.9253 102.454 17.933 102.489 17.933H104.881C104.94 17.933 104.996 17.9121 105.041 17.8742C105.085 17.8362 105.114 17.7837 105.123 17.726L106.008 12.2C106.282 10.458 107.085 9.03601 108.507 9.03601C109.494 9.03601 109.837 9.72301 109.837 10.756C109.837 11.053 109.814 11.375 109.768 11.696L108.828 17.648C108.823 17.6831 108.824 17.7191 108.834 17.7534C108.843 17.7876 108.86 17.8195 108.883 17.8466C108.906 17.8737 108.935 17.8955 108.967 17.9104C109 17.9253 109.035 17.933 109.07 17.933H111.439C111.498 17.933 111.554 17.9121 111.599 17.8742C111.643 17.8362 111.672 17.7837 111.681 17.726L112.566 12.2C112.863 10.297 113.758 9.03601 115.065 9.03601C116.097 9.03601 116.395 9.79301 116.395 10.756C116.395 11.053 116.372 11.398 116.304 11.719L115.777 15.044C115.616 16.122 115.548 16.695 115.548 17.36V17.688C115.548 17.824 115.658 17.934 115.794 17.934H118.173C118.312 17.934 118.423 17.817 118.418 17.678C118.414 17.57 118.414 17.462 118.414 17.36C118.414 16.718 118.53 16.145 118.598 15.525L119.263 11.238C119.354 10.734 119.401 10.252 119.401 9.77001C119.401 7.96001 118.69 6.62901 116.558 6.62901H116.554ZM20.7873 8.21001C20.0873 7.98001 19.0813 7.66401 19.0813 7.10301C19.0813 6.63001 19.6663 6.39101 20.3373 6.39101C21.3173 6.39101 22.5753 6.91101 23.4473 7.66301C23.5453 7.74801 23.6973 7.72701 23.7813 7.62801L25.9033 4.99201C25.9425 4.94701 25.9639 4.88928 25.9635 4.82963C25.9632 4.76998 25.9411 4.71251 25.9013 4.66801C24.9513 3.61901 23.4033 2.65601 21.1833 2.65601C19.2933 2.65601 17.5883 3.18001 16.3843 4.13301C15.0673 5.17701 14.3973 6.37401 14.3973 8.18201C14.3973 10.298 16.2973 11.6 18.2973 12.357C19.2883 12.733 20.0833 13.022 20.0833 13.517C20.0833 14.052 19.4063 14.242 18.8273 14.242C17.6643 14.242 16.1703 13.53 15.3123 12.788C15.2646 12.7458 15.2023 12.7239 15.1386 12.7268C15.0749 12.7298 15.0149 12.7575 14.9713 12.804L12.4033 15.446C12.3608 15.491 12.3367 15.5503 12.336 15.6122C12.3352 15.6741 12.3578 15.734 12.3993 15.78C13.6943 17.22 16.2553 18.2 18.3893 18.2C22.1593 18.2 24.8633 15.854 24.8633 12.427C24.8633 10.594 23.4133 9.06801 20.7873 8.21001ZM38.4383 7.12001C38.4438 7.085 38.4417 7.04923 38.432 7.01513C38.4224 6.98103 38.4055 6.94942 38.3825 6.92245C38.3595 6.89549 38.331 6.8738 38.2989 6.85888C38.2667 6.84396 38.2318 6.83616 38.1963 6.83601H34.0943C34.0359 6.83601 33.9795 6.85687 33.9351 6.89482C33.8907 6.93278 33.8614 6.98533 33.8523 7.04301L32.9453 12.737C32.8833 13.126 32.6993 14.307 31.6003 14.307C30.9793 14.307 30.6783 13.962 30.6783 13.25C30.6783 12.864 30.7803 12.179 30.8583 11.696L31.3923 8.42801C31.4493 8.08001 31.4793 7.75001 31.4793 7.44801C31.4793 7.29201 31.4723 7.16301 31.4623 7.05801C31.4568 6.99718 31.4287 6.94063 31.3835 6.89953C31.3384 6.85842 31.2794 6.83576 31.2183 6.83601H27.1143C27.0809 6.83609 27.0478 6.84298 27.0172 6.85627C26.9865 6.86956 26.9588 6.88897 26.9359 6.9133C26.913 6.93763 26.8952 6.96638 26.8838 6.9978C26.8724 7.02921 26.8674 7.06263 26.8693 7.09601C26.8743 7.18601 26.8773 7.28901 26.8773 7.40301C26.8773 7.67801 26.8533 7.99801 26.8103 8.33001L25.9873 13.626C25.8988 14.1187 25.8546 14.6184 25.8553 15.119C25.8553 17.105 27.0203 18.198 29.1353 18.198C30.2263 18.198 31.3483 17.755 32.2103 16.984L32.4743 16.747L32.4133 17.097C32.3663 17.365 32.3783 17.577 32.4063 17.727C32.4162 17.7841 32.4458 17.836 32.4901 17.8735C32.5343 17.911 32.5903 17.9317 32.6483 17.932H36.6543C36.6883 17.932 36.7219 17.9249 36.753 17.9113C36.7841 17.8976 36.8121 17.8777 36.8351 17.8527C36.8581 17.8277 36.8757 17.7982 36.8868 17.7661C36.8978 17.7339 36.9021 17.6999 36.8993 17.666C36.8677 17.2554 36.8855 16.8424 36.9523 16.436L38.4423 7.12101H38.4383V7.12001ZM48.2473 6.61401C46.8923 6.61401 45.5603 7.09401 44.6833 7.89401L44.4193 8.13601C44.4193 8.13601 44.4833 7.72601 44.4913 7.56001C44.5008 7.39907 44.4941 7.2376 44.4713 7.07801C44.4553 6.94601 44.3593 6.83801 44.2253 6.83801H40.4683C40.435 6.83809 40.402 6.84496 40.3714 6.85819C40.3408 6.87142 40.3132 6.89073 40.2903 6.91495C40.2674 6.93918 40.2496 6.96781 40.2381 6.9991C40.2266 7.0304 40.2216 7.06371 40.2233 7.09701C40.2283 7.18701 40.2323 7.29001 40.2323 7.40401C40.2323 7.69201 40.2073 8.03101 40.1633 8.33301L38.2513 20.233C38.1913 20.596 38.1633 20.883 38.1633 21.169C38.1633 21.344 38.1693 21.486 38.1813 21.604C38.1943 21.73 38.2993 21.824 38.4263 21.824H42.5573C42.5912 21.824 42.6247 21.8169 42.6558 21.8033C42.6868 21.7897 42.7147 21.7699 42.7377 21.745C42.7607 21.7201 42.7783 21.6908 42.7894 21.6588C42.8006 21.6267 42.8049 21.5928 42.8023 21.559C42.7927 21.4292 42.7881 21.2991 42.7883 21.169C42.7883 20.949 42.7883 20.645 42.8583 20.321L43.3983 16.684L43.5733 16.994C44.0253 17.794 44.9683 18.199 46.3783 18.199C50.2413 18.199 52.3273 14.562 52.3273 11.139C52.3273 9.83801 51.9673 8.72401 51.2893 7.91901C50.5693 7.06601 49.5163 6.61401 48.2473 6.61401ZM45.4673 14.374C44.5423 14.374 43.9223 13.727 43.9223 12.762C43.9223 11.542 44.7253 10.282 46.0693 10.282C47.0093 10.282 47.6143 10.925 47.6143 11.917C47.6143 13.126 46.8113 14.375 45.4673 14.375V14.374ZM59.9773 6.61301C55.9643 6.61301 53.0503 9.56401 53.0503 13.63C53.0503 16.49 55.0523 18.2 58.4053 18.2C59.5943 18.2 61.3903 18.2 63.5563 16.714C63.6154 16.6732 63.6568 16.6115 63.6722 16.5413C63.6876 16.4712 63.6758 16.3978 63.6393 16.336V16.333L62.7273 14.643C62.6898 14.5815 62.6304 14.5364 62.561 14.5169C62.4916 14.4974 62.4174 14.505 62.3533 14.538L62.3203 14.555C61.8573 14.791 60.9953 15.265 59.8343 15.265C58.3183 15.265 57.3753 14.357 57.3393 13.478L57.3343 13.358L57.4483 13.399C57.4603 13.404 58.6653 13.835 60.3083 13.835C61.7583 13.835 62.8083 13.556 63.5193 12.985C64.2493 12.399 64.6043 11.513 64.6043 10.279C64.6043 9.41901 64.2693 6.61301 59.9773 6.61301ZM59.1823 11.56C58.5823 11.56 58.0413 11.483 57.6373 11.414L57.5573 11.401L57.5693 11.321C57.8183 9.86301 58.9553 9.07601 59.8993 9.07601C60.7043 9.07601 61.2233 9.49201 61.2233 10.138C61.2233 11.014 60.4413 11.558 59.1803 11.558L59.1823 11.56ZM74.1273 10.638L74.7723 7.16801C74.8043 6.99501 74.7383 6.85401 74.5383 6.84801H73.6103C72.3443 6.84801 71.3953 7.14501 70.7423 8.30401H70.7203C70.8193 7.73001 70.8003 7.27001 70.7483 7.03901C70.7372 6.98265 70.7071 6.9318 70.6631 6.89489C70.6191 6.85797 70.5638 6.83719 70.5063 6.83601H66.5643C66.5309 6.83609 66.4978 6.84298 66.4672 6.85627C66.4365 6.86956 66.4088 6.88897 66.3859 6.9133C66.363 6.93763 66.3452 6.96638 66.3338 6.9978C66.3224 7.02921 66.3174 7.06263 66.3193 7.09601C66.3243 7.18601 66.3273 7.28901 66.3273 7.40301C66.3273 7.66701 66.3273 7.96701 66.2823 8.30901L64.7923 17.647C64.7867 17.6822 64.7887 17.7181 64.7984 17.7524C64.808 17.7867 64.8249 17.8185 64.848 17.8456C64.8711 17.8727 64.8998 17.8945 64.9322 17.9094C64.9645 17.9243 64.9997 17.932 65.0353 17.932H69.1203C69.1787 17.932 69.2352 17.9111 69.2796 17.8732C69.3239 17.8352 69.3533 17.7827 69.3623 17.725L70.0243 13.588C70.3033 11.764 71.1213 10.838 72.4583 10.838H73.8863C74.0053 10.838 74.1063 10.754 74.1273 10.638ZM75.5603 14.784C74.3453 14.784 73.4513 15.563 73.4513 16.777C73.4513 17.649 74.0473 18.198 75.0093 18.198C76.1323 18.198 77.0943 17.442 77.0943 16.251C77.0943 15.334 76.4533 14.784 75.5603 14.784Z" fill="white"/>
</svg>
