<svg width="512" height="106" viewBox="0 0 512 106" fill="none" xmlns="http://www.w3.org/2000/svg">
<mask id="mask0_471_673" style="mask-type:luminance" maskUnits="userSpaceOnUse" x="2" y="0" width="510" height="106">
<path d="M511.012 0.913574H2.64062V105.088H511.012V0.913574Z" fill="white"/>
</mask>
<g mask="url(#mask0_471_673)">
<path fill-rule="evenodd" clip-rule="evenodd" d="M508.295 98.8398C509.605 101.063 508.938 103.697 506.808 104.698C506.095 105.034 505.273 105.156 504.439 105.053C499.665 104.465 494.89 103.894 490.116 103.34C488.528 103.156 487.056 102.199 486.233 100.822C474.76 87.3202 463.266 74.3543 451.762 61.8235C443.928 61.3624 434.716 60.8361 424.127 60.2436C424.145 70.9898 424.164 81.7356 424.181 92.4813C424.186 94.8473 422.024 96.6 419.374 96.3859C415.332 96.1272 411.288 95.8802 407.243 95.6433C404.592 95.444 402.418 93.3866 402.413 91.062L402.215 5.71393C402.209 3.04838 404.669 0.900306 407.709 0.913636C430.817 1.03657 453.924 1.18658 477.03 1.36571C495.331 1.38868 510.169 15.9077 510.171 33.7811C510.172 51.6072 495.468 64.7422 477.271 63.422C487.629 74.818 497.972 86.601 508.295 98.8398ZM423.292 40.8464C440.93 41.5035 458.561 42.2647 476.183 43.13C482.572 43.4571 487.743 38.9166 487.738 32.9697C487.733 27.0213 482.546 22.0616 476.154 21.8995C458.522 21.4149 440.886 20.9896 423.246 20.6223C423.26 27.3632 423.277 34.1055 423.292 40.8464ZM61.7344 102.466C57.6912 102.851 53.648 103.247 49.6079 103.655C47.095 103.91 45.0593 102.262 45.064 99.9692C45.1033 75.1424 45.1425 46.0935 45.1849 21.2665C32.5202 21.6014 19.8555 21.9664 7.19706 22.3602C4.67951 22.4416 2.63906 20.565 2.64063 18.1665C2.64063 14.0905 2.64223 10.016 2.64379 5.94002C2.64537 3.54152 4.6873 1.58347 7.20798 1.56386C40.1466 1.29383 73.0929 1.0766 106.042 0.913636C108.562 0.903126 110.602 2.65 110.596 4.81773C110.587 8.50602 110.579 12.1928 110.569 15.8811C110.564 18.0473 108.516 19.8424 105.997 19.8922C92.8128 20.1396 79.627 20.4202 66.4459 20.734C66.3957 45.0707 66.3471 73.634 66.2986 97.9721C66.2923 100.217 64.2485 102.226 61.7344 102.466ZM182.497 89.1492C178.443 89.2886 174.388 89.4375 170.334 89.5976C167.548 89.7078 165.27 88.0172 165.275 85.8304C165.33 58.8645 165.388 31.8979 165.442 4.93098C165.447 2.74553 167.727 0.950789 170.511 0.943358C174.558 0.93296 178.606 0.922561 182.653 0.913636C185.437 0.907711 187.71 2.67423 187.707 4.84037C187.663 31.574 187.618 58.3091 187.571 85.0428C187.567 87.2089 185.284 89.0528 182.497 89.1492ZM241.48 3.93829C241.178 3.62566 241.015 3.26268 241.015 2.89226C241.017 1.80178 242.386 0.917187 244.077 0.915703C249.849 0.913609 255.621 0.913636 261.391 0.913636C264.031 0.913636 266.485 1.79285 267.885 3.23744C276.658 12.2902 285.435 21.3622 294.218 30.5024C302.986 21.4837 311.747 12.4413 320.501 3.32487C321.897 1.86991 324.35 0.989786 326.989 0.994228C332.761 1.00756 338.532 1.02244 344.302 1.03874C345.993 1.04466 347.366 1.94991 347.368 3.0641C347.368 3.44192 347.208 3.81081 346.905 4.12936C333.876 17.8226 320.838 31.2847 307.787 44.6742C320.871 58.4029 333.968 72.336 347.069 86.6264C347.372 86.9582 347.535 87.3361 347.537 87.7129C347.54 88.827 346.167 89.6697 344.473 89.5987C338.695 89.3586 332.914 89.1423 327.135 88.9484C324.49 88.8609 322.029 87.8963 320.628 86.3969C311.829 76.9974 303.035 67.7272 294.245 58.5391C285.473 67.5104 276.695 76.4732 267.91 85.4726C266.509 86.9068 264.05 87.7718 261.403 87.7659C255.619 87.7511 249.836 87.7585 244.053 87.7914C242.358 87.8014 240.983 86.9259 240.983 85.8351C240.983 85.4652 241.146 85.1022 241.451 84.7863C254.54 71.2268 267.616 57.8209 280.678 44.4135C267.599 30.8447 254.534 17.4048 241.48 3.93829Z" fill="black"/>
</g>
</svg>
