<?xml version="1.0" encoding="UTF-8"?>
<svg id="Layer_1" xmlns="http://www.w3.org/2000/svg" version="1.1" viewBox="0 0 256 72">
  <!-- Generator: Adobe Illustrator 30.4.0, SVG Export Plug-In . SVG Version: 2.1.4 Build 226)  -->
  <defs>
    <style>
      .st0 {
        fill: #fff;
      }
    </style>
  </defs>
  <path class="st0" d="M54.2,20.3l-12.3,14.4,13.8,16.1h24.7l-26.2-30.5Z"/>
  <path class="st0" d="M52.6,18.4h-24.8L0,50.8h24.7l27.9-32.4h0Z"/>
  <path class="st0" d="M145.3,48v14.3h-8.4V22.9h8.4v2.9c.1,0,.2-.1.2-.2,1.2-1.3,2.7-2.2,4.3-2.7,2.9-.9,5.7-.8,8.5.2,1.5.5,2.9,1.5,4.1,2.6,1.5,1.3,2.6,2.9,3.4,4.7.6,1.4,1,2.9,1.2,4.4.2,2,.1,3.9-.3,5.8-.4,1.8-1.1,3.3-2,4.8-1.1,1.6-2.4,2.9-4,4-1.3.9-2.7,1.5-4.3,1.8-3.2.6-6.3.2-9.1-1.6-.7-.5-1.3-1.1-2-1.7h0ZM152,29.5h-.5c-2.5.2-4.4,1.5-5.5,3.7-1.2,2.4-1.2,4.8,0,7.2.6,1.3,1.6,2.3,2.8,3,1.2.6,2.5.9,3.8.8,1.4-.1,2.6-.6,3.7-1.6,1.3-1.2,2-2.6,2.3-4.3.3-2,0-4-1.1-5.7-1.3-2-3.2-3.1-5.6-3.2h0Z"/>
  <path class="st0" d="M199.6,50.8l-10.9-12.7h-10.7v-2.5h10.7l10.9-12.7h-10.8l-10.9,12.7V9.6h-8.4v41.2h8.4v-12.7l10.9,12.7h10.8,0Z"/>
  <path class="st0" d="M119.4,51.5c-2.6,0-5.1-.5-7.4-1.8-2-1.1-3.7-2.6-5.1-4.5-1.2-1.7-1.9-3.5-2.3-5.6-.3-1.6-.3-3.2,0-4.8.2-1.9.8-3.6,1.8-5.2.8-1.4,1.9-2.6,3-3.6,1.8-1.6,3.7-2.6,6-3.2,1.9-.5,3.9-.6,6-.4,1.9.2,3.7.8,5.4,1.6,1.2.6,2.4,1.5,3.4,2.5,1.2,1.1,2.2,2.4,2.9,3.9.8,1.5,1.2,3,1.4,4.7.2,2.3.1,4.6-.6,6.7-.5,1.5-1.3,2.9-2.3,4.2-1.8,2.2-4,3.8-6.7,4.7-1.7.6-3.4.9-5.3.9h0ZM112.7,36.9c0,1.3.2,2.5.8,3.6.6,1.3,1.5,2.3,2.8,2.9,1.2.6,2.5.8,3.8.7,2.5-.2,4.2-1.5,5.2-3.7,1.1-2.4,1.1-4.8,0-7.2-.6-1.3-1.5-2.3-2.8-3-1.1-.6-2.3-.8-3.6-.7-2.2.1-3.9,1.2-5,3-.9,1.3-1.2,2.8-1.2,4.4Z"/>
  <path class="st0" d="M224,33.5c-.4-2.7-1.5-5.1-3.2-7.2-1.4-1.7-3.2-2.8-5.3-3.4-1.9-.6-3.7-.7-5.7-.6-1.9.1-3.7.6-5.4,1.6-1.2.7-2.3,1.5-3.3,2.5-1.6,1.6-2.8,3.4-3.6,5.6-.9,2.5-1.1,5.1-.6,7.8.6,3.6,2.3,6.7,5.1,8.8,2.5,1.9,5.2,2.9,8.5,2.9s3.7-.3,5.2-.8c2.5-.9,4.5-2.5,6.1-4.7.9-1.2,1.8-2.7,2.2-4.2h-8.4c-.9,1.5-2.2,2.2-4,2.5-.8.1-1.8,0-2.6-.1-1.3-.4-2.6-1.1-3.4-2.1-.6-.9-.9-1.7-1.1-2.7h19.6v-.6c0-1.6,0-3.3-.2-5h0ZM204.8,33.7c0-.3.1-.5.2-.8.6-1.5,1.6-2.7,3.1-3.4,1.2-.6,2.6-.7,3.9-.5,2.2.4,3.9,2.2,4.3,4.3,0,0,0,.2,0,.3h-11.6Z"/>
  <path class="st0" d="M92.6,18.4h-12.2v-7.1h33.1v7.1h-12.2v32.4h-8.6V18.4h0Z"/>
  <path class="st0" d="M256,22.9c-6.9,13.1-14.4,26.2-21.2,39.3h-8.8c2.9-5.4,8.5-15.7,8.5-15.7l-11.5-23.7h9.1l7.1,14.5,7.7-14.5h9.1Z"/>
</svg>