<svg fill="none" height="141" viewBox="0 0 256 141" width="256" xmlns="http://www.w3.org/2000/svg"><g fill="#000"><path d="m54.2261 54.8413-12.3296 14.3748 13.8489 16.1278h24.6592z"/><path d="m52.5907 52.9131h-24.776l-27.8147 32.4309h24.6592l27.8731-32.3725z"/><path d="m145.325 82.4806v14.258h-8.415v-39.3262h8.415v2.8633c.117 0 .175-.1169.233-.1753 1.169-1.344 2.688-2.2205 4.325-2.7464 2.863-.935 5.668-.8181 8.472.1753 1.52.5259 2.864 1.4608 4.091 2.5711 1.461 1.344 2.571 2.9217 3.389 4.7331.643 1.4025.993 2.9217 1.169 4.441.233 1.9868.117 3.9151-.292 5.8434-.351 1.7531-1.052 3.3308-1.987 4.7916-1.052 1.5778-2.396 2.9218-3.974 4.032-1.344.8765-2.746 1.4609-4.324 1.753-3.214.5844-6.311.1753-9.116-1.5777-.701-.4675-1.344-1.0518-1.986-1.6946zm6.661-18.4651c-.175 0-.35 0-.526 0-2.512.1753-4.382 1.4608-5.493 3.6813-1.168 2.3958-1.168 4.85 0 7.2458.585 1.2856 1.578 2.279 2.805 2.9802 1.169.6428 2.455.8765 3.799.7596 1.402-.1168 2.629-.6427 3.739-1.5777 1.286-1.1687 2.045-2.5711 2.338-4.2657.292-2.0452.058-3.9735-1.052-5.7265-1.286-2.0452-3.156-3.097-5.551-3.1555z"/><path d="m199.553 85.344-10.927-12.6802h-10.694v-2.5127h10.694l10.927-12.6802h-10.752l-10.869 12.6802v-26.0032h-8.356v41.1961h8.415v-12.6802l10.868 12.6802h10.752z"/><path d="m119.38 85.9869c-2.63 0-5.142-.5259-7.421-1.8115-1.987-1.1102-3.74-2.6295-5.084-4.4994-1.169-1.6946-1.928-3.506-2.279-5.5512-.292-1.5778-.292-3.2139-.058-4.7916.233-1.8699.818-3.5645 1.753-5.2007.818-1.4024 1.87-2.5711 3.038-3.6229 1.753-1.5777 3.74-2.6295 6.019-3.2139 1.928-.5259 3.915-.5843 5.96-.409 1.87.1753 3.682.7596 5.376 1.6361 1.227.6428 2.396 1.5193 3.389 2.5127 1.169 1.1103 2.163 2.3958 2.864 3.8567.759 1.4608 1.227 3.0385 1.402 4.6747.234 2.2789.117 4.5579-.643 6.7199-.526 1.5193-1.285 2.9217-2.337 4.2073-1.811 2.162-4.032 3.7982-6.72 4.7332-1.694.5843-3.448.8765-5.259.8765zm-6.661-14.6085c0 1.2855.233 2.4542.759 3.6229.643 1.2855 1.519 2.2789 2.805 2.9217 1.169.6428 2.454.8181 3.798.7012 2.454-.2337 4.207-1.5193 5.201-3.7398 1.11-2.3958 1.052-4.7916 0-7.1874-.584-1.2855-1.519-2.2789-2.805-2.9801-1.11-.5844-2.279-.8181-3.564-.7012-2.163.1168-3.857 1.1686-5.026 2.9801-.876 1.2855-1.168 2.8048-1.168 4.3826z"/><path d="m223.979 68.0477c-.409-2.688-1.461-5.0838-3.214-7.1874-1.402-1.6946-3.214-2.8049-5.317-3.4476-1.87-.5844-3.74-.7012-5.669-.5844-1.928.1169-3.739.6428-5.434 1.5777-1.227.7013-2.337 1.5193-3.331 2.5127-1.577 1.5777-2.804 3.3892-3.564 5.5513-.877 2.5126-1.052 5.1422-.584 7.7717.642 3.5645 2.278 6.6615 5.142 8.8236 2.454 1.8698 5.2 2.9217 8.473 2.9217 3.272 0 3.681-.2922 5.2-.8181 2.455-.935 4.5-2.5127 6.136-4.6747.935-1.2272 1.753-2.7465 2.22-4.2073h-8.414c-.935 1.4608-2.221 2.2205-3.974 2.4542-.818.1169-1.811.0585-2.629-.1168-1.344-.3506-2.63-1.0519-3.389-2.1037-.643-.8765-.935-1.6946-1.111-2.7464h19.634c0-.2337 0-.409 0-.6428.059-1.6361 0-3.3307-.233-4.9669zm-19.225.1753c0-.2922.117-.5259.234-.7597.643-1.5192 1.636-2.6879 3.097-3.3891 1.227-.5844 2.571-.7013 3.915-.4675 2.22.409 3.915 2.2205 4.266 4.3241 0 .0584 0 .1753.058.2922z"/><path d="m92.5604 52.9131h-12.2127v-7.1289h33.1323v7.1289h-12.213v32.431h-8.6482v-32.431z"/><path d="m256 57.4126c-6.896 13.1477-14.375 26.2369-21.212 39.3262h-8.765c2.922-5.4344 8.473-15.6604 8.473-15.6604l-11.512-23.6658h9.116l7.129 14.4917 7.713-14.4917z"/></g></svg>