<svg width="962" height="212" viewBox="0 0 962 212" fill="none" xmlns="http://www.w3.org/2000/svg">
<path d="M71.8 62.4V47.6H16.7V0H0.300003V47.6V62.4L0 159.9C0 181.3 6 196 18 204C24.5 208.3 32.8 210.6 42.7 210.9H70.8V195H43.6C38.3 194.6 33.7 193.4 30.1 191.3C21.2 186.3 16.8 175.7 16.8 159.5V62.3H71.9L71.8 62.4Z" fill="black"/>
<path d="M259.8 210.5C243.4 210.5 229.8 206.5 218.9 198.4C208 190.3 202.2 179.1 201.6 164.8C201 150.1 206.4 137.8 218 128C229.5 118.2 248.3 113.2 274.3 113L328.8 112.7V98.8004C328.8 86.1004 323.6 76.3004 313.2 69.6004C302.8 62.8004 289.9 59.5004 274.6 59.5004C259.3 59.5004 250.4 62.0004 240.8 66.9004C231.2 71.9004 225.4 79.9004 223.4 91.0004L207 91.3004C208.4 76.4004 215.4 64.9004 228.1 56.9004C240.7 48.9004 256.1 44.9004 274.3 44.9004C292.5 44.9004 311.3 49.6004 324.7 59.0004C338.1 68.4004 344.8 81.0004 344.8 96.7004V208.2H328.7V166.4C326.9 170.2 324.6 174.1 321.9 177.9C319.2 181.7 315.1 186.4 309.6 192C304.1 197.6 297.1 202 288.4 205.5C279.7 208.9 270.1 210.6 259.6 210.6M260.8 195.7C279.2 195.7 295.1 188.9 308.7 175.3C322.2 161.7 329 145.4 329 126.4H276.6C255.2 126.6 239.9 130.6 230.9 138.4C221.8 146.2 217.7 155.1 218.5 165.2C219.3 174.7 223.8 182.2 231.8 187.6C239.9 193 249.6 195.8 260.9 195.8" fill="black"/>
<path d="M422.105 208.2L360.305 47.6001H378.505L437.205 203.3L496.005 47.6001H514.205L452.405 208.2H422.105Z" fill="black"/>
<path d="M603.803 210.5C580.803 210.5 561.303 202.4 545.503 186.3C529.603 170.1 521.703 150.6 521.703 127.5C521.703 104.4 529.703 85.2003 545.603 69.0003C561.603 52.8003 580.903 44.8003 603.803 44.8003C626.703 44.8003 642.903 51.9003 658.003 66.2003C673.103 80.4003 681.803 97.9003 684.003 118.5C684.803 124 684.903 128.9 684.303 133.3H538.303C539.303 151.1 546.103 165.8 558.703 177.5C571.303 189.2 586.303 195.1 603.703 195.1C621.103 195.1 626.703 192.2 637.003 186.5C647.303 180.7 655.503 172.9 661.503 163L677.603 165.7C670.903 179 660.803 189.8 647.303 198.1C633.803 206.4 619.203 210.5 603.703 210.5M538.303 119.6H667.603C666.003 102.8 659.203 88.7003 647.203 77.2003C635.203 65.7003 620.603 59.9003 603.403 59.9003C586.203 59.9003 571.203 65.7003 559.003 77.2003C546.803 88.7003 539.903 102.9 538.303 119.6Z" fill="black"/>
<path d="M163.205 44.3003C144.205 44.3003 127.305 53.0003 116.005 66.5003V47.6003H99.3047V211H116.005V105.5C116.005 79.5003 137.105 58.4003 163.105 58.4003C189.105 58.4003 183.605 61.8003 192.005 68.3003L200.705 57.2003C189.905 48.8003 176.905 44.4003 163.205 44.4003" fill="black"/>
<path d="M758 195.1C752.7 194.7 748.1 193.5 744.5 191.4C735.6 186.4 731.2 175.8 731.2 159.6V0H714.8V47.6V62.4L714.5 159.9C714.5 181.3 720.5 196 732.5 204C739.1 208.4 747.5 210.7 757.6 210.9H786.2V195H758.1L758 195.1Z" fill="black"/>
<path d="M805.5 0L858.3 98H875.9L823.1 0H805.5ZM962 0H944.4L891.6 98H909.2L962 0ZM805.5 211.9H823.1L875.9 113.9H858.3L805.5 211.9ZM891.6 113.8L944.4 211.8H962L909.2 113.8H891.6Z" fill="black"/>
</svg>
