<svg width="512" height="187" viewBox="0 0 512 187" fill="none" xmlns="http://www.w3.org/2000/svg">
<g clip-path="url(#clip0_502_67147)">
<path d="M50.6221 18.4448H1.46389C0.48993 18.4448 0 18.9346 0 19.9081V31.6144C0 32.5231 0.484027 32.9774 1.46389 32.9774H17.6729V85.4611C17.6729 86.4346 18.092 86.9244 18.9302 86.9244H32.9433C33.9173 86.9244 34.4072 86.4346 34.4072 85.4611V32.9774H50.6221C51.5252 32.9774 51.9798 32.5231 51.9798 31.6144V19.9081C51.9798 18.9346 51.5252 18.4448 50.6221 18.4448Z" fill="#0E1745"/>
<path d="M99.0567 59.2163V59.0098C103.242 57.753 106.258 55.505 108.106 52.2657C109.947 49.0264 110.874 45.0731 110.874 40.4001C110.874 33.1485 108.784 27.6789 104.599 23.9853C100.414 20.2916 93.6143 18.4448 84.1994 18.4448H61.0842C60.1811 18.4448 59.7266 18.9346 59.7266 19.9081V85.4611C59.7266 86.4346 60.1752 86.9244 61.0842 86.9244V86.9126H75.1033C75.9356 86.9126 76.3547 86.4228 76.3547 85.4493V61.718H82.8418L96.3355 85.9744C96.7546 86.6057 97.3095 86.9185 98.006 86.9185H113.589C114.144 86.9185 114.516 86.7415 114.687 86.3933C114.864 86.0511 114.811 85.6322 114.534 85.1425L99.0567 59.2163ZM91.6782 46.6721C90.0373 47.9289 87.5463 48.5543 84.1994 48.5543H76.3606V32.6647H84.5182C87.93 32.6647 90.3914 33.296 91.8907 34.5469C93.39 35.8037 94.1397 37.6505 94.1397 40.5063C94.1397 43.362 93.3133 45.4213 91.6782 46.6721Z" fill="#0E1745"/>
<path d="M160.227 19.5954C159.949 18.8283 159.389 18.4448 158.556 18.4448H140.565C139.726 18.4448 139.166 18.8283 138.888 19.5954L118.181 85.2546C117.969 86.3697 118.358 86.9244 119.332 86.9244H134.491C135.329 86.9244 135.854 86.5054 136.061 85.6676L138.971 74.4805H160.05L163.042 85.7738C163.255 86.5408 163.739 86.9244 164.506 86.9244H179.883C180.928 86.9244 181.276 86.3697 180.928 85.2546L160.221 19.5954H160.227ZM142.406 61.305L145.995 47.51C146.627 45.0023 147.217 42.5301 147.778 40.0873C148.339 37.6505 148.858 35.2136 149.348 32.7709H149.555C150.115 35.2077 150.652 37.6446 151.178 40.0873C151.697 42.5301 152.276 45.0023 152.901 47.51L156.561 61.305H142.406Z" fill="#0E1745"/>
<path d="M237.215 18.439H222.051C221.213 18.439 220.687 18.8579 220.481 19.6957L210.859 57.1217C210.228 59.7061 209.632 62.2668 209.077 64.8099C208.516 67.3529 208.032 69.9491 207.613 72.5983H207.3C206.881 70.0258 206.415 67.4591 205.889 64.9161C205.37 62.373 204.791 59.8418 204.166 57.3341L194.438 19.5954C194.225 18.8284 193.67 18.4449 192.761 18.4449H177.491C176.517 18.4449 176.163 19.0054 176.446 20.1206L196.734 85.7738C197.017 86.5409 197.537 86.9244 198.304 86.9244H198.31L216.508 86.9185C217.346 86.9185 217.872 86.535 218.078 85.7679L238.472 20.1147C238.75 18.9995 238.331 18.439 237.215 18.439Z" fill="#0E1745"/>
<path d="M289.61 85.4611V73.7489C289.61 72.8461 289.191 72.3918 288.353 72.3918H261.784V59.3225H285.944C286.783 59.3225 287.202 58.8387 287.202 57.8592V46.9848C287.202 46.0113 286.783 45.5216 285.944 45.5216H261.784V32.9774H288.353C289.191 32.9774 289.61 32.5231 289.61 31.6144V19.9081C289.61 18.9346 289.191 18.4448 288.353 18.4448H246.514C245.611 18.4448 245.156 18.9346 245.156 19.9081V85.4611C245.156 86.4346 245.605 86.9244 246.514 86.9244H288.353C289.191 86.9244 289.61 86.4346 289.61 85.4611Z" fill="#0E1745"/>
<path d="M341.592 86.9244C342.495 86.9244 342.949 86.4346 342.949 85.4611V73.7489C342.949 72.8461 342.495 72.3918 341.592 72.3918H316.8V19.9081C316.8 18.9346 316.452 18.4448 315.755 18.4448H301.53C300.626 18.4448 300.172 18.9346 300.172 19.9081V85.4611C300.172 86.4346 300.62 86.9244 301.53 86.9244H341.592Z" fill="#0E1745"/>
<path d="M44.9996 152.577C43.8013 156.548 41.6822 159.575 38.6364 161.67C35.5906 163.765 31.8895 164.809 27.5392 164.809C23.5135 164.809 19.9777 163.841 16.9319 161.912C13.8861 159.982 11.5368 157.221 9.87811 153.634C8.21943 150.046 7.38714 145.833 7.38714 140.83C7.38714 135.826 8.23124 131.543 9.91943 127.985C11.6017 124.427 13.9805 121.677 17.0559 119.748C20.1312 117.818 23.6788 116.851 27.7045 116.851C32.1138 116.851 35.6732 117.818 38.3944 119.748C41.1096 121.677 43.0989 124.515 44.3503 128.268L48.3464 126.392C47.3725 123.506 45.9263 121.075 44.0256 119.093C42.1249 117.105 39.7992 115.612 37.0544 114.603C34.3097 113.594 31.1104 113.092 27.4684 113.092C22.575 113.092 18.2896 114.225 14.618 116.479C10.9465 118.733 8.10728 121.931 6.09444 126.061C4.08159 130.197 3.07812 135.112 3.07812 140.824C3.07812 146.536 4.0934 151.456 6.13576 155.587C8.17221 159.717 11.0291 162.915 14.7007 165.169C18.3663 167.423 22.6517 168.55 27.5451 168.55C31.0808 168.55 34.2742 167.977 37.1312 166.839C39.9881 165.694 42.4319 164.042 44.4742 161.865C46.5166 159.687 48.0513 157.109 49.0843 154.117V154.129L44.9996 152.577Z" fill="#0E1745"/>
<path d="M97.2987 147.267C97.2987 153.026 95.882 157.392 93.0546 160.354C90.2272 163.316 86.0953 164.797 80.6529 164.797C75.2106 164.797 71.0609 163.316 68.2099 160.354C65.3588 157.392 63.9304 153.032 63.9304 147.267V113.913H59.8516V148.082C59.8516 154.773 61.6755 159.853 65.3175 163.334C68.9595 166.809 74.0713 168.55 80.6529 168.55C87.2345 168.55 92.3345 166.815 95.9529 163.334C99.5713 159.853 101.378 154.767 101.378 148.082V113.913H97.2987V147.267Z" fill="#0E1745"/>
<path d="M149.921 140.21C153.126 137.573 154.732 133.885 154.732 129.159C154.732 124.433 153.138 120.71 149.956 117.99C146.775 115.27 142.489 113.913 137.106 113.913H137.112L117.125 113.919V167.742H121.204V144.417H136.622L137.029 144.17C137.07 144.17 137.112 144.17 137.159 144.17L152.772 167.742H157.583L141.81 143.763C145.016 143.19 147.725 142.016 149.921 140.216V140.21ZM121.198 140.582V117.665H137.023C141.374 117.665 144.703 118.656 147.017 120.645C149.325 122.627 150.482 125.465 150.482 129.165C150.482 132.865 149.33 135.691 147.017 137.65C144.703 139.603 141.374 140.582 137.023 140.582H121.198Z" fill="#0E1745"/>
<path d="M173.415 113.913H169.336V167.736H173.415V113.913Z" fill="#0E1745"/>
<path d="M224.975 116.485C221.274 114.231 216.87 113.098 211.758 113.098C206.647 113.098 202.308 114.231 198.583 116.485C194.859 118.739 191.99 121.937 189.977 126.067C187.964 130.203 186.961 135.118 186.961 140.83C186.961 146.541 187.964 151.462 189.977 155.593C191.99 159.723 194.853 162.921 198.583 165.175C202.308 167.429 206.647 168.556 211.758 168.556C216.87 168.556 221.274 167.429 224.975 165.175C228.67 162.921 231.527 159.723 233.54 155.593C235.547 151.456 236.556 146.541 236.556 140.83C236.556 135.118 235.547 130.197 233.54 126.067C231.527 121.937 228.67 118.739 224.975 116.485ZM229.791 153.634C228.103 157.221 225.736 159.982 222.69 161.912C219.645 163.841 215.944 164.809 211.758 164.809C207.573 164.809 203.937 163.841 200.868 161.912C197.798 159.982 195.431 157.221 193.773 153.634C192.114 150.046 191.282 145.774 191.282 140.83C191.282 135.885 192.114 131.613 193.773 128.026C195.431 124.439 197.798 121.677 200.868 119.748C203.937 117.818 207.573 116.851 211.758 116.851C216.003 116.851 219.645 117.818 222.69 119.748C225.736 121.677 228.109 124.439 229.791 128.026C231.474 131.613 232.318 135.885 232.318 140.83C232.318 145.774 231.48 150.046 229.791 153.634Z" fill="#0E1745"/>
<path d="M286.322 113.913V147.267C286.322 153.026 284.905 157.392 282.078 160.354C279.251 163.316 275.119 164.797 269.676 164.797C264.234 164.797 260.084 163.316 257.233 160.354C254.382 157.392 252.954 153.032 252.954 147.267V113.913H248.875V148.082C248.875 154.773 250.699 159.853 254.341 163.334C257.983 166.809 263.095 168.55 269.676 168.55C276.258 168.55 281.358 166.815 284.976 163.334C288.595 159.853 290.401 154.767 290.401 148.082V113.913H286.322Z" fill="#0E1745"/>
<path d="M340.628 145.231C338.473 143.113 334.766 141.479 329.489 140.34L318.965 138.057C314.555 137.071 311.551 135.756 309.945 134.098C308.34 132.445 307.537 130.386 307.537 127.943C307.537 125.878 308.104 124.014 309.249 122.356C310.388 120.698 312.076 119.364 314.307 118.361C316.539 117.352 319.254 116.851 322.465 116.851C326.65 116.851 330.174 117.689 333.031 119.376C335.882 121.064 338.102 123.807 339.678 127.613L343.101 125.005C341.307 120.981 338.709 117.99 335.309 116.031C331.915 114.078 327.736 113.098 322.79 113.098H322.796C318.77 113.098 315.287 113.806 312.354 115.222C309.42 116.638 307.159 118.497 305.583 120.81C304.001 123.123 303.216 125.666 303.216 128.439C303.216 130.669 303.694 132.67 304.645 134.434C305.595 136.198 307.136 137.709 309.255 138.959C311.374 140.21 314.148 141.213 317.578 141.974L328.675 144.423C332.754 145.237 335.593 146.435 337.198 148.011C338.804 149.592 339.607 151.409 339.607 153.805C339.607 156.2 338.94 158.212 337.606 159.841C336.272 161.469 334.412 162.708 332.016 163.552C329.619 164.396 326.904 164.815 323.858 164.815C320.647 164.815 317.737 164.349 315.128 163.428C312.519 162.508 310.323 161.133 308.558 159.31C306.793 157.487 305.53 155.297 304.769 152.743L301.18 155.516C302.16 158.23 303.682 160.555 305.748 162.484C307.814 164.414 310.359 165.906 313.375 166.968C316.397 168.03 319.673 168.561 323.699 168.561C327.724 168.561 331.231 167.936 334.223 166.685C337.216 165.434 339.571 163.664 341.283 161.381C342.995 159.097 343.851 156.483 343.851 153.551C343.851 150.123 342.776 147.35 340.628 145.231Z" fill="#0E1745"/>
<path d="M511.915 68.5741C511.72 64.6976 511.289 59.3519 509.625 53.8173C507.712 48.743 502.795 45.1261 497.04 45.1261C489.608 45.1261 483.587 51.1504 483.587 58.5848C483.587 59.3932 485.453 69.6244 485.453 73.1705C485.453 98.3945 465 118.827 439.777 118.827C414.555 118.827 394.102 98.3945 394.102 73.1705C394.102 47.9465 414.543 27.5136 439.777 27.5136C446.477 27.5136 452.846 28.9532 458.577 31.5494C467.874 36.3936 478.363 26.8173 478.363 19.2531C478.363 14.1611 475.583 9.70628 471.457 7.35204C470.873 7.00392 459.764 0.961954 443.632 0.100502C401.988 -2.07083 367.539 31.0538 367.539 72.2029C367.539 86.3342 371.618 99.5097 378.636 110.644L381.782 115.27C381.859 115.364 381.936 115.47 382.013 115.576L433.148 183.69C436.454 188.104 443.083 188.104 446.388 183.69L497.524 115.576C497.601 115.47 497.677 115.364 497.754 115.27L500.581 111.499H500.363C508.326 99.2442 512.7 84.4402 511.915 68.5741Z" fill="url(#paint0_linear_502_67147)"/>
</g>
<defs>
<linearGradient id="paint0_linear_502_67147" x1="368" y1="2.777e-06" x2="512" y2="118" gradientUnits="userSpaceOnUse">
<stop stop-color="#5236AB"/>
<stop offset="0.5" stop-color="#181D54"/>
<stop offset="1" stop-color="#0897A8"/>
</linearGradient>
<clipPath id="clip0_502_67147">
<rect width="512" height="187" fill="white"/>
</clipPath>
</defs>
</svg>
