<svg width="140" height="30" viewBox="0 0 140 30" fill="none" xmlns="http://www.w3.org/2000/svg">
<g clip-path="url(#clip0_705_210)">
<mask id="mask0_705_210" style="mask-type:luminance" maskUnits="userSpaceOnUse" x="0" y="0" width="140" height="30">
<path d="M140 0.0666504H0V29.9333H140V0.0666504Z" fill="white"/>
</mask>
<g mask="url(#mask0_705_210)">
<path d="M26.8594 2.91846H40.8048V6.02149H35.73V22.1573H31.924V6.02149H26.8594V2.91846Z" fill="#131313"/>
<path d="M46.0205 22.1575H42.2109V6.87685H46.0205V9.24894C46.4946 8.4391 47.1731 7.77198 47.9862 7.31627C48.7993 6.86056 49.7174 6.63272 50.6462 6.65619V10.7108H49.6258C47.3673 10.7108 46.0068 11.5934 46.0068 14.5447L46.0205 22.1575Z" fill="#131313"/>
<path d="M51.7761 2.79476C51.7538 2.32058 51.8719 1.85046 52.1157 1.44506C52.3593 1.03965 52.7171 0.717528 53.1431 0.520255C53.5691 0.322982 54.0436 0.259596 54.5054 0.338279C54.9673 0.416963 55.3952 0.63411 55.7342 0.961701C56.0732 1.28929 56.3075 1.7123 56.4069 2.17618C56.5065 2.64005 56.4667 3.12351 56.2925 3.56419C56.1184 4.00488 55.8181 4.38258 55.4301 4.64857C55.0423 4.91457 54.5845 5.05666 54.1163 5.05651C53.8144 5.07097 53.5127 5.02318 53.2295 4.91606C52.9463 4.80893 52.6875 4.64468 52.4688 4.43324C52.25 4.2218 52.0759 3.96758 51.9568 3.68595C51.8378 3.40433 51.7762 3.10115 51.7761 2.79476ZM52.1843 6.87696H55.9938V22.1577H52.1843V6.87696Z" fill="#131313"/>
<path d="M67.5157 6.62905C71.3796 6.62905 74.4 9.69071 74.4 14.4625C74.4 19.2343 71.3796 22.3924 67.5157 22.3924C66.5576 22.411 65.6085 22.2025 64.744 21.7835C63.8795 21.3644 63.1235 20.7465 62.5362 19.9789V29.4397H58.7266V6.87729H62.5395V9.08389C63.1149 8.30113 63.8671 7.66968 64.7329 7.24253C65.5987 6.81539 66.553 6.605 67.5157 6.62905ZM66.4953 10.0218C64.4545 10.0218 62.5225 11.6214 62.5225 14.5038C62.5225 17.3863 64.4545 18.9861 66.4953 18.9861C68.5362 18.9861 70.4953 17.3311 70.4953 14.4349C70.4953 11.5387 68.5769 10.0218 66.509 10.0218H66.4953Z" fill="#131313"/>
<path d="M82.7117 22.3509C78.7661 22.3509 75.7185 20.2547 75.6641 16.6138H79.7457C79.8546 18.1585 80.8614 19.179 82.6301 19.179C84.3987 19.179 85.4871 18.2136 85.4871 16.8344C85.4871 12.6695 75.6912 15.1795 75.7185 8.21497C75.7185 4.73958 78.494 2.64331 82.4124 2.64331C86.3307 2.64331 88.9701 4.65683 89.215 8.13223H85.0246C84.9429 6.86343 83.9361 5.87047 82.3035 5.84288C80.8069 5.78772 79.6913 6.53245 79.6913 8.10465C79.6913 11.9662 89.4327 9.82854 89.4327 16.6C89.4327 19.6203 87.0279 22.3509 82.7117 22.3509Z" fill="#131313"/>
<path d="M105.938 22.1575H102.101V20.2269C101.565 20.9086 100.881 21.4551 100.102 21.8236C99.3232 22.1921 98.4705 22.3725 97.6111 22.3506C94.1009 22.3506 91.5703 20.0338 91.5703 15.8413V6.87695H95.3798V15.2895C95.3798 17.7444 96.7131 19.0822 98.7267 19.0822C100.795 19.0822 102.101 17.7582 102.101 15.2895V6.87695H105.938V22.1575Z" fill="#131313"/>
<path d="M108.26 2.79476C108.238 2.32058 108.356 1.85046 108.6 1.44506C108.843 1.03965 109.201 0.717528 109.627 0.520255C110.053 0.322982 110.528 0.259596 110.99 0.338279C111.451 0.416963 111.88 0.63411 112.218 0.961701C112.557 1.28929 112.792 1.7123 112.891 2.17618C112.991 2.64005 112.951 3.12351 112.777 3.56419C112.603 4.00488 112.302 4.38258 111.914 4.64857C111.526 4.91457 111.069 5.05666 110.6 5.05651C110.299 5.07097 109.997 5.02318 109.714 4.91606C109.431 4.80893 109.172 4.64468 108.953 4.43324C108.734 4.2218 108.56 3.96758 108.441 3.68595C108.322 3.40433 108.261 3.10115 108.26 2.79476ZM108.669 6.87696H112.478V22.1577H108.669V6.87696Z" fill="#131313"/>
<path d="M116.155 10.0488H114.359V6.87682H116.155V3.08423H119.992V6.87682H123.366V10.0488H119.992V17.4409C119.992 18.4752 120.4 18.9027 121.598 18.9027H123.366V22.1575H120.985C118.101 22.1575 116.169 20.9163 116.169 17.4133L116.155 10.0488Z" fill="#131313"/>
<path d="M131.674 22.4064C127.294 22.4064 124.109 19.3033 124.109 14.5177C124.109 9.73218 127.212 6.62915 131.674 6.62915C136.028 6.62915 139.103 9.63563 139.103 14.1867C139.108 14.6855 139.07 15.1836 138.994 15.6762H127.973C128.164 17.938 129.675 19.2068 131.592 19.2068C133.225 19.2068 134.123 18.3793 134.613 17.3588H138.725C137.906 20.1584 135.402 22.4064 131.674 22.4064ZM128.001 13.0973H135.144C135.089 11.0837 133.511 9.81493 131.552 9.81493C129.742 9.81493 128.3 10.9872 128.001 13.0835V13.0973Z" fill="#131313"/>
<path fill-rule="evenodd" clip-rule="evenodd" d="M16.6727 8.85266L8.1184 3.22239C7.99396 3.12904 7.90084 2.99917 7.85164 2.85039C7.80245 2.7016 7.79956 2.54108 7.84336 2.39058C7.88717 2.24006 7.97555 2.10684 8.09653 2.00895C8.21752 1.91104 8.36526 1.8532 8.51976 1.84326L18.7237 1.88464C19.3972 1.88523 20.0578 2.07004 20.6364 2.41957C21.2147 2.76912 21.6894 3.27044 22.0102 3.87063C22.331 4.47083 22.486 5.14765 22.4589 5.82971C22.4319 6.51178 22.2237 7.17379 21.8564 7.74592C21.5881 8.16405 21.2411 8.52444 20.8351 8.80644C20.4293 9.08843 19.9725 9.2865 19.491 9.38931C19.0096 9.49211 18.5127 9.49762 18.0291 9.40554C17.5455 9.31345 17.0846 9.12557 16.6727 8.85266ZM7.23017 17.0825L7.77777 6.75983C7.80481 6.26078 7.73429 5.76123 7.57025 5.28991C7.40619 4.8186 7.15186 4.38479 6.82187 4.01344C6.49187 3.6421 6.09272 3.34052 5.64737 3.12607C5.20201 2.91161 4.71923 2.78849 4.22677 2.7638C3.55356 2.72366 2.88217 2.86872 2.28361 3.18361C1.68504 3.49851 1.18156 3.97152 0.826427 4.55266C0.471297 5.13379 0.277724 5.8014 0.266174 6.4849C0.254624 7.16839 0.425528 7.84234 0.760815 8.43545L5.822 17.3997C5.902 17.5417 6.0247 17.6539 6.17214 17.7199C6.31958 17.786 6.48402 17.8025 6.64139 17.7671C6.79877 17.7317 6.94083 17.6462 7.04677 17.5229C7.15271 17.3997 7.21698 17.2454 7.23017 17.0825ZM19.1149 11.0796L10.03 15.7755C9.58991 16.0012 9.19816 16.3129 8.87731 16.6926C8.55645 17.0723 8.31284 17.5126 8.16047 17.9881C8.00811 18.4636 7.94999 18.965 7.98949 19.4634C8.02899 19.9617 8.1653 20.4473 8.39059 20.8921C8.69426 21.5036 9.15558 22.0204 9.72561 22.3877C10.2956 22.7549 10.953 22.9588 11.6282 22.978C12.3034 22.9971 12.9711 22.8306 13.5603 22.4961C14.1497 22.1616 14.6386 21.6716 14.9756 21.0783L20.1082 12.1484C20.1903 12.0057 20.2247 11.8399 20.2063 11.6758C20.1878 11.5116 20.1175 11.3579 20.0057 11.2376C19.894 11.1173 19.7469 11.037 19.5863 11.0085C19.4258 10.98 19.2603 11.0049 19.1149 11.0796Z" fill="url(#paint0_linear_705_210)"/>
</g>
</g>
<defs>
<linearGradient id="paint0_linear_705_210" x1="0.487589" y1="2.06343" x2="22.2909" y2="23.1563" gradientUnits="userSpaceOnUse">
<stop stop-color="#FF9382"/>
<stop offset="0.535743" stop-color="#F6575B"/>
<stop offset="1" stop-color="#F463E6"/>
</linearGradient>
<clipPath id="clip0_705_210">
<rect width="140" height="30" fill="white"/>
</clipPath>
</defs>
</svg>
