<svg width="171" height="40" viewBox="0 0 171 40" fill="none" xmlns="http://www.w3.org/2000/svg">
<g clip-path="url(#clip0_705_10)">
<path d="M51.7232 12.5208V22.4499C51.7232 25.1057 49.5364 27.2595 46.8398 27.2595C44.1433 27.2595 41.9565 25.1057 41.9565 22.4499V12.5208H38.2734V22.3019C38.2734 26.961 42.1092 30.7389 46.8398 30.7389C51.5705 30.7389 55.4063 26.961 55.4063 22.3019V12.5208H51.7232Z" fill="#0E680E"/>
<path d="M17.1674 1.03979V24.1507C17.1674 29.9736 12.3757 34.6929 6.46348 34.6929C5.69775 34.6929 4.95315 34.6119 4.23438 34.4616C6.97554 37.2585 10.8207 39.0005 15.0793 39.0005C23.4061 39.0005 30.1545 32.3518 30.1545 24.1531V1.03979H17.1674Z" fill="#4A9D2D"/>
<path d="M6.46183 30.5471C2.8915 30.5471 0 27.6969 0 24.1805V5.12964H12.926V24.1805C12.926 27.6969 10.0322 30.5471 6.46183 30.5471Z" fill="#0E680E"/>
<path d="M76.7997 21.3483C76.7997 26.9328 72.6093 30.6667 67.9139 30.6667C65.2056 30.6667 62.9671 29.7413 61.4121 28.1404V36.5219H57.6562V12.5273H61.4121V14.5538C62.9648 12.9529 65.2032 12.0276 67.9139 12.0276C72.6093 12.0276 76.7997 15.7985 76.7997 21.346M73.1519 21.346C73.1519 17.6468 70.5869 15.2988 67.3008 15.2988C64.3388 15.2988 61.4145 17.6468 61.4145 21.346C61.4145 25.0451 64.3388 27.3933 67.3008 27.3933C70.5869 27.3933 73.1519 25.0821 73.1519 21.346Z" fill="#0E680E"/>
<path d="M111.621 12.456L111.368 16.0141C111.079 15.9793 110.647 15.9793 110.32 15.9793C105.77 15.9793 103.53 19.1093 103.53 23.9467V30.172H99.7734V12.5277H103.53V16.2986C104.974 13.9505 107.25 12.3149 110.356 12.3149C110.79 12.3149 111.15 12.3149 111.619 12.4583" fill="#0E680E"/>
<path d="M130.79 30.1701H127.034V28.1435C125.481 29.7444 123.24 30.6698 120.532 30.6698C115.837 30.6698 111.648 26.9359 111.648 21.3514C111.648 15.7668 115.837 12.033 120.532 12.033C123.24 12.033 125.481 12.9583 127.034 14.5592V12.5327H130.79V30.1701ZM127.034 21.3491C127.034 17.6499 124.11 15.3019 121.148 15.3019C117.861 15.3019 115.296 17.6499 115.296 21.3491C115.296 25.0482 117.861 27.3964 121.148 27.3964C124.11 27.3964 127.034 25.0852 127.034 21.3491Z" fill="#0E680E"/>
<path d="M166.751 25.1264C165.485 27.0072 163.681 27.4676 161.903 27.4676C159.267 27.4676 156.845 25.5105 156.486 22.2393H171.005V20.9577C170.824 15.6577 166.852 12.0303 162.048 12.0303C156.991 12.0303 152.766 15.7641 152.766 21.3857C152.766 27.0073 157.026 30.6694 161.903 30.6694C165.872 30.6694 169.05 28.8209 170.532 25.1264H166.753H166.751ZM162.046 15.3038C164.5 15.3038 166.561 16.7265 167.138 19.6067H156.592C157.169 16.7612 159.697 15.3038 162.046 15.3038Z" fill="#0E680E"/>
<path d="M147.642 1V14.0453C146.017 12.8539 143.973 12.183 141.765 12.183C136.513 12.183 132.227 15.9307 132.227 21.4297C132.227 26.9287 136.513 30.711 141.765 30.711C147.018 30.711 151.055 27.1345 151.285 21.8808H151.297V1H147.642ZM141.765 27.4954C138.658 27.4954 135.869 25.1034 135.869 21.4274C135.869 17.7514 138.655 15.3593 141.765 15.3593C144.875 15.3593 147.626 17.7514 147.626 21.4274C147.626 25.1034 144.803 27.4954 141.765 27.4954Z" fill="#0E680E"/>
<path d="M93.7528 12.5273V14.5538C92.2002 12.9529 89.959 12.0276 87.2508 12.0276C82.5553 12.0276 78.3672 15.7985 78.3672 21.346C78.3672 26.8935 82.5577 30.6643 87.2508 30.6643C89.959 30.6643 92.2002 29.739 93.7528 28.1381V28.5707C93.7528 31.8419 91.622 34.6342 88.2256 34.6342C84.829 34.6342 83.5888 33.2392 82.2523 31.1756L79.3655 33.0588C80.81 35.6914 82.9922 37.9793 88.2256 37.9793C93.8233 37.9793 97.5084 33.7851 97.5084 28.6447V12.5273H93.7528ZM87.8662 27.3955C84.58 27.3955 82.015 25.0844 82.015 21.3483C82.015 17.6121 84.58 15.301 87.8662 15.301C90.8286 15.301 93.7528 17.6491 93.7528 21.3483C93.7528 25.0474 90.8259 27.3955 87.8662 27.3955Z" fill="#0E680E"/>
</g>
<defs>
<clipPath id="clip0_705_10">
<rect width="171" height="40" fill="white"/>
</clipPath>
</defs>
</svg>
