<svg width="585" height="120" viewBox="0 0 585 120" fill="none" xmlns="http://www.w3.org/2000/svg">
<path fill-rule="evenodd" clip-rule="evenodd" d="M73.0183 3.4165C76.8128 3.4165 79.8897 6.47725 79.8897 10.249V19.6478H93.6356C97.43 19.6478 100.507 22.7053 100.507 26.4804V35.8759H109.957C113.752 35.8759 116.829 38.9367 116.829 42.7085V80.2939C116.829 84.0689 113.752 87.1265 109.957 87.1265H100.507V96.522C100.507 100.297 97.43 103.358 93.6356 103.358H79.8897V112.753C79.8897 116.525 76.8128 119.586 73.0183 119.586H43.8104C40.0159 119.586 36.939 116.525 36.939 112.753V103.358H23.1931C19.3987 103.358 16.3218 100.297 16.3218 96.522V87.1265H6.87133C3.07691 87.1265 0 84.0689 0 80.2939V42.7085C0 38.9367 3.07691 35.8759 6.87133 35.8759H16.3218V26.4804C16.3218 22.7053 19.3987 19.6478 23.1931 19.6478H36.939V10.249C36.939 6.47725 40.0159 3.4165 43.8104 3.4165H73.0183ZM37.7988 29.8966C37.7988 33.6717 34.7219 36.7292 30.9242 36.7292H17.1815V86.2732H30.9242C34.7219 86.2732 37.7988 89.3307 37.7988 93.1057V102.501H79.0299V93.1057C79.0299 89.3307 82.1069 86.2732 85.9045 86.2732H99.6472V36.7292H85.9045C82.1069 36.7292 79.0299 33.6717 79.0299 29.8966V20.5011H37.7988V29.8966Z" fill="black"/>
<path fill-rule="evenodd" clip-rule="evenodd" d="M253.447 23.9175C260.118 23.9175 265.978 24.997 271.026 27.156C276.123 29.3182 279.898 32.8573 282.351 37.7733C283.696 40.3912 284.507 43.0803 284.785 45.8372C285.063 48.5489 285.202 51.5127 285.202 54.7318V100.433H270.541V90.4136C267.733 94.0464 264.584 96.8356 261.091 98.7813C256.598 101.26 250.968 102.501 244.206 102.501C238.786 102.501 234.2 101.49 230.451 99.4697C226.698 97.4012 223.848 94.6669 221.902 91.2668C220.005 87.8667 219.055 84.1208 219.055 80.029C219.055 76.4447 219.656 73.2288 220.861 70.3781C222.064 67.4822 223.919 65.0032 226.421 62.9347C228.922 60.821 232.164 59.0983 236.146 57.7634C239.158 56.8003 242.678 55.9244 246.708 55.1455C250.784 54.3633 255.186 53.6491 259.908 53.0059C262.794 52.5889 265.754 52.1558 268.793 51.7034C268.495 47.7991 267.364 44.832 265.399 42.8055C263.036 40.3686 259.051 39.1533 253.447 39.1533C250.066 39.1533 246.802 39.9323 243.651 41.4966C240.503 43.0576 238.302 45.7467 237.051 49.5605L221.763 44.8029C223.618 38.5069 227.138 33.452 232.325 29.6382C237.558 25.8244 244.601 23.9175 253.447 23.9175ZM268.557 65.3297C265.658 65.7854 263.052 66.2055 260.742 66.5869C257.131 67.1849 254.025 67.7602 251.433 68.3096C248.838 68.817 246.546 69.3923 244.552 70.0355C242.61 70.7239 240.965 71.5287 239.62 72.4466C238.279 73.3678 237.235 74.4246 236.495 75.6173C235.8 76.8131 235.451 78.2158 235.451 79.8221C235.451 81.6612 235.916 83.2934 236.841 84.7187C237.768 86.0955 239.113 87.1977 240.871 88.0251C242.678 88.8525 244.901 89.2662 247.542 89.2662C251.34 89.2662 254.581 88.6004 257.27 87.2688C259.956 85.9339 262.086 84.305 263.66 82.3755C265.283 80.4427 266.372 78.6295 266.928 76.9262C267.807 74.8125 268.295 72.4014 268.385 69.6897C268.469 68.0478 268.524 66.5966 268.557 65.3297Z" fill="black"/>
<path fill-rule="evenodd" clip-rule="evenodd" d="M414.08 23.9175C420.751 23.9175 426.61 24.997 431.659 27.156C436.756 29.3182 440.531 32.8573 442.984 37.7733C444.328 40.3912 445.14 43.0803 445.418 45.8372C445.696 48.5489 445.835 51.5127 445.835 54.7318V100.433H431.174V90.4136C428.365 94.0464 425.217 96.8356 421.723 98.7813C417.231 101.26 411.601 102.501 404.839 102.501C399.419 102.501 394.833 101.49 391.084 99.4697C387.331 97.4012 384.481 94.6669 382.538 91.2668C380.638 87.8667 379.688 84.1208 379.688 80.029C379.688 76.4447 380.289 73.2288 381.494 70.3781C382.7 67.4822 384.552 65.0032 387.053 62.9347C389.555 60.821 392.797 59.0983 396.782 57.7634C399.791 56.8003 403.311 55.9244 407.341 55.1455C411.416 54.3633 415.819 53.6491 420.541 53.0059C423.427 52.5889 426.387 52.1558 429.425 51.7034C429.128 47.7991 427.997 44.832 426.032 42.8055C423.669 40.3686 419.684 39.1533 414.08 39.1533C410.699 39.1533 407.435 39.9323 404.283 41.4966C401.135 43.0576 398.934 45.7467 397.684 49.5605L382.396 44.8029C384.251 38.5069 387.771 33.452 392.958 29.6382C398.191 25.8244 405.234 23.9175 414.08 23.9175ZM429.189 65.3297C426.29 65.7854 423.689 66.2055 421.374 66.5869C417.764 67.1849 414.658 67.7602 412.066 68.3096C409.471 68.817 407.179 69.3923 405.188 70.0355C403.243 70.7239 401.598 71.5287 400.253 72.4466C398.912 73.3678 397.868 74.4246 397.128 75.6173C396.433 76.8131 396.084 78.2158 396.084 79.8221C396.084 81.6612 396.549 83.2934 397.473 84.7187C398.401 86.0955 399.746 87.1977 401.504 88.0251C403.311 88.8525 405.534 89.2662 408.175 89.2662C411.972 89.2662 415.214 88.6004 417.903 87.2688C420.589 85.9339 422.719 84.305 424.293 82.3755C425.915 80.4427 427.005 78.6295 427.561 76.9262C428.44 74.8125 428.928 72.4014 429.018 69.6897C429.102 68.0478 429.157 66.5966 429.189 65.3297Z" fill="black"/>
<path d="M563.306 26.5191H585.002V39.457H563.306V69.3082C563.306 72.272 563.325 74.877 563.374 77.1103C563.464 79.3469 563.942 81.173 564.809 82.5886C566.454 85.3262 569.078 86.8549 572.682 87.1749C576.286 87.4949 580.393 87.3139 585.002 86.6287V100.459C580.119 101.37 575.329 101.758 570.626 101.622C565.972 101.528 561.8 100.685 558.102 99.0882C554.405 97.4464 551.599 94.8672 549.683 91.3507C547.995 88.1575 547.103 84.8931 547.013 81.5609C546.922 78.2318 546.877 74.4633 546.877 70.2649V39.457H533.461V26.5191H546.877V5.97949H563.306V26.5191Z" fill="black"/>
<path d="M183.829 80.3587L202.433 26.4805H219.049L192.135 100.795H175.519L148.609 26.4805H165.154L183.829 80.3587Z" fill="black"/>
<path d="M333.467 25.7177C335.771 25.5334 338.008 25.6272 340.18 25.9956V41.5773C338.008 40.9309 335.5 40.7241 332.652 40.9568C329.85 41.1862 327.316 41.9942 325.057 43.3808C322.795 44.6251 320.943 46.2185 319.495 48.1578C318.092 50.097 317.054 52.3142 316.376 54.8061C315.697 57.2527 315.358 59.9095 315.358 62.7698V100.795H298.945V25.9956H313.389V37.9445C313.942 36.9393 314.553 35.9794 315.222 35.068C316.76 32.9898 318.59 31.28 320.716 29.942C322.523 28.6944 324.514 27.728 326.683 27.0331C328.9 26.2962 331.159 25.8566 333.467 25.7177Z" fill="black"/>
<path d="M367.666 100.795H351.344V26.4868H367.666V100.795Z" fill="black"/>
<path d="M498.398 23.9175C503.864 23.9175 508.376 24.8386 511.928 26.6841C515.483 28.5296 518.308 30.8825 520.402 33.7429C522.5 36.6033 524.048 39.6478 525.05 42.8767C526.052 46.1055 526.692 49.1759 526.963 52.0815C527.283 54.9419 527.441 57.2689 527.441 59.0692V100.795H510.767V64.8125C510.767 62.4596 510.609 59.8546 510.289 56.9942C509.969 54.1339 509.219 51.3866 508.033 48.759C506.895 46.0828 505.163 43.8915 502.839 42.185C500.56 40.4785 497.464 39.6252 493.544 39.6252C491.449 39.6252 489.374 39.971 487.325 40.6627C485.276 41.3544 483.408 42.5534 481.721 44.26C480.082 45.9212 478.76 48.2289 477.758 51.1798C476.756 54.0854 476.255 57.8216 476.255 62.3885V100.795H459.578V26.0636H474.271V34.3538C476.155 32.1172 478.366 30.1844 480.9 28.5522C485.638 25.4624 491.472 23.9175 498.398 23.9175Z" fill="black"/>
<path d="M367.666 15.2035H351.344V0H367.666V15.2035Z" fill="black"/>
</svg>
