<svg width="38" height="30" viewBox="0 0 38 30" fill="none" xmlns="http://www.w3.org/2000/svg">
<path d="M23.6271 0.539902L19.4597 10.3852C19.2871 10.7926 18.7111 10.7926 18.5386 10.3852L14.3728 0.539902C14.2945 0.354582 14.1132 0.234375 13.9123 0.234375H0.594398C0.23638 0.234375 -0.00577091 0.600423 0.133852 0.930575L12.2393 29.5382C12.3177 29.7235 12.499 29.8437 12.6999 29.8437H25.2997C25.5006 29.8437 25.6819 29.7235 25.7602 29.5382L37.8661 0.930575C38.0057 0.600423 37.764 0.234375 37.4056 0.234375H24.0877C23.8868 0.234375 23.7055 0.354582 23.6271 0.539902ZM15.7953 26.3122L18.5674 19.761C18.7395 19.3536 19.3159 19.3536 19.4884 19.761L22.2613 26.3122C22.4009 26.6424 22.1592 27.0084 21.8008 27.0084H16.2559C15.8979 27.0084 15.6557 26.6424 15.7953 26.3122ZM16.0787 13.6208H10.5343C10.1763 13.6208 9.9341 13.2547 10.0737 12.9246L12.8458 6.37413C13.0179 5.96676 13.5943 5.96676 13.7668 6.37413L16.5393 12.9246C16.6789 13.2547 16.4372 13.6208 16.0787 13.6208ZM4.86851 3.0701H10.413C10.771 3.0701 11.0132 3.43614 10.8735 3.7663L8.10192 10.3176C7.92979 10.725 7.35338 10.725 7.18083 10.3176L4.40838 3.7663C4.26876 3.43614 4.5105 3.0701 4.86893 3.0701H4.86851ZM10.5343 16.4565H16.0787C16.4368 16.4565 16.6789 16.8226 16.5393 17.1527L13.7668 23.704C13.5943 24.1114 13.0183 24.1114 12.8458 23.704L10.0737 17.1527C9.9341 16.8226 10.1758 16.4565 10.5343 16.4565ZM24.2327 23.704L21.4598 17.1527C21.3202 16.8226 21.5619 16.4565 21.9204 16.4565H27.4653C27.8233 16.4565 28.0654 16.8226 27.9258 17.1527L25.1538 23.704C24.9817 24.1114 24.4052 24.1114 24.2327 23.704ZM21.4603 12.9246L24.2327 6.37413C24.4052 5.96676 24.9812 5.96676 25.1538 6.37413L27.9258 12.9246C28.0654 13.2547 27.8237 13.6208 27.4653 13.6208H21.9208C21.5628 13.6208 21.3206 13.2547 21.4603 12.9246ZM27.5866 3.0701H33.131C33.489 3.0701 33.7312 3.43614 33.5916 3.7663L30.8187 10.3176C30.6462 10.725 30.0702 10.725 29.8976 10.3176L27.126 3.7663C26.9864 3.43614 27.2285 3.0701 27.5866 3.0701Z" fill="white"/>
</svg>
