<svg width="40" height="40" viewBox="0 0 40 40" fill="none" xmlns="http://www.w3.org/2000/svg">
<path d="M24.6271 5.5399L20.4597 15.3852C20.2871 15.7926 19.7111 15.7926 19.5386 15.3852L15.3728 5.5399C15.2945 5.35458 15.1132 5.23438 14.9123 5.23438H1.5944C1.23638 5.23438 0.994229 5.60042 1.13385 5.93058L13.2393 34.5382C13.3177 34.7235 13.499 34.8438 13.6999 34.8438H26.2997C26.5006 34.8438 26.6819 34.7235 26.7602 34.5382L38.8661 5.93058C39.0057 5.60042 38.764 5.23438 38.4056 5.23438H25.0877C24.8868 5.23438 24.7055 5.35458 24.6271 5.5399ZM16.7953 31.3122L19.5674 24.761C19.7395 24.3536 20.3159 24.3536 20.4884 24.761L23.2613 31.3122C23.4009 31.6424 23.1592 32.0084 22.8008 32.0084H17.2559C16.8979 32.0084 16.6557 31.6424 16.7953 31.3122ZM17.0787 18.6208H11.5343C11.1763 18.6208 10.9341 18.2547 11.0737 17.9246L13.8458 11.3741C14.0179 10.9668 14.5943 10.9668 14.7668 11.3741L17.5393 17.9246C17.6789 18.2547 17.4372 18.6208 17.0787 18.6208ZM5.86851 8.0701H11.413C11.771 8.0701 12.0132 8.43614 11.8735 8.7663L9.10192 15.3176C8.92979 15.725 8.35338 15.725 8.18083 15.3176L5.40838 8.7663C5.26876 8.43614 5.5105 8.0701 5.86893 8.0701H5.86851ZM11.5343 21.4565H17.0787C17.4368 21.4565 17.6789 21.8226 17.5393 22.1527L14.7668 28.704C14.5943 29.1114 14.0183 29.1114 13.8458 28.704L11.0737 22.1527C10.9341 21.8226 11.1758 21.4565 11.5343 21.4565ZM25.2327 28.704L22.4598 22.1527C22.3202 21.8226 22.5619 21.4565 22.9204 21.4565H28.4653C28.8233 21.4565 29.0654 21.8226 28.9258 22.1527L26.1538 28.704C25.9817 29.1114 25.4052 29.1114 25.2327 28.704ZM22.4603 17.9246L25.2327 11.3741C25.4052 10.9668 25.9812 10.9668 26.1538 11.3741L28.9258 17.9246C29.0654 18.2547 28.8237 18.6208 28.4653 18.6208H22.9208C22.5628 18.6208 22.3206 18.2547 22.4603 17.9246ZM28.5866 8.0701H34.131C34.489 8.0701 34.7312 8.43614 34.5916 8.7663L31.8187 15.3176C31.6462 15.725 31.0702 15.725 30.8976 15.3176L28.126 8.7663C27.9864 8.43614 28.2285 8.0701 28.5866 8.0701Z" fill="black"/>
</svg>
