<svg width="89" height="24" viewBox="0 0 89 24" fill="none" xmlns="http://www.w3.org/2000/svg">
<path d="M50.5983 21.0435V13.3505L44.1353 2.95654H46.7639L52.4794 12.2171L58.0502 2.95654H59.1113L52.8652 13.3023V21.0435H50.5983Z" fill="#49090E"/>
<path d="M33.5846 2.95654H34.5492L41.3499 21.0435H38.9142L36.6232 14.8457H29.9913L27.652 21.0435H26.6392L33.5846 2.95654ZM30.3048 13.9775H36.2855L33.3193 5.97104L30.3048 13.9775Z" fill="#49090E"/>
<path d="M23.8577 2.95654L17.7082 21.0435H16.7676L11.9686 6.59805L7.1936 21.0435H6.25308L0.103516 2.95654H2.56334L7.45888 17.4985L12.2338 2.95654H13.2467L17.9975 17.5467L22.9172 2.95654H23.8577Z" fill="#49090E"/>
<path d="M74.1755 23.876C74.1377 23.876 74.0995 23.8712 74.0616 23.8614C73.8532 23.8079 73.7105 23.6163 73.7188 23.4015C73.7563 22.4353 73.6591 21.7512 73.5036 21.1706C73.1899 21.5705 72.8721 21.9466 72.5807 22.2915C72.121 22.8357 71.7239 23.3056 71.5244 23.6487C71.4256 23.8186 71.2294 23.9061 71.037 23.8664C70.8446 23.8269 70.6991 23.6686 70.6757 23.4736C70.5327 22.283 69.6482 21.284 68.6239 20.1273C67.9411 19.356 67.1671 18.482 66.5337 17.4415C65.8 16.2365 65.3633 14.9874 65.1985 13.623C64.7787 10.1476 66.1327 5.80581 69.338 0.349588C69.4343 0.185586 69.6222 0.0984271 69.8097 0.130796C69.9972 0.16318 70.145 0.308313 70.1807 0.495123C70.5942 2.65725 71.1236 6.27375 71.3696 9.93971C71.3997 10.388 71.427 10.8618 71.4489 11.3503C72.0231 11.1246 72.6775 10.938 73.4116 10.7909C75.2093 10.4305 77.271 10.332 79.2326 10.5022C78.5502 9.85468 77.4767 9.1938 75.6865 8.62926C75.6837 8.62836 75.6808 8.62744 75.678 8.6265C75.395 8.5311 74.806 8.33263 74.8096 7.83204C74.8128 7.37827 75.3126 7.17008 75.5528 7.07006C75.8629 6.94088 76.2937 6.80253 76.7925 6.64237C78.7241 6.02205 81.957 4.98383 83.5201 2.72654C83.6157 2.58865 83.7793 2.5141 83.9457 2.5325C84.1125 2.55081 84.2557 2.65897 84.319 2.81426C84.5925 3.48569 84.8945 4.40129 84.8445 5.43547C84.9821 5.12418 85.0892 4.74412 85.1946 4.33597C85.2921 3.95848 85.3763 3.63247 85.5096 3.39937C85.5782 3.27917 85.6978 3.19659 85.8345 3.17488C85.9715 3.15317 86.1107 3.19468 86.2131 3.28768C86.7342 3.76008 87.2935 4.67848 87.7476 5.80742C88.1278 6.75242 88.6197 8.31016 88.8033 10.3645C89.0786 13.4421 88.703 18.247 85.3504 23.6596C85.2467 23.8272 85.0471 23.9093 84.8554 23.8634C84.6637 23.8173 84.5232 23.6537 84.5067 23.4573C84.4198 22.422 83.9897 21.7131 83.4588 21.0623C83.1417 21.9987 82.7297 22.9287 82.311 23.6487C82.2072 23.8272 81.9966 23.9139 81.797 23.8602C81.5976 23.8065 81.4591 23.6257 81.4591 23.4192C81.4591 22.7074 81.1915 21.725 80.7774 20.9169C80.296 19.9773 79.6807 19.3769 79.045 19.2266C77.7441 18.9191 76.1599 20.4805 74.5839 23.6237C74.505 23.7811 74.3451 23.876 74.1755 23.876ZM69.5048 1.89735C63.4043 12.8537 66.6688 16.5409 69.3082 19.5218C70.132 20.4522 70.921 21.3432 71.3267 22.3686C71.4957 22.1598 71.6836 21.9375 71.8826 21.702C72.2818 21.2294 72.7347 20.6934 73.1494 20.1255C73.1436 20.1102 73.1377 20.0948 73.1318 20.0796C72.8231 19.2706 72.5038 18.4341 72.5038 17.0245C72.5038 16.3086 72.6204 15.7291 72.8504 15.302C73.0979 14.8424 73.4819 14.5788 73.9039 14.5788C74.3327 14.5788 74.7355 14.8493 75.0089 15.321C75.2631 15.7598 75.3975 16.3488 75.3975 17.0245C75.3975 18.1369 74.8582 19.2476 74.1737 20.2581C74.33 20.6968 74.4722 21.1731 74.5575 21.7645C75.2438 20.6154 75.933 19.7446 76.6151 19.1664C77.5044 18.4125 78.3927 18.1337 79.2554 18.3377C80.4095 18.6107 81.1624 19.6645 81.5907 20.5006C81.8222 20.9522 82.0117 21.4448 82.1461 21.9299C82.3591 21.4364 82.573 20.868 82.7565 20.2552C82.0108 19.4096 81.2953 18.4983 81.2953 17.0245C81.2953 16.3086 81.4119 15.7291 81.6419 15.302C81.8894 14.8424 82.2734 14.5788 82.6954 14.5788C83.1243 14.5788 83.527 14.8493 83.8003 15.321C84.0547 15.7598 84.1891 16.3488 84.1891 17.0245C84.1891 17.9623 84.0489 18.9677 83.7715 20.0225C84.2975 20.6183 84.8447 21.2821 85.1624 22.1791C87.8378 17.3932 88.1391 13.1953 87.8931 10.4458C87.6434 7.65152 86.7851 5.59551 86.0827 4.55141C86.0816 4.55573 86.0805 4.56004 86.0795 4.56435C85.8402 5.49078 85.4786 6.89082 84.2055 7.1206C84.0432 7.14993 83.8778 7.08949 83.7725 6.96258C83.6674 6.83566 83.6387 6.66192 83.6975 6.50794C84.0581 5.56547 83.9613 4.67492 83.7408 3.91627C81.9034 5.96065 78.9227 6.91778 77.0719 7.51213C76.7687 7.60951 76.4263 7.71944 76.1507 7.81888C77.8147 8.36385 79.0498 9.04306 79.9222 9.89223C80.1904 10.1532 80.406 10.4135 80.5835 10.6652C81.5505 10.8161 82.4016 11.0277 83.0484 11.2782C83.8416 11.5853 84.2747 11.9324 84.3716 12.3393C84.4431 12.6382 84.3273 12.9354 84.0542 13.1544C83.8601 13.3102 83.5791 13.4376 83.1956 13.544C82.3015 13.792 81.7309 13.7846 81.2876 13.5193C80.8598 13.2632 80.6709 12.8352 80.4521 12.3397C80.3418 12.0897 80.2177 11.8086 80.0399 11.5096C78.7185 11.3338 76.2583 11.152 73.5912 11.6866C72.7719 11.8508 72.0689 12.0633 71.4842 12.3229C71.5495 14.7147 71.455 16.3074 70.9216 17.9992C70.8718 18.1571 70.7404 18.2757 70.5781 18.3092C70.4159 18.3427 70.2483 18.2858 70.14 18.1605C70.0428 18.0477 67.7682 16.3648 68.6077 13.9172C68.9079 13.042 69.5586 12.3246 70.5519 11.7704C70.4268 8.46773 69.9969 4.79401 69.5048 1.89735ZM73.9039 15.4923C73.8321 15.4923 73.7344 15.5876 73.655 15.735C73.5019 16.0193 73.4176 16.4773 73.4176 17.0245C73.4176 17.9566 73.5732 18.5963 73.7744 19.1813C74.1932 18.4648 74.4837 17.7273 74.4837 17.0245C74.4837 15.9332 74.0745 15.4923 73.9039 15.4923ZM82.6954 15.4923C82.6236 15.4923 82.5259 15.5876 82.4465 15.735C82.2934 16.0193 82.2091 16.4773 82.2091 17.0245C82.2091 17.9295 82.5551 18.5639 83.0348 19.1694C83.1824 18.473 83.2753 17.7455 83.2753 17.0245C83.2753 15.9332 82.866 15.4923 82.6954 15.4923ZM70.5814 12.8254C70.0268 13.2161 69.6561 13.6787 69.4729 14.2112C69.0368 15.4784 69.7327 15.9325 70.2792 16.7948C70.5312 15.4785 70.6149 14.7346 70.5814 12.8254ZM81.1656 11.697C81.2096 11.7928 81.2499 11.8843 81.2881 11.9709C81.4504 12.3384 81.5785 12.6287 81.757 12.7355C81.9563 12.8548 82.3471 12.8313 82.9513 12.6637C83.1904 12.5974 83.3305 12.5346 83.4095 12.4898C83.2916 12.3944 83.036 12.24 82.5538 12.0691C82.1587 11.9291 81.6886 11.8034 81.1656 11.697Z" fill="#49090E"/>
<path d="M69.231 0.286833C69.3535 0.0782748 69.5924 -0.0326596 69.8308 0.00849069L69.875 0.017838C70.0922 0.0729167 70.2599 0.24916 70.3025 0.471875C70.7168 2.63848 71.2471 6.25994 71.4934 9.93136C71.52 10.3279 71.5441 10.7444 71.5646 11.1733C72.1069 10.9721 72.7147 10.8041 73.3871 10.6693C75.0844 10.3291 77.0131 10.2209 78.8726 10.3497C78.2007 9.79589 77.1998 9.23651 75.6492 8.74754L75.6486 8.74736C75.6456 8.74637 75.6422 8.74538 75.6388 8.74425L75.6384 8.74407C75.4987 8.69699 75.2647 8.61884 75.0663 8.48373C74.8662 8.34736 74.6833 8.13913 74.6855 7.83115C74.6875 7.5523 74.8439 7.35492 75.016 7.22063C75.1863 7.08766 75.3863 7.00487 75.505 6.95545C75.8211 6.82379 76.2578 6.68377 76.7546 6.52426C77.7211 6.21387 79.0037 5.80175 80.2392 5.18725C81.4755 4.57234 82.6536 3.75998 83.4182 2.65586L83.4419 2.62401C83.5656 2.46924 83.7607 2.38725 83.9593 2.40919L83.9986 2.4149C84.1936 2.44991 84.3585 2.58238 84.4339 2.76751C84.6482 3.29363 84.8829 3.97555 84.953 4.75104C84.9944 4.60886 85.0346 4.45964 85.0745 4.30497C85.1705 3.93354 85.2585 3.58867 85.4019 3.33786L85.419 3.30982C85.5083 3.17217 85.6522 3.07831 85.8151 3.05243L85.8478 3.0481C86.0111 3.03161 86.1743 3.08487 86.2965 3.19575L86.3473 3.24318C86.8736 3.74578 87.4202 4.66123 87.8626 5.76107C88.2466 6.71539 88.742 8.28504 88.9269 10.3534C89.1998 13.4049 88.8365 18.1354 85.6117 23.4704L85.4559 23.7249C85.324 23.9381 85.0702 24.0423 84.8265 23.984C84.5829 23.9254 84.404 23.7174 84.383 23.4676C84.3067 22.5576 83.957 21.9085 83.5016 21.3167C83.1936 22.1861 82.8097 23.0381 82.4182 23.7112C82.2944 23.924 82.0514 24.034 81.8125 23.9908L81.7647 23.98C81.5112 23.9117 81.3349 23.6818 81.3349 23.4192C81.3349 22.7317 81.0744 21.7687 80.6669 20.9735C80.192 20.0466 79.5998 19.4853 79.0165 19.3474C78.4287 19.2085 77.7496 19.4853 77.0047 20.2195C76.3092 20.905 75.5777 21.9697 74.842 23.3904L74.6947 23.6793C74.5944 23.8796 74.391 24.0001 74.1754 24.0001C74.1392 24.0001 74.1028 23.9966 74.0667 23.9897L74.0307 23.9816C73.7658 23.9135 73.5842 23.6699 73.5948 23.3967C73.6267 22.5746 73.5597 21.9625 73.4434 21.4457C73.1802 21.7738 72.9182 22.0843 72.6755 22.3716C72.2122 22.92 71.8243 23.3798 71.6316 23.7112C71.5059 23.9271 71.2564 24.0384 71.0119 23.988C70.7672 23.9376 70.5822 23.7363 70.5525 23.4884C70.4842 22.9198 70.2384 22.3911 69.8775 21.8571C69.5159 21.322 69.0445 20.7895 68.531 20.2096C67.849 19.4393 67.0677 18.5574 66.4277 17.5061C65.6851 16.2864 65.2423 15.0204 65.0753 13.6379C64.6505 10.1211 66.0218 5.74981 69.231 0.286833ZM75.2734 17.0244C75.2734 16.3636 75.1418 15.7978 74.9016 15.3833C74.6434 14.9378 74.2761 14.7028 73.9038 14.7028C73.539 14.7028 73.1914 14.9301 72.9596 15.3608C72.7429 15.7632 72.6279 16.3201 72.6279 17.0244C72.6279 18.4107 72.9404 19.23 73.2476 20.0349C73.2506 20.0427 73.2537 20.0507 73.2566 20.0583C73.2595 20.066 73.2624 20.0735 73.2653 20.081L73.2895 20.144L73.2497 20.1987C72.832 20.7707 72.3763 21.3099 71.9774 21.782C71.7782 22.0179 71.5912 22.2391 71.4231 22.4467L71.2895 22.6119L71.2113 22.4143C70.8151 21.4131 70.0427 20.5385 69.2153 19.6041C67.8963 18.1145 66.3955 16.4226 66.0062 13.7181C65.6172 11.0156 66.34 7.32601 69.3963 1.83693L69.568 1.52881L69.6271 1.87657C70.1199 4.7776 70.5506 8.45675 70.6759 11.7657L70.6786 11.8417L70.6124 11.8787C69.6393 12.4216 69.0132 13.1175 68.7251 13.9575C67.9152 16.3188 70.1038 17.9285 70.234 18.0794C70.3128 18.1706 70.4348 18.212 70.553 18.1876C70.6712 18.1632 70.767 18.0769 70.8033 17.9619C71.3304 16.29 71.4253 14.7138 71.3601 12.3263L71.3579 12.2433L71.4339 12.2095C72.029 11.9453 72.7411 11.7304 73.5668 11.5649C76.0844 11.0602 78.4171 11.1897 79.7938 11.3535L80.0563 11.3866L80.1158 11.3946L80.1464 11.4461C80.3286 11.7524 80.4555 12.04 80.5657 12.2896C80.7876 12.7925 80.9631 13.1805 81.3514 13.4129C81.7494 13.6511 82.2771 13.67 83.1623 13.4245C83.5383 13.3202 83.8012 13.1985 83.9766 13.0577C84.2036 12.8756 84.2974 12.644 84.2601 12.4141L84.2509 12.3681C84.2107 12.1993 84.0987 12.0327 83.8935 11.8682C83.6876 11.7031 83.3939 11.545 83.0036 11.3939C82.3677 11.1477 81.5258 10.9378 80.5643 10.7877L80.5124 10.7797L80.4821 10.7366C80.3087 10.4908 80.098 10.2365 79.8357 9.98121C78.9815 9.14971 77.7654 8.47821 76.112 7.93674L75.7693 7.82457L76.1086 7.70219C76.3867 7.60186 76.7313 7.49126 77.034 7.39408C78.891 6.79772 81.8373 5.84853 83.6486 3.83327L83.7976 3.66744L83.8599 3.88157C84.085 4.6559 84.1868 5.57612 83.8134 6.5523C83.7705 6.66442 83.7915 6.79098 83.8681 6.88344L83.8829 6.90006C83.9598 6.98103 84.0726 7.01857 84.1834 6.99855C84.7719 6.89233 85.1541 6.51713 85.4221 6.0427C85.6922 5.5647 85.8389 4.99909 85.9593 4.53328C85.9602 4.52944 85.9613 4.52567 85.9622 4.52186L86.029 4.24957L86.1857 4.48222C86.9013 5.54601 87.7654 7.62265 88.0167 10.4347C88.2646 13.2051 87.9601 17.4287 85.2707 22.2397L85.1369 22.4789L85.0453 22.2205C84.7362 21.3476 84.2033 20.699 83.6785 20.1047L83.6345 20.055L83.6515 19.991C83.9266 18.9448 84.065 17.95 84.065 17.0244C84.065 16.4049 83.9493 15.8689 83.7368 15.4627L83.6931 15.3833C83.435 14.9378 83.0677 14.7028 82.6953 14.7028C82.3305 14.7028 81.983 14.9301 81.7511 15.3608C81.5344 15.7632 81.4194 16.3201 81.4194 17.0244C81.4194 18.4499 82.1072 19.3314 82.8495 20.1732L82.8951 20.2248L82.8753 20.2908C82.6903 20.9086 82.4746 21.4817 82.26 21.9792L82.1205 22.3024L82.0265 21.9631C81.8942 21.4857 81.7078 21.001 81.4803 20.5572C81.0551 19.7272 80.3245 18.7182 79.2269 18.4585C78.4141 18.2663 77.5648 18.5239 76.6952 19.261C76.0274 19.8271 75.3465 20.6856 74.6641 21.8282L74.4846 22.1286L74.4347 21.7822C74.3509 21.2014 74.2114 20.7335 74.0568 20.2998L74.0357 20.2406L74.071 20.1885C74.7513 19.1841 75.2734 18.099 75.2734 17.0244ZM74.3596 17.0244C74.3596 16.4937 74.26 16.1306 74.1468 15.9048C74.0901 15.7916 74.0311 15.7152 73.9817 15.6689C73.9415 15.6312 73.9155 15.6204 73.9068 15.6175C73.9015 15.6202 73.8888 15.6278 73.8689 15.6472C73.8368 15.6785 73.7997 15.7281 73.7643 15.7939C73.6255 16.0516 73.5417 16.4853 73.5417 17.0244C73.5417 17.8004 73.6512 18.3683 73.8048 18.8731C74.1419 18.2454 74.3596 17.6177 74.3596 17.0244ZM83.1513 17.0244C83.1512 16.4937 83.0516 16.1306 82.9383 15.9048C82.8816 15.7916 82.8227 15.7152 82.7732 15.6689C82.7329 15.6312 82.707 15.6204 82.6983 15.6175C82.693 15.6202 82.6805 15.6278 82.6605 15.6472C82.6285 15.6785 82.5912 15.7281 82.5558 15.7939C82.417 16.0516 82.3332 16.4853 82.3332 17.0244C82.3332 17.7859 82.587 18.3475 82.9672 18.8748C83.0818 18.2682 83.1513 17.6432 83.1513 17.0244ZM70.7055 12.8233C70.7392 14.7403 70.6547 15.4928 70.401 16.8181L70.3421 17.1258L70.1744 16.8612C70.0408 16.6504 69.8985 16.4653 69.7614 16.2792C69.6259 16.0952 69.4955 15.9104 69.3963 15.7099C69.193 15.2988 69.1273 14.8339 69.3555 14.1709C69.5489 13.609 69.9385 13.1264 70.5099 12.724L70.7013 12.5891L70.7055 12.8233ZM70.4605 13.0712C70.0301 13.4168 69.7418 13.8112 69.5902 14.2515C69.3823 14.8557 69.4465 15.2515 69.6188 15.5998C69.7074 15.779 69.8262 15.9487 69.9612 16.1319C70.0411 16.2405 70.1265 16.3544 70.2125 16.4753C70.4097 15.3963 70.4808 14.654 70.4605 13.0712ZM81.1902 11.5754C81.7174 11.6826 82.1934 11.8097 82.5953 11.9521C83.085 12.1257 83.3549 12.2859 83.4876 12.3933L83.629 12.5079L83.4706 12.5978C83.3805 12.6489 83.2304 12.7151 82.9844 12.7833C82.6782 12.8682 82.4201 12.9185 82.2098 12.9312C82.0022 12.9436 81.8246 12.9207 81.6932 12.842C81.5754 12.7714 81.4857 12.6484 81.4085 12.5121C81.3302 12.3737 81.255 12.2029 81.1746 12.021C81.1364 11.9344 81.0963 11.8437 81.0528 11.7489L80.9508 11.5268L81.1902 11.5754ZM81.4016 11.9208C81.4835 12.1063 81.5536 12.2645 81.6245 12.3899C81.6966 12.5172 81.7602 12.5928 81.8208 12.6291C81.8887 12.6697 82.0062 12.6948 82.1949 12.6834C82.3808 12.6723 82.6201 12.6268 82.9181 12.5441C83.013 12.5178 83.0908 12.492 83.1544 12.4685C83.0168 12.3896 82.8106 12.2917 82.5123 12.186C82.1844 12.0697 81.8021 11.9631 81.3786 11.8692C81.3863 11.8866 81.3941 11.9038 81.4016 11.9208ZM81.5832 23.4192C81.5832 23.5696 81.684 23.7013 81.8293 23.7404C81.9748 23.7796 82.1281 23.7164 82.2037 23.5864C82.6176 22.8748 83.0264 21.9525 83.3413 21.0225L83.4132 20.8101L83.5549 20.9839C84.0943 21.6452 84.5406 22.3772 84.6304 23.4469C84.6424 23.5899 84.7447 23.7091 84.8843 23.7427C85.0241 23.7762 85.1694 23.7164 85.2449 23.5944C88.5811 18.2081 88.9529 13.4307 88.6797 10.3755C88.4973 8.33523 88.0089 6.78935 87.6324 5.85368C87.195 4.76627 86.6646 3.88959 86.1768 3.42338L86.1298 3.37958C86.0552 3.31192 85.9539 3.28157 85.854 3.29736C85.7544 3.31318 85.6673 3.37349 85.6174 3.46094C85.4942 3.67632 85.4138 3.98344 85.3148 4.36693C85.2094 4.77481 85.1002 5.16406 84.9581 5.48567L84.7206 5.42941C84.7692 4.42218 84.4751 3.52664 84.204 2.86115C84.1608 2.75512 84.0665 2.67923 83.9548 2.65915L83.9321 2.65586C83.811 2.64247 83.6917 2.69679 83.6221 2.79728L83.6219 2.79711C82.8234 3.95025 81.6034 4.78591 80.3497 5.40951C79.0951 6.03349 77.7954 6.45063 76.8304 6.76054C76.3296 6.92136 75.9047 7.05793 75.6005 7.18463C75.479 7.23524 75.309 7.30669 75.1686 7.41624C75.03 7.52448 74.9348 7.658 74.9336 7.83288C74.9322 8.02547 75.042 8.16675 75.2062 8.27861C75.3721 8.39162 75.5739 8.46052 75.7172 8.50883L75.7238 8.51091C77.5267 9.07944 78.6184 9.74837 79.318 10.4122L79.5754 10.6565L79.2219 10.6258C77.3319 10.4618 75.3491 10.5488 73.604 10.8798L73.4359 10.9125C72.7076 11.0585 72.0604 11.2433 71.4943 11.4657L71.3328 11.5292L71.325 11.3558C71.3031 10.8683 71.2759 10.3955 71.2459 9.94797C71.0156 6.51635 70.5365 3.12777 70.1375 0.93976L70.0588 0.518439C70.0328 0.382399 69.9252 0.276672 69.7886 0.253079C69.6519 0.229502 69.5151 0.293064 69.445 0.412502C66.2437 5.8619 64.9068 10.174 65.3216 13.6081C65.4842 14.9545 65.9149 16.1867 66.6396 17.377C67.2664 18.4066 68.0331 19.2729 68.7168 20.045C69.2275 20.6218 69.7106 21.1671 70.083 21.7183C70.4563 22.2707 70.7243 22.8369 70.799 23.4588C70.816 23.6009 70.922 23.7162 71.0621 23.745C71.2023 23.7739 71.3452 23.71 71.4171 23.5864C71.6235 23.2314 72.0298 22.7514 72.486 22.2115C72.7775 21.8663 73.0939 21.4918 73.406 21.094L73.5592 20.8987L73.6234 21.1384C73.7823 21.7319 73.8807 22.4285 73.8427 23.4064C73.8367 23.5627 73.9407 23.7023 74.0925 23.7413C74.1204 23.7485 74.1482 23.7519 74.1754 23.7519C74.299 23.7519 74.4156 23.6828 74.473 23.5682C75.2638 21.991 76.0611 20.8011 76.8306 20.0427C77.597 19.2874 78.3604 18.9373 79.0736 19.1059L79.138 19.1225C79.8013 19.3088 80.4151 19.9377 80.8878 20.8603C81.3084 21.6812 81.5831 22.683 81.5832 23.4192ZM74.6078 17.0244C74.6078 17.7594 74.3048 18.5198 73.8815 19.2439L73.7449 19.4774L73.657 19.2215C73.4522 18.6262 73.2935 17.9728 73.2935 17.0244C73.2935 16.4692 73.3783 15.987 73.5457 15.6761C73.5897 15.5945 73.641 15.5227 73.6956 15.4695C73.7453 15.421 73.818 15.3682 73.9038 15.3682C73.9934 15.3682 74.0804 15.4214 74.1512 15.4876C74.2264 15.5581 74.3019 15.6601 74.3688 15.7935C74.5028 16.0609 74.6078 16.4639 74.6078 17.0244ZM83.3993 17.0244C83.3993 17.7558 83.3051 18.4921 83.1561 19.1951L83.1014 19.4533L82.9375 19.2465C82.448 18.6286 82.085 17.9676 82.085 17.0244C82.085 16.4692 82.1699 15.987 82.3373 15.6761C82.3813 15.5945 82.4327 15.5229 82.4872 15.4696C82.537 15.4212 82.6095 15.3682 82.6953 15.3682C82.7849 15.3682 82.872 15.4214 82.9428 15.4876C83.0181 15.5581 83.0934 15.6601 83.1603 15.7935C83.2943 16.0609 83.3993 16.4639 83.3993 17.0244ZM84.3131 17.0244C84.3131 17.9554 84.1764 18.9498 83.9077 19.9901C84.3728 20.5192 84.8587 21.1148 85.182 21.8862C87.6441 17.3701 87.9894 13.4008 87.7908 10.7169L87.7695 10.4569C87.5392 7.88029 86.7882 5.94212 86.1304 4.85767C86.02 5.26951 85.8746 5.74622 85.6382 6.16473C85.3564 6.66331 84.9391 7.09156 84.2909 7.23015L84.2276 7.24279C84.0211 7.28008 83.8108 7.20314 83.677 7.04182C83.5434 6.88049 83.5068 6.65947 83.5816 6.46368C83.8963 5.64091 83.8503 4.85741 83.6787 4.1651C81.8065 6.12447 78.9043 7.05408 77.1098 7.63036C76.9234 7.6902 76.7235 7.75455 76.5337 7.818C78.0372 8.34637 79.1804 8.99691 80.0088 9.80326C80.2676 10.0551 80.4783 10.3067 80.654 10.5509C81.6054 10.7021 82.4472 10.9123 83.0933 11.1624C83.4962 11.3184 83.8156 11.4875 84.0488 11.6745C84.2826 11.8619 84.4355 12.0724 84.4922 12.3104C84.5766 12.6637 84.4359 13.0073 84.1319 13.2512C83.9191 13.4219 83.6198 13.555 83.2286 13.6635C82.3259 13.9139 81.7124 13.9181 81.224 13.6258C80.7566 13.3461 80.5541 12.878 80.3386 12.3897C80.2347 12.1543 80.1207 11.8975 79.9631 11.625C78.6356 11.4528 76.2244 11.2853 73.6156 11.8083C72.8381 11.9641 72.1694 12.1632 71.6101 12.4034C71.671 14.7535 71.5733 16.345 71.0399 18.0365C70.9766 18.2374 70.8094 18.3881 70.6032 18.4307C70.3969 18.4732 70.1838 18.401 70.0461 18.2416L70.046 18.2415C70.0447 18.2404 70.0369 18.233 70.0157 18.2145C69.9953 18.1966 69.9644 18.1697 69.9298 18.1392C69.8589 18.0766 69.7632 17.9905 69.6541 17.8823C69.436 17.6662 69.1625 17.3617 68.9182 16.9815C68.4293 16.2203 68.0545 15.1478 68.4903 13.877C68.7957 12.9865 69.4483 12.2604 70.4247 11.6999C70.3015 8.5555 69.9036 5.08182 69.4408 2.27002C66.5428 7.56386 65.8811 11.1076 66.2518 13.6827C66.6295 16.3061 68.0806 17.9482 69.401 19.4395C70.1707 20.3088 70.9275 21.1616 71.361 22.1306C71.4951 21.9682 71.6386 21.7984 71.7877 21.6219C72.1745 21.1641 72.6082 20.6499 73.0091 20.1061C72.7009 19.2985 72.3797 18.4468 72.3797 17.0244C72.3797 16.2971 72.4979 15.695 72.7411 15.2432C73.0041 14.7547 73.4246 14.4548 73.9038 14.4548C74.3893 14.4548 74.8276 14.7608 75.1162 15.2588C75.3844 15.7217 75.5216 16.334 75.5216 17.0244C75.5216 18.1551 74.9833 19.272 74.3109 20.2754C74.4311 20.6182 74.5426 20.9869 74.6248 21.4163C75.2581 20.3995 75.8968 19.6126 76.5347 19.0718C77.4438 18.3013 78.3715 18.0012 79.2841 18.2171C80.4946 18.5034 81.2698 19.6018 81.7012 20.444C81.8836 20.7998 82.0398 21.1804 82.1646 21.5629C82.3232 21.1711 82.4785 20.7407 82.6174 20.2847C81.8843 19.4488 81.1712 18.5153 81.1712 17.0244C81.1712 16.2971 81.2894 15.695 81.5326 15.2432C81.7957 14.7547 82.2162 14.4548 82.6953 14.4548C83.1808 14.4548 83.6191 14.7608 83.9077 15.2588C84.1761 15.7217 84.3131 16.334 84.3131 17.0244Z" fill="#49090E"/>
</svg>
