<svg width="296" height="80" viewBox="0 0 296 80" fill="none" xmlns="http://www.w3.org/2000/svg">
<path d="M168.66 70.1449V44.5016L147.116 9.85507H155.878L174.93 40.7235L193.499 9.85507H197.036L176.216 44.3409V70.1449H168.66Z" fill="white"/>
<path d="M111.956 9.85507H115.172L137.841 70.1449H129.722L122.085 49.4856H99.9788L92.1813 70.1449H88.8051L111.956 9.85507ZM101.024 46.5917H120.96L111.072 19.9034L101.024 46.5917Z" fill="white"/>
<path d="M79.5297 9.85507L59.0311 70.1449H55.8961L39.8992 21.9934L23.9826 70.1449H20.8476L0.349007 9.85507H8.54843L24.8669 58.3281L40.7834 9.85507H44.1596L59.9958 58.4889L76.3946 9.85507H79.5297Z" fill="white"/>
<path d="M245.631 79.4203C245.506 79.4203 245.379 79.4047 245.253 79.3723C244.562 79.1945 244.088 78.5585 244.116 77.8452C244.24 74.638 243.917 72.3674 243.401 70.4401C242.36 71.7672 241.305 73.0159 240.338 74.1607C238.812 75.967 237.494 77.5269 236.832 78.666C236.504 79.2296 235.853 79.5205 235.214 79.3888C234.575 79.257 234.092 78.7319 234.015 78.0847C233.54 74.1325 230.604 70.8166 227.204 66.9769C224.937 64.4171 222.368 61.5156 220.266 58.0621C217.831 54.0622 216.381 49.9162 215.834 45.3873C214.44 33.8511 218.935 19.4392 229.574 1.32815C229.894 0.78377 230.517 0.494456 231.14 0.601899C231.762 0.709393 232.253 1.19114 232.372 1.81122C233.744 8.98806 235.501 20.9925 236.318 33.161C236.418 34.6492 236.508 36.2216 236.581 37.8431C238.487 37.0943 240.659 36.4748 243.096 35.9864C249.063 34.7903 255.907 34.4631 262.418 35.0282C260.153 32.8788 256.589 30.6851 250.647 28.8112C250.638 28.8082 250.628 28.8052 250.619 28.802C249.679 28.4854 247.724 27.8266 247.736 26.1649C247.747 24.6587 249.406 23.9677 250.203 23.6357C251.233 23.2069 252.662 22.7477 254.318 22.2161C260.73 20.157 271.461 16.7108 276.65 9.21805C276.967 8.76039 277.51 8.51292 278.062 8.57398C278.616 8.63473 279.091 8.99378 279.301 9.50924C280.209 11.7379 281.212 14.7772 281.046 18.2099C281.502 17.1767 281.858 15.9151 282.208 14.5603C282.531 13.3073 282.811 12.2252 283.253 11.4514C283.481 11.0524 283.878 10.7783 284.332 10.7063C284.787 10.6342 285.248 10.772 285.589 11.0807C287.318 12.6487 289.174 15.6972 290.682 19.4446C291.944 22.5814 293.577 27.752 294.186 34.571C295.1 44.7867 293.853 60.7355 282.725 78.7021C282.381 79.2583 281.718 79.5311 281.082 79.3782C280.445 79.2257 279.979 78.6823 279.924 78.0305C279.636 74.5939 278.208 72.241 276.446 70.0805C275.393 73.1888 274.026 76.2761 272.636 78.666C272.291 79.2584 271.592 79.5461 270.93 79.3679C270.268 79.1894 269.808 78.5893 269.808 77.9039C269.808 75.541 268.92 72.2807 267.546 69.5982C265.947 66.4792 263.905 64.4867 261.795 63.9876C257.477 62.9666 252.218 68.1499 246.987 78.5833C246.725 79.1054 246.194 79.4203 245.631 79.4203ZM230.128 6.46571C209.878 42.8337 220.714 55.0727 229.475 64.9671C232.21 68.0553 234.829 71.0132 236.176 74.4171C236.736 73.724 237.36 72.9858 238.021 72.2041C239.346 70.6354 240.849 68.8562 242.226 66.9714C242.206 66.9205 242.187 66.8696 242.167 66.8186C241.142 64.1336 240.083 61.3572 240.083 56.6777C240.083 54.3016 240.47 52.378 241.233 50.9603C242.055 49.4347 243.329 48.5597 244.73 48.5597C246.153 48.5597 247.49 49.4577 248.398 51.0235C249.242 52.4798 249.688 54.435 249.688 56.6777C249.688 60.3704 247.898 64.0567 245.626 67.4112C246.144 68.8677 246.616 70.4484 246.9 72.412C249.178 68.5971 251.465 65.7069 253.729 63.7875C256.681 61.285 259.63 60.3594 262.494 61.0368C266.324 61.9428 268.823 65.4409 270.245 68.2158C271.014 69.7155 271.642 71.3505 272.089 72.9604C272.796 71.3226 273.506 69.436 274.115 67.4019C271.64 64.5946 269.265 61.5699 269.265 56.6777C269.265 54.3016 269.652 52.378 270.415 50.9603C271.237 49.4347 272.511 48.5597 273.912 48.5597C275.336 48.5597 276.673 49.4577 277.58 51.0235C278.424 52.4798 278.87 54.435 278.87 56.6777C278.87 59.7906 278.404 63.1281 277.484 66.6293C279.23 68.6065 281.046 70.8104 282.101 73.7879C290.981 57.9017 291.981 43.9673 291.165 34.841C290.336 25.5658 287.487 18.7412 285.156 15.2754C285.152 15.2898 285.148 15.3041 285.145 15.3184C284.35 18.3935 283.15 23.0407 278.925 23.8034C278.386 23.9008 277.837 23.7002 277.487 23.2789C277.138 22.8577 277.043 22.2809 277.238 21.7698C278.435 18.6414 278.114 15.6854 277.382 13.1672C271.283 19.9532 261.389 23.1302 255.246 25.1031C254.239 25.4263 253.103 25.7912 252.188 26.1213C257.711 27.9302 261.811 30.1847 264.707 33.0034C265.597 33.8697 266.313 34.7336 266.902 35.569C270.112 36.0702 272.937 36.7726 275.084 37.6039C277.717 38.6233 279.154 39.7754 279.476 41.126C279.713 42.1184 279.329 43.1047 278.422 43.8319C277.778 44.3488 276.846 44.7719 275.572 45.125C272.605 45.9481 270.71 45.9235 269.239 45.0429C267.819 44.193 267.192 42.7723 266.466 41.1273C266.1 40.2976 265.688 39.3645 265.097 38.3719C260.711 37.7885 252.545 37.185 243.692 38.9596C240.973 39.5047 238.639 40.2099 236.698 41.0716C236.915 49.0109 236.601 54.2975 234.831 59.9131C234.665 60.4374 234.229 60.8311 233.691 60.9422C233.152 61.0531 232.596 60.8642 232.236 60.4482C231.914 60.0745 224.364 54.4883 227.15 46.3639C228.147 43.4584 230.307 41.0773 233.603 39.2377C233.188 28.275 231.761 16.0807 230.128 6.46571ZM244.73 51.592C244.492 51.592 244.167 51.9082 243.904 52.3976C243.396 53.3413 243.116 54.8614 243.116 56.6777C243.116 59.7721 243.632 61.8956 244.3 63.8372C245.69 61.4589 246.655 59.0104 246.655 56.6777C246.655 53.0553 245.296 51.592 244.73 51.592ZM273.912 51.592C273.674 51.592 273.349 51.9082 273.086 52.3976C272.578 53.3413 272.298 54.8614 272.298 56.6777C272.298 59.682 273.446 61.7874 275.038 63.7976C275.529 61.4855 275.837 59.0711 275.837 56.6777C275.837 53.0553 274.478 51.592 273.912 51.592ZM233.701 42.7398C231.861 44.0365 230.63 45.5721 230.022 47.3395C228.574 51.5458 230.884 53.0532 232.698 55.9155C233.535 51.5462 233.813 49.0769 233.701 42.7398ZM268.834 38.9941C268.98 39.312 269.114 39.6159 269.241 39.9031C269.779 41.123 270.205 42.0866 270.797 42.4412C271.459 42.8373 272.756 42.7593 274.761 42.203C275.555 41.9828 276.02 41.7745 276.282 41.6256C275.891 41.3089 275.043 40.7966 273.442 40.2292C272.131 39.7644 270.57 39.3471 268.834 38.9941Z" fill="white" stroke="white" stroke-width="0.869565"/>
</svg>
