<svg width="615" height="87" viewBox="0 0 615 87" fill="none" xmlns="http://www.w3.org/2000/svg">
<path d="M449 43.6162V28.384H456.402C460.669 28.384 462.802 30.0559 462.802 33.3982C462.802 35.1047 462.254 36.3741 461.16 37.2051C460.065 38.0372 458.393 38.4534 456.147 38.4534H452.371V43.6162H449ZM456.126 35.7871C457.263 35.7871 458.095 35.5914 458.621 35.2001C459.147 34.8087 459.41 34.2007 459.41 33.3759C459.41 32.566 459.155 31.9753 458.642 31.6063C458.131 31.236 457.306 31.0515 456.168 31.0515H452.371V35.7871H456.126Z" fill="#1A1917"/>
<path d="M476.817 43.6161L475.302 40.1597H467.622L466.128 43.6161H462.609L469.585 28.384H473.446L480.422 43.6161H476.817ZM471.462 31.3499L468.773 37.4513H474.149L471.462 31.3499Z" fill="#1A1917"/>
<path d="M494.719 43.6162L491.392 37.9209H486.933V43.6162H483.648V28.384H491.135C495.388 28.384 497.514 29.9704 497.514 33.1419C497.514 34.1661 497.276 35.0194 496.8 35.7017C496.323 36.3841 495.595 36.9178 494.613 37.3017L498.453 43.6162H494.719ZM490.88 35.2967C492.003 35.2967 492.832 35.1221 493.366 34.7741C493.898 34.4249 494.166 33.8738 494.166 33.1209C494.166 32.3668 493.913 31.8268 493.408 31.4986C492.902 31.1717 492.074 31.0082 490.922 31.0082H486.933V35.2967H490.88Z" fill="#1A1917"/>
<path d="M505.636 43.6162V31.2212H499.664V28.384H515.023V31.2212H509.05V43.6161L505.636 43.6162Z" fill="#1A1917"/>
<path d="M530.324 43.6162L521.514 32.9711V43.6162H518.25V28.384H521.364L530.175 39.0291V28.384H533.438V43.6161L530.324 43.6162Z" fill="#1A1917"/>
<path d="M538.258 43.6162V28.384H551.014V31.1791H541.671V34.379H550.567V37.174H541.671V40.8211H551.484L551.058 43.6161L538.258 43.6162Z" fill="#1A1917"/>
<path d="M566.454 43.6162L563.126 37.9209H558.668V43.6162H555.383V28.384H562.87C567.123 28.384 569.249 29.9704 569.249 33.1419C569.249 34.1661 569.011 35.0194 568.534 35.7017C568.058 36.3841 567.329 36.9178 566.347 37.3017L570.188 43.6162H566.454ZM562.615 35.2967C563.738 35.2967 564.567 35.1221 565.1 34.7741C565.633 34.4249 565.9 33.8738 565.9 33.1209C565.9 32.3668 565.648 31.8268 565.142 31.4986C564.637 31.1717 563.809 31.0082 562.657 31.0082H558.668V35.2967H562.615Z" fill="#1A1917"/>
<path d="M583.78 32.6724C583.482 31.9467 583.033 31.4241 582.435 31.1047C581.838 30.784 581.006 30.6242 579.94 30.6242C578.731 30.6242 577.806 30.7741 577.167 31.0725C576.527 31.371 576.206 31.8043 576.206 32.3741C576.206 32.914 576.402 33.3127 576.793 33.5678C577.185 33.8241 577.899 34.031 578.937 34.1871L582.074 34.6774C583.936 34.9759 585.301 35.4985 586.169 36.2452C587.036 36.992 587.471 38.0198 587.471 39.3276C587.471 40.8074 586.841 41.9554 585.582 42.774C584.324 43.5913 582.528 44 580.196 44C578.503 44 577.099 43.8007 575.982 43.4031C574.866 43.0043 574.013 42.4 573.422 41.5888C572.833 40.7789 572.48 39.7474 572.367 38.4966H575.801C575.944 39.4923 576.363 40.2204 577.059 40.6823C577.757 41.1454 578.802 41.3758 580.196 41.3758C581.447 41.3758 582.389 41.2087 583.022 40.8743C583.655 40.5411 583.972 40.0471 583.972 39.392C583.972 38.8657 583.761 38.4533 583.343 38.1548C582.923 37.8563 582.258 37.6434 581.348 37.5146L578.788 37.1518C576.711 36.8682 575.193 36.3517 574.233 35.6051C573.274 34.8595 572.793 33.8107 572.793 32.4595C572.793 31.5493 573.078 30.7593 573.646 30.0905C574.215 29.4229 575.045 28.9066 576.132 28.5449C577.22 28.1821 578.517 28 580.025 28C582.102 28 583.708 28.3456 584.846 29.0353C585.985 29.725 586.731 30.8086 587.087 32.2885L583.78 32.6724Z" fill="#1A1917"/>
<path d="M265.984 43.7452V28.5127H269.398V43.7452H265.984Z" fill="#1A1917"/>
<path d="M286.294 43.7452L277.483 33.0998V43.7452H274.219V28.5127H277.334L286.144 39.1581V28.5127H289.408V43.7452H286.294Z" fill="#1A1917"/>
<path d="M298.963 43.7452L292.414 28.5127H296.233L300.99 40.3741L305.769 28.5127H309.459L302.91 43.7452H298.963Z" fill="#1A1917"/>
<path d="M312.469 43.7452V28.5127H325.226V31.3077H315.882V34.5072H324.779V37.3023H315.882V40.9502H325.695L325.269 43.7453L312.469 43.7452Z" fill="#1A1917"/>
<path d="M339.945 32.8009C339.647 32.0756 339.198 31.5535 338.601 31.2335C338.004 30.9135 337.171 30.7536 336.105 30.7536C334.895 30.7536 333.971 30.9028 333.331 31.2011C332.691 31.4995 332.371 31.9339 332.371 32.5025C332.371 33.0429 332.567 33.4416 332.958 33.6969C333.349 33.9531 334.064 34.1594 335.102 34.3161L338.238 34.8068C340.101 35.1052 341.467 35.6282 342.335 36.3751C343.202 37.1211 343.636 38.1489 343.636 39.4577C343.636 40.9364 343.006 42.0852 341.748 42.9025C340.489 43.7207 338.693 44.1293 336.361 44.1293C334.668 44.1293 333.263 43.9303 332.148 43.5325C331.03 43.1338 330.177 42.5296 329.587 41.7189C328.997 40.9082 328.645 39.8771 328.531 38.6255H331.966C332.108 39.6211 332.527 40.3504 333.224 40.8122C333.921 41.2747 334.967 41.506 336.361 41.506C337.612 41.506 338.554 41.3385 339.187 41.0045C339.82 40.6704 340.137 40.1756 340.137 39.5216C340.137 38.9953 339.927 38.5825 339.507 38.2841C339.088 37.9856 338.423 37.7718 337.513 37.6442L334.953 37.2811C332.876 36.9968 331.358 36.4812 330.398 35.7344C329.438 34.9884 328.958 33.9391 328.958 32.588C328.958 31.6778 329.242 30.8887 329.811 30.2199C330.38 29.5518 331.208 29.0362 332.297 28.6731C333.384 28.3109 334.682 28.1294 336.19 28.1294C338.266 28.1294 339.874 28.4742 341.012 29.1639C342.149 29.8544 342.896 30.9385 343.251 32.4173L339.945 32.8009Z" fill="#1A1917"/>
<path d="M351.723 43.7452V31.35H345.75V28.5127H361.11V31.35H355.136V43.7452H351.723Z" fill="#1A1917"/>
<path d="M379.824 43.7452V33.3559L374.96 43.7452H372.336L367.472 33.4413V43.7452H364.336V28.5127H368.304L373.723 40.0757L379.12 28.5127H383.003V43.7452H379.824Z" fill="#1A1917"/>
<path d="M387.82 43.7452V28.5127H400.578V31.3077H391.234V34.5072H400.13V37.3023H391.234V40.9502H401.047L400.621 43.7453L387.82 43.7452Z" fill="#1A1917"/>
<path d="M417.028 43.7452L408.217 33.0998V43.7452H404.953V28.5127H408.068L416.878 39.1581V28.5127H420.143V43.7452H417.028Z" fill="#1A1917"/>
<path d="M429.332 43.7452V31.35H423.359V28.5127H438.719V31.35H432.746V43.7452H429.332Z" fill="#1A1917"/>
<path d="M46.2578 1.99976C48.2611 1.99976 48.8594 2.66756 49.0402 3.26576C49.4602 4.80696 49.6662 6.39856 49.6523 7.99586C48.9845 7.85676 49.1376 7.41156 48.915 7.03596C48.3277 5.66516 46.9698 4.78556 45.4787 4.81006H28.0329L27.7964 4.89356L27.5042 45.517L27.6572 56.7858C27.8659 58.177 28.2415 59.7491 29.7301 60.2082C30.2629 60.3176 30.7659 60.5407 31.2048 60.8621C31.2048 60.9456 31.0657 61.3073 30.7596 61.2377C26.4237 60.8343 22.0598 60.8343 17.7239 61.2377L17.6543 60.723C19.0955 60.4939 20.3945 59.7224 21.2854 58.5666C22.2592 56.9389 21.8836 54.9355 22.0367 53.1548L22.4123 22.089L22.621 21.936L22.3984 21.7691L22.5375 4.94926C17.3483 4.72666 12.3817 4.72666 7.1229 4.86576C4.5213 5.08836 1.5581 5.24136 0.6677 8.05166L0.153 8.20466L0 7.82906C0.6678 5.83946 1.3912 3.32146 3.2693 2.05536H46.2578" fill="#1A1917"/>
<path d="M87.6171 14.2406C87.3439 14.6569 86.7845 14.5919 86.4462 14.787C84.7809 15.5546 84.6379 17.298 84.6379 18.8852L84.3517 56.6797C84.4948 58.0588 84.4947 59.7241 86.0169 60.3486C86.4462 60.6348 87.1228 60.4917 87.2008 61.0381L87.0578 61.1812C83.8038 60.962 80.538 60.9837 77.2872 61.2462L77.209 61.038C78.3279 60.6347 79.8111 59.9972 79.9282 58.436C80.1158 57.7122 80.229 56.9711 80.2664 56.2243L80.3445 36.7091L79.9933 36.6441L53.2963 36.7091L53.0882 36.9173L52.958 57.4473C53.0343 58.7149 53.7368 59.8612 54.8316 60.5047C55.1699 60.6478 55.7943 60.3616 55.7943 60.7779L55.7162 60.921C52.7369 60.8429 49.5494 61.0511 46.4269 60.921L46.2188 60.7779C47.512 60.4789 48.5218 59.4691 48.8207 58.1759L48.9508 53.3231L49.0679 17.7663C49.088 16.8332 48.6807 15.942 47.962 15.3464C47.5763 14.919 47.0948 14.589 46.5569 14.3836C46.4788 14.0974 46.8301 14.2405 46.8952 14.0974C49.9153 14.509 52.9756 14.5352 56.0023 14.1755C55.3128 14.852 54.1418 15.0732 53.6475 16.036L53.3743 16.9467C53.0621 22.6321 53.0621 28.4477 53.0621 34.2762L54.3631 34.4193L80.2924 34.2111L80.3705 34.0029C80.2924 28.1743 80.9169 22.2938 80.2924 16.4522C80.0209 15.4693 79.2224 14.7208 78.2239 14.5137C78.0808 14.1754 78.497 14.1754 78.6922 14.0974C81.3476 14.3772 84.0251 14.3772 86.6804 14.0974C86.9536 14.1755 87.5 13.9022 87.6431 14.2405" fill="#1A1917"/>
<path d="M124.847 45.9426L124.717 46.0207H104.395V45.7345L105.566 43.0284L114.856 21.4836L114.999 21.3535L115.623 22.7846L124.847 45.9426ZM115.896 13.4172L115.506 14.3279L101.819 45.4742L97.1749 55.6481L95.5877 58.146C94.4385 59.4341 92.9848 60.4137 91.3594 60.9952C91.6977 61.5546 92.4653 60.9952 92.9597 61.0602C95.4717 60.8448 97.9986 60.8709 100.506 61.1383V61.0602C99.7652 60.2312 99.4357 59.1139 99.6079 58.0158C100.417 54.9077 101.533 51.8876 102.938 48.9998L103.212 48.5835L125.615 48.4404L126.084 48.5835C127.202 51.7059 128.79 54.6853 129.492 57.9378C129.434 59.1293 128.911 60.2505 128.035 61.0602L128.178 61.1383L131.782 60.9952C134.384 60.8521 136.843 61.2684 139.341 61.1383L139.198 60.6439C137.272 60.4576 135.601 59.2355 134.839 57.4564C128.664 42.9024 122.441 28.3093 116.17 13.6772L115.896 13.4172Z" fill="#1A1917"/>
<path d="M197.715 37.3391C194.43 37.1537 191.135 37.2494 187.867 37.6252L187.802 37.8984C187.724 44.7548 187.515 51.8973 187.932 58.8318L188.218 58.9619C192.928 58.6236 198.964 59.3132 203.83 58.3504C205.351 57.7909 206.577 56.6349 207.226 55.1499H207.499L207.642 55.2281C207.309 56.8591 206.772 58.4415 206.042 59.9377C205.566 60.6127 204.849 61.0787 204.038 61.2388C195.933 61.3168 188.855 60.7574 180.62 61.2388L180.477 60.8224C181.741 60.41 182.757 59.4565 183.248 58.2205L183.521 56.425L183.599 44.0005V20.0746C183.456 18.4093 183.599 16.1716 181.934 14.9486C181.648 14.5323 180.88 14.6624 180.88 13.9728H181.167C187.268 13.9728 193.019 13.9077 199.199 13.7646C199.615 13.8427 200.174 13.8427 200.5 14.1159C201.213 15.2312 201.597 16.5257 201.606 17.8498C201.332 18.071 201.189 17.7197 201.046 17.6546C200.227 16.0543 198.561 15.7161 196.896 15.7681L188.01 15.9763L187.815 16.0544C187.815 22.4944 187.607 28.8825 187.88 35.1925L188.153 35.2705C191.881 35.3363 195.609 35.1712 199.316 34.7761C200.397 34.4298 201.264 33.6115 201.671 32.5514L202.087 32.4865C201.914 34.8371 201.87 37.1955 201.957 39.5509H201.671C201.671 39.5509 202.23 37.6774 197.768 37.3392" fill="#1A1917"/>
<path d="M232.871 19.5385C234.952 22.791 234.952 28.2033 233.131 31.8721C230.984 36.6598 225.923 37.5055 221.149 37.1542C220.667 37.1542 219.965 37.3624 219.848 36.8029L219.679 15.5183C223.021 14.0722 226.865 14.3843 229.931 16.351C231.147 17.1844 232.168 18.272 232.923 19.5385M232.988 14.7507C226.886 11.6283 219.327 14.1262 212.328 13.5798L212.185 13.7229C212.608 13.9097 213.043 14.0705 213.486 14.2043C214.93 15.1075 215.761 16.7327 215.645 18.4326C215.645 32.1583 215.645 43.1519 215.58 56.9037C215.622 57.8746 215.328 58.8303 214.748 59.6098C213.928 60.3124 212.874 60.3124 211.977 60.7937V61.0669C215.58 61.0669 219.054 60.9238 222.515 61.145L222.723 60.9238C222.515 60.3123 221.617 60.5205 221.136 60.1692C220.169 59.3105 219.635 58.0659 219.679 56.7735C219.679 50.9449 219.679 44.8432 219.809 38.7544C222.414 38.8321 225.022 38.7365 227.615 38.4682C229.072 40.4067 230.464 42.3712 231.778 44.2187C235.941 49.5529 239.194 56.2141 245.296 59.7528C248.105 60.995 251.192 61.4752 254.247 61.1449L254.585 60.8587C254.103 60.1692 252.933 60.6505 252.23 60.3773C250.414 59.8257 248.767 58.8231 247.442 57.463C241.276 51.088 236.631 44.0235 231.986 36.933C234.507 35.3654 236.525 33.1078 237.802 30.4279C239.612 26.3792 239.194 21.681 236.696 18.0162C235.732 16.633 234.44 15.5109 232.936 14.7506L232.988 14.7507Z" fill="#1A1917"/>
<path d="M177.192 13.6362C174.22 13.9621 171.228 14.0535 168.241 13.9094C167.968 13.7663 167.968 14.0395 168.033 14.3257C168.941 15.2899 169.237 16.6791 168.801 17.9295C167.968 20.2063 166.784 22.2879 165.743 24.4346L151.94 51.2616L151.705 51.4958L138.929 22.4311C138.24 20.3495 136.926 18.3979 137.329 16.1212C137.68 15.0804 138.994 14.599 139.489 13.8314C135.656 14.1052 131.808 14.1052 127.975 13.8314V14.2477C130.408 14.3258 132.268 16.5375 132.893 18.6191L141.726 38.1343L149.337 56.0103L148.114 58.2481L135.765 79.5629C134.021 82.256 131.862 85.6517 128.414 85.9379C128.141 86.068 127.711 86.068 127.711 86.3542C130.268 86.6635 133.28 86.1354 135.304 84.5434C139.207 80.8615 150.066 60.0565 152.629 55.6851L169.542 23.589C171.416 20.3234 172.456 15.6788 176.685 14.5599C176.971 14.3647 177.517 14.4948 177.517 13.9484L177.179 13.6752" fill="#1A1917"/>
<g filter="url(#filter0_d_673_10)">
<path fill-rule="evenodd" clip-rule="evenodd" d="M587.578 14.0912C587.578 13.2482 588.333 12.78 589.105 12.5649L606.468 6.45949C607.438 6.00057 608.671 7.07912 608.249 8.24022L602.143 25.6036C601.892 26.339 601.46 27.1299 600.617 27.1299C599.774 27.1299 599.091 26.4466 599.091 25.6036V15.6175H589.105C588.262 15.6175 587.578 14.9342 587.578 14.0912Z" fill="#1A1917"/>
</g>
<defs>
<filter id="filter0_d_673_10" x="587.578" y="4.35132" width="22.7578" height="22.7786" filterUnits="userSpaceOnUse" color-interpolation-filters="sRGB">
<feFlood flood-opacity="0" result="BackgroundImageFix"/>
<feColorMatrix in="SourceAlpha" type="matrix" values="0 0 0 0 0 0 0 0 0 0 0 0 0 0 0 0 0 0 127 0" result="hardAlpha"/>
<feOffset dx="2" dy="-2"/>
<feComposite in2="hardAlpha" operator="out"/>
<feColorMatrix type="matrix" values="0 0 0 0 0 0 0 0 0 0 0 0 0 0 0 0 0 0 0.15 0"/>
<feBlend mode="normal" in2="BackgroundImageFix" result="effect1_dropShadow_673_10"/>
<feBlend mode="normal" in="SourceGraphic" in2="effect1_dropShadow_673_10" result="shape"/>
</filter>
</defs>
</svg>
