<svg width="490" height="103" viewBox="0 0 490 103" fill="none" xmlns="http://www.w3.org/2000/svg">
<path d="M268 76.3978V58.4524H276.72C281.748 58.4524 284.26 60.4221 284.26 64.3597C284.26 66.3702 283.615 67.8657 282.326 68.8447C281.036 69.825 279.066 70.3153 276.42 70.3153H271.971V76.3978H268ZM276.395 67.1741C277.734 67.1741 278.715 66.9436 279.335 66.4825C279.955 66.0215 280.264 65.3051 280.264 64.3334C280.264 63.3792 279.964 62.6833 279.36 62.2486C278.757 61.8124 277.785 61.595 276.445 61.595H271.971V67.1741H276.395Z" fill="black"/>
<path d="M300.774 76.3976L298.989 72.3256H289.941L288.182 76.3976H284.035L292.254 58.4524H296.803L305.021 76.3976H300.774ZM294.465 61.9465L291.298 69.1348H297.631L294.465 61.9465Z" fill="black"/>
<path d="M321.859 76.3978L317.939 69.688H312.687V76.3978H308.816V58.4524H317.637C322.647 58.4524 325.152 60.3214 325.152 64.0578C325.152 65.2643 324.872 66.2696 324.311 67.0736C323.749 67.8775 322.891 68.5063 321.734 68.9585L326.258 76.3978H321.859ZM317.337 66.5964C318.66 66.5964 319.636 66.3907 320.265 65.9807C320.892 65.5693 321.207 64.92 321.207 64.033C321.207 63.1445 320.91 62.5084 320.315 62.1218C319.719 61.7366 318.743 61.544 317.386 61.544H312.687V66.5964H317.337Z" fill="black"/>
<path d="M334.728 76.3978V61.7949H327.691V58.4524H345.787V61.7949H338.75V76.3976L334.728 76.3978Z" fill="black"/>
<path d="M363.807 76.3978L353.428 63.8566V76.3978H349.582V58.4524H353.251L363.632 70.9936V58.4524H367.476V76.3976L363.807 76.3978Z" fill="black"/>
<path d="M373.156 76.3978V58.4524H388.185V61.7453H377.177V65.5152H387.658V68.8081H377.177V73.1048H388.738L388.236 76.3976L373.156 76.3978Z" fill="black"/>
<path d="M406.379 76.3978L402.459 69.688H397.207V76.3978H393.336V58.4524H402.157C407.167 58.4524 409.672 60.3214 409.672 64.0578C409.672 65.2643 409.392 66.2696 408.83 67.0736C408.268 67.8775 407.411 68.5063 406.254 68.9585L410.778 76.3978H406.379ZM401.856 66.5964C403.179 66.5964 404.156 66.3907 404.784 65.9807C405.412 65.5693 405.727 64.92 405.727 64.033C405.727 63.1445 405.429 62.5084 404.834 62.1218C404.239 61.7366 403.263 61.544 401.906 61.544H397.207V66.5964H401.856Z" fill="black"/>
<path d="M426.788 63.5047C426.436 62.6497 425.908 62.034 425.203 61.6577C424.5 61.2799 423.52 61.0916 422.263 61.0916C420.839 61.0916 419.75 61.2682 418.997 61.6198C418.243 61.9714 417.865 62.4819 417.865 63.1532C417.865 63.7893 418.095 64.259 418.556 64.5596C419.017 64.8616 419.859 65.1052 421.082 65.2891L424.777 65.8669C426.972 66.2185 428.579 66.8342 429.602 67.7139C430.623 68.5937 431.135 69.8045 431.135 71.3453C431.135 73.0888 430.394 74.4413 428.91 75.4056C427.428 76.3685 425.313 76.85 422.565 76.85C420.571 76.85 418.916 76.6151 417.601 76.1468C416.286 75.6769 415.281 74.965 414.585 74.0093C413.89 73.0551 413.474 71.8399 413.342 70.3663H417.387C417.555 71.5393 418.05 72.3972 418.87 72.9413C419.691 73.4869 420.923 73.7584 422.565 73.7584C424.039 73.7584 425.149 73.5615 425.895 73.1675C426.64 72.775 427.014 72.193 427.014 71.4212C427.014 70.8012 426.766 70.3153 426.272 69.9636C425.778 69.612 424.994 69.3611 423.922 69.2093L420.906 68.7819C418.46 68.4479 416.671 67.8394 415.54 66.9597C414.41 66.0814 413.844 64.8457 413.844 63.2539C413.844 62.1815 414.179 61.2508 414.849 60.4628C415.519 59.6764 416.496 59.068 417.777 58.642C419.06 58.2145 420.587 58 422.364 58C424.811 58 426.703 58.4071 428.044 59.2197C429.385 60.0323 430.264 61.3089 430.683 63.0523L426.788 63.5047Z" fill="black"/>
<path d="M258 46.5405V28.5942H262.022V46.5405H258Z" fill="black"/>
<path d="M281.928 46.5405L271.547 33.9985V46.5405H267.701V28.5942H271.371L281.751 41.1362V28.5942H285.597V46.5405H281.928Z" fill="black"/>
<path d="M296.856 46.5405L289.141 28.5942H293.64L299.244 42.5688L304.875 28.5942H309.223L301.507 46.5405H296.856Z" fill="black"/>
<path d="M312.768 46.5405V28.5942H327.798V31.8872H316.789V35.6567H327.271V38.9497H316.789V43.2476H328.351L327.849 46.5406L312.768 46.5405Z" fill="black"/>
<path d="M345.141 33.6459C344.789 32.7914 344.261 32.1762 343.557 31.7992C342.854 31.4222 341.873 31.2338 340.616 31.2338C339.191 31.2338 338.103 31.4096 337.349 31.7611C336.595 32.1126 336.218 32.6244 336.218 33.2943C336.218 33.931 336.448 34.4007 336.909 34.7015C337.369 35.0033 338.212 35.2464 339.435 35.431L343.13 36.0091C345.324 36.3607 346.934 36.9769 347.956 37.8568C348.978 38.7357 349.489 39.9466 349.489 41.4886C349.489 43.2308 348.747 44.5843 347.265 45.5472C345.781 46.5111 343.666 46.9925 340.918 46.9925C338.924 46.9925 337.269 46.7581 335.954 46.2894C334.638 45.8197 333.633 45.1078 332.937 44.1527C332.242 43.1976 331.827 41.9828 331.693 40.5082H335.74C335.907 41.6811 336.401 42.5404 337.223 43.0844C338.044 43.6293 339.275 43.9018 340.918 43.9018C342.393 43.9018 343.502 43.7045 344.248 43.311C344.993 42.9174 345.367 42.3344 345.367 41.5639C345.367 40.9438 345.119 40.4575 344.625 40.1059C344.131 39.7543 343.348 39.5024 342.275 39.352L339.259 38.9243C336.812 38.5893 335.023 37.9819 333.893 37.102C332.762 36.2231 332.196 34.9868 332.196 33.395C332.196 32.3227 332.531 31.393 333.201 30.605C333.871 29.8179 334.848 29.2105 336.13 28.7827C337.411 28.3559 338.94 28.1421 340.717 28.1421C343.163 28.1421 345.057 28.5483 346.397 29.3609C347.737 30.1744 348.617 31.4517 349.036 33.1939L345.141 33.6459Z" fill="black"/>
<path d="M359.016 46.5405V31.937H351.979V28.5942H370.075V31.937H363.037V46.5405H359.016Z" fill="black"/>
<path d="M392.119 46.5405V34.3003L386.388 46.5405H383.297L377.565 34.4009V46.5405H373.871V28.5942H378.546L384.931 42.2172L391.289 28.5942H395.864V46.5405H392.119Z" fill="black"/>
<path d="M401.543 46.5405V28.5942H416.573V31.8872H405.565V35.6567H416.046V38.9497H405.565V43.2476H417.126L416.624 46.5406L401.543 46.5405Z" fill="black"/>
<path d="M435.953 46.5405L425.572 33.9985V46.5405H421.727V28.5942H425.396L435.776 41.1362V28.5942H439.622V46.5405H435.953Z" fill="black"/>
<path d="M450.455 46.5405V31.937H443.418V28.5942H461.515V31.937H454.477V46.5405H450.455Z" fill="black"/>
<path d="M46.5147 17.1421C48.5291 17.1421 49.1308 17.8136 49.3126 18.4151C49.7349 19.9649 49.9421 21.5653 49.9281 23.1715C49.2566 23.0316 49.4105 22.5839 49.1867 22.2063C48.5961 20.8278 47.2307 19.9434 45.7313 19.968H28.1886L27.9508 20.052L27.657 60.901L27.8108 72.2324C28.0207 73.6313 28.3984 75.2121 29.8952 75.6738C30.431 75.7838 30.9368 76.0081 31.3781 76.3313C31.3781 76.4153 31.2382 76.779 30.9304 76.709C26.5705 76.3034 22.1823 76.3034 17.8223 76.709L17.7524 76.1914C19.2016 75.9611 20.5078 75.1853 21.4036 74.0231C22.3828 72.3863 22.0051 70.3718 22.1591 68.5812L22.5368 37.3429L22.7466 37.189L22.5228 37.0212L22.6627 20.108C17.4447 19.8841 12.4505 19.8841 7.16246 20.024C4.54641 20.2478 1.56675 20.4017 0.671408 23.2276L0.15385 23.3815L0 23.0038C0.671509 21.0031 1.39893 18.4711 3.28746 17.198H46.5147" fill="black"/>
<path d="M88.101 29.451C87.8263 29.8696 87.2638 29.8043 86.9236 30.0004C85.249 30.7723 85.1051 32.5254 85.1051 34.1214L84.8173 72.1258C84.9612 73.5126 84.9612 75.1871 86.4919 75.8151C86.9236 76.1029 87.6039 75.959 87.6824 76.5084L87.5385 76.6523C84.2664 76.4319 80.9825 76.4537 77.7136 76.7177L77.6351 76.5083C78.7602 76.1028 80.2515 75.4617 80.3693 73.8919C80.5579 73.164 80.6719 72.4188 80.7095 71.6679L80.788 52.0443L80.4347 51.9789L53.5896 52.0443L53.3802 52.2536L53.2494 72.8977C53.3261 74.1723 54.0324 75.325 55.1333 75.9721C55.4735 76.116 56.1014 75.8282 56.1014 76.2468L56.0229 76.3907C53.0271 76.3121 49.8219 76.5215 46.682 76.3907L46.4727 76.2468C47.773 75.9461 48.7885 74.9307 49.0891 73.6303L49.2199 68.7506L49.3377 32.9963C49.3579 32.058 48.9483 31.1619 48.2256 30.5629C47.8378 30.1332 47.3536 29.8013 46.8127 29.5948C46.7342 29.307 47.0875 29.4509 47.1529 29.307C50.1898 29.7209 53.2671 29.7472 56.3106 29.3855C55.6173 30.0658 54.4398 30.2882 53.9427 31.2564L53.668 32.1721C53.3541 37.8891 53.3541 43.737 53.3541 49.5979L54.6623 49.7418L80.7356 49.5324L80.8141 49.3231C80.7356 43.4621 81.3636 37.5489 80.7356 31.6749C80.4626 30.6865 79.6596 29.9339 78.6555 29.7256C78.5116 29.3854 78.9302 29.3854 79.1265 29.307C81.7967 29.5884 84.489 29.5884 87.1591 29.307C87.4338 29.3855 87.9832 29.1107 88.1271 29.4509" fill="black"/>
<path d="M125.543 61.329L125.412 61.4076H104.978V61.1198L106.155 58.3987L115.496 36.7342L115.64 36.6034L116.268 38.0424L125.543 61.329ZM116.543 28.623L116.15 29.5388L102.387 60.858L97.7169 71.0885L96.1209 73.6002C94.9653 74.8955 93.5036 75.8805 91.8691 76.4653C92.2093 77.0278 92.9812 76.4653 93.4783 76.5306C96.0043 76.314 98.5452 76.3403 101.066 76.6091V76.5306C100.322 75.697 99.9903 74.5735 100.163 73.4693C100.977 70.3439 102.099 67.3071 103.513 64.4032L103.787 63.9846L126.315 63.8407L126.786 63.9846C127.911 67.1244 129.507 70.1203 130.214 73.3909C130.156 74.589 129.629 75.7164 128.749 76.5306L128.893 76.6091L132.516 76.4653C135.133 76.3214 137.605 76.74 140.117 76.6091L139.973 76.112C138.037 75.9247 136.356 74.6958 135.591 72.9068C129.381 58.272 123.123 43.5978 116.817 28.8844L116.543 28.623Z" fill="black"/>
<path d="M198.817 52.6777C195.513 52.4913 192.2 52.5876 188.913 52.9655L188.848 53.2403C188.769 60.1347 188.56 67.3169 188.979 74.2899L189.266 74.4207C194.002 74.0806 200.073 74.774 204.965 73.8058C206.494 73.2432 207.728 72.0808 208.38 70.5876H208.655L208.799 70.6661C208.464 72.3063 207.923 73.8974 207.189 75.402C206.711 76.0807 205.989 76.5492 205.175 76.7102C197.024 76.7887 189.907 76.2261 181.626 76.7102L181.482 76.2916C182.754 75.8768 183.775 74.918 184.269 73.6751L184.544 71.8698L184.622 59.376V35.3175C184.478 33.6429 184.622 31.3928 182.948 30.163C182.66 29.7444 181.888 29.8752 181.888 29.1818H182.176C188.312 29.1818 194.094 29.1163 200.308 28.9724C200.727 29.0509 201.289 29.0509 201.616 29.3257C202.334 30.4472 202.72 31.7488 202.728 33.0803C202.454 33.3027 202.31 32.9495 202.166 32.884C201.342 31.2748 199.667 30.9348 197.993 30.987L189.057 31.1964L188.861 31.2749C188.861 37.7507 188.652 44.1742 188.927 50.5192L189.201 50.5978C192.95 50.6639 196.698 50.4979 200.426 50.1006C201.514 49.7523 202.384 48.9295 202.794 47.8636L203.213 47.7982C203.038 50.1618 202.995 52.5334 203.082 54.9019H202.794C202.794 54.9019 203.356 53.018 198.869 52.6779" fill="black"/>
<path d="M234.167 34.7783C236.26 38.0489 236.26 43.4913 234.428 47.1804C232.27 51.9947 227.181 52.8451 222.379 52.4919C221.895 52.4919 221.189 52.7012 221.071 52.1386L220.901 30.7358C224.262 29.2817 228.127 29.5955 231.21 31.5731C232.433 32.4112 233.46 33.5048 234.219 34.7783M234.284 29.964C228.149 26.8242 220.548 29.336 213.509 28.7865L213.366 28.9304C213.791 29.1183 214.228 29.28 214.674 29.4145C216.127 30.3227 216.961 31.957 216.846 33.6663C216.846 47.4682 216.846 58.5229 216.78 72.3511C216.822 73.3274 216.526 74.2884 215.943 75.0722C215.119 75.7787 214.059 75.7787 213.156 76.2627V76.5374C216.78 76.5374 220.273 76.3935 223.753 76.6159L223.962 76.3935C223.753 75.7786 222.85 75.988 222.366 75.6347C221.394 74.7712 220.857 73.5197 220.901 72.2201C220.901 66.3592 220.901 60.2236 221.032 54.101C223.652 54.1791 226.274 54.083 228.881 53.8132C230.346 55.7624 231.746 57.7379 233.068 59.5956C237.254 64.9594 240.525 71.6576 246.66 75.216C249.486 76.4651 252.59 76.948 255.661 76.6158L256.001 76.328C255.517 75.6347 254.34 76.1187 253.633 75.844C251.807 75.2893 250.151 74.2811 248.819 72.9135C242.618 66.5031 237.948 59.3993 233.277 52.2695C235.812 50.6931 237.841 48.423 239.125 45.7282C240.946 41.657 240.525 36.9327 238.013 33.2476C237.044 31.8567 235.745 30.7284 234.232 29.9638L234.284 29.964Z" fill="black"/>
<path d="M178.174 28.8433C175.185 29.171 172.176 29.2629 169.173 29.118C168.898 28.9741 168.898 29.2488 168.964 29.5366C169.876 30.5061 170.174 31.9031 169.735 33.1604C168.898 35.4499 167.708 37.543 166.661 39.7016L152.781 66.6776L152.545 66.9131L139.698 37.687C139.005 35.5938 137.683 33.6314 138.089 31.3421C138.442 30.2955 139.764 29.8114 140.261 29.0395C136.406 29.3149 132.537 29.3149 128.683 29.0395V29.4582C131.129 29.5367 133 31.7607 133.628 33.8538L142.511 53.4774L150.164 71.4527L148.934 73.7029L136.516 95.1361C134.763 97.8442 132.591 101.259 129.124 101.547C128.85 101.677 128.418 101.677 128.418 101.965C130.989 102.276 134.018 101.745 136.053 100.144C139.978 96.4419 150.897 75.5214 153.474 71.1257L170.481 38.8513C172.365 35.5676 173.411 30.8972 177.663 29.7721C177.951 29.5758 178.5 29.7066 178.5 29.1572L178.16 28.8825" fill="black"/>
<path fill-rule="evenodd" clip-rule="evenodd" d="M462.581 14.0911C462.581 13.2481 463.336 12.7799 464.108 12.5648L481.471 6.45939C482.441 6.00047 483.674 7.07902 483.252 8.24012L477.146 25.6035C476.895 26.3389 476.463 27.1298 475.62 27.1298C474.777 27.1298 474.094 26.4465 474.094 25.6035L474.094 15.6174L464.108 15.6174C463.265 15.6174 462.581 14.9341 462.581 14.0911Z" fill="black"/>
</svg>
