<?xml version="1.0" encoding="UTF-8"?>
<svg id="Layer_1" xmlns="http://www.w3.org/2000/svg" version="1.1" viewBox="0 0 490 103">
  <!-- Generator: Adobe Illustrator 30.4.0, SVG Export Plug-In . SVG Version: 2.1.4 Build 226)  -->
  <defs>
    <style>
      .st0 {
        fill-rule: evenodd;
      }

      .st0, .st1 {
        fill: #00d676;
      }
    </style>
  </defs>
  <path class="st1" d="M268,76.4v-17.9h8.7c5,0,7.5,2,7.5,5.9s-.6,3.5-1.9,4.5c-1.3,1-3.3,1.5-5.9,1.5h-4.4v6.1h-4ZM276.4,67.2c1.3,0,2.3-.2,2.9-.7.6-.5.9-1.2.9-2.1s-.3-1.7-.9-2.1c-.6-.4-1.6-.7-2.9-.7h-4.5v5.6h4.4Z"/>
  <path class="st1" d="M300.8,76.4l-1.8-4.1h-9l-1.8,4.1h-4.1l8.2-17.9h4.5l8.2,17.9h-4.2ZM294.5,61.9l-3.2,7.2h6.3l-3.2-7.2Z"/>
  <path class="st1" d="M321.9,76.4l-3.9-6.7h-5.3v6.7h-3.9v-17.9h8.8c5,0,7.5,1.9,7.5,5.6s-.3,2.2-.8,3c-.6.8-1.4,1.4-2.6,1.9l4.5,7.4h-4.4ZM317.3,66.6c1.3,0,2.3-.2,2.9-.6.6-.4.9-1.1.9-1.9s-.3-1.5-.9-1.9c-.6-.4-1.6-.6-2.9-.6h-4.7v5.1h4.6Z"/>
  <path class="st1" d="M334.7,76.4v-14.6h-7v-3.3h18.1v3.3h-7v14.6h-4Z"/>
  <path class="st1" d="M363.8,76.4l-10.4-12.5v12.5h-3.8v-17.9h3.7l10.4,12.5v-12.5h3.8v17.9h-3.7Z"/>
  <path class="st1" d="M373.2,76.4v-17.9h15v3.3h-11v3.8h10.5v3.3h-10.5v4.3h11.6l-.5,3.3h-15.1Z"/>
  <path class="st1" d="M406.4,76.4l-3.9-6.7h-5.3v6.7h-3.9v-17.9h8.8c5,0,7.5,1.9,7.5,5.6s-.3,2.2-.8,3c-.6.8-1.4,1.4-2.6,1.9l4.5,7.4h-4.4ZM401.9,66.6c1.3,0,2.3-.2,2.9-.6.6-.4.9-1.1.9-1.9s-.3-1.5-.9-1.9c-.6-.4-1.6-.6-2.9-.6h-4.7v5.1h4.6Z"/>
  <path class="st1" d="M426.8,63.5c-.4-.9-.9-1.5-1.6-1.8-.7-.4-1.7-.6-2.9-.6s-2.5.2-3.3.5c-.8.4-1.1.9-1.1,1.5s.2,1.1.7,1.4c.5.3,1.3.5,2.5.7l3.7.6c2.2.4,3.8,1,4.8,1.8,1,.9,1.5,2.1,1.5,3.6s-.7,3.1-2.2,4.1c-1.5,1-3.6,1.4-6.3,1.4s-3.6-.2-5-.7c-1.3-.5-2.3-1.2-3-2.1-.7-1-1.1-2.2-1.2-3.6h4c.2,1.2.7,2,1.5,2.6.8.5,2.1.8,3.7.8s2.6-.2,3.3-.6c.7-.4,1.1-1,1.1-1.7s-.2-1.1-.7-1.5c-.5-.4-1.3-.6-2.4-.8l-3-.4c-2.4-.3-4.2-.9-5.4-1.8-1.1-.9-1.7-2.1-1.7-3.7s.3-2,1-2.8c.7-.8,1.6-1.4,2.9-1.8,1.3-.4,2.8-.6,4.6-.6s4.3.4,5.7,1.2,2.2,2.1,2.6,3.8l-3.9.5Z"/>
  <path class="st1" d="M258,46.5v-17.9h4v17.9h-4Z"/>
  <path class="st1" d="M281.9,46.5l-10.4-12.5v12.5h-3.8v-17.9h3.7l10.4,12.5v-12.5h3.8v17.9h-3.7Z"/>
  <path class="st1" d="M296.9,46.5l-7.7-17.9h4.5l5.6,14,5.6-14h4.3l-7.7,17.9h-4.7Z"/>
  <path class="st1" d="M312.8,46.5v-17.9h15v3.3h-11v3.8h10.5v3.3h-10.5v4.3h11.6l-.5,3.3h-15.1Z"/>
  <path class="st1" d="M345.1,33.6c-.4-.9-.9-1.5-1.6-1.8-.7-.4-1.7-.6-2.9-.6s-2.5.2-3.3.5c-.8.4-1.1.9-1.1,1.5s.2,1.1.7,1.4c.5.3,1.3.5,2.5.7l3.7.6c2.2.4,3.8,1,4.8,1.8,1,.9,1.5,2.1,1.5,3.6s-.7,3.1-2.2,4.1c-1.5,1-3.6,1.4-6.3,1.4s-3.6-.2-5-.7c-1.3-.5-2.3-1.2-3-2.1-.7-1-1.1-2.2-1.2-3.6h4c.2,1.2.7,2,1.5,2.6.8.5,2.1.8,3.7.8s2.6-.2,3.3-.6c.7-.4,1.1-1,1.1-1.7s-.2-1.1-.7-1.5-1.3-.6-2.4-.8l-3-.4c-2.4-.3-4.2-.9-5.4-1.8-1.1-.9-1.7-2.1-1.7-3.7s.3-2,1-2.8c.7-.8,1.6-1.4,2.9-1.8,1.3-.4,2.8-.6,4.6-.6s4.3.4,5.7,1.2c1.3.8,2.2,2.1,2.6,3.8l-3.9.5Z"/>
  <path class="st1" d="M359,46.5v-14.6h-7v-3.3h18.1v3.3h-7v14.6h-4Z"/>
  <path class="st1" d="M392.1,46.5v-12.2l-5.7,12.2h-3.1l-5.7-12.1v12.1h-3.7v-17.9h4.7l6.4,13.6,6.4-13.6h4.6v17.9h-3.7Z"/>
  <path class="st1" d="M401.5,46.5v-17.9h15v3.3h-11v3.8h10.5v3.3h-10.5v4.3h11.6l-.5,3.3h-15.1Z"/>
  <path class="st1" d="M436,46.5l-10.4-12.5v12.5h-3.8v-17.9h3.7l10.4,12.5v-12.5h3.8v17.9h-3.7Z"/>
  <path class="st1" d="M450.5,46.5v-14.6h-7v-3.3h18.1v3.3h-7v14.6h-4Z"/>
  <path d="M46.5,17.1c2,0,2.6.7,2.8,1.3.4,1.5.6,3.2.6,4.8-.7-.1-.5-.6-.7-1-.6-1.4-2-2.3-3.5-2.2h-17.8c0,0-.3,40.9-.3,40.9l.2,11.3c.2,1.4.6,3,2.1,3.4.5.1,1,.3,1.5.7,0,0-.1.4-.4.4-4.4-.4-8.7-.4-13.1,0v-.5c1.4-.2,2.7-1,3.6-2.2,1-1.6.6-3.7.8-5.4l.4-31.2.2-.2-.2-.2v-16.9c-5.1-.2-10.1-.2-15.4,0-2.6.2-5.6.4-6.5,3.2l-.5.2-.2-.4c.7-2,1.4-4.5,3.3-5.8h43.2"/>
  <path d="M88.1,29.5c-.3.4-.8.4-1.2.5-1.7.8-1.8,2.5-1.8,4.1l-.3,38c.1,1.4.1,3.1,1.7,3.7.4.3,1.1.1,1.2.7h-.1c-3.3,0-6.6,0-9.8.2v-.2c1-.4,2.5-1,2.7-2.6.2-.7.3-1.5.3-2.2v-19.6c0,0-.3,0-.3,0h-26.8c0,0-.2.3-.2.3v20.6c0,1.3.7,2.4,1.8,3.1.3.1,1-.1,1,.3h0c-3,0-6.2.3-9.3.1h-.2c1.3-.4,2.3-1.5,2.6-2.8v-4.9c.1,0,.2-35.8.2-35.8,0-.9-.4-1.8-1.1-2.4-.4-.4-.9-.8-1.4-1,0-.3.3-.1.3-.3,3,.4,6.1.4,9.2,0-.7.7-1.9.9-2.4,1.9l-.3.9c-.3,5.7-.3,11.6-.3,17.4h1.3c0,.1,26.1,0,26.1,0v-.2c0-5.9.6-11.8,0-17.6-.3-1-1.1-1.7-2.1-1.9-.1-.3.3-.3.5-.4,2.7.3,5.4.3,8,0,.3,0,.8-.2,1,.1"/>
  <path d="M125.5,61.3h-.1c0,0-20.4,0-20.4,0v-.3l1.2-2.7,9.3-21.7h.1c0-.1.6,1.3.6,1.3l9.3,23.3ZM116.5,28.6l-.4.9-13.8,31.3-4.7,10.2-1.6,2.5c-1.2,1.3-2.6,2.3-4.3,2.9.3.6,1.1,0,1.6,0,2.5-.2,5.1-.2,7.6,0h0c-.7-.9-1.1-2-.9-3.1.8-3.1,1.9-6.2,3.3-9.1l.3-.4h22.5c0-.1.5,0,.5,0,1.1,3.1,2.7,6.1,3.4,9.4,0,1.2-.6,2.3-1.5,3.1h.1c0,0,3.6,0,3.6,0,2.6-.1,5.1.3,7.6.1v-.5c-2.1-.2-3.8-1.4-4.5-3.2-6.2-14.6-12.5-29.3-18.8-44l-.3-.3Z"/>
  <path d="M198.8,52.7c-3.3-.2-6.6,0-9.9.3v.3c-.1,6.9-.4,14.1,0,21h.3c4.7-.2,10.8.5,15.7-.5,1.5-.6,2.8-1.7,3.4-3.2h.4c-.3,1.7-.9,3.3-1.6,4.8-.5.7-1.2,1.1-2,1.3-8.2,0-15.3-.5-23.5,0v-.4c1.1-.4,2.1-1.4,2.6-2.6l.3-1.8v-12.5c0,0,0-24.1,0-24.1-.1-1.7,0-3.9-1.7-5.2-.3-.4-1.1-.3-1.1-1h.3c6.1,0,11.9,0,18.1-.2.4,0,1,0,1.3.4.7,1.1,1.1,2.4,1.1,3.8-.3.2-.4-.1-.6-.2-.8-1.6-2.5-1.9-4.2-1.9l-8.9.2h-.2c0,6.6-.2,13,0,19.3h.3c3.7.1,7.5,0,11.2-.4,1.1-.3,2-1.2,2.4-2.2h.4c-.2,2.3-.2,4.7-.1,7h-.3s.6-1.9-3.9-2.2"/>
  <path d="M234.2,34.8c2.1,3.3,2.1,8.7.3,12.4-2.2,4.8-7.2,5.7-12,5.3-.5,0-1.2.2-1.3-.4l-.2-21.4c3.4-1.5,7.2-1.1,10.3.8,1.2.8,2.2,1.9,3,3.2M234.3,30c-6.1-3.1-13.7-.6-20.8-1.2h-.1c.4.3.9.5,1.3.6,1.5.9,2.3,2.5,2.2,4.3,0,13.8,0,24.9,0,38.7,0,1-.3,1.9-.8,2.7-.8.7-1.9.7-2.8,1.2v.3c3.6,0,7.1-.1,10.6,0l.2-.2c-.2-.6-1.1-.4-1.6-.8-1-.9-1.5-2.1-1.5-3.4,0-5.9,0-12,.1-18.1,2.6,0,5.2,0,7.8-.3,1.5,1.9,2.9,3.9,4.2,5.8,4.2,5.4,7.5,12.1,13.6,15.6,2.8,1.2,5.9,1.7,9,1.4l.3-.3c-.5-.7-1.7-.2-2.4-.5-1.8-.6-3.5-1.6-4.8-2.9-6.2-6.4-10.9-13.5-15.5-20.6,2.5-1.6,4.6-3.8,5.8-6.5,1.8-4.1,1.4-8.8-1.1-12.5-1-1.4-2.3-2.5-3.8-3.3h0Z"/>
  <path d="M178.2,28.8c-3,.3-6,.4-9,.3-.3-.1-.3.1-.2.4.9,1,1.2,2.4.8,3.6-.8,2.3-2,4.4-3.1,6.5l-13.9,27-.2.2-12.8-29.2c-.7-2.1-2-4.1-1.6-6.3.4-1,1.7-1.5,2.2-2.3-3.9.3-7.7.3-11.6,0v.4c2.4,0,4.3,2.3,4.9,4.4l8.9,19.6,7.7,18-1.2,2.3-12.4,21.4c-1.8,2.7-3.9,6.1-7.4,6.4-.3.1-.7.1-.7.4,2.6.3,5.6-.2,7.6-1.8,3.9-3.7,14.8-24.6,17.4-29l17-32.3c1.9-3.3,2.9-8,7.2-9.1.3-.2.8,0,.8-.6l-.3-.3"/>
  <path class="st0" d="M462.6,14.1c0-.8.8-1.3,1.5-1.5l17.4-6.1c1-.5,2.2.6,1.8,1.8l-6.1,17.4c-.3.7-.7,1.5-1.5,1.5s-1.5-.7-1.5-1.5v-10h-10c-.8,0-1.5-.7-1.5-1.5Z"/>
</svg>