<svg width="418" height="150" viewBox="0 0 418 150" fill="none" xmlns="http://www.w3.org/2000/svg">
<g clip-path="url(#clip0_630_116)">
<path d="M283.697 108.5H283.597C265.797 121.1 244.797 134.3 222.097 148.2L221.197 148.7C220.797 148.8 220.697 149.3 220.797 149.6C220.897 150 221.397 150.1 221.697 150C221.797 150 221.897 149.9 221.997 149.8L222.697 149.4C241.997 139.4 264.097 127.5 286.297 115.2L286.697 115C285.397 113 284.397 110.8 283.697 108.5ZM400.497 13.9003C372.497 -16.9997 191.897 10.8003 115.197 27.6003L113.397 28.0003C112.997 28.0003 112.797 28.4003 112.797 28.8003C112.797 29.1003 113.097 29.4003 113.497 29.3003C113.497 29.3003 113.497 29.3003 113.597 29.3003L115.397 29.0003C178.997 17.7003 311.297 2.00031 339.697 30.2003C348.397 38.8003 346.397 49.9003 336.297 63.0003C341.897 66.6003 345.797 72.3003 347.297 78.8003C386.597 52.7003 412.997 27.7003 400.497 13.9003Z" fill="#2C2B2B"/>
<path d="M132.997 84.2999C130.797 84.2999 128.697 84.9999 126.897 86.2999C125.097 87.7999 123.897 89.9999 123.597 92.2999C122.997 95.3999 123.297 97.4999 124.497 98.8999C125.897 100.3 127.797 101 129.797 100.9C131.297 100.9 132.797 100.6 134.197 99.9999C135.497 99.3999 136.697 98.3999 137.497 97.1999C138.397 95.7999 139.097 94.1999 139.397 92.5999C139.897 89.7999 139.497 87.7999 138.197 86.3999C136.897 84.9999 134.997 84.1999 132.997 84.2999ZM101.897 123.1L110.197 76.2999H125.197L123.997 82.2999C125.597 80.1999 127.797 78.6999 130.297 77.7999C133.397 76.4999 136.697 75.8999 139.997 75.7999C143.897 75.7999 146.297 75.9999 149.197 77.4999C151.897 78.8999 154.097 81.1999 155.197 84.0999C156.397 87.0999 156.697 90.3999 155.997 93.5999C155.197 99.0999 152.097 104.1 147.597 107.3C142.997 110.6 138.897 111.5 132.997 111.5C131.197 111.5 129.397 111.3 127.697 110.9C126.497 110.6 125.397 110.2 124.297 109.6C123.297 108.9 122.297 108 121.497 107L118.697 123.1H101.897ZM274.997 111H257.597L266.397 62.3999L283.297 62.7999L274.997 111ZM188.197 75.8999L189.397 68.7999L207.197 64.9999L205.297 75.8999H214.097L212.397 82.9999H203.897L198.797 111H181.497L186.697 82.9999H180.197L181.497 75.9999H188.197V75.8999ZM49.5965 98.4999C44.8965 99.4999 40.1965 99.9999 35.3965 99.9999C27.2965 99.9999 20.7965 95.9999 21.1965 88.4999C21.3965 83.5999 27.2965 73.1999 42.0965 73.1999C46.7965 73.0999 51.3965 74.2999 55.3965 76.7999L57.4965 64.6999C52.1965 62.5999 46.3965 61.5999 40.6965 61.8999C21.1965 62.0999 2.49653 70.8999 0.196525 88.8999C-2.10347 106.9 20.1965 111.8 30.0965 111.8C39.9965 111.8 41.7965 111.5 47.2965 111L49.5965 98.4999ZM239.297 94.9999L236.397 95.7999L229.697 96.9999C228.097 97.0999 226.597 97.5999 225.197 98.3999C224.397 98.8999 223.797 99.6999 223.697 100.6C223.497 101.5 223.797 102.5 224.597 103C225.497 103.6 226.897 103.8 228.897 103.8C230.397 103.8 231.897 103.6 233.297 103.2C234.597 102.8 235.797 102.2 236.897 101.3C237.597 100.7 238.097 99.8999 238.397 98.9999C238.797 97.6999 239.097 96.3999 239.297 94.9999ZM257.697 83.4999C257.597 85.1999 257.297 86.7999 256.897 89.2999L253.797 106.8C253.497 108.2 254.197 109.7 255.497 110.4V111H237.597V106.5C234.897 108.1 231.997 109.3 228.997 110.2C226.197 110.9 223.297 111.3 220.397 111.2C214.697 111.2 211.397 110.6 209.097 108.6C206.797 106.6 205.697 105.2 205.797 102.4C205.997 100.5 206.797 98.6999 207.997 97.1999C209.297 95.7999 210.897 94.5999 212.697 93.8999C214.997 92.8999 217.297 92.1999 219.797 91.8999C222.997 91.3999 227.397 90.8999 233.297 90.3999C235.297 90.1999 237.197 89.7999 239.097 89.0999C240.297 88.5999 240.797 88.0999 240.997 87.0999C241.197 86.0999 240.797 84.2999 238.397 83.7999C231.997 82.4999 219.997 84.5999 213.797 86.0999L217.097 77.0999C224.997 75.7999 232.997 75.1999 240.997 75.0999C253.697 75.0999 257.797 78.8999 257.697 83.4999ZM155.497 111L161.697 76.0999H178.797L172.597 111H155.497ZM162.697 68.0999C163.197 65.1999 167.697 62.8999 172.797 62.8999C177.897 62.8999 181.497 65.1999 180.997 68.0999C180.497 70.9999 175.997 73.2999 170.897 73.2999C165.797 73.2999 162.197 70.8999 162.697 68.0999ZM85.4965 94.8999C84.5965 95.2999 83.5965 95.4999 82.5965 95.6999L75.9965 96.8999C74.3965 96.9999 72.7965 97.4999 71.3965 98.2999C70.5965 98.7999 69.9965 99.5999 69.8965 100.6C69.6965 101.5 70.0965 102.4 70.8965 102.9C72.1965 103.6 73.5965 103.9 75.0965 103.8C76.5965 103.8 78.0965 103.5 79.4965 103.1C80.7965 102.7 81.9965 102.1 83.0965 101.2C83.7965 100.6 84.2965 99.7999 84.5965 98.8999C85.0965 97.5999 85.3965 96.2999 85.4965 94.8999ZM103.897 83.4999C103.897 85.1999 103.497 86.6999 103.097 89.2999L99.9965 106.7C99.6965 108.1 100.397 109.6 101.697 110.3V111H83.7965V106.6C81.0965 108.1 78.1965 109.3 75.1965 110.2C72.3965 110.9 69.5965 111.3 66.6965 111.3C60.8965 111.3 57.5965 110.7 55.3965 108.7C53.1965 106.7 51.8965 105.3 51.9965 102.4C52.1965 100.5 52.9965 98.6999 54.1965 97.2999C55.4965 95.7999 57.0965 94.6999 58.8965 93.8999C61.1965 92.8999 63.5965 92.2999 66.0965 91.8999C69.1965 91.3999 73.5965 90.8999 79.4965 90.3999C81.4965 90.3999 83.4965 89.8999 85.2965 89.0999C86.5965 88.5999 86.9965 88.0999 87.1965 87.0999C87.3965 86.0999 86.9965 84.2999 84.5965 83.7999C78.1965 82.5999 66.1965 84.5999 59.9965 86.1999L63.2965 77.0999C71.1965 75.7999 79.1965 75.1999 87.1965 75.0999C99.8965 75.0999 103.997 78.7999 103.897 83.4999Z" fill="#2C2B2B"/>
<path d="M344.599 88.2002L348.499 87.8002C349.799 87.8002 350.899 88.1002 350.999 89.3002C351.099 90.5002 349.699 95.3002 349.399 96.6002L346.699 108.3C345.699 113.1 344.499 118.1 343.499 122.1H350.299L354.099 103.5C365.899 91.3002 370.399 87.3002 373.099 87.3002C374.199 87.2002 375.199 88.0002 375.299 89.1002C375.299 89.2002 375.299 89.4002 375.299 89.5002C375.399 91.6002 373.999 96.5002 373.599 97.9002L369.599 111.4C368.799 114.5 368.099 117.2 368.199 119.2C368.299 121.2 370.099 123.5 372.699 123.5C377.699 123.5 381.399 118.3 384.499 113.2L383.599 111.5C382.299 113.5 379.399 118 376.999 118C374.599 118 375.599 117.5 375.599 116.3C375.599 114.4 375.999 112.6 376.599 110.8L380.999 94.9002C382.099 90.5002 382.699 87.7002 382.699 86.2002C382.699 84.7002 380.799 81.9002 378.199 81.9002C373.699 81.9002 367.699 85.2002 355.099 99.7002H354.899L356.499 92.6002C357.399 88.7002 358.199 84.7002 358.999 81.9002C354.299 83.6002 349.399 85.0002 344.499 86.0002V88.2002H344.599ZM411.499 88.6002C411.399 85.8002 409.999 83.9002 407.099 83.9002C400.099 83.9002 392.699 97.6002 391.399 103.1C402.799 103.1 411.799 96.3002 411.499 88.6002ZM412.999 110.1L414.299 111C410.899 117.9 403.999 123.5 395.799 123.5C387.599 123.5 383.699 119.1 383.399 110.8C382.799 95.8002 396.899 81.9002 408.299 81.9002C419.699 81.9002 417.799 84.1002 417.999 89.4002C418.399 101.3 401.699 104.9 390.699 105.1C390.299 106.5 390.199 108 390.299 109.5C390.499 114.5 393.499 118.6 399.599 118.6C405.699 118.6 410.299 114.3 412.999 110.1ZM295.099 100.4C295.399 111.3 302.299 120.2 311.299 120.2C328.699 120.2 336.099 98.8002 335.599 84.5002C335.199 73.6002 328.199 64.7002 319.199 64.7002C304.199 64.7002 294.499 86.0002 295.099 100.4ZM285.899 99.8002C285.199 81.2002 299.799 62.2002 320.899 62.2002C341.999 62.2002 344.299 71.7002 344.799 86.1002C345.499 105.7 331.899 123.7 309.799 123.7C287.699 123.7 286.399 114.3 285.899 99.8002Z" fill="#2C2B2B"/>
</g>
<defs>
<clipPath id="clip0_630_116">
<rect width="418" height="150" fill="white"/>
</clipPath>
</defs>
</svg>
