<svg width="87" height="53" viewBox="0 0 87 53" fill="none" xmlns="http://www.w3.org/2000/svg">
<path d="M31.5732 22.1538H49.6497C52.4522 22.1538 55.3949 21.0462 57.4968 18.9692C59.7389 16.8923 61 13.9846 61 11.0769C61 8.16923 59.879 5.26154 57.6369 3.18462C55.535 1.10769 52.7325 0 49.6497 0H40.4013C31.8535 0 24.5669 5.95385 22.7452 13.8462H17.4204C17.1401 13.8462 17 14.1231 17 14.2615V16.8923C17 17.1692 17.1401 17.3077 17.4204 17.3077H49.6497C53.4331 17.3077 55.9554 14.1231 55.9554 11.0769C55.9554 8.03077 53.1529 4.84615 49.6497 4.84615H40.4013C34.5159 4.84615 29.4713 8.58462 27.6497 13.8462H26.1083C27.9299 7.89231 33.535 3.46154 40.2611 3.46154H49.5096C53.8535 3.46154 57.2166 6.78462 57.2166 11.0769C57.2166 15.3692 53.5732 18.6923 49.3694 18.6923H17.4204C17.1401 18.6923 17 18.9692 17 19.1077V21.7385C17 22.0154 17.1401 22.1538 17.4204 22.1538H22.6051C24.5669 30.0462 31.7134 36 40.4013 36H58.1975C58.4777 36 58.6178 35.8615 58.6178 35.5846V32.9538C58.6178 32.6769 58.4777 32.5385 58.1975 32.5385H40.4013C33.6752 32.5385 28.0701 28.1077 26.2484 22.1538H27.7898C29.6115 27.4154 34.5159 31.1538 40.5414 31.1538H58.3376C58.6178 31.1538 58.758 31.0154 58.758 30.7385V28.1077C58.758 27.8308 58.6178 27.6923 58.3376 27.6923H40.5414C36.6178 27.6923 33.2548 25.4769 31.5732 22.1538ZM40.5414 8.30769H49.6497C51.051 8.30769 52.172 9.13846 52.4522 10.5231C52.8726 12.4615 51.1911 13.8462 49.6497 13.8462H31.5732C33.1146 10.5231 36.6178 8.30769 40.5414 8.30769Z" fill="#2C2B2B"/>
<path d="M51.4805 51.1695C50.7711 51.1695 50.3658 50.7627 50.2644 50.1017L49.3524 45.2712C49.3524 45.1186 49.251 45.0169 49.099 45.0169C48.947 45.0169 48.8963 45.1186 48.8963 45.2712V51.0678H47.8829V45.2712C47.8829 44.5593 48.339 44.1017 49.099 44.1017C49.8591 44.1017 50.1631 44.4576 50.3151 45.1695L51.2271 50C51.2271 50.1525 51.3285 50.2542 51.4805 50.2542C51.6325 50.2542 51.6832 50.1525 51.7338 50L52.6459 45.1695C52.7472 44.5085 53.2033 44.1017 53.862 44.1017C54.5207 44.1017 55.078 44.5593 55.078 45.2712V51.0678H54.0646V45.2712C54.0646 45.1186 53.9633 45.0169 53.862 45.0169C53.7606 45.0169 53.6593 45.1186 53.6086 45.2712L52.6966 50.1017C52.5952 50.7627 52.1899 51.1695 51.4805 51.1695ZM58.5743 51.1695C57.1048 51.1695 56.0914 50.1525 56.0914 48.6271C56.0914 47.1017 57.1048 46.0847 58.5743 46.0847C60.0437 46.0847 61.0571 47.1017 61.0571 48.6271C61.0571 50.1525 60.0437 51.1695 58.5743 51.1695ZM57.1048 48.6271C57.1048 49.6949 57.6622 50.3559 58.5743 50.3559C59.4863 50.3559 60.0437 49.6949 60.0437 48.6271C60.0437 47.5593 59.4863 46.8475 58.5743 46.8475C57.6622 46.8475 57.1048 47.5085 57.1048 48.6271ZM64.7053 51.1695C63.9959 51.1695 63.3372 50.8136 63.0332 50.3051V51.1186H62.1211V44H63.0839V46.9492C63.4385 46.3898 64.0466 46.0847 64.756 46.0847C66.124 46.0847 66.9854 47.1017 66.9854 48.6271C66.9854 50.2034 66.124 51.1695 64.756 51.1695H64.7053ZM62.9825 48.6271C62.9825 49.6949 63.5399 50.3559 64.452 50.3559C65.364 50.3559 65.9214 49.6949 65.9214 48.6271C65.9214 47.5593 65.364 46.8475 64.452 46.8475C63.5399 46.8475 62.9825 47.5085 62.9825 48.6271ZM67.8975 51.1186V46.0847H68.8602V51.1186H67.8975ZM67.8468 45.1695V44H69.0122V45.1695H67.8468ZM70.1776 51.1186V44.0508H71.1404V51.1186H70.1776ZM72.4578 51.1186V46.0847H73.4205V51.1186H72.4578ZM72.3564 45.1695V44H73.5218V45.1695H72.3564ZM76.714 51.1186C75.802 51.1186 75.2953 50.6102 75.2953 49.6949V46.8983H74.3326V46.1356H75.2953V44.661H76.258V46.1356H77.5754V46.8983H76.258V49.7966C76.258 50.1525 76.4607 50.3559 76.8154 50.3559H77.5754V51.1186H76.6634H76.714ZM78.9435 53V52.2373H81.3757C81.6797 52.2373 81.8824 52.0847 81.8824 51.7288V50.4576C81.6797 50.9153 81.1223 51.2203 80.4636 51.2203C79.2475 51.2203 78.5888 50.4576 78.5888 49.0339V46.1356H79.5515V49.1356C79.5515 49.9492 79.9569 50.3559 80.7169 50.3559C81.477 50.3559 81.8824 49.9492 81.8824 49.1356V46.1356H82.8451V51.6271C82.8451 52.4915 82.389 53 81.477 53H78.8928H78.9435ZM0 51.1186H4.56028V50.2542H1.0134V48.0678H4.30693V47.2034H1.0134V45.0678H4.45894V44.2034H0V51.1186ZM5.72568 51.1186H6.68841V48.2712C6.68841 47.3051 7.09377 46.8475 7.90448 46.8475C8.7152 46.8475 9.06989 47.3051 9.06989 48.2712V51.1186H10.0326V48.2712C10.0326 46.7966 9.42458 46.0339 8.25917 46.0339C7.09377 46.0339 6.99243 46.339 6.63774 46.8983V46.0847H5.72568V51.1186ZM13.1235 51.1186H14.0355V50.3051H13.2755C12.9208 50.3051 12.7181 50.1017 12.7181 49.7458V46.8475H14.0355V46.0847H12.7181V44.6102H11.7554V46.0847H10.7927V46.8475H11.7554V49.6441C11.7554 50.5593 12.2621 51.0678 13.1741 51.0678L13.1235 51.1186ZM15.657 48.322C15.7076 47.3051 16.113 46.8983 17.025 46.8983C17.9371 46.8983 18.2411 47.3559 18.2411 48.0678C18.2411 48.7797 18.1398 48.322 17.9371 48.322H15.657ZM16.9744 51.1186H18.7985V50.3051H16.9744C16.113 50.3051 15.7076 49.9492 15.657 49.1356H18.2411C18.8998 49.1356 19.2545 48.8305 19.2545 48.1695C19.2545 46.9492 18.3425 46.0847 17.0757 46.0847C15.809 46.0847 14.6942 47 14.6942 48.7288C14.6942 50.4576 15.5049 51.1186 17.025 51.1186H16.9744ZM20.1666 47.5085V51.1186H21.1293V47.4576C21.1293 47.1525 21.332 46.9492 21.636 46.9492H22.9534V46.1356H21.5347C20.6226 46.1356 20.1159 46.6441 20.1159 47.5593L20.1666 47.5085ZM24.8789 48.6271C24.8789 47.5593 25.4362 46.8983 26.3483 46.8983C27.2603 46.8983 27.8177 47.5593 27.8177 48.6271C27.8177 49.6949 27.2603 50.4068 26.3483 50.4068C25.4362 50.4068 24.8789 49.7458 24.8789 48.6271ZM23.9161 53H24.8789V50.3051C25.2335 50.8644 25.8416 51.2203 26.551 51.2203C27.919 51.2203 28.7804 50.2034 28.7804 48.6271C28.7804 47.0508 27.919 46.0847 26.551 46.0847C25.1829 46.0847 25.1829 46.4407 24.8789 46.9492V46.1356H23.9668V53H23.9161ZM29.7432 47.5085V51.1186H30.7059V47.4576C30.7059 47.1525 30.9086 46.9492 31.2126 46.9492H32.53V46.1356H31.1112C30.1992 46.1356 29.6925 46.6441 29.6925 47.5593L29.7432 47.5085ZM33.3914 45.1695H34.5568V44H33.3914V45.1695ZM33.4927 51.1186H34.4554V46.0847H33.4927V51.1186ZM35.5195 51.1186H37.597C38.5597 51.1186 39.0664 50.6102 39.0664 49.6949C39.0664 48.7797 38.7117 48.5254 37.749 48.2712L37.293 48.1695C36.6849 48.0169 36.4316 47.8136 36.4316 47.4576C36.4316 47.1017 36.6342 46.9492 37.1409 46.9492H38.8637V46.1356H37.0396C36.0769 46.1356 35.5195 46.6441 35.5195 47.5085C35.5195 48.3729 36.0262 48.7797 36.9889 48.9831H37.3436C38.0023 49.1864 38.1543 49.3898 38.1543 49.7458C38.1543 50.1017 37.901 50.3051 37.3943 50.3051H35.4688V51.1186H35.5195ZM40.8398 48.322C40.8905 47.3051 41.2959 46.8983 42.2079 46.8983C43.12 46.8983 43.424 47.3559 43.424 48.0678C43.424 48.7797 43.3227 48.322 43.12 48.322H40.8398ZM42.2079 51.1186H44.032V50.3051H42.2079C41.3465 50.3051 40.9412 49.9492 40.8905 49.1356H43.4747C44.1334 49.1356 44.4881 48.8305 44.4881 48.1695C44.4881 46.9492 43.576 46.0847 42.3093 46.0847C41.0425 46.0847 39.9278 47 39.9278 48.7288C39.9278 50.4576 40.7385 51.1186 42.2586 51.1186H42.2079ZM84.3652 44.661H83.8585V44.5085H85.0745V44.661H84.5678V46.0847H84.3652V44.661ZM85.3786 44.5085H85.6826L86.1893 45.7797L86.696 44.5085H87V46.0847H86.7973V44.7627L86.2906 46.0847H86.1386L85.6319 44.8136V46.0847H85.4292V44.5085H85.3786Z" fill="#2C2B2B"/>
</svg>
