<svg width="69" height="50" viewBox="0 0 69 50" fill="none" xmlns="http://www.w3.org/2000/svg">
<g clip-path="url(#clip0_557_13)">
<path d="M42.0252 0L41.9983 16.7835L34.7398 20.1887L34.7266 12.0217L41.8529 8.8053L34.7328 7.8697L34.7358 3.3944L41.7955 0H42.0252Z" fill="#2C2B2B"/>
<path d="M31.344 0H31.4588L31.4754 8.6696L24.2026 11.4965L24.1953 3.403L31.344 0Z" fill="#2C2B2B"/>
<path d="M69.0013 45.1077V45.8829C68.7277 46.3092 68.3088 46.6102 67.8219 46.5242C67.2934 46.4309 66.953 46.0017 66.9611 45.4934C66.9693 44.9775 67.2882 44.5439 67.8203 44.4626C68.3192 44.3863 68.7301 44.6699 69.0013 45.1077ZM67.6419 44.8838C67.8964 44.8333 68.3694 44.9576 68.3797 45.1017C68.3783 45.456 68.3947 45.8701 68.4386 46.1407C68.8664 45.8937 68.8254 45.4009 68.7123 45.1248C68.6105 44.8764 68.1862 44.5957 67.9026 44.6619C67.2709 44.8093 67.0644 45.3909 67.2688 45.8498C67.477 46.3172 68.0444 46.5049 68.417 46.1928L67.967 45.605L67.6725 46.1536C67.5702 45.7084 67.5408 45.2623 67.6419 44.8838Z" fill="#2C2B2B"/>
<path d="M33.9076 40.1395C30.7067 42.5261 26.3873 42.6801 22.9994 40.7116C20.4826 39.2492 18.9737 36.6953 18.7732 33.9299C18.5613 31.0088 19.8114 28.2863 22.1264 26.4847C26.3732 23.1797 33.4154 23.9005 36.2849 28.9128C38.4463 32.6882 37.4507 37.4977 33.9076 40.1395ZM29.3032 40.1185C31.5865 39.7538 33.3489 38.2872 34.0755 36.1216C34.8919 33.6884 34.4879 30.9681 33.011 28.8811C31.727 27.0665 29.7363 26.2091 27.5488 26.3665C24.9504 26.5535 22.8123 28.1546 22.0377 30.656C21.2664 33.1467 21.7601 35.8352 23.3918 37.8739C24.8268 39.6668 26.9834 40.489 29.3032 40.1185Z" fill="#2C2B2B"/>
<path d="M11.8356 41.6401C12.4692 41.2334 12.9587 40.6251 12.9605 39.7712L12.9736 33.5033H3.84903L3.87402 39.7979C3.87712 40.5818 4.28663 41.1443 4.94743 41.6398L0.078125 41.6515C1.39383 40.7939 1.20632 39.5048 1.20652 38.0769L1.20782 28.4714C1.20802 27.098 1.41313 25.8287 0.119125 24.9365L4.95973 24.9407C4.26333 25.4323 3.87343 26.0353 3.86912 26.8551L3.84402 31.637L12.9655 31.6417L12.9643 26.8721C12.9641 26.0569 12.5779 25.4553 11.8895 24.9414L16.7315 24.9465C16.0605 25.428 15.6291 26.046 15.6294 26.8958L15.6339 39.7447C15.6342 40.6101 16.1229 41.2096 16.7864 41.6464L11.8356 41.6401Z" fill="#2C2B2B"/>
<path d="M50.4953 39.8259C47.9478 42.5798 43.7432 42.429 40.3707 41.3207L39.6484 38.1496C41.8361 39.8467 45.2801 41.0539 47.7204 39.4425C48.3276 39.0415 48.7606 38.4217 48.8113 37.7888C49.0399 34.9352 44.7876 34.4052 41.9338 32.4326C40.0381 31.1222 39.4466 28.5577 40.8144 26.6624C42.6379 24.1354 47.6148 24.1919 50.2902 25.0777L50.2698 27.949C48.616 26.4952 46.4436 25.9702 44.4416 26.7105C43.7062 26.9824 43.1854 27.5849 43.0606 28.1986C42.29 31.9883 51.0254 31.9138 51.7015 36.2075C51.912 37.5442 51.4166 38.83 50.4953 39.8259Z" fill="#2C2B2B"/>
<path d="M61.2304 39.1901C61.2313 40.2839 61.6795 40.9952 62.5867 41.6261L57.4869 41.6444C58.1457 41.1754 58.5938 40.548 58.5948 39.6827L58.6101 26.8119L55.9146 26.8053C54.9182 26.8029 54.1345 27.2518 53.2812 27.7839L54.1572 24.7695C54.8447 24.8712 55.3908 24.9329 56.0373 24.9322L65.674 24.9218C65.9547 24.9215 66.2656 24.8278 66.5938 24.7796L65.7766 27.8164C64.9217 26.31 62.8229 26.8985 61.2205 26.8157L61.2304 39.1901Z" fill="#2C2B2B"/>
<path d="M31.4939 16.7672L24.2023 20.1907L24.1953 11.4912L31.4795 12.5087L31.4939 16.7672Z" fill="#2C2B2B"/>
<path d="M8.21644 49.2289C6.73494 49.3174 5.55944 48.3343 5.45284 46.9763C5.34574 45.6119 6.39394 44.4556 7.81814 44.33C9.26204 44.2026 10.5318 45.1335 10.6508 46.529C10.7689 47.9139 9.74024 49.1379 8.21644 49.2289ZM9.79434 46.5176C9.62464 45.3573 8.66374 44.6974 7.67434 44.9003C6.61284 45.1179 6.09054 46.1844 6.35224 47.2316C6.60264 48.2335 7.48834 48.8587 8.44974 48.665C9.39974 48.4736 9.95024 47.5836 9.79434 46.5176Z" fill="#2C2B2B"/>
<path d="M51.7303 49.2295C50.2521 49.3173 49.077 48.3342 48.9686 46.9764C48.8601 45.617 49.9132 44.4571 51.3302 44.3295C52.7771 44.1992 54.0457 45.1316 54.1677 46.5296C54.2886 47.9155 53.2572 49.1389 51.7303 49.2295ZM53.3064 46.5185C53.1876 45.6945 52.6537 45.0833 52.0003 44.9238C51.2877 44.7499 50.5256 44.9867 50.1207 45.6159C49.533 46.5292 49.7804 47.7639 50.6534 48.3978C51.2474 48.8291 52.0293 48.7767 52.5959 48.4022C53.1641 48.0267 53.4215 47.3169 53.3064 46.5185Z" fill="#2C2B2B"/>
<path d="M4.65123 49.1258L3.50023 49.119C3.62983 48.7599 3.72003 48.4383 3.71363 48.0911L3.69152 46.8797L1.19632 46.8716L1.16492 48.4496C1.16112 48.6388 1.33292 48.9013 1.49032 49.1226L0.212425 49.1295C0.309725 48.8579 0.435125 48.5598 0.435025 48.3152L0.434025 45.0911C0.434025 44.9098 0.242525 44.57 0.140625 44.4492L1.43372 44.4654C1.03052 45.0523 1.18602 45.6834 1.20572 46.3188L3.65363 46.3318C3.74483 45.7265 3.74183 45.1064 3.53293 44.473L4.64552 44.4696C4.55403 44.7329 4.45082 45.0121 4.45092 45.1825L4.45283 48.4466C4.45283 48.586 4.55963 48.8534 4.65123 49.1258Z" fill="#2C2B2B"/>
<path d="M32.1543 48.4412C31.7242 48.8725 31.2876 49.2119 30.8032 49.2236C30.1682 49.2389 29.5633 49.0618 29.2309 48.5799C28.4751 47.4842 29.6788 46.6069 29.8905 46.353C30.0107 46.2087 29.268 45.8511 29.4414 45.0947C29.5178 44.7615 29.8819 44.4508 30.2543 44.3671C30.7845 44.2479 31.2902 44.4803 31.4734 44.8964C31.6972 45.4046 31.5184 45.9254 30.9696 46.3366C31.9517 47.3867 32.9954 48.3475 34.3225 49.0685C33.6075 49.2454 32.8188 49.1668 32.1543 48.4412ZM30.6534 45.8038C30.9609 45.5949 31.0233 45.1579 30.8909 45.0075C30.7157 44.8085 30.2624 44.7933 30.1253 45.0205C29.9266 45.3499 30.3479 46.0114 30.6534 45.8038ZM31.7718 48.112L30.4547 46.8457C29.9261 46.9809 29.5928 47.7853 29.9438 48.3133C30.1488 48.6218 30.6467 48.775 31.0144 48.6833C31.258 48.6225 31.5614 48.369 31.7718 48.112Z" fill="#2C2B2B"/>
<path d="M57.3699 45.8821C57.4611 45.6018 57.2773 45.1816 57.0882 45.0752C56.821 44.9248 56.3825 44.9037 56.0327 44.9825L56.0279 48.3274C56.0276 48.5617 56.1337 48.8396 56.2296 49.1213L55.0547 49.1211C55.1536 48.9011 55.2811 48.6246 55.2813 48.4454L55.2852 45.3069C55.2855 45.0365 55.1909 44.7306 55.0899 44.4639L57.1175 44.4836C57.5058 44.4874 57.9437 44.8788 58.0678 45.1767C58.3964 45.9656 57.788 46.5684 57.086 46.8939C57.6975 47.718 58.3286 48.456 59.0848 49.0886C58.7844 49.1407 58.1194 49.1816 57.9082 48.9693C57.2182 48.2759 56.6969 47.5326 56.1884 46.7157C56.6845 46.5391 57.1816 46.461 57.3699 45.8821Z" fill="#2C2B2B"/>
<path d="M38.345 46.1087C38.597 45.728 38.4163 45.2556 38.1739 45.0933C37.8878 44.9017 37.3518 44.8417 37.113 45.0661L37.1115 48.52C37.1115 48.6586 37.2586 48.966 37.3218 49.1206L36.1558 49.1244C36.2135 48.9706 36.3611 48.6516 36.3615 48.4946L36.369 45.1037C36.3695 44.8978 36.1823 44.578 36.0703 44.4434L38.1731 44.4827C38.5719 44.4902 39.0185 44.8649 39.1372 45.1609C39.4713 45.994 38.8602 46.5335 38.1751 46.9086C38.764 47.7152 39.3917 48.4552 40.1518 49.0857C39.8948 49.1342 39.2297 49.1861 39.0304 48.9997C38.3226 48.3382 37.7826 47.5411 37.2647 46.7226C37.71 46.5646 38.122 46.4456 38.345 46.1087Z" fill="#2C2B2B"/>
<path d="M66.0693 48.7501C65.2939 49.3825 64.3286 49.3085 63.4096 49.0555L63.1953 48.1897C64.0914 48.8183 65.5172 48.8899 65.701 48.1165C65.7581 47.8763 65.568 47.4731 65.352 47.3631L63.8978 46.6227C63.4961 46.4182 63.2663 45.9119 63.287 45.5023C63.3487 44.285 65.0988 44.2051 66.1049 44.4509L66.1149 45.2481C65.4152 44.7493 64.2628 44.7352 64.1363 45.3898C64.1011 45.5722 64.301 45.964 64.4704 46.0507L65.9398 46.8029C66.2469 46.9601 66.5477 47.3911 66.5616 47.6833C66.5789 48.0465 66.3907 48.488 66.0693 48.7501Z" fill="#2C2B2B"/>
<path d="M47.4475 48.8507C46.6594 49.3833 45.7041 49.2996 44.8768 49.0271L44.6875 48.111C45.2318 48.7006 46.986 49.0192 47.2068 48.1105C47.2574 47.9024 47.0651 47.4688 46.8686 47.3686L45.4063 46.6231C44.9947 46.4133 44.7743 45.9232 44.7971 45.4993C44.8626 44.2854 46.6033 44.1976 47.6191 44.4544L47.6266 45.2496C46.9406 44.7592 45.7803 44.7142 45.6435 45.3946C45.6072 45.575 45.8125 45.9673 45.9772 46.0507L47.3819 46.7622C47.7316 46.9393 48.0421 47.3455 48.0593 47.6771C48.082 48.1162 47.8621 48.5705 47.4475 48.8507Z" fill="#2C2B2B"/>
<path d="M25.8902 48.7656C25.1129 49.3911 24.1405 49.3 23.2391 49.047L22.9922 48.1132C23.5833 48.6828 25.2953 49.0484 25.5513 48.0837C25.6045 47.8833 25.3852 47.4601 25.1858 47.3596L23.7992 46.6603C23.3634 46.4405 23.1037 45.9655 23.1263 45.5052C23.1859 44.2915 24.9122 44.2085 25.9325 44.444L25.9584 45.2205C25.2555 44.7885 24.0996 44.7081 23.9755 45.3911C23.9437 45.5663 24.123 45.9519 24.2965 46.0411L25.7613 46.7936C26.0866 46.9607 26.3852 47.3767 26.3984 47.6775C26.415 48.0559 26.2219 48.4987 25.8902 48.7656Z" fill="#2C2B2B"/>
<path d="M16.3424 46.8605L16.3218 48.4486C17.0618 48.6736 17.7604 48.6403 18.4897 48.2506C18.4332 48.5344 18.305 48.9131 18.1632 49.1233L15.3438 49.122C15.4961 48.7964 15.5639 48.431 15.5635 48.0618L15.5619 45.5489C15.5616 45.1589 15.5119 44.8135 15.3595 44.468L17.8934 44.4482L17.8899 45.2297C17.337 44.9462 16.942 44.9344 16.3412 45.037L16.3363 46.3155L17.4907 46.3204L17.4957 46.9488L16.3424 46.8605Z" fill="#2C2B2B"/>
<path d="M41.7735 46.8459L41.7592 48.4478C42.522 48.6611 43.2511 48.6689 43.9588 48.2125L43.6649 49.1267L40.7891 49.1148C40.8712 48.9336 41.0149 48.6054 41.015 48.4388L41.0164 45.1881C41.0164 45.0126 40.9103 44.724 40.8164 44.4677L43.3326 44.4531L43.3285 45.1854C42.7632 44.9702 42.3737 44.9469 41.7751 45.0281L41.7705 46.3201L42.9114 46.3105L42.9227 46.9491L41.7735 46.8459Z" fill="#2C2B2B"/>
<path d="M13.3543 49.1266L12.1085 49.1198C12.2167 48.857 12.3397 48.5599 12.3391 48.3278L12.3313 44.969C11.7561 44.9754 11.4049 45.0289 10.8906 45.1572L11.0762 44.4502L14.548 44.4569L14.3552 45.1664C13.908 45.0033 13.5625 44.9604 13.0867 44.9758L13.082 48.3295C13.0817 48.5646 13.2078 48.8223 13.3543 49.1266Z" fill="#2C2B2B"/>
<path d="M61.5069 49.1344L60.2019 49.1194C60.3049 48.8386 60.4002 48.5725 60.3998 48.3265L60.3939 44.9658C59.891 44.9739 59.4992 45.0303 58.9609 45.1607L59.1547 44.4502L62.6233 44.458L62.4396 45.1632C62.0218 45.0163 61.6682 44.9624 61.1786 44.9795L61.1615 48.5566L61.5069 49.1344Z" fill="#2C2B2B"/>
<path d="M22.5047 48.2374L22.1737 49.1242L19.3516 49.1213C19.4774 48.8196 19.5799 48.4269 19.579 48.0873L19.5719 45.3044C19.5713 45.0521 19.4717 44.7412 19.3746 44.4748L20.5055 44.4688C20.4301 44.6811 20.3199 44.9445 20.3202 45.0891L20.3283 48.514C21.2147 48.6275 21.7461 48.6329 22.5047 48.2374Z" fill="#2C2B2B"/>
</g>
<defs>
<clipPath id="clip0_557_13">
<rect width="69.0033" height="49.3374" fill="white"/>
</clipPath>
</defs>
</svg>
