<svg width="280" height="89" viewBox="0 0 280 89" fill="none" xmlns="http://www.w3.org/2000/svg">
<g clip-path="url(#clip0_630_113)">
<path d="M49.8281 88.7506V74.275H53.0236V88.7506H49.8281ZM69.2504 88.7506L62.2604 79.566V88.7506H59.1149V74.275H62.0607L68.801 83.2099V74.275H71.9465V88.7506H69.2504ZM83.3303 77.22V88.7506H80.1348V77.22H75.7411V74.275H87.724V77.22H83.3303ZM91.5685 88.7506V74.275H102.453V77.1202H94.714V80.0153H101.504V82.8605H94.714V85.9553H102.553V88.8005H91.5685V88.7506ZM116.583 88.7506L113.487 84.1084H110.991V88.7506H107.795V74.275H114.386C117.781 74.275 119.828 76.0719 119.828 79.0669C119.928 81.1134 118.68 82.9603 116.733 83.6092L120.277 88.8005H116.583V88.7506ZM116.633 79.2166C116.633 77.819 115.684 77.1701 114.136 77.1701H110.991V81.3131H114.186C115.734 81.3131 116.633 80.4645 116.633 79.2666V79.2166ZM135.206 88.7506L128.216 79.566V88.7506H125.071V74.275H128.016L134.757 83.2099V74.275H137.902V88.7506H135.206ZM153.73 88.7506L152.432 85.506H146.29L144.992 88.7506H141.747L147.938 74.1751H150.884L157.075 88.7506H153.78H153.73ZM149.336 77.9687L147.439 82.6608H151.283L149.386 77.9687H149.336ZM165.363 77.22V88.7506H162.168V77.22H157.774V74.275H169.757V77.22H165.363ZM173.951 88.7506V74.275H177.146V88.7506H173.951ZM189.728 89.0002C185.285 89.0002 182.089 85.6558 182.089 81.5627C182.089 77.3697 185.335 74.0254 189.778 74.0254C194.222 74.0254 197.417 77.3698 197.417 81.4629C197.417 85.6059 194.172 89.0002 189.728 89.0002ZM194.122 81.5128C194.222 79.0669 192.325 77.0703 189.878 76.9704C189.878 76.9704 189.778 76.9704 189.728 76.9704C187.182 76.9704 185.384 79.017 185.384 81.4629C185.285 83.9087 187.182 85.9553 189.628 86.0551C189.628 86.0551 189.728 86.0551 189.778 86.0551C192.325 86.0551 194.122 84.0086 194.122 81.5627V81.5128ZM212.745 88.7506L205.755 79.566V88.7506H202.66V74.275H205.606L212.346 83.2099V74.275H215.491V88.7506H212.795H212.745ZM231.269 88.7506L229.971 85.506H223.879L222.581 88.7506H219.336L225.527 74.1751H228.473L234.664 88.7506H231.319H231.269ZM226.925 77.9687L225.028 82.6608H228.872L226.975 77.9687H226.925ZM238.209 88.7506V74.275H241.404V85.8555H248.594V88.7506H238.209Z" fill="#2C2B2B"/>
<path d="M149.486 28.0527C147.789 27.1542 145.942 26.6551 144.044 26.6052C140.25 26.6052 138.103 29.3505 137.553 30.2989V59.7992H126.02V18.419H136.555L137.204 22.7616C137.653 22.0129 140.399 17.5205 145.842 17.5205C147.09 17.5205 148.288 17.7701 149.486 18.1694V28.0527ZM176.847 18.1694C175.699 17.7701 174.451 17.5704 173.203 17.5205C167.76 17.5205 165.014 22.0129 164.565 22.7616L163.916 18.419H153.381V59.7992H164.914V30.2989C165.514 29.3505 167.611 26.6052 171.405 26.6052C173.302 26.6551 175.15 27.1542 176.847 28.0527V18.1694ZM118.98 30.2989V59.7992H108.395L107.746 55.5064C106.997 56.2053 103.652 60.6977 96.6619 60.6977C89.6719 60.6977 85.5278 55.6562 85.5278 48.8676C85.5278 34.2423 102.753 32.1957 107.496 31.6966V30.4986C107.496 28.1026 105.499 25.6068 100.157 25.6068C94.8146 25.6068 90.2211 28.7016 89.4223 29.3006V20.765C93.9158 18.6186 98.8088 17.5205 103.802 17.5704C114.387 17.5704 118.98 22.4122 118.98 30.3488V30.2989ZM107.447 39.733C103.802 39.733 97.1113 40.9809 97.1113 46.7712C97.1113 52.5614 99.1084 51.8127 101.605 51.8127C104.101 51.8127 107.447 49.4666 107.447 44.1755V39.733ZM44.2368 6.18957L54.572 28.452L50.5278 37.1873L33.2525 0L20.0713 6.13965L30.4066 28.4021C29.6077 30.1492 28.3096 32.9445 26.2126 37.4369C21.4693 47.5698 17.8245 50.415 11.3338 50.415C9.53638 50.415 7.78887 50.0656 6.0913 49.4666L0 62.6444C3.09558 63.9422 6.4408 64.6411 9.78602 64.691C17.475 64.691 23.117 59.6994 28.01 49.1671L34.0514 36.189L45.0357 59.8491H61.0628L54.1227 44.9243L58.1669 36.189L69.1512 59.8491H85.1783L57.418 0L44.2368 6.18957ZM274.158 18.419V4.74201L262.625 10.1329V18.419H258.93V25.6068H262.625V59.7992H274.158V25.6068H280V18.419H274.158ZM181.141 59.7992H192.675V18.419H181.141V59.7992ZM249.693 4.74201L238.16 10.1329V18.419H234.465V25.6068H238.16V59.7992H249.693V25.6068H255.535V18.419H249.693V4.74201ZM231.819 35.6898V42.4784C231.819 52.3617 227.026 60.6478 215.193 60.6478C203.359 60.6478 198.566 52.4117 198.566 42.4784V35.6898C198.566 25.8065 203.359 17.5205 215.193 17.5205C227.026 17.5205 231.819 25.8564 231.819 35.6898ZM220.185 34.0925C220.185 29.1509 218.987 25.6568 215.193 25.6568C211.398 25.6568 210.2 29.1509 210.2 34.0925V44.1755C210.2 49.1172 211.398 52.6113 215.193 52.6113C218.987 52.6113 220.185 49.1172 220.185 44.1755V34.0925Z" fill="#2C2B2B"/>
</g>
<defs>
<clipPath id="clip0_630_113">
<rect width="280" height="89" fill="white"/>
</clipPath>
</defs>
</svg>
