<svg width="483" height="96" viewBox="0 0 483 96" fill="none" xmlns="http://www.w3.org/2000/svg">
<path d="M268 69.3977V51.4523H276.72C281.748 51.4523 284.26 53.422 284.26 57.3597C284.26 59.3701 283.615 60.8656 282.326 61.8446C281.036 62.825 279.066 63.3153 276.42 63.3153H271.971V69.3977H268ZM276.395 60.1741C277.734 60.1741 278.715 59.9435 279.335 59.4825C279.955 59.0214 280.264 58.3051 280.264 57.3334C280.264 56.3792 279.964 55.6833 279.36 55.2486C278.757 54.8123 277.785 54.5949 276.445 54.5949H271.971V60.1741H276.395Z" fill="#00D776"/>
<path d="M300.774 69.3976L298.989 65.3256H289.941L288.182 69.3976H284.035L292.254 51.4523H296.803L305.021 69.3976H300.774ZM294.465 54.9465L291.298 62.1348H297.631L294.465 54.9465Z" fill="#00D776"/>
<path d="M321.859 69.3977L317.939 62.688H312.687V69.3977H308.816V51.4523H317.637C322.647 51.4523 325.152 53.3213 325.152 57.0578C325.152 58.2643 324.872 59.2696 324.311 60.0735C323.749 60.8774 322.891 61.5062 321.734 61.9585L326.258 69.3977H321.859ZM317.337 59.5963C318.66 59.5963 319.636 59.3906 320.265 58.9807C320.892 58.5692 321.207 57.9199 321.207 57.033C321.207 56.1445 320.91 55.5084 320.315 55.1217C319.719 54.7366 318.743 54.544 317.386 54.544H312.687V59.5963H317.337Z" fill="#00D776"/>
<path d="M334.728 69.3977V54.7948H327.691V51.4523H345.787V54.7948H338.75V69.3976L334.728 69.3977Z" fill="#00D776"/>
<path d="M363.807 69.3977L353.428 56.8565V69.3977H349.582V51.4523H353.251L363.632 63.9936V51.4523H367.476V69.3976L363.807 69.3977Z" fill="#00D776"/>
<path d="M373.156 69.3977V51.4523H388.185V54.7452H377.177V58.5151H387.658V61.808H377.177V66.1047H388.738L388.236 69.3976L373.156 69.3977Z" fill="#00D776"/>
<path d="M406.379 69.3977L402.459 62.688H397.207V69.3977H393.336V51.4523H402.157C407.167 51.4523 409.672 53.3213 409.672 57.0578C409.672 58.2643 409.392 59.2696 408.83 60.0735C408.268 60.8774 407.411 61.5062 406.254 61.9585L410.778 69.3977H406.379ZM401.856 59.5963C403.179 59.5963 404.156 59.3906 404.784 58.9807C405.412 58.5692 405.727 57.9199 405.727 57.033C405.727 56.1445 405.429 55.5084 404.834 55.1217C404.239 54.7366 403.263 54.544 401.906 54.544H397.207V59.5963H401.856Z" fill="#00D776"/>
<path d="M426.788 56.5047C426.436 55.6497 425.908 55.034 425.203 54.6577C424.5 54.2799 423.52 54.0916 422.263 54.0916C420.839 54.0916 419.75 54.2682 418.997 54.6198C418.243 54.9714 417.865 55.4819 417.865 56.1532C417.865 56.7893 418.095 57.259 418.556 57.5596C419.017 57.8616 419.859 58.1052 421.082 58.2891L424.777 58.8669C426.972 59.2185 428.579 59.8342 429.602 60.7139C430.623 61.5937 431.135 62.8045 431.135 64.3453C431.135 66.0888 430.394 67.4413 428.91 68.4056C427.428 69.3685 425.313 69.85 422.565 69.85C420.571 69.85 418.916 69.6151 417.601 69.1468C416.286 68.6769 415.281 67.965 414.585 67.0093C413.89 66.0551 413.474 64.8399 413.342 63.3663H417.387C417.555 64.5393 418.05 65.3972 418.87 65.9413C419.691 66.4869 420.923 66.7584 422.565 66.7584C424.039 66.7584 425.149 66.5615 425.895 66.1675C426.64 65.775 427.014 65.193 427.014 64.4212C427.014 63.8012 426.766 63.3153 426.272 62.9636C425.778 62.612 424.994 62.3611 423.922 62.2093L420.906 61.7819C418.46 61.4479 416.671 60.8394 415.54 59.9597C414.41 59.0814 413.844 57.8457 413.844 56.2539C413.844 55.1815 414.179 54.2508 414.849 53.4628C415.519 52.6764 416.496 52.068 417.777 51.642C419.06 51.2145 420.587 51 422.364 51C424.811 51 426.703 51.4071 428.044 52.2197C429.385 53.0323 430.264 54.3089 430.683 56.0523L426.788 56.5047Z" fill="#00D776"/>
<path d="M258 39.5405V21.5942H262.022V39.5405H258Z" fill="#00D776"/>
<path d="M281.928 39.5405L271.547 26.9985V39.5405H267.701V21.5942H271.371L281.751 34.1362V21.5942H285.597V39.5405H281.928Z" fill="#00D776"/>
<path d="M296.856 39.5405L289.141 21.5942H293.64L299.244 35.5688L304.875 21.5942H309.223L301.507 39.5405H296.856Z" fill="#00D776"/>
<path d="M312.768 39.5405V21.5942H327.798V24.8872H316.789V28.6567H327.271V31.9497H316.789V36.2476H328.351L327.849 39.5406L312.768 39.5405Z" fill="#00D776"/>
<path d="M345.141 26.6459C344.789 25.7914 344.261 25.1762 343.557 24.7992C342.854 24.4222 341.873 24.2338 340.616 24.2338C339.191 24.2338 338.103 24.4096 337.349 24.7611C336.595 25.1126 336.218 25.6244 336.218 26.2943C336.218 26.931 336.448 27.4007 336.909 27.7015C337.369 28.0033 338.212 28.2464 339.435 28.431L343.13 29.0091C345.324 29.3607 346.934 29.9769 347.956 30.8568C348.978 31.7357 349.489 32.9466 349.489 34.4886C349.489 36.2308 348.747 37.5843 347.265 38.5472C345.781 39.5111 343.666 39.9925 340.918 39.9925C338.924 39.9925 337.269 39.7581 335.954 39.2894C334.638 38.8197 333.633 38.1078 332.937 37.1527C332.242 36.1976 331.827 34.9828 331.693 33.5082H335.74C335.907 34.6811 336.401 35.5404 337.223 36.0844C338.044 36.6293 339.275 36.9018 340.918 36.9018C342.393 36.9018 343.502 36.7045 344.248 36.311C344.993 35.9174 345.367 35.3344 345.367 34.5639C345.367 33.9438 345.119 33.4575 344.625 33.1059C344.131 32.7543 343.348 32.5024 342.275 32.352L339.259 31.9243C336.812 31.5893 335.023 30.9819 333.893 30.102C332.762 29.2231 332.196 27.9868 332.196 26.395C332.196 25.3227 332.531 24.393 333.201 23.605C333.871 22.8179 334.848 22.2105 336.13 21.7827C337.411 21.3559 338.94 21.1421 340.717 21.1421C343.163 21.1421 345.057 21.5483 346.397 22.3609C347.737 23.1744 348.617 24.4517 349.036 26.1939L345.141 26.6459Z" fill="#00D776"/>
<path d="M359.016 39.5405V24.937H351.979V21.5942H370.075V24.937H363.037V39.5405H359.016Z" fill="#00D776"/>
<path d="M392.119 39.5405V27.3003L386.388 39.5405H383.297L377.565 27.4009V39.5405H373.871V21.5942H378.546L384.931 35.2172L391.289 21.5942H395.864V39.5405H392.119Z" fill="#00D776"/>
<path d="M401.543 39.5405V21.5942H416.573V24.8872H405.565V28.6567H416.046V31.9497H405.565V36.2476H417.126L416.624 39.5406L401.543 39.5405Z" fill="#00D776"/>
<path d="M435.953 39.5405L425.572 26.9985V39.5405H421.727V21.5942H425.396L435.776 34.1362V21.5942H439.622V39.5405H435.953Z" fill="#00D776"/>
<path d="M450.455 39.5405V24.937H443.418V21.5942H461.515V24.937H454.477V39.5405H450.455Z" fill="#00D776"/>
<path d="M46.5147 10.1421C48.5291 10.1421 49.1308 10.8136 49.3126 11.4151C49.7349 12.9649 49.9421 14.5653 49.9281 16.1715C49.2566 16.0316 49.4105 15.5839 49.1867 15.2062C48.5961 13.8278 47.2307 12.9433 45.7313 12.968H28.1886L27.9508 13.0519L27.657 53.901L27.8108 65.2324C28.0207 66.6313 28.3984 68.2121 29.8952 68.6738C30.431 68.7838 30.9368 69.0081 31.3781 69.3313C31.3781 69.4153 31.2382 69.779 30.9304 69.709C26.5705 69.3033 22.1823 69.3033 17.8223 69.709L17.7524 69.1914C19.2016 68.9611 20.5078 68.1853 21.4036 67.023C22.3828 65.3863 22.0051 63.3718 22.1591 61.5812L22.5368 30.3428L22.7466 30.189L22.5228 30.0212L22.6627 13.108C17.4447 12.8841 12.4505 12.8841 7.16246 13.024C4.54641 13.2478 1.56675 13.4017 0.671408 16.2276L0.15385 16.3814L0 16.0038C0.671509 14.0031 1.39893 11.4711 3.28746 10.198H46.5147" fill="white"/>
<path d="M88.101 22.451C87.8263 22.8696 87.2638 22.8042 86.9236 23.0004C85.249 23.7723 85.1051 25.5254 85.1051 27.1214L84.8173 65.1258C84.9612 66.5126 84.9612 68.1871 86.4919 68.8151C86.9236 69.1029 87.6039 68.959 87.6824 69.5084L87.5385 69.6523C84.2664 69.4319 80.9825 69.4537 77.7136 69.7177L77.6351 69.5083C78.7602 69.1028 80.2515 68.4617 80.3693 66.8919C80.5579 66.164 80.6719 65.4188 80.7095 64.6679L80.788 45.0443L80.4347 44.9789L53.5896 45.0443L53.3802 45.2536L53.2494 65.8977C53.3261 67.1723 54.0324 68.325 55.1333 68.972C55.4735 69.1159 56.1014 68.8281 56.1014 69.2468L56.0229 69.3907C53.0271 69.3121 49.8219 69.5215 46.682 69.3907L46.4727 69.2468C47.773 68.9461 48.7885 67.9307 49.0891 66.6303L49.2199 61.7506L49.3377 25.9963C49.3579 25.058 48.9483 24.1618 48.2256 23.5629C47.8378 23.1332 47.3536 22.8013 46.8127 22.5948C46.7342 22.307 47.0875 22.4509 47.1529 22.307C50.1898 22.7209 53.2671 22.7472 56.3106 22.3855C55.6173 23.0658 54.4398 23.2882 53.9427 24.2564L53.668 25.1721C53.3541 30.8891 53.3541 36.737 53.3541 42.5979L54.6623 42.7418L80.7356 42.5324L80.8141 42.323C80.7356 36.4621 81.3636 30.5489 80.7356 24.6749C80.4626 23.6865 79.6596 22.9339 78.6555 22.7256C78.5116 22.3854 78.9302 22.3854 79.1265 22.307C81.7967 22.5883 84.489 22.5883 87.1591 22.307C87.4338 22.3855 87.9832 22.1107 88.1271 22.4509" fill="white"/>
<path d="M125.543 54.329L125.412 54.4075H104.978V54.1197L106.155 51.3986L115.496 29.7341L115.64 29.6033L116.268 31.0424L125.543 54.329ZM116.543 21.6229L116.15 22.5387L102.387 53.858L97.7169 64.0884L96.1209 66.6002C94.9653 67.8954 93.5036 68.8805 91.8691 69.4652C92.2093 70.0277 92.9812 69.4652 93.4783 69.5305C96.0043 69.3139 98.5452 69.3402 101.066 69.6091V69.5305C100.322 68.6969 99.9903 67.5734 100.163 66.4692C100.977 63.3439 102.099 60.307 103.513 57.4032L103.787 56.9845L126.315 56.8406L126.786 56.9845C127.911 60.1243 129.507 63.1202 130.214 66.3908C130.156 67.5889 129.629 68.7163 128.749 69.5305L128.893 69.6091L132.516 69.4652C135.133 69.3213 137.605 69.7399 140.117 69.6091L139.973 69.1119C138.037 68.9246 136.356 67.6957 135.591 65.9067C129.381 51.2719 123.123 36.5977 116.817 21.8844L116.543 21.6229Z" fill="white"/>
<path d="M198.817 45.6778C195.513 45.4913 192.2 45.5877 188.913 45.9656L188.848 46.2403C188.769 53.1348 188.56 60.3169 188.979 67.2899L189.266 67.4208C194.002 67.0806 200.073 67.774 204.965 66.8059C206.494 66.2433 207.728 65.0808 208.38 63.5876H208.655L208.799 63.6661C208.464 65.3063 207.923 66.8975 207.189 68.402C206.711 69.0807 205.989 69.5492 205.175 69.7102C197.024 69.7887 189.907 69.2261 181.626 69.7102L181.482 69.2916C182.754 68.8768 183.775 67.918 184.269 66.6751L184.544 64.8698L184.622 52.3761V28.3175C184.478 26.6429 184.622 24.3928 182.948 23.163C182.66 22.7444 181.888 22.8752 181.888 22.1818H182.176C188.312 22.1818 194.094 22.1163 200.308 21.9724C200.727 22.051 201.289 22.051 201.616 22.3257C202.334 23.4472 202.72 24.7489 202.728 26.0803C202.454 26.3027 202.31 25.9495 202.166 25.884C201.342 24.2748 199.667 23.9348 197.993 23.9871L189.057 24.1964L188.861 24.2749C188.861 30.7507 188.652 37.1742 188.927 43.5192L189.201 43.5978C192.95 43.6639 196.698 43.4979 200.426 43.1006C201.514 42.7523 202.384 41.9296 202.794 40.8636L203.213 40.7982C203.038 43.1619 202.995 45.5335 203.082 47.9019H202.794C202.794 47.9019 203.356 46.018 198.869 45.678" fill="white"/>
<path d="M234.167 27.7782C236.26 31.0488 236.26 36.4911 234.428 40.1803C232.27 44.9946 227.181 45.845 222.379 45.4918C221.895 45.4918 221.189 45.7011 221.071 45.1385L220.901 23.7357C224.262 22.2816 228.127 22.5954 231.21 24.573C232.433 25.411 233.46 26.5047 234.219 27.7782M234.284 22.9638C228.149 19.8241 220.548 22.3359 213.509 21.7864L213.366 21.9303C213.791 22.1182 214.228 22.2799 214.674 22.4144C216.127 23.3226 216.961 24.9568 216.846 26.6662C216.846 40.4681 216.846 51.5228 216.78 65.3509C216.822 66.3272 216.526 67.2882 215.943 68.0721C215.119 68.7786 214.059 68.7786 213.156 69.2626V69.5373C216.78 69.5373 220.273 69.3934 223.753 69.6158L223.962 69.3934C223.753 68.7785 222.85 68.9878 222.366 68.6346C221.394 67.7711 220.857 66.5196 220.901 65.22C220.901 59.3591 220.901 53.2235 221.032 47.1008C223.652 47.179 226.274 47.0828 228.881 46.8131C230.346 48.7623 231.746 50.7377 233.068 52.5955C237.254 57.9593 240.525 64.6575 246.66 68.2159C249.486 69.465 252.59 69.9478 255.661 69.6157L256.001 69.3279C255.517 68.6346 254.34 69.1186 253.633 68.8438C251.807 68.2892 250.151 67.281 248.819 65.9134C242.618 59.5029 237.948 52.3992 233.277 45.2693C235.812 43.693 237.841 41.4229 239.125 38.7281C240.946 34.6569 240.525 29.9326 238.013 26.2475C237.044 24.8566 235.745 23.7283 234.232 22.9637L234.284 22.9638Z" fill="white"/>
<path d="M178.174 21.8433C175.185 22.171 172.176 22.2629 169.173 22.118C168.898 21.9741 168.898 22.2488 168.964 22.5366C169.876 23.5062 170.174 24.9031 169.735 26.1605C168.898 28.4499 167.708 30.5431 166.661 32.7017L152.781 59.6777L152.545 59.9132L139.698 30.6871C139.005 28.5939 137.683 26.6315 138.089 24.3421C138.442 23.2955 139.764 22.8115 140.261 22.0396C136.406 22.3149 132.537 22.3149 128.683 22.0396V22.4582C131.129 22.5367 133 24.7607 133.628 26.8539L142.511 46.4775L150.164 64.4528L148.934 66.703L136.516 88.1362C134.763 90.8442 132.591 94.2588 129.124 94.5466C128.85 94.6774 128.418 94.6774 128.418 94.9652C130.989 95.2762 134.018 94.7452 136.053 93.1443C139.978 89.442 150.897 68.5214 153.474 64.1258L170.481 31.8514C172.365 28.5676 173.411 23.8973 177.663 22.7721C177.951 22.5759 178.5 22.7067 178.5 22.1572L178.16 21.8825" fill="white"/>
<path fill-rule="evenodd" clip-rule="evenodd" d="M462 7.73987C462 6.89687 462.755 6.42867 463.527 6.21357L480.89 0.108169C481.86 -0.350731 483.093 0.727769 482.671 1.88887L476.565 19.2523C476.314 19.9877 475.882 20.7786 475.039 20.7786C474.196 20.7786 473.513 20.0953 473.513 19.2523V9.26617H463.527C462.684 9.26617 462 8.58287 462 7.73987Z" fill="#00D776"/>
<path fill-rule="evenodd" clip-rule="evenodd" d="M475.273 17.4922V7.5061H465.287C464.494 7.5061 463.85 6.8995 463.775 6.1264L463.527 6.2136C462.755 6.4287 462 6.8969 462 7.7399C462 8.5829 462.684 9.2662 463.527 9.2662H473.513V19.2523C473.513 20.0953 474.196 20.7786 475.039 20.7786C475.882 20.7786 476.314 19.9877 476.565 19.2523L476.652 19.0038C475.879 18.929 475.273 18.2849 475.273 17.4922Z" fill="#03B764"/>
</svg>
