<svg width="615" height="87" viewBox="0 0 615 87" fill="none" xmlns="http://www.w3.org/2000/svg">
<path d="M449 43.6162V28.384H456.402C460.669 28.384 462.802 30.0559 462.802 33.3982C462.802 35.1047 462.254 36.3741 461.16 37.2051C460.065 38.0372 458.393 38.4534 456.147 38.4534H452.371V43.6162H449ZM456.126 35.7871C457.263 35.7871 458.095 35.5914 458.621 35.2001C459.147 34.8087 459.41 34.2007 459.41 33.3759C459.41 32.566 459.155 31.9753 458.642 31.6063C458.131 31.236 457.306 31.0515 456.168 31.0515H452.371V35.7871H456.126Z" fill="#00D776"/>
<path d="M476.819 43.6161L475.304 40.1597H467.624L466.13 43.6161H462.611L469.587 28.384H473.448L480.424 43.6161H476.819ZM471.464 31.3499L468.775 37.4513H474.151L471.464 31.3499Z" fill="#00D776"/>
<path d="M494.716 43.6162L491.389 37.9209H486.93V43.6162H483.645V28.384H491.132C495.385 28.384 497.511 29.9704 497.511 33.1419C497.511 34.1661 497.273 35.0194 496.797 35.7017C496.32 36.3841 495.592 36.9178 494.61 37.3017L498.45 43.6162H494.716ZM490.877 35.2967C492 35.2967 492.829 35.1221 493.363 34.7741C493.895 34.4249 494.163 33.8738 494.163 33.1209C494.163 32.3668 493.91 31.8268 493.405 31.4986C492.899 31.1717 492.071 31.0082 490.919 31.0082H486.93V35.2967H490.877Z" fill="#00D776"/>
<path d="M505.639 43.6162V31.2212H499.667V28.384H515.026V31.2212H509.053V43.6161L505.639 43.6162Z" fill="#00D776"/>
<path d="M530.322 43.6162L521.512 32.9711V43.6162H518.248V28.384H521.362L530.173 39.0291V28.384H533.436V43.6161L530.322 43.6162Z" fill="#00D776"/>
<path d="M538.257 43.6162V28.384H551.014V31.1791H541.67V34.379H550.567V37.174H541.67V40.8211H551.483L551.057 43.6161L538.257 43.6162Z" fill="#00D776"/>
<path d="M566.457 43.6162L563.129 37.9209H558.671V43.6162H555.386V28.384H562.873C567.126 28.384 569.252 29.9704 569.252 33.1419C569.252 34.1661 569.014 35.0194 568.537 35.7017C568.061 36.3841 567.332 36.9178 566.35 37.3017L570.191 43.6162H566.457ZM562.618 35.2967C563.741 35.2967 564.57 35.1221 565.103 34.7741C565.636 34.4249 565.903 33.8738 565.903 33.1209C565.903 32.3668 565.651 31.8268 565.145 31.4986C564.64 31.1717 563.812 31.0082 562.66 31.0082H558.671V35.2967H562.618Z" fill="#00D776"/>
<path d="M583.78 32.6724C583.482 31.9467 583.033 31.4241 582.435 31.1047C581.838 30.784 581.006 30.6242 579.94 30.6242C578.731 30.6242 577.806 30.7741 577.167 31.0725C576.527 31.371 576.206 31.8043 576.206 32.3741C576.206 32.914 576.402 33.3127 576.793 33.5678C577.185 33.8241 577.899 34.031 578.937 34.1871L582.074 34.6774C583.936 34.9759 585.301 35.4985 586.169 36.2452C587.036 36.992 587.471 38.0198 587.471 39.3276C587.471 40.8074 586.841 41.9554 585.582 42.774C584.324 43.5913 582.528 44 580.196 44C578.503 44 577.099 43.8007 575.982 43.4031C574.866 43.0043 574.013 42.4 573.422 41.5888C572.833 40.7789 572.48 39.7474 572.367 38.4966H575.801C575.944 39.4923 576.363 40.2204 577.059 40.6823C577.757 41.1454 578.802 41.3758 580.196 41.3758C581.447 41.3758 582.389 41.2087 583.022 40.8743C583.655 40.5411 583.972 40.0471 583.972 39.392C583.972 38.8657 583.761 38.4533 583.343 38.1548C582.923 37.8563 582.258 37.6434 581.348 37.5146L578.788 37.1518C576.711 36.8682 575.193 36.3517 574.233 35.6051C573.274 34.8595 572.793 33.8107 572.793 32.4595C572.793 31.5493 573.078 30.7593 573.646 30.0905C574.215 29.4229 575.045 28.9066 576.132 28.5449C577.22 28.1821 578.517 28 580.025 28C582.102 28 583.708 28.3456 584.846 29.0353C585.985 29.725 586.731 30.8086 587.087 32.2885L583.78 32.6724Z" fill="#00D776"/>
<path d="M265.984 43.7452V28.5127H269.398V43.7452H265.984Z" fill="#00D776"/>
<path d="M286.294 43.7452L277.483 33.0998V43.7452H274.219V28.5127H277.334L286.144 39.1581V28.5127H289.408V43.7452H286.294Z" fill="#00D776"/>
<path d="M298.965 43.7452L292.416 28.5127H296.235L300.992 40.3741L305.771 28.5127H309.461L302.912 43.7452H298.965Z" fill="#00D776"/>
<path d="M312.471 43.7452V28.5127H325.228V31.3077H315.884V34.5072H324.781V37.3023H315.884V40.9502H325.697L325.271 43.7453L312.471 43.7452Z" fill="#00D776"/>
<path d="M339.949 32.8009C339.651 32.0756 339.202 31.5535 338.605 31.2335C338.008 30.9135 337.175 30.7536 336.109 30.7536C334.899 30.7536 333.975 30.9028 333.335 31.2011C332.695 31.4995 332.375 31.9339 332.375 32.5025C332.375 33.0429 332.571 33.4416 332.962 33.6969C333.353 33.9531 334.068 34.1594 335.106 34.3161L338.242 34.8068C340.105 35.1052 341.471 35.6282 342.339 36.3751C343.206 37.1211 343.64 38.1489 343.64 39.4577C343.64 40.9364 343.01 42.0852 341.752 42.9025C340.493 43.7207 338.697 44.1293 336.365 44.1293C334.672 44.1293 333.267 43.9303 332.152 43.5325C331.034 43.1338 330.181 42.5296 329.591 41.7189C329.001 40.9082 328.649 39.8771 328.535 38.6255H331.97C332.112 39.6211 332.531 40.3504 333.228 40.8122C333.925 41.2747 334.971 41.506 336.365 41.506C337.616 41.506 338.558 41.3385 339.191 41.0045C339.824 40.6704 340.141 40.1756 340.141 39.5216C340.141 38.9953 339.931 38.5825 339.511 38.2841C339.092 37.9856 338.427 37.7718 337.517 37.6442L334.957 37.2811C332.88 36.9968 331.362 36.4812 330.402 35.7344C329.442 34.9884 328.962 33.9391 328.962 32.588C328.962 31.6778 329.246 30.8887 329.815 30.2199C330.384 29.5518 331.212 29.0362 332.301 28.6731C333.388 28.3109 334.686 28.1294 336.194 28.1294C338.27 28.1294 339.878 28.4742 341.016 29.1639C342.153 29.8544 342.9 30.9385 343.255 32.4173L339.949 32.8009Z" fill="#00D776"/>
<path d="M351.725 43.7452V31.35H345.752V28.5127H361.112V31.35H355.138V43.7452H351.725Z" fill="#00D776"/>
<path d="M379.822 43.7452V33.3559L374.958 43.7452H372.334L367.47 33.4413V43.7452H364.334V28.5127H368.302L373.721 40.0757L379.118 28.5127H383.001V43.7452H379.822Z" fill="#00D776"/>
<path d="M387.822 43.7452V28.5127H400.58V31.3077H391.236V34.5072H400.132V37.3023H391.236V40.9502H401.049L400.623 43.7453L387.822 43.7452Z" fill="#00D776"/>
<path d="M417.028 43.7452L408.217 33.0998V43.7452H404.953V28.5127H408.068L416.878 39.1581V28.5127H420.143V43.7452H417.028Z" fill="#00D776"/>
<path d="M429.336 43.7452V31.35H423.363V28.5127H438.723V31.35H432.75V43.7452H429.336Z" fill="#00D776"/>
<path d="M46.2578 1.99976C48.2611 1.99976 48.8594 2.66756 49.0402 3.26576C49.4602 4.80696 49.6662 6.39856 49.6523 7.99586C48.9845 7.85676 49.1376 7.41156 48.915 7.03596C48.3277 5.66516 46.9698 4.78556 45.4787 4.81006H28.0329L27.7964 4.89356L27.5042 45.517L27.6572 56.7858C27.8659 58.177 28.2415 59.7491 29.7301 60.2082C30.2629 60.3176 30.7659 60.5407 31.2048 60.8621C31.2048 60.9456 31.0657 61.3073 30.7596 61.2377C26.4237 60.8343 22.0598 60.8343 17.7239 61.2377L17.6543 60.723C19.0955 60.4939 20.3945 59.7224 21.2854 58.5666C22.2592 56.9389 21.8836 54.9355 22.0367 53.1548L22.4123 22.089L22.621 21.936L22.3984 21.7691L22.5375 4.94926C17.3483 4.72666 12.3817 4.72666 7.1229 4.86576C4.5213 5.08836 1.5581 5.24136 0.6677 8.05166L0.153 8.20466L0 7.82906C0.6678 5.83946 1.3912 3.32146 3.2693 2.05536H46.2578" fill="white"/>
<path d="M87.6142 14.2406C87.341 14.6569 86.7816 14.5919 86.4433 14.787C84.778 15.5546 84.6349 17.298 84.6349 18.8852L84.3487 56.6797C84.4918 58.0588 84.4918 59.7241 86.014 60.3486C86.4433 60.6348 87.1199 60.4917 87.1979 61.0381L87.0548 61.1812C83.8008 60.962 80.535 60.9837 77.2842 61.2462L77.2061 61.038C78.325 60.6347 79.8081 59.9972 79.9252 58.436C80.1128 57.7122 80.2261 56.9711 80.2635 56.2243L80.3416 36.7091L79.9903 36.6441L53.2934 36.7091L53.0852 36.9173L52.9551 57.4473C53.0314 58.7149 53.7338 59.8612 54.8286 60.5047C55.1669 60.6478 55.7914 60.3616 55.7914 60.7779L55.7133 60.921C52.734 60.8429 49.5465 61.0511 46.424 60.921L46.2158 60.7779C47.509 60.4789 48.5189 59.4691 48.8178 58.1759L48.9479 53.3231L49.065 17.7663C49.0851 16.8332 48.6778 15.942 47.9591 15.3464C47.5734 14.919 47.0919 14.589 46.554 14.3836C46.4759 14.0974 46.8272 14.2405 46.8923 14.0974C49.9124 14.509 52.9727 14.5352 55.9994 14.1755C55.3099 14.852 54.1389 15.0732 53.6446 16.036L53.3714 16.9467C53.0592 22.6321 53.0592 28.4477 53.0592 34.2762L54.3602 34.4193L80.2895 34.2111L80.3676 34.0029C80.2895 28.1743 80.914 22.2938 80.2895 16.4522C80.018 15.4693 79.2194 14.7208 78.2209 14.5137C78.0778 14.1754 78.4941 14.1754 78.6893 14.0974C81.3447 14.3772 84.0222 14.3772 86.6775 14.0974C86.9507 14.1755 87.4971 13.9022 87.6402 14.2405" fill="white"/>
<path d="M124.849 45.9426L124.719 46.0207H104.397V45.7345L105.568 43.0284L114.858 21.4836L115.001 21.3535L115.625 22.7846L124.849 45.9426ZM115.898 13.4172L115.508 14.3279L101.821 45.4742L97.1768 55.6481L95.5896 58.146C94.4404 59.4341 92.9867 60.4137 91.3613 60.9952C91.6996 61.5546 92.4672 60.9952 92.9616 61.0602C95.4736 60.8448 98.0005 60.8709 100.508 61.1383V61.0602C99.7671 60.2312 99.4376 59.1139 99.6098 58.0158C100.419 54.9077 101.535 51.8876 102.94 48.9998L103.214 48.5835L125.617 48.4404L126.086 48.5835C127.204 51.7059 128.792 54.6853 129.494 57.9378C129.436 59.1293 128.913 60.2505 128.037 61.0602L128.18 61.1383L131.784 60.9952C134.386 60.8521 136.845 61.2684 139.343 61.1383L139.2 60.6439C137.274 60.4576 135.603 59.2355 134.841 57.4564C128.666 42.9024 122.443 28.3093 116.172 13.6772L115.898 13.4172Z" fill="white"/>
<path d="M197.718 37.3391C194.433 37.1537 191.138 37.2494 187.87 37.6252L187.805 37.8984C187.727 44.7548 187.518 51.8973 187.935 58.8318L188.221 58.9619C192.931 58.6236 198.967 59.3132 203.833 58.3504C205.354 57.7909 206.58 56.6349 207.229 55.1499H207.502L207.645 55.2281C207.312 56.8591 206.775 58.4415 206.045 59.9377C205.569 60.6127 204.852 61.0787 204.041 61.2388C195.936 61.3168 188.858 60.7574 180.623 61.2388L180.48 60.8224C181.744 60.41 182.76 59.4564 183.251 58.2204L183.524 56.425L183.602 44.0004V20.0746C183.459 18.4093 183.602 16.1716 181.937 14.9486C181.651 14.5323 180.883 14.6624 180.883 13.9728H181.17C187.271 13.9728 193.022 13.9077 199.202 13.7646C199.618 13.8427 200.177 13.8427 200.503 14.1159C201.216 15.2312 201.6 16.5257 201.609 17.8498C201.335 18.071 201.192 17.7197 201.049 17.6546C200.23 16.0543 198.564 15.7161 196.899 15.7681L188.013 15.9763L187.818 16.0544C187.818 22.4944 187.61 28.8824 187.883 35.1924L188.156 35.2705C191.884 35.3363 195.612 35.1712 199.319 34.7761C200.4 34.4298 201.267 33.6115 201.674 32.5514L202.09 32.4864C201.917 34.837 201.873 37.1955 201.96 39.5509H201.674C201.674 39.5509 202.233 37.6774 197.771 37.3392" fill="white"/>
<path d="M232.872 19.5385C234.953 22.791 234.953 28.2033 233.132 31.8721C230.985 36.6598 225.924 37.5055 221.15 37.1542C220.668 37.1542 219.966 37.3624 219.849 36.8029L219.68 15.5183C223.022 14.0722 226.866 14.3843 229.932 16.351C231.148 17.1844 232.169 18.272 232.924 19.5385M232.989 14.7507C226.887 11.6283 219.328 14.1262 212.329 13.5798L212.186 13.7229C212.609 13.9097 213.044 14.0705 213.487 14.2043C214.931 15.1075 215.762 16.7327 215.646 18.4326C215.646 32.1583 215.646 43.1519 215.581 56.9037C215.623 57.8746 215.329 58.8303 214.749 59.6098C213.929 60.3124 212.875 60.3124 211.978 60.7937V61.0669C215.581 61.0669 219.055 60.9238 222.516 61.145L222.724 60.9238C222.516 60.3123 221.618 60.5205 221.137 60.1692C220.17 59.3105 219.636 58.0659 219.68 56.7735C219.68 50.9449 219.68 44.8432 219.81 38.7544C222.415 38.8321 225.023 38.7365 227.616 38.4682C229.073 40.4067 230.465 42.3712 231.779 44.2187C235.942 49.5529 239.195 56.2141 245.297 59.7528C248.106 60.995 251.193 61.4752 254.248 61.1449L254.586 60.8587C254.104 60.1692 252.934 60.6505 252.231 60.3773C250.415 59.8257 248.768 58.8231 247.443 57.463C241.277 51.088 236.632 44.0235 231.987 36.933C234.508 35.3654 236.526 33.1078 237.803 30.4279C239.613 26.3792 239.195 21.681 236.697 18.0162C235.733 16.633 234.441 15.5109 232.937 14.7506L232.989 14.7507Z" fill="white"/>
<path d="M177.189 13.6362C174.217 13.9621 171.225 14.0535 168.238 13.9094C167.965 13.7663 167.965 14.0395 168.03 14.3257C168.938 15.2899 169.234 16.6791 168.798 17.9295C167.965 20.2063 166.781 22.2879 165.74 24.4346L151.937 51.2616L151.702 51.4958L138.926 22.4311C138.237 20.3495 136.923 18.3979 137.326 16.1212C137.677 15.0804 138.991 14.599 139.486 13.8314C135.653 14.1052 131.805 14.1052 127.972 13.8314V14.2477C130.405 14.3258 132.265 16.5375 132.89 18.6191L141.723 38.1343L149.334 56.0103L148.111 58.2481L135.762 79.5629C134.018 82.256 131.859 85.6517 128.411 85.9379C128.138 86.068 127.708 86.068 127.708 86.3542C130.265 86.6635 133.277 86.1354 135.301 84.5434C139.204 80.8615 150.063 60.0565 152.626 55.6851L169.539 23.589C171.413 20.3234 172.453 15.6788 176.682 14.5599C176.968 14.3647 177.514 14.4948 177.514 13.9484L177.176 13.6752" fill="white"/>
<g filter="url(#filter0_i_78_860)">
<path fill-rule="evenodd" clip-rule="evenodd" d="M587.581 14.0911C587.581 13.2481 588.336 12.7799 589.108 12.5648L606.471 6.45939C607.441 6.00047 608.674 7.07902 608.252 8.24012L602.146 25.6035C601.895 26.3389 601.463 27.1298 600.62 27.1298C599.777 27.1298 599.094 26.4465 599.094 25.6035L599.094 15.6174L589.108 15.6174C588.265 15.6174 587.581 14.9341 587.581 14.0911Z" fill="#00D776"/>
</g>
<defs>
<filter id="filter0_i_78_860" x="587.581" y="6.35132" width="20.7559" height="20.7786" filterUnits="userSpaceOnUse" color-interpolation-filters="sRGB">
<feFlood flood-opacity="0" result="BackgroundImageFix"/>
<feBlend mode="normal" in="SourceGraphic" in2="BackgroundImageFix" result="shape"/>
<feColorMatrix in="SourceAlpha" type="matrix" values="0 0 0 0 0 0 0 0 0 0 0 0 0 0 0 0 0 0 127 0" result="hardAlpha"/>
<feOffset dx="2" dy="-2"/>
<feComposite in2="hardAlpha" operator="arithmetic" k2="-1" k3="1"/>
<feColorMatrix type="matrix" values="0 0 0 0 0 0 0 0 0 0 0 0 0 0 0 0 0 0 0.15 0"/>
<feBlend mode="normal" in2="shape" result="effect1_innerShadow_78_860"/>
</filter>
</defs>
</svg>
