<?xml version="1.0" encoding="UTF-8"?><svg id="a" xmlns="http://www.w3.org/2000/svg" viewBox="0 0 132.733 22.8093"><g id="b"><path d="M58.0267,9.8021c-.19.65-.487,1.3-.839,1.868-.352.596-.813,1.165-1.327,1.625-.542.487-1.137.866-1.814,1.137-.731.298-1.49.433-2.248.433-.975.027-1.922-.162-2.816-.541-.812-.352-1.543-.8669-2.139-1.516-.596-.677-1.056-1.463-1.354-2.302-.325-.921-.487-1.923-.487-2.897,0-1.002.162-2.031.487-2.979.298-.893.786-1.706,1.408-2.41.596-.677,1.327-1.2451,2.166-1.624C49.9577.1901,50.9327,0,51.9077,0c.839,0,1.651.162,2.409.487.704.298,1.327.704,1.869,1.246.514.4871.947,1.056,1.299,1.679.325.568.515,1.191.596,1.814h-2.897c-.081-.352-.244-.677-.433-.975-.19-.325-.434-.5959-.704-.839-.271-.244-.596-.461-.948-.596-.379-.1349-.758-.217-1.137-.217-.596,0-1.165.136-1.706.407-.488.27-.921.622-1.273,1.083-.352.487-.623,1.029-.785,1.624-.352,1.246-.352,2.573,0,3.818.135.542.406,1.056.758,1.517.325.433.731.785,1.219,1.001.514.244,1.083.379,1.678.352.379,0,.759-.054,1.138-.189.352-.136.649-.298.947-.515.271-.243.515-.514.758-.812.217-.325.38-.65.515-1.002h2.843l-.027-.081Z" fill="#323645"/><path d="M58.027,9.802c-.19.65-.488,1.3-.84,1.868-.352.596-.812,1.165-1.327,1.625-.541.487-1.137.867-1.814,1.137-.731.298-1.489.433-2.247.433-.975.028-1.923-.162-2.816-.541-.812-.352-1.543-.867-2.139-1.516-.596-.677-1.056-1.463-1.354-2.302-.325-.921-.487-1.922-.487-2.897,0-1.002.162-2.031.487-2.979.298-.893.785-1.706,1.408-2.41.596-.676,1.327-1.245,2.166-1.624.894-.406,1.868-.596,2.843-.596.84,0,1.652.163,2.41.487.704.298,1.327.705,1.868,1.246.515.487.948,1.056,1.3,1.679.325.568.515,1.191.596,1.814h-2.897c-.082-.3521-.244-.677-.434-.975-.189-.325-.433-.595-.704-.839-.27-.244-.595-.46-.947-.596-.379-.135-.759-.216-1.138-.216-.595,0-1.164.135-1.705.406-.488.27-.921.622-1.273,1.083-.352.487-.623,1.029-.785,1.624-.352,1.246-.352,2.573,0,3.818.135.542.406,1.056.758,1.517.325.433.731.785,1.218,1.001.515.244,1.083.38,1.679.353.379,0,.758-.055,1.137-.19.352-.135.65-.298.948-.515.271-.243.514-.514.758-.812.217-.325.379-.65.515-1.002h2.843l-.027-.081Z" fill="#323645"/><path d="M67.9369,9.1797h-4.034l2.003-4.468c.054.135.109.271.163.406.135.298.271.596.379.839.108.244.244.488.352.731.054.109.108.217.135.325l.461,1.0291c.027.054.027.082.054.136.162.298.325.65.487,1.002M67.2059.5687h-2.518l-6.309,13.999h3.114c.108-.217.216-.488.352-.731.108-.217.189-.433.298-.65.216-.433.406-.894.568-1.273.027-.054.027-.108.054-.162h6.255l1.246,2.816h3.195l-6.255-13.999Z" fill="#323645"/><path d="M67.937,9.179h-4.035l2.004-4.467c.054.135.108.27.163.406.135.298.27.595.379.839.108.244.243.487.352.731.054.109.108.217.135.325l.46,1.029c.027.054.027.081.055.135.162.298.324.65.487,1.002M67.206.569h-2.518l-6.309,13.999h3.114c.108-.217.216-.488.352-.731.108-.217.189-.434.297-.65.217-.434.407-.894.569-1.273.027-.054.027-.108.054-.162h6.255l1.246,2.816h3.195l-6.255-13.999Z" fill="#323645"/><polygon points="75.1936 .5687 77.7926 .5687 84.5086 9.3146 84.5086 .5687 87.4326 .5687 87.4326 14.5677 84.9956 14.5677 78.1446 5.6317 78.1446 14.5677 75.1936 14.5677 75.1936 .5687" fill="#323645"/><polygon points="75.194 .569 77.793 .569 84.508 9.315 84.508 .569 87.433 .569 87.433 14.568 84.996 14.568 78.145 5.632 78.145 14.568 75.194 14.568 75.194 .569" fill="#323645"/><path d="M98.6966,9.1797h-4.062l2.004-4.468.163.406c.135.298.27.596.379.839.108.244.243.488.352.731.054.109.108.217.135.325l.46,1.0291c.028.054.028.082.055.136.189.298.352.65.514,1.002M97.9656.5687h-2.518l-6.309,13.999h3.114c.108-.217.216-.488.352-.731.108-.217.189-.433.298-.65.216-.433.406-.894.568-1.273.027-.054.027-.108.054-.162h6.255l1.246,2.816h3.195l-6.255-13.999Z" fill="#323645"/><path d="M98.697,9.179h-4.062l2.004-4.467.162.406c.136.298.271.595.379.839.109.244.244.487.352.731.054.109.109.217.136.325l.46,1.029c.027.054.027.081.054.135.19.298.352.65.515,1.002M97.966.569h-2.519l-6.309,13.999h3.114c.109-.217.217-.488.352-.731.109-.217.19-.434.298-.65.217-.434.406-.894.569-1.273.027-.054.027-.108.054-.162h6.255l1.245,2.816h3.195l-6.254-13.999Z" fill="#323645"/><path d="M108.6342,6.6068v-3.791h3.114c.947,0,1.651.163,2.058.5421.406.352.622.839.622,1.354.027.514-.216,1.029-.65,1.3539-.406.3521-1.083.541-2.03.541h-3.114ZM114.3202.5958c-.785-.217-1.598-.325-2.41-.325h-6.228v14.297h2.952v-5.416h2.41l3.736,5.416h3.439l-4.034-5.659c.947-.271,1.814-.84,2.409-1.625.515-.758.813-1.652.786-2.572,0-.623-.109-1.246-.325-1.814-.217-.542-.569-1.002-1.029-1.381-.515-.434-1.083-.731-1.706-.921" fill="#323645"/><path d="M108.634,6.607v-3.791h3.114c.948,0,1.652.163,2.058.542.406.352.622.839.622,1.354.028.514-.216,1.028-.649,1.353-.407.352-1.083.542-2.031.542h-3.114ZM114.32.596c-.785-.217-1.597-.325-2.41-.325h-6.227v14.297h2.951v-5.416h2.41l3.736,5.416h3.439l-4.034-5.659c.948-.271,1.814-.84,2.41-1.625.514-.758.812-1.652.785-2.572,0-.623-.108-1.246-.325-1.815-.217-.541-.569-1.001-1.029-1.381-.514-.433-1.083-.731-1.706-.92" fill="#323645"/><polygon points="123.8243 14.5676 123.8243 9.0706 117.9213 .5685 121.4953 .5685 125.2863 6.2006 129.1583 .5685 132.7323 .5685 126.8033 9.0706 126.8033 14.5406 123.8243 14.5406 123.8243 14.5676" fill="#323645"/><polygon points="123.824 14.568 123.824 9.071 117.921 .569 121.496 .569 125.286 6.201 129.159 .569 132.733 .569 126.803 9.071 126.803 14.541 123.824 14.541 123.824 14.568" fill="#323645"/><polygon points="50.7971 17.8169 48.9021 17.8169 48.9021 22.5009 48.1711 22.5009 48.1711 17.8169 46.2751 17.8169 46.2751 17.1939 50.7971 17.1939 50.7971 17.8169" fill="#323645"/><polygon points="50.797 17.817 48.902 17.817 48.902 22.501 48.171 22.501 48.171 17.817 46.275 17.817 46.275 17.194 50.797 17.194 50.797 17.817" fill="#323645"/><polygon points="57.5664 22.5283 53.5864 22.5283 53.5864 17.1943 57.5124 17.1943 57.5124 17.8173 54.3444 17.8173 54.3444 19.4142 57.1334 19.4142 57.1334 20.0372 54.3444 20.0372 54.3444 21.8782 57.5664 21.8782 57.5664 22.5283" fill="#323645"/><polygon points="57.566 22.528 53.586 22.528 53.586 17.194 57.512 17.194 57.512 17.817 54.344 17.817 54.344 19.414 57.133 19.414 57.133 20.037 54.344 20.037 54.344 21.878 57.566 21.878 57.566 22.528" fill="#323645"/><path d="M64.796,21.0391c-.081.217-.162.433-.271.623-.108.216-.271.379-.46.541-.19.163-.406.298-.65.379-.271.1089-.541.136-.812.136-.352,0-.704-.054-1.029-.217-.298-.1349-.569-.325-.785-.568-.217-.271-.38-.569-.488-.867-.108-.352-.162-.731-.162-1.11s.054-.758.189-1.137c.109-.3521.271-.65.515-.921.216-.271.487-.46.812-.623.325-.135.677-.216,1.029-.216.298,0,.596.054.866.162.244.108.461.244.677.406.19.163.325.325.461.542.108.189.189.379.216.596h-.785c-.027-.136-.081-.298-.162-.407-.082-.1349-.19-.243-.298-.352-.109-.108-.271-.189-.406-.216-.163-.054-.352-.1089-.515-.082-.271,0-.514.055-.758.19-.217.108-.406.271-.542.487-.162.217-.27.461-.352.704-.081.271-.135.569-.108.867,0,.271.027.569.108.839.055.244.163.461.325.677.136.19.325.352.542.433.217.1089.487.163.731.163.162,0,.325-.027.514-.081.163-.027.298-.109.407-.217.108-.108.216-.217.325-.325.081-.108.162-.244.216-.379l.65-.027Z" fill="#323645"/><path d="M64.796,21.039c-.081.217-.162.433-.271.623-.108.216-.271.379-.46.541-.19.163-.406.298-.65.38-.271.108-.542.135-.812.135-.352,0-.704-.054-1.029-.217-.298-.135-.569-.325-.785-.568-.217-.271-.38-.569-.488-.867-.108-.352-.162-.731-.162-1.11s.054-.758.189-1.137c.109-.352.271-.65.515-.921.216-.271.487-.46.812-.623.325-.1349.677-.216,1.029-.216.298,0,.596.054.866.162.244.109.461.244.677.406.19.163.325.325.461.542.108.189.189.379.216.596h-.785c-.027-.136-.081-.298-.162-.407-.082-.135-.19-.243-.298-.352-.109-.108-.271-.189-.406-.216-.163-.054-.352-.108-.515-.081-.271,0-.514.054-.758.189-.217.108-.406.271-.542.488-.162.216-.27.46-.352.704-.081.27-.135.568-.108.866,0,.271.027.569.108.839.055.244.163.461.325.677.136.19.325.352.542.434.217.108.487.162.731.162.162,0,.325-.027.514-.081.163-.027.298-.109.407-.217.108-.108.216-.2159.325-.325.081-.108.162-.243.216-.379l.65-.027Z" fill="#323645"/><polygon points="72.0798 22.5283 71.3218 22.5283 71.3218 20.2543 68.4518 20.2543 68.4518 22.5283 67.7208 22.5283 67.7208 17.1943 68.4518 17.1943 68.4518 19.6042 71.3218 19.6042 71.3218 17.1943 72.0798 17.1943 72.0798 22.5283" fill="#323645"/><polygon points="72.08 22.528 71.322 22.528 71.322 20.254 68.451 20.254 68.451 22.528 67.72 22.528 67.72 17.194 68.451 17.194 68.451 19.604 71.322 19.604 71.322 17.194 72.08 17.194 72.08 22.528" fill="#323645"/><polygon points="75.1666 17.1941 75.8706 17.1941 78.7676 21.2011 78.7676 17.1941 79.4986 17.1941 79.4986 22.5281 78.8486 22.5281 75.8976 18.4671 75.8976 22.5281 75.1666 22.5281 75.1666 17.1941" fill="#323645"/><polygon points="75.167 17.194 75.871 17.194 78.768 21.202 78.768 17.194 79.499 17.194 79.499 22.528 78.849 22.528 75.898 18.467 75.898 22.528 75.167 22.528 75.167 17.194" fill="#323645"/><path d="M85.6995,21.9054c-.217.108-.46.163-.704.163s-.487-.055-.704-.163c-.217-.108-.379-.2711-.541-.46-.163-.217-.298-.433-.38-.704-.108-.271-.135-.569-.135-.867s.054-.595.135-.866c.082-.244.19-.488.38-.704.135-.19.324-.352.541-.46.46-.217.975-.217,1.408,0,.217.108.379.27.542.46.162.216.297.433.379.704.081.271.135.568.135.866s-.054.596-.135.867c-.082.243-.19.487-.379.704-.163.189-.325.325-.542.46M86.0245,17.3024c-.325-.162-.677-.244-1.056-.217-.352,0-.731.055-1.056.217-.325.135-.596.325-.812.596-.217.27-.379.568-.488.893-.108.352-.162.704-.162,1.083s.054.731.162,1.083c.082.325.271.65.488.894.216.244.487.46.812.596.325.162.677.243,1.056.216.352,0,.731-.081,1.056-.216.298-.136.569-.352.785-.596.217-.271.379-.569.488-.894.108-.3521.162-.704.162-1.083s-.054-.731-.162-1.083c-.109-.325-.271-.623-.488-.893-.189-.271-.46-.488-.785-.596" fill="#323645"/><path d="M85.7,21.906c-.217.108-.461.162-.704.162-.244,0-.488-.054-.704-.162-.217-.109-.38-.271-.542-.461-.162-.216-.298-.433-.379-.704-.108-.271-.135-.568-.135-.866s.054-.596.135-.867c.081-.243.189-.487.379-.704.135-.189.325-.3521.542-.46.46-.217.974-.217,1.408,0,.216.108.379.271.541.46.163.217.298.434.379.704.081.271.136.569.136.867s-.055.595-.136.866c-.081.244-.189.488-.379.704-.162.19-.325.325-.541.461M86.025,17.302c-.325-.162-.677-.243-1.056-.216-.352,0-.732.054-1.057.216-.324.136-.595.325-.812.596-.216.271-.379.569-.487.894-.109.352-.163.704-.163,1.083s.054.731.163,1.083c.081.325.271.65.487.893.217.244.488.461.812.5959.325.163.677.244,1.057.217.351,0,.731-.081,1.056-.217.297-.1349.568-.352.785-.5959.216-.27.379-.5681.487-.893.108-.352.163-.704.163-1.083s-.055-.731-.163-1.083c-.108-.325-.271-.623-.487-.894-.19-.271-.461-.487-.785-.596" fill="#323645"/><polygon points="94.3643 22.5283 90.4383 22.5283 90.4383 17.1943 91.1693 17.1943 91.1693 21.9053 94.3643 21.9053 94.3643 22.5283" fill="#323645"/><polygon points="94.364 22.528 90.438 22.528 90.438 17.194 91.169 17.194 91.169 21.906 94.364 21.906 94.364 22.528" fill="#323645"/><path d="M100.0776,21.9054c-.217.108-.46.163-.704.163s-.487-.055-.704-.163c-.217-.108-.379-.2711-.542-.46-.162-.217-.297-.433-.379-.704-.108-.271-.135-.569-.135-.867s.054-.595.135-.866c.082-.244.19-.488.379-.704.136-.19.325-.352.542-.46.46-.217.975-.217,1.408,0,.217.108.379.27.542.46.162.216.297.433.379.704.081.271.135.568.135.866s-.054.596-.135.867c-.082.243-.19.487-.379.704-.136.189-.325.325-.542.46M100.4296,17.3024c-.325-.162-.677-.244-1.056-.217-.352,0-.731.055-1.056.217-.298.135-.596.352-.812.596-.217.27-.379.568-.488.893-.108.352-.162.704-.162,1.083s.054.731.162,1.083c.082.325.271.65.488.894.216.244.487.46.785.596.325.162.677.243,1.056.216.352,0,.731-.081,1.056-.216.298-.136.569-.352.785-.596.217-.271.379-.569.488-.894.108-.3521.162-.704.162-1.083s-.054-.731-.162-1.083c-.109-.325-.271-.623-.488-.893-.189-.271-.46-.488-.758-.596" fill="#323645"/><path d="M100.078,21.906c-.217.108-.461.162-.704.162-.244,0-.488-.054-.704-.162-.217-.109-.38-.271-.542-.461-.162-.216-.298-.433-.379-.704-.108-.271-.135-.568-.135-.866s.054-.596.135-.867c.081-.243.189-.487.379-.704.135-.189.325-.3521.542-.46.46-.217.974-.217,1.408,0,.216.108.379.271.541.46.163.217.298.434.379.704.081.271.136.569.136.867s-.055.595-.136.866c-.081.244-.189.488-.379.704-.135.19-.325.325-.541.461M100.43,17.302c-.325-.162-.677-.243-1.056-.216-.352,0-.732.054-1.056.216-.298.136-.596.352-.813.596-.216.271-.379.569-.487.894-.108.352-.163.704-.163,1.083s.055.731.163,1.083c.081.325.271.65.487.893.217.244.488.461.785.5959.325.163.677.244,1.056.217.352,0,.732-.081,1.056-.217.298-.1349.569-.352.786-.5959.216-.27.379-.5681.487-.893.108-.352.163-.704.163-1.083s-.055-.731-.163-1.083c-.108-.325-.271-.623-.487-.894-.19-.271-.461-.487-.758-.596" fill="#323645"/><path d="M109.3109,22.5283h-.65v-.542c-.189.217-.406.38-.65.515-.298.1349-.65.217-.974.217-.325,0-.65-.055-.948-.19-.298-.108-.542-.298-.758-.514-.217-.244-.379-.5421-.515-.867-.135-.379-.189-.758-.189-1.137,0-.406.054-.813.189-1.192.108-.324.298-.649.515-.92.216-.244.487-.433.785-.569.298-.135.65-.216.975-.216.27,0,.514.027.785.108.217.081.433.189.65.325.189.162.352.325.487.541.136.19.217.434.271.677h-.758c-.054-.162-.109-.298-.19-.46-.081-.135-.216-.244-.352-.325-.135-.081-.271-.162-.433-.217-.162-.054-.325-.081-.514-.054-.244,0-.461.054-.65.163-.217.108-.379.27-.542.433-.162.217-.298.46-.379.704-.108.298-.135.623-.135.948,0,.298.027.595.108.866.054.244.19.46.352.677.135.19.325.325.514.406.217.109.461.163.677.163.19,0,.407-.027.596-.082.163-.054.325-.162.46-.27.136-.109.217-.244.298-.379.081-.136.109-.298.109-.461v-.433h-1.652v-.623h2.383v2.708h.135Z" fill="#323645"/><path d="M109.311,22.528h-.65v-.541c-.19.216-.406.379-.65.514-.298.136-.65.217-.975.217s-.649-.054-.947-.19c-.298-.108-.542-.298-.758-.514-.217-.244-.38-.542-.515-.867-.135-.379-.189-.758-.189-1.137,0-.406.054-.812.189-1.191.108-.325.298-.65.515-.921.216-.244.487-.433.785-.568.298-.136.65-.217.975-.217.27,0,.514.027.785.108.216.081.433.19.65.325.189.163.352.325.487.5421.135.189.217.433.271.677h-.758c-.055-.163-.109-.298-.19-.461-.081-.135-.216-.243-.352-.325-.135-.081-.271-.162-.433-.216-.163-.054-.325-.081-.515-.054-.243,0-.46.054-.649.162-.217.108-.38.271-.542.433-.162.217-.298.461-.379.704-.108.298-.135.623-.135.948,0,.298.027.596.108.866.054.244.189.461.352.677.135.19.325.325.514.407.217.108.461.162.677.162.19,0,.406-.027.596-.081.162-.054.325-.163.46-.271.136-.108.217-.244.298-.379s.108-.298.108-.46v-.434h-1.651v-.622h2.383v2.707h.135Z" fill="#323645"/><rect x="112.371" y="17.194" width=".731" height="5.334" fill="#323645"/><rect x="112.371" y="17.194" width=".731" height="5.334" fill="#323645"/><polygon points="120.1688 22.5283 116.1888 22.5283 116.1888 17.1943 120.0608 17.1943 120.0608 17.8173 116.9198 17.8173 116.9198 19.4142 119.7088 19.4142 119.7088 20.0372 116.9198 20.0372 116.9198 21.8782 120.1418 21.8782 120.1418 22.5283 120.1688 22.5283" fill="#323645"/><polygon points="120.169 22.528 116.189 22.528 116.189 17.194 120.061 17.194 120.061 17.817 116.92 17.817 116.92 19.414 119.709 19.414 119.709 20.037 116.92 20.037 116.92 21.878 120.142 21.878 120.142 22.528 120.169 22.528" fill="#323645"/><path d="M123.8243,18.5751c0,.135.054.271.135.379.109.108.217.1899.352.244.163.081.325.135.515.189.189.054.379.109.596.19l.595.216c.19.082.352.163.515.298.135.109.271.244.352.406.108.19.135.38.135.596,0,.217-.054.406-.135.596-.109.189-.244.379-.406.514-.19.163-.434.271-.65.379-.298.109-.596.136-.894.136-.325,0-.623-.054-.92-.163-.244-.081-.461-.216-.65-.379-.163-.162-.298-.325-.379-.514-.082-.19-.136-.379-.136-.569h.677c.054.298.217.569.46.731.271.19.596.271.921.271.19,0,.379-.027.569-.081.135-.054.298-.136.406-.217.108-.081.189-.189.244-.325.054-.108.081-.2159.081-.352,0-.135-.027-.298-.136-.379-.108-.108-.216-.216-.352-.271-.135-.054-.325-.135-.514-.216-.19-.081-.379-.109-.569-.19-.189-.081-.379-.135-.568-.216-.19-.055-.352-.163-.488-.271-.135-.109-.27-.244-.352-.379-.081-.163-.135-.352-.135-.542,0-.189.054-.406.135-.568.082-.19.217-.352.352-.488.163-.135.379-.244.596-.325.271-.081.542-.135.812-.108.271,0,.515.027.786.108.216.054.406.19.568.325.163.136.271.298.352.488.081.189.136.379.19.568h-.704c-.054-.243-.19-.46-.379-.623-.217-.162-.515-.27-.813-.243-.162,0-.325.027-.487.054-.135.054-.271.108-.352.216-.081.082-.163.163-.217.271-.108.027-.135.163-.108.244" fill="#323645"/><path d="M123.824,18.575c0,.1349.054.271.136.379.108.108.216.19.352.244.162.081.325.135.514.189.19.0551.379.109.596.19l.596.217c.189.081.352.162.514.297.135.109.271.244.352.407.108.189.135.379.135.595,0,.217-.054.4059-.135.5959-.108.189-.244.379-.406.514-.19.163-.433.271-.65.38-.298.108-.596.135-.894.135-.324,0-.622-.054-.92-.163-.244-.081-.461-.216-.65-.379-.162-.162-.298-.325-.379-.514-.081-.19-.136-.379-.136-.569h.677c.055.298.217.569.461.731.271.19.595.271.92.271.19,0,.379-.027.569-.081.135-.054.298-.136.406-.217.108-.081.19-.189.244-.325.054-.108.081-.216.081-.352,0-.135-.027-.298-.135-.379-.109-.108-.217-.216-.352-.271-.136-.054-.325-.135-.515-.216-.189-.081-.379-.108-.568-.19-.19-.081-.379-.1349-.569-.216-.19-.054-.352-.163-.487-.271-.136-.108-.271-.244-.352-.379-.082-.163-.136-.352-.136-.542,0-.189.054-.406.136-.568.081-.19.216-.3521.352-.488.162-.135.379-.243.595-.325.271-.081.542-.1349.813-.108.27,0,.514.027.785.108.216.0551.406.19.568.325.163.136.271.298.352.488.082.189.136.379.19.568h-.704c-.054-.243-.19-.46-.379-.622-.217-.163-.515-.271-.812-.244-.163,0-.325.027-.488.054-.135.054-.271.108-.352.217-.081.081-.162.162-.216.27-.109.027-.136.163-.109.244" fill="#323645"/><path d="M2.194,1.733h1.353c5.714,0,11.183,2.329,15.164,6.417.352.3521.677.731,1.001,1.111.163.189.38.27.623.27.19,0,.406-.081.542-.216.352-.298.379-.84.081-1.192-.352-.406-.704-.812-1.083-1.164-2.085-2.139-4.576-3.872-7.338-5.063C9.694.677,6.634.054,3.547.054h-1.353c-.461,0-.813.379-.813.84,0,.46.352.839.813.839-.028,0,0,0,0,0" fill="#4784c5"/><path d="M.84,6.634h2.545c2.247,0,4.495.46,6.58,1.354,1.191.514,2.328,1.164,3.357,1.949.136.1089.325.163.488.163.27,0,.514-.135.677-.352.27-.379.189-.894-.19-1.191-1.137-.84-2.383-1.571-3.682-2.14-2.275-.974-4.739-1.489-7.23-1.489H.84c-.461,0-.84.379-.84.84,0,.46.379.839.84.866" fill="#4784c5"/><path d="M20.606,6.282c.19,0,.379-.054.514-.19,1.436-1.11,3.033-2.003,4.712-2.707,2.681-1.137,5.578-1.706,8.475-1.706h1.462c.461,0,.813-.379.813-.812,0-.434-.38-.813-.813-.813h-1.462c-3.141,0-6.228.623-9.125,1.814-1.814.759-3.493,1.733-5.063,2.925-.352.271-.434.785-.19,1.137,0,0,0,.027.027.027.163.217.406.352.65.325" fill="#4784c5"/><path d="M16.68,8.204c-1.056,1.192-1.977,2.519-2.762,3.9-.217.379-.081.893.325,1.11h.027c.135.081.271.108.406.108.298,0,.596-.162.731-.433.704-1.3,1.571-2.518,2.545-3.628.298-.352.244-.84-.081-1.138-.352-.298-.866-.271-1.191.081" fill="#4784c5"/><path d="M26.969,6.39c-2.22.921-4.224,2.2209-5.93,3.899-.487.461-.92.975-1.354,1.463-.27.352-.216.866.109,1.137.379.271.893.216,1.191-.136.379-.46.785-.92,1.219-1.353,1.543-1.517,3.384-2.735,5.388-3.548,2.085-.866,4.332-1.299,6.607-1.299h2.626c.461,0,.813-.352.813-.813,0-.46-.352-.812-.813-.812h-2.599c-2.464,0-4.928.515-7.257,1.462" fill="#4784c5"/><path d="M3.331,11.156h-1.246c1.977,3.791,5.199,6.769,9.125,8.475.136-.839.325-1.679.569-2.518.135-.433.596-.677,1.029-.569.433.109.704.542.595,1.002-.243.894-.433,1.787-.568,2.681.839.271,1.706.487,2.599.65-1.164-5.605-6.173-9.721-12.103-9.721M37.61,10.56v.054q0,.027.055.055c-2.843,6.552-8.963,11.02-16.084,11.968-.109.054-.217.0811-.325.054h-.108c-1.598.162-3.196.162-4.766-.027h-.027c-3.168-.379-6.201-1.489-8.854-3.25C4.224,17.275,1.652,14.243.109,10.669l-.055-.163c0-.081-.027-.162-.027-.244v-.081c0-.027.027-.027.027-.054v-.162h.027l.028-.028v-.108q0-.027.027-.027l.027-.027.027-.027.027-.027.027-.027h.108s.027,0,.027-.027c0,0,.027,0,.027-.027,0-.027.027-.027.027-.027.082-.028.136-.055.217-.082.054,0,.108-.027.19-.027h2.545c3.466-.027,6.85,1.219,9.45,3.52,1.597,1.408,2.843,3.168,3.628,5.145.19-.596.379-1.137.596-1.706.162-.433.623-.65,1.056-.487,0,0,.027,0,.027.027.406.135.623.595.487,1.002q0,.027-.027.054c-.514,1.299-.866,2.653-1.056,4.0341.461.027.921.054,1.381.054.461,0,.921-.027,1.381-.054-.189-1.5161-.623-3.005-1.245-4.413-.569-1.327-1.327-2.6-2.221-3.737-.271-.325-.216-.839.109-1.11l.027-.027c.352-.271.866-.217,1.164.135.975,1.246,1.814,2.627,2.437,4.089.298.677.541,1.408.758,2.112.163-.433.379-.867.569-1.2729.216-.406.731-.541,1.137-.3521.406.217.569.704.352,1.083-.515,1.002-.894,2.085-1.11,3.195.866-.162,1.733-.379,2.599-.649-.271-1.815-.758-3.602-1.516-5.308-.271-.649-.596-1.272-.948-1.895-.216-.406-.054-.894.325-1.11.406-.217.894-.054,1.137.325.379.65.731,1.354,1.029,2.031.731,1.705,1.246,3.493,1.544,5.334,3.953-1.679,7.202-4.658,9.179-8.475h-1.273c-2.626,0-5.172.812-7.311,2.355-.379.271-.893.19-1.164-.162-.271-.352-.19-.867.163-1.137,2.409-1.733,5.307-2.681,8.285-2.654h2.735c.081.027.162.054.217.081l.027.027.027.027s.027,0,.027.027l.027.028.027.027s0,.027.027.027h.027l.027.027s.027,0,.027.027l.027.027.027.027.027.027v.163s.028,0,.028.027v.162c0,.027.027.027.027.054v.325h-.055Z" fill="#4784c5"/></g></svg>