<svg width="115" height="24" viewBox="0 0 115 24" fill="none" id="svg-1333700522_4675">
<path d="M23.3984 13.8095C23.3984 8.05938 27.3647 5.16016 31.7817 5.16016C35.865 5.16016 38.9567 7.55151 39.4162 11.0553H36.0788C35.8369 9.19508 34.0473 7.91427 31.7788 7.91427C28.8312 7.91427 26.6092 9.96801 26.6092 13.8095C26.6092 17.6509 28.8341 19.6805 31.7788 19.6805C34.1005 19.6805 35.8863 18.3997 36.1755 16.5636H39.3679C39.0293 20.0664 35.9376 22.4588 31.7817 22.4588C27.2883 22.4588 23.3984 19.5595 23.3984 13.8095Z" fill="#181818"></path>
<path d="M40.4062 16.1757C40.4062 12.4552 42.5345 9.89453 46.1563 9.89453C47.678 9.89453 49.0072 10.5224 49.7076 11.4646V10.087H52.6793V22.2634H49.7076V20.8385C49.1271 21.8058 47.7264 22.4569 46.2047 22.4569C42.5316 22.4569 40.4062 19.8962 40.4062 16.1757ZM49.9243 16.1757C49.9243 13.9285 48.6193 12.4552 46.6149 12.4552C44.6579 12.4552 43.3538 13.9285 43.3538 16.1757C43.3538 18.4229 44.6588 19.8962 46.6149 19.8962C48.6202 19.8962 49.9243 18.4219 49.9243 16.1757Z" fill="#181818"></path>
<path d="M60.1518 12.574C57.0456 12.574 57.5186 15.6571 57.5186 17.348V22.2613H54.5469V10.0859H57.5186V12.2364C58.1223 10.6886 59.0665 10.0859 60.6355 10.0859H62.0614V12.574H60.1518Z" fill="#181818"></path>
<path d="M62.4297 16.1817C62.4297 12.4612 64.5802 9.90052 68.1798 9.90052C69.774 9.90052 71.0548 10.5777 71.7591 11.5673V4.875H74.7028V22.2694H71.7552V20.7477C71.0548 21.8118 69.7014 22.4629 68.2281 22.4629C64.5792 22.4629 62.4297 19.9022 62.4297 16.1817ZM71.9477 16.1817C71.9477 13.9345 70.6427 12.4612 68.6586 12.4612C66.6745 12.4612 65.3695 13.9345 65.3695 16.1817C65.3695 18.4289 66.6745 19.9022 68.6586 19.9022C70.6427 19.9022 71.9477 18.4279 71.9477 16.1817Z" fill="#181818"></path>
<path d="M76.6094 4.875H79.557V22.2694H76.6094V4.875Z" fill="#181818"></path>
<path d="M93.0908 18.1995C92.6313 20.7843 90.3608 22.4559 87.3649 22.4559C83.3783 22.4559 81.1562 19.3149 81.1562 16.1264C81.1562 12.9138 83.1374 9.79688 87.124 9.79688C91.2073 9.79688 93.0434 12.8654 93.0434 15.7646C93.0434 16.1757 93.0192 16.5385 92.995 16.7794H84.0081C84.2257 18.7364 85.4814 19.993 87.3658 19.993C88.8875 19.993 89.881 19.3652 90.1925 18.2053H93.0946L93.0908 18.1995ZM84.0787 14.8137H90.0677C89.9468 13.2659 88.8836 12.105 87.1201 12.105C85.4562 12.1108 84.3931 12.9805 84.0787 14.8166V14.8137Z" fill="#181818"></path>
<path d="M94.1641 18.2053H96.8727C96.9936 19.3661 97.8875 20.0897 99.2157 20.0897C100.377 20.0897 101.15 19.5093 101.15 18.7847C101.15 16.0761 94.4823 18.6638 94.4823 13.5183C94.4823 11.3901 96.3426 9.89453 98.8549 9.89453C101.706 9.89453 103.663 11.4646 103.784 13.8327H101.075C100.906 12.697 99.8667 12.1176 98.9245 12.1176C97.8604 12.1176 97.161 12.6012 97.161 13.4225C97.161 16.0557 103.926 13.1565 103.926 18.6648C103.926 20.9594 102.066 22.4578 99.2147 22.4578C96.2662 22.4569 94.3092 20.8143 94.1641 18.2053Z" fill="#181818"></path>
<path d="M104.914 18.2053H107.623C107.744 19.3661 108.637 20.0897 109.966 20.0897C111.127 20.0897 111.9 19.5093 111.9 18.7847C111.9 16.0761 105.232 18.6638 105.232 13.5183C105.232 11.3901 107.093 9.89453 109.605 9.89453C112.456 9.89453 114.413 11.4646 114.538 13.8327H111.83C111.661 12.697 110.622 12.1176 109.679 12.1176C108.615 12.1176 107.916 12.6012 107.916 13.4225C107.916 16.0557 114.681 13.1565 114.681 18.6648C114.681 20.9594 112.82 22.4578 109.97 22.4578C107.016 22.4569 105.057 20.8143 104.914 18.2053Z" fill="#181818"></path>
<path d="M5.19577 12.545V18.6898C5.19536 18.8813 5.24544 19.0695 5.34096 19.2355C5.43649 19.4015 5.57408 19.5393 5.73987 19.6352C5.90566 19.731 6.09379 19.7815 6.28529 19.7814C6.47679 19.7814 6.66489 19.7309 6.83064 19.6349L14.2794 15.3311C14.6748 15.1013 15.1237 14.9797 15.581 14.9788C16.0383 14.9779 16.4878 15.0975 16.884 15.3257C17.2803 15.5539 17.6094 15.8826 17.8381 16.2786C18.0668 16.6746 18.187 17.1239 18.1867 17.5812C18.1856 18.037 18.0648 18.4846 17.8363 18.879C17.6077 19.2734 17.2795 19.6008 16.8846 19.8284L10.1749 23.7076C9.84327 23.8991 9.46708 24 9.08414 24C8.7012 24 8.32501 23.8991 7.99342 23.7076L1.08926 19.7181C0.758183 19.5266 0.483267 19.2515 0.292084 18.9202C0.100902 18.589 0.000173108 18.2133 0 17.8308L0 9.85381C0.000199463 9.4711 0.101035 9.09517 0.292391 8.76374C0.483747 8.4323 0.758895 8.15701 1.09023 7.96549L14.2833 0.349343C14.6787 0.120703 15.1274 0.000215713 15.5842 2.89381e-07C16.0409 -0.000215134 16.4897 0.119848 16.8853 0.348116C17.281 0.576383 17.6096 0.904805 17.838 1.30035C18.0664 1.6959 18.1867 2.14462 18.1867 2.60139C18.1863 3.05801 18.0658 3.5065 17.8372 3.9018C17.6087 4.2971 17.2801 4.6253 16.8846 4.85344L6.01321 11.1288C5.76475 11.2725 5.55843 11.479 5.41496 11.7275C5.27149 11.9761 5.1959 12.258 5.19577 12.545Z" fill="#181818"></path>
</svg>