<svg width="130" height="22" viewBox="0 0 130 22" fill="none" xmlns="http://www.w3.org/2000/svg">
<path d="M39.2559 20.9421C35.089 20.9421 32.2881 18.1054 32.2881 13.8835C32.2881 9.97426 35.4404 6.91016 39.4632 6.91016C42.0134 6.91016 43.4958 7.59233 44.6071 8.25935L44.6565 8.28777L44.5321 11.5603H43.4484L43.4248 11.4959C42.7892 9.69381 41.139 8.66107 38.9006 8.66107C35.9141 8.66107 34.8541 11.1207 34.8541 13.2279C34.8541 16.0172 36.8004 18.9032 40.0553 18.9032C41.9522 18.9032 43.3359 18.0599 44.1709 16.3981L44.2163 16.3071L45.6019 17.0537L45.5625 17.1333C44.2972 19.6592 42.1753 20.9383 39.2559 20.9383V20.9421Z" fill="#130F02"/>
<path d="M52.3131 20.5714H46.2236V19.4439H46.3223C47.5067 19.4439 48.0593 18.8774 48.0593 17.6627V4.61611C48.0593 3.39767 47.8639 2.63022 47.4613 2.2645C47.2106 2.03711 46.8809 1.95373 46.3579 1.98216L46.2532 1.98784V1.04606L50.507 0.00195312V17.6608C50.507 18.8262 51.0972 19.442 52.2144 19.442H52.3131V20.5695V20.5714Z" fill="#130F02"/>
<path d="M60.2175 20.9421C56.1335 20.9421 53.2793 18.0391 53.2793 13.8835C53.2793 9.72792 56.1454 6.91016 60.2471 6.91016C64.3489 6.91016 67.363 9.70139 67.363 13.8551C67.363 18.0088 64.5581 20.9421 60.2175 20.9421ZM60.2767 8.52085C57.1402 8.52085 56.023 11.3064 56.023 13.9119C56.023 17.2167 57.5903 19.1893 60.2175 19.1893C63.4843 19.1893 64.6489 16.4492 64.6489 13.8835C64.6489 9.93067 62.3908 8.52085 60.2767 8.52085Z" fill="#130F02"/>
<path d="M75.0701 20.741C71.3592 20.741 68.9609 18.1146 68.9609 14.0519C68.9609 9.98916 71.6178 6.96484 75.5735 6.96484C77.7092 6.96484 79.1995 7.98811 79.9417 8.65134L80.9701 7.30593H82.1248V17.6333C82.1248 18.9313 82.5867 19.4145 83.8322 19.4145H83.9309V20.5704H79.7364V18.4936C78.7001 19.9262 77.0183 20.741 75.0681 20.741H75.0701ZM75.7511 8.71765C73.2206 8.71765 71.5862 10.7774 71.5862 13.9666C71.5862 17.1558 73.1653 18.8461 75.8103 18.8461C77.8632 18.8461 79.4048 17.4495 79.7383 15.2893V10.4743C78.7692 9.27666 77.5019 8.71765 75.7511 8.71765Z" fill="#130F02"/>
<path d="M99.9772 20.5714H96.7104C95.5438 20.5714 94.4799 18.9474 94.4365 18.8773L89.409 13.0087V17.6607C89.409 18.792 90.0091 19.442 91.0572 19.442H91.1559V20.5695H85.1553V19.442H85.254C86.3574 19.442 86.991 18.792 86.991 17.6607V4.61416C86.991 3.39572 86.7956 2.62827 86.3929 2.26255C86.1422 2.03516 85.8126 1.95177 85.2895 1.9802L85.1849 1.98588V1.07253L89.409 0V12.5312L89.5097 12.4459L92.4093 9.77594C92.8515 9.3799 93.0311 9.14493 93.0311 8.96302C93.0311 8.73563 92.9423 8.57456 91.7974 8.57456H91.6987V7.30495H98.4119L98.3764 8.43244H98.2796C96.7597 8.43244 95.5576 8.92323 94.3812 10.0261L91.9889 12.2394L96.4893 17.4296C98.3981 19.8627 99.8272 19.3681 99.841 19.3624L99.9752 19.3131V20.5695H99.9772V20.5714Z" fill="#130F02"/>
<path d="M106.765 20.9434C102.515 20.9434 99.7676 18.173 99.7676 13.8848C99.7676 9.86185 102.762 6.82617 106.735 6.82617C110.427 6.82617 112.813 9.07167 112.963 12.6872V12.727L111.988 13.6953H102.107C102.401 16.2686 104.392 18.9632 107.564 18.9632C109.422 18.9632 110.798 18.101 111.65 16.4013L111.696 16.3103L113.081 17.0569L113.042 17.1365C111.777 19.6624 109.665 20.9415 106.765 20.9415V20.9434ZM102.14 12.113H110.158C110.067 9.74247 108.022 8.46529 106.114 8.46529C103.745 8.46529 102.407 10.3356 102.14 12.113Z" fill="#130F02"/>
<path d="M120.502 20.742C116.791 20.742 114.393 18.1157 114.393 14.0529C114.393 9.99019 117.111 6.96588 121.005 6.96588C122.884 6.96588 124.252 7.75228 125.111 8.46856V4.58774C125.111 3.41289 124.919 2.66249 124.525 2.29488C124.272 2.05991 123.936 1.96705 123.405 1.98221L123.305 1.986V1.04801L127.47 0.00390625V17.6343C127.47 18.9324 127.949 19.4156 129.236 19.4156H129.335V20.5715H125.111V18.4946C124.071 19.9462 122.446 20.742 120.502 20.742ZM121.183 8.71869C118.674 8.71869 116.988 10.8277 116.988 13.9676C116.988 17.1075 118.528 18.8755 121.212 18.8755C123.243 18.8755 124.775 17.4676 125.111 15.2903V10.4753C124.142 9.2777 122.894 8.71869 121.183 8.71869Z" fill="#130F02"/>
<path d="M7.08979 22.0001C7.08979 22.0001 -1.64465 18.9247 0.275939 15.6786C1.49975 13.6283 4.29477 15.8492 8.661 18.07L7.08782 22.0001H7.08979Z" fill="#130F02"/>
<path d="M17.7465 20.9744C24.3847 21.486 27.3258 18.602 28.0245 17.7492C28.0245 17.7492 24.0609 12.9001 21.7258 9.64653C20.1349 7.43135 18.0978 4.28198 16.9313 2.45337C16.5168 1.80341 15.5259 1.82994 15.1035 2.47611C10.7688 9.08563 2.78641 14.0409 0.996094 14.9959C2.41137 14.4312 4.99321 16.1916 8.48897 18.0714C8.48897 18.0714 11.0846 19.3675 12.8434 19.9682C15.0975 20.7376 17.7485 20.9763 17.7485 20.9763L17.7465 20.9744Z" fill="#FF550C"/>
</svg>
