<svg width="130" height="22" viewBox="0 0 130 22" fill="none" xmlns="http://www.w3.org/2000/svg">
<g clip-path="url(#clip0_8387_2885)">
<path d="M39.3992 20.7182C35.2173 20.7182 32.4062 17.9118 32.4062 13.7349C32.4062 9.86738 35.5699 6.83594 39.6072 6.83594C42.1666 6.83594 43.6545 7.51087 44.7698 8.17075L44.8193 8.19888L44.6945 11.4365H43.6069L43.5832 11.3728C42.945 9.58991 41.2891 8.5682 39.0426 8.5682C36.0453 8.5682 34.9816 11.0016 34.9816 13.0863C34.9816 15.8458 36.9348 18.701 40.2016 18.701C42.1052 18.701 43.494 17.8668 44.3318 16.2227L44.3774 16.1327L45.7682 16.8713L45.7286 16.95C44.4587 19.449 42.3291 20.7145 39.3992 20.7145V20.7182Z" fill="white"/>
<path d="M52.5018 20.3539H46.3906V19.2385H46.4897C47.6783 19.2385 48.2328 18.678 48.2328 17.4763V4.56882C48.2328 3.3634 48.0366 2.60414 47.6328 2.24232C47.3811 2.01735 47.0501 1.93486 46.5254 1.96299L46.4204 1.96861V1.03688L50.6893 0.00390625V17.4744C50.6893 18.6273 51.2819 19.2366 52.4031 19.2366H52.5018V20.3521V20.3539Z" fill="white"/>
<path d="M60.4321 20.7182C56.3335 20.7182 53.4688 17.8462 53.4688 13.7349C53.4688 9.62365 56.3454 6.83594 60.4618 6.83594C64.5782 6.83594 67.6035 9.59741 67.6035 13.7068C67.6035 17.8162 64.7883 20.7182 60.4321 20.7182ZM60.4915 8.42944C57.3438 8.42944 56.2225 11.1853 56.2225 13.763C56.2225 17.0325 57.7952 18.9841 60.4321 18.9841C63.7106 18.9841 64.8794 16.2733 64.8794 13.7349C64.8794 9.82424 62.6131 8.42944 60.4915 8.42944Z" fill="white"/>
<path d="M75.3423 20.5218C71.6179 20.5218 69.2109 17.9234 69.2109 13.904C69.2109 9.88462 71.8775 6.89258 75.8473 6.89258C77.9907 6.89258 79.4865 7.90493 80.2312 8.56108L81.2633 7.23H82.4222V17.4472C82.4222 18.7314 82.8859 19.2095 84.136 19.2095H84.2351V20.353H80.0251V18.2984C78.9851 19.7156 77.2975 20.5218 75.3404 20.5218H75.3423ZM76.0256 8.62669C73.4859 8.62669 71.8458 10.6645 71.8458 13.8196C71.8458 16.9748 73.4304 18.6471 76.0851 18.6471C78.1453 18.6471 79.6926 17.2654 80.0271 15.1282V10.3645C79.0545 9.17971 77.783 8.62669 76.0256 8.62669Z" fill="white"/>
<path d="M100.336 20.3519H97.0579C95.8871 20.3519 94.8194 18.7453 94.7758 18.6759L89.7299 12.8699V17.4724C89.7299 18.5916 90.3324 19.2346 91.3843 19.2346H91.4833V20.35H85.4609V19.2346H85.56C86.6674 19.2346 87.3031 18.5916 87.3031 17.4724V4.56492C87.3031 3.35949 87.1069 2.60023 86.7031 2.23841C86.4514 2.01345 86.1204 1.93096 85.5957 1.95908L85.4907 1.9647V1.06109L89.7299 0V12.3975L89.831 12.3131L92.7409 9.67167C93.1848 9.27984 93.3652 9.04738 93.3652 8.86741C93.3652 8.64242 93.276 8.48308 92.127 8.48308H92.0279V7.22704H98.7653L98.7297 8.34248H98.6325C97.1074 8.34248 95.901 8.82805 94.7203 9.91913L92.3192 12.1088L96.8359 17.2436C98.7515 19.6508 100.186 19.1615 100.2 19.1559L100.334 19.1071V20.35H100.336V20.3519Z" fill="white"/>
<path d="M107.148 20.7205C102.882 20.7205 100.125 17.9797 100.125 13.7372C100.125 9.75722 103.13 6.75391 107.118 6.75391C110.822 6.75391 113.217 8.97544 113.368 12.5524V12.5918L112.389 13.5497H102.473C102.768 16.0956 104.767 18.7615 107.95 18.7615C109.814 18.7615 111.195 17.9085 112.051 16.2269L112.096 16.1369L113.487 16.8755L113.447 16.9542C112.177 19.4532 110.058 20.7187 107.148 20.7187V20.7205ZM102.506 11.9844H110.553C110.462 9.63909 108.41 8.37554 106.494 8.37554C104.117 8.37554 102.774 10.2259 102.506 11.9844Z" fill="white"/>
<path d="M120.936 20.5208C117.212 20.5208 114.805 17.9225 114.805 13.9031C114.805 9.88367 117.533 6.89163 121.441 6.89163C123.327 6.89163 124.7 7.66964 125.562 8.37828V4.53885C125.562 3.37652 125.37 2.63413 124.973 2.27044C124.72 2.03797 124.383 1.94611 123.85 1.96111L123.749 1.96486V1.03688L127.929 0.00390625V17.4463C127.929 18.7305 128.41 19.2085 129.702 19.2085H129.801V20.3521H125.562V18.2974C124.518 19.7334 122.887 20.5208 120.936 20.5208ZM121.619 8.62574C119.101 8.62574 117.41 10.7123 117.41 13.8187C117.41 16.9251 118.955 18.6742 121.649 18.6742C123.687 18.6742 125.225 17.2813 125.562 15.1272V10.3636C124.589 9.17876 123.337 8.62574 121.619 8.62574Z" fill="white"/>
<path d="M7.1154 21.7658C7.1154 21.7658 -1.65059 18.7232 0.276935 15.5118C1.50516 13.4833 4.31029 15.6805 8.69228 17.8777L7.11342 21.7658H7.1154Z" fill="#DADADA"/>
<path d="M17.8108 20.7523C24.473 21.2584 27.4247 18.4051 28.126 17.5615C28.126 17.5615 24.1481 12.7641 21.8046 9.54518C20.2079 7.35367 18.1635 4.23788 16.9927 2.42877C16.5767 1.78574 15.5822 1.812 15.1583 2.45127C10.808 8.99027 2.79677 13.8927 1 14.8375C2.42038 14.2788 5.01155 16.0205 8.51993 17.8802C8.51993 17.8802 11.125 19.1625 12.89 19.7568C15.1523 20.5179 17.8128 20.7541 17.8128 20.7541L17.8108 20.7523Z" fill="white"/>
</g>
<defs>
<clipPath id="clip0_8387_2885">
<rect width="130" height="22" fill="white"/>
</clipPath>
</defs>
</svg>
