<svg width="178" height="24" viewBox="0 0 178 24" fill="none" xmlns="http://www.w3.org/2000/svg">
<path d="M12 0C18.6274 0 24 5.37258 24 12C24 18.6274 18.6274 24 12 24C5.37258 24 0 18.6274 0 12C1.18543e-05 5.37259 5.37259 1.18547e-05 12 0ZM18.2822 5.03516C18.3644 4.80375 18.0989 4.60961 17.8379 4.84766C16.8245 5.7718 14.8645 7.32701 11.917 8.69531C9.04443 10.0285 6.0479 9.71515 4.23145 9.30469C3.54133 9.14881 3.23908 9.67377 3.49707 10.0596C4.44578 11.4783 5.66432 13.9368 5.10156 16.6299C4.22503 20.8277 16.7642 6.9072 16.791 6.87695C16.7661 6.90834 5.16851 21.3686 9.70801 19.2617C12.6134 17.913 15.9156 18.0398 17.9189 18.3057C18.545 18.3979 18.8056 17.7773 18.543 17.4814C17.4073 16.2045 15.9688 13.9824 16.5234 11.3281C17.1016 8.56067 17.844 6.27455 18.2832 5.03613C18.2797 5.04593 18.2021 5.26077 18.2822 5.03516Z" fill="white"/>
<path d="M157.875 6.02661H163.478L167.83 12.6935H168.05L172.402 6.02661H177.885V17.7972H173.755V10.9923H173.608L169.439 17.7052H166.441L162.272 10.9464H162.125V17.7972H157.875V6.02661Z" fill="#FAFAFA"/>
<path d="M143.572 17.7972H138.65L144.73 6.02661H150.618L156.698 17.7972H151.775L147.746 9.26812H147.602L143.572 17.7972ZM142.565 13.1533H152.711V15.5442H142.565V13.1533Z" fill="#FAFAFA"/>
<path d="M110.008 17.7972V6.02661H116.606C117.988 6.02661 119.197 6.18562 120.233 6.50364C121.269 6.82166 122.075 7.27954 122.651 7.87726C123.227 8.47499 123.514 9.19149 123.514 10.0268C123.514 10.8697 123.217 11.5805 122.624 12.159C122.036 12.7376 121.209 13.1744 120.142 13.4694C119.081 13.7645 117.842 13.912 116.424 13.912H112.104V11.4291H115.885C116.479 11.4291 116.985 11.3832 117.403 11.2912C117.827 11.1954 118.152 11.0441 118.376 10.8372C118.606 10.6302 118.721 10.3601 118.721 10.0268C118.721 9.6896 118.606 9.41564 118.376 9.2049C118.152 8.99033 117.827 8.83324 117.403 8.73362C116.985 8.63017 116.479 8.57844 115.885 8.57844H114.104V17.7972H110.008ZM119.478 12.3947L124.133 17.7972H119.121L114.576 12.3947H119.478Z" fill="#FAFAFA"/>
<path d="M86.4453 9.50325C86.3965 9.11713 86.1679 8.81595 85.7594 8.59972C85.357 8.38349 84.7442 8.27537 83.9211 8.27537C83.3967 8.27537 82.9669 8.31592 82.6315 8.397C82.3023 8.47423 82.0584 8.58041 81.8999 8.71556C81.7413 8.8507 81.659 9.00515 81.6529 9.17891C81.6407 9.32177 81.6804 9.45113 81.7718 9.56696C81.8694 9.67894 82.0218 9.78126 82.2291 9.87393C82.4364 9.96274 82.7016 10.0438 83.0248 10.1172C83.3479 10.1906 83.7321 10.2562 84.1772 10.3141L85.7136 10.5226C86.7502 10.6616 87.6373 10.845 88.3751 11.0729C89.1128 11.3007 89.7164 11.569 90.1859 11.8779C90.6554 12.183 90.9999 12.5266 91.2194 12.9089C91.445 13.2911 91.5608 13.7082 91.5669 14.1599C91.5608 14.9399 91.2529 15.6002 90.6432 16.1407C90.0335 16.6813 89.1616 17.0925 88.0275 17.3744C86.8995 17.6563 85.5429 17.7972 83.9577 17.7972C82.3297 17.7972 80.9091 17.6447 79.6957 17.3397C78.4885 17.0346 77.5495 16.5655 76.8788 15.9322C76.2142 15.2951 75.8789 14.4804 75.8728 13.4881H80.7018C80.7323 13.851 80.8755 14.1561 81.1316 14.4032C81.3877 14.6503 81.7474 14.8376 82.2108 14.965C82.6803 15.0924 83.2382 15.1561 83.8845 15.1561C84.4272 15.1561 84.8814 15.1137 85.2472 15.0287C85.613 14.9438 85.8905 14.826 86.0795 14.6754C86.2685 14.5248 86.366 14.353 86.3721 14.1599C86.366 13.9784 86.2715 13.8201 86.0886 13.685C85.9118 13.546 85.6191 13.4224 85.2106 13.3143C84.8021 13.2023 84.2503 13.0981 83.5552 13.0015L81.6895 12.7467C80.0311 12.5189 78.7232 12.1386 77.766 11.6057C76.8148 11.069 76.3423 10.3373 76.3484 9.41058C76.3423 8.65764 76.6593 7.9993 77.2995 7.43555C77.9458 6.86795 78.8391 6.42583 79.9792 6.10921C81.1255 5.79259 82.4395 5.63428 83.9211 5.63428C85.4332 5.63428 86.741 5.79452 87.8446 6.115C88.9482 6.43549 89.7988 6.88725 90.3963 7.4703C90.9999 8.04949 91.3048 8.72714 91.3109 9.50325H86.4453Z" fill="#FAFAFA"/>
<path d="M59.002 8.60143V6.02661H75.0884V8.60143H69.1641V17.7972H65.0454V8.60143H59.002Z" fill="#FAFAFA"/>
<path d="M92.3521 8.60143V6.02661H108.439V8.60143H102.514V17.7972H98.3955V8.60143H92.3521Z" fill="#FAFAFA"/>
<path d="M44.8772 17.7968V6.02661L57.4325 6.02704V8.60176H48.9222V10.6248H56.7295V13.1995H48.9222V15.2225H57.3955V17.7972L44.8772 17.7968Z" fill="#FAFAFA"/>
<path d="M125.31 17.7968V6.02661L137.473 6.02704V8.60176H129.228V10.6248H136.792V13.1995H129.228V15.2225H137.437V17.7972L125.31 17.7968Z" fill="#FAFAFA"/>
<path d="M38.7984 6.02661H42.9154V14.5152C42.9092 15.3213 42.8355 16.1682 42.1961 16.9727C41.5821 17.5814 41.4931 17.7276 40.4077 18.0702C39.3286 18.4088 38.1691 18.5819 36.7613 18.5819C35.5395 18.5819 34.3393 18.4411 33.3284 18.167C32.3175 17.8889 31.5113 17.4535 30.9097 16.861C30.3081 16.2645 29.9617 15.0593 29.9679 14.1081H34.931C34.9496 14.4185 35.0282 14.989 35.1708 15.2027C35.3196 15.4163 35.5101 15.6537 35.8901 15.803C36.1568 15.9078 36.634 15.9662 37.0123 15.9662C37.3968 15.9662 37.6198 15.9552 37.8802 15.8463C38.1469 15.7375 38.3832 15.5772 38.5196 15.3636C38.6561 15.1459 38.7922 14.8336 38.7984 14.5152V6.02661Z" fill="#FAFAFA"/>
</svg>
