<svg width="178" height="24" viewBox="0 0 178 24" fill="none" xmlns="http://www.w3.org/2000/svg">
<g clip-path="url(#clip0_8387_2841)">
<path d="M12 0C18.6274 0 24 5.37258 24 12C24 18.6274 18.6274 24 12 24C5.37258 24 0 18.6274 0 12C1.18543e-05 5.37259 5.37259 1.18547e-05 12 0ZM18.2822 5.03516C18.3644 4.80375 18.0989 4.60961 17.8379 4.84766C16.8245 5.7718 14.8645 7.32701 11.917 8.69531C9.04443 10.0285 6.0479 9.71515 4.23145 9.30469C3.54133 9.14881 3.23908 9.67377 3.49707 10.0596C4.44578 11.4783 5.66432 13.9368 5.10156 16.6299C4.22503 20.8277 16.7642 6.9072 16.791 6.87695C16.7661 6.90834 5.16851 21.3686 9.70801 19.2617C12.6134 17.913 15.9156 18.0398 17.9189 18.3057C18.545 18.3979 18.8056 17.7773 18.543 17.4814C17.4073 16.2045 15.9688 13.9824 16.5234 11.3281C17.1016 8.56067 17.844 6.27455 18.2832 5.03613C18.2797 5.04593 18.2021 5.26077 18.2822 5.03516Z" fill="black"/>
<path d="M157.875 6.02734H163.478L167.83 12.6942H168.05L172.402 6.02734H177.885V17.7979H173.755V10.993H173.608L169.439 17.7059H166.441L162.272 10.9471H162.125V17.7979H157.875V6.02734Z" fill="black"/>
<path d="M143.57 17.7979H138.648L144.728 6.02734H150.616L156.696 17.7979H151.773L147.744 9.26885H147.6L143.57 17.7979ZM142.563 13.154H152.709V15.5449H142.563V13.154Z" fill="black"/>
<path d="M110.008 17.7979V6.02734H116.606C117.988 6.02734 119.197 6.18635 120.233 6.50437C121.269 6.82239 122.075 7.28027 122.651 7.87799C123.227 8.47572 123.514 9.19222 123.514 10.0275C123.514 10.8704 123.217 11.5812 122.624 12.1597C122.036 12.7383 121.209 13.1751 120.142 13.4701C119.081 13.7652 117.842 13.9127 116.424 13.9127H112.104V11.4298H115.885C116.479 11.4298 116.985 11.3839 117.403 11.2919C117.827 11.1961 118.152 11.0448 118.376 10.8379C118.606 10.6309 118.721 10.3608 118.721 10.0275C118.721 9.69033 118.606 9.41637 118.376 9.20563C118.152 8.99106 117.827 8.83397 117.403 8.73435C116.985 8.6309 116.479 8.57917 115.885 8.57917H114.104V17.7979H110.008ZM119.478 12.3954L124.133 17.7979H119.121L114.576 12.3954H119.478Z" fill="black"/>
<path d="M86.4475 9.50374C86.3987 9.11762 86.1701 8.81644 85.7616 8.60021C85.3592 8.38398 84.7464 8.27586 83.9233 8.27586C83.3989 8.27586 82.9691 8.31641 82.6337 8.39749C82.3045 8.47472 82.0606 8.5809 81.9021 8.71605C81.7435 8.85119 81.6612 9.00564 81.6551 9.1794C81.6429 9.32226 81.6826 9.45162 81.774 9.56745C81.8716 9.67943 82.024 9.78175 82.2313 9.87442C82.4386 9.96323 82.7038 10.0443 83.027 10.1177C83.3501 10.1911 83.7343 10.2567 84.1794 10.3146L85.7158 10.5231C86.7524 10.6621 87.6395 10.8455 88.3773 11.0734C89.115 11.3012 89.7186 11.5695 90.1881 11.8784C90.6576 12.1835 91.0021 12.5271 91.2216 12.9094C91.4472 13.2916 91.563 13.7087 91.5691 14.1604C91.563 14.9404 91.2551 15.6007 90.6454 16.1412C90.0357 16.6818 89.1638 17.093 88.0297 17.3749C86.9017 17.6568 85.5451 17.7977 83.9599 17.7977C82.3319 17.7977 80.9113 17.6452 79.6979 17.3402C78.4907 17.0351 77.5517 16.566 76.881 15.9327C76.2164 15.2956 75.8811 14.4809 75.875 13.4886H80.704C80.7345 13.8515 80.8777 14.1566 81.1338 14.4037C81.3899 14.6508 81.7496 14.8381 82.213 14.9655C82.6825 15.0929 83.2404 15.1566 83.8867 15.1566C84.4294 15.1566 84.8836 15.1142 85.2494 15.0292C85.6152 14.9443 85.8927 14.8265 86.0817 14.6759C86.2707 14.5253 86.3682 14.3535 86.3743 14.1604C86.3682 13.9789 86.2737 13.8206 86.0908 13.6855C85.914 13.5465 85.6213 13.4229 85.2128 13.3148C84.8043 13.2028 84.2525 13.0986 83.5574 13.002L81.6917 12.7472C80.0333 12.5194 78.7254 12.1391 77.7682 11.6062C76.817 11.0695 76.3445 10.3378 76.3506 9.41107C76.3445 8.65813 76.6615 7.99979 77.3017 7.43604C77.948 6.86844 78.8413 6.42632 79.9814 6.1097C81.1277 5.79308 82.4417 5.63477 83.9233 5.63477C85.4354 5.63477 86.7432 5.79501 87.8468 6.11549C88.9504 6.43598 89.801 6.88774 90.3985 7.47079C91.0021 8.04998 91.307 8.72763 91.3131 9.50374H86.4475Z" fill="black"/>
<path d="M59 8.60216V6.02734H75.0864V8.60216H69.1621V17.7979H65.0434V8.60216H59Z" fill="black"/>
<path d="M92.3516 8.60216V6.02734H108.438V8.60216H102.513V17.7979H98.395V8.60216H92.3516Z" fill="black"/>
<path d="M44.875 17.7975V6.02734L57.4303 6.02777V8.60249H48.92V10.6255H56.7273V13.2002H48.92V15.2232H57.3933V17.7979L44.875 17.7975Z" fill="black"/>
<path d="M125.312 17.7975V6.02734L137.476 6.02777V8.60249H129.23V10.6255H136.795V13.2002H129.23V15.2232H137.439V17.7979L125.312 17.7975Z" fill="black"/>
<path d="M38.7993 6.02734H42.9163V14.5159C42.9101 15.322 42.8364 16.1689 42.197 16.9734C41.583 17.5821 41.494 17.7283 40.4086 18.0709C39.3295 18.4095 38.17 18.5826 36.7622 18.5826C35.5404 18.5826 34.3402 18.4418 33.3293 18.1677C32.3184 17.8896 31.5122 17.4542 30.9106 16.8617C30.309 16.2652 29.9626 15.06 29.9688 14.1088H34.9319C34.9505 14.4192 35.0291 14.9897 35.1717 15.2034C35.3205 15.417 35.511 15.6544 35.891 15.8037C36.1577 15.9085 36.6349 15.9669 37.0132 15.9669C37.3977 15.9669 37.6207 15.9559 37.8811 15.847C38.1478 15.7382 38.3841 15.5779 38.5205 15.3643C38.657 15.1466 38.7931 14.8343 38.7993 14.5159V6.02734Z" fill="black"/>
</g>
<defs>
<clipPath id="clip0_8387_2841">
<rect width="178" height="24" fill="white"/>
</clipPath>
</defs>
</svg>
