<svg width="500" height="76" viewBox="0 0 500 76" fill="none" xmlns="http://www.w3.org/2000/svg">
<path d="M276.098 24.9815C278.978 24.8974 281.756 24.7706 284.568 25.5934C286.179 26.0653 288.042 28.9293 289.653 28.7099L289.587 25.9008L295.995 25.8974L295.976 47.5694C296 57.218 297.457 70.2543 284.402 72.2347C279.527 72.9742 274.079 72.3882 270.039 69.4026C268.53 68.2863 265.769 65.1598 265.491 63.2276L266.045 62.8447C266.695 62.4595 270.383 60.3296 270.788 61.0448C275.48 69.3047 287.542 69.4723 289.455 59.1392C289.617 58.2695 289.971 53.8683 289.368 53.0118C287.793 53.1953 284.964 55.902 283.06 56.0631C280.377 56.2898 277.482 56.412 274.867 55.6723C271.384 54.6557 268.45 52.2951 266.704 49.1102C262.471 41.4764 264.725 29.706 273.249 26.2329C274.296 25.8065 275.085 25.5362 276.098 24.9815ZM275.082 49.4308C277.269 50.2379 279.283 51.2633 281.571 50.9469C284.764 49.8227 287.097 48.8079 288.694 45.4766C289.971 42.7533 290.117 39.6361 289.106 36.804C287.468 32.1942 283.68 30.5767 279.044 30.8372C273.242 31.9437 270.242 36.8695 271.152 42.6934C271.582 45.4343 273.261 47.4621 275.082 49.4308Z" fill="white"/>
<path d="M442.181 24.9783C444.617 24.8998 448.152 24.8124 450.339 25.8732C451.562 26.4672 453.051 28.3384 454.63 28.8201C454.909 28.2008 454.816 26.6498 454.806 25.8952L461.036 25.8893C460.767 35.0179 461.09 44.2649 460.997 53.4033C460.977 55.5151 461.09 57.7162 460.88 59.8146C460.731 61.242 460.401 62.6447 459.898 63.9895C455.277 76.2135 435.651 75.0586 430.317 63.1493L433.105 61.7645C433.708 61.6919 433.661 61.1188 434.923 60.799C437.369 61.1557 439.373 68.1649 446.689 66.9063C455.067 65.4658 455.194 58.9764 454.662 52.1895L454.384 52.1267C450.957 57.0207 442.967 57.2849 437.855 54.7669C429.575 50.6861 427.795 40.3677 431.616 32.5876C433.944 27.8416 437.455 26.4738 442.181 24.9783ZM446.255 51.037C459.876 47.7973 456.09 29.3203 444.668 30.8616C431.337 32.8564 435.128 51.5067 446.255 51.037Z" fill="white"/>
<path d="M416.867 7.91992C418.856 7.93862 421.063 7.90927 423.033 7.98075L422.984 40.8262C422.984 42.9117 422.848 53.559 423.126 55.1934C422.062 54.8197 417.944 54.9145 416.757 55.1909C416.828 53.9808 416.847 53.5157 416.669 52.321C416.169 52.4161 414.973 53.5162 414.489 53.8845C409.805 57.458 402.811 56.9597 398.105 53.7523C394.973 51.6441 392.807 48.3739 392.09 44.6641C389.566 31.1256 400.285 21.0946 413.144 26.3534C414.084 26.7383 415.258 28.2718 416.728 28.8756C417.023 21.8777 416.652 14.812 416.867 7.91992ZM408.86 50.9789C412.222 49.5796 414.841 48.3646 416.213 44.7115C418.839 37.7192 414.448 30.1388 406.624 30.8587C393.437 32.7756 396.694 51.8846 408.86 50.9789Z" fill="white"/>
<path d="M228.867 55.2052C228.932 54.4007 229.086 53.4857 228.765 52.7592L228.394 52.6967C227.774 53.1492 226.102 54.6546 225.617 54.8755C218.16 58.274 208.758 55.4551 205.667 47.4883C204.521 44.5339 204.405 40.2664 204.94 36.9744C205.55 33.1649 207.647 29.7542 210.769 27.492C213.796 25.3027 217.575 24.4202 221.257 25.0424C223.106 25.355 225.08 26.201 226.761 27.0656C227.538 27.4649 227.829 28.7056 228.748 28.8718C229.056 28.4478 228.979 26.5385 228.963 25.8999L235.103 25.8779L235.08 45.7855C235.079 47.6103 234.97 53.7587 235.201 55.2169C234.09 54.8249 230.112 54.8699 228.867 55.2052ZM221.303 50.9956C232.943 47.6428 231.403 29.7175 218.661 30.837C206.409 33.6932 209.622 51.6886 221.303 50.9956Z" fill="white"/>
<path d="M153.031 25.9114C154.992 25.8919 156.953 25.887 158.914 25.8965C159.453 26.6084 159.037 26.8843 159.214 28.0194C161.507 28.0392 161.069 26.5688 161.85 26.2066C163.761 25.3205 167.847 24.571 169.928 24.9237C170.183 24.9669 174.351 26.9791 174.844 27.1521C174.799 27.1362 176.302 29.3784 176.492 29.6567C177.391 29.3564 177.478 28.7095 178.115 28.0646C179.996 26.159 183.481 24.8257 186.139 24.8281C188.952 24.8308 192.367 25.6033 194.413 27.6648C195.153 28.4114 196.623 29.7999 197.009 30.7483C198.749 35.0197 198.009 50.3218 197.993 55.8537C195.776 55.811 193.876 55.778 191.666 55.9119C191.503 49.6953 192.429 38.3009 190.72 32.8521C189.128 31.5679 187.663 30.8209 185.592 30.8607C180.625 30.956 179.069 33.7585 178.946 38.068L178.382 38.1606C177.771 39.329 177.934 53.8076 178.223 55.9495C176.462 55.7069 174.383 55.8095 172.602 55.8811C172.295 48.6376 173.639 39.3737 171.219 32.7126C170.297 30.1755 163.373 30.7713 161.573 32.4672C157.624 36.1885 161.989 52.8452 158.896 55.7763C157.204 55.919 155.05 55.7755 153.322 55.7098C153.107 49.2422 153.351 42.5615 153.272 36.0715C153.232 32.7531 153.407 29.1941 153.031 25.9114Z" fill="white"/>
<path d="M26.9885 25.8832C28.9048 25.8852 30.8848 25.9116 32.7944 25.8735C33.3244 26.6234 32.6284 27.1286 33.1808 27.7715C33.8905 27.643 34.6763 27.1528 35.2729 26.7515C41.6234 22.4808 45.7904 25.6821 50.6557 29.5914C55.9766 21.9922 69.4353 23.9591 70.8336 33.146C71.594 38.1434 70.712 44.7938 71.0118 49.9298C71.1065 51.5497 70.8612 53.5959 71.1595 55.1811L70.9579 55.7803C70.2072 56.0303 65.7901 55.9541 65.13 55.7124C63.9341 50.7538 66.1713 39.8814 64.7096 34.4441C63.7547 30.8919 61.1769 31.2592 58.8698 31.0117C53.9888 30.4884 53.6966 34.8073 52.3025 35.2586C51.7659 36.0892 51.9092 53.1724 52.127 55.1931L51.9256 55.7781C50.9335 56.0794 47.7227 55.9157 46.5346 55.8695L46.0801 55.5005C45.8841 54.5602 45.9847 52.1942 45.9366 51.1651C45.765 47.5076 46.5034 37.7478 45.6102 34.7085C45.2291 33.4026 44.3433 32.3024 43.1491 31.6526C40.2801 30.0989 34.6721 31.0085 34.3279 34.1905C34.272 34.7083 33.7945 35.0169 33.3046 35.1643C32.698 36.2012 32.8535 53.0419 33.0886 55.196C32.9758 55.6818 33.0671 55.5137 32.686 55.8695C31.3554 55.947 28.3084 56.1051 27.0957 55.7781L26.8438 55.2029C27.0488 53.5504 26.9243 51.7528 26.9529 50.0786C27.0896 42.059 26.7114 33.8899 26.9885 25.8832Z" fill="white"/>
<path d="M26.8438 55.2038C28.182 54.9477 31.8368 54.8119 33.0886 55.197C32.9758 55.6828 33.0671 55.5147 32.686 55.8705C31.3554 55.9479 28.3084 56.1061 27.0957 55.7791L26.8438 55.2038Z" fill="white"/>
<path d="M46.0781 55.5017L46.5366 55.0716C48.0369 54.8952 50.653 54.8759 52.125 55.1943L51.9236 55.7793C50.9315 56.0806 47.7207 55.9169 46.5327 55.8707L46.0781 55.5017Z" fill="white"/>
<path d="M65.1328 55.7136C65.1514 55.4658 65.2717 55.2945 65.3935 55.0779C66.9961 54.8934 69.5783 54.8553 71.1623 55.1823L70.9607 55.7815C70.2101 56.0315 65.7929 55.9552 65.1328 55.7136Z" fill="white"/>
<path d="M480.105 24.9726C485.256 24.857 489.13 24.8438 493.326 28.4845C498.357 32.85 498.367 37.1299 498.846 43.0318C491.195 43.2854 482.537 43.0601 474.759 43.1119C475.016 51.4697 486.567 53.2886 491.598 48.3515C492.079 47.7929 492.24 47.6267 492.828 47.1871C494.459 46.9342 497.298 50.2092 496.7 51.8602C495.169 53.1271 490.568 55.7695 488.63 55.9804C483.867 56.4987 479.253 56.5661 475.016 54.0501C471.608 52.0577 469.15 48.7716 468.2 44.9384C466.376 37.6895 468.835 34.5745 472.059 29.1812C473.675 28.2931 475.416 27.0363 477.11 26.2301C478.455 25.5911 478.724 25.8262 480.105 24.9726ZM484.497 37.9351C485.927 37.949 490.656 38.1397 491.801 37.7941C492.731 35.8386 489.201 32.1017 487.436 31.33C485.69 30.5665 484.118 30.5191 482.253 30.6071C478.675 31.5998 474.981 33.2886 475.077 37.5661C475.797 38.3352 482.944 37.9222 484.497 37.9351Z" fill="white"/>
<path d="M367.669 24.9555C369.554 24.9152 371.59 24.7563 373.438 25.0933C383.119 26.8601 386.097 34.3749 385.951 43.0584C378.117 43.219 369.735 43.0652 361.857 43.0638C362.04 49.4126 370.235 52.7854 375.735 50.3077C376.484 49.9702 378.62 48.8408 378.94 48.2293L379.365 48.1546C379.748 47.8423 379.75 47.5141 380.4 47.1646C381.493 47.4517 381.188 47.8518 381.996 48.6191C382.567 49.1624 383.324 49.6562 383.988 50.0836C384.696 52.3189 381.635 53.6432 380.036 54.4562C373.936 57.5566 364.613 56.8354 359.631 52.0247C351.997 44.6542 354.102 32.2581 362.86 26.8443C363.978 26.1524 366.3 25.5953 367.669 24.9555ZM370.438 37.9376L378.972 37.9583C378.706 33.0535 375.71 30.9192 370.635 30.4502C370.616 30.4514 370.599 30.4529 370.579 30.4541C370.572 30.4615 370.562 30.469 370.552 30.4764C367.057 31.4023 365.719 30.8339 363.419 34.269C362.687 35.3646 361.525 36.1695 362.311 37.4813C363.756 38.3938 368.436 37.91 370.438 37.9376Z" fill="white"/>
<path d="M85.0382 43.0951C85.254 47.5422 88.2507 50.255 92.6798 50.9837C97.8301 51.8312 99.5098 49.9444 103.343 47.1282C103.986 47.3785 107.324 50.1201 107.213 50.9908C107.105 51.8417 106.533 51.7601 105.76 52.5841C103.686 54.7954 100.13 55.8912 97.1886 56.1588C87.7857 57.4828 78.6823 52.3864 77.8296 41.9966C77.5042 37.8413 78.8295 33.7249 81.5177 30.5417C90.0722 20.5204 107.262 24.6889 108.222 37.7299L108.693 37.3401C109.147 38.6277 108.963 41.296 108.891 42.7598C108.807 42.8561 108.583 43.1322 108.489 43.1811C106.565 42.9592 102.445 43.0736 100.369 43.0753L85.0382 43.0951ZM85.1229 37.9542L95.814 37.9369L102.003 37.954C101.612 32.7171 96.8717 29.7318 91.9397 30.8669C88.198 31.3598 85.1681 34.0191 85.1229 37.9542Z" fill="white"/>
<path d="M108.222 37.7296L108.693 37.3398C109.146 38.6274 108.963 41.2958 108.891 42.7596C108.807 42.8558 108.583 43.132 108.489 43.1808C108.364 42.9665 108.256 42.7429 108.165 42.5122C107.778 41.5167 107.804 38.689 108.222 37.7296Z" fill="white"/>
<path d="M114.149 8.06516C117.482 7.88587 127.057 7.81084 130.018 8.14158C129.743 13.1385 129.923 19.7303 129.924 24.8295L129.936 55.0123C129.937 58.9829 130.289 70.6668 129.294 73.6958C126.732 73.5407 123.564 73.6123 120.956 73.6044L114.497 73.6149C114.491 71.7044 114.424 70.7685 114.159 68.8768C116.231 68.717 121.658 69.182 123.162 68.5193C123.778 65.9211 123.545 52.1942 123.556 48.4751C123.588 38.2503 123.563 27.6464 123.508 17.3922C123.502 16.263 123.278 14.3374 122.984 13.2611C121.828 13.0548 115.715 13.0816 114.109 13.028C114.503 11.149 114.301 9.9572 114.149 8.06516Z" fill="white"/>
<path d="M2.98438 8.22881C4.93486 7.76858 16.8467 7.89549 18.9523 8.15711C18.9476 9.79444 18.917 11.4316 18.8605 13.0679C15.8522 13.1752 12.1977 12.9353 9.26865 13.2666C9.08405 20.1488 9.23066 27.7162 9.22546 34.6586L9.22246 65.7318C9.22998 66.5021 9.15899 67.6347 9.7016 68.168C11.1346 69.1203 13.2812 68.8788 15.0287 68.8622C16.0597 68.861 17.2127 68.7642 18.253 68.698C18.3014 70.3695 18.2985 72.1107 18.3186 73.789C15.7458 73.4188 6.524 73.5591 3.85058 73.7995C3.7013 67.1685 4.13675 9.6181 3.60319 8.34303L2.98438 8.22881Z" fill="white"/>
<path d="M327.121 25.8732C327.123 26.5753 327.038 28.2324 327.377 28.7385C328.583 27.6896 330.431 26.1672 332.013 25.5816C337.298 23.6264 345.69 25.6435 347.318 31.7332C349.203 38.7885 347.397 47.8775 348.185 55.2087C347.15 54.8468 343.259 54.98 341.919 54.991C342.229 50.4759 341.85 45.7691 342.041 41.2709C342.234 36.6952 342.055 31.2619 336.229 30.877C331.014 30.4913 327.275 33.3402 327.109 38.7446C326.952 44.4128 327.167 50.2086 327.099 55.933C325.336 55.7634 322.724 55.7312 320.955 55.9357C320.764 46.6647 320.674 35.1454 320.937 25.89L327.121 25.8732Z" fill="white"/>
<path d="M250.038 25.8683C250.06 26.3753 250.055 28.0305 250.317 28.3374C252.311 27.933 252.413 26.3472 253.407 25.8995C255.323 25.0367 262.063 24.0998 263.108 26.305C262.998 28.3589 261.751 28.3015 260.806 31.1274C257.811 31.4004 254.747 30.1736 252.484 33.1154C250.326 35.9164 249.833 39.7235 250.011 43.1848C250.202 46.9305 249.765 51.3595 250.116 55.0593C250.121 55.1109 250.126 55.1625 250.131 55.214C248.959 54.8284 245.234 54.8866 243.969 55.215C244.248 52.369 244.103 47.7286 244.101 44.6996L244.08 25.9037L250.038 25.8683Z" fill="white"/>
<path d="M304.915 25.8909C306.822 25.8934 310.205 25.7973 311.994 25.9616V45.4183C311.994 46.8682 312.258 54.8381 311.572 55.5378L311.286 55.193C310.281 54.7817 306.934 54.9779 305.796 55.1209L304.891 55.0723C305.252 47.257 304.861 37.0314 304.952 28.971L304.915 25.8909Z" fill="white"/>
<path d="M304.952 28.9714C305.081 28.1239 305.208 27.2945 305.303 26.4414C306.131 27.1078 305.872 36.7647 305.867 38.1454L305.796 55.1213L304.891 55.0726C305.252 47.2573 304.861 37.0318 304.952 28.9714Z" fill="white"/>
<path d="M306.18 11.044C312.161 10.7097 312.464 12.0448 312.046 17.616C311.26 18.0643 310.484 18.5305 309.72 19.0144L306.554 19.0428C305.802 18.4954 305.299 18.0174 304.625 17.3874C304.542 16.9812 304.469 16.573 304.406 16.163C303.942 13.0738 304.738 12.9982 306.18 11.044Z" fill="white"/>
<path d="M178.219 55.9479C177.93 53.806 177.767 39.3274 178.378 38.159L178.942 38.0664C178.964 40.3227 179.29 54.8402 178.671 55.7798L178.219 55.9479Z" fill="white"/>
<path d="M71.5981 35.5801C72.7523 38.0201 71.4756 51.4836 71.7438 55.0747C71.0896 53.64 71.1926 37.8315 71.5981 35.5801Z" fill="white"/>
<path d="M228.867 55.2045C230.112 54.8692 234.091 54.8243 235.202 55.2162C235.159 55.4406 235.025 55.6104 234.899 55.8057C232.769 55.8868 231.228 55.8939 229.103 55.7944L228.867 55.2045Z" fill="white"/>
<path d="M416.758 55.191C417.944 54.9146 422.062 54.8198 423.127 55.1935C423.07 55.4743 422.939 55.5874 422.751 55.8024C420.874 55.8894 418.869 55.9608 417.002 55.7707L416.758 55.191Z" fill="white"/>
<path d="M341.922 54.9919C343.262 54.9809 347.153 54.8477 348.188 55.2096C348.13 55.4718 347.981 55.6006 347.8 55.7995C346.509 55.8777 343.235 56.062 342.09 55.6832L341.922 54.9919Z" fill="white"/>
<path d="M243.969 55.214C245.234 54.8856 248.959 54.8274 250.131 55.2131C250.109 55.3291 249.926 55.6791 249.865 55.8022C248.105 55.8858 245.898 55.9828 244.18 55.77L243.969 55.214Z" fill="white"/>
<path d="M305.796 55.1216C306.934 54.9786 310.281 54.7824 311.286 55.1937C311.216 55.5013 311.142 55.558 310.923 55.7872C309.289 55.8718 306.77 55.969 305.213 55.6081L304.891 55.0729L305.796 55.1216Z" fill="white"/>
</svg>
