<svg width="73" height="20" viewBox="0 0 73 20" fill="none" xmlns="http://www.w3.org/2000/svg">
<mask id="mask0_468_8" style="mask-type:luminance" maskUnits="userSpaceOnUse" x="0" y="0" width="73" height="20">
<path d="M73 0.266724H0V19.7334H73V0.266724Z" fill="white"/>
</mask>
<g mask="url(#mask0_468_8)">
<path d="M3.84961 10.683V19.249H0V4.42659H3.84961V5.94704C4.31611 5.37384 4.90918 4.91664 5.58222 4.61137C6.26089 4.30112 7.00341 4.146 7.811 4.146C9.29499 4.146 10.4778 4.62506 11.3583 5.58318C12.2378 6.54131 12.678 7.83706 12.678 9.47157V19.249H8.8273V10.5985C8.8273 9.67694 8.6311 8.97315 8.23649 8.48496C7.8418 7.99565 7.27031 7.75155 6.51753 7.75155C5.74761 7.75155 5.11 8.01956 4.60584 8.55455C4.10169 9.09065 3.84961 9.80007 3.84961 10.683Z" fill="white"/>
<path d="M22.0243 19.1932C21.3651 19.5023 20.6396 19.6574 19.8526 19.6574C18.3675 19.6574 17.1755 19.1749 16.2767 18.2088C15.3791 17.2427 14.9297 15.9538 14.9297 14.341V4.55322H18.7793V13.4695C18.7793 14.3512 18.9766 15.0208 19.3713 15.4805C19.7648 15.9401 20.3374 16.1694 21.0902 16.1694C21.4461 16.1761 21.7993 16.107 22.1264 15.9666C22.4534 15.8261 22.7468 15.6176 22.987 15.355C23.5003 14.8098 23.757 14.1071 23.757 13.2448V4.55322H27.6077V19.3483H23.7581V17.829C23.2898 18.408 22.6972 18.8742 22.0243 19.1932Z" fill="white"/>
<path d="M34.1516 0.675049V3.53232H30.0625V0.675049H34.1516Z" fill="white"/>
<path d="M34.1505 4.552V19.2478H30.2656V4.552H34.1505Z" fill="white"/>
<path d="M42.7873 19.3961C42.2205 19.4349 41.7836 19.4532 41.4779 19.4532V19.4543C39.8959 19.4543 38.7552 19.1349 38.0572 18.4962C37.358 17.8586 37.0078 16.8366 37.0078 15.4313V4.48703L37.0192 1.92633L40.8152 0.266724V4.48703H43.7671V7.77773H40.8152V14.6146C40.8152 15.1393 40.9395 15.5089 41.187 15.7256C41.4357 15.9412 41.9193 16.0495 42.6356 16.0495C42.8289 16.05 43.0221 16.0451 43.2151 16.0347C43.3805 16.0256 43.6291 16.0028 43.9599 15.9651L42.7873 19.3961Z" fill="white"/>
<path fill-rule="evenodd" clip-rule="evenodd" d="M55.8898 18.5225C54.7412 19.2787 53.409 19.6574 51.8954 19.6574C50.8118 19.6574 49.8114 19.4681 48.8955 19.0905C47.9979 18.7249 47.1935 18.1628 46.5413 17.4458C45.9048 16.7465 45.42 15.923 45.0836 14.9786C44.7471 14.0319 44.5783 13.003 44.5783 11.8875C44.5716 10.868 44.7426 9.85522 45.0836 8.89447C45.4024 7.98858 45.8979 7.15503 46.5413 6.44212C47.1843 5.71279 47.9783 5.13208 48.8681 4.74031C49.7647 4.34337 50.7274 4.1449 51.7562 4.1449C53.8105 4.1449 55.4473 4.82928 56.6609 6.20145C57.8757 7.57136 58.4836 9.37238 58.4836 11.6023V12.7658H48.3355C48.4655 13.9007 48.8533 14.7892 49.4989 15.4314C50.1434 16.0747 50.9521 16.3964 51.9239 16.3964C52.7075 16.3964 53.3759 16.207 53.928 15.8295C54.4789 15.4508 54.8667 14.9124 55.0914 14.2121L58.3992 15.404C57.8757 16.7272 57.0396 17.7663 55.8898 18.5225ZM48.4632 10.0648H54.5987V10.0636C54.5793 9.20017 54.3123 8.50778 53.7956 7.98767C53.2801 7.46638 52.5911 7.20634 51.7277 7.20634C50.9213 7.20634 50.2323 7.45269 49.6597 7.94318C49.0871 8.43367 48.6891 9.14086 48.4632 10.0648Z" fill="white"/>
<path fill-rule="evenodd" clip-rule="evenodd" d="M70.4056 18.5225C69.2558 19.2787 67.9235 19.6574 66.4099 19.6574C65.3263 19.6574 64.326 19.4681 63.4101 19.0905C62.5124 18.7249 61.708 18.1628 61.0558 17.4458C60.4194 16.7465 59.9346 15.923 59.5981 14.9786C59.2616 14.0319 59.094 13.003 59.094 11.8875C59.0869 10.8681 59.2575 9.85529 59.5981 8.89447C59.9169 7.98858 60.4124 7.15503 61.0558 6.44212C61.6988 5.71279 62.4928 5.13208 63.3827 4.74031C64.2793 4.34337 65.2419 4.1449 66.2708 4.1449C68.3262 4.1449 69.9607 4.82928 71.1752 6.20145C72.3905 7.57136 72.9982 9.37238 72.9982 11.6023V12.7658H62.85C62.9812 13.9007 63.369 14.7892 64.0135 15.4314C64.6591 16.0747 65.4666 16.3964 66.4385 16.3964C67.2232 16.3964 67.8916 16.207 68.4437 15.8295C68.9946 15.4508 69.3813 14.9124 69.6068 14.2121L72.9147 15.404C72.3905 16.7272 71.5542 17.7663 70.4056 18.5225ZM62.9789 10.0648H69.1132V10.0636C69.0938 9.20017 68.8269 8.50778 68.3114 7.98767C67.7947 7.46638 67.1057 7.20634 66.2423 7.20634C65.4359 7.20634 64.7469 7.45269 64.1743 7.94318C63.6029 8.43367 63.2036 9.14086 62.9789 10.0648Z" fill="white"/>
<path d="M54.8005 0.674927V2.95618H48.4609V0.674927H54.8005Z" fill="white"/>
</g>
</svg>
