<svg xmlns="http://www.w3.org/2000/svg" width="120" height="24" fill="none"><path fill="#F09" d="M11.728 8.102c.312 0 .454.385.22.59L1.16 18.104c-.276.241-.689-.077-.52-.407l3.231-6.365H1.979a.337.337 0 0 1-.3-.49L5.63 3.062a.332.332 0 0 1 .3-.183h6.316c.283 0 .442.334.257.555L8.6 8.1h3.131l-.002.004h-.001Z"/><path fill="#000" d="M85.867 6.629c-3.142 0-6.626 2.568-6.626 6.718 0 3.049 2.155 4.838 4.746 4.838 2.454 0 3.763-.973 4.212-1.36a.33.33 0 0 0 .108-.314l-.33-1.634a.204.204 0 0 0-.326-.122c-.441.339-1.42.953-2.7.953-1.581 0-2.636-1.1-2.636-2.82 0-2.339 1.674-3.806 3.508-3.806 1.325 0 2.102.577 2.489.96a.205.205 0 0 0 .327-.052l.888-1.739a.328.328 0 0 0-.054-.374c-.397-.424-1.344-1.25-3.603-1.25l-.003.002ZM96.56 6.629c-3.624 0-6.765 2.706-6.765 6.672 0 2.98 2.017 4.884 4.93 4.884 3.622 0 6.764-2.66 6.764-6.65 0-2.958-2.017-4.906-4.93-4.906Zm-1.445 9.126c-1.536 0-2.294-1.193-2.294-2.73 0-2.177 1.284-4.035 3.371-4.035 1.49 0 2.293 1.17 2.293 2.752 0 2.155-1.375 4.013-3.37 4.013ZM116.557 6.629c-1.605 0-2.935.757-3.852 2.11-.274-1.468-1.1-2.11-2.452-2.11-2.594 0-3.692 1.88-3.692 1.88.023-.322.069-.642.069-1.01 0-.138-.011-.276-.017-.43a.245.245 0 0 0-.245-.234h-2.369a.245.245 0 0 0-.244.264c.012.15.024.304.009.446 0 .413-.045.78-.115 1.284l-1.399 8.82a.245.245 0 0 0 .242.284h2.392a.245.245 0 0 0 .242-.207l.885-5.526c.274-1.742 1.077-3.164 2.499-3.164.987 0 1.33.687 1.33 1.72 0 .297-.023.619-.069.94l-.94 5.952a.245.245 0 0 0 .242.285h2.369a.245.245 0 0 0 .242-.207l.885-5.526c.297-1.903 1.192-3.164 2.499-3.164 1.032 0 1.33.757 1.33 1.72 0 .297-.023.642-.091.963l-.527 3.325c-.161 1.078-.229 1.651-.229 2.316v.328c0 .136.11.246.246.246h2.379c.139 0 .25-.117.245-.256-.004-.108-.004-.216-.004-.318 0-.642.116-1.215.184-1.835l.665-4.287c.091-.504.138-.986.138-1.468 0-1.81-.711-3.141-2.843-3.141h-.004ZM20.79 8.21c-.7-.23-1.706-.546-1.706-1.107 0-.473.585-.712 1.256-.712.98 0 2.238.52 3.11 1.272.098.085.25.064.334-.035l2.122-2.636a.245.245 0 0 0-.002-.324c-.95-1.049-2.498-2.012-4.718-2.012-1.89 0-3.595.524-4.799 1.477C15.07 5.177 14.4 6.374 14.4 8.182c0 2.116 1.9 3.418 3.9 4.175.991.376 1.786.665 1.786 1.16 0 .535-.677.725-1.256.725-1.163 0-2.657-.712-3.515-1.454a.245.245 0 0 0-.341.016l-2.568 2.642a.246.246 0 0 0-.004.334c1.295 1.44 3.856 2.42 5.99 2.42 3.77 0 6.474-2.346 6.474-5.773 0-1.833-1.45-3.359-4.076-4.217ZM38.441 7.12a.246.246 0 0 0-.242-.284h-4.102a.245.245 0 0 0-.242.207l-.907 5.694c-.062.389-.246 1.57-1.345 1.57-.621 0-.922-.345-.922-1.057 0-.386.102-1.071.18-1.554l.534-3.268c.057-.348.087-.678.087-.98 0-.156-.007-.285-.017-.39a.244.244 0 0 0-.244-.222h-4.104a.246.246 0 0 0-.245.26c.005.09.008.193.008.307 0 .275-.024.595-.067.927l-.823 5.296a8.373 8.373 0 0 0-.132 1.493c0 1.986 1.165 3.079 3.28 3.079 1.091 0 2.213-.443 3.075-1.214l.264-.237-.061.35c-.047.268-.035.48-.007.63a.247.247 0 0 0 .242.205h4.006a.246.246 0 0 0 .245-.266 5.149 5.149 0 0 1 .053-1.23l1.49-9.315h-.004ZM48.25 6.614c-1.355 0-2.687.48-3.564 1.28l-.264.242s.064-.41.072-.576a2.41 2.41 0 0 0-.02-.482c-.016-.132-.112-.24-.246-.24h-3.757a.246.246 0 0 0-.245.259c.005.09.009.193.009.307 0 .288-.025.627-.069.929l-1.912 11.9c-.06.363-.088.65-.088.936 0 .175.006.317.018.435.013.126.118.22.245.22h4.131a.246.246 0 0 0 .245-.265 5.149 5.149 0 0 1-.014-.39c0-.22 0-.524.07-.848l.54-3.637.175.31c.452.8 1.395 1.205 2.805 1.205 3.863 0 5.949-3.637 5.949-7.06 0-1.301-.36-2.415-1.038-3.22-.72-.853-1.773-1.304-3.042-1.304Zm-2.78 7.76c-.925 0-1.545-.647-1.545-1.612 0-1.22.803-2.48 2.147-2.48.94 0 1.545.643 1.545 1.635 0 1.209-.803 2.458-2.147 2.458ZM59.98 6.613c-4.013 0-6.927 2.951-6.927 7.017 0 2.86 2.002 4.57 5.355 4.57 1.189 0 2.985 0 5.151-1.486a.284.284 0 0 0 .083-.378v-.003l-.912-1.69a.285.285 0 0 0-.374-.105l-.033.017c-.463.236-1.325.71-2.486.71-1.516 0-2.459-.908-2.495-1.787l-.005-.12.114.041c.012.005 1.217.436 2.86.436 1.45 0 2.5-.279 3.211-.85.73-.586 1.085-1.472 1.085-2.706 0-.86-.334-3.666-4.626-3.666Zm-.795 4.947c-.6 0-1.141-.077-1.545-.146l-.08-.013.012-.08c.249-1.458 1.386-2.245 2.33-2.245.805 0 1.324.416 1.324 1.062 0 .876-.782 1.42-2.043 1.42l.002.002ZM74.13 10.638l.645-3.47c.032-.173-.034-.314-.234-.32h-.928c-1.266 0-2.215.297-2.868 1.456h-.022c.099-.574.08-1.034.028-1.265a.252.252 0 0 0-.242-.203h-3.942a.246.246 0 0 0-.245.26c.005.09.008.193.008.307 0 .264 0 .564-.045.906l-1.49 9.338a.246.246 0 0 0 .243.285h4.085a.245.245 0 0 0 .242-.207l.662-4.137c.279-1.824 1.097-2.75 2.434-2.75h1.428c.119 0 .22-.084.241-.2ZM75.563 14.784c-1.215 0-2.109.779-2.109 1.993 0 .872.596 1.421 1.558 1.421 1.123 0 2.085-.756 2.085-1.947 0-.917-.641-1.467-1.534-1.467Z"/></svg>